<svg id="Layer_1" data-name="Layer 1" xmlns="http://www.w3.org/2000/svg" viewBox="0 0 370.26 225.46">
  <g id="Group_673" data-name="Group 673">
    <g id="Group_649" data-name="Group 649">
      <path id="Path_809" data-name="Path 809" d="M147.93,202.52h0s0,0,0,0" fill="#2b2e34"/>
    </g>
    <g id="Group_650" data-name="Group 650">
      <path id="Path_810" data-name="Path 810" d="M102.46,202.92c.06-.76.52-1.47.89-1.23s1,.22,1.45.76c.1.12.33.38.24-.22-.22-1.35.33-1.2.44-1.89.2-1.17.45-.26.7-.1s.46.44.68.06.34-.25.45,0c.54,1.17,1-.08,1.38-.53s.56-.46.89-.28a12.55,12.55,0,0,0,3.91.88c.91.19,1.83,0,2.75.29.33.08.54.77.85.73l.27.06c.5-.53,1-1.3,1.5-.08.53-.75,1,1,1.57,0,.08-.14.21-.19.3-.14a4.18,4.18,0,0,0,2.83.18c.18,0,.37.05.49.51.82.08,1.63-.83,2.45-.07.54.5,1.1.32,1.64.22a4.18,4.18,0,0,1,1.49.14,2,2,0,0,0,.93,0c.64-.2,1.37-.65,1.92,0s1,1.06,1.51.15c0-.07.25-.17.34.21s.28.54.42.39c.79-.83,1.66.2,2.4-.44,1-.86,1.86.26,2.8,0a3,3,0,0,1,1.94-.14,3.71,3.71,0,0,0,3-.3c.79-.39,1.63,0,2.44,0a.62.62,0,0,1,.6.46v0a.79.79,0,0,1,0,.09c.17-.16.35-.49.52-.43,1.45.46,2.9-.86,4.34,0,.39.23.69-.44,1.07-.45,1.55-.06,3.1.2,4.64-.64.41-.22.88-.13,1.27.51.07.11.12.35.19.14.49-1.44,1.14-.72,1.71-.8a31.4,31.4,0,0,0,6.46-1.1,28.57,28.57,0,0,1,3.52-1,1.39,1.39,0,0,1,1,.38c.6.43.61.38.33,2,0,0,0,0,0,0h0c1-.43,2.05-.27,3,1.18a1.62,1.62,0,0,1,.25.95,3.75,3.75,0,0,1,.16.43c.35,1.58.31,1.83-.32,2.3-.12.09-.34,0-.3.39s.21,0,.33,0c.28-.07.48.45.72.68.46.45,1,.3,1.41.82a1.33,1.33,0,0,1,.44,1.23c0,.87-.15,1.67-.56,1.74s-.71.5-1-.2c0-.09-.15.06-.23.1v0c-.35.53-.78,0-1.15.73a1.66,1.66,0,0,0-.32,1.08c0,1.32-.28,1.89-.81,1.93-1.54.11-3.08.22-4.62.26a3.38,3.38,0,0,1-1.8-.48c-.34-.2-.7.37-1.08.44-1.94.32-3.88-.2-5.82-.1-1.78.08-3.56.11-5.34.13-1,0-2.1.42-3.14.37-2-.1-3.92.35-5.88-.05-.55-.12-1.15.36-1.72.25a6.85,6.85,0,0,0-2.74-.22,11.66,11.66,0,0,1-3.68.19c-1.13-.1-2.25.17-3.38,0a7.43,7.43,0,0,0-2.43.37,1.89,1.89,0,0,1-1.52-.4c-.39-.26-.85.17-1.27.25s-1,1.12-1.5-.41c-.29.52-.65.15-.93.42-.5.49-1-.23-1.46.08-.26.16-.22-.68-.35-.94s-.24-1.1-.41.15-.66,1.1-1,.08c-.15-.43-.28-.45-.38-.06-.2.73-.4.87-.66.25-.08-.2-.22-.35-.28-.11-.43,1.62-1,.17-1.49.58-.12.1-.21-.14-.22-.45,0-.85-.18-.81-.35-.34-.32.9-.74.77-1.11.62-1.2-.48-2.41-.07-3.6-.48-1.62-.56-3.24-.28-4.86-.68a7.87,7.87,0,0,0-2.78.22,2,2,0,0,1-2-.79c-.71-.84-1.5-.54-2.26-.6-.27,0-.52,0-.73-.59a4.19,4.19,0,0,1-.26-1.92c.09-.75.28-1.48.61-1.46.59,0,1.1-.48,1.65-1s1.13-.07,1.7,0,1,.15,1.48.22c.08,0,.17.07.23,0a1,1,0,0,0,.25-.74c0-.38-.17-.27-.26-.26-1.25.13-2.46-.62-3.68-1-.7-.25-1.4-.58-2.1-.88a1.05,1.05,0,0,1-.38-.27,2.81,2.81,0,0,1-.54-2.27m74.27,7.85s.07,0,.11,0,0-.21-.07-.23-.08.1,0,.2m-.48-7.22v-.09a.57.57,0,0,1,0,.13s0,0,0,0M173,201.13s0,0,0,0" fill="#2b2e34"/>
    </g>
    <g id="Group_651" data-name="Group 651">
      <path id="Path_811" data-name="Path 811" d="M96.69,81.14h0" fill="#2b2e34"/>
    </g>
    <g id="Group_652" data-name="Group 652">
      <path id="Path_812" data-name="Path 812" d="M51.23,81.54c.05-.76.51-1.47.88-1.23s1,.22,1.45.76c.1.12.34.38.24-.22-.21-1.35.33-1.2.44-1.89.2-1.17.45-.26.7-.1s.46.44.69.06.34-.25.45,0c.53,1.17,1-.08,1.38-.53s.55-.46.89-.28a12.48,12.48,0,0,0,3.91.88c.91.19,1.83,0,2.74.29.34.08.55.77.86.73l.27.06c.49-.53,1-1.3,1.5-.08.52-.75,1,1,1.56,0,.08-.14.21-.19.3-.14a4.21,4.21,0,0,0,2.84.18c.17,0,.36.05.48.51.82.08,1.64-.83,2.46-.07.53.5,1.09.32,1.63.22a4.16,4.16,0,0,1,1.49.14,2,2,0,0,0,.93,0c.64-.2,1.38-.65,1.92,0s1,1.06,1.51.15c0-.07.25-.17.34.22s.29.53.43.38c.79-.83,1.66.2,2.4-.44,1-.85,1.86.26,2.79,0a3,3,0,0,1,2-.14,3.71,3.71,0,0,0,3-.3c.78-.39,1.62,0,2.44,0a.63.63,0,0,1,.6.46,0,0,0,0,0,0,0v0l0,.09c.17-.16.35-.49.51-.43,1.45.46,2.9-.86,4.35,0,.39.23.69-.44,1.07-.45,1.54-.06,3.1.19,4.64-.64.41-.22.87-.13,1.27.51.06.11.11.35.18.14.5-1.44,1.14-.72,1.71-.8a31.4,31.4,0,0,0,6.46-1.1,28.25,28.25,0,0,1,3.53-.95,1.42,1.42,0,0,1,1,.38c.6.43.6.38.33,2,0,0,0,0,0,0h0c1-.43,2-.27,3,1.18a1.61,1.61,0,0,1,.24,1,2.5,2.5,0,0,1,.16.43c.35,1.58.31,1.83-.32,2.3-.11.09-.34,0-.3.39s.22,0,.33,0c.28-.07.48.45.72.68.46.45,1,.3,1.41.82a1.33,1.33,0,0,1,.44,1.23c0,.87-.15,1.67-.56,1.74s-.71.5-1.05-.21c0-.08-.15.06-.22.1v0c-.36.54-.79,0-1.16.74a1.65,1.65,0,0,0-.32,1.07c0,1.33-.28,1.9-.81,1.93-1.54.12-3.08.22-4.62.26a3.31,3.31,0,0,1-1.79-.47c-.35-.2-.71.37-1.08.43-1.95.32-3.89-.19-5.83-.1-1.78.09-3.56.11-5.34.14-1,0-2.1.41-3.13.36-2-.1-3.92.35-5.89,0-.55-.11-1.15.36-1.72.25a6.85,6.85,0,0,0-2.74-.21,12,12,0,0,1-3.68.19c-1.13-.11-2.25.17-3.38,0a7.74,7.74,0,0,0-2.43.36A1.89,1.89,0,0,1,80.19,94c-.39-.27-.84.16-1.27.24s-1,1.13-1.5-.41c-.29.52-.65.15-.93.42-.5.49-1-.22-1.45.08-.27.17-.22-.67-.35-.93s-.25-1.11-.42.15-.66,1.1-1,.07c-.15-.42-.28-.45-.39-.05-.2.72-.4.87-.66.25-.08-.2-.22-.35-.28-.11-.43,1.62-1,.16-1.49.58-.11.1-.21-.14-.22-.45,0-.85-.17-.82-.34-.35-.33.9-.75.77-1.12.63-1.19-.48-2.4-.08-3.6-.49-1.61-.55-3.24-.28-4.86-.68a7.89,7.89,0,0,0-2.78.22,2,2,0,0,1-2-.79c-.71-.84-1.5-.54-2.26-.6-.27,0-.52,0-.73-.59a4.14,4.14,0,0,1-.25-1.91c.08-.75.28-1.48.61-1.46.59,0,1.1-.48,1.64-1s1.13-.07,1.7,0,1,.15,1.49.22c.08,0,.16.07.23,0a1,1,0,0,0,.24-.74c0-.38-.17-.27-.26-.26-1.24.13-2.45-.62-3.68-1-.7-.25-1.4-.58-2.1-.88a1.26,1.26,0,0,1-.38-.27,2.8,2.8,0,0,1-.54-2.27m74.28,7.85s.07,0,.1,0,0-.21-.07-.23-.08.1,0,.2M125,82.17a.28.28,0,0,0,0-.09v.13s0,0,0,0m-3.27-2.42s0,0,0,0" fill="#2b2e34"/>
    </g>
    <g id="Group_653" data-name="Group 653">
      <path id="Path_813" data-name="Path 813" d="M285.26,211.93h0s0,0,0,0" fill="#2b2e34"/>
    </g>
    <g id="Group_654" data-name="Group 654">
      <path id="Path_814" data-name="Path 814" d="M239.79,212.33c.06-.76.52-1.47.89-1.23s1,.22,1.45.76c.1.12.33.38.24-.22-.22-1.35.32-1.2.44-1.89.2-1.17.45-.26.7-.1s.45.45.68.06.34-.25.45,0c.54,1.17,1-.08,1.38-.53s.56-.45.89-.28a12.85,12.85,0,0,0,3.91.89c.91.18,1.83,0,2.75.28.33.08.54.77.86.73l.27.06c.49-.53,1-1.3,1.49-.08.52-.75,1,1,1.56,0,.08-.13.21-.19.3-.14a4.21,4.21,0,0,0,2.84.18c.17,0,.37,0,.49.51.81.08,1.63-.83,2.45-.07.54.5,1.09.32,1.63.22a4.16,4.16,0,0,1,1.49.14,2,2,0,0,0,.94,0c.64-.2,1.37-.65,1.91,0s1,1.06,1.51.15c0-.07.25-.17.35.22s.28.53.42.38c.79-.83,1.66.2,2.4-.44,1-.85,1.86.26,2.79,0a3,3,0,0,1,2-.14,3.75,3.75,0,0,0,3-.3c.78-.39,1.62,0,2.44,0a.63.63,0,0,1,.6.46v0l.05.09c.17-.16.35-.49.51-.43,1.45.46,2.9-.86,4.35,0,.39.23.69-.44,1.07-.45,1.54-.06,3.1.19,4.64-.64.41-.22.87-.13,1.27.51.06.11.11.35.18.14.5-1.44,1.14-.72,1.71-.8a31.4,31.4,0,0,0,6.46-1.1,28.72,28.72,0,0,1,3.53-.95,1.42,1.42,0,0,1,1,.38c.6.43.6.38.33,2v0h0c1-.42,2-.27,3,1.19a1.58,1.58,0,0,1,.25.95,3,3,0,0,1,.16.42c.34,1.58.31,1.83-.32,2.3-.12.09-.34,0-.3.39s.21,0,.33,0c.28-.07.48.46.72.69.46.44,1,.3,1.41.81a1.33,1.33,0,0,1,.44,1.23c0,.87-.15,1.67-.56,1.74s-.71.5-1.05-.2c0-.09-.15.06-.22.1v0c-.36.53-.79,0-1.16.73a1.66,1.66,0,0,0-.32,1.08c0,1.32-.28,1.89-.81,1.93-1.54.11-3.08.22-4.62.26a3.4,3.4,0,0,1-1.79-.47c-.35-.2-.71.36-1.08.43-1.95.32-3.89-.2-5.83-.1-1.78.08-3.56.11-5.34.14-1,0-2.1.41-3.14.36-2-.1-3.91.35-5.88,0-.55-.12-1.15.36-1.72.25a6.85,6.85,0,0,0-2.74-.22,12,12,0,0,1-3.68.2c-1.13-.11-2.25.16-3.38,0a7.71,7.71,0,0,0-2.43.37,1.89,1.89,0,0,1-1.52-.4c-.39-.26-.84.17-1.27.25s-1.05,1.13-1.5-.41c-.29.52-.65.15-.93.42-.5.49-1-.23-1.46.08-.26.16-.22-.67-.34-.94s-.25-1.1-.42.16-.66,1.09-1,.07c-.15-.43-.27-.45-.38,0-.2.72-.4.86-.66.24-.08-.2-.22-.34-.28-.11-.43,1.62-1,.17-1.49.59-.12.1-.21-.15-.22-.46,0-.85-.18-.81-.35-.34-.32.9-.74.77-1.11.63-1.2-.48-2.41-.08-3.6-.49-1.62-.56-3.24-.28-4.86-.68a7.89,7.89,0,0,0-2.78.22,2,2,0,0,1-2-.79c-.71-.84-1.5-.54-2.26-.6-.27,0-.52-.05-.73-.59a4.19,4.19,0,0,1-.26-1.92c.09-.75.28-1.47.61-1.46.59,0,1.1-.48,1.65-1s1.13-.07,1.7,0,1,.15,1.48.23c.08,0,.16.07.23,0a1,1,0,0,0,.25-.74c0-.38-.17-.27-.26-.26-1.25.13-2.46-.62-3.68-1-.7-.25-1.4-.58-2.1-.88a1.05,1.05,0,0,1-.38-.27,2.8,2.8,0,0,1-.54-2.27m74.28,7.85s.06,0,.1,0,0-.21-.07-.22-.08.1,0,.19M313.6,213a.19.19,0,0,0,0-.08.49.49,0,0,1,0,.12l0,0m-3.27-2.42s0,0,0,0" fill="#2b2e34"/>
    </g>
    <g id="Group_655" data-name="Group 655">
      <path id="Path_815" data-name="Path 815" d="M247.13,169.45h0s0,0,0,0" fill="#2b2e34"/>
    </g>
    <g id="Group_656" data-name="Group 656">
      <path id="Path_816" data-name="Path 816" d="M201.67,169.85c.05-.76.51-1.46.88-1.23s1,.22,1.45.76c.1.12.34.38.24-.22-.21-1.35.33-1.2.44-1.88.2-1.17.45-.26.7-.1s.46.44.69,0,.34-.25.45,0c.53,1.18.95-.08,1.38-.52s.55-.46.89-.29a12.79,12.79,0,0,0,3.9.89c.92.18,1.84,0,2.75.28.34.08.55.77.86.73l.27.06c.49-.53,1-1.3,1.49-.08.53-.75,1,1,1.57.06.08-.14.21-.2.3-.15a4.18,4.18,0,0,0,2.83.18c.18,0,.37.05.49.51.82.09,1.63-.82,2.45-.07.54.5,1.1.32,1.64.22a4.16,4.16,0,0,1,1.49.14,1.83,1.83,0,0,0,.93,0c.64-.2,1.37-.65,1.92,0s1,1.07,1.51.15c0-.06.25-.16.34.22s.28.53.42.39c.8-.83,1.66.2,2.4-.45,1-.85,1.87.26,2.8,0a3.1,3.1,0,0,1,1.95-.14,3.69,3.69,0,0,0,3-.3c.79-.39,1.63,0,2.44,0a.62.62,0,0,1,.6.46v0s0,0,0,.09c.17-.16.35-.48.51-.43,1.46.46,2.9-.86,4.35,0,.39.23.69-.44,1.07-.45,1.55-.06,3.1.19,4.64-.64.41-.22.88-.13,1.27.52.07.1.12.34.19.13.49-1.44,1.13-.72,1.71-.8a30.85,30.85,0,0,0,6.46-1.1,28.53,28.53,0,0,1,3.52-.94,1.35,1.35,0,0,1,1,.37c.6.43.61.39.33,2,0,0,0,0,0,0h0c1-.42,2-.27,3,1.19a1.65,1.65,0,0,1,.25,1,3.12,3.12,0,0,1,.15.43c.35,1.57.31,1.82-.32,2.3-.11.08-.33,0-.3.39s.22,0,.33,0c.28-.06.49.46.72.69.46.45,1,.3,1.41.81a1.33,1.33,0,0,1,.44,1.23c0,.87-.15,1.67-.56,1.74s-.71.5-1-.2c0-.09-.15.06-.22.1v0c-.35.53-.78,0-1.15.74a1.63,1.63,0,0,0-.32,1.07c0,1.32-.28,1.89-.81,1.93-1.54.11-3.08.22-4.62.26a3.46,3.46,0,0,1-1.8-.47c-.34-.2-.7.37-1.08.43-1.94.32-3.88-.19-5.82-.1-1.78.08-3.56.11-5.34.14-1,0-2.1.41-3.14.36-2-.1-3.92.35-5.88-.05-.55-.11-1.15.36-1.72.25a6.85,6.85,0,0,0-2.74-.22,11.67,11.67,0,0,1-3.68.2c-1.13-.11-2.25.16-3.38,0a7.66,7.66,0,0,0-2.43.37,1.89,1.89,0,0,1-1.52-.4c-.39-.26-.85.17-1.27.25s-1.05,1.13-1.5-.41c-.29.52-.65.15-.93.42-.5.49-1-.22-1.46.08-.26.16-.22-.67-.35-.93s-.24-1.11-.41.15-.66,1.09-1,.07c-.15-.43-.28-.45-.38-.05-.2.72-.4.86-.66.25-.08-.2-.22-.35-.28-.12-.43,1.62-1,.17-1.49.59-.12.1-.21-.14-.22-.45,0-.86-.18-.82-.35-.35-.32.9-.74.77-1.11.63-1.2-.48-2.41-.08-3.6-.49-1.62-.56-3.24-.28-4.87-.68a7.83,7.83,0,0,0-2.77.22,2,2,0,0,1-2-.79c-.71-.84-1.5-.54-2.26-.6-.27,0-.52,0-.73-.59a4.06,4.06,0,0,1-.25-1.92c.08-.75.28-1.47.61-1.46.59,0,1.1-.47,1.64-1s1.13-.08,1.7,0,1,.15,1.49.23c.07,0,.16.07.23,0a1,1,0,0,0,.24-.74c0-.38-.17-.27-.26-.26-1.24.13-2.45-.62-3.68-1-.7-.25-1.4-.58-2.1-.88a1.1,1.1,0,0,1-.38-.27,2.8,2.8,0,0,1-.54-2.27M276,177.7c0,.05.07,0,.1,0s0-.21-.07-.22-.08.1,0,.19m-.48-7.22a.19.19,0,0,0,0-.08v.12s0,0,0,0m-3.27-2.42s0,0,0,0" fill="#2b2e34"/>
    </g>
    <g id="Group_657" data-name="Group 657">
      <path id="Path_817" data-name="Path 817" d="M157.77,169.45h0s0,0,0,0" fill="#2b2e34"/>
    </g>
    <g id="Group_658" data-name="Group 658">
      <path id="Path_818" data-name="Path 818" d="M112.3,169.85c.06-.76.51-1.46.89-1.23s1,.22,1.45.76c.1.12.33.38.24-.22-.22-1.35.32-1.2.44-1.88.2-1.17.45-.26.7-.1s.45.44.68,0,.34-.25.45,0c.53,1.18.95-.08,1.38-.52s.56-.46.89-.29a12.85,12.85,0,0,0,3.91.89c.91.18,1.83,0,2.75.28.33.08.54.77.85.73l.27.06c.5-.53,1-1.3,1.5-.08.52-.75,1,1,1.57.06.08-.14.2-.2.3-.15a4.17,4.17,0,0,0,2.83.18c.18,0,.37.05.49.51.82.09,1.63-.82,2.45-.07.54.5,1.09.32,1.64.22a4.18,4.18,0,0,1,1.49.14,1.84,1.84,0,0,0,.93,0c.64-.2,1.37-.65,1.92,0s1,1.07,1.5.15c0-.06.25-.16.35.22s.28.53.42.39c.79-.83,1.66.2,2.4-.45,1-.85,1.86.26,2.79,0a3.1,3.1,0,0,1,1.95-.14,3.71,3.71,0,0,0,3-.3c.79-.39,1.63,0,2.44,0a.62.62,0,0,1,.6.46v0s0,0,0,.09c.17-.16.35-.48.51-.43,1.46.46,2.9-.86,4.35,0,.39.23.69-.44,1.07-.45,1.55-.06,3.1.19,4.64-.64.41-.22.88-.13,1.27.52.07.1.11.34.19.13.49-1.44,1.13-.72,1.71-.8a30.65,30.65,0,0,0,6.45-1.1,29.16,29.16,0,0,1,3.53-.94,1.35,1.35,0,0,1,1,.37c.6.43.61.39.33,2,0,0,0,0,0,0h0c1-.42,2-.27,3,1.19a1.58,1.58,0,0,1,.25,1c.06.14.11.28.16.43.34,1.57.31,1.83-.32,2.3-.12.08-.34,0-.3.39s.21,0,.32,0c.29-.06.49.46.73.69.46.45,1,.3,1.41.81a1.36,1.36,0,0,1,.44,1.23c0,.87-.15,1.68-.56,1.74s-.72.5-1-.2c0-.09-.15.06-.23.1v0c-.35.53-.78,0-1.15.74a1.6,1.6,0,0,0-.32,1.07c0,1.33-.28,1.89-.81,1.93-1.54.11-3.08.22-4.62.26a3.32,3.32,0,0,1-1.8-.47c-.34-.2-.71.37-1.08.43-1.94.32-3.88-.19-5.82-.1-1.78.08-3.56.11-5.34.14-1,0-2.1.41-3.14.36-2-.1-3.92.35-5.88-.05-.56-.11-1.15.36-1.72.25a7,7,0,0,0-2.74-.22,11.73,11.73,0,0,1-3.69.2c-1.13-.11-2.25.16-3.37,0a7.66,7.66,0,0,0-2.43.37,1.92,1.92,0,0,1-1.53-.4c-.39-.26-.84.17-1.26.25s-1.06,1.13-1.5-.41c-.29.52-.65.15-.93.42-.5.49-1-.22-1.46.08-.26.17-.22-.67-.35-.93s-.25-1.11-.41.15-.66,1.09-1,.07c-.15-.43-.28-.45-.39-.05-.2.73-.4.86-.65.25-.08-.2-.22-.35-.28-.11-.43,1.61-1,.16-1.49.58-.12.1-.22-.14-.22-.45,0-.86-.18-.82-.35-.34-.32.9-.74.76-1.11.62-1.2-.48-2.41-.08-3.6-.49-1.62-.55-3.24-.28-4.87-.68a7.83,7.83,0,0,0-2.77.22,2,2,0,0,1-2-.79c-.71-.84-1.5-.54-2.26-.6-.27,0-.52,0-.73-.59a4.06,4.06,0,0,1-.26-1.92c.09-.75.28-1.47.61-1.46.59,0,1.1-.47,1.65-1s1.13-.08,1.7,0,1,.15,1.48.23c.08,0,.16.07.23,0a1,1,0,0,0,.24-.74c0-.38-.16-.27-.25-.26-1.25.13-2.46-.62-3.68-1-.7-.25-1.4-.58-2.1-.88a.94.94,0,0,1-.38-.27,2.84,2.84,0,0,1-.55-2.27m74.28,7.85c0,.05.07,0,.11,0s0-.21-.07-.22-.08.1,0,.19m-.48-7.22v-.08a.49.49,0,0,1,0,.12.06.06,0,0,0,0,0m-3.26-2.42h0" fill="#2b2e34"/>
    </g>
    <g id="Group_659" data-name="Group 659">
      <path id="Path_819" data-name="Path 819" d="M339.47,169.45h0s0,0,0,0" fill="#2b2e34"/>
    </g>
    <g id="Group_660" data-name="Group 660">
      <path id="Path_820" data-name="Path 820" d="M294,169.85c.06-.76.52-1.46.89-1.23s1,.22,1.45.76c.1.12.33.38.24-.22-.22-1.35.32-1.2.44-1.88.2-1.17.44-.26.7-.1s.45.44.68,0,.34-.25.45,0c.54,1.18.95-.08,1.38-.52s.56-.46.89-.29a12.85,12.85,0,0,0,3.91.89c.91.18,1.83,0,2.75.28.33.08.54.77.85.73l.27.06c.5-.53,1-1.3,1.5-.08.52-.75,1,1,1.56.06.08-.14.21-.2.3-.15a4.21,4.21,0,0,0,2.84.18c.17,0,.36.05.48.51.82.09,1.64-.82,2.46-.07.53.5,1.09.32,1.63.22a4.16,4.16,0,0,1,1.49.14,1.83,1.83,0,0,0,.93,0c.64-.2,1.38-.65,1.92,0s1,1.07,1.51.15c0-.06.25-.16.34.22s.29.53.43.39c.79-.83,1.66.2,2.4-.45,1-.85,1.86.26,2.79,0a3.1,3.1,0,0,1,1.95-.14,3.71,3.71,0,0,0,3-.3c.78-.39,1.62,0,2.44,0a.63.63,0,0,1,.6.46,0,0,0,0,0,0,0v0l0,.09c.17-.16.35-.48.51-.43,1.45.46,2.9-.86,4.35,0,.39.23.69-.44,1.07-.45,1.54-.06,3.1.19,4.64-.64.4-.22.87-.13,1.27.52.06.1.11.34.18.13.5-1.44,1.14-.72,1.71-.8a30.74,30.74,0,0,0,6.46-1.1,28.22,28.22,0,0,1,3.53-.94,1.37,1.37,0,0,1,1,.37c.6.43.6.39.33,2,0,0,0,0,0,0h0c1-.42,2-.27,3,1.19a1.58,1.58,0,0,1,.25,1,3.16,3.16,0,0,1,.16.43c.34,1.57.31,1.83-.32,2.3-.12.08-.34,0-.3.39s.21,0,.33,0c.28-.06.48.46.72.69.46.45,1,.3,1.41.81a1.36,1.36,0,0,1,.44,1.23c0,.87-.15,1.68-.56,1.74s-.71.5-1.05-.2c0-.09-.15.06-.23.1v0c-.35.53-.78,0-1.15.74a1.6,1.6,0,0,0-.32,1.07c0,1.33-.28,1.89-.81,1.93-1.54.11-3.08.22-4.62.26a3.32,3.32,0,0,1-1.8-.47c-.34-.2-.71.37-1.08.43-1.94.32-3.88-.19-5.82-.1-1.78.08-3.56.11-5.34.14-1,0-2.1.41-3.14.36-2-.1-3.92.35-5.88-.05-.55-.11-1.15.36-1.72.25a7,7,0,0,0-2.74-.22,11.73,11.73,0,0,1-3.69.2c-1.13-.11-2.25.16-3.37,0a7.66,7.66,0,0,0-2.43.37,1.92,1.92,0,0,1-1.53-.4c-.39-.26-.84.17-1.26.25s-1.06,1.13-1.5-.41c-.29.52-.65.15-.93.42-.5.49-1-.22-1.46.08-.26.17-.22-.67-.35-.93s-.25-1.11-.41.15-.66,1.09-1,.07c-.15-.43-.28-.45-.39-.05-.2.73-.4.86-.65.25-.09-.2-.22-.35-.28-.11-.43,1.61-1,.16-1.5.58-.11.1-.21-.14-.21-.45,0-.86-.18-.82-.35-.34-.32.9-.74.76-1.11.62-1.2-.48-2.41-.08-3.6-.49-1.62-.55-3.25-.28-4.87-.68a7.9,7.9,0,0,0-2.78.22,2,2,0,0,1-2-.79c-.7-.84-1.5-.54-2.25-.6-.28,0-.53,0-.73-.59a4.06,4.06,0,0,1-.26-1.92c.09-.75.28-1.47.61-1.46.59,0,1.1-.47,1.65-1s1.13-.08,1.7,0,1,.15,1.48.23c.08,0,.16.07.23,0a1,1,0,0,0,.25-.74c0-.38-.17-.27-.26-.26-1.25.13-2.46-.62-3.68-1-.7-.25-1.4-.58-2.1-.88a.94.94,0,0,1-.38-.27,2.8,2.8,0,0,1-.54-2.27m74.27,7.85c0,.05.07,0,.11,0s0-.21-.07-.22-.08.1,0,.19m-.48-7.22v-.08a.49.49,0,0,1,0,.12.06.06,0,0,0,0,0m-3.26-2.42h0" fill="#2b2e34"/>
    </g>
    <g id="Group_661" data-name="Group 661">
      <path id="Path_821" data-name="Path 821" d="M222.32,22.94h0s0,0,0,0" fill="#ad7a4c"/>
    </g>
    <g id="Group_662" data-name="Group 662">
      <path id="Path_822" data-name="Path 822" d="M267.79,22.54c-.06.76-.51,1.47-.89,1.23s-1-.22-1.45-.76c-.1-.12-.33-.38-.24.22.22,1.35-.32,1.2-.44,1.89-.2,1.17-.45.26-.7.1s-.45-.44-.68-.06-.34.25-.45,0c-.53-1.17-.95.08-1.38.53s-.55.46-.89.28a12.83,12.83,0,0,0-3.91-.88c-.91-.19-1.83-.05-2.75-.29-.33-.08-.54-.77-.85-.73l-.27,0c-.5.52-1,1.3-1.5.08-.52.74-1-1-1.57-.06-.08.14-.2.19-.3.14a4.11,4.11,0,0,0-2.83-.17c-.18,0-.37-.06-.49-.52-.81-.08-1.63.83-2.45.07-.54-.5-1.09-.32-1.64-.22a4,4,0,0,1-1.49-.14,1.83,1.83,0,0,0-.93,0c-.64.2-1.38.65-1.92,0s-1-1.07-1.51-.15c0,.06-.25.16-.34-.22s-.28-.53-.42-.39c-.8.84-1.66-.2-2.4.45-1,.85-1.87-.26-2.8,0a3,3,0,0,1-2,.14,3.79,3.79,0,0,0-3,.3c-.78.39-1.62,0-2.43,0a.61.61,0,0,1-.6-.46v0h0a.25.25,0,0,1,0-.09c-.17.16-.35.49-.52.44-1.45-.47-2.9.85-4.35,0-.39-.23-.68.44-1.06.46-1.55.05-3.1-.2-4.64.63-.41.22-.88.13-1.28-.51-.06-.11-.11-.35-.18-.14-.5,1.44-1.14.73-1.71.8a31.4,31.4,0,0,0-6.46,1.1,28.57,28.57,0,0,1-3.52.95,1.39,1.39,0,0,1-1-.37c-.6-.44-.6-.39-.33-2,0,0,0,0,0,0h0c-1,.43-2,.28-3-1.18a1.58,1.58,0,0,1-.25-.95,3.12,3.12,0,0,1-.15-.43c-.35-1.57-.32-1.83.31-2.3.12-.09.34,0,.3-.39s-.21,0-.32,0c-.29.06-.49-.46-.72-.69-.46-.45-1-.3-1.41-.82a1.32,1.32,0,0,1-.44-1.22c0-.88.15-1.68.55-1.74s.72-.5,1.06.2c0,.08.15-.06.22-.1v0c.35-.54.78,0,1.15-.74a1.6,1.6,0,0,0,.32-1.07c0-1.33.29-1.9.82-1.93,1.53-.12,3.08-.22,4.62-.26a3.31,3.31,0,0,1,1.79.47c.34.2.71-.37,1.08-.43,2-.32,3.88.19,5.83.1,1.78-.09,3.56-.11,5.34-.14,1,0,2.09-.41,3.13-.36,2,.1,3.92-.35,5.88.05.56.11,1.15-.37,1.72-.26a6.73,6.73,0,0,0,2.75.22,12,12,0,0,1,3.69-.19c1.12.11,2.25-.17,3.37,0a7.7,7.7,0,0,0,2.43-.36,1.89,1.89,0,0,1,1.52.39c.39.27.85-.16,1.27-.24s1.05-1.13,1.5.41c.29-.53.65-.15.93-.42.5-.49,1,.22,1.46-.08.26-.17.22.67.35.93s.25,1.11.41-.15.66-1.1,1-.07c.15.42.28.45.38,0,.2-.73.4-.87.66-.25.08.2.22.35.28.11.43-1.62,1-.16,1.49-.58.12-.1.22.14.22.45,0,.85.18.81.35.34.32-.9.74-.77,1.11-.62,1.2.48,2.41.08,3.6.49,1.62.55,3.24.28,4.87.67a7.83,7.83,0,0,0,2.77-.21,2,2,0,0,1,2,.79c.71.84,1.5.54,2.26.6.27,0,.52,0,.73.59a4,4,0,0,1,.25,1.91c-.08.76-.28,1.48-.61,1.47-.59,0-1.1.47-1.64,1s-1.13.08-1.7,0-1-.15-1.49-.22c-.08,0-.16-.07-.23,0a.93.93,0,0,0-.24.73c0,.38.17.27.26.26,1.24-.12,2.45.62,3.67,1,.7.25,1.4.58,2.1.89a.94.94,0,0,1,.38.27,2.78,2.78,0,0,1,.54,2.26m-74.27-7.85s-.07,0-.11,0,0,.21.07.23.08-.1,0-.2m.48,7.22V22a.57.57,0,0,1,0-.13.08.08,0,0,0,0,0m3.26,2.42h0" fill="#ad7a4c"/>
    </g>
    <g id="Group_663" data-name="Group 663">
      <path id="Path_823" data-name="Path 823" d="M273.56,144.32h0s0,0,0,0" fill="#ad7a4c"/>
    </g>
    <g id="Group_664" data-name="Group 664">
      <path id="Path_824" data-name="Path 824" d="M319,143.92c-.06.76-.52,1.47-.89,1.23s-1-.22-1.45-.76c-.1-.12-.33-.38-.24.22.22,1.35-.33,1.2-.44,1.89-.2,1.17-.45.26-.7.1s-.46-.44-.68-.06-.34.26-.45,0c-.54-1.17-.95.08-1.38.53s-.56.46-.89.28a12.83,12.83,0,0,0-3.91-.88c-.91-.19-1.83,0-2.75-.28-.33-.09-.54-.78-.85-.73l-.27-.06c-.5.52-1,1.3-1.5.08-.53.74-1-1-1.57-.06-.08.14-.21.19-.3.14a4.18,4.18,0,0,0-2.83-.17c-.18,0-.37-.06-.49-.52-.82-.08-1.63.83-2.45.07-.54-.5-1.1-.32-1.64-.22a3.94,3.94,0,0,1-1.49-.14,1.83,1.83,0,0,0-.93,0c-.64.2-1.38.65-1.92,0s-1-1.07-1.51-.15c0,.06-.25.16-.34-.22s-.29-.53-.43-.39c-.79.84-1.66-.2-2.4.45-1,.85-1.86-.26-2.79,0a3,3,0,0,1-2,.14,3.79,3.79,0,0,0-3,.3c-.78.39-1.62,0-2.44,0a.63.63,0,0,1-.6-.46s0,0,0,0h0l-.05-.09c-.17.16-.35.49-.51.44-1.45-.47-2.9.85-4.35,0-.39-.23-.69.44-1.07.46-1.54,0-3.1-.2-4.64.63-.41.22-.87.13-1.27-.51-.06-.11-.11-.35-.18-.14-.5,1.44-1.14.73-1.71.8a31.4,31.4,0,0,0-6.46,1.1,28.25,28.25,0,0,1-3.53.95,1.37,1.37,0,0,1-1-.37c-.6-.44-.6-.39-.33-2,0,0,0,0,0,0h0c-1,.43-2,.28-3-1.18a1.65,1.65,0,0,1-.24-1,3.16,3.16,0,0,1-.16-.43c-.34-1.57-.31-1.83.32-2.3.12-.09.34,0,.3-.39s-.21,0-.33,0c-.28.06-.48-.46-.72-.69-.46-.45-1-.3-1.4-.82a1.32,1.32,0,0,1-.45-1.22c0-.88.16-1.68.56-1.74s.72-.5,1.05.2c0,.09.15-.06.23-.1v0c.35-.53.78,0,1.15-.73a1.61,1.61,0,0,0,.32-1.08c0-1.32.29-1.89.81-1.93,1.54-.11,3.08-.22,4.63-.26a3.4,3.4,0,0,1,1.79.47c.34.2.71-.36,1.08-.43,1.94-.32,3.88.19,5.83.1,1.78-.08,3.56-.11,5.34-.14,1,0,2.09-.41,3.13-.36,2,.1,3.92-.35,5.88.05.56.12,1.15-.36,1.72-.25a6.85,6.85,0,0,0,2.74.22,11.75,11.75,0,0,1,3.69-.2c1.13.11,2.25-.17,3.38,0a7.74,7.74,0,0,0,2.43-.36,1.89,1.89,0,0,1,1.52.39c.39.27.84-.16,1.27-.24s1.05-1.13,1.5.41c.29-.53.65-.15.93-.42.5-.49,1,.22,1.45-.08.27-.17.23.67.35.93s.25,1.11.42-.15.66-1.1,1-.07c.15.42.27.45.38,0,.2-.73.4-.87.66-.25.08.2.22.35.28.11.43-1.62,1-.16,1.49-.58.11-.1.21.14.22.45,0,.85.17.82.34.34.33-.9.75-.77,1.12-.62,1.2.48,2.41.08,3.6.49,1.61.55,3.24.28,4.86.68a7.9,7.9,0,0,0,2.78-.22,2,2,0,0,1,2,.79c.71.84,1.5.54,2.25.6.28,0,.53,0,.73.59a4.19,4.19,0,0,1,.26,1.92c-.09.75-.28,1.47-.62,1.46-.58,0-1.1.47-1.64,1s-1.13.08-1.7,0-1-.15-1.48-.22c-.08,0-.17-.07-.24,0a.94.94,0,0,0-.24.73c0,.38.17.27.26.26,1.25-.12,2.46.62,3.68,1,.7.25,1.4.58,2.1.89a1.22,1.22,0,0,1,.38.26,2.81,2.81,0,0,1,.54,2.27m-74.28-7.85s-.06,0-.1,0,0,.21.07.23.08-.1,0-.2m.48,7.22a.28.28,0,0,0,0,.09v-.13s0,0,0,0m3.27,2.42s0,0,0,0" fill="#ad7a4c"/>
    </g>
    <g id="Group_665" data-name="Group 665">
      <path id="Path_825" data-name="Path 825" d="M85,13.53h0s0,0,0,0" fill="#6c6455"/>
    </g>
    <g id="Group_666" data-name="Group 666">
      <path id="Path_826" data-name="Path 826" d="M130.46,13.13c-.06.76-.51,1.47-.88,1.23s-1-.22-1.46-.76c-.1-.12-.33-.38-.24.22.22,1.35-.32,1.2-.44,1.89-.2,1.17-.44.26-.7.1s-.45-.45-.68-.06-.34.25-.45,0c-.53-1.17-1,.08-1.38.53s-.55.45-.89.28a12.85,12.85,0,0,0-3.91-.89c-.91-.18-1.83,0-2.75-.28-.33-.08-.54-.77-.85-.73l-.27-.06c-.5.53-1,1.3-1.49.08-.53.75-1-1-1.57,0-.08.13-.21.19-.3.14a4.21,4.21,0,0,0-2.84-.18c-.17,0-.36,0-.48-.51-.82-.08-1.64.83-2.46.07-.53-.5-1.09-.32-1.63-.22a4.23,4.23,0,0,1-1.5-.14,1.83,1.83,0,0,0-.93,0c-.64.2-1.37.65-1.92,0s-1-1.07-1.5-.15c0,.06-.26.16-.35-.22s-.28-.53-.42-.39c-.79.83-1.66-.2-2.4.45-1,.85-1.86-.27-2.79,0a3,3,0,0,1-2,.14,3.79,3.79,0,0,0-3,.3c-.78.39-1.62,0-2.44,0a.62.62,0,0,1-.6-.46v0l0-.09c-.17.16-.35.49-.51.44-1.45-.47-2.9.85-4.35,0-.39-.23-.69.44-1.07.46-1.54.05-3.1-.2-4.64.63-.41.22-.87.13-1.27-.51-.06-.11-.11-.35-.18-.14-.5,1.44-1.14.72-1.71.8a31.4,31.4,0,0,0-6.46,1.1,28.72,28.72,0,0,1-3.53.95,1.37,1.37,0,0,1-1-.37c-.6-.44-.61-.39-.34-2,0,0,0,0,0,0h0c-1,.43-2,.28-3-1.18a1.67,1.67,0,0,1-.25-.95,3.12,3.12,0,0,1-.15-.43c-.35-1.57-.32-1.83.31-2.3.12-.09.34,0,.3-.39s-.21,0-.32,0c-.28.06-.48-.46-.72-.69-.46-.45-1-.3-1.41-.82a1.33,1.33,0,0,1-.44-1.23c0-.87.15-1.67.56-1.73s.71-.5,1.05.2c0,.08.15-.06.22-.1v0c.35-.54.79,0,1.16-.74a1.59,1.59,0,0,0,.31-1.07c0-1.33.29-1.9.82-1.93,1.54-.12,3.08-.22,4.62-.27a3.41,3.41,0,0,1,1.79.48c.35.2.71-.37,1.08-.43,2-.32,3.89.19,5.83.1,1.78-.09,3.56-.12,5.34-.14,1,0,2.09-.41,3.13-.36,2,.1,3.92-.36,5.88.05.56.11,1.16-.37,1.73-.26a6.68,6.68,0,0,0,2.74.22A12,12,0,0,1,94.18.69c1.13.11,2.25-.17,3.37,0A7.65,7.65,0,0,0,100,.28a1.92,1.92,0,0,1,1.53.39c.39.26.84-.16,1.26-.24s1.06-1.13,1.5.41c.29-.53.65-.15.93-.43.5-.48,1,.23,1.46-.07.26-.17.22.67.35.93s.25,1.11.41-.15.66-1.1,1-.07c.15.42.28.44.39.05.2-.73.4-.87.65-.25.09.2.22.35.29.11.42-1.62,1-.16,1.49-.58.11-.1.21.14.22.45,0,.85.17.81.34.34.32-.9.74-.77,1.11-.62,1.2.48,2.41.07,3.6.48,1.62.56,3.25.28,4.87.68a7.68,7.68,0,0,0,2.78-.22,2.07,2.07,0,0,1,2,.79c.71.85,1.5.55,2.25.6.28,0,.53.05.73.59a4.21,4.21,0,0,1,.26,1.92c-.09.75-.28,1.48-.62,1.47-.58,0-1.1.47-1.64,1s-1.13.08-1.7,0-1-.15-1.48-.22c-.08,0-.17-.07-.23,0a.92.92,0,0,0-.25.74c0,.38.17.27.26.26,1.24-.13,2.46.62,3.67,1,.7.25,1.4.58,2.1.88a1.36,1.36,0,0,1,.39.27,2.88,2.88,0,0,1,.54,2.27M56.18,5.28s-.07,0-.11,0,0,.21.07.23.08-.1,0-.2m.47,7.22a.28.28,0,0,0,0,.09.57.57,0,0,1,0-.13l0,0m3.27,2.42s0,0,0,0" fill="#6c6455"/>
    </g>
    <g id="Group_667" data-name="Group 667">
      <path id="Path_827" data-name="Path 827" d="M123.12,56h0s0,0,0,0" fill="#555042"/>
    </g>
    <g id="Group_668" data-name="Group 668">
      <path id="Path_828" data-name="Path 828" d="M168.59,55.61c-.06.76-.52,1.46-.89,1.23s-1-.22-1.45-.76c-.1-.12-.33-.38-.24.22.22,1.35-.33,1.2-.44,1.88-.2,1.17-.45.26-.7.1s-.46-.44-.68-.05-.34.25-.45,0c-.54-1.18-1,.08-1.38.52s-.56.46-.89.28a13.14,13.14,0,0,0-3.91-.88c-.91-.18-1.83,0-2.75-.28-.33-.08-.54-.77-.85-.73l-.27-.06c-.5.53-1,1.3-1.5.08-.52.75-1-1-1.56-.06-.08.14-.21.2-.3.15a4.21,4.21,0,0,0-2.84-.18c-.17,0-.37,0-.49-.51-.81-.09-1.63.82-2.45.07-.54-.5-1.09-.32-1.63-.22a4.19,4.19,0,0,1-1.5-.14,1.83,1.83,0,0,0-.93,0c-.64.2-1.38.65-1.92,0s-1-1.07-1.51-.16c0,.07-.25.17-.34-.21s-.29-.54-.43-.39c-.79.83-1.66-.2-2.4.45-1,.85-1.86-.27-2.79,0a3,3,0,0,1-1.95.15,3.73,3.73,0,0,0-3,.3c-.79.39-1.63,0-2.44,0a.62.62,0,0,1-.6-.46v0s0,0,0,0a.79.79,0,0,1,0-.09c-.17.16-.35.49-.52.43-1.45-.46-2.9.86-4.34,0-.39-.23-.69.44-1.07.45-1.55.06-3.1-.2-4.64.64-.41.22-.88.13-1.27-.51-.07-.11-.12-.35-.19-.14-.49,1.44-1.14.72-1.71.8a31.52,31.52,0,0,0-6.46,1.1,28.57,28.57,0,0,1-3.52,1,1.4,1.4,0,0,1-1-.38c-.6-.43-.6-.39-.33-2v0h0c-1,.42-2,.27-3-1.19a1.58,1.58,0,0,1-.25-.95,2.73,2.73,0,0,1-.16-.43c-.34-1.57-.31-1.82.32-2.3.12-.08.34,0,.3-.39s-.21,0-.33,0c-.28.07-.48-.45-.71-.68-.47-.45-1-.3-1.41-.82a1.33,1.33,0,0,1-.45-1.23c0-.87.16-1.67.56-1.73s.72-.5,1,.2c.05.08.15-.06.23-.1v0c.36-.54.79,0,1.16-.74a1.59,1.59,0,0,0,.31-1.07c0-1.33.29-1.9.82-1.93,1.54-.12,3.08-.22,4.62-.27a3.41,3.41,0,0,1,1.79.48c.35.2.71-.37,1.08-.43,2-.32,3.89.19,5.83.1,1.78-.09,3.56-.12,5.34-.14,1,0,2.09-.41,3.13-.36,2,.1,3.92-.36,5.89,0,.55.11,1.14-.37,1.72-.26a6.68,6.68,0,0,0,2.74.22,11.66,11.66,0,0,1,3.68-.19c1.13.1,2.25-.17,3.38-.05a7.47,7.47,0,0,0,2.43-.37,1.93,1.93,0,0,1,1.52.4c.39.26.84-.17,1.27-.25s1-1.12,1.5.41c.29-.52.65-.15.93-.42.5-.49,1,.23,1.46-.08.26-.16.22.68.34.94s.25,1.1.42-.15.66-1.1,1-.08c.15.43.27.45.38.06.2-.73.4-.87.66-.25.08.2.22.35.28.11.43-1.62,1-.17,1.49-.58.12-.1.21.14.22.45,0,.85.18.81.35.34.32-.9.74-.77,1.11-.62,1.2.48,2.41.07,3.6.48,1.62.56,3.24.28,4.87.68A7.83,7.83,0,0,0,162.3,44a2,2,0,0,1,2,.79c.71.84,1.5.54,2.26.6.27,0,.52,0,.73.59a4.19,4.19,0,0,1,.25,1.92c-.08.75-.28,1.48-.61,1.46-.59,0-1.1.48-1.64,1s-1.13.07-1.7,0-1-.15-1.49-.23c-.07,0-.16-.06-.23,0a1,1,0,0,0-.24.74c0,.38.17.27.26.26,1.24-.13,2.45.62,3.67,1,.7.25,1.4.58,2.1.88a1.05,1.05,0,0,1,.38.27,2.81,2.81,0,0,1,.54,2.27M94.31,47.76s-.07,0-.11,0,0,.21.07.23.08-.1,0-.2M94.79,55v.09a.53.53,0,0,1,0-.13s0,0,0,0m3.27,2.42s0,0,0,0" fill="#555042"/>
    </g>
    <g id="Group_669" data-name="Group 669">
      <path id="Path_829" data-name="Path 829" d="M212.48,56h0s0,0,0,0" fill="#ad7a4c"/>
    </g>
    <g id="Group_670" data-name="Group 670">
      <path id="Path_830" data-name="Path 830" d="M258,55.61c-.06.76-.51,1.46-.88,1.23s-1-.22-1.46-.76c-.1-.12-.33-.38-.23.22.21,1.35-.33,1.2-.44,1.88-.2,1.17-.45.26-.7.1s-.46-.44-.69-.05-.34.25-.45,0c-.53-1.18-.95.08-1.38.52s-.55.46-.89.28a13.14,13.14,0,0,0-3.91-.88c-.91-.18-1.83,0-2.74-.28-.34-.08-.55-.77-.86-.73l-.27-.06c-.49.53-1,1.3-1.5.08-.52.75-1-1-1.56-.06-.08.14-.21.2-.3.15a4.21,4.21,0,0,0-2.84-.18c-.17,0-.37,0-.49-.51-.81-.09-1.63.82-2.45.07-.54-.5-1.09-.32-1.63-.22a4.21,4.21,0,0,1-1.5-.14,1.83,1.83,0,0,0-.93,0c-.64.2-1.37.65-1.92,0s-1-1.07-1.5-.16c0,.07-.26.17-.35-.21s-.28-.54-.42-.39c-.79.83-1.66-.2-2.4.45-1,.85-1.86-.27-2.79,0a3,3,0,0,1-1.95.15,3.71,3.71,0,0,0-3,.3c-.79.39-1.63,0-2.44,0a.62.62,0,0,1-.6-.46v0s0,0,0,0a.79.79,0,0,1,0-.09c-.17.16-.35.49-.51.43-1.46-.46-2.9.86-4.35,0-.39-.23-.69.44-1.07.45-1.55.06-3.1-.2-4.64.64-.41.22-.88.13-1.27-.51-.07-.11-.11-.35-.19-.14-.49,1.44-1.13.72-1.71.8a31.31,31.31,0,0,0-6.45,1.1,29.21,29.21,0,0,1-3.53,1,1.38,1.38,0,0,1-1-.38c-.6-.43-.61-.39-.33-2v0h0c-1,.42-2,.27-3-1.19a1.57,1.57,0,0,1-.24-.95,2,2,0,0,1-.16-.43c-.35-1.57-.31-1.82.32-2.3.11-.08.33,0,.3-.39s-.22,0-.33,0c-.28.07-.48-.45-.72-.68-.46-.45-1-.3-1.41-.82a1.33,1.33,0,0,1-.44-1.23c0-.87.15-1.67.56-1.74s.71-.5,1.05.2c0,.09.15-.05.22-.1v0c.36-.53.79,0,1.16-.73a1.66,1.66,0,0,0,.32-1.08c0-1.32.28-1.89.81-1.93,1.54-.11,3.08-.22,4.62-.26a3.32,3.32,0,0,1,1.79.48c.35.2.71-.37,1.08-.43,1.95-.33,3.89.19,5.83.1,1.78-.09,3.56-.12,5.34-.14,1,0,2.09-.42,3.13-.37,2,.1,3.92-.35,5.89,0,.55.12,1.14-.36,1.72-.25a6.85,6.85,0,0,0,2.74.22,11.73,11.73,0,0,1,3.69-.19c1.13.1,2.25-.17,3.37-.05a7.49,7.49,0,0,0,2.44-.37,1.9,1.9,0,0,1,1.52.4c.39.26.84-.17,1.26-.25s1.06-1.12,1.5.41c.29-.52.65-.15.93-.42.5-.49,1,.23,1.46-.08.26-.16.22.68.35.94s.25,1.1.41-.15.66-1.1,1-.08q.23.65.39.06c.2-.73.4-.87.65-.25.09.2.22.35.29.11.42-1.62,1-.17,1.49-.58.11-.1.21.14.22.45,0,.85.17.81.34.34.32-.9.74-.77,1.11-.62,1.2.48,2.41.07,3.6.48,1.62.56,3.24.28,4.87.68a7.83,7.83,0,0,0,2.77-.22,2,2,0,0,1,2,.79c.71.84,1.5.54,2.26.6.27,0,.52,0,.73.59a4.19,4.19,0,0,1,.25,1.92c-.09.75-.28,1.48-.61,1.46-.59,0-1.1.48-1.65,1s-1.12.07-1.7,0-1-.15-1.48-.23c-.08,0-.16-.06-.23,0a1,1,0,0,0-.24.74c0,.38.16.27.26.26,1.24-.13,2.46.62,3.68,1,.7.25,1.4.58,2.1.88a1.26,1.26,0,0,1,.38.27,2.87,2.87,0,0,1,.54,2.27m-74.28-7.85s-.07,0-.11,0,0,.21.07.22.08-.1,0-.19m.48,7.22v.08a.49.49,0,0,1,0-.12.06.06,0,0,0,0,0m3.26,2.42s0,0,0,0" fill="#ad7a4c"/>
    </g>
    <g id="Group_671" data-name="Group 671">
      <path id="Path_831" data-name="Path 831" d="M30.78,56h0s0,0,0,0" fill="#ad7a4c"/>
    </g>
    <g id="Group_672" data-name="Group 672">
      <path id="Path_832" data-name="Path 832" d="M76.25,55.61c-.06.76-.51,1.46-.88,1.23s-1-.22-1.46-.76c-.1-.12-.33-.38-.23.22.21,1.35-.33,1.2-.44,1.88-.2,1.17-.45.26-.7.1s-.46-.44-.69-.05-.34.25-.45,0c-.53-1.18-1,.08-1.38.52s-.55.46-.89.28a13.14,13.14,0,0,0-3.91-.88c-.91-.18-1.83,0-2.74-.28-.34-.08-.55-.77-.86-.73l-.27-.06c-.49.53-1,1.3-1.49.08-.53.75-1-1-1.57-.06-.08.14-.21.2-.3.15a4.18,4.18,0,0,0-2.83-.18c-.18,0-.37,0-.49-.51-.82-.09-1.63.82-2.45.07-.54-.5-1.1-.32-1.64-.22a4.23,4.23,0,0,1-1.5-.14,1.83,1.83,0,0,0-.93,0c-.64.2-1.37.65-1.92,0s-1-1.07-1.5-.16c0,.07-.26.17-.35-.21s-.28-.54-.42-.39c-.79.83-1.66-.2-2.4.45-1,.85-1.86-.27-2.79,0a3,3,0,0,1-2,.15,3.75,3.75,0,0,0-3,.3c-.78.39-1.62,0-2.44,0a.63.63,0,0,1-.6-.46,0,0,0,0,0,0,0v0l-.05-.09c-.17.16-.35.49-.51.43-1.45-.46-2.9.86-4.35,0-.39-.23-.69.44-1.07.45-1.54.06-3.1-.2-4.64.64-.4.22-.87.13-1.27-.51-.06-.11-.11-.35-.18-.14-.5,1.44-1.14.72-1.71.8a31.4,31.4,0,0,0-6.46,1.1,28.72,28.72,0,0,1-3.53,1,1.38,1.38,0,0,1-1-.38c-.6-.43-.61-.39-.33-2v0h0c-1,.42-2.05.27-3-1.19a1.57,1.57,0,0,1-.24-.95,2,2,0,0,1-.16-.43C2,53.13,2,52.88,2.62,52.4c.11-.08.33,0,.3-.39s-.22,0-.33,0c-.28.07-.48-.45-.72-.68-.46-.45-1-.3-1.41-.82A1.33,1.33,0,0,1,0,49.32c0-.87.15-1.67.56-1.74s.71-.5,1,.2c0,.09.15-.05.22-.1v0c.35-.53.78,0,1.15-.73a1.66,1.66,0,0,0,.32-1.08c0-1.32.28-1.89.81-1.93,1.54-.11,3.08-.22,4.62-.26a3.36,3.36,0,0,1,1.8.48c.34.2.71-.37,1.08-.43,1.94-.33,3.88.19,5.82.1,1.78-.09,3.56-.12,5.34-.14,1,0,2.1-.42,3.14-.37,2,.1,3.92-.35,5.88,0,.55.12,1.15-.36,1.72-.25a6.85,6.85,0,0,0,2.74.22A11.73,11.73,0,0,1,40,43.17c1.13.1,2.25-.17,3.37-.05a7.49,7.49,0,0,0,2.44-.37,1.9,1.9,0,0,1,1.52.4c.39.26.84-.17,1.27-.25s1-1.12,1.5.41c.29-.52.64-.15.92-.42.5-.49,1,.23,1.46-.08.27-.16.22.68.35.94s.25,1.1.41-.15.66-1.1,1-.08q.23.65.39.06c.2-.73.4-.87.65-.25.09.2.22.35.29.11.42-1.62,1-.17,1.49-.58.11-.1.21.14.22.45,0,.85.17.81.34.34.32-.9.74-.77,1.12-.62,1.2.48,2.4.07,3.6.48,1.61.56,3.24.28,4.86.68A7.9,7.9,0,0,0,70,44a2,2,0,0,1,2,.79c.71.84,1.5.54,2.25.6.28,0,.53,0,.73.59a4.19,4.19,0,0,1,.26,1.92c-.09.75-.28,1.48-.62,1.46-.58,0-1.1.48-1.64,1s-1.13.07-1.7,0-1-.15-1.48-.23c-.08,0-.17-.06-.23,0a.92.92,0,0,0-.25.74c0,.38.17.27.26.26,1.24-.13,2.46.62,3.68,1,.7.25,1.4.58,2.1.88a1.26,1.26,0,0,1,.38.27,2.88,2.88,0,0,1,.54,2.27M2,47.76s-.07,0-.11,0,0,.21.07.22.08-.1,0-.19M2.45,55v.08a.49.49,0,0,1,0-.12.06.06,0,0,0,0,0M5.71,57.4s0,0,0,0" fill="#ad7a4c"/>
    </g>
  </g>
</svg>
