<svg id="Layer_1" data-name="Layer 1" xmlns="http://www.w3.org/2000/svg" viewBox="0 0 791 345">
  <g>
    <path d="M586.63,184.46a206,206,0,0,1-10,40.6q-1.18,3.27-2.44,6.5a226.54,226.54,0,0,1-11.38,24.34c-1,1.89-2.06,3.78-3.16,5.66q-4.18,7.35-9,14.55c-1.2,1.83-2.44,3.65-3.69,5.47-.76,1.09-1.52,2.18-2.3,3.27-.94,1.29-1.9,2.59-2.87,3.88-1.1,1.47-2.22,2.95-3.36,4.41-2.42,3.13-4.92,6.23-7.5,9.34-1.45,1.75-2.93,3.51-4.46,5.26q-7.38,8.56-15.52,16.84-3.54,3.59-7.19,7.07-5.76,5.53-11.88,10.8c-.8.7-1.59,1.37-2.4,2.05H169.2q-7.09-6.11-13.69-12.92c-2.33-2.41-4.62-4.88-6.84-7.4a215.16,215.16,0,0,1-16.21-20.86q-4.87-7.12-9.28-14.79c-14.49-25.24-25-54.82-30.5-88.83-.71-4.22-1.32-8.37-1.86-12.46l34.51-.19L135,187l14.69-.09,6.94,0,24.6-.14,7.72-.05,25.76-.15,10.35,0,15.8-.1,9.18-.05,19-.11,7.11,0,20.7-.11L304,186l22.37-.12,10.13,0,10.93-.06,3.17,0,7.11,0,2.92,0h0l11.27-.06h1.2l7.19,0,19.07-.1,7.65,0,19.18-.11,10.72,0,18.17-.11,6.58,0,6.52,0,8.12,0,9.48-.06,7.17,0,10.69-.07,6.72,0Z" fill="#c2b59b"/>
    <g>
      <path d="M476.54,269.63l0,.84-.06,5.15-.07,5.49-.11,9-.11,9.08h0L476,316.55a19.44,19.44,0,0,0,.21,2.4l0-.08c-.11,8.55-.26,17.09-.31,25.63h-8.21c0-12.87.24-25.75.26-38.61,0-1.07,0-2.14,0-3.2,0-2.73,0-5.47.05-8.19,0-3.38.05-6.74.07-10.11v0l0-5.37c0-2.08,0-4.16.05-6.24l0-6.92q0-8.19.11-16.37c0-2,0-4,0-6q0-3.4,0-6.79h0c-.09-9.07-.22-18.13-.27-27.18q0-3.44,0-6.88c0-2,0-4.08,0-6.12,0-3.79.11-7.59.21-11.38.29-11.44.81-22.88,1-34.31,0-1.33.06-2.69,0-4a23.72,23.72,0,0,0-.85-6.77l0,.07a1.68,1.68,0,0,0,.07-.24c1.14-4.08-1.1-8.82.73-12.76,0-1.11.17-2.22.17-3.32,0-.29,0-.58,0-.88,0-.07,0-.15,0-.22-.41-6.07.61-7.67,3.74-5.6.7.46,1.6-.07,2.08,1.44l-.05.11.05,0a11.9,11.9,0,0,1,1.12,3.59c.55,3.42,0,7.15,0,10.64q0,3.12,0,6.25c0,2.35,0,4.7,0,7q0,19.5,0,39,0,8-.06,16v1.61c0,1.8,0,3.61,0,5.41-.05,9.05-.15,18.09-.11,27.14,0,2.3,0,4.62.06,6.94,0,1.12,0,2.25,0,3.37.06,3.9.44,7.82.15,11.77,0,2.13.09,4.28.13,6.42C476.52,265.68,476.55,267.66,476.54,269.63Z" fill="#231f20"/>
      <path d="M494.21,285.83c0,2.36,0,4.72-.11,7.07-.06,1.92-.16,3.85-.31,5.76-1.1,14.58-1.43,29.19-1.86,43.79,0,.61,0,1.24-.05,1.85v.2h-7.05c-.07-14.08,1.5-28.12,2-42.18.11-2.74.18-5.48.23-8.2,0-2.46,0-4.9,0-7.34s-.05-5-.11-7.57v0c0-1.79-.11-3.55-.19-5.35-.06-1.62-.13-3.25-.22-4.87q-.18-3.48-.44-7c-.28-4-.64-8-1.05-12.07a59.6,59.6,0,0,1-.18-8.76c.11-2.36.32-4.73.54-7.11a133.54,133.54,0,0,0,.95-14.39c0-4.26-.06-8.53-.11-12.79,0-2.37-.05-4.72-.1-7.09-.07-4.92-.21-9.86-.44-14.78-.1-2.55-.24-5.09-.41-7.64-.68-10,1.06-20,0-29.94a15.14,15.14,0,0,0-.29-1.89,8.89,8.89,0,0,0-.64-1.88c-1-2.13,1.21-3.24,3.69-3.67,2.68-.46,3.38,1,3.41,2.46,0,1,0,1.95.06,2.93.08,5.16.07,10.32.34,15.48.41,8,.76,16.08,1,24.12q.19,7.17.25,14.34,0,3.55,0,7.1c0,.81,0,1.63,0,2.44-.05,8.25-.89,16.48-.51,24.74,0,.09,0,.19,0,.27.11,2.27.19,4.54.27,6.81.22,6.86.29,13.73.49,20.59,0,1.37.07,2.73.12,4.11,0,1,.07,2,.11,3,.07,1.74.14,3.48.2,5.22s.12,3.48.16,5.21C494.16,281.12,494.2,283.48,494.21,285.83Z" fill="#231f20"/>
      <path d="M512.42,297.22c0,3.78-.11,7.58-.43,11.37-.43,5.33-.75,10.66-1,16-.32,6.64-.52,13.28-.72,19.92h-7.16c.14-4.28.39-8.57.69-12.85.45-6.57,1-13.13,1.27-19.71.26-5.9.32-11.81.22-17.7,0-2.38-.09-4.75-.2-7.12q-.15-4-.42-8.1c-.11-1.8-.25-3.59-.41-5.4s-.3-3.67-.49-5.51c-.13-1.45-.29-2.91-.45-4.36q-.15-1.38-.21-2.76c-.31-6.71.92-13.42,1.36-20.15.11-1.63.17-3.26.16-4.91,0-.73,0-1.48,0-2.22-.09-9.12-.14-18.23-.53-27.33-.1-2.38-.22-4.75-.38-7.12,0-.75-.1-1.49-.15-2.23a101.92,101.92,0,0,1,.07-12.11,95.9,95.9,0,0,0,0-15.44,9.19,9.19,0,0,0-.92-3.47c-1-2,1.22-3,3.68-3.36,2.68-.43,3.39.89,3.43,2.26.13,5.64.07,11.29.39,16.93.06,1,.11,2,.17,3q.4,7.38.65,14.76c.1,2.4.17,4.79.23,7.18.15,6.38.23,12.77.19,19.16,0,2.75-.12,5.49-.26,8.24-.11,2.39-.23,4.79-.28,7.19s-.08,5.05.06,7.58c.22,4.14.34,8.27.44,12.4.06,2.42.11,4.82.17,7.23,0,2.1.1,4.19.18,6.29,0,1,.06,2,.09,3.06,0,.66.05,1.32.09,2,.13,3.3.28,6.59.38,9.89C512.37,292.3,512.42,294.77,512.42,297.22Z" fill="#231f20"/>
      <path d="M462.8,261.88q-.19,2.94-.38,5.89c-.15,2.44-.27,4.9-.38,7.35-.08,1.8-.17,3.6-.23,5.4h0c-.1,2.21-.17,4.42-.25,6.64q-.19,6.07-.35,12.15c-.09,3-.16,5.93-.25,8.89,0,1,0,2.05-.07,3.07-.31,11.07.21,22.16-.47,33.22h-7.19a33.76,33.76,0,0,1-.32-5.94c.47-6.75,1.06-13.5,1-20.25q0-1.32,0-2.64c-.09-3.28-.09-6.57,0-9.84h0c.09-4.51.29-9,.53-13.51.13-2.29.26-4.57.41-6.86s.28-4.62.41-6.93c.16-2.66.31-5.33.43-8,.09-1.56.15-3.13.21-4.69q.33-9.46.24-18.94c0-2.32-.07-4.62-.11-6.94q-.36-13.4-1.53-26.78c-.11-1.34-.23-2.69-.35-4-.09-.91-.15-1.81-.19-2.71-.33-7.08.59-14.16,1.13-21.25.22-2.93.38-5.85.36-8.78-.06-9.22-.1-18.45-.31-27.67-.06-2.29-.12-4.57-.21-6.87-.13-3.76-.3-7.5-.54-11.25-.13-2.09-.17-4.19-.14-6.28,0-8.72,1-17.42.18-26.14a12.42,12.42,0,0,0-.92-4.08c-1-2.31,1.21-3.49,3.68-4,2.68-.5,3.39,1.07,3.41,2.66.15,6.64.08,13.3.41,19.94.17,3.56.33,7.11.46,10.67q.36,8.64.54,17.27c.07,2.32.11,4.64.14,7,.09,5.68.12,11.35.1,17,0,6.82-.53,13.64-.58,20.47,0,2.19,0,4.4.1,6.6q.27,6.13.39,12.26.08,3.4.14,6.81c.1,5,.18,10,.35,15,.14,4,.3,8,.42,12.07.06,2.26.11,4.49.15,6.75h0C463.28,250.41,463.21,256.15,462.8,261.88Z" fill="#231f20"/>
      <path d="M407.41,231.1c-.05.61-.08,1.22-.12,1.84q-.35,5.17-.59,10.33c-.5,10.48-.77,21-1.05,31.46h0l-.15,5.76c-.06,2.19-.09,4.4-.1,6.6h0c0,9.5.21,19-.48,28.45-.59,8.09-.51,16.19-.53,24.29,0,1.54,0,3.1,0,4.65h-7.27l.68-22.94,0,0c1.15-4.62-.53-9.21-.21-13.82.21-3.08.46-6.17.65-9.26.3-4.54.49-9.09.37-13.63,0-.44,0-.9,0-1.34-.23-10.91.49-21.78,1.15-32.66.23-3.67.45-7.34.63-11,.08-1.6.14-3.21.2-4.82a429.18,429.18,0,0,0-1.14-49.55c-.18-2.38-.39-4.76-.61-7.14a70.2,70.2,0,0,1-.14-10.15c.13-2.69.36-5.36.59-8.05h0c.44-4.85.9-9.69.86-14.53,0-.43,0-.88,0-1.31-.11-14.83-.14-29.67-1.06-44.49-.67-10.82,1.06-21.6,0-32.41a12.25,12.25,0,0,0-.92-4.07c-1-2.32,1.22-3.5,3.68-4,2.68-.51,3.39,1.06,3.43,2.65.13,6.64.06,13.3.39,19.93.85,17.31,1.31,34.63,1.24,51.94,0,2.26-.07,4.51-.16,6.77-.18,5.39-.48,10.76-.42,16.15,0,1.39,0,2.77.1,4.17.05,1.06.09,2.13.12,3.18.27,7.09.37,14.2.52,21.29.06,3.22.13,6.42.24,9.63C407.66,207.09,408.26,219.08,407.41,231.1Z" fill="#231f20"/>
      <path d="M380.43,220.44c-1.1,15.59-1.43,31.2-1.86,46.81,0,.86,0,1.73-.06,2.59-.12,4.4-.11,8.79-.1,13.18,0,7.31,0,14.61-.48,21.89-1,13.19-.14,26.4-.89,39.59h-7.26l1-33.6,0,0c.81-3.22.23-6.45-.09-9.68a26,26,0,0,1-.12-4.14c.36-5.08.77-10.17,1-15.25q.15-3.81.06-7.62c-.44-16.66,1.37-33.23,2-49.83q.71-19.4-.4-38.75c0-.29,0-.59-.05-.9-.16-2.81-.34-5.62-.58-8.44s-.45-5.73-.72-8.6c-.12-1.27-.2-2.52-.24-3.77-.27-9.66,1.64-19.32,1.55-29-.12-15.27-.11-30.54-1.05-45.79-.69-10.83,1.05-21.6,0-32.4a12.58,12.58,0,0,0-.93-4.09c-1-2.31,1.21-3.5,3.69-4,2.68-.51,3.38,1.05,3.42,2.66.14,6.64.07,13.29.39,19.92.85,17.32,1.32,34.62,1.25,51.94-.05,9-.9,18-.49,27.09.11,2.45.21,4.92.27,7.37.13,4.49.21,9,.29,13.48.05,2.81.11,5.63.19,8.44,0,1.6.08,3.21.13,4.8,0,.39,0,.8,0,1.19C380.69,197.23,381.25,208.81,380.43,220.44Z" fill="#231f20"/>
      <path d="M357.57,213.47c-1.14,16.45-1.46,32.93-1.9,49.4-.33,11.69.26,23.41-.59,35.07-1.14,15.51.21,31.06-1.44,46.56h-6.92l1.22-40.58-.05,0c1.15-4.6-.52-9.19-.21-13.81.53-7.63,1.21-15.26,1-22.88-.44-16.65,1.36-33.23,2-49.83q.24-6.39.26-12.77c0-3.24,0-6.47-.07-9.71,0-3.05-.13-6.12-.26-9.18,0-1-.07-2-.12-3q-.51-11-1.56-22c-1.05-10.91,1.4-21.83,1.31-32.75-.12-15.27-.12-30.55-1.07-45.79-.67-10.82,1.07-21.61.05-32.41a12.7,12.7,0,0,0-.93-4.09c-1-2.31,1.21-3.49,3.68-4,2.69-.51,3.39,1.06,3.43,2.66.13,6.64.07,13.29.39,19.93.84,17.31,1.32,34.62,1.24,51.94,0,9-.89,18-.48,27.08.49,10.93.5,21.88.85,32.8l0,1.29q.15,4.16.29,8.3l.09,2.54c.09,3.1.18,6.21.2,9.31C358,202.89,357.94,208.17,357.57,213.47Z" fill="#231f20"/>
      <path d="M294,299.61c1.15-4.61-.52-9.2-.21-13.82.53-7.62,1.22-15.26,1-22.88-.44-16.65,1.37-33.22,2-49.83a433,433,0,0,0-1.76-56.69c-1-10.91,1.4-21.82,1.31-32.75-.12-15.26-.12-30.54-1.06-45.79-.68-10.82,1.06-21.61,0-32.41a12.58,12.58,0,0,0-.93-4.08c-1-2.31,1.21-3.5,3.69-4,2.68-.5,3.38,1.06,3.41,2.66.15,6.65.08,13.29.4,19.93.85,17.31,1.32,34.62,1.24,51.94,0,9-.89,18-.48,27.09.52,11.36.5,22.73.89,34.09.4,12,1,24,.16,36-1.15,16.44-1.46,32.93-1.91,49.39-.32,11.69.26,23.41-.58,35.07-1.16,15.72.24,31.47-1.51,47.18-.23,2.06-2.29,2.18-4.3,2.26-1.67.08-2.61-.61-2.58-1.87l1.23-41.58Z" fill="#231f20"/>
      <path d="M276.05,213.47c-1.15,16.45-1.46,32.93-1.91,49.4-.32,11.69.27,23.41-.58,35.07q-.1,1.49-.18,3c-.8,14.53.28,29.07-1.27,43.59H265.2l.54-18.31,0,0,.65-22.24-.05,0c1.15-4.6-.52-9.19-.21-13.81.53-7.63,1.21-15.26,1-22.88-.44-16.65,1.37-33.23,2-49.83q.57-15.6-.05-31.2-.48-12.75-1.7-25.49c-1-10.91,1.41-21.83,1.31-32.75-.12-15.27-.11-30.55-1.06-45.79-.68-10.82,1.06-21.61,0-32.41a12.7,12.7,0,0,0-.93-4.09c-1-2.31,1.21-3.49,3.69-4,2.68-.51,3.38,1.06,3.41,2.66.15,6.64.08,13.29.4,19.93.84,17.31,1.32,34.62,1.25,51.94-.05,9-.9,18-.49,27.08.53,11.36.5,22.74.88,34.09.1,2.92.21,5.84.31,8.75A261.15,261.15,0,0,1,276.05,213.47Z" fill="#231f20"/>
      <path d="M250.33,196.57c-.2-3.4-.28-6.81-.3-10.22,0-2.65,0-5.29,0-7.93.06-9.77-.15-19.53,0-29.3.08-5.3-.15-10.61.08-15.89.28-6.32-.21-12.6.1-18.91.22-4.38-.11-8.79-.16-13.17-.08-6.76.13-13.53-.26-20.29-.12-2.11-.64-4.36-.12-6.43a21.86,21.86,0,0,0,.35-6.35,39.86,39.86,0,0,1,.46-7.9,43,43,0,0,0,.3-9.07c-.08-1.46-.55-2-1.26-2.33-1.46-.7-2.9,1-3.14,3.66a9.19,9.19,0,0,1-.46,2.81,8.59,8.59,0,0,1-.5-2.81c-.23-1.46-.6-3-1.68-3.13S242,50,241.36,51.2a5.35,5.35,0,0,0-.36,2.59,10.14,10.14,0,0,1-.59,4.21,6.74,6.74,0,0,0-.25,3c.17,3.48.19,7,.08,10.45-.23,7.7.49,15.35.27,23.07-.12,4.48.26,9,.17,13.48-.08,4.86.09,9.68.16,14.5,0,2.24-.16,4.54.44,6.69-1.14,4.31-.09,8.77-.45,13.22-.48,6,.58,12.11,0,18.36-.37,4.32.08,8.92-.05,13.41-.12,4.09,0,8.16,0,12.24s.16,8.21,0,12.33c-.23,7.51-.12,15.06-.43,22.61-.32,7.84-.43,15.71-.71,23.56-.5,13.86-.75,27.74-1.08,41.61-.23,8.92-.22,17.84-.49,26.77-.21,7,0,13.93,0,20.9,0,3.43.11,6.88.19,10.32h10.93c-.15-3.9-.17-7.79-.33-11.68-.26-6.26-.31-12.5,0-18.76.21-4.34.21-8.74.1-13.06-.09-3.25.12-6.5,0-9.77a23.41,23.41,0,0,1,.24-6.57l0,0a1.42,1.42,0,0,1,0-1.45l0,0c.51-1.05-.5-1.71-.22-2.81.64-2.46.39-5.1.43-7.67s1.13-4.93-.1-7.36c-.1-.19.2-.81.21-1.24.08-3.21,1.38-6.46-.1-9.65a4.52,4.52,0,0,1,.17-1.62,12.77,12.77,0,0,0,.36-3,3,3,0,0,0,.23-1.82,55.87,55.87,0,0,1-.18-9.77,11.26,11.26,0,0,0,.12-3.19c-.47-2-1-4-.05-6.25a4.28,4.28,0,0,0-.48-3.12,3.4,3.4,0,0,1,.52-2.4c-.11-1.52.61-3,0-4.54-.16-.14-.39-.21-.29-.59,0-.12.23-.14.35-.2.47-3.9-.4-7.73.08-11.78A57.32,57.32,0,0,0,250.33,196.57ZM250,249.9l-.43-.21C249.81,249.2,249.88,249.63,250,249.9Z" fill="#231f20"/>
      <path d="M335.65,223.48c0,3.94-.12,7.88,0,11.82.27,11.63-.18,23.25-.4,34.87-.23,12.33-.06,24.66-.37,37-.22,9.27-.26,18.57-1.17,27.81a41.92,41.92,0,0,0,.14,5.59c0,.75.15,1.76-.69,1.84-2.52.24-5,1.13-7.57.27a2.2,2.2,0,0,1-1.45-2.47c.34-10.18.66-20.35,1.08-30.51.19-4.67.95-9.34.79-14-.29-8.4.09-16.8.11-25.19,0-13.34-.72-26.68-.22-40,.33-8.93.71-17.85.68-26.79,0-6.39-.24-12.79-.19-19.18.06-9.94,0-19.87-.11-29.8-.08-9.12.05-18.24.58-27.38.52-9,.88-18-.18-27-.13-1.09.54-2.2-.13-3.23v0l-.28-.74v0c.52-3.6-.17-7.17-.17-10.75,0-7.46-.62-14.86.24-22.38a57.27,57.27,0,0,0,.18-11.52c-.28-3.17.6-7-.19-10.08-1-3.81,1-3.64,2.73-4.34a2.1,2.1,0,0,1,1.84.25c1.56.81,2.75,2.47,4.85,2.07,1.19-.22,1,1.78,1.1,2.82,1.22,17.67.66,35.36.47,53.06-.14,12.08.16,24.17,0,36.25-.11,11.8-.91,23.62-.6,35.39q.28,10.56-.37,21c-.46,7.23-.53,14.46-.81,21.68a90.54,90.54,0,0,0,.1,13.58Z" fill="#231f20"/>
      <path d="M189.84,252.78c-1.16,16.45-1.47,32.93-1.92,49.4-.32,11.69.26,23.41-.58,35.07q-.26,3.62-.36,7.25h-6.83l0-1.25-.05,0c1.15-4.6-.52-9.19-.21-13.8.53-7.63,1.22-15.27,1-22.89-.44-16.65,1.37-33.23,2-49.83a431.25,431.25,0,0,0-1.75-56.69,78,78,0,0,1,.06-13.32c.47-6.47,1.31-13,1.25-19.43-.12-15.27-.12-30.55-1.05-45.79-.69-10.82,1.05-21.61,0-32.41a12.58,12.58,0,0,0-.93-4.08c-1-2.32,1.21-3.49,3.69-4,2.68-.51,3.38,1.06,3.42,2.66.14,6.64.07,13.29.39,19.93.85,17.31,1.32,34.62,1.25,51.94-.05,9-.9,18-.49,27.09.06,1.34.12,2.67.16,4,.37,10,.39,20.06.72,30.08C190.07,228.78,190.67,240.76,189.84,252.78Z" fill="#231f20"/>
      <path d="M157.19,290.83c-.95,13.56-1.33,27.16-1.68,40.75l-.22,8.65c0,1.42-.08,2.85-.09,4.27h-6.88c-.19-6.79,0-13.55.35-20.32.48-9.8,1.25-19.59,1.61-29.39a429.54,429.54,0,0,0-1.76-56.69c-1-10.91,1.4-21.82,1.32-32.74-.05-6.15-.08-12.3-.16-18.45-.11-9.12-.35-18.24-.91-27.34-.68-10.83,1.07-21.61,0-32.42a12.85,12.85,0,0,0-.93-4.07c-1-2.32,1.21-3.5,3.68-4,2.69-.52,3.39,1,3.42,2.65.14,6.64.08,13.29.39,19.93.74,15.05,1.21,30.1,1.24,45.18q0,3.38,0,6.76c0,9-.88,18-.47,27.09.51,11.35.5,22.73.88,34.09C157.43,266.82,158,278.8,157.19,290.83Z" fill="#231f20"/>
      <path d="M133.28,321.41c1.49,3,.83,6-.11,9-.33.25-.95-.12-.87,1.06.24,3.69-.55,7.25-.65,10.91a4.56,4.56,0,0,0,.22,1.78,3.08,3.08,0,0,1,.16.38h-8.94a64.86,64.86,0,0,1-.67-11.18c.11-4.8-1.35-9.49,0-14.52.74-2.74.18-6.38.18-9.61,0-6.47-1-12.89.34-19.43.08-.39.15-.81.2-1.23a13.81,13.81,0,0,0-.65-7.33c1-3.8-.68-7.32-.32-11.14.59-6.42.05-13,1.56-19.33a5.87,5.87,0,0,0-.14-2.86,10.7,10.7,0,0,1,.07-6.69,15.49,15.49,0,0,0,.24-8c-.5-2.05-1-4.09.15-6.09a2.4,2.4,0,0,0,.26-1.28c-1.94-3.52-.14-7.75-.84-11.5l0,0c1.46-8-.62-16.48,1.5-24.64a13.17,13.17,0,0,0,.36-2.69,15.7,15.7,0,0,0-1.41-7.44c-.75-1.48.84-8.43,2.36-9.83s2.35.65,3.27,2.09h0c3.53,3.59,5.9,8,5.44,15.12,0,.37-.07.73-.1,1.12-.44,4.33,1.07,8.71.4,13.31-.48,3.35-.32,6.92-1.32,10.13-.09.27-.31.66-.26.79,1.42,4,.44,8.25.61,12.36a37.59,37.59,0,0,1,.22,4.59,16.86,16.86,0,0,0,.67,6.36c.82,2.91.91,6.14-1.49,8.43-.81.78-1.09,3.71-.5,5.75.82,2.84,1.16,5.57-.27,8.26a1.54,1.54,0,0,0-.16.86c1.51,5.84-1.22,12-.06,17.36,1.34,6.29.15,11.5-.73,17.3-.45,3,.36,6.38.46,9.7,0,.38,0,.75,0,1.12,0,1.36.38,2.81.12,4.3a4.29,4.29,0,0,0-.14,1.59,21.84,21.84,0,0,1,.79,11.1v.08Z" fill="#231f20"/>
      <path d="M225.7,153.85c-.1,10.89-.79,21.78-.65,32.65,0,.9,0,1.82,0,2.74q.28,10.56-.37,21c-.47,7.23-.53,14.46-.81,21.69a86.36,86.36,0,0,0,.1,13.55c0,3.94-.11,7.88,0,11.8.27,11.64-.18,23.26-.39,34.89-.23,12.32-.06,24.65-.38,37-.12,5.12-.18,10.25-.38,15.37h-9.76c.15-4.28.31-8.57.48-12.84.2-4.66,1-9.34.79-14-.29-8.41.09-16.81.11-25.19,0-13.35-.71-26.68-.22-40,.34-8.93.71-17.86.68-26.79,0-6.4-.23-12.79-.19-19.18,0-6.67,0-13.33,0-20,0-3.27,0-6.54-.07-9.81-.08-9.12.05-18.25.59-27.39.51-8.94.87-18-.19-27-.13-1.08.54-2.2-.13-3.23v0l-.29-.74v0c.53-3.6-.17-7.17-.16-10.77,0-7.45-.64-14.85.24-22.36a58.89,58.89,0,0,0,.18-11.53c-.28-3.16.59-7-.2-10.07-1-3.82,1-3.64,2.74-4.34a2,2,0,0,1,1.83.24c1.56.81,2.76,2.47,4.85,2.08,1.2-.22,1,1.76,1.1,2.81,1.22,17.67.66,35.37.47,53.05C225.51,129.68,225.81,141.77,225.7,153.85Z" fill="#231f20"/>
      <path d="M437.23,134.2c-.05,3.89,0,7.77,0,11.66q0,3.4.05,6.81c0,5.93.07,11.86,0,17.78,0,5-.22,9.91-.36,14.85-.22,6.87-.42,13.7-.24,20.54.06,2.49.09,5,.08,7.45s-.06,5.16-.18,7.74c-.06,1.94-.16,3.87-.28,5.81-.45,7.21-.53,14.46-.8,21.67,0,.14,0,.27,0,.41-.12,2.78-.24,5.58-.19,8.38,0,1.59.12,3.18.3,4.76,0,3.94-.11,7.88,0,11.82.07,3.35.1,6.7.07,10.05s-.07,6.65-.14,10c-.08,3.82-.17,7.65-.26,11.46,0,1.13,0,2.26-.06,3.39-.05,2.76-.09,5.5-.1,8.26h0c-.09,9.16,0,18.33-.26,27.47h-9.44c.22-2.7.51-5.39.56-8.08,0-.71,0-1.42,0-2.13-.07-2.06-.11-4.15-.11-6.22v0c0-6.31.2-12.63.22-18.94,0-1,0-2.05,0-3.08,0-3.94-.08-7.86-.17-11.8-.16-8.37-.34-16.76,0-25.13.07-1.67.13-3.32.19-5,.12-3.09.23-6.19.32-9.28h0c.12-4.18.19-8.34.18-12.51,0-5-.15-10.07-.18-15.11,0-1.35,0-2.71,0-4.07s0-2.8,0-4.2c0-8.53-.05-17.06-.13-25.6q0-4,0-8c0-6.45.21-12.93.59-19.41.2-3.39.38-6.8.47-10.21.05-2.31.06-4.62,0-6.93h0a98.11,98.11,0,0,0-.65-9.82c-.14-1.09.54-2.19-.14-3.22v0l-.28-.75v0a21.17,21.17,0,0,0,.2-3.28c0-2.49-.37-5-.37-7.47,0-7.45-.63-14.86.23-22.37a57.33,57.33,0,0,0,.2-11.53c-.29-3.17.59-7-.2-10.08-1-3.81,1-3.64,2.74-4.34a2.11,2.11,0,0,1,1.83.25c1.56.81,2.76,2.47,4.84,2.08,1.21-.23,1,1.77,1.11,2.81,1.08,15.64.76,31.29.54,47Z" fill="#231f20"/>
    </g>
    <path d="M714.75,344.5H262c1.05-6.23,2.31-12.32,3.78-18.31l0,0a249.68,249.68,0,0,1,7.62-25.25,286.25,286.25,0,0,1,21.4-45.83q2.43-4.26,5-8.47c.8-1.28,1.62-2.48,2.43-3.76h0v-.06a378.9,378.9,0,0,1,24.29-33.57q4.56-5.61,9.39-11.06c3.72-4.2,7.56-8.33,11.51-12.34q1.51-1.53,3.05-3.05,3.4-3.36,6.91-6.6,6.89-6.37,14.13-12.21,4-3.21,8.13-6.25a214.94,214.94,0,0,1,20.41-13.38c2.18-1.26,4.41-2.47,6.64-3.65a174.28,174.28,0,0,1,19.69-8.88c3.59-1.37,7.24-2.61,10.92-3.7s7.24-2,10.91-2.83c2-.33,4-.63,6-.92q3.61-.51,7.22-.92,3.93-.45,7.83-.77c2.32-.21,4.63-.37,6.94-.5,114.39-6.53,217.93,64.48,238.33,220.93C714.62,343.56,714.7,344,714.75,344.5Z" fill="#76863e"/>
    <polygon points="459.54 163.23 459.54 163.23 459.59 163.22 459.54 163.23" fill="#231f20"/>
    <polygon points="499.95 159.87 500.01 159.87 499.98 159.87 499.95 159.87" fill="#231f20"/>
    <g>
      <path d="M592,344.5H585.9a67.41,67.41,0,0,0-1.89-9.25,100.68,100.68,0,0,0-9.15-21.9,102.79,102.79,0,0,0-13.88-19,113,113,0,0,0-8.71-8.66,52.3,52.3,0,0,0-5.26-4.14,49.8,49.8,0,0,0-4.78-2.94,86.26,86.26,0,0,0-28.91-9.8c-.59-.08-1.17-.15-1.76-.21-2.59-.3-5.19-.46-7.78-.52-2.16-.05-4.31,0-6.45.05-1.21,0-2.4.1-3.6.19-2.37.14-4.75.36-7.12.62-1.73.2-3.46.42-5.19.65s-3.28.5-4.9.85a72.13,72.13,0,0,0-8.38,2.29c-2.06.69-4.1,1.48-6.1,2.36l-1.74.79q-2.57,1.21-5.05,2.61A83.1,83.1,0,0,0,441.62,288a65.48,65.48,0,0,0-6.11,5.9c-1.68,1.82-3.27,3.71-4.79,5.66-1.63,2.1-3.18,4.26-4.69,6.45s-2.92,4.41-4.33,6.66a69.8,69.8,0,0,0-8.22,19.87c-1.05,3.94-1.81,7.92-2.47,11.95h-7.39c.22-1.56.47-3.11.77-4.65a98.58,98.58,0,0,1,8.4-25.22h-.06a17.67,17.67,0,0,0,1.83-2.88c.5-1,.92-2.07,1.37-3.1s.86-2.11,1.34-3.14a20.5,20.5,0,0,1,1.73-2.93,97.24,97.24,0,0,1,6.86-8.37c2.6-2.89,5.3-5.66,8-8.45.6-.62,1.2-1.24,1.82-1.84a73.67,73.67,0,0,1,17.84-12.37c.72-.36,1.46-.7,2.19-1,2.21-1,4.47-1.94,6.74-2.76,1.9-.71,3.83-1.36,5.76-1.93q4-1.21,8.09-2.09l.22,0q4.8-1.05,9.68-1.7c2.43-.32,4.87-.57,7.33-.73,3.2-.24,6.4-.34,9.62-.29,2.75,0,5.51.16,8.27.41a114.25,114.25,0,0,1,19.3,3.3,45.91,45.91,0,0,1,14.44,7.16c1.92,1.36,3.77,2.79,5.57,4.25,2.35,1.91,4.64,3.86,7,5.76A102.36,102.36,0,0,1,573.11,298,122.75,122.75,0,0,1,585,317a60.45,60.45,0,0,1,5,15.19C590.8,336.29,591.35,340.39,592,344.5Z" fill="#231f20"/>
      <path d="M638.65,344.5H631.8a141.06,141.06,0,0,0-3.51-25.33l-1.14-4.59L625.81,310l-.66-2.27-.76-2.23L622.87,301l-1.71-4.41-.86-2.19-.94-2.16L617.47,288l-2.08-4.22-1-2.13-1.13-2.06L611,275.41l-2.42-4-1.21-2-1.31-2a158.1,158.1,0,0,0-11.13-15.09A182.08,182.08,0,0,0,581.64,238c-2.39-2.22-4.87-4.37-7.43-6.41a92.31,92.31,0,0,0-8-5.63C552.31,217.29,537,210.87,521,208.1c-3.25-.57-6.5-1-9.77-1.27q-3.57-.35-7.14-.45c-3.62-.12-7.25-.1-10.86.05-2.32.1-4.63.24-6.92.46-3.38.29-6.75.69-10.1,1.18-2,.31-4.08.64-6.1,1-.73.13-1.44.27-2.16.42q-2.86.58-5.67,1.33-3.94,1-7.8,2.35A117.29,117.29,0,0,0,436.57,221q-5.26,2.82-10.24,6.16a131.76,131.76,0,0,0-18.05,14.52c-.52.51-1,1-1.58,1.56-2.45,2.42-4.8,5-7,7.62-2.75,3.24-5.34,6.63-7.79,10.1a220.43,220.43,0,0,0-13.26,21.63c-.07.13-.15.27-.21.4a120,120,0,0,0-7.77,18.23c-1.49,4.44-2.77,9-3.85,13.51a245.14,245.14,0,0,0-4.73,29.74H355a167.54,167.54,0,0,1,13.51-56.62l-.06,0a56.39,56.39,0,0,0,3.06-6.06c.5-1.13,1-2.27,1.38-3.43,1.42-3.19,2.63-6.51,4.58-9.45l1.13-1.73a212.31,212.31,0,0,1,20.15-25.66l1.58-1.71,1.63-1.78c1.1-1.13,2.26-2.21,3.38-3.3.64-.64,1.31-1.25,2-1.86,1.67-1.5,3.43-2.91,5.13-4.38,1.24-1,2.5-1.92,3.76-2.86l1.89-1.43,2-1.32,3.93-2.62,2.37-1.41,1.68-1,2-1.19,2.08-1.1,4.19-2.16.43-.19c2.72-1.21,5.38-2.54,8.18-3.57,3-1.24,6-2.31,9-3.28,2.72-.87,5.45-1.67,8.2-2.42l.58-.16c1.73-.44,3.47-.86,5.21-1.24,2.75-.6,5.53-1.13,8.3-1.57,3.31-.53,6.64-.94,10-1.25q3.48-.31,7-.47c3.5-.14,7-.17,10.52-.07,2.43.06,4.86.2,7.29.39a145.73,145.73,0,0,1,36,7.44A81.39,81.39,0,0,1,569,219c2.64,1.94,5.21,4,7.7,6.1,3.84,3.24,7.56,6.63,11.24,10,17,15.68,29.93,35.44,39.25,56.66a116.47,116.47,0,0,1,7,23.65c1.63,8.06,2.54,16.19,3.66,24.34A36.13,36.13,0,0,0,638.65,344.5Z" fill="#231f20"/>
      <path d="M536.34,322.69a4.35,4.35,0,0,0-1.32-3.11,9.68,9.68,0,0,1-2.1-2.67c-.35-.88-.86-1.66-1.29-2.5s-.87-1.69-1.41-2.45-1.12-1.52-1.72-2.25c-.31-.36-.61-.73-.93-1.07s-.71-.63-1.07-.93c-.8-.65-1.57-1.32-2.32-2s-1.61-1.26-2.4-1.92l-1.17-1-1.24-.91L516.89,300l-2.63-1.67-1.33-.84-1.4-.71-2.84-1.38c-1-.38-2-.7-3-1l-1.73-.54-1.77-.33a33.89,33.89,0,0,0-3.58-.51c-1.21-.05-2.42-.07-3.62-.08h-.9l-.9.1-1.79.22a36.14,36.14,0,0,0-6.95,1.68,35.25,35.25,0,0,0-6.3,3.22,14.09,14.09,0,0,1-1.75.94c-.59.29-1.16.62-1.77.88-1.19.56-2.51.88-3.71,1.46s-2.54,1-3.72,1.65a25,25,0,0,0-3.37,2.29c-5.57,5.12-10.1,11.55-12.1,18.76-.61,2.57-1.78,4.91-2.52,7.44l-.62,1.88c-.16.64-.26,1.29-.36,1.94s-.18,1.31-.22,2c0,.33,0,.66-.05,1s.07.67.12,1a3.64,3.64,0,0,0,.83,2c1,1.13-1.29,1.64-3.78,1.89-2.69.27-3.35-.57-3.35-1.45a75,75,0,0,1,.93-10.86l.56-3.55c.24-1.18.59-2.33.9-3.49l.48-1.75c.17-.58.42-1.13.63-1.7l1.35-3.38c.53-1.09,1.12-2.16,1.69-3.24l.87-1.61,1-1.52c.69-1,1.37-2,2.1-3l2.4-2.78c3.51-3.75,7.84-6.49,12-9.45a51.25,51.25,0,0,1,17.65-8c6.68-1.76,14-2.5,20.76-.32a71,71,0,0,1,13.09,5.65,59,59,0,0,1,6,3.76c1,.65,1.83,1.46,2.75,2.18a28.84,28.84,0,0,1,2.62,2.31c1.15,1.19,2.42,2.25,3.53,3.47s2.26,2.41,3.3,3.7,2,2.65,2.88,4,1.54,2.92,2.19,4.42c.4,1,.75,2.09,1.16,3.11s.89,2,1.19,3.06a59.7,59.7,0,0,1,2,6.25c.26,1.06.53,2.12.76,3.19s.27,2.17.37,3.26a24.58,24.58,0,0,1-.26,6.52c-.18,1.14-2.23,1.19-4.25,1.24-1.66,0-2.62-.3-2.62-.9a48.65,48.65,0,0,0-3.35-19.71Z" fill="#231f20"/>
      <path d="M610.42,344.5h-7a97.21,97.21,0,0,0-3.08-20.16,121.49,121.49,0,0,0-28.21-50.74,130.09,130.09,0,0,0-10.84-10.68c-.53-.47-1.06-.92-1.6-1.36a69.12,69.12,0,0,0-10.83-7.41A106.33,106.33,0,0,0,513,241.71l-2.15-.29c-2.14-.26-4.27-.44-6.41-.58-3.78-.23-7.56-.27-11.33-.15H493q-4,.13-8.07.49c-2.93.24-5.85.58-8.77,1l-2.8.41c-1.71.26-3.4.56-5.09.92s-3.39.75-5.07,1.2h0c-2.4.64-4.75,1.38-7.08,2.21a94.41,94.41,0,0,0-8.94,3.7,111.23,111.23,0,0,0-11.9,6.7,101.27,101.27,0,0,0-9.28,6.8c-.67.53-1.3,1.07-1.94,1.62A97.35,97.35,0,0,0,410.57,280q-2.69,3.45-5.17,7.06h0c-2.07,3-4,6.09-5.94,9.22q-.66,1.08-1.29,2.19A93.89,93.89,0,0,0,389.38,321a178.89,178.89,0,0,0-4.22,23.53h-7.08a122.05,122.05,0,0,1,11.88-45h0a27.6,27.6,0,0,0,2.15-3.56c.61-1.23,1.13-2.5,1.72-3.75s1.1-2.55,1.69-3.8a34,34,0,0,1,2.14-3.57c.29-.42.59-.83.91-1.24a109.73,109.73,0,0,1,7.13-8.81h0c3.2-3.65,6.56-7.13,9.93-10.61a79.45,79.45,0,0,1,10.75-9.3h0a95.56,95.56,0,0,1,9.15-5.89c1.35-.79,2.71-1.53,4.09-2.24a113.69,113.69,0,0,1,13.62-5.77c.94-.35,1.88-.66,2.83-.95,1.39-.44,2.82-.84,4.2-1.29l2.84-.74.72-.18c1.18-.32,2.37-.64,3.58-.87.29-.06.57-.14.87-.19h0c2.61-.56,5.24-1.06,7.88-1.47q4.67-.74,9.37-1.14c2.41-.22,4.83-.37,7.24-.46q5.94-.23,11.91.1c2.17.11,4.36.28,6.54.52a132.39,132.39,0,0,1,22.72,4.3,61.33,61.33,0,0,1,17.63,8.71c3.94,2.7,7.65,5.65,11.31,8.66l4.13,3.41a124.35,124.35,0,0,1,18.82,19.75,141.71,141.71,0,0,1,14.33,23.36A79.81,79.81,0,0,1,606.18,321c1.36,6.37,2.15,12.79,3.19,19.21A22.14,22.14,0,0,0,610.42,344.5Z" fill="#231f20"/>
      <path d="M696.36,344.5H690.8a14.17,14.17,0,0,1-.51-3.62A197.76,197.76,0,0,0,684.76,300a215.56,215.56,0,0,0-19.36-49.79c-1.07-2-2.21-3.86-3.32-5.8l-1.66-2.89c-.57-1-1.19-1.89-1.79-2.82l-3.58-5.63-3.84-5.46c-.64-.91-1.27-1.83-1.92-2.73l-2-2.64c-1.36-1.74-2.68-3.53-4.1-5.25-2.89-3.38-5.67-6.85-8.76-10.05L632,204.41l-1.18-1.27-1.23-1.23L624.71,197c-1.64-1.64-3.4-3.16-5.08-4.74l-2.57-2.36-2.66-2.23a150.43,150.43,0,0,0-22.72-16.08,192.74,192.74,0,0,0-65.27-23.7,202.47,202.47,0,0,0-34.77-2.48h-1.78q-2.37,0-4.74.15c-2.94.11-5.86.3-8.79.53-2.36.18-4.72.42-7.07.69s-4.75.55-7.12.88-4.68.69-7,1.09l-1.7.29c-2.08.3-4.12.82-6.18,1.22s-4.12.8-6.13,1.39c-1.29.34-2.58.67-3.87,1-2.77.74-5.54,1.52-8.25,2.48-.59.18-1.16.37-1.75.58a182.69,182.69,0,0,0-20.76,8.44l-.9.43c-2.35,1.17-4.68,2.37-7,3.62a197.42,197.42,0,0,0-18.49,11.4q-3.6,2.49-7.07,5.14l-1.14.9h0q-4.32,3.34-8.41,7c-1.87,1.62-3.71,3.29-5.5,5q-3.63,3.43-7.07,7.07-6.39,6.77-12.14,14.12c-1.08,1.38-2.15,2.77-3.19,4.18q-5.19,6.94-9.85,14.24-3.64,5.67-7,11.51a181.28,181.28,0,0,0-17.39,42.65v0s0,0,0,0c-.23.78-.44,1.57-.65,2.37-.58,1.95-1,3.94-1.42,5.91l-1.35,5.94-1.08,6c-.36,2-.78,4-1,6-.54,4-1.24,8-1.58,12.07l-.67,6.08-.45,6.09a1.45,1.45,0,0,1,0,.28h0a6.81,6.81,0,0,1-.55,2.32h-6.17a8.64,8.64,0,0,1-.14-1.93,216.62,216.62,0,0,1,7.82-51.52v0a215.59,215.59,0,0,1,7.62-22.54q2.35-5.89,5.08-11.62l-.07.05,1.84-3.2c.6-1.07,1.17-2.15,1.72-3.24,1.09-2.2,2.07-4.44,3.2-6.62s2.14-4.41,3.27-6.59,2.46-4.26,3.83-6.31q2.7-4,5.61-7.85v0q4.45-5.94,9.31-11.55c4.92-5.72,10.08-11.23,15.37-16.57.36-.38.75-.74,1.11-1.13l2.34-2.35c.79-.77,1.63-1.5,2.44-2.25l1.05-.94,2.83-2.57h0l1-.93c1.71-1.41,3.44-2.79,5.15-4.17l2.59-2.08c.89-.66,1.8-1.29,2.68-1.94l.39-.28,5-3.57,2.45-1.57,3.12-2,2.8-1.77c.94-.56,1.91-1.09,2.87-1.64l5.76-3.24,4.72-2.36h0l1.19-.59,3-1.46,2.92-1.29.1,0,6.05-2.63,6.16-2.34,3.08-1.17c1-.36,2.09-.68,3.13-1l2.47-.8h0l3.79-1.23c2-.6,4.1-1.12,6.15-1.7l.18-.05,3.18-.87c1.06-.3,2.14-.49,3.21-.74,3.69-.87,7.42-1.65,11.15-2.33q3.54-.65,7.08-1.18,3.21-.48,6.44-.86c2.61-.32,5.22-.59,7.85-.79a219.2,219.2,0,0,1,85.88,9.79,136.37,136.37,0,0,1,31.34,15.33,279.18,279.18,0,0,1,27.85,20.92,218.87,218.87,0,0,1,33.28,35.34,235,235,0,0,1,24.83,41.86,168.78,168.78,0,0,1,10.82,32.85c2.57,11.25,4.09,22.65,5.56,34.09.17,1.47.36,2.93.61,4.37.12.71.26,1.42.42,2.15s.27,1.42.43,2.14C698,340.92,697.48,343.06,696.36,344.5Z" fill="#231f20"/>
      <path d="M445.22,301.48a42.87,42.87,0,0,0-7.21,9.84c-2,3.61-3.69,7.36-5.48,11.07a21.08,21.08,0,0,0-1.92,9.91,11,11,0,0,1-.19,1.95c-.17.86-.36,1.89-.56,2.92a28.08,28.08,0,0,1-1.25,4.86c-.76,1.37-1.17-.7-1.59-2.23l0-.05,0,.11a19.37,19.37,0,0,1-1.53-7.13,27.8,27.8,0,0,1,1.78-10.22c1.56-4.37,2.71-9.06,5.41-13.3a49.59,49.59,0,0,1,6.58-8.72,5.73,5.73,0,0,0,.64-.59c2.08-3.77,5.68-6.8,9-9.73a40.28,40.28,0,0,1,3.78-3.18c2-1.39,3.63-2.6,5.49-4.11,2.48-2,5.62-3.68,8.4-3.56a21.63,21.63,0,0,0,5.82-2,22.46,22.46,0,0,1,4.17-1.68,13.89,13.89,0,0,1,4.35-.58,3.91,3.91,0,0,0,.91-.12,31.32,31.32,0,0,1,9.35-1.32c1.57-.08,3.13,0,4.65,0s3,0,4.44,0c6.73-.26,12.31,1.32,18,3.6,3.36,1.29,7.26,2.27,10.79,4.11a33.9,33.9,0,0,1,4.07,2.13,9.7,9.7,0,0,0,1.41.95,29.61,29.61,0,0,1,9.82,6.75l0,.07-.06-.09a19.43,19.43,0,0,1,6.78,6.91l0-.05c.08.34-.44.21.41,1.18a52.43,52.43,0,0,1,6.44,9.73,15.14,15.14,0,0,0,1,1.61,18.56,18.56,0,0,1,4.36,9.54,2,2,0,0,0,.11.45c2,2.56,2.35,7.14,3.45,10.52a18.18,18.18,0,0,1,.41,7.28c-.34,2.49-1,4.42-1.61,4.22-.23-.07-.45-1-.68-1.55l0,0c-1.35-4.38-2.59-9.12-4.47-14.65-1.68-4.73-2.65-9.26-5-12.95-2.1-3.34-4.4-6.63-6.64-9.56-3-3.81-6.69-6.59-10.12-10.28a35.65,35.65,0,0,0-7.78-5.55c-5.56-3.31-11.61-5.31-17.76-7.55a26.83,26.83,0,0,0-4.1-1.12,16.72,16.72,0,0,0-4.32-.22H505c-3.73-1-7.3-.29-11.08-.31a55.36,55.36,0,0,0-9.59.82c-1.6.22-3.16.59-4.74.85l-4.68,1a9,9,0,0,0-2.67,1,26.35,26.35,0,0,1-3,1.5c-1,.43-2.06.76-3.11,1.15a21,21,0,0,0-7,3.85,19.26,19.26,0,0,1-5,3.51,3.61,3.61,0,0,0-1.08.71c-2.07,2.94-5.72,5.23-7.87,8.33Z" fill="#231f20"/>
    </g>
    <path d="M209.38,148.91a.57.57,0,0,1-.2.78,5.19,5.19,0,0,1-1,.53c-.09,0-.29.06-.09.18.46.26.11.5.21.75.18.42-.19.29-.38.38s-.36.1-.4.33a.24.24,0,0,1-.26.23c-.59-.06-.52.5-.66.84a.85.85,0,0,1-.44.52,18.43,18.43,0,0,0-2.46,1.73c-.57.41-1.06.91-1.64,1.31-.22.14-.5.06-.67.23l-.17.12c-.16.39-.25.86-.84.77-.12.47-.83.26-.91.77a.29.29,0,0,1-.14.2,6.51,6.51,0,0,0-1.67,1.38.34.34,0,0,1-.4.1c-.5.39-.74,1.06-1.4,1.26a2.4,2.4,0,0,0-1,.76,6.74,6.74,0,0,1-.88.72,2.68,2.68,0,0,0-.53.48c-.32.37-.63.87-1.09,1s-.82.2-.9.72a.2.2,0,0,1-.26.11.24.24,0,0,0-.33.11c-.25.63-1,.78-1.27,1.33-.34.73-1.13.87-1.59,1.42a4.61,4.61,0,0,1-1.09,1,5.9,5.9,0,0,0-1.64,1.59,6.39,6.39,0,0,1-1.41,1.22.54.54,0,0,1-.46.18h-.05c-.06.13-.08.31-.18.38-.95.6-1.46,1.7-2.5,2.19-.28.13-.28.47-.5.67a14.48,14.48,0,0,0-2.5,2.51,1.08,1.08,0,0,1-.86.5c-.06,0-.15,0-.14.06.07.65-.47.77-.78,1.08a48.32,48.32,0,0,0-3.44,3.57c-.57.7-1.17,1.38-1.79,2a1.89,1.89,0,0,1-.67.41c-.45.18-.44.19-.67-.39h0a2.72,2.72,0,0,1-2,1.18.44.44,0,0,1-.38-.14l-.19,0c-.59-.27-.63-.36-.38-.8,0-.09.2-.17.07-.27s-.12.11-.18.18-.39.12-.58.17c-.37.11-.62.4-1,.48-.19,0-.37.13-.55-.12s-.32-.54-.11-.76.29-.5.66-.48c0,0,.07-.09.1-.14h0c.07-.33.44-.41.48-.79,0-.18.08-.26-.08-.46-.31-.39-.3-.67,0-.95.86-.81,1.71-1.61,2.59-2.4a5,5,0,0,1,1.14-.78c.25-.12.32-.46.51-.66,1-1.07,2.28-1.91,3.37-2.91s2-1.83,3-2.74c.59-.52,1.1-1.17,1.71-1.68,1.15-1,2.16-2.07,3.39-3,.34-.25.57-.68.92-.94a10.94,10.94,0,0,0,1.63-1.32,17.66,17.66,0,0,1,2.06-1.91c.67-.54,1.25-1.18,1.93-1.72a11.68,11.68,0,0,0,1.3-1.33,2.72,2.72,0,0,1,1-.65c.29-.13.44-.48.67-.71s.33-.85,1-.64c0-.3.33-.37.43-.59.16-.39.61-.43.81-.76s.3.08.43.09.42.18.2-.25.11-.64.57-.54c.19.05.27,0,.23-.18s0-.44.32-.4c.09,0,.21,0,.19-.11-.16-.66.53-.55.71-.91,0-.09.16-.07.24,0s.3.14.28-.08c0-.41.24-.58.48-.73.81-.47,1.4-1.19,2.19-1.68,1.06-.66,1.92-1.56,2.95-2.26a11.87,11.87,0,0,0,1.54-1.47,2.69,2.69,0,0,1,1.34-.79,3.32,3.32,0,0,0,1.44-1,.66.66,0,0,1,.57-.2.86.86,0,0,1,.61.41c.14.25.2.55,0,.71a2.86,2.86,0,0,0-.69,1.12c-.16.39-.63.59-1,.87s-.6.45-.91.68c0,0-.1.06-.13.11a.29.29,0,0,0,0,.33c.1.1.16,0,.21-.06a13.48,13.48,0,0,1,2.37-1.56c.46-.29.95-.55,1.42-.82a.92.92,0,0,1,.29-.11.72.72,0,0,1,.86.36" fill="#231f20"/>
    <path d="M202.33,185.72a.54.54,0,0,1-.76-.13,4,4,0,0,1-.51-.93c0-.09-.06-.27-.18-.07-.25.46-.48.15-.72.26-.41.2-.28-.16-.37-.33s-.1-.35-.31-.36a.22.22,0,0,1-.23-.23c.06-.57-.48-.46-.81-.56a.8.8,0,0,1-.51-.38,16.73,16.73,0,0,0-1.67-2.22c-.4-.51-.88-.94-1.27-1.47-.14-.19-.06-.47-.22-.62l-.12-.15c-.38-.12-.83-.17-.75-.74-.45-.08-.25-.78-.75-.81a.26.26,0,0,1-.18-.12,5.62,5.62,0,0,0-1.34-1.49.3.3,0,0,1-.1-.38c-.38-.44-1-.62-1.22-1.23a2.08,2.08,0,0,0-.74-.89,5.21,5.21,0,0,1-.69-.79,2.5,2.5,0,0,0-.46-.46c-.37-.28-.85-.53-.95-1s-.19-.77-.7-.81a.17.17,0,0,1-.11-.23c.07-.15,0-.28-.1-.31-.61-.19-.76-.9-1.29-1.1-.7-.28-.84-1-1.37-1.42a4.06,4.06,0,0,1-1-.95,5,5,0,0,0-1.54-1.45,5.63,5.63,0,0,1-1.18-1.25.48.48,0,0,1-.17-.42h0v0c-.13,0-.3,0-.37-.15-.58-.86-1.65-1.26-2.12-2.21-.13-.26-.46-.24-.65-.43a12.68,12.68,0,0,0-2.43-2.19.94.94,0,0,1-.49-.78c0-.06,0-.15-.05-.13-.63.12-.75-.39-1-.66a39.43,39.43,0,0,0-3.45-3c-.68-.5-1.33-1-2-1.55a1.62,1.62,0,0,1-.4-.61c-.18-.42-.19-.41.37-.68h0a2.34,2.34,0,0,1-1.14-1.82.42.42,0,0,1,.13-.37,1.06,1.06,0,0,1,0-.19c.25-.58.34-.63.77-.43.08,0,.16.18.25,0s-.1-.1-.16-.15-.12-.37-.17-.55c-.11-.35-.39-.56-.47-.93,0-.17-.12-.35.11-.54s.52-.35.74-.16.48.23.46.59c0,0,.09.06.13.09h0c.32,0,.39.38.76.39.18,0,.25.06.44-.11.37-.33.65-.35.92-.09.78.76,1.56,1.51,2.33,2.29a4,4,0,0,1,.74,1c.12.23.45.27.65.44,1,.9,1.84,2,2.82,3s1.77,1.78,2.64,2.68c.51.52,1.14,1,1.63,1.5.93,1,2,1.9,2.86,3,.24.31.66.49.91.81a8.86,8.86,0,0,0,1.28,1.45,16.76,16.76,0,0,1,1.85,1.82c.52.61,1.14,1.11,1.66,1.71a9.39,9.39,0,0,0,1.29,1.14,2.33,2.33,0,0,1,.63.88c.12.26.46.38.69.58s.81.24.62.87c.28,0,.36.29.57.36.37.13.41.55.73.72s-.07.28-.08.42-.18.41.24.17.62.05.52.5c0,.18,0,.25.17.21s.43,0,.39.27c0,.09,0,.2.11.17.64-.2.53.47.88.61.08,0,.07.14,0,.23s-.13.29.07.26a.66.66,0,0,1,.72.4c.45.74,1.15,1.25,1.62,2,.64,1,1.51,1.72,2.2,2.65a10.63,10.63,0,0,0,1.41,1.35,2.24,2.24,0,0,1,.77,1.22c.12.58.58.9.94,1.3a.59.59,0,0,1,.2.53.88.88,0,0,1-.39.62c-.25.15-.53.24-.69.07a2.46,2.46,0,0,0-1.08-.58c-.38-.12-.58-.55-.84-.85s-.44-.55-.67-.82c0,0-.05-.1-.1-.12a.3.3,0,0,0-.32.07c-.1.1,0,.15.06.2a11.16,11.16,0,0,1,1.51,2.14c.28.42.54.86.8,1.29a1.09,1.09,0,0,1,.11.27.74.74,0,0,1-.34.85" fill="#231f20"/>
    <path d="M654.91,198.6h0s0,0,0,0" fill="#231f20"/>
    <path d="M645.6,199.11h0" fill="#231f20"/>
    <path d="M644.38,198.22v0" fill="#231f20"/>
    <path d="M644.21,195.53s0,0,0,0a.17.17,0,0,0,0,.09s0,0,0-.08" fill="#231f20"/>
    <path d="M698.42,253h0" fill="#a97c50"/>
    <path d="M690.09,211h0a.17.17,0,0,0,0-.09s0,0,0,.08" fill="#a97c50"/>
    <path d="M702.08,240.74h0" fill="#a97c50"/>
    <g>
      <path d="M742.94,186.17c0,.28-.19.54-.32.45s-.37-.08-.54-.28c0,0-.13-.14-.09.08.08.5-.12.45-.17.7-.07.44-.16.1-.26,0s-.17-.17-.25,0-.13.09-.17,0c-.2-.44-.35,0-.51.2s-.21.17-.33.1a5.07,5.07,0,0,0-1.45-.33c-.34-.07-.68,0-1-.1-.13,0-.2-.29-.32-.27l-.1,0c-.18.2-.37.49-.56,0-.19.27-.38-.36-.58,0,0,.05-.08.08-.11.06a1.53,1.53,0,0,0-1-.07c-.07,0-.14,0-.18-.19-.31,0-.61.31-.92,0s-.4-.12-.6-.09a1.34,1.34,0,0,1-.56-.05.66.66,0,0,0-.34,0c-.24.07-.51.24-.72,0s-.36-.4-.56-.06c0,0-.09.06-.12-.08s-.11-.2-.16-.14c-.29.31-.62-.08-.89.16s-.69-.09-1,0a1.19,1.19,0,0,1-.72,0,1.36,1.36,0,0,0-1.11.11,1.66,1.66,0,0,1-.91,0c-.08,0-.16,0-.22-.17h0v0c-.06.06-.13.18-.19.16-.54-.17-1.08.32-1.62,0-.14-.08-.25.16-.39.17a3.58,3.58,0,0,0-1.73.24c-.15.08-.32,0-.47-.2,0,0,0-.12-.07-.05-.18.54-.42.27-.63.3a11.07,11.07,0,0,0-2.4.41,10.58,10.58,0,0,1-1.31.35.5.5,0,0,1-.38-.14c-.22-.16-.22-.14-.12-.73h0c-.38.16-.76.1-1.11-.44a.61.61,0,0,1-.09-.35l-.06-.16c-.12-.58-.11-.68.12-.85,0,0,.13,0,.11-.15s-.07,0-.12,0-.18-.17-.26-.26-.36-.11-.53-.3a.5.5,0,0,1-.16-.46c0-.32,0-.62.21-.64s.26-.19.39.07c0,0,0,0,.08,0h0c.13-.2.29,0,.43-.27a.67.67,0,0,0,.12-.4c0-.49.1-.7.3-.72.57,0,1.14-.08,1.72-.09a1.17,1.17,0,0,1,.66.17c.13.07.27-.14.4-.16a17.43,17.43,0,0,1,2.17,0c.66,0,1.32,0,2-.05.39,0,.78-.16,1.17-.14a14.44,14.44,0,0,1,2.18,0c.21,0,.43-.14.64-.09a2.72,2.72,0,0,0,1,.08,4.23,4.23,0,0,1,1.37-.07c.42,0,.83-.07,1.25,0a2.82,2.82,0,0,0,.9-.14.72.72,0,0,1,.57.15c.14.1.31-.06.47-.09s.39-.42.56.15c.1-.19.24-.06.34-.16s.36.09.54,0,.09.25.13.35.1.41.16-.06.24-.4.37,0c.06.16.11.16.15,0s.15-.32.24-.09c0,.07.08.13.11,0,.15-.6.37-.06.55-.22s.08,0,.08.17c0,.31.07.3.13.12.12-.33.28-.28.41-.23.45.18.9,0,1.34.18.6.21,1.2.11,1.81.26a2.81,2.81,0,0,0,1-.09.76.76,0,0,1,.74.3c.27.31.56.2.84.22.1,0,.19,0,.27.22a1.61,1.61,0,0,1,.1.71c0,.28-.11.55-.23.55s-.41.17-.61.38-.42,0-.63,0-.37-.06-.56-.09c0,0-.06,0-.08,0a.32.32,0,0,0-.09.27c0,.14.06.1.09.1a3.3,3.3,0,0,1,1.37.39c.26.09.52.21.78.32a.33.33,0,0,1,.14.1,1,1,0,0,1,.2.85" fill="#231f20"/>
      <path d="M762,231.25c0,.29-.19.55-.33.46s-.37-.08-.54-.28-.12-.14-.09.08c.08.5-.12.45-.16.7-.08.43-.17.1-.26,0s-.17-.16-.26,0-.12.09-.16,0c-.2-.44-.36,0-.52.19s-.2.17-.33.11a4.75,4.75,0,0,0-1.45-.33c-.34-.07-.68,0-1-.1-.12,0-.2-.29-.32-.28l-.1,0c-.18.2-.37.48-.55,0-.2.28-.39-.36-.58,0,0,.05-.08.07-.12.05a1.58,1.58,0,0,0-1.05-.06c-.07,0-.14,0-.18-.19-.31,0-.61.3-.91,0s-.41-.11-.61-.08a1.45,1.45,0,0,1-.55-.05.83.83,0,0,0-.35,0c-.24.08-.51.25-.71,0s-.37-.4-.56-.06c0,0-.1.06-.13-.08s-.11-.2-.16-.14c-.29.31-.61-.08-.89.16s-.69-.1-1,0a1.11,1.11,0,0,1-.72.06,1.36,1.36,0,0,0-1.11.11c-.29.14-.6,0-.91,0a.23.23,0,0,1-.22-.17h0l0,0c-.06.06-.13.19-.19.17-.54-.18-1.08.31-1.61,0-.15-.09-.26.16-.4.17a3.65,3.65,0,0,0-1.72.23c-.16.09-.33,0-.48-.19,0,0,0-.13-.07-.05-.18.54-.42.27-.63.3a11.17,11.17,0,0,0-2.4.41,10.58,10.58,0,0,1-1.31.35.52.52,0,0,1-.37-.14c-.23-.16-.23-.14-.13-.73h0c-.39.16-.76.1-1.11-.44a.63.63,0,0,1-.1-.35c0-.06,0-.1,0-.16-.13-.59-.12-.68.12-.86,0,0,.12,0,.11-.14s-.08,0-.12,0-.18-.17-.27-.25-.36-.11-.53-.31a.49.49,0,0,1-.16-.45c0-.33.06-.62.21-.65s.26-.18.39.08c0,0,0,0,.08,0h0c.13-.2.29,0,.43-.28a.56.56,0,0,0,.12-.39c0-.5.11-.71.3-.72.57,0,1.15-.08,1.72-.1a1.33,1.33,0,0,1,.67.18c.12.07.26-.14.4-.16a17.31,17.31,0,0,1,2.16,0c.66,0,1.32,0,2-.06.39,0,.78-.15,1.17-.13a14.42,14.42,0,0,1,2.18,0c.21,0,.43-.14.64-.1a2.36,2.36,0,0,0,1,.08,4.53,4.53,0,0,1,1.37-.07c.42,0,.84-.06,1.25,0a2.88,2.88,0,0,0,.91-.14.67.67,0,0,1,.56.15c.15.09.32-.07.47-.09s.39-.42.56.15c.11-.2.24-.06.34-.16s.37.09.55,0,.08.25.13.35.09.41.15-.06.24-.4.38,0c.05.16.1.17.14,0s.15-.32.24-.09c0,.07.09.13.11,0,.16-.6.37-.06.55-.21s.08,0,.08.17c0,.31.07.3.13.12.12-.33.28-.28.42-.23.44.18.89,0,1.33.18a16.06,16.06,0,0,0,1.81.25,2.77,2.77,0,0,0,1-.08.75.75,0,0,1,.74.3c.27.31.56.2.84.22.1,0,.2,0,.27.22a1.44,1.44,0,0,1,.1.71c0,.28-.11.55-.23.54s-.41.18-.61.39-.42,0-.63,0-.37-.06-.55-.09-.06,0-.09,0a.36.36,0,0,0-.09.27c0,.14.06.1.1.1a3.44,3.44,0,0,1,1.36.38c.26.09.52.22.78.33a.44.44,0,0,1,.15.1,1.06,1.06,0,0,1,.2.84" fill="#231f20"/>
      <path d="M691.93,182.67c0,.28-.19.55-.32.46s-.37-.09-.54-.28-.13-.15-.09.08c.08.5-.12.44-.17.7-.07.43-.16.09-.26,0s-.17-.16-.25,0-.13.1-.17,0c-.2-.43-.35,0-.51.2s-.21.17-.33.1a4.73,4.73,0,0,0-1.45-.32c-.34-.07-.68,0-1-.11-.13,0-.21-.28-.32-.27l-.1,0c-.19.19-.37.48-.56,0-.19.28-.38-.36-.58,0,0,.05-.08.07-.11.05a1.52,1.52,0,0,0-1-.06c-.07,0-.14,0-.19-.19-.3,0-.6.3-.91,0s-.4-.12-.61-.08a1.74,1.74,0,0,1-.55-.05.78.78,0,0,0-.34,0c-.24.08-.51.24-.72,0s-.36-.39-.56-.05c0,0-.09.06-.13-.08s-.1-.2-.15-.15c-.3.31-.62-.07-.89.17s-.69-.1-1,0a1.11,1.11,0,0,1-.72,0,1.43,1.43,0,0,0-1.12.11c-.29.15-.6,0-.9,0a.24.24,0,0,1-.23-.17h0s0,0,0,0-.13.18-.19.16c-.54-.17-1.08.32-1.62,0-.14-.09-.25.16-.39.16a3.7,3.7,0,0,0-1.73.24c-.15.08-.32.05-.47-.19,0,0,0-.13-.07,0-.18.53-.42.27-.63.29a12.3,12.3,0,0,0-2.4.41,13.51,13.51,0,0,1-1.31.36.55.55,0,0,1-.38-.14c-.22-.17-.22-.15-.12-.73h0a.84.84,0,0,1-1.11-.44.65.65,0,0,1-.09-.36,1.38,1.38,0,0,1-.06-.16c-.13-.58-.11-.67.12-.85,0,0,.13,0,.11-.14s-.08,0-.12,0-.18-.17-.27-.26-.35-.11-.52-.3a.48.48,0,0,1-.16-.45c0-.33,0-.63.2-.65s.27-.19.4.08c0,0,0,0,.08,0h0c.13-.2.29,0,.43-.28a.65.65,0,0,0,.12-.4c0-.49.1-.7.3-.71.57,0,1.14-.09,1.72-.1a1.18,1.18,0,0,1,.66.18c.13.07.26-.14.4-.16a19.64,19.64,0,0,1,2.17,0c.66,0,1.32,0,2-.05.39,0,.78-.15,1.16-.13a13.35,13.35,0,0,1,2.19,0c.21.05.43-.13.64-.09a2.36,2.36,0,0,0,1,.08,4.5,4.5,0,0,1,1.37-.07c.41,0,.83-.06,1.25,0a3.11,3.11,0,0,0,.9-.13.68.68,0,0,1,.57.14c.14.1.31-.06.47-.09s.39-.42.56.15c.1-.19.24,0,.34-.15s.36.08.54,0,.08.25.13.35.09.41.16-.06.24-.41.37,0c.06.16.11.17.15,0s.15-.32.24-.09c0,.07.08.13.11,0,.15-.6.37-.06.55-.22s.08.06.08.17c0,.32.06.3.13.13.12-.34.27-.29.41-.23.45.18.9,0,1.34.18.6.21,1.2.1,1.81.25a3,3,0,0,0,1-.08.75.75,0,0,1,.74.29c.26.32.56.2.84.22.1,0,.19,0,.27.22a1.64,1.64,0,0,1,.09.72c0,.27-.1.54-.22.54s-.41.18-.61.38-.42,0-.64,0l-.55-.08s-.06,0-.08,0a.33.33,0,0,0-.09.28c0,.14.06.1.09.09a3.45,3.45,0,0,1,1.37.39c.26.09.52.21.78.33a.33.33,0,0,1,.14.1,1,1,0,0,1,.2.84" fill="#231f20"/>
      <path d="M706.1,198.45c0,.28-.19.54-.33.46s-.37-.09-.54-.29c0,0-.13-.14-.09.08.08.51-.12.45-.17.7-.07.44-.16.1-.26,0s-.16-.16-.25,0-.12.09-.17,0c-.19-.43-.35,0-.51.2s-.21.17-.33.1a4.73,4.73,0,0,0-1.45-.32c-.34-.07-.68,0-1-.11-.13,0-.2-.29-.32-.27l-.1,0c-.18.19-.37.48-.56,0-.19.27-.38-.36-.58,0,0,.05-.07.07-.11.05a1.53,1.53,0,0,0-1-.07c-.07,0-.14,0-.18-.19-.31,0-.61.31-.91,0s-.41-.12-.61-.08a1.77,1.77,0,0,1-.56-.05.57.57,0,0,0-.34,0c-.24.07-.51.24-.71,0s-.37-.39-.56-.05c0,0-.1.06-.13-.08s-.11-.2-.16-.15c-.29.31-.62-.07-.89.17s-.69-.1-1,0a1.11,1.11,0,0,1-.72,0,1.4,1.4,0,0,0-1.11.11c-.3.15-.61,0-.91,0a.23.23,0,0,1-.22-.17h0l0,0c-.06.06-.13.18-.19.16-.54-.17-1.08.32-1.62,0-.14-.08-.25.17-.39.17a3.58,3.58,0,0,0-1.73.24c-.15.08-.32.05-.47-.19,0,0,0-.13-.07-.05-.18.53-.42.27-.63.29a12.56,12.56,0,0,0-2.4.41,10.58,10.58,0,0,1-1.31.35.5.5,0,0,1-.38-.13c-.22-.17-.22-.15-.12-.74h0c-.38.16-.76.11-1.1-.43a.57.57,0,0,1-.1-.36.6.6,0,0,1,0-.16c-.13-.58-.12-.68.11-.85,0,0,.13,0,.12-.14s-.08,0-.13,0-.18-.17-.26-.26-.36-.11-.53-.3a.51.51,0,0,1-.16-.46c0-.32.06-.62.21-.64s.26-.19.39.07c0,0,0,0,.08,0h0c.13-.19.29,0,.43-.27a.59.59,0,0,0,.12-.4c0-.49.11-.7.3-.71.57,0,1.15-.09,1.72-.1a1.25,1.25,0,0,1,.66.17c.13.08.27-.13.4-.16a19.6,19.6,0,0,1,2.17,0c.66,0,1.32,0,2-.05.39,0,.78-.15,1.17-.14a14.42,14.42,0,0,1,2.18,0c.21.05.43-.13.64-.09a2.72,2.72,0,0,0,1,.08,4.23,4.23,0,0,1,1.37-.07c.42,0,.83-.06,1.25,0a3.11,3.11,0,0,0,.9-.13.68.68,0,0,1,.57.14c.15.1.31-.06.47-.09s.39-.42.56.15c.11-.19.24,0,.34-.15s.36.08.54,0,.09.25.13.34.1.42.16,0,.24-.41.38,0c.05.16.1.17.14,0s.15-.32.24-.09c0,.07.08.13.11,0,.16-.6.37-.06.55-.22s.08.06.08.17c0,.32.07.3.13.13.12-.34.28-.29.41-.23.45.17.9,0,1.34.18.6.2,1.21.1,1.81.25a3,3,0,0,0,1-.08.75.75,0,0,1,.74.29c.27.31.56.2.84.22.1,0,.2,0,.27.22a1.48,1.48,0,0,1,.1.71c0,.28-.11.55-.23.55s-.41.17-.61.38-.42,0-.63,0l-.55-.08s-.07,0-.09,0a.37.37,0,0,0-.09.28c0,.14.06.1.1.09a3.3,3.3,0,0,1,1.36.39c.26.09.52.21.78.33a.33.33,0,0,1,.14.1,1.05,1.05,0,0,1,.21.84" fill="#231f20"/>
      <path d="M739.29,198.45c0,.28-.19.54-.33.46s-.37-.09-.54-.29c0,0-.12-.14-.09.08.08.51-.12.45-.16.7-.07.44-.17.1-.26,0s-.17-.16-.25,0-.13.09-.17,0c-.2-.43-.35,0-.51.2s-.21.17-.33.1a4.73,4.73,0,0,0-1.46-.32c-.34-.07-.68,0-1-.11-.12,0-.2-.29-.32-.27l-.1,0c-.18.19-.36.48-.55,0-.19.27-.38-.36-.58,0,0,.05-.08.07-.11.05a1.56,1.56,0,0,0-1.06-.07c-.06,0-.13,0-.18-.19-.3,0-.61.31-.91,0s-.41-.12-.61-.08a1.71,1.71,0,0,1-.55-.05.6.6,0,0,0-.35,0c-.23.07-.51.24-.71,0s-.36-.39-.56-.05c0,0-.09.06-.13-.08s-.1-.2-.15-.15c-.3.31-.62-.07-.89.17s-.7-.1-1,0a1.14,1.14,0,0,1-.73,0,1.41,1.41,0,0,0-1.11.11c-.29.15-.6,0-.9,0a.24.24,0,0,1-.23-.17h0a0,0,0,0,1,0,0c-.07.06-.13.18-.2.16-.53-.17-1.07.32-1.61,0-.15-.08-.26.17-.4.17a3.55,3.55,0,0,0-1.72.24c-.15.08-.33.05-.47-.19,0,0,0-.13-.07-.05-.19.53-.42.27-.64.29a12.56,12.56,0,0,0-2.4.41,10.13,10.13,0,0,1-1.31.35.47.47,0,0,1-.37-.13c-.23-.17-.23-.15-.13-.74h0c-.39.16-.76.11-1.11-.43a.65.65,0,0,1-.09-.36.59.59,0,0,1-.06-.16c-.13-.58-.12-.68.12-.85,0,0,.12,0,.11-.14s-.08,0-.12,0-.18-.17-.27-.26-.35-.11-.52-.3a.51.51,0,0,1-.17-.46c0-.32.06-.62.21-.64s.27-.19.39.07c0,0,.06,0,.09,0h0c.13-.19.29,0,.43-.27a.6.6,0,0,0,.11-.4c0-.49.11-.7.31-.71.57,0,1.14-.09,1.71-.1a1.26,1.26,0,0,1,.67.17c.13.08.26-.13.4-.16a19.46,19.46,0,0,1,2.16,0c.67,0,1.33,0,2-.05.38,0,.78-.15,1.16-.14a14.56,14.56,0,0,1,2.19,0c.2.05.42-.13.64-.09a2.68,2.68,0,0,0,1,.08,4.23,4.23,0,0,1,1.37-.07c.42,0,.84-.06,1.26,0a3.11,3.11,0,0,0,.9-.13.69.69,0,0,1,.57.14c.14.1.31-.06.47-.09s.39-.42.55.15c.11-.19.24,0,.35-.15s.36.08.54,0,.08.25.13.34.09.42.15,0,.25-.41.38,0c.06.16.1.17.14,0s.15-.32.25-.09c0,.07.08.13.1,0,.16-.6.38-.06.56-.22s.07.06.08.17c0,.32.06.3.13.13.12-.34.27-.29.41-.23.44.17.89,0,1.34.18s1.2.1,1.8.25a3,3,0,0,0,1-.08.76.76,0,0,1,.75.29c.26.31.55.2.84.22.1,0,.19,0,.27.22a1.62,1.62,0,0,1,.09.71c0,.28-.1.55-.23.55s-.4.17-.61.38-.42,0-.63,0l-.55-.08s-.06,0-.09,0a.42.42,0,0,0-.09.28c0,.14.07.1.1.09a3.38,3.38,0,0,1,1.37.39c.26.09.52.21.78.33a.41.41,0,0,1,.14.1,1.06,1.06,0,0,1,.2.84" fill="#231f20"/>
      <path d="M671.8,198.45c0,.28-.19.54-.33.46s-.37-.09-.54-.29c0,0-.12-.14-.09.08.08.51-.12.45-.16.7-.08.44-.17.1-.26,0s-.17-.16-.26,0-.12.09-.16,0c-.2-.43-.36,0-.52.2s-.2.17-.33.1a4.67,4.67,0,0,0-1.45-.32c-.34-.07-.68,0-1-.11-.12,0-.2-.29-.32-.27l-.1,0c-.18.19-.36.48-.55,0-.2.27-.39-.36-.58,0,0,.05-.08.07-.12.05a1.53,1.53,0,0,0-1-.07c-.07,0-.14,0-.18-.19-.31,0-.61.31-.91,0s-.41-.12-.61-.08a1.69,1.69,0,0,1-.55-.05.6.6,0,0,0-.35,0c-.24.07-.51.24-.71,0s-.36-.39-.56-.05c0,0-.1.06-.13-.08s-.11-.2-.16-.15c-.29.31-.61-.07-.89.17s-.69-.1-1,0a1.11,1.11,0,0,1-.72,0,1.4,1.4,0,0,0-1.11.11c-.29.15-.6,0-.91,0a.23.23,0,0,1-.22-.17h0l0,0c-.06.06-.13.18-.19.16-.54-.17-1.08.32-1.61,0-.15-.08-.26.17-.4.17a3.54,3.54,0,0,0-1.72.24c-.16.08-.33.05-.48-.19,0,0,0-.13-.07-.05-.18.53-.42.27-.63.29a12.56,12.56,0,0,0-2.4.41,10.13,10.13,0,0,1-1.31.35.47.47,0,0,1-.37-.13c-.23-.17-.23-.15-.13-.74h0c-.39.16-.76.11-1.11-.43a.58.58,0,0,1-.09-.36.59.59,0,0,1-.06-.16c-.13-.58-.12-.68.12-.85,0,0,.12,0,.11-.14s-.08,0-.12,0-.18-.17-.27-.26-.36-.11-.53-.3a.51.51,0,0,1-.16-.46c0-.32.06-.62.21-.64s.26-.19.39.07c0,0,0,0,.08,0h0c.13-.19.3,0,.43-.27a.59.59,0,0,0,.12-.4c0-.49.11-.7.3-.71.57,0,1.15-.09,1.72-.1a1.31,1.31,0,0,1,.67.17c.12.08.26-.13.4-.16a19.46,19.46,0,0,1,2.16,0c.66,0,1.32,0,2-.05.39,0,.78-.15,1.17-.14a14.42,14.42,0,0,1,2.18,0c.21.05.43-.13.64-.09a2.72,2.72,0,0,0,1,.08,4.23,4.23,0,0,1,1.37-.07c.42,0,.84-.06,1.25,0a3.18,3.18,0,0,0,.91-.13.67.67,0,0,1,.56.14c.15.1.32-.06.47-.09s.39-.42.56.15c.11-.19.24,0,.34-.15s.37.08.55,0,.08.25.13.34.09.42.15,0,.24-.41.38,0c0,.16.1.17.14,0s.15-.32.24-.09c0,.07.09.13.11,0,.16-.6.37-.06.55-.22s.08.06.08.17c0,.32.07.3.13.13.12-.34.28-.29.42-.23.44.17.89,0,1.33.18.6.2,1.21.1,1.81.25a3,3,0,0,0,1-.08.74.74,0,0,1,.74.29c.27.31.56.2.84.22.1,0,.2,0,.27.22a1.48,1.48,0,0,1,.1.71c0,.28-.11.55-.23.55s-.41.17-.61.38-.42,0-.63,0l-.55-.08s-.06,0-.09,0a.37.37,0,0,0-.09.28c0,.14.06.1.1.09a3.3,3.3,0,0,1,1.36.39c.26.09.52.21.78.33a.44.44,0,0,1,.15.1,1.06,1.06,0,0,1,.2.84" fill="#231f20"/>
      <path d="M681.54,253.17c0-.28.19-.55.32-.46s.37.08.54.28c0,0,.13.14.09-.08-.08-.5.12-.45.17-.7.07-.43.16-.1.26,0s.17.16.25,0,.12-.1.17,0c.2.44.35,0,.51-.19s.21-.17.33-.11a4.75,4.75,0,0,0,1.45.33c.34.07.68,0,1,.11.13,0,.2.28.32.27l.1,0c.18-.2.37-.48.56,0,.19-.28.38.36.58,0,0-.05.08-.07.11-.05a1.58,1.58,0,0,0,1,.06c.07,0,.14,0,.18.19.31,0,.61-.3.91,0s.41.11.61.08a1.77,1.77,0,0,1,.56,0,.79.79,0,0,0,.34,0c.24-.08.51-.25.72,0s.36.4.55.06c0,0,.1-.06.13.08s.11.2.16.14c.29-.3.62.08.89-.16s.69.1,1,0a1.05,1.05,0,0,1,.72-.05,1.41,1.41,0,0,0,1.11-.12,1.66,1.66,0,0,1,.91,0c.08,0,.16,0,.22.17h0s0,0,0,0,.13-.18.19-.16c.54.17,1.08-.32,1.62,0,.14.09.25-.16.39-.17a3.57,3.57,0,0,0,1.73-.23c.15-.08.32-.05.47.19,0,0,0,.13.07,0,.18-.54.42-.27.63-.3a11.17,11.17,0,0,0,2.4-.41,10.58,10.58,0,0,1,1.31-.35.56.56,0,0,1,.38.14c.22.16.22.14.12.73h0c.38-.16.76-.1,1.1.44a.56.56,0,0,1,.1.35,1,1,0,0,1,0,.16c.13.59.12.68-.11.86,0,0-.13,0-.12.14s.08,0,.13,0,.18.17.26.25.36.11.53.31a.47.47,0,0,1,.16.45c0,.33-.05.62-.21.65s-.26.19-.39-.08c0,0,0,0-.08,0h0c-.13.2-.29,0-.43.28a.58.58,0,0,0-.12.39c0,.5-.1.71-.3.72-.57,0-1.15.08-1.72.1a1.27,1.27,0,0,1-.66-.18c-.13-.07-.27.14-.4.16a19.61,19.61,0,0,1-2.17,0c-.66,0-1.32,0-2,0-.39,0-.78.15-1.17.13a13.24,13.24,0,0,1-2.18,0c-.21,0-.43.14-.64.1a2.36,2.36,0,0,0-1-.08,4.53,4.53,0,0,1-1.37.07c-.42,0-.83.06-1.25,0a2.55,2.55,0,0,0-.9.13.72.72,0,0,1-.57-.15c-.14-.09-.31.07-.47.1s-.39.42-.56-.16c-.11.2-.24.06-.34.16s-.36-.08-.54,0-.09-.25-.13-.35-.1-.41-.16.06-.24.41-.38,0c-.05-.16-.1-.17-.14,0s-.15.32-.24.09c0-.07-.08-.13-.11,0-.16.6-.37.06-.55.21s-.08,0-.08-.16c0-.32-.07-.31-.13-.13s-.28.28-.41.23c-.45-.18-.9,0-1.34-.18-.6-.21-1.2-.1-1.81-.25a2.8,2.8,0,0,0-1,.08.76.76,0,0,1-.74-.3c-.27-.31-.56-.2-.84-.22-.1,0-.2,0-.27-.22a1.44,1.44,0,0,1-.1-.71c0-.28.11-.55.23-.54s.41-.18.61-.39.42,0,.63,0a5.39,5.39,0,0,1,.56.08s.06,0,.08,0a.34.34,0,0,0,.09-.27c0-.14-.06-.1-.1-.1a3.44,3.44,0,0,1-1.36-.38c-.26-.09-.52-.22-.78-.33a.33.33,0,0,1-.14-.1,1,1,0,0,1-.2-.84" fill="#a97c50"/>
      <path d="M662.5,208.08c0-.28.19-.54.33-.46s.37.09.54.28.12.15.09-.08c-.08-.5.12-.44.16-.7.08-.43.17-.09.26,0s.17.16.26,0,.12-.1.16,0c.2.43.36,0,.52-.2s.2-.17.33-.1a4.67,4.67,0,0,0,1.45.32c.34.07.68,0,1,.11.12,0,.2.29.32.27l.1,0c.18-.19.36-.48.55,0,.2-.28.39.36.59,0a.08.08,0,0,1,.11-.05,1.52,1.52,0,0,0,1.05.06c.07,0,.14,0,.18.2.31,0,.61-.31.91,0s.41.12.61.08a1.69,1.69,0,0,1,.55.05.69.69,0,0,0,.35,0c.24-.07.51-.24.71,0s.36.39.56.05c0,0,.1-.06.13.08s.11.2.16.15c.29-.31.61.07.89-.17s.69.1,1,0a1.11,1.11,0,0,1,.72,0,1.4,1.4,0,0,0,1.11-.11c.29-.15.6,0,.91,0a.23.23,0,0,1,.22.17h0l0,0c.06-.06.13-.18.19-.16.54.17,1.08-.32,1.61,0,.15.08.26-.17.4-.17a3.55,3.55,0,0,0,1.72-.24c.16-.08.33-.05.48.19,0,0,0,.13.06,0,.19-.53.43-.27.64-.29a12.56,12.56,0,0,0,2.4-.41,10.13,10.13,0,0,1,1.31-.35.47.47,0,0,1,.37.13c.23.17.23.15.13.74h0c.39-.16.76-.11,1.11.43a.58.58,0,0,1,.09.36.59.59,0,0,1,.06.16c.13.58.12.68-.12.85,0,0-.12,0-.11.14s.08,0,.12,0,.18.17.27.26.36.11.53.3a.5.5,0,0,1,.16.45c0,.33-.06.63-.21.65s-.26.19-.39-.07c0,0-.05,0-.08,0h0c-.13.2-.3,0-.43.28a.59.59,0,0,0-.12.4c0,.49-.11.7-.3.71-.57,0-1.15.09-1.72.1a1.31,1.31,0,0,1-.67-.17c-.12-.08-.26.13-.4.16-.72.11-1.44-.08-2.16,0s-1.32,0-2,.05c-.39,0-.78.15-1.17.13a13.22,13.22,0,0,1-2.18,0c-.21-.05-.43.13-.64.09a2.53,2.53,0,0,0-1-.08,4.23,4.23,0,0,1-1.37.07c-.42,0-.84.06-1.25,0a3.18,3.18,0,0,0-.91.13.67.67,0,0,1-.56-.14c-.15-.1-.32.06-.47.09s-.39.42-.56-.15c-.11.19-.24,0-.34.15s-.37-.08-.55,0-.08-.25-.13-.34-.09-.42-.15,0-.25.41-.38,0c0-.16-.1-.17-.14,0s-.15.32-.25.09c0-.07-.08-.13-.1,0-.16.6-.37.06-.55.22s-.08-.06-.09-.17c0-.32-.06-.3-.12-.13-.12.34-.28.29-.42.23-.44-.18-.89,0-1.33-.18-.6-.21-1.21-.1-1.81-.25a3,3,0,0,0-1,.08.74.74,0,0,1-.74-.29c-.27-.31-.56-.2-.84-.22-.1,0-.2,0-.27-.22a1.5,1.5,0,0,1-.1-.72c0-.27.11-.54.23-.54s.41-.18.61-.38.42,0,.63,0l.55.08s.06,0,.09,0a.37.37,0,0,0,.09-.28c0-.14-.06-.1-.1-.09a3.46,3.46,0,0,1-1.36-.39c-.26-.09-.53-.21-.79-.33a.53.53,0,0,1-.14-.1,1.06,1.06,0,0,1-.2-.84" fill="#a97c50"/>
      <path d="M732.55,256.66c0-.28.19-.54.32-.45s.37.08.54.28c0,0,.13.14.09-.08-.08-.5.12-.45.17-.7.07-.44.16-.1.26,0s.17.16.25,0,.13-.09.17,0c.2.43.35,0,.51-.2s.21-.17.33-.1a5.07,5.07,0,0,0,1.45.33c.34.06.68,0,1,.1.13,0,.21.29.32.27l.1,0c.19-.19.37-.48.56,0,.19-.27.38.36.58,0,0-.06.08-.08.11-.06a1.53,1.53,0,0,0,1,.07c.07,0,.14,0,.19.19.3,0,.6-.31.91,0s.4.12.6.08a1.53,1.53,0,0,1,.56.06.66.66,0,0,0,.34,0c.24-.07.51-.24.72,0s.36.4.56.06c0,0,.09-.07.12.08s.11.19.16.14c.3-.31.62.07.89-.17s.69.1,1,0a1.19,1.19,0,0,1,.72-.05,1.4,1.4,0,0,0,1.11-.11c.3-.15.61,0,.91,0a.24.24,0,0,1,.23.18h0v0c.06-.06.13-.18.19-.16.54.17,1.08-.32,1.62,0,.14.08.25-.17.39-.17a3.58,3.58,0,0,0,1.73-.24c.15-.08.32,0,.47.19,0,0,0,.13.07.05.18-.53.42-.26.63-.29a11.71,11.71,0,0,0,2.4-.41,11.07,11.07,0,0,1,1.31-.35.5.5,0,0,1,.38.14c.22.16.22.14.12.73h0c.38-.16.76-.1,1.11.44a.61.61,0,0,1,.09.35l.06.16c.12.58.11.68-.12.85,0,0-.13,0-.11.15s.07,0,.12,0,.18.17.27.26.35.11.52.3a.5.5,0,0,1,.16.46c0,.32-.05.62-.2.64s-.27.19-.4-.07c0,0,0,0-.08,0h0c-.13.2-.29,0-.43.27a.67.67,0,0,0-.12.4c0,.49-.1.7-.3.72-.57,0-1.14.08-1.72.09a1.25,1.25,0,0,1-.66-.17c-.13-.08-.27.13-.4.16a17.43,17.43,0,0,1-2.17,0c-.66,0-1.32,0-2,.05-.39,0-.78.16-1.17.14a14.44,14.44,0,0,1-2.18,0c-.21,0-.43.13-.64.09a2.72,2.72,0,0,0-1-.08,4.22,4.22,0,0,1-1.37.07c-.42,0-.83.07-1.25,0a2.82,2.82,0,0,0-.9.14.72.72,0,0,1-.57-.15c-.14-.1-.31.06-.47.09s-.39.42-.56-.15c-.1.19-.24.06-.34.16s-.36-.09-.54,0-.08-.25-.13-.34-.09-.41-.16.05-.24.41-.37,0c-.06-.16-.11-.17-.15,0s-.15.32-.24.09c0-.07-.08-.13-.11,0-.15.6-.37.06-.55.22s-.08,0-.08-.17c0-.32-.07-.3-.13-.13-.12.34-.28.29-.41.24-.45-.18-.9,0-1.34-.18-.6-.21-1.2-.11-1.81-.26a3,3,0,0,0-1,.08.73.73,0,0,1-.74-.29c-.26-.31-.56-.2-.84-.22-.1,0-.19,0-.27-.22a1.48,1.48,0,0,1-.09-.71c0-.28.1-.55.22-.55s.41-.17.61-.38.42,0,.64,0l.55.08s.06,0,.08,0a.32.32,0,0,0,.09-.27c0-.15-.06-.1-.09-.1a3.3,3.3,0,0,1-1.37-.39c-.26-.09-.52-.21-.78-.32a.71.71,0,0,1-.14-.1,1,1,0,0,1-.2-.85" fill="#726658"/>
      <path d="M718.38,240.88c0-.28.19-.54.33-.45s.37.08.54.28c0,0,.13.14.09-.08-.08-.5.12-.45.16-.7.08-.44.17-.1.26,0s.18.17.26,0,.12-.09.17,0c.19.44.35,0,.51-.2s.2-.17.33-.1a5.07,5.07,0,0,0,1.45.33c.34.07.68,0,1,.1.13,0,.2.29.32.27l.1,0c.18-.2.37-.49.55,0,.2-.28.39.35.59,0,0-.05.07-.08.11-.06a1.53,1.53,0,0,0,1.05.07c.07,0,.14,0,.18.19.31,0,.61-.31.91,0s.41.12.61.09a1.28,1.28,0,0,1,.55,0,.7.7,0,0,0,.35,0c.24-.07.51-.24.71,0s.37.4.56.06c0,0,.1-.07.13.08s.11.2.16.14c.29-.31.62.08.89-.17s.69.1,1,0a1.12,1.12,0,0,1,.72-.06,1.36,1.36,0,0,0,1.11-.11,1.66,1.66,0,0,1,.91,0c.08,0,.16,0,.22.17h0l0,0c.06-.06.13-.18.19-.16.54.17,1.08-.32,1.62,0,.14.08.25-.16.39-.17a3.54,3.54,0,0,0,1.72-.24c.16-.08.33,0,.48.2,0,0,0,.12.07,0,.18-.54.42-.27.63-.3a11.17,11.17,0,0,0,2.4-.41,10.58,10.58,0,0,1,1.31-.35.52.52,0,0,1,.38.14c.22.16.22.14.12.73h0c.39-.16.77-.1,1.11.44a.61.61,0,0,1,.1.35.75.75,0,0,1,.05.16c.13.58.12.68-.11.85,0,0-.13,0-.12.15s.08,0,.12,0,.18.16.27.25.36.11.53.3a.52.52,0,0,1,.16.46c0,.32-.06.62-.21.64s-.26.19-.39-.07c0,0-.05,0-.08,0h0c-.13.2-.29,0-.43.27a.61.61,0,0,0-.12.4c0,.49-.11.7-.3.72-.57,0-1.15.08-1.72.1a1.27,1.27,0,0,1-.66-.18c-.13-.07-.27.14-.4.16a17.43,17.43,0,0,1-2.17,0c-.66,0-1.32,0-2,.05-.39,0-.78.16-1.17.14a14.42,14.42,0,0,1-2.18,0c-.21,0-.43.14-.64.09a2.72,2.72,0,0,0-1-.08,4.54,4.54,0,0,1-1.37.08c-.42,0-.83.06-1.25,0a2.92,2.92,0,0,0-.91.14.71.71,0,0,1-.56-.15c-.15-.1-.31.06-.47.09s-.39.42-.56-.15c-.11.2-.24.06-.34.16s-.37-.09-.54,0-.09-.25-.13-.35-.1-.41-.16.06-.24.4-.38,0c0-.16-.1-.16-.14,0s-.15.32-.24.1-.08-.13-.11,0c-.16.6-.37.06-.55.22s-.08-.05-.08-.17c0-.31-.07-.3-.13-.12s-.28.28-.42.23c-.44-.18-.89,0-1.33-.18-.6-.21-1.21-.11-1.81-.26a2.79,2.79,0,0,0-1,.09.76.76,0,0,1-.74-.3c-.27-.31-.56-.2-.84-.22-.1,0-.2,0-.27-.22a1.48,1.48,0,0,1-.1-.71c0-.28.11-.55.23-.54s.41-.18.61-.39.42,0,.63,0,.37.06.55.09.06,0,.09,0a.36.36,0,0,0,.09-.27c0-.14-.06-.1-.1-.1a3.3,3.3,0,0,1-1.36-.39c-.26-.09-.52-.21-.78-.32a.33.33,0,0,1-.14-.1,1.06,1.06,0,0,1-.21-.85" fill="#c2b59b"/>
      <path d="M685.19,240.88c0-.28.19-.54.33-.45s.36.08.54.28c0,0,.12.14.09-.08-.08-.5.12-.45.16-.7.07-.44.17-.1.26,0s.17.17.25,0,.13-.09.17,0c.2.44.35,0,.51-.2s.21-.17.33-.1a5.06,5.06,0,0,0,1.46.33c.34.07.68,0,1,.1.12,0,.2.29.31.27l.11,0c.18-.2.36-.49.55,0,.19-.28.38.35.58,0,0-.05.08-.08.11-.06a1.55,1.55,0,0,0,1.06.07c.06,0,.13,0,.18.19.3,0,.6-.31.91,0s.41.12.61.09a1.29,1.29,0,0,1,.55,0,.7.7,0,0,0,.35,0c.23-.07.51-.24.71,0s.36.4.56.06c0,0,.09-.07.13.08s.1.2.15.14c.3-.31.62.08.89-.17s.7.1,1,0a1.15,1.15,0,0,1,.73-.06,1.37,1.37,0,0,0,1.11-.11c.29-.14.6,0,.9,0,.08,0,.16,0,.23.17h0s0,0,0,0,.13-.18.2-.16c.53.17,1.07-.32,1.61,0,.15.08.26-.16.4-.17a3.55,3.55,0,0,0,1.72-.24c.15-.08.33,0,.47.2,0,0,0,.12.07,0,.19-.54.42-.27.64-.3a11.17,11.17,0,0,0,2.4-.41,10.44,10.44,0,0,1,1.3-.35.49.49,0,0,1,.38.14c.23.16.23.14.12.73h0c.39-.16.76-.1,1.11.44a.61.61,0,0,1,.09.35.76.76,0,0,1,.06.16c.13.58.12.68-.12.85,0,0-.13,0-.11.15s.08,0,.12,0,.18.16.27.25.35.11.52.3a.52.52,0,0,1,.17.46c0,.32-.06.62-.21.64s-.27.19-.39-.07c0,0-.06,0-.09,0h0c-.13.2-.29,0-.43.27a.62.62,0,0,0-.11.4c0,.49-.11.7-.31.72-.57,0-1.14.08-1.71.1a1.28,1.28,0,0,1-.67-.18c-.13-.07-.26.14-.4.16a17.31,17.31,0,0,1-2.16,0c-.67,0-1.33,0-2,.05-.38,0-.78.16-1.16.14a14.56,14.56,0,0,1-2.19,0c-.2,0-.42.14-.64.09a2.72,2.72,0,0,0-1-.08,4.45,4.45,0,0,1-1.36.08c-.42,0-.84.06-1.26,0a2.82,2.82,0,0,0-.9.14.73.73,0,0,1-.57-.15c-.14-.1-.31.06-.47.09s-.39.42-.55-.15c-.11.2-.25.06-.35.16s-.36-.09-.54,0-.08-.25-.13-.35-.09-.41-.15.06-.25.4-.38,0c-.06-.16-.1-.16-.14,0s-.15.32-.25.1-.08-.13-.1,0c-.16.6-.38.06-.56.22s-.08-.05-.08-.17c0-.31-.06-.3-.13-.12s-.27.28-.41.23c-.44-.18-.89,0-1.34-.18-.6-.21-1.2-.11-1.8-.26a2.78,2.78,0,0,0-1,.09.77.77,0,0,1-.75-.3c-.26-.31-.56-.2-.84-.22-.1,0-.19,0-.27-.22a1.62,1.62,0,0,1-.09-.71c0-.28.1-.55.23-.54s.4-.18.61-.39.42,0,.63,0l.55.09s.06,0,.09,0a.36.36,0,0,0,.08-.27c0-.14-.06-.1-.09-.1a3.38,3.38,0,0,1-1.37-.39c-.26-.09-.52-.21-.78-.32a.33.33,0,0,1-.14-.1,1.07,1.07,0,0,1-.2-.85" fill="#a97c50"/>
      <path d="M752.68,240.88c0-.28.19-.54.33-.45s.37.08.54.28c0,0,.12.14.09-.08-.08-.5.12-.45.16-.7.08-.44.17-.1.26,0s.17.17.26,0,.12-.09.16,0c.2.44.36,0,.52-.2s.2-.17.33-.1a5,5,0,0,0,1.45.33c.34.07.68,0,1,.1.12,0,.2.29.32.27l.1,0c.18-.2.36-.49.55,0,.2-.28.39.35.58,0,0-.05.08-.08.12-.06a1.53,1.53,0,0,0,1,.07c.07,0,.14,0,.18.19.31,0,.61-.31.91,0s.41.12.61.09a1.28,1.28,0,0,1,.55,0,.7.7,0,0,0,.35,0c.24-.07.51-.24.71,0s.36.4.56.06c0,0,.1-.07.13.08s.11.2.16.14c.29-.31.61.08.89-.17s.69.1,1,0a1.15,1.15,0,0,1,.73-.06,1.36,1.36,0,0,0,1.11-.11c.29-.14.6,0,.91,0,.08,0,.16,0,.22.17h0l0,0c.06-.06.13-.18.19-.16.54.17,1.08-.32,1.61,0,.15.08.26-.16.4-.17a3.55,3.55,0,0,0,1.72-.24c.16-.08.33,0,.48.2,0,0,0,.12.06,0,.19-.54.43-.27.64-.3a11.17,11.17,0,0,0,2.4-.41,10.13,10.13,0,0,1,1.31-.35.48.48,0,0,1,.37.14c.23.16.23.14.13.73h0c.39-.16.76-.1,1.11.44a.54.54,0,0,1,.09.35.76.76,0,0,1,.06.16c.13.58.12.68-.12.85,0,0-.12,0-.11.15s.08,0,.12,0,.18.16.27.25.36.11.53.3a.52.52,0,0,1,.16.46c0,.32-.06.62-.21.64s-.26.19-.39-.07c0,0,0,0-.08,0h0c-.13.2-.3,0-.43.27a.61.61,0,0,0-.12.4c0,.49-.11.7-.3.72-.57,0-1.15.08-1.72.1a1.33,1.33,0,0,1-.67-.18c-.12-.07-.26.14-.4.16a17.31,17.31,0,0,1-2.16,0c-.66,0-1.32,0-2,.05-.39,0-.78.16-1.17.14a14.41,14.41,0,0,1-2.18,0c-.21,0-.43.14-.64.09a2.72,2.72,0,0,0-1-.08,4.54,4.54,0,0,1-1.37.08c-.42,0-.84.06-1.25,0a2.88,2.88,0,0,0-.91.14.71.71,0,0,1-.56-.15c-.15-.1-.32.06-.47.09s-.39.42-.56-.15c-.11.2-.24.06-.35.16s-.36-.09-.54,0-.08-.25-.13-.35-.09-.41-.15.06-.25.4-.38,0c-.05-.16-.1-.16-.14,0s-.15.32-.25.1-.08-.13-.1,0c-.16.6-.37.06-.55.22s-.08-.05-.09-.17c0-.31-.06-.3-.12-.12s-.28.28-.42.23c-.44-.18-.89,0-1.33-.18-.6-.21-1.21-.11-1.81-.26a2.78,2.78,0,0,0-1,.09.75.75,0,0,1-.74-.3c-.27-.31-.56-.2-.84-.22-.1,0-.2,0-.27-.22a1.48,1.48,0,0,1-.1-.71c0-.28.11-.55.23-.54s.41-.18.61-.39.42,0,.63,0,.37.06.55.09c0,0,.06,0,.09,0a.36.36,0,0,0,.09-.27c0-.14-.06-.1-.1-.1a3.3,3.3,0,0,1-1.36-.39c-.27-.09-.53-.21-.79-.32a.53.53,0,0,1-.14-.1,1.07,1.07,0,0,1-.2-.85" fill="#a97c50"/>
    </g>
    <path d="M529.21,112.18a3.68,3.68,0,0,1-.59-7.32l.47-.07a3.71,3.71,0,0,1,4.27,3,3.64,3.64,0,0,1-3,4.21l-.56.09a4,4,0,0,1-.59.05" fill="#759ab1"/>
    <path d="M295.8,110.1a.58.58,0,0,1-.21.78,5.19,5.19,0,0,1-1,.53c-.09,0-.28.06-.08.18.45.26.11.5.21.74.17.43-.19.3-.38.39s-.37.1-.41.32-.13.25-.25.23c-.6,0-.53.51-.66.85a.89.89,0,0,1-.45.52,19,19,0,0,0-2.45,1.73c-.57.41-1.07.91-1.65,1.31-.21.14-.5.06-.67.23l-.17.11c-.15.4-.25.86-.84.78-.11.47-.83.25-.91.77a.29.29,0,0,1-.14.2,6.51,6.51,0,0,0-1.67,1.38.34.34,0,0,1-.4.1c-.49.39-.73,1-1.39,1.26a2.34,2.34,0,0,0-1,.76,6,6,0,0,1-.89.71,3.48,3.48,0,0,0-.53.48c-.32.38-.62.88-1.09,1s-.82.2-.9.72a.19.19,0,0,1-.25.11.25.25,0,0,0-.34.11c-.25.63-1,.78-1.26,1.33-.35.73-1.14.86-1.6,1.42a4.77,4.77,0,0,1-1.08,1,5.65,5.65,0,0,0-1.64,1.59,6.88,6.88,0,0,1-1.41,1.22.58.58,0,0,1-.46.18h-.05c-.06.14-.08.32-.19.38-.95.61-1.46,1.71-2.49,2.2-.28.13-.29.47-.5.67a14.54,14.54,0,0,0-2.51,2.51,1.08,1.08,0,0,1-.85.5c-.07,0-.15,0-.14.06.06.65-.48.77-.79,1.08a44.48,44.48,0,0,0-3.43,3.57c-.58.7-1.18,1.38-1.79,2a1.81,1.81,0,0,1-.67.4c-.46.19-.45.2-.68-.38h0a2.72,2.72,0,0,1-2,1.18.43.43,0,0,1-.38-.15.65.65,0,0,1-.19,0c-.59-.26-.63-.35-.38-.8,0-.08.2-.16.08-.26s-.12.11-.18.18-.39.11-.58.17c-.38.11-.63.4-1,.48-.19,0-.38.12-.56-.12s-.32-.54-.1-.76.28-.5.65-.48c0,0,.07-.09.1-.14h0c.07-.32.44-.4.48-.78,0-.18.08-.26-.08-.46-.31-.39-.3-.67,0-.95.86-.81,1.72-1.62,2.59-2.41a5.14,5.14,0,0,1,1.15-.77c.24-.12.31-.46.51-.66,1-1.07,2.27-1.91,3.37-2.91s2-1.83,3-2.74c.6-.53,1.11-1.17,1.71-1.68,1.15-1,2.17-2.07,3.39-3,.35-.25.57-.68.92-.94a10.45,10.45,0,0,0,1.63-1.32,18.5,18.5,0,0,1,2.06-1.91c.68-.54,1.25-1.18,1.93-1.72a11.77,11.77,0,0,0,1.31-1.33,2.94,2.94,0,0,1,1-.66c.29-.12.45-.47.67-.7s.33-.85,1-.64c0-.3.34-.37.43-.59.17-.39.61-.43.82-.76s.29.08.43.09.41.18.2-.25.11-.64.56-.54q.29.08.24-.18c-.07-.3,0-.44.31-.4.1,0,.21,0,.19-.11-.15-.67.54-.55.71-.91,0-.09.16-.07.24,0,.22.23.3.14.28-.08a.74.74,0,0,1,.49-.73c.8-.47,1.4-1.2,2.18-1.68,1.06-.66,1.93-1.56,3-2.26a13.3,13.3,0,0,0,1.54-1.47,2.6,2.6,0,0,1,1.34-.79,3.44,3.44,0,0,0,1.44-1,.63.63,0,0,1,.56-.2.83.83,0,0,1,.62.41c.13.25.2.55,0,.71a2.67,2.67,0,0,0-.68,1.12c-.16.39-.63.59-1,.86s-.61.46-.91.69c-.05,0-.11.06-.14.11a.29.29,0,0,0,0,.33c.09.1.16,0,.21-.06a13.4,13.4,0,0,1,2.36-1.56c.47-.29.95-.55,1.43-.82a.86.86,0,0,1,.28-.11.72.72,0,0,1,.87.36" fill="#231f20"/>
    <path d="M288.74,146.91a.54.54,0,0,1-.76-.13,4.91,4.91,0,0,1-.51-.93c0-.09-.06-.27-.17-.07-.26.46-.48.14-.72.26-.41.2-.29-.16-.37-.33s-.11-.35-.32-.36a.21.21,0,0,1-.22-.23c.05-.57-.49-.46-.82-.57a.76.76,0,0,1-.51-.38,15.63,15.63,0,0,0-1.67-2.21c-.4-.51-.88-.94-1.26-1.47-.15-.19-.06-.48-.23-.62l-.11-.16c-.39-.11-.83-.16-.75-.73-.46-.08-.25-.78-.75-.81a.26.26,0,0,1-.19-.12,5.45,5.45,0,0,0-1.34-1.49.33.33,0,0,1-.1-.38c-.38-.44-1-.62-1.21-1.23a2.08,2.08,0,0,0-.74-.89,5.27,5.27,0,0,1-.7-.79,2.23,2.23,0,0,0-.46-.46c-.37-.28-.85-.54-.95-1s-.19-.77-.69-.81a.16.16,0,0,1-.11-.23c.06-.16,0-.28-.11-.31-.6-.19-.75-.9-1.28-1.11-.7-.27-.84-1-1.38-1.41a4.06,4.06,0,0,1-1-1,4.76,4.76,0,0,0-1.54-1.45,5.85,5.85,0,0,1-1.18-1.25.48.48,0,0,1-.17-.42h0v0c-.12,0-.3-.06-.36-.15-.59-.86-1.65-1.26-2.13-2.21-.13-.26-.45-.24-.64-.43a12.45,12.45,0,0,0-2.44-2.19.93.93,0,0,1-.48-.78c0-.06,0-.15-.06-.13-.62.12-.75-.39-1-.67a40.83,40.83,0,0,0-3.45-3q-1-.75-2-1.56a1.56,1.56,0,0,1-.39-.6c-.18-.42-.2-.41.36-.68h0a2.34,2.34,0,0,1-1.14-1.82.4.4,0,0,1,.14-.37.58.58,0,0,1,0-.19c.25-.59.33-.63.77-.43.08,0,.15.18.25,0s-.11-.11-.17-.16-.12-.36-.17-.54c-.1-.35-.39-.56-.47-.93,0-.17-.12-.35.11-.54s.53-.35.74-.16.49.23.46.59c0,0,.09.06.14.09h0c.31,0,.39.39.76.4.17,0,.24.06.44-.12.37-.32.65-.34.91-.08.79.76,1.57,1.51,2.33,2.29a4.07,4.07,0,0,1,.75,1c.11.22.44.26.64.44,1,.9,1.85,2,2.82,3s1.77,1.78,2.65,2.67c.51.53,1.13,1,1.62,1.51.94,1,2,1.9,2.86,3,.24.31.66.49.91.81a8.86,8.86,0,0,0,1.28,1.45,15.15,15.15,0,0,1,1.85,1.82c.53.61,1.15,1.1,1.66,1.71a10.73,10.73,0,0,0,1.29,1.14,2.32,2.32,0,0,1,.64.87c.12.27.45.39.68.59s.82.24.62.86c.29,0,.36.3.57.37.38.13.42.55.73.72s-.07.28-.08.42-.17.41.25.17.61,0,.51.5q-.06.27.18.21c.29-.09.42,0,.38.27,0,.09,0,.2.11.17.64-.2.54.47.89.61.08,0,.06.14,0,.22s-.13.3.08.27a.65.65,0,0,1,.71.4c.46.73,1.16,1.25,1.63,2,.64,1,1.5,1.72,2.19,2.64a10.1,10.1,0,0,0,1.41,1.36,2.24,2.24,0,0,1,.77,1.22c.12.58.59.9.94,1.3a.56.56,0,0,1,.2.53.9.9,0,0,1-.39.62c-.24.15-.53.23-.69.06a2.44,2.44,0,0,0-1.08-.57c-.38-.12-.57-.55-.84-.86l-.66-.81s-.06-.1-.11-.12a.29.29,0,0,0-.32.07c-.09.1,0,.15.06.2a11.13,11.13,0,0,1,1.52,2.13c.28.43.53.87.79,1.3a.85.85,0,0,1,.11.26.74.74,0,0,1-.34.86" fill="#231f20"/>
    <path d="M87.1,313.73h0" fill="#231f20"/>
    <path d="M68.06,268.64h0" fill="#231f20"/>
    <path d="M138.11,317.22h0" fill="#231f20"/>
    <path d="M124,301.44h0" fill="#231f20"/>
    <path d="M90.75,301.44h0s0,0,0,0" fill="#231f20"/>
    <path d="M158.24,301.44h0" fill="#231f20"/>
    <path d="M82.27,288.19h0" fill="#726658"/>
    <g>
      <path d="M70.21,313.87c0-.28.19-.54.33-.45s.36.08.54.28c0,0,.12.14.08-.08-.08-.5.13-.45.17-.7.07-.44.16-.1.26,0s.17.17.25,0,.13-.09.17,0c.2.44.35,0,.51-.2s.21-.17.33-.1a5.07,5.07,0,0,0,1.45.33c.34.07.69,0,1,.1.12,0,.2.29.31.27l.1,0c.19-.2.37-.49.56,0,.19-.28.38.35.58,0a.11.11,0,0,1,.11-.06,1.55,1.55,0,0,0,1.06.07c.06,0,.13,0,.18.19.3,0,.6-.31.91,0s.41.12.61.09a1.29,1.29,0,0,1,.55.05.7.7,0,0,0,.35,0c.23-.07.51-.24.71,0s.36.4.56.06c0,0,.09-.06.13.08s.1.2.15.14c.3-.31.62.08.89-.16s.69.09,1,0a1.12,1.12,0,0,1,.72-.06,1.38,1.38,0,0,0,1.12-.11c.29-.14.6,0,.9,0,.08,0,.16,0,.23.17h0v0c.07-.06.13-.18.19-.16.54.17,1.08-.32,1.62,0,.14.08.26-.16.4-.17a3.55,3.55,0,0,0,1.72-.24c.15-.08.33,0,.47.2,0,0,0,.12.07.05.18-.54.42-.27.64-.3a11,11,0,0,0,2.39-.41,11.07,11.07,0,0,1,1.31-.35.49.49,0,0,1,.38.14c.22.16.23.14.12.73h0c.39-.16.76-.1,1.11.44a.61.61,0,0,1,.09.35l.06.16c.13.58.11.68-.12.85,0,0-.13,0-.11.15s.08,0,.12,0,.18.16.27.25.35.11.52.3a.5.5,0,0,1,.16.46c0,.32,0,.62-.2.64s-.27.19-.39-.07c0,0-.06,0-.09,0h0c-.13.2-.29,0-.43.27a.62.62,0,0,0-.11.4c0,.49-.11.7-.31.72-.57,0-1.14.08-1.71.1a1.28,1.28,0,0,1-.67-.18c-.13-.07-.26.14-.4.16a17.5,17.5,0,0,1-2.17,0c-.66,0-1.32,0-2,.05-.39,0-.78.16-1.16.14a14.56,14.56,0,0,1-2.19,0c-.2,0-.43.14-.64.09a2.72,2.72,0,0,0-1-.08,4.45,4.45,0,0,1-1.36.08c-.42-.05-.84.06-1.26,0a2.82,2.82,0,0,0-.9.14.72.72,0,0,1-.57-.15c-.14-.1-.31.06-.47.09s-.39.42-.55-.15c-.11.2-.25.06-.35.16s-.36-.09-.54,0-.08-.25-.13-.35-.09-.41-.15.06-.25.4-.38,0c-.06-.16-.1-.16-.15,0s-.14.32-.24.1-.08-.13-.1-.05c-.16.6-.38.06-.56.22s-.08-.05-.08-.17c0-.31-.06-.3-.13-.12s-.27.28-.41.23c-.45-.18-.89,0-1.34-.18s-1.2-.11-1.8-.26a2.85,2.85,0,0,0-1,.09.76.76,0,0,1-.74-.3c-.26-.31-.56-.2-.84-.22-.1,0-.19,0-.27-.22a1.62,1.62,0,0,1-.09-.71c0-.28.1-.55.23-.54s.4-.18.61-.39.42,0,.63,0l.55.09s.06,0,.08,0a.32.32,0,0,0,.09-.27c0-.14-.06-.1-.09-.1a3.38,3.38,0,0,1-1.37-.39c-.26-.09-.52-.21-.78-.32a.33.33,0,0,1-.14-.1,1,1,0,0,1-.2-.85" fill="#231f20"/>
      <path d="M51.18,268.79c0-.29.19-.55.32-.46s.37.08.54.28.13.14.09-.08c-.08-.5.12-.45.17-.7.07-.43.16-.1.26,0s.17.16.25,0,.13-.1.17,0c.2.44.35,0,.51-.19s.21-.17.33-.11a4.75,4.75,0,0,0,1.45.33c.34.07.68,0,1,.11.13,0,.2.28.32.27l.1,0c.18-.2.37-.48.56,0,.19-.28.38.36.58,0,0-.05.08-.07.11-.05a1.58,1.58,0,0,0,1,.06c.07,0,.14,0,.18.19.31,0,.61-.3.92,0a.6.6,0,0,0,.6.08,1.52,1.52,0,0,1,.56.05.79.79,0,0,0,.34,0c.24-.08.51-.25.72,0s.36.4.56.06c0,0,.09-.06.12.08s.11.2.16.14c.29-.3.62.08.89-.16s.69.1,1,0a1.05,1.05,0,0,1,.72-.05,1.41,1.41,0,0,0,1.11-.12,1.66,1.66,0,0,1,.91,0c.08,0,.16,0,.22.17h0s0,0,0,0,.13-.18.19-.17c.54.18,1.08-.31,1.62,0,.14.09.25-.16.39-.17a3.57,3.57,0,0,0,1.73-.23c.15-.08.32-.05.47.19,0,0,0,.13.07.05.18-.54.42-.27.63-.3a11.07,11.07,0,0,0,2.4-.41,10.58,10.58,0,0,1,1.31-.35.55.55,0,0,1,.38.14c.22.16.22.14.12.73h0c.38-.16.76-.1,1.11.44a.64.64,0,0,1,.09.35l.06.16c.12.59.11.68-.12.86,0,0-.13,0-.12.14s.08,0,.13,0,.18.17.26.25.36.11.53.31a.47.47,0,0,1,.16.45c0,.33,0,.62-.21.65s-.26.18-.39-.08c0,0,0,0-.08,0h0c-.13.2-.29,0-.43.28a.64.64,0,0,0-.12.39c0,.5-.1.71-.3.72-.57,0-1.14.08-1.72.1a1.27,1.27,0,0,1-.66-.18c-.13-.07-.27.14-.4.16a19.61,19.61,0,0,1-2.17,0c-.66,0-1.32,0-2,0-.39,0-.78.15-1.17.13a14.44,14.44,0,0,1-2.18,0c-.21,0-.43.14-.64.1a2.36,2.36,0,0,0-1-.08,4.53,4.53,0,0,1-1.37.07c-.42,0-.83.06-1.25,0a2.55,2.55,0,0,0-.9.13.69.69,0,0,1-.57-.15c-.14-.09-.31.07-.47.09s-.39.42-.56-.15c-.1.2-.24.06-.34.16s-.36-.08-.54,0-.08-.25-.13-.35-.09-.41-.16.06-.24.4-.38,0c-.05-.16-.1-.17-.14,0s-.15.32-.24.09c0-.07-.08-.13-.11,0-.15.6-.37.06-.55.21s-.08,0-.08-.16c0-.32-.07-.31-.13-.13s-.28.28-.41.23c-.45-.18-.9,0-1.34-.18a15.75,15.75,0,0,0-1.81-.25,2.8,2.8,0,0,0-1,.08.76.76,0,0,1-.74-.3c-.27-.31-.56-.2-.84-.22-.1,0-.19,0-.27-.22a1.57,1.57,0,0,1-.1-.71c0-.28.11-.55.23-.54s.41-.18.61-.39.42,0,.63,0a5.39,5.39,0,0,1,.56.08s.06,0,.08,0a.31.31,0,0,0,.09-.27c0-.14-.06-.1-.1-.1a3.44,3.44,0,0,1-1.36-.38c-.26-.09-.52-.22-.78-.33a.33.33,0,0,1-.14-.1,1,1,0,0,1-.2-.84" fill="#231f20"/>
      <path d="M121.22,317.37c0-.28.19-.54.33-.46s.37.09.54.28.12.15.09-.08c-.08-.5.12-.44.16-.7.07-.43.17-.09.26,0s.17.16.25,0,.13-.1.17,0c.2.43.35,0,.51-.2s.21-.17.33-.11a4.48,4.48,0,0,0,1.46.33c.34.07.68,0,1,.11.12,0,.2.29.32.27l.1,0c.18-.19.36-.48.55,0,.19-.28.38.36.58,0,0-.05.08-.07.11-.05a1.56,1.56,0,0,0,1.06.06c.06,0,.13,0,.18.2.3,0,.6-.31.91,0a.62.62,0,0,0,.61.08,1.71,1.71,0,0,1,.55.05.83.83,0,0,0,.35,0c.23-.07.51-.24.71,0s.36.39.56,0c0,0,.09-.06.13.08s.1.2.15.15c.3-.31.62.07.89-.17s.7.1,1,0a1.14,1.14,0,0,1,.73-.05A1.41,1.41,0,0,0,137,317c.29-.15.6,0,.9,0a.24.24,0,0,1,.23.17h0s0,0,0,0,.13-.18.2-.16c.53.17,1.07-.32,1.61,0,.15.08.26-.17.4-.17a3.68,3.68,0,0,0,1.72-.24c.15-.08.33-.05.47.19,0,0,0,.13.07.05.19-.53.42-.27.64-.29a12.56,12.56,0,0,0,2.4-.41,10.13,10.13,0,0,1,1.31-.35.47.47,0,0,1,.37.13c.23.17.23.15.12.73v0c.39-.16.76-.11,1.11.43a.65.65,0,0,1,.09.36.59.59,0,0,1,.06.16c.13.58.12.68-.12.85,0,0-.13,0-.11.14s.08,0,.12,0,.18.17.27.26.35.11.52.3a.5.5,0,0,1,.17.45c0,.33-.06.63-.21.65s-.27.19-.39-.07c0,0-.06,0-.09,0h0c-.13.2-.29,0-.43.28a.6.6,0,0,0-.11.4c0,.49-.11.7-.31.71-.57.05-1.14.09-1.71.1a1.26,1.26,0,0,1-.67-.17c-.13-.08-.26.13-.4.15a19.46,19.46,0,0,1-2.16,0c-.67,0-1.33,0-2,.05-.38,0-.78.15-1.16.13a14.55,14.55,0,0,1-2.19,0c-.2-.05-.42.13-.64.09a2.33,2.33,0,0,0-1-.08,4.23,4.23,0,0,1-1.37.07c-.42,0-.84.06-1.26,0a3.11,3.11,0,0,0-.9.13A.69.69,0,0,1,132,322c-.14-.1-.31.06-.47.09s-.39.42-.55-.15c-.11.19-.24.05-.35.15s-.36-.08-.54,0-.08-.25-.13-.35-.09-.41-.15.06-.25.41-.38,0c-.06-.16-.1-.17-.14,0s-.15.32-.25.09c0-.07-.08-.13-.1,0-.16.6-.38.06-.56.22s-.07-.06-.08-.17c0-.32-.06-.3-.13-.13-.12.34-.27.29-.41.23-.44-.18-.89,0-1.34-.18s-1.2-.1-1.8-.25a3,3,0,0,0-1,.08.76.76,0,0,1-.75-.29c-.26-.31-.55-.2-.84-.22-.1,0-.19,0-.27-.22a1.64,1.64,0,0,1-.09-.72c0-.28.1-.54.23-.54s.4-.18.61-.38.42,0,.63,0l.55.08s.06,0,.09,0a.44.44,0,0,0,.09-.28c0-.14-.07-.1-.1-.09a3.55,3.55,0,0,1-1.37-.39c-.26-.09-.52-.21-.78-.33a.33.33,0,0,1-.14-.1,1.06,1.06,0,0,1-.2-.84" fill="#231f20"/>
      <path d="M107.06,301.59c0-.28.19-.54.32-.46s.37.09.54.29c0,0,.13.14.09-.08-.08-.51.12-.45.17-.7.07-.44.16-.1.26,0s.17.16.25,0,.13-.09.17,0c.2.43.35,0,.51-.2s.21-.17.33-.1a5.07,5.07,0,0,0,1.45.33c.34.06.68,0,1,.1.12,0,.2.29.31.27l.1,0c.19-.19.37-.48.56,0,.19-.27.38.36.58,0,0,0,.08-.07.11,0a1.53,1.53,0,0,0,1,.07c.07,0,.14,0,.19.19.3,0,.6-.31.91,0s.4.12.61.08a1.71,1.71,0,0,1,.55,0,.56.56,0,0,0,.34,0c.24-.07.51-.24.72,0s.36.39.56.05c0,0,.09-.06.13.08s.1.2.15.15c.3-.31.62.07.89-.17s.69.1,1,0a1.12,1.12,0,0,1,.72-.05,1.43,1.43,0,0,0,1.12-.11c.29-.15.6,0,.9,0a.24.24,0,0,1,.23.17h0v0c.07-.06.13-.18.19-.16.54.17,1.08-.32,1.62,0,.14.08.25-.17.4-.17a3.55,3.55,0,0,0,1.72-.24c.15-.08.32-.05.47.19,0,0,0,.13.07,0,.18-.53.42-.27.64-.29a12.33,12.33,0,0,0,2.39-.41,11.07,11.07,0,0,1,1.31-.35.47.47,0,0,1,.38.14c.22.16.22.14.12.73h0c.38-.16.76-.11,1.11.43a.68.68,0,0,1,.09.36l.06.16c.13.58.11.68-.12.85,0,0-.13,0-.11.14s.08,0,.12,0,.18.17.27.26.35.11.52.3a.5.5,0,0,1,.16.46c0,.32-.05.62-.2.64s-.27.19-.4-.07c0,0-.05,0-.08,0h0c-.13.19-.29,0-.43.27a.65.65,0,0,0-.12.4c0,.49-.1.7-.3.72-.57,0-1.14.08-1.71.09a1.26,1.26,0,0,1-.67-.17c-.13-.08-.26.13-.4.16a17.5,17.5,0,0,1-2.17,0c-.66,0-1.32,0-2,.05-.39,0-.78.15-1.16.14a14.56,14.56,0,0,1-2.19,0c-.21-.05-.43.13-.64.09a2.72,2.72,0,0,0-1-.08,4.2,4.2,0,0,1-1.37.07c-.41,0-.83.06-1.25,0a3.11,3.11,0,0,0-.9.13.68.68,0,0,1-.57-.14c-.14-.1-.31.06-.47.09s-.39.42-.56-.15c-.1.19-.24,0-.34.15s-.36-.08-.54,0-.08-.25-.13-.34-.09-.41-.15.05-.25.41-.38,0c-.06-.16-.11-.17-.15,0s-.14.32-.24.09c0-.07-.08-.13-.1,0-.16.6-.38.06-.56.22s-.08-.06-.08-.17c0-.32-.06-.3-.13-.13-.12.34-.27.29-.41.23-.45-.17-.9,0-1.34-.18-.6-.2-1.2-.1-1.81-.25a3,3,0,0,0-1,.08.75.75,0,0,1-.74-.29c-.26-.31-.56-.2-.84-.22-.1,0-.19,0-.27-.22a1.62,1.62,0,0,1-.09-.71c0-.28.1-.55.22-.55s.41-.17.61-.38.42,0,.64,0l.55.08s.06,0,.08,0a.33.33,0,0,0,.09-.28c0-.14-.06-.1-.09-.09a3.3,3.3,0,0,1-1.37-.39c-.26-.09-.52-.21-.78-.33a.33.33,0,0,1-.14-.1,1,1,0,0,1-.2-.84" fill="#231f20"/>
      <path d="M73.86,301.59c0-.28.19-.54.33-.46s.37.09.54.29c0,0,.12.14.09-.08-.08-.51.12-.45.16-.7.08-.44.17-.1.26,0s.17.16.26,0,.12-.09.16,0c.2.43.36,0,.52-.2s.2-.17.33-.1a5,5,0,0,0,1.45.33c.34.06.68,0,1,.1.12,0,.2.29.32.27l.1,0c.18-.19.36-.48.55,0,.2-.27.39.36.59,0a.08.08,0,0,1,.11,0,1.53,1.53,0,0,0,1,.07c.07,0,.14,0,.18.19.31,0,.61-.31.91,0s.41.12.61.08a1.69,1.69,0,0,1,.55,0,.6.6,0,0,0,.35,0c.24-.07.51-.24.71,0s.36.39.56.05c0,0,.1-.06.13.08s.11.2.16.15c.29-.31.61.07.89-.17s.69.1,1,0a1.14,1.14,0,0,1,.73-.05,1.4,1.4,0,0,0,1.11-.11c.29-.15.6,0,.91,0a.23.23,0,0,1,.22.17h0l0,0c.06-.06.13-.18.19-.16.54.17,1.08-.32,1.61,0,.15.08.26-.17.4-.17a3.55,3.55,0,0,0,1.72-.24c.16-.08.33-.05.48.19,0,0,0,.13.06,0,.19-.53.43-.27.64-.29a12.56,12.56,0,0,0,2.4-.41,10.13,10.13,0,0,1,1.31-.35.45.45,0,0,1,.37.14c.23.16.23.14.13.73h0c.39-.16.76-.11,1.11.43a.6.6,0,0,1,.09.36.76.76,0,0,1,.06.16c.13.58.12.68-.12.85,0,0-.12,0-.11.14s.08,0,.12,0,.18.17.27.26.36.11.53.3a.52.52,0,0,1,.16.46c0,.32-.06.62-.21.64s-.26.19-.39-.07c0,0,0,0-.08,0h0c-.13.19-.3,0-.43.27a.59.59,0,0,0-.12.4c0,.49-.11.7-.3.72-.57,0-1.15.08-1.72.09a1.31,1.31,0,0,1-.67-.17c-.12-.08-.26.13-.4.16a17.31,17.31,0,0,1-2.16,0c-.66,0-1.32,0-2,.05-.39,0-.78.15-1.17.14a14.41,14.41,0,0,1-2.18,0c-.21-.05-.43.13-.64.09a2.72,2.72,0,0,0-1-.08,4.23,4.23,0,0,1-1.37.07c-.42,0-.84.06-1.25,0a3.18,3.18,0,0,0-.91.13.67.67,0,0,1-.56-.14c-.15-.1-.32.06-.47.09s-.39.42-.56-.15c-.11.19-.24,0-.34.15s-.37-.08-.55,0-.08-.25-.13-.34-.09-.41-.15.05-.25.41-.38,0c-.05-.16-.1-.17-.14,0s-.15.32-.25.09c0-.07-.08-.13-.1,0-.16.6-.37.06-.55.22s-.08-.06-.09-.17c0-.32-.06-.3-.12-.13-.12.34-.28.29-.42.23-.44-.17-.89,0-1.33-.18-.6-.2-1.21-.1-1.81-.25a3,3,0,0,0-1,.08.74.74,0,0,1-.74-.29c-.27-.31-.56-.2-.84-.22-.1,0-.2,0-.27-.22a1.48,1.48,0,0,1-.1-.71c0-.28.11-.55.23-.55s.41-.17.61-.38.42,0,.63,0l.55.08s.06,0,.09,0a.37.37,0,0,0,.09-.28c0-.14-.06-.1-.1-.09a3.3,3.3,0,0,1-1.36-.39,7.75,7.75,0,0,1-.79-.33.53.53,0,0,1-.14-.1,1,1,0,0,1-.2-.84" fill="#231f20"/>
      <path d="M141.36,301.59c0-.28.19-.54.32-.46s.37.09.54.29c0,0,.13.14.09-.08-.08-.51.12-.45.17-.7.07-.44.16-.1.26,0s.17.16.25,0,.13-.09.17,0c.2.43.35,0,.51-.2s.21-.17.33-.1a5.07,5.07,0,0,0,1.45.33c.34.06.68,0,1,.1.13,0,.2.29.32.27l.1,0c.18-.19.37-.48.56,0,.19-.27.38.36.58,0,0,0,.08-.07.11,0a1.53,1.53,0,0,0,1.05.07c.07,0,.14,0,.18.19.31,0,.61-.31.92,0s.4.12.6.08a1.77,1.77,0,0,1,.56,0,.57.57,0,0,0,.34,0c.24-.07.51-.24.72,0s.36.39.56.05c0,0,.09-.06.12.08s.11.2.16.15c.29-.31.62.07.89-.17s.69.1,1,0a1.11,1.11,0,0,1,.72-.05,1.4,1.4,0,0,0,1.11-.11c.3-.15.61,0,.91,0a.23.23,0,0,1,.22.17h0v0c.06-.06.13-.18.19-.16.54.17,1.08-.32,1.62,0,.14.08.25-.17.39-.17a3.58,3.58,0,0,0,1.73-.24c.15-.08.32-.05.47.19,0,0,0,.13.07,0,.18-.53.42-.27.63-.29a12.43,12.43,0,0,0,2.4-.41,10.58,10.58,0,0,1,1.31-.35.47.47,0,0,1,.38.14c.22.16.22.14.12.73h0c.38-.16.76-.11,1.11.43a.68.68,0,0,1,.09.36l.06.16c.12.58.11.68-.12.85-.05,0-.13,0-.12.14s.08,0,.13,0,.18.17.26.26.36.11.53.3a.5.5,0,0,1,.16.46c0,.32,0,.62-.21.64s-.26.19-.39-.07c0,0,0,0-.08,0h0c-.13.19-.29,0-.43.27a.65.65,0,0,0-.12.4c0,.49-.1.7-.3.72-.57,0-1.14.08-1.72.09a1.25,1.25,0,0,1-.66-.17c-.13-.08-.27.13-.4.16a17.43,17.43,0,0,1-2.17,0c-.66,0-1.32,0-2,.05-.39,0-.78.15-1.17.14a14.44,14.44,0,0,1-2.18,0c-.21-.05-.43.13-.64.09a2.72,2.72,0,0,0-1-.08,4.23,4.23,0,0,1-1.37.07c-.42,0-.83.06-1.25,0a3.11,3.11,0,0,0-.9.13.68.68,0,0,1-.57-.14c-.14-.1-.31.06-.47.09s-.39.42-.56-.15c-.1.19-.24,0-.34.15s-.36-.08-.54,0-.09-.25-.13-.34-.1-.41-.16.05-.24.41-.38,0c-.05-.16-.1-.17-.14,0s-.15.32-.24.09c0-.07-.08-.13-.11,0-.15.6-.37.06-.55.22s-.08-.06-.08-.17c0-.32-.07-.3-.13-.13-.12.34-.28.29-.41.23-.45-.17-.9,0-1.34-.18-.6-.2-1.2-.1-1.81-.25a3,3,0,0,0-1,.08.75.75,0,0,1-.74-.29c-.27-.31-.56-.2-.84-.22-.1,0-.19,0-.27-.22a1.61,1.61,0,0,1-.1-.71c0-.28.11-.55.23-.55s.41-.17.61-.38.42,0,.63,0l.56.08s.06,0,.08,0a.33.33,0,0,0,.09-.28c0-.14-.06-.1-.1-.09a3.3,3.3,0,0,1-1.36-.39c-.26-.09-.52-.21-.78-.33a.33.33,0,0,1-.14-.1,1,1,0,0,1-.2-.84" fill="#231f20"/>
      <path d="M99.16,288c0,.28-.19.55-.33.46s-.37-.08-.54-.28-.13-.14-.09.08c.08.5-.12.44-.16.7-.08.43-.17.09-.26,0s-.18-.16-.26,0-.12.1-.17,0c-.19-.44-.35,0-.51.19s-.21.17-.33.11a4.75,4.75,0,0,0-1.45-.33c-.34-.07-.68,0-1-.11-.13,0-.2-.28-.32-.27l-.1,0c-.18.2-.37.48-.56,0-.19.28-.38-.36-.58,0,0,0-.07.07-.11,0a1.52,1.52,0,0,0-1.05-.06c-.07,0-.14,0-.18-.19-.31,0-.61.3-.92,0a.6.6,0,0,0-.6-.08,1.77,1.77,0,0,1-.56,0,.79.79,0,0,0-.34,0c-.24.08-.51.24-.71,0s-.37-.4-.56-.06c0,0-.1.06-.13-.08s-.11-.2-.16-.15c-.29.31-.62-.07-.89.17s-.69-.1-1,0a1.11,1.11,0,0,1-.72.05,1.37,1.37,0,0,0-1.11.12c-.29.14-.61,0-.91,0a.23.23,0,0,1-.22-.17h0s0,0,0,0-.13.18-.19.16c-.54-.17-1.08.32-1.62,0-.14-.09-.25.16-.39.17a3.58,3.58,0,0,0-1.73.23c-.15.08-.32,0-.47-.19,0,0,0-.13-.07,0-.18.53-.42.27-.63.3a11.17,11.17,0,0,0-2.4.41,12.7,12.7,0,0,1-1.31.35.56.56,0,0,1-.38-.14c-.22-.16-.22-.15-.12-.73h0c-.39.16-.77.1-1.12-.44a.65.65,0,0,1-.09-.36.66.66,0,0,1,0-.15c-.13-.59-.12-.68.11-.86,0,0,.13,0,.12-.14s-.08,0-.12,0-.19-.17-.27-.25-.36-.12-.53-.31a.49.49,0,0,1-.16-.45c0-.33.06-.63.21-.65s.26-.19.39.08c0,0,0,0,.08,0h0c.13-.2.29,0,.43-.28a.59.59,0,0,0,.12-.4c0-.49.1-.7.3-.71.57,0,1.15-.08,1.72-.1a1.18,1.18,0,0,1,.66.18c.13.07.27-.14.4-.16a19.61,19.61,0,0,1,2.17,0c.66,0,1.32,0,2-.05.39,0,.78-.15,1.17-.13a13.23,13.23,0,0,1,2.18,0c.21,0,.43-.14.64-.1a2.36,2.36,0,0,0,1,.08,4.53,4.53,0,0,1,1.37-.07c.42,0,.83-.06,1.25,0a2.64,2.64,0,0,0,.91-.13.7.7,0,0,1,.56.14c.15.1.31-.06.47-.09s.39-.42.56.16c.11-.2.24-.06.34-.16s.37.08.54,0,.09.25.13.35.1.41.16-.06.24-.41.38,0c0,.16.1.17.14,0s.15-.32.24-.09c0,.07.08.13.11,0,.16-.6.37-.06.55-.21s.08.05.08.16c0,.32.07.31.13.13.12-.34.28-.29.41-.23.45.18.9,0,1.34.18.6.21,1.21.1,1.81.25a3,3,0,0,0,1-.08.75.75,0,0,1,.74.29c.27.32.56.21.84.23.1,0,.2,0,.27.22a1.44,1.44,0,0,1,.1.71c0,.28-.11.55-.23.54s-.41.18-.61.38-.42,0-.63,0l-.55-.08s-.06,0-.09,0a.34.34,0,0,0-.09.27c0,.14.06.1.1.09a3.46,3.46,0,0,1,1.36.39c.26.09.52.22.78.33a.33.33,0,0,1,.14.1,1.05,1.05,0,0,1,.21.84" fill="#726658"/>
    </g>
  </g>
</svg>
