<svg id="Layer_1" data-name="Layer 1" xmlns="http://www.w3.org/2000/svg" xmlns:xlink="http://www.w3.org/1999/xlink" viewBox="0 0 790 344">
  <defs>
    <clipPath id="clip-path">
      <rect x="50.41" y="185.93" width="546.97" height="255.84" transform="translate(-2.66 2.76) rotate(-0.49)" fill="none"/>
    </clipPath>
    <clipPath id="clip-path-2">
      <rect x="221.84" y="90.24" width="502.82" height="277.1" fill="none"/>
    </clipPath>
  </defs>
  <g id="Group_156" data-name="Group 156">
    <g id="Group_12" data-name="Group 12">
      <g clip-path="url(#clip-path)">
        <g id="Group_11" data-name="Group 11">
          <g id="Group_10" data-name="Group 10">
            <path id="Path_90" data-name="Path 90" d="M268.54-114C414.36-135.43,554.46-68.18,581.45,99.06c13.5,80.18-3.84,137.9-42.78,192.75C499.74,345.19,439.2,399,366.28,413.44c-145.82,21.43-285.92-45.82-312.91-213C39.87,120.2,57.21,62.49,96.14,7.63,135.08-45.75,195.62-99.52,268.54-114Z" fill="#c25938"/>
          </g>
        </g>
      </g>
    </g>
    <g id="Group_45" data-name="Group 45">
      <g id="Group_14" data-name="Group 14">
        <g id="Group_13" data-name="Group 13">
          <path id="Path_91" data-name="Path 91" d="M465.3,262.15c.06,4.44.22,8.88.18,13.32l-.64,50.38c0,.86.11,1.72.23,2.57l0-.08c-.13,10.16-.31,20.3-.35,30.46-.07,23.49-.18,47-1.16,70.41-.15,3.66-.17,9.88-3.15,9.76s-4.91-4.3-4.78-10.69c.29-15.47,1.07-31,.61-46.4-.67-22.52-.07-45,0-67.48q.21-30.28.4-60.57c0-19-.5-37.93-.33-56.88.14-16.35,1-32.7,1.34-49.06.08-3.85.26-7.95-.87-11.59l0,.06c1.38-4.43-1.15-9.64.86-14h0a39.8,39.8,0,0,0,.14-4.5c-.5-6.72.59-8.5,4-6.25.75.5,1.73-.08,2.24,1.55l-.05.12.05,0c2.3,4.55,1.19,10.17,1.23,15.27.19,25,.07,50,0,75-.05,15.35-.31,30.7-.05,46,.08,4.19.48,8.39.18,12.64Z" fill="#1a1818"/>
        </g>
      </g>
      <g id="Group_16" data-name="Group 16">
        <g id="Group_15" data-name="Group 15">
          <path id="Path_92" data-name="Path 92" d="M473.6,396.39c1.24-4.57-.56-9.13-.22-13.7.56-7.56,1.3-15.14,1.09-22.7-.47-16.51,1.47-32.95,2.11-49.42a397.08,397.08,0,0,0-1.89-56.24c-1.11-10.83,1.51-21.64,1.41-32.48-.13-15.14-.13-30.3-1.14-45.42-.73-10.74,1.14-21.43,0-32.14a11.33,11.33,0,0,0-1-4c-1.11-2.3,1.3-3.47,4-3.94,2.87-.5,3.62,1.06,3.66,2.64.16,6.59.08,13.18.43,19.77.91,17.17,1.42,34.34,1.33,51.52,0,9-.95,17.9-.51,26.87.55,11.27.53,22.55.95,33.82.43,11.91,1.08,23.8.17,35.72-1.23,16.31-1.57,32.66-2.05,49-.35,11.59.28,23.21-.63,34.78-1.23,15.59.26,31.22-1.61,46.8-.25,2-2.46,2.15-4.62,2.24-1.79.07-2.8-.61-2.77-1.86l1.33-41.24Z" fill="#1a1818"/>
        </g>
      </g>
      <g id="Group_18" data-name="Group 18">
        <g id="Group_17" data-name="Group 17">
          <path id="Path_93" data-name="Path 93" d="M493.15,399.84c1.24-4.2-.56-8.4-.22-12.61.56-7,1.3-13.92,1.09-20.88-.47-15.19,1.47-30.31,2.11-45.46a336.09,336.09,0,0,0-1.89-51.73c-1.11-10,1.51-19.9,1.41-29.87-.13-13.93-.13-27.87-1.14-41.78-.73-9.87,1.14-19.71,0-29.56a9.72,9.72,0,0,0-1-3.73c-1.11-2.11,1.3-3.19,4-3.61,2.88-.47,3.63,1,3.67,2.42.16,6.06.08,12.13.43,18.19.91,15.79,1.42,31.59,1.33,47.4,0,8.24-1,16.46-.52,24.71.56,10.37.54,20.74.95,31.11.44,11,1.09,21.89.18,32.86-1.23,15-1.57,30-2.05,45.06-.35,10.67.28,21.36-.63,32-1.24,14.35.26,28.72-1.61,43-.25,1.88-2.46,2-4.62,2.07-1.79.07-2.8-.56-2.77-1.71l1.32-37.94Z" fill="#1a1818"/>
        </g>
      </g>
      <g id="Group_20" data-name="Group 20">
        <g id="Group_19" data-name="Group 19">
          <path id="Path_94" data-name="Path 94" d="M440.33,364.3c1.24-4.95-.56-9.88-.22-14.83.57-8.19,1.3-16.39,1.09-24.57-.47-17.87,1.47-35.67,2.11-53.5a463.3,463.3,0,0,0-1.88-60.87c-1.12-11.72,1.51-23.42,1.41-35.16-.13-16.39-.13-32.8-1.14-49.16-.73-11.62,1.14-23.2,0-34.79a13.55,13.55,0,0,0-1-4.39c-1.11-2.48,1.3-3.75,4-4.26,2.87-.54,3.63,1.14,3.67,2.86.15,7.13.07,14.27.42,21.4.91,18.58,1.42,37.17,1.34,55.76-.05,9.7-1,19.37-.52,29.08.56,12.2.54,24.41.95,36.61.43,12.89,1.08,25.76.17,38.67-1.23,17.65-1.56,35.35-2.05,53-.34,12.55.29,25.13-.62,37.65-1.24,16.88.26,33.79-1.62,50.65-.24,2.21-2.45,2.34-4.62,2.43-1.79.08-2.8-.66-2.76-2l1.32-44.63Z" fill="#1a1818"/>
        </g>
      </g>
      <g id="Group_22" data-name="Group 22">
        <g id="Group_21" data-name="Group 21">
          <path id="Path_95" data-name="Path 95" d="M380.87,331.26c1.24-4.95-.56-9.88-.23-14.84.57-8.18,1.3-16.38,1.1-24.57-.47-17.87,1.46-35.66,2.11-53.5A464.84,464.84,0,0,0,382,177.49c-1.11-11.72,1.51-23.43,1.41-35.16-.13-16.4-.13-32.8-1.14-49.17-.73-11.62,1.14-23.2,0-34.79a13.3,13.3,0,0,0-1-4.39c-1.11-2.48,1.3-3.75,4-4.25,2.88-.55,3.63,1.14,3.67,2.85.16,7.13.08,14.27.42,21.4.92,18.58,1.42,37.17,1.34,55.77-.05,9.69-1,19.37-.52,29.07.56,12.2.54,24.41.95,36.61.44,12.89,1.09,25.76.18,38.67-1.23,17.66-1.57,35.35-2,53-.35,12.55.28,25.13-.63,37.65-1.24,16.88.26,33.79-1.61,50.65-.25,2.22-2.46,2.34-4.62,2.43-1.79.08-2.8-.66-2.77-2l1.32-44.63Z" fill="#1a1818"/>
        </g>
      </g>
      <g id="Group_24" data-name="Group 24">
        <g id="Group_23" data-name="Group 23">
          <path id="Path_96" data-name="Path 96" d="M351.89,319.81c1.24-4.95-.56-9.88-.23-14.83.57-8.19,1.3-16.39,1.09-24.57-.47-17.87,1.47-35.67,2.12-53.5A464.89,464.89,0,0,0,353,166.05c-1.11-11.72,1.51-23.43,1.41-35.16-.13-16.39-.13-32.8-1.14-49.17-.73-11.62,1.14-23.2,0-34.79a13.18,13.18,0,0,0-1-4.38c-1.11-2.49,1.3-3.76,4-4.26,2.88-.55,3.63,1.14,3.67,2.85.15,7.13.08,14.27.42,21.4.91,18.58,1.42,37.17,1.34,55.77-.05,9.69-1,19.37-.52,29.07.56,12.2.54,24.41.95,36.61.44,12.89,1.08,25.76.18,38.67-1.24,17.66-1.57,35.35-2.06,53-.34,12.55.29,25.13-.62,37.65-1.24,16.88.26,33.79-1.61,50.65-.25,2.22-2.46,2.34-4.62,2.43-1.79.08-2.8-.66-2.77-2l1.32-44.63Z" fill="#1a1818"/>
        </g>
      </g>
      <g id="Group_26" data-name="Group 26">
        <g id="Group_25" data-name="Group 25">
          <path id="Path_97" data-name="Path 97" d="M327.36,312.33c1.24-4.95-.56-9.88-.22-14.83.57-8.19,1.3-16.39,1.09-24.57-.47-17.88,1.47-35.67,2.11-53.5a466.79,466.79,0,0,0-1.88-60.87c-1.12-11.72,1.5-23.43,1.4-35.16-.13-16.39-.12-32.8-1.14-49.16-.73-11.62,1.14-23.2,0-34.8a13.76,13.76,0,0,0-1-4.38c-1.12-2.48,1.3-3.75,4-4.26,2.87-.54,3.63,1.14,3.66,2.86.16,7.13.08,14.27.43,21.4.91,18.58,1.42,37.17,1.34,55.76-.05,9.69-1,19.37-.52,29.08.55,12.2.53,24.4.95,36.6.43,12.9,1.08,25.76.17,38.67-1.23,17.66-1.57,35.36-2.05,53-.35,12.55.28,25.12-.63,37.64-1.23,16.88.27,33.8-1.61,50.66-.25,2.21-2.45,2.33-4.62,2.43-1.79.08-2.8-.66-2.77-2l1.33-44.63Z" fill="#1a1818"/>
        </g>
      </g>
      <g id="Group_28" data-name="Group 28">
        <g id="Group_27" data-name="Group 27">
          <path id="Path_98" data-name="Path 98" d="M269.54,307.65c1.24-4.94-.56-9.87-.23-14.83.57-8.18,1.3-16.38,1.09-24.57-.47-17.87,1.47-35.67,2.12-53.5a465,465,0,0,0-1.89-60.87c-1.12-11.71,1.51-23.42,1.41-35.15-.13-16.39-.13-32.8-1.14-49.17-.73-11.62,1.14-23.2,0-34.79a13.3,13.3,0,0,0-1-4.39c-1.11-2.48,1.31-3.75,4-4.25,2.88-.55,3.63,1.14,3.67,2.85.15,7.13.08,14.27.42,21.4.92,18.58,1.42,37.17,1.34,55.77-.05,9.7-1,19.37-.52,29.07.56,12.2.54,24.41.95,36.61.44,12.89,1.08,25.76.18,38.67-1.24,17.66-1.57,35.35-2.05,53-.35,12.55.28,25.13-.63,37.65-1.24,16.88.26,33.79-1.61,50.66-.25,2.21-2.46,2.33-4.62,2.43-1.79.07-2.8-.67-2.77-2l1.32-44.63Z" fill="#1a1818"/>
        </g>
      </g>
      <g id="Group_30" data-name="Group 30">
        <g id="Group_29" data-name="Group 29">
          <path id="Path_99" data-name="Path 99" d="M239.83,312.33c1.24-4.95-.56-9.88-.22-14.83.57-8.19,1.3-16.39,1.09-24.57-.47-17.88,1.47-35.67,2.11-53.5a466.79,466.79,0,0,0-1.88-60.87c-1.12-11.72,1.5-23.43,1.4-35.16-.13-16.39-.12-32.8-1.14-49.16-.73-11.62,1.14-23.2.05-34.8a13.76,13.76,0,0,0-1-4.38c-1.12-2.48,1.3-3.75,4-4.26,2.87-.54,3.63,1.14,3.66,2.86.16,7.13.08,14.27.43,21.4.91,18.58,1.42,37.17,1.33,55.76,0,9.69-1,19.37-.51,29.08.55,12.2.53,24.4.95,36.6.43,12.9,1.08,25.76.17,38.67-1.23,17.66-1.57,35.36-2,53-.35,12.55.28,25.12-.63,37.64-1.23,16.88.26,33.8-1.61,50.66-.25,2.21-2.46,2.33-4.62,2.43-1.79.08-2.8-.66-2.77-2l1.33-44.63Z" fill="#1a1818"/>
        </g>
      </g>
      <g id="Group_32" data-name="Group 32">
        <g id="Group_31" data-name="Group 31">
          <path id="Path_100" data-name="Path 100" d="M222.2,220.31c0-.13.24-.14.37-.21.51-4.19-.43-8.3.09-12.65a61.45,61.45,0,0,0,0-10.42c-.38-6.49-.34-13-.3-19.49.06-10.49-.17-21,0-31.45.08-5.69-.17-11.4.08-17.06.3-6.79-.22-13.54.11-20.31.23-4.71-.12-9.43-.18-14.14-.08-7.26.15-14.52-.28-21.78-.13-2.27-.68-4.67-.12-6.91a22.82,22.82,0,0,0,.37-6.8,42.35,42.35,0,0,1,.5-8.49,46.66,46.66,0,0,0,.33-9.74c-.09-1.56-.59-2.14-1.35-2.5-1.57-.75-3.12,1-3.39,3.92a9.45,9.45,0,0,1-.48,3,9.42,9.42,0,0,1-.54-3c-.25-1.57-.64-3.18-1.8-3.36s-1.88.77-2.56,2a5.87,5.87,0,0,0-.38,2.78,10.92,10.92,0,0,1-.64,4.53,7.18,7.18,0,0,0-.27,3.19q.27,5.61.09,11.23c-.26,8.26.53,16.48.29,24.76-.14,4.81.28,9.7.19,14.48-.1,5.22.08,10.38.17,15.57,0,2.4-.17,4.87.47,7.18-1.23,4.62-.1,9.42-.48,14.18-.53,6.47.61,13,0,19.72-.4,4.63.09,9.58-.05,14.4-.27,8.79.34,17.55.07,26.38-.24,8.07-.12,16.17-.46,24.27-.34,8.42-.46,16.87-.76,25.3-.54,14.88-.8,29.77-1.16,44.66-.24,9.58-.24,19.17-.53,28.75-.22,7.46,0,14.95,0,22.43,0,4.36.14,8.71.24,13.06,0,2.09.33,4,2,4.06.63,0,.64.69.79,1.41.64,3.1,1.46,3.79,3.4,2.55a5.12,5.12,0,0,1,2.79-.86c2.23-.05,3.16-1.52,2.94-5-.34-5.56-.32-11.15-.55-16.71-.27-6.73-.33-13.41,0-20.14.23-4.66.22-9.38.1-14-.09-3.49.14-7,0-10.49a25.32,25.32,0,0,1,.24-7.06l0,0a1.6,1.6,0,0,1,0-1.57l0,0c.55-1.11-.54-1.82-.23-3,.68-2.64.42-5.46.45-8.23s1.21-5.29-.1-7.9c-.11-.21.2-.87.22-1.33.1-3.46,1.49-6.95-.1-10.38a4.61,4.61,0,0,1,.18-1.73,13.25,13.25,0,0,0,.38-3.19l-.56-.26c.35-.6.38.06.52.32a3.1,3.1,0,0,0,.3-2,59.18,59.18,0,0,1-.2-10.48,12,12,0,0,0,.13-3.44c-.5-2.16-1.07-4.3,0-6.7a4.75,4.75,0,0,0-.51-3.36v.08c0-1-.07-2.06.59-2.71l0,.07c-.13-1.63.65-3.26,0-4.89C222.35,220.8,222.09,220.72,222.2,220.31Z" fill="#1a1818"/>
        </g>
      </g>
      <g id="Group_34" data-name="Group 34">
        <g id="Group_33" data-name="Group 33">
          <path id="Path_101" data-name="Path 101" d="M314.22,225.92c0,4.23-.13,8.46,0,12.69.3,12.49-.19,25-.43,37.44-.24,13.23-.06,26.48-.4,39.7-.24,10-.27,19.94-1.26,29.86a49.87,49.87,0,0,0,.15,6c0,.81.17,1.9-.74,2-2.7.26-5.39,1.22-8.12.3a2.36,2.36,0,0,1-1.55-2.65c.35-10.93.7-21.85,1.15-32.76.2-5,1-10,.85-15-.32-9,.09-18,.11-27,0-14.33-.77-28.65-.23-43,.36-9.59.76-19.17.73-28.76,0-6.87-.25-13.73-.21-20.6.07-10.66,0-21.32-.11-32-.09-9.79.05-19.59.62-29.4.56-9.6.94-19.32-.2-28.95-.14-1.17.59-2.36-.14-3.47v0l-.3-.79v0c.56-3.86-.19-7.7-.18-11.54,0-8-.68-16,.25-24a61.72,61.72,0,0,0,.2-12.38c-.3-3.39.64-7.49-.21-10.81-1-4.1,1.1-3.92,2.94-4.67a2.23,2.23,0,0,1,2,.27c1.68.87,3,2.65,5.22,2.23,1.28-.24,1.1,1.9,1.17,3,1.31,19,.72,38,.51,57-.15,13,.17,26,0,38.93-.13,12.67-1,25.35-.65,38q.3,11.34-.4,22.54c-.49,7.76-.56,15.52-.86,23.27a94.75,94.75,0,0,0,.11,14.59Z" fill="#1a1818"/>
        </g>
      </g>
      <g id="Group_36" data-name="Group 36">
        <g id="Group_35" data-name="Group 35">
          <path id="Path_102" data-name="Path 102" d="M147.26,354.54c1.24-5-.56-9.88-.22-14.83.57-8.19,1.3-16.39,1.09-24.57-.47-17.88,1.47-35.67,2.11-53.5a463.25,463.25,0,0,0-1.88-60.87c-1.12-11.72,1.5-23.43,1.4-35.16-.12-16.39-.12-32.8-1.14-49.16-.73-11.62,1.14-23.2,0-34.8a13.49,13.49,0,0,0-1-4.38c-1.11-2.48,1.3-3.75,4-4.26,2.87-.54,3.63,1.14,3.67,2.86.15,7.13.07,14.27.42,21.4.91,18.58,1.42,37.17,1.34,55.76-.05,9.69-1,19.37-.52,29.08.56,12.2.54,24.4,1,36.6.43,12.9,1.08,25.76.17,38.67-1.23,17.66-1.56,35.36-2,53-.34,12.54.29,25.12-.62,37.64-1.24,16.88.26,33.8-1.62,50.66-.24,2.21-2.45,2.33-4.62,2.43-1.79.08-2.8-.66-2.76-2l1.32-44.63Z" fill="#1a1818"/>
        </g>
      </g>
      <g id="Group_38" data-name="Group 38">
        <g id="Group_37" data-name="Group 37">
          <path id="Path_103" data-name="Path 103" d="M112.22,395.39c1.24-4.95-.56-9.88-.22-14.84.57-8.18,1.3-16.38,1.09-24.57-.47-17.87,1.47-35.66,2.11-53.49a463.3,463.3,0,0,0-1.88-60.87c-1.12-11.72,1.5-23.42,1.4-35.16-.12-16.39-.12-32.79-1.14-49.16-.73-11.62,1.14-23.2,0-34.79a13.81,13.81,0,0,0-1-4.39c-1.11-2.48,1.3-3.75,4-4.26,2.87-.54,3.63,1.14,3.67,2.86.15,7.13.07,14.27.42,21.4.91,18.58,1.42,37.17,1.34,55.76,0,9.7-1,19.37-.52,29.08.55,12.2.54,24.41,1,36.61.43,12.89,1.08,25.75.17,38.67-1.23,17.65-1.57,35.35-2.05,53-.35,12.55.28,25.13-.63,37.65-1.23,16.88.27,33.79-1.61,50.65-.25,2.21-2.46,2.34-4.62,2.43-1.79.08-2.8-.66-2.77-2l1.33-44.63Z" fill="#1a1818"/>
        </g>
      </g>
      <g id="Group_40" data-name="Group 40">
        <g id="Group_39" data-name="Group 39">
          <path id="Path_104" data-name="Path 104" d="M86.43,216.15c1.56-8.63-.68-17.7,1.6-26.47a17.27,17.27,0,0,0-1.13-10.86c-.81-1.59.91-9,2.54-10.56S92,169,93,170.56l-.07.05,0-.11c4,4.07,6.6,9.05,5.74,17.45-.47,4.65,1.14,9.36.43,14.29-.51,3.6-.34,7.44-1.43,10.87-.09.3-.32.72-.27.87,1.54,4.24.47,8.84.66,13.27a42.54,42.54,0,0,1,.23,4.92A18.34,18.34,0,0,0,99,239c.88,3.12,1,6.58-1.6,9.05-.88.83-1.17,4-.54,6.17.88,3.06,1.25,6-.29,8.86a1.67,1.67,0,0,0-.18.93c1.63,6.27-1.3,12.86-.06,18.64,1.44,6.75.16,12.35-.77,18.57-.55,3.62.6,7.65.5,11.62,0,1.46.41,3,.13,4.62a4.44,4.44,0,0,0-.16,1.7,23.56,23.56,0,0,1,.86,11.92l0,.09,0-.1c1.61,3.24.9,6.44-.12,9.64l0,0c-.35.31-1-.14-1,1.15.26,4-.59,7.79-.7,11.71a4.82,4.82,0,0,0,.24,1.92A12.51,12.51,0,0,1,95.61,366a1.19,1.19,0,0,0-.1.46c2.18,3.05.26,7.49,1.5,11s-2.22,11.84-4.73,11.45c-.48-.08-.91-1-1.36-1.6l0,.05a44,44,0,0,1-5.12-16c-.8-5.43,1-10.31.26-14.94a71.22,71.22,0,0,1-.81-12.55c.12-5.16-1.45-10.19,0-15.6.81-2.93.19-6.84.2-10.31,0-6.95-1-13.83.37-20.86.56-2.79.77-6.32-.5-9.2v.05c1.13-4.1-.71-7.89-.33-12,.64-6.89,0-14,1.68-20.75a6.19,6.19,0,0,0-.15-3.08,11.49,11.49,0,0,1,.07-7.17,16.86,16.86,0,0,0,.27-8.58c-.55-2.2-1-4.37.15-6.52a2.51,2.51,0,0,0,.28-1.37c-2.08-3.78-.15-8.34-.9-12.35Z" fill="#1a1818"/>
        </g>
      </g>
      <g id="Group_42" data-name="Group 42">
        <g id="Group_41" data-name="Group 41">
          <path id="Path_105" data-name="Path 105" d="M194.37,249.52c0,4.23-.12,8.46,0,12.69.3,12.49-.19,25-.42,37.44-.25,13.23-.07,26.48-.4,39.7-.25,10-.28,19.94-1.26,29.86a46.25,46.25,0,0,0,.15,6c0,.8.16,1.89-.75,2-2.7.25-5.38,1.21-8.12.3a2.38,2.38,0,0,1-1.55-2.66c.36-10.93.7-21.85,1.16-32.76.2-5,1-10,.84-15-.31-9,.09-18,.12-27,0-14.33-.77-28.64-.24-43,.36-9.58.76-19.17.73-28.76,0-6.87-.25-13.73-.21-20.59.08-10.67,0-21.33-.11-32-.08-9.79.05-19.58.62-29.4.56-9.6,1-19.32-.19-28.95-.14-1.17.58-2.36-.14-3.47v0l-.3-.79,0,0c.56-3.86-.18-7.69-.18-11.55,0-8-.67-15.95.25-24a61,61,0,0,0,.2-12.38c-.3-3.39.64-7.49-.21-10.81-1-4.1,1.1-3.92,2.94-4.67a2.26,2.26,0,0,1,2,.27c1.68.87,3,2.65,5.21,2.23,1.28-.24,1.1,1.9,1.18,3,1.31,19,.71,38,.5,57-.15,13,.17,26,0,38.93-.12,12.67-1,25.35-.64,38q.3,11.34-.4,22.54c-.49,7.76-.57,15.52-.87,23.28a97.21,97.21,0,0,0,.11,14.58Z" fill="#1a1818"/>
        </g>
      </g>
      <g id="Group_44" data-name="Group 44">
        <g id="Group_43" data-name="Group 43">
          <path id="Path_106" data-name="Path 106" d="M421.52,267.34c0,4.23-.12,8.46,0,12.69.3,12.49-.18,25-.42,37.44-.25,13.24-.07,26.48-.4,39.7-.24,10-.27,19.94-1.26,29.86a48.09,48.09,0,0,0,.15,6c0,.81.17,1.89-.74,2-2.7.25-5.39,1.21-8.12.3a2.37,2.37,0,0,1-1.55-2.66c.35-10.92.7-21.84,1.15-32.76.2-5,1-10,.85-15-.32-9,.09-18,.11-27,0-14.33-.77-28.64-.23-43,.36-9.58.76-19.17.73-28.76,0-6.86-.25-13.73-.21-20.59.07-10.67,0-21.33-.11-32-.08-9.79.05-19.58.62-29.4.56-9.6.94-19.32-.2-28.95-.13-1.17.59-2.36-.14-3.47v0l-.3-.79v0c.56-3.87-.19-7.7-.18-11.55,0-8-.68-15.95.25-24a61.72,61.72,0,0,0,.2-12.38c-.3-3.39.64-7.48-.21-10.81-1-4.1,1.1-3.92,2.94-4.67a2.26,2.26,0,0,1,2,.27c1.67.87,3,2.65,5.21,2.23,1.28-.24,1.1,1.9,1.17,3,1.31,19,.72,38,.51,57-.15,13,.17,26,.05,38.93-.13,12.67-1,25.35-.64,38q.3,11.34-.4,22.54c-.49,7.76-.57,15.52-.87,23.27a96,96,0,0,0,.11,14.59Z" fill="#1a1818"/>
        </g>
      </g>
    </g>
    <g id="Group_48" data-name="Group 48">
      <g clip-path="url(#clip-path-2)">
        <g id="Group_47" data-name="Group 47">
          <g id="Group_46" data-name="Group 46">
            <path id="Path_107" data-name="Path 107" d="M520.79,692.73c-134.26,22.13-262.29-52.26-286-233.85-11.84-86.62,4.66-148.82,40.89-208.13C312,193.06,367.93,135.17,435.07,120.47c134.26-22.12,262.29,52.26,286,233.85,11.84,86.63-4.66,148.82-40.89,208.14C643.9,620.15,587.93,678,520.79,692.73Z" fill="#69742c"/>
          </g>
        </g>
      </g>
    </g>
    <g id="Group_50" data-name="Group 50">
      <g id="Group_49" data-name="Group 49">
        <path id="Path_108" data-name="Path 108" d="M397,323.79a19.27,19.27,0,0,0,2-3.1c.54-1.08,1-2.21,1.47-3.32s.92-2.27,1.43-3.38a23.68,23.68,0,0,1,1.86-3.15c4.75-6.56,10.41-12.29,15.93-18a77,77,0,0,1,21.11-15.26,107.24,107.24,0,0,1,24.45-8.38,124.78,124.78,0,0,1,58.43,1,49,49,0,0,1,15.5,7.68c4.74,3.34,9,7.13,13.47,10.75a110.73,110.73,0,0,1,16.58,17.29,131.63,131.63,0,0,1,12.76,20.44,65.57,65.57,0,0,1,5.31,16.31c1.16,5.62,1.82,11.25,2.84,16.9a16,16,0,0,0,1.26,4.28c1.18,2.45-1.21,3.77-3.85,4.24-2.86.51-3.66-1.06-3.73-2.64a88.1,88.1,0,0,0-2.89-19.51,107.54,107.54,0,0,0-24.74-43.87,116.84,116.84,0,0,0-9.33-9.29,55.93,55.93,0,0,0-10.78-7.6,92.41,92.41,0,0,0-31-10.53,101.54,101.54,0,0,0-17.17-.73q-8.57.36-17.07,1.56a79.23,79.23,0,0,0-22.68,6.76,91.18,91.18,0,0,0-20.06,13,82.23,82.23,0,0,0-11.69,12.41,170.28,170.28,0,0,0-9.69,14.07A75,75,0,0,0,397.79,343a199.46,199.46,0,0,0-4.16,22.9c-.3,2-2.51,2.15-4.68,2.25-1.79.07-2.79-.66-2.72-2A107.24,107.24,0,0,1,397,323.77Z" fill="#1a1818"/>
      </g>
    </g>
    <g id="Group_52" data-name="Group 52">
      <g id="Group_51" data-name="Group 51">
        <path id="Path_109" data-name="Path 109" d="M349.4,295.1a63.9,63.9,0,0,0,4.78-10.19c1.52-3.42,2.82-7,4.92-10.14a224.07,224.07,0,0,1,22.84-29.41l3.44-3.74c1.19-1.21,2.42-2.37,3.64-3.55,2.39-2.4,5.06-4.5,7.62-6.7,1.33-1.05,2.69-2.06,4-3.08l2-1.52,2.1-1.42,4.22-2.81,4.36-2.59,2.18-1.28,2.24-1.17,4.49-2.32c3.09-1.36,6.09-2.88,9.25-4a154.7,154.7,0,0,1,19.11-6.28,157.7,157.7,0,0,1,90.48,3.46,87.17,87.17,0,0,1,23.56,12.75A239.26,239.26,0,0,1,585,238.37c18.3,16.84,32.15,38,42.14,60.83a125.54,125.54,0,0,1,7.48,25.4c1.74,8.65,2.73,17.38,3.92,26.13a40.53,40.53,0,0,0,1.37,6.62c1.2,3.77-1.17,5.77-3.8,6.51-2.86.8-3.67-1.67-3.77-4.18a159.75,159.75,0,0,0-4-31l-1.23-4.94-1.43-4.88L625,316.4l-.82-2.4-1.63-4.8-1.84-4.72-.91-2.36-1-2.32-2-4.64-2.22-4.54-1.11-2.27-1.21-2.22-2.41-4.44-2.6-4.32-1.3-2.16-1.39-2.1A173.92,173.92,0,0,0,592.6,256.9a203.71,203.71,0,0,0-14.26-15.41,112.43,112.43,0,0,0-16.54-12.94c-14.95-9.26-31.38-16.16-48.56-19.14-18.17-3.13-36.62-2.21-54.64,1.06-24.78,4.56-48,17.36-66.39,35a139.82,139.82,0,0,0-17.62,20.7,236.26,236.26,0,0,0-14.22,23.21,141.25,141.25,0,0,0-12.7,34.51,279.7,279.7,0,0,0-5.54,36.52c-.32,3.23-2.53,3.42-4.7,3.56-1.79.12-2.78-1-2.7-3.07a180.36,180.36,0,0,1,14.75-65.87Z" fill="#1a1818"/>
      </g>
    </g>
    <g id="Group_56" data-name="Group 56">
      <g id="Group_53" data-name="Group 53">
        <path id="Path_110" data-name="Path 110" d="M447.29,161.22h0Z" fill="#1a1818"/>
      </g>
      <g id="Group_55" data-name="Group 55">
        <path id="Path_112" data-name="Path 112" d="M278.23,363.67c-.85.32-1.42-.78-1.3-6.15.38-14.4,2.76-28.41,6-42.32l0,0,.18-.83v0l.81-3.41c.27-1.13.61-2.25.9-3.38l1.79-6.77c.66-2.24,1.38-4.45,2.08-6.67l1.07-3.32c.38-1.1.82-2.16,1.24-3.24,5.93-15.25,13-30.12,22.42-43.64,2.7-3.69,5.26-7.5,8.15-11.08,1.43-1.8,2.77-3.68,4.27-5.43l4.46-5.29a192.32,192.32,0,0,1,19.53-19.61,216.1,216.1,0,0,1,55.72-35.4l6.49-2.7c2.15-.92,4.4-1.62,6.59-2.44,4.37-1.69,8.9-2.91,13.38-4.3,2.26-.64,4.55-1.15,6.82-1.73l3.42-.84c1.14-.27,2.3-.46,3.45-.69l6.91-1.32,7-1a194.18,194.18,0,0,1,39.09-.68l7.11.56,7.09.91c2.85.33,5.58.85,8.33,1.41,1.37.27,2.75.58,4.14.92s2.77.85,4.19,1.35c4.73,1.64,12.17,3.23,18.27,5.31l6.31,2.28c2.1.75,4.13,1.7,6.2,2.54,4.16,1.64,8.14,3.66,12.19,5.47,8.19,4,16.1,8.8,23.83,13.4l0,0,3.3,2.24,3.2,2.4,3.19,2.36c1.07.76,2.13,1.54,3.15,2.35,9.51,7,17.64,15.38,25.28,24a222.46,222.46,0,0,1,46.83,84.5,221.51,221.51,0,0,1,7.8,36.45v-.06a45.09,45.09,0,0,1,.39,6.57c0,2-.1,3.76-.24,5.41a78.62,78.62,0,0,1-1.63,8.74c-1.28,5.85-2.41,3.28-2.85-5.13a236.9,236.9,0,0,0-8.14-47.28A204.48,204.48,0,0,0,661,267.33c-.81-1.7-1.76-3.32-2.67-5l-2.72-4.94c-1.94-3.22-3.88-6.44-5.91-9.61l0,0a.86.86,0,0,0-.46-.66v0c-5.36-9-12.24-17.05-19.25-24.84-3.74-4.21-7.63-8.21-11.55-12.3a133.19,133.19,0,0,0-10.74-9,201,201,0,0,0-36.88-23.66c-3.1-1.42-6.15-2.94-9.26-4.31v0a60.07,60.07,0,0,0-5.77-2.49c-1-.37-1.95-.76-2.95-1.08l-3-1c-2.4-.8-4.73-1.8-7.17-2.5-3-.86-6.06-1.86-9-2.5-3.29-.62-6.49-1.4-9.7-2.12s-6.4-1.35-9.62-2a22,22,0,0,0-2.3-.15h.06l-4.07-.39h-.3l-.12-.14a67.21,67.21,0,0,0-8.5-.84l-4.24-.23-4.24,0-2.45-.28h-.07l-.12,0a.45.45,0,0,1-.16,0c-7.6-.14-15.14.61-22.75,1l0,0c-2.25.14-4.47.5-6.71.75s-4.49.49-6.7.93h0a4.15,4.15,0,0,0-2.19.41l0,0-1.86.49-.47.33c-3,.48-6,1.31-8.81,1.58l.06,0a4,4,0,0,1-2,.49l.09,0-.15.06c-1.73.4-3.43.94-5.12,1.48l-5.1,1.58h0a24.59,24.59,0,0,1-6.28,1.88,9.11,9.11,0,0,0-2.76,1c-.49.24-1,.49-1.54.7a9,9,0,0,1-1.68.58h0a6.44,6.44,0,0,0-.61.24l0,0-7,2.86-6.81,3.19c-2.3,1-4.47,2.29-6.7,3.43L389.49,182c-1.1.59-2.16,1.27-3.24,1.9l-.05,0c-11.37,5.59-21.75,13.58-31.39,22a200.81,200.81,0,0,0-28.42,30.86l-2.51,3.34-2.34,3.47c-1.55,2.32-3.17,4.59-4.57,7h0a5.14,5.14,0,0,1-1.17,1.87l0-.1,0,.07a124.75,124.75,0,0,0-6.67,11.68c-1.42,2.88-2.69,5.79-4.09,8.62-.71,1.4-1.32,2.85-1.94,4.3l-1.85,4.32a211.53,211.53,0,0,0-11.71,38c-.21,1-.44,2.05-.62,3.09l-.44,3.11c-.26,2.07-.52,4.13-.78,6.15-.31,3.59-.79,4.69-1.51,5.17a4.69,4.69,0,0,0-1.79,2.69,19.21,19.21,0,0,0-.68,2.91c-.15,1.22-.26,2.7-.33,4.51-.09,2.25-.28,4.49-.59,6.71-.26,2-.76,3.14-1.66,1.87-.45-.63-.43,1.38-.48,2.59C280.34,365.64,279.12,363.34,278.23,363.67Zm228.2-205.4,1.17.41-.54-.35-.63-.06Zm-40.92-.16-.36.19.69-.13Zm-19.39,3,1.36-.22-1.31.1Zm-22,5.65c.61-.17,1.23-.3,1.85-.43-.52.07-1.05.11-1.57.21Zm-107.4,84.08.17-.19,0,0a1.83,1.83,0,0,0-.13.16Z" fill="#1a1818"/>
      </g>
    </g>
    <g id="Group_58" data-name="Group 58">
      <g id="Group_57" data-name="Group 57">
        <path id="Path_113" data-name="Path 113" d="M529.69,332.44a4.66,4.66,0,0,0-1.42-3.34,10.71,10.71,0,0,1-2.26-2.88c-.37-.94-.92-1.77-1.38-2.67a28.68,28.68,0,0,0-1.52-2.64c-.58-.83-1.2-1.63-1.84-2.41-.33-.39-.65-.78-1-1.15s-.75-.67-1.15-1c-.86-.7-1.68-1.43-2.49-2.18s-1.73-1.35-2.57-2.06L512.8,311l-1.33-1-2.66-2L506,306.27l-1.42-.91-1.5-.75L500,303.12c-1.05-.4-2.13-.75-3.21-1.1l-1.86-.58-1.91-.35a35.5,35.5,0,0,0-3.84-.55c-1.3-.05-2.59-.08-3.88-.08h-1l-1,.11-1.92.24a32.53,32.53,0,0,0-14.22,5.25,13.67,13.67,0,0,1-1.88,1c-.64.3-1.25.66-1.9.94-1.27.6-2.7.94-4,1.57s-2.72,1.05-4,1.77a27.71,27.71,0,0,0-3.62,2.45c-6,5.5-10.84,12.4-13,20.14-.65,2.77-1.9,5.28-2.71,8l-.66,2c-.17.69-.28,1.39-.39,2.09s-.18,1.4-.23,2.1c0,.36,0,.71-.05,1.06s.07.72.12,1.07a3.93,3.93,0,0,0,.9,2.17c1.06,1.2-1.39,1.75-4.06,2-2.89.3-3.6-.61-3.6-1.55a79.89,79.89,0,0,1,1-11.66l.6-3.81c.25-1.27.63-2.5,1-3.75l.52-1.88c.18-.63.45-1.22.68-1.83l1.45-3.63c.57-1.17,1.2-2.31,1.81-3.47l.93-1.73,1.1-1.63c.75-1.08,1.48-2.17,2.26-3.23l2.57-3c3.77-4,8.42-7,12.85-10.14a54.78,54.78,0,0,1,19-8.59c7.16-1.89,15-2.68,22.29-.35a76.54,76.54,0,0,1,14,6.07,64.24,64.24,0,0,1,6.39,4c1,.7,2,1.56,2.95,2.34a30.13,30.13,0,0,1,2.82,2.48c1.23,1.28,2.6,2.42,3.79,3.72s2.42,2.6,3.54,4,2.11,2.85,3.08,4.33,1.66,3.14,2.36,4.75c.43,1.11.8,2.25,1.25,3.34s.95,2.15,1.28,3.29a64.59,64.59,0,0,1,2.13,6.71c.28,1.14.57,2.28.82,3.42s.29,2.33.39,3.5a25.65,25.65,0,0,1-.28,7c-.19,1.22-2.39,1.28-4.55,1.33-1.79,0-2.83-.32-2.82-1a52.42,52.42,0,0,0-3.6-21.16Z" fill="#1a1818"/>
      </g>
    </g>
    <g id="Group_60" data-name="Group 60">
      <g id="Group_59" data-name="Group 59">
        <path id="Path_114" data-name="Path 114" d="M372.47,307.51a30.38,30.38,0,0,0,2.32-3.82c.66-1.32,1.21-2.7,1.84-4s1.18-2.73,1.82-4.08a36.2,36.2,0,0,1,2.29-3.83c5.7-8.07,12.51-15.18,19.3-22.18a98,98,0,0,1,25.75-18.73,121.23,121.23,0,0,1,14.63-6.19c2.47-.95,5-1.6,7.54-2.41l3.83-1c1.27-.34,2.54-.68,3.83-.92a145.19,145.19,0,0,1,71.43,1.77A65.86,65.86,0,0,1,546,251.42c5.83,4,11.19,8.53,16.57,13a133.77,133.77,0,0,1,20.21,21.19,154.18,154.18,0,0,1,15.39,25.08,86.18,86.18,0,0,1,6.5,19.9c1.47,6.84,2.31,13.73,3.43,20.63a24.33,24.33,0,0,0,1.33,5.23c1.19,3-1.19,4.58-3.83,5.16-2.86.63-3.66-1.31-3.75-3.26a111.05,111.05,0,0,0-3.46-24.12,130.58,130.58,0,0,0-30.29-54.48,138.21,138.21,0,0,0-11.64-11.45,74.58,74.58,0,0,0-13.35-9.44,114.41,114.41,0,0,0-38.43-13.35,123.94,123.94,0,0,0-21.35-1.09,178,178,0,0,0-21.25,2A101,101,0,0,0,434,255a113.12,113.12,0,0,0-24.82,16.22,105.53,105.53,0,0,0-14.5,15.38,183.85,183.85,0,0,0-11.93,17.48,98,98,0,0,0-10.81,26.46c-2.46,9.27-3.74,18.75-4.91,28.34-.31,2.52-2.52,2.66-4.69,2.78-1.79.1-2.78-.8-2.71-2.44a130.8,130.8,0,0,1,12.94-51.78Z" fill="#1a1818"/>
      </g>
    </g>
    <g id="Group_62" data-name="Group 62">
      <g id="Group_61" data-name="Group 61">
        <path id="Path_115" data-name="Path 115" d="M645.56,300a160.91,160.91,0,0,0-12.65-27.3,180.55,180.55,0,0,0-16.51-23.82,175.93,175.93,0,0,0-49.15-41.32,170.82,170.82,0,0,0-34.33-14.75c-23.33-7.21-48.11-8.94-72.38-6.08A161.09,161.09,0,0,0,430,193.41a202.3,202.3,0,0,0-22.91,9.18,189.56,189.56,0,0,0-21.41,12.35,175.46,175.46,0,0,0-24.81,20.45,179.21,179.21,0,0,0-33.46,45.75,160.2,160.2,0,0,0-11.35,29.21,182.53,182.53,0,0,0-6.3,31.47l-.23,1.87-.15,1.87-.27,3.74c-.29,3.43-.31,5.66-.53,7.16a4.79,4.79,0,0,1-1,2.81,14,14,0,0,1-2.7,2.4c-.47.28-.92-.66-1.12-3.74-.21-3.24-.58-4.08-1.08-3.88s-1-.54-1.49.2c-.65,1-1.07-2.09-1.57-2.55-.21-.17-.12-1.64-.06-3,.17-2.54.14-5.07.45-7.62.46-4.08.76-8.11,1.44-12.11.32-2,.54-4,1-6s.85-4,1.31-6.06c.27-1.3.6-2.66,1-4s.72-2.58,1.08-3.65c3.91-11.19,8.15-22.85,13.66-33.56,1.58-3.31,3.53-6.41,5.32-9.54.89-1.58,1.94-3,2.89-4.54s1.93-3,2.92-4.41c2.44-3.31,4.62-6.69,7.1-9.81,1.23-1.58,2.39-3.2,3.66-4.74l3.88-4.56a207.8,207.8,0,0,1,22.14-21.77c1.81-1.46,3.69-3,5.56-4.32,2.73-1.84,5.36-3.81,8.1-5.6l4.11-2.7,2-1.37,2.08-1.28a159.19,159.19,0,0,1,36.22-16.49c2.38-.86,4.77-1.43,7.13-2.11l3.54-1,3.65-1c1.81-.49,3.68-1,5.6-1.43s3.89-.67,5.85-.92c1.07-.13,2.15-.3,3.25-.47l3.31-.42c2.22-.29,4.45-.69,6.66-.88,13.07-1.26,26.12-.76,39.3.46A145.89,145.89,0,0,1,521.46,180a162.18,162.18,0,0,1,37,12.59c3.17,1.48,5.83,2.34,8.9,4.09l2.4,1.34,2.36,1.4,4.75,2.73c1.58.92,3.1,1.92,4.64,2.89s3.12,1.91,4.57,3,2.74,2,4.1,3c.69.47,1.37.93,2,1.35s1.26.85,1.85,1.2a10.74,10.74,0,0,1,1.17.83c10.07,8.15,19.76,16.51,27.93,27.22a216.5,216.5,0,0,1,20.53,32.06c1.92,3.92,4.15,7.84,5.94,11.92a158.63,158.63,0,0,1,10.46,30.51,214,214,0,0,1,5,29.21c.26,4,.41,6.37-.06,8.19-1.14,4.87-2.41,7.42-3.85,6.95,0,0-.08.1-.11,0-1.15-5.81-1.94.38-2.9,1-1.19.8-1.35.44-1.59-7.93-.33-5-.74-10-1.54-14.86A199.73,199.73,0,0,0,645.56,300Z" fill="#1a1818"/>
      </g>
    </g>
    <g id="Group_64" data-name="Group 64">
      <g id="Group_63" data-name="Group 63">
        <path id="Path_116" data-name="Path 116" d="M283.14,261.82l2-3.44c.64-1.14,1.25-2.31,1.84-3.48,1.17-2.36,2.23-4.76,3.43-7.1s2.3-4.73,3.51-7.08,2.65-4.57,4.11-6.77c9.76-14.52,21.49-27.54,33.73-39.86l2.5-2.53c.85-.83,1.75-1.61,2.62-2.41l5.29-4.77c1.82-1.52,3.68-3,5.53-4.48l2.78-2.22c.94-.72,1.92-1.4,2.88-2.09l5.78-4.14,6-3.83,3-1.9c1-.6,2.06-1.18,3.09-1.76l6.18-3.48,6.35-3.18,3.17-1.57,3.25-1.43,6.49-2.83,6.62-2.51,3.3-1.26c1.11-.4,2.24-.73,3.36-1.1l6.72-2.19c2.26-.66,4.54-1.24,6.81-1.88l3.4-.93c1.13-.32,2.29-.53,3.44-.8a236.8,236.8,0,0,1,127.12,5,146.92,146.92,0,0,1,33.66,16.45A303.87,303.87,0,0,1,621,184.69a235.19,235.19,0,0,1,35.74,37.94,253.69,253.69,0,0,1,26.65,44.94A181.66,181.66,0,0,1,695,302.84c2.77,12.08,4.4,24.32,6,36.6.19,1.59.39,3.15.66,4.69q.2,1.15.45,2.31c.13.77.29,1.53.47,2.31,1.24,5.3-1.1,8.08-3.73,9.13-2.85,1.13-3.69-2.37-3.82-5.92A211.78,211.78,0,0,0,689,308.12a231.6,231.6,0,0,0-20.8-53.47c-1.14-2.1-2.38-4.15-3.55-6.23l-1.79-3.1c-.61-1-1.28-2-1.91-3l-3.85-6L653,230.38c-.69-1-1.36-2-2.07-2.92l-2.19-2.83c-1.47-1.88-2.9-3.8-4.4-5.65-3.12-3.62-6.09-7.36-9.42-10.79l-2.53-2.74-1.26-1.38-1.32-1.31-5.27-5.3c-1.77-1.75-3.65-3.38-5.46-5.08l-2.75-2.53-2.87-2.4a161,161,0,0,0-24.37-17.27A207.06,207.06,0,0,0,519,144.74a217.44,217.44,0,0,0-39.24-2.65A253.07,253.07,0,0,0,440.66,146c-2.23.33-4.41.88-6.62,1.31s-4.43.86-6.59,1.49c-4.36,1.17-8.74,2.27-13,3.77A196.13,196.13,0,0,0,389.3,162.7a208.82,208.82,0,0,0-45.19,30.07,202.2,202.2,0,0,0-26.53,28.11A267.72,267.72,0,0,0,296.07,253c-8.71,15.07-14.93,31.55-19.36,48.39-.63,2.09-1,4.23-1.53,6.35l-1.45,6.38-1.16,6.43c-.38,2.15-.83,4.28-1.08,6.45-.58,4.32-1.33,8.62-1.7,13l-.72,6.52-.48,6.54c-.36,4.57-2.58,4.84-4.75,5-1.79.17-2.77-1.41-2.66-4.31a231.73,231.73,0,0,1,22-92Z" fill="#1a1818"/>
      </g>
    </g>
    <g id="Group_66" data-name="Group 66">
      <g id="Group_65" data-name="Group 65">
        <path id="Path_117" data-name="Path 117" d="M431.86,309.66a45.71,45.71,0,0,0-7.74,10.57c-2.15,3.87-4,7.9-5.89,11.88a22.57,22.57,0,0,0-2.05,10.65,12.12,12.12,0,0,1-.21,2.08c-.18.93-.39,2-.6,3.14A29.41,29.41,0,0,1,414,353.2c-.82,1.46-1.25-.76-1.7-2.39l0-.06,0,.11a20.76,20.76,0,0,1-1.65-7.65,29.72,29.72,0,0,1,1.91-11c1.68-4.7,2.91-9.74,5.81-14.28a53.23,53.23,0,0,1,7.06-9.37,5.23,5.23,0,0,0,.69-.64c2.24-4,6.1-7.3,9.63-10.44a42.59,42.59,0,0,1,4.06-3.41c2.2-1.5,3.9-2.8,5.9-4.41,2.65-2.11,6-3.95,9-3.83a22.74,22.74,0,0,0,6.24-2.2,24.11,24.11,0,0,1,4.48-1.8,15,15,0,0,1,4.67-.62,4.06,4.06,0,0,0,1-.13,33.8,33.8,0,0,1,10-1.42c1.68-.08,3.36.05,5,0s3.23,0,4.77,0c7.23-.29,13.22,1.41,19.38,3.86,3.6,1.38,7.79,2.43,11.57,4.41a35.6,35.6,0,0,1,4.37,2.29,11.86,11.86,0,0,0,1.52,1,31.66,31.66,0,0,1,10.54,7.24l.06.08-.06-.1a20.84,20.84,0,0,1,7.27,7.42l0,0c.08.37-.47.22.44,1.26a56.82,56.82,0,0,1,6.91,10.45,19.55,19.55,0,0,0,1.11,1.73,20,20,0,0,1,4.69,10.25,2.47,2.47,0,0,0,.11.47c2.14,2.76,2.52,7.67,3.7,11.3a19.22,19.22,0,0,1,.44,7.81c-.36,2.68-1.12,4.75-1.73,4.54-.25-.08-.48-1.09-.72-1.66v.05c-1.44-4.7-2.77-9.79-4.8-15.73-1.8-5.08-2.84-9.94-5.33-13.91-2.26-3.59-4.72-7.12-7.13-10.26-3.18-4.09-7.18-7.07-10.86-11a38.83,38.83,0,0,0-8.36-6c-6-3.55-12.46-5.7-19.07-8.1a27.78,27.78,0,0,0-4.4-1.2,17.51,17.51,0,0,0-4.63-.23H496c-4-1.08-7.83-.32-11.89-.34a58.33,58.33,0,0,0-10.3.89c-1.71.23-3.4.62-5.09.9l-5,1.05a9.54,9.54,0,0,0-2.87,1.1,26.27,26.27,0,0,1-3.23,1.61c-1.09.46-2.21.82-3.34,1.23a22.79,22.79,0,0,0-7.5,4.14,20.72,20.72,0,0,1-5.32,3.77,3.88,3.88,0,0,0-1.16.76c-2.22,3.16-6.14,5.61-8.45,8.94Z" fill="#1a1818"/>
      </g>
    </g>
    <g id="Group_73" data-name="Group 73">
      <g id="Group_69" data-name="Group 69">
        <g id="Group_67" data-name="Group 67">
          <path id="Path_118" data-name="Path 118" d="M150.76,170.6h0S150.77,170.6,150.76,170.6Z" fill="#1a1818"/>
        </g>
        <g id="Group_68" data-name="Group 68">
          <path id="Path_119" data-name="Path 119" d="M178.66,145.85a.63.63,0,0,1-.22.85,5.7,5.7,0,0,1-1.1.56c-.09,0-.3.07-.09.19.49.29.12.54.23.8.18.46-.21.32-.41.41s-.4.12-.43.35a.27.27,0,0,1-.28.25c-.64-.06-.57.54-.71.9a1,1,0,0,1-.47.57,21.17,21.17,0,0,0-2.64,1.85c-.62.44-1.14,1-1.77,1.4-.23.16-.54.07-.72.25l-.18.13c-.17.42-.27.92-.9.83-.13.51-.89.27-1,.83a.32.32,0,0,1-.15.21,6.71,6.71,0,0,0-1.79,1.48.39.39,0,0,1-.44.11c-.52.42-.79,1.13-1.49,1.35a2.61,2.61,0,0,0-1.07.82,6.33,6.33,0,0,1-1,.76,3.09,3.09,0,0,0-.56.52c-.35.41-.68.94-1.18,1s-.88.21-1,.77a.21.21,0,0,1-.27.12h0a.26.26,0,0,0-.35.09v0c-.27.68-1.08.84-1.36,1.43-.37.78-1.22.93-1.71,1.53a5.33,5.33,0,0,1-1.17,1.1,5.86,5.86,0,0,0-1.76,1.71,7.57,7.57,0,0,1-1.51,1.31.61.61,0,0,1-.5.18h0c-.06.15-.08.34-.2.41-1,.65-1.56,1.83-2.67,2.36-.3.14-.31.5-.54.71a16,16,0,0,0-2.69,2.7,1.15,1.15,0,0,1-.92.54c-.07,0-.16-.05-.15.06.08.7-.51.83-.84,1.16a49.39,49.39,0,0,0-3.69,3.83c-.61.75-1.26,1.48-1.92,2.19a1.92,1.92,0,0,1-.72.44c-.49.2-.48.21-.72-.41v0h0a2.9,2.9,0,0,1-2.15,1.27.43.43,0,0,1-.4-.16.78.78,0,0,1-.21,0c-.63-.28-.68-.38-.41-.86.05-.09.22-.17.08-.28s-.13.12-.19.19-.42.12-.63.18c-.4.12-.67.43-1.08.52-.2,0-.4.13-.59-.13s-.35-.58-.12-.82.31-.54.7-.51c0,0,.08-.1.12-.15h0c.08-.35.48-.43.52-.85,0-.2.09-.27-.09-.49-.33-.41-.32-.72,0-1,.92-.87,1.84-1.73,2.78-2.58a5.42,5.42,0,0,1,1.23-.83c.27-.13.34-.49.55-.71,1.11-1.15,2.45-2.05,3.62-3.13s2.16-2,3.25-2.93c.64-.57,1.18-1.26,1.83-1.81,1.24-1,2.32-2.22,3.64-3.17.37-.26.61-.73,1-1a11.87,11.87,0,0,0,1.75-1.41,18.06,18.06,0,0,1,2.22-2.06c.72-.58,1.34-1.27,2.06-1.84a11.82,11.82,0,0,0,1.4-1.43,2.81,2.81,0,0,1,1-.7c.31-.13.48-.5.72-.76s.35-.91,1-.69c0-.31.36-.4.46-.63.18-.42.66-.46.88-.81.11-.19.31.08.46.09s.44.2.21-.27.12-.69.61-.58c.2.05.29,0,.25-.19s0-.47.34-.43c.1,0,.23,0,.2-.12-.16-.71.58-.59.76-1,.05-.09.17-.07.26,0,.24.24.32.15.3-.09,0-.44.25-.63.52-.79.86-.5,1.5-1.28,2.34-1.8,1.14-.7,2.07-1.67,3.18-2.43a13.49,13.49,0,0,0,1.65-1.56,2.67,2.67,0,0,1,1.44-.85,3.66,3.66,0,0,0,1.55-1,.67.67,0,0,1,.6-.21.88.88,0,0,1,.66.43c.14.27.21.6,0,.77a2.85,2.85,0,0,0-.74,1.2c-.18.42-.68.64-1.05.93s-.65.49-1,.74c-.05,0-.12.06-.14.12a.29.29,0,0,0,0,.35c.11.11.17,0,.23-.06a13.47,13.47,0,0,1,2.54-1.68c.5-.31,1-.59,1.52-.88a1.2,1.2,0,0,1,.31-.13A.8.8,0,0,1,178.66,145.85Zm-47.81,37.88s0,0-.07.05.08,0,.1,0,0-.07,0-.07Zm2.2,1.9,0,0,0,0Zm2.65-1Z" fill="#1a1818"/>
        </g>
      </g>
      <g id="Group_72" data-name="Group 72">
        <g id="Group_70" data-name="Group 70">
          <path id="Path_120" data-name="Path 120" d="M147.13,160.67Z" fill="#1a1818"/>
        </g>
        <g id="Group_71" data-name="Group 71">
          <path id="Path_121" data-name="Path 121" d="M171.08,185.38a.58.58,0,0,1-.81-.13h0a4.24,4.24,0,0,1-.55-1c0-.09-.06-.29-.19-.07-.27.49-.51.16-.77.28-.44.22-.31-.17-.4-.35s-.11-.37-.34-.39a.23.23,0,0,1-.24-.22v0c.06-.61-.52-.5-.87-.6a.8.8,0,0,1-.55-.41,18.13,18.13,0,0,0-1.8-2.38c-.43-.55-.95-1-1.36-1.58-.15-.2-.06-.51-.24-.67l-.13-.16c-.41-.12-.89-.18-.8-.79-.49-.08-.27-.83-.8-.87a.26.26,0,0,1-.2-.13,6.06,6.06,0,0,0-1.44-1.59.36.36,0,0,1-.11-.41c-.4-.47-1.09-.66-1.3-1.32a2.18,2.18,0,0,0-.8-1,6.63,6.63,0,0,1-.74-.85,2.37,2.37,0,0,0-.5-.5c-.39-.3-.91-.58-1-1s-.2-.83-.74-.87a.17.17,0,0,1-.13-.22v0c.07-.18,0-.3-.11-.34-.66-.2-.81-1-1.38-1.19-.76-.29-.9-1.09-1.48-1.51a4.32,4.32,0,0,1-1.06-1,5.24,5.24,0,0,0-1.66-1.55,6.41,6.41,0,0,1-1.26-1.34.58.58,0,0,1-.19-.46h0v-.05c-.13,0-.32-.06-.39-.16-.63-.92-1.77-1.35-2.28-2.38-.14-.27-.49-.25-.69-.45a13.66,13.66,0,0,0-2.62-2.36,1,1,0,0,1-.52-.83c0-.07,0-.16-.06-.14-.67.12-.8-.42-1.12-.72a43.53,43.53,0,0,0-3.7-3.22c-.73-.53-1.43-1.09-2.12-1.66a1.66,1.66,0,0,1-.42-.66c-.19-.45-.21-.44.39-.72h0a2.51,2.51,0,0,1-1.22-2,.43.43,0,0,1,.14-.4,1.42,1.42,0,0,1,0-.2c.27-.62.37-.68.83-.46.09,0,.17.2.27.06s-.12-.12-.18-.17-.12-.39-.18-.59c-.11-.37-.42-.6-.5-1,0-.18-.13-.37.12-.57s.56-.38.79-.18.52.25.49.63c0,0,.1.07.15.1h0c.34,0,.42.41.82.42.19,0,.26.06.47-.12.4-.35.7-.37,1-.09.84.81,1.67,1.62,2.5,2.45a4.43,4.43,0,0,1,.8,1.11c.12.24.47.28.69.47,1.11,1,2,2.17,3,3.21s1.9,1.91,2.84,2.88c.55.56,1.22,1,1.75,1.61,1,1.1,2.16,2,3.07,3.22.26.33.71.53,1,.87a9.69,9.69,0,0,0,1.37,1.56,16.74,16.74,0,0,1,2,2c.56.64,1.22,1.18,1.78,1.82a10.11,10.11,0,0,0,1.38,1.23,2.67,2.67,0,0,1,.69.94c.12.29.48.42.73.63s.88.26.67.93c.3,0,.38.31.61.39.4.14.44.59.78.77.19.1-.08.31-.08.45s-.19.44.26.18.66.06.55.54c0,.2,0,.28.19.23s.46,0,.41.29c0,.1,0,.21.12.18.69-.22.58.5,1,.65.09,0,.07.16,0,.25-.23.25-.14.32.09.28a.7.7,0,0,1,.76.44c.49.78,1.24,1.33,1.75,2.1.68,1,1.62,1.84,2.35,2.84a11,11,0,0,0,1.52,1.45,2.42,2.42,0,0,1,.82,1.32c.13.62.63,1,1,1.4a.59.59,0,0,1,.22.56,1,1,0,0,1-.42.66c-.26.17-.57.26-.74.07a2.59,2.59,0,0,0-1.17-.61c-.4-.13-.61-.6-.9-.92s-.47-.58-.71-.87c0,0-.06-.11-.12-.13a.29.29,0,0,0-.33.07c-.1.11,0,.17.06.21a12.29,12.29,0,0,1,1.63,2.3c.3.46.57.93.85,1.4a1.18,1.18,0,0,1,.12.28A.78.78,0,0,1,171.08,185.38Zm-36.69-42.71s0,0,0-.07,0,.08,0,.1.07,0,.07,0Zm-1.82,2.25,0,0,0,0Zm1,2.45Z" fill="#1a1818"/>
        </g>
      </g>
    </g>
    <g id="Group_112" data-name="Group 112">
      <g id="Group_92" data-name="Group 92">
        <g id="Group_76" data-name="Group 76">
          <g id="Group_74" data-name="Group 74">
            <path id="Path_122" data-name="Path 122" d="M733.37,186Z" fill="#1a1818"/>
          </g>
          <g id="Group_75" data-name="Group 75">
            <path id="Path_123" data-name="Path 123" d="M751.51,185.86c0,.3-.2.58-.36.49s-.39-.09-.58-.3c0-.05-.13-.15-.09.08.08.54-.13.48-.18.75-.08.47-.18.1-.28,0s-.18-.17-.27,0-.14.1-.18,0c-.21-.47-.38,0-.55.21s-.22.18-.36.11a5.45,5.45,0,0,0-1.55-.35c-.37-.07-.73,0-1.1-.11-.14,0-.22-.31-.35-.29l-.1,0c-.2.21-.4.52-.6,0-.21.3-.42-.39-.63,0,0,.06-.08.08-.12.06a1.69,1.69,0,0,0-1.13-.07c-.07,0-.15,0-.2-.2-.32,0-.65.33-1,0s-.44-.13-.66-.09a1.67,1.67,0,0,1-.59-.05.67.67,0,0,0-.37,0c-.26.08-.55.26-.77,0s-.39-.42-.6-.06c0,0-.1.07-.13-.08s-.12-.22-.17-.16c-.32.33-.66-.08-1,.18s-.74-.11-1.11,0a1.3,1.3,0,0,1-.78.06,1.46,1.46,0,0,0-1.19.12c-.32.15-.65,0-1,0a.25.25,0,0,1-.24-.18h0s0,0,0,0-.14.19-.2.17c-.58-.18-1.16.35-1.74,0-.15-.09-.27.18-.43.18a3.92,3.92,0,0,0-1.85.26c-.16.09-.34,0-.5-.2,0,0,0-.14-.08-.06-.2.58-.45.29-.68.32a12.45,12.45,0,0,0-2.57.44,11.27,11.27,0,0,1-1.41.38.59.59,0,0,1-.4-.15c-.24-.18-.24-.16-.13-.79h0c-.41.18-.81.12-1.19-.47a.7.7,0,0,1-.1-.38l-.06-.17c-.14-.62-.12-.73.13-.91,0,0,.13,0,.12-.16s-.09,0-.13,0-.2-.19-.29-.28-.38-.11-.56-.32a.54.54,0,0,1-.18-.49c0-.35.06-.67.23-.69s.28-.2.41.08c0,0,.06,0,.09,0h0c.14-.22.31,0,.46-.3a.63.63,0,0,0,.13-.43c0-.53.11-.76.32-.77.62-.05,1.23-.09,1.85-.1a1.26,1.26,0,0,1,.71.19c.14.08.28-.15.43-.18a22.65,22.65,0,0,1,2.33,0c.71,0,1.42,0,2.13,0,.41,0,.83-.17,1.25-.14a15.23,15.23,0,0,1,2.34,0c.22,0,.46-.14.69-.1a2.52,2.52,0,0,0,1.09.09,4.85,4.85,0,0,1,1.47-.08c.45,0,.9-.06,1.35,0a2.89,2.89,0,0,0,1-.14.75.75,0,0,1,.61.16c.15.1.33-.07.5-.1s.42-.45.6.16c.11-.21.25-.06.37-.17s.38.09.58,0,.08.27.13.37.1.44.17-.06.26-.43.41,0c.06.17.11.18.15,0s.16-.34.26-.1c0,.08.09.14.11,0,.17-.65.4-.07.6-.23,0,0,.08.05.09.18,0,.34.07.32.13.13.13-.36.3-.3.45-.24.47.19,1,0,1.43.19.65.22,1.3.11,1.94.27a3,3,0,0,0,1.11-.09.83.83,0,0,1,.8.32c.28.33.6.21.9.24.11,0,.21,0,.29.23a1.68,1.68,0,0,1,.1.77c0,.3-.11.58-.24.58s-.44.19-.66.41-.45,0-.68,0-.4-.06-.59-.09c0,0-.06,0-.09,0a.37.37,0,0,0-.1.29c0,.15.07.11.1.1a3.5,3.5,0,0,1,1.47.42c.28.1.56.22.84.35a.65.65,0,0,1,.15.1A1.19,1.19,0,0,1,751.51,185.86Zm-29.63-3.13a0,0,0,0,0,0,0s0,.08,0,.08,0,0,0-.07Zm.19,2.88v0Zm1.3,1Z" fill="#1a1818"/>
          </g>
        </g>
        <g id="Group_79" data-name="Group 79">
          <g id="Group_77" data-name="Group 77">
            <path id="Path_124" data-name="Path 124" d="M753.81,234.42Z" fill="#1a1818"/>
          </g>
          <g id="Group_78" data-name="Group 78">
            <path id="Path_125" data-name="Path 125" d="M771.94,234.26c0,.3-.2.59-.35.49s-.4-.08-.58-.3c0,0-.14-.15-.1.09.09.54-.13.48-.18.75-.07.47-.17.1-.27,0s-.19-.18-.28,0-.13.1-.18,0c-.21-.47-.38,0-.55.21s-.22.18-.35.11a5,5,0,0,0-1.56-.35c-.37-.07-.73,0-1.1-.11-.13,0-.22-.31-.34-.29l-.11,0c-.2.21-.39.52-.6,0-.21.3-.41-.38-.62,0,0,.06-.09.08-.12.06a1.63,1.63,0,0,0-1.13-.07c-.07,0-.15,0-.2-.2-.33,0-.66.33-1,0s-.44-.12-.66-.08a1.47,1.47,0,0,1-.59-.06.78.78,0,0,0-.37,0c-.26.08-.55.26-.77,0s-.39-.42-.6-.06c0,0-.1.07-.13-.09s-.12-.21-.17-.15c-.32.33-.67-.08-1,.18s-.74-.11-1.11,0a1.23,1.23,0,0,1-.78.05,1.5,1.5,0,0,0-1.19.13c-.32.15-.65,0-1,0a.26.26,0,0,1-.24-.18v0h0s0,0,0,0-.14.2-.21.17c-.58-.18-1.16.34-1.73,0-.16-.09-.28.17-.43.18a3.9,3.9,0,0,0-1.85.25c-.16.09-.35.06-.51-.2,0,0,0-.14-.07-.06-.2.58-.45.29-.68.32a12.55,12.55,0,0,0-2.58.44,11.6,11.6,0,0,1-1.4.38.53.53,0,0,1-.4-.15c-.24-.17-.25-.15-.14-.78v0h0c-.42.17-.82.11-1.19-.47a.62.62,0,0,1-.1-.38.49.49,0,0,1-.06-.17c-.14-.62-.13-.73.12-.91.05,0,.14,0,.12-.16s-.08,0-.13,0-.19-.19-.29-.28-.38-.12-.56-.32a.52.52,0,0,1-.17-.49c0-.35.06-.67.22-.7s.28-.2.42.09c0,0,.06,0,.09,0h0c.14-.21.31,0,.46-.29a.66.66,0,0,0,.12-.43c0-.53.12-.75.33-.77.61,0,1.23-.09,1.84-.1a1.41,1.41,0,0,1,.72.19c.13.08.28-.15.43-.17a20,20,0,0,1,2.32,0c.71,0,1.42-.05,2.13-.06.42,0,.84-.16,1.25-.14a14.19,14.19,0,0,1,2.35,0c.22,0,.46-.15.68-.1a2.92,2.92,0,0,0,1.1.09,4.54,4.54,0,0,1,1.47-.08c.45,0,.9-.07,1.34,0a2.89,2.89,0,0,0,1-.15.78.78,0,0,1,.61.16c.15.11.34-.06.51-.1s.41-.45.6.16c.11-.2.25-.05.36-.16s.39.09.59,0,.08.26.14.37.1.44.16-.06.26-.44.41,0c.06.17.11.18.15,0s.16-.35.26-.1c0,.08.09.14.11,0,.17-.64.4-.06.6-.23,0,0,.08.06.09.18,0,.34.06.33.13.14.13-.36.3-.31.45-.25.47.19,1,0,1.43.2.65.22,1.3.11,1.94.27a3.46,3.46,0,0,0,1.11-.09.81.81,0,0,1,.8.31c.28.34.6.22.9.24.11,0,.21,0,.29.24a1.63,1.63,0,0,1,.1.76c0,.3-.11.59-.24.59s-.44.19-.66.41-.45,0-.68,0-.39-.06-.59-.09c0,0-.07,0-.09,0a.35.35,0,0,0-.1.29c0,.15.06.11.1.1a3.56,3.56,0,0,1,1.46.42c.29.1.56.23.84.35a.4.4,0,0,1,.15.1A1.13,1.13,0,0,1,771.94,234.26Zm-29.62-3.13s0,0-.05,0l0,.09S742.33,231.17,742.32,231.13Zm.19,2.88v0Zm1.3,1S743.81,235,743.81,235Z" fill="#1a1818"/>
          </g>
        </g>
        <g id="Group_82" data-name="Group 82">
          <g id="Group_80" data-name="Group 80">
            <path id="Path_126" data-name="Path 126" d="M678.61,182.26Z" fill="#1a1818"/>
          </g>
          <g id="Group_81" data-name="Group 81">
            <path id="Path_127" data-name="Path 127" d="M696.74,182.1c0,.3-.2.59-.35.49s-.4-.08-.58-.3c0,0-.14-.15-.1.09.09.54-.13.48-.17.75-.08.47-.18.1-.29,0s-.18-.17-.27,0-.13.1-.18,0c-.21-.47-.38,0-.55.21s-.22.18-.35.11a5.27,5.27,0,0,0-1.56-.35c-.37-.07-.73,0-1.1-.11-.14,0-.22-.31-.34-.29l-.11,0c-.2.21-.4.52-.6,0-.21.3-.42-.39-.63,0,0,.06-.08.08-.12.06a1.63,1.63,0,0,0-1.13-.07c-.07,0-.14,0-.19-.21-.33,0-.65.33-1,0a.65.65,0,0,0-.65-.09,1.75,1.75,0,0,1-.6,0,.77.77,0,0,0-.37,0c-.26.08-.55.26-.77,0s-.38-.43-.6-.06c0,0-.1.06-.13-.09s-.12-.21-.17-.15c-.32.33-.66-.08-1,.17s-.74-.1-1.11,0a1.17,1.17,0,0,1-.78.06,1.5,1.5,0,0,0-1.19.12c-.32.16-.65,0-1,0a.26.26,0,0,1-.25-.19h0s0,0,0,0-.14.19-.2.17c-.58-.18-1.16.35-1.74,0-.15-.09-.27.18-.42.18a3.88,3.88,0,0,0-1.85.26c-.17.09-.35,0-.51-.21,0,0-.05-.14-.07,0-.2.57-.46.29-.69.32a11.82,11.82,0,0,0-2.57.44,11.24,11.24,0,0,1-1.41.37.5.5,0,0,1-.4-.15c-.24-.17-.24-.15-.13-.78h0c-.41.17-.82.11-1.19-.47a.66.66,0,0,1-.1-.38.58.58,0,0,1-.06-.17c-.14-.63-.13-.73.12-.92,0,0,.14,0,.12-.15s-.08,0-.13,0-.19-.18-.28-.27-.39-.12-.57-.33a.53.53,0,0,1-.17-.49c0-.35.06-.67.22-.69s.29-.2.42.08c0,0,.06,0,.09,0h0c.14-.22.31,0,.46-.3a.64.64,0,0,0,.13-.42c0-.53.11-.76.32-.77.62-.05,1.23-.09,1.84-.1a1.29,1.29,0,0,1,.72.18c.14.08.28-.14.43-.17a20.13,20.13,0,0,1,2.33,0c.71,0,1.42,0,2.13,0,.41,0,.83-.17,1.25-.15a16.62,16.62,0,0,1,2.34,0c.22,0,.46-.14.69-.1a2.85,2.85,0,0,0,1.09.09,4.83,4.83,0,0,1,1.47-.08c.45,0,.9-.06,1.35,0a2.92,2.92,0,0,0,1-.14.73.73,0,0,1,.6.16c.16.1.34-.07.5-.1s.42-.46.6.16c.12-.21.26-.06.37-.17s.39.09.58,0,.09.27.14.37.1.44.17-.06.26-.44.4,0c.06.17.12.18.16,0s.16-.34.26-.1c0,.08.09.14.11,0,.17-.65.4-.07.6-.24,0,0,.08.06.08.19,0,.34.07.32.14.13.13-.36.3-.3.44-.25.48.19,1,0,1.44.2.64.22,1.29.11,1.94.27a3.2,3.2,0,0,0,1.11-.09.81.81,0,0,1,.8.32c.28.33.6.21.9.23.11,0,.21,0,.29.24a1.63,1.63,0,0,1,.1.76c0,.3-.11.59-.25.59s-.43.19-.65.41-.45,0-.68,0-.39-.06-.59-.09c0,0-.07,0-.09,0a.37.37,0,0,0-.1.3c0,.15.06.1.1.1a3.55,3.55,0,0,1,1.46.41c.28.1.56.23.84.35a.58.58,0,0,1,.15.11A1.12,1.12,0,0,1,696.74,182.1ZM667.12,179s0,0,0,0,0,.09,0,.09,0,0,0-.07Zm.19,2.87v0Zm1.3,1S668.61,182.83,668.61,182.82Z" fill="#1a1818"/>
          </g>
        </g>
        <g id="Group_85" data-name="Group 85">
          <g id="Group_83" data-name="Group 83">
            <path id="Path_128" data-name="Path 128" d="M693.81,199.2Z" fill="#1a1818"/>
          </g>
          <g id="Group_84" data-name="Group 84">
            <path id="Path_129" data-name="Path 129" d="M711.94,199c0,.3-.2.59-.35.49s-.4-.09-.58-.3c0,0-.14-.15-.1.09.09.54-.13.48-.17.75-.08.47-.18.1-.28,0s-.19-.18-.28,0-.13.1-.17,0c-.22-.47-.39,0-.56.21s-.22.18-.35.11a5,5,0,0,0-1.56-.35c-.37-.07-.73,0-1.1-.11-.13,0-.21-.31-.34-.29l-.11,0c-.2.21-.39.52-.6,0-.2.3-.41-.38-.62,0,0,.06-.08.08-.12.06a1.63,1.63,0,0,0-1.13-.07c-.07,0-.15,0-.2-.2-.32,0-.65.33-1,0s-.43-.12-.65-.08a1.47,1.47,0,0,1-.59-.06.78.78,0,0,0-.37,0c-.26.08-.55.26-.77,0s-.39-.42-.6-.06c0,0-.1.07-.14-.09s-.11-.21-.16-.15c-.32.33-.67-.08-1,.18s-.74-.11-1.11,0a1.23,1.23,0,0,1-.78.05,1.54,1.54,0,0,0-1.19.12c-.32.16-.65,0-1,0a.26.26,0,0,1-.24-.19h0s0,0,0,0-.14.19-.2.17c-.58-.19-1.16.34-1.74,0-.15-.09-.27.18-.43.18a3.91,3.91,0,0,0-1.85.25c-.16.09-.34.06-.5-.2,0,0-.05-.13-.08,0-.2.57-.45.29-.68.32a11.82,11.82,0,0,0-2.57.44,11.24,11.24,0,0,1-1.41.37.53.53,0,0,1-.4-.14c-.24-.18-.24-.16-.13-.79h0c-.41.17-.81.11-1.19-.47a.7.7,0,0,1-.1-.38l-.06-.17c-.14-.63-.12-.73.13-.92,0,0,.13,0,.12-.15s-.09,0-.13,0-.2-.18-.29-.27-.38-.12-.56-.33a.52.52,0,0,1-.18-.48c0-.35.06-.67.23-.7s.28-.2.41.08c0,0,.06,0,.09,0h0c.14-.21.32,0,.46-.3a.6.6,0,0,0,.13-.43c0-.52.11-.75.32-.77.62,0,1.23-.08,1.85-.1a1.45,1.45,0,0,1,.71.19c.14.08.28-.14.43-.17a20.13,20.13,0,0,1,2.33,0c.71,0,1.42,0,2.13-.05.41,0,.83-.17,1.25-.15a15.23,15.23,0,0,1,2.34,0c.22,0,.46-.14.69-.1a2.87,2.87,0,0,0,1.09.09,4.54,4.54,0,0,1,1.47-.08c.45,0,.9-.07,1.35,0a2.92,2.92,0,0,0,1-.14.73.73,0,0,1,.6.15c.16.11.34-.06.5-.1s.42-.45.6.17c.12-.21.26-.06.37-.17s.39.09.59,0,.08.26.13.37.1.44.17-.06.26-.44.41,0c.06.17.11.18.15,0s.16-.35.26-.1c0,.08.09.14.11,0,.17-.65.4-.07.6-.24,0,0,.08.06.08.18,0,.34.07.33.14.14.13-.36.3-.31.45-.25.47.19,1,0,1.43.2.64.22,1.29.11,1.94.27a3.46,3.46,0,0,0,1.11-.09.83.83,0,0,1,.8.31c.28.34.6.22.9.24.11,0,.21,0,.29.24a1.63,1.63,0,0,1,.1.76c0,.3-.11.59-.24.59s-.44.18-.66.41-.45,0-.68,0-.4-.06-.59-.09c0,0-.06,0-.09,0a.41.41,0,0,0-.1.3c0,.15.07.1.1.1a3.64,3.64,0,0,1,1.47.41c.28.1.56.23.83.35a.57.57,0,0,1,.16.11A1.12,1.12,0,0,1,711.94,199Zm-29.62-3.13s0,0-.05,0a.3.3,0,0,0,0,.09.05.05,0,0,0,0-.07Zm.19,2.88v0Zm1.3,1S683.81,199.77,683.81,199.75Z" fill="#1a1818"/>
          </g>
        </g>
        <g id="Group_88" data-name="Group 88">
          <g id="Group_86" data-name="Group 86">
            <path id="Path_130" data-name="Path 130" d="M729.45,199.2Z" fill="#1a1818"/>
          </g>
          <g id="Group_87" data-name="Group 87">
            <path id="Path_131" data-name="Path 131" d="M747.58,199c0,.3-.2.59-.35.49s-.39-.09-.58-.3c0,0-.13-.15-.1.09.09.54-.13.48-.17.75-.08.47-.18.1-.28,0s-.18-.18-.27,0-.14.1-.18,0c-.22-.47-.38,0-.55.21s-.23.18-.36.11a4.91,4.91,0,0,0-1.56-.35c-.36-.07-.73,0-1.09-.11-.14,0-.22-.31-.35-.29l-.1,0c-.2.21-.4.52-.6,0-.21.3-.42-.38-.63,0,0,.06-.08.08-.12.06a1.63,1.63,0,0,0-1.13-.07c-.07,0-.14,0-.2-.2-.32,0-.65.33-1,0s-.43-.12-.65-.08a1.47,1.47,0,0,1-.59-.06.77.77,0,0,0-.37,0c-.26.08-.55.26-.77,0s-.39-.42-.6-.06c0,0-.1.07-.14-.09s-.11-.21-.17-.15c-.31.33-.66-.08-1,.18s-.74-.11-1.11,0a1.23,1.23,0,0,1-.78.05,1.54,1.54,0,0,0-1.19.12c-.32.16-.65,0-1,0a.26.26,0,0,1-.24-.19h0s0,0,0,0-.14.19-.2.17c-.58-.19-1.16.34-1.74,0-.15-.09-.27.18-.43.18a3.91,3.91,0,0,0-1.85.25c-.16.09-.34.06-.5-.2,0,0-.05-.13-.08,0-.2.57-.45.29-.68.32a11.82,11.82,0,0,0-2.57.44,11.24,11.24,0,0,1-1.41.37.53.53,0,0,1-.4-.14c-.24-.18-.24-.16-.13-.79h0c-.42.17-.82.11-1.19-.47a.64.64,0,0,1-.1-.38.49.49,0,0,1-.06-.17c-.14-.63-.13-.73.12-.92,0,0,.14,0,.12-.15s-.08,0-.13,0-.19-.18-.28-.27-.39-.12-.57-.33a.51.51,0,0,1-.17-.48c0-.35.06-.67.22-.7s.28-.2.42.08c0,0,.06,0,.09,0h0c.14-.21.31,0,.46-.3a.59.59,0,0,0,.12-.43c0-.52.12-.75.33-.77.61,0,1.23-.08,1.84-.1a1.41,1.41,0,0,1,.72.19c.13.08.28-.14.43-.17a20,20,0,0,1,2.32,0c.71,0,1.42,0,2.13-.05.42,0,.84-.17,1.25-.15a15.36,15.36,0,0,1,2.35,0c.22,0,.46-.14.69-.1a2.85,2.85,0,0,0,1.09.09,4.54,4.54,0,0,1,1.47-.08c.45,0,.9-.07,1.34,0a2.89,2.89,0,0,0,1-.14.74.74,0,0,1,.61.15c.16.11.34-.06.51-.1s.42-.45.6.17c.11-.21.25-.06.36-.17s.39.09.59,0,.08.26.14.37.1.44.16-.06.26-.44.41,0c.06.17.11.18.15,0s.16-.35.26-.1c0,.08.09.14.11,0,.17-.65.4-.07.6-.24s.09.06.09.18c0,.34.07.33.14.14.13-.36.3-.31.44-.25.48.19,1,0,1.44.2.64.22,1.29.11,1.94.27a3.48,3.48,0,0,0,1.11-.09.83.83,0,0,1,.8.31c.28.34.6.22.9.24.1,0,.2,0,.29.24a1.77,1.77,0,0,1,.1.76c0,.3-.12.59-.25.59s-.43.18-.65.41-.45,0-.68,0-.4-.06-.59-.09c0,0-.07,0-.1,0a.41.41,0,0,0-.1.3c0,.15.07.1.1.1a3.55,3.55,0,0,1,1.47.41c.28.1.56.23.84.35a.42.42,0,0,1,.15.11A1.12,1.12,0,0,1,747.58,199ZM718,195.91s0,0,0,0a.41.41,0,0,0,0,.09s0,0,0-.07Zm.19,2.88v0Zm1.3,1S719.45,199.77,719.45,199.75Z" fill="#1a1818"/>
          </g>
        </g>
        <g id="Group_91" data-name="Group 91">
          <g id="Group_89" data-name="Group 89">
            <path id="Path_132" data-name="Path 132" d="M657,199.2h0S657,199.21,657,199.2Z" fill="#1a1818"/>
          </g>
          <g id="Group_90" data-name="Group 90">
            <path id="Path_133" data-name="Path 133" d="M675.12,199c0,.3-.2.59-.35.49s-.4-.09-.58-.3c0,0-.14-.15-.1.09.09.54-.13.48-.17.75-.08.47-.18.1-.28,0s-.19-.18-.28,0-.13.1-.18,0c-.21-.47-.38,0-.55.21s-.22.18-.35.11a5.2,5.2,0,0,0-1.56-.35c-.36-.07-.73,0-1.1-.11-.13,0-.22-.31-.34-.29l-.11,0c-.2.21-.39.52-.6,0-.21.3-.41-.38-.62,0,0,.06-.09.08-.13.06a1.63,1.63,0,0,0-1.13-.07c-.07,0-.14,0-.19-.2-.33,0-.65.33-1,0s-.43-.12-.65-.08a1.47,1.47,0,0,1-.59-.06.82.82,0,0,0-.38,0c-.25.08-.54.26-.76,0s-.39-.42-.6-.06c0,0-.1.07-.14-.09s-.11-.21-.17-.15c-.31.33-.66-.08-1,.18s-.74-.11-1.12,0a1.2,1.2,0,0,1-.77.05,1.57,1.57,0,0,0-1.2.12c-.31.16-.64,0-1,0a.26.26,0,0,1-.24-.19h0l0,0c-.07.06-.14.19-.2.17-.58-.19-1.16.34-1.74,0-.15-.09-.27.18-.42.18a3.88,3.88,0,0,0-1.85.25c-.17.09-.35.06-.51-.2,0,0,0-.13-.07,0-.2.57-.46.29-.69.32a11.82,11.82,0,0,0-2.57.44,11.24,11.24,0,0,1-1.41.37.53.53,0,0,1-.4-.14c-.24-.18-.24-.16-.13-.79h0c-.41.17-.81.11-1.19-.47a.64.64,0,0,1-.1-.38.85.85,0,0,1-.06-.17c-.14-.63-.13-.73.12-.92,0,0,.14,0,.12-.15s-.08,0-.13,0-.19-.18-.28-.27-.38-.12-.57-.33a.54.54,0,0,1-.17-.48c0-.35.06-.67.22-.7s.29-.2.42.08c0,0,.06,0,.09,0h0c.14-.21.31,0,.46-.3a.65.65,0,0,0,.13-.43c0-.52.11-.75.32-.77.61,0,1.23-.08,1.84-.1a1.41,1.41,0,0,1,.72.19c.14.08.28-.14.43-.17a20,20,0,0,1,2.32,0c.71,0,1.42,0,2.13-.05.42,0,.84-.17,1.25-.15a15.36,15.36,0,0,1,2.35,0c.22,0,.46-.14.68-.1a2.92,2.92,0,0,0,1.1.09,4.54,4.54,0,0,1,1.47-.08c.45,0,.9-.07,1.34,0a2.89,2.89,0,0,0,1-.14.74.74,0,0,1,.61.15c.15.11.33-.06.5-.1s.42-.45.6.17c.11-.21.26-.06.37-.17s.39.09.58,0,.09.26.14.37.1.44.16-.06.27-.44.41,0c.06.17.11.18.15,0s.16-.35.27-.1c0,.08.08.14.11,0,.17-.65.4-.07.59-.24s.09.06.09.18c0,.34.07.33.14.14.13-.36.3-.31.44-.25.48.19,1,0,1.44.2.64.22,1.29.11,1.94.27a3.39,3.39,0,0,0,1.1-.09.81.81,0,0,1,.8.31c.29.34.6.22.9.24.11,0,.21,0,.29.24a1.51,1.51,0,0,1,.1.76c0,.3-.11.59-.24.59s-.44.18-.65.41-.46,0-.68,0l-.6-.09s-.06,0-.09,0a.41.41,0,0,0-.1.3c0,.15.07.1.1.1a3.55,3.55,0,0,1,1.47.41c.28.1.56.23.84.35a.42.42,0,0,1,.15.11A1.12,1.12,0,0,1,675.12,199Zm-29.62-3.13s0,0,0,0a.3.3,0,0,0,0,.09.05.05,0,0,0,0-.07Zm.19,2.88v0Zm1.3,1S647,199.77,647,199.75Z" fill="#1a1818"/>
          </g>
        </g>
      </g>
      <g id="Group_111" data-name="Group 111">
        <g id="Group_95" data-name="Group 95">
          <g id="Group_93" data-name="Group 93">
            <path id="Path_134" data-name="Path 134" d="M703.71,257.63Z" fill="#9a673d"/>
          </g>
          <g id="Group_94" data-name="Group 94">
            <path id="Path_135" data-name="Path 135" d="M685.57,257.79c0-.3.2-.58.36-.49s.4.09.58.3c0,0,.13.15.09-.08-.08-.54.13-.49.18-.76.08-.46.18-.1.28,0s.18.17.27,0,.14-.1.18,0c.21.46.38,0,.55-.21s.22-.19.35-.12a5.28,5.28,0,0,0,1.56.36c.37.07.73,0,1.1.11.14,0,.22.31.34.29l.11,0c.2-.21.4-.51.6,0,.21-.3.41.39.63,0a.09.09,0,0,1,.12-.05,1.69,1.69,0,0,0,1.13.07c.07,0,.15,0,.2.2.32,0,.65-.33,1,0s.43.13.65.09a1.47,1.47,0,0,1,.59.06.77.77,0,0,0,.37,0c.26-.08.55-.26.77,0s.39.42.6.06c0,0,.1-.07.14.09s.11.21.17.15c.31-.33.66.08.95-.18s.74.11,1.12,0a1.26,1.26,0,0,1,.77-.06,1.48,1.48,0,0,0,1.2-.12c.31-.15.64,0,1,0a.25.25,0,0,1,.24.18h0l0,0c.06-.06.14-.19.2-.17.58.18,1.16-.34,1.74,0,.15.09.27-.18.42-.18a3.76,3.76,0,0,0,1.85-.26c.16-.08.35-.05.51.21,0,0,0,.14.07.05.2-.57.46-.28.69-.31a13.16,13.16,0,0,0,2.57-.44,11.27,11.27,0,0,1,1.41-.38.56.56,0,0,1,.4.15c.24.17.24.15.13.78h0c.42-.17.82-.1,1.2.47a.75.75,0,0,1,.1.38l.06.17c.14.63.12.73-.13.92-.05,0-.14,0-.12.15s.08,0,.13,0,.19.18.29.28.38.11.56.32a.54.54,0,0,1,.18.49c0,.35-.06.67-.23.69s-.28.2-.42-.08c0,0-.05,0-.08,0h0c-.14.21-.32,0-.46.29a.6.6,0,0,0-.13.43c0,.53-.12.75-.33.77-.61,0-1.22.09-1.84.1a1.35,1.35,0,0,1-.71-.19c-.14-.08-.29.15-.43.17a20.13,20.13,0,0,1-2.33,0c-.71,0-1.42,0-2.13.06-.41,0-.83.16-1.25.14a15.23,15.23,0,0,1-2.34,0c-.22,0-.46.15-.69.1a2.87,2.87,0,0,0-1.09-.09,4.55,4.55,0,0,1-1.47.08c-.45,0-.9.07-1.35,0a2.93,2.93,0,0,0-1,.15.77.77,0,0,1-.6-.16c-.16-.1-.34.06-.51.1s-.42.45-.6-.16c-.12.21-.26.06-.37.16s-.39-.09-.58,0-.09-.26-.14-.37-.1-.44-.17.06-.26.44-.4,0c-.06-.17-.11-.18-.16,0s-.16.35-.26.1c0-.08-.09-.14-.11,0-.17.64-.4.06-.59.23s-.09-.06-.09-.18c0-.34-.07-.33-.14-.14-.13.36-.3.31-.44.25-.48-.19-1,0-1.44-.19a15.88,15.88,0,0,0-1.94-.27,3.21,3.21,0,0,0-1.11.08.81.81,0,0,1-.8-.31c-.28-.34-.6-.22-.9-.24-.1,0-.21,0-.29-.24a1.77,1.77,0,0,1-.1-.76c0-.3.12-.59.25-.58s.43-.19.65-.42.45,0,.68,0a5.58,5.58,0,0,1,.59.09s.07,0,.1,0a.4.4,0,0,0,.1-.29c0-.16-.07-.11-.1-.1a3.72,3.72,0,0,1-1.47-.42c-.28-.1-.56-.23-.84-.35a.42.42,0,0,1-.15-.11A1.15,1.15,0,0,1,685.57,257.79Zm29.63,3.13s0,0,0,0a.16.16,0,0,0,0-.09s0,.05,0,.08ZM715,258v0Zm-1.3-1Z" fill="#9a673d"/>
          </g>
        </g>
        <g id="Group_98" data-name="Group 98">
          <g id="Group_96" data-name="Group 96">
            <path id="Path_136" data-name="Path 136" d="M683.27,209.23Z" fill="#9a673d"/>
          </g>
          <g id="Group_97" data-name="Group 97">
            <path id="Path_137" data-name="Path 137" d="M665.14,209.39c0-.3.2-.59.35-.49s.4.08.58.3c0,0,.14.15.1-.09-.09-.54.13-.48.17-.75.08-.47.18-.1.28,0s.19.18.27,0,.14-.1.19,0c.21.47.38,0,.54-.21s.23-.18.36-.11a5.2,5.2,0,0,0,1.56.35c.36.07.73,0,1.1.11.13,0,.22.31.34.3l.11,0c.2-.21.39-.52.6,0,.21-.3.41.38.62,0,0-.06.09-.08.13-.06a1.63,1.63,0,0,0,1.13.07c.07,0,.14,0,.19.2.33,0,.65-.33,1,0s.44.12.65.08a1.54,1.54,0,0,1,.6.06.78.78,0,0,0,.37,0c.25-.08.55-.26.76,0s.39.42.6.06c0,0,.1-.07.14.09s.11.21.17.15c.32-.33.66.08,1-.18s.74.11,1.11,0a1.3,1.3,0,0,1,.78-.06,1.46,1.46,0,0,0,1.19-.12c.31-.15.65,0,1,0a.25.25,0,0,1,.24.18h0l0,0c.07-.06.14-.19.2-.17.58.19,1.16-.34,1.73,0,.16.09.28-.18.43-.18a3.78,3.78,0,0,0,1.85-.26c.16-.08.35-.05.51.21,0,0,0,.14.07,0,.2-.57.45-.28.68-.31a13.26,13.26,0,0,0,2.58-.44,10,10,0,0,1,1.4-.38.53.53,0,0,1,.4.15c.25.17.25.15.14.78h0c.41-.17.81-.1,1.19.48a.7.7,0,0,1,.1.38l.06.17c.14.62.12.73-.13.91,0,0-.13,0-.12.16s.09,0,.13,0,.2.19.29.28.38.12.56.32a.54.54,0,0,1,.18.49c0,.35-.06.67-.23.7s-.28.2-.41-.09c0,0-.06,0-.09,0h0c-.15.21-.32,0-.47.29a.66.66,0,0,0-.12.43c0,.53-.11.75-.32.77-.62,0-1.23.09-1.85.1a1.35,1.35,0,0,1-.71-.19c-.14-.08-.29.15-.43.17a20.09,20.09,0,0,1-2.33,0c-.71,0-1.42.05-2.13.06-.41,0-.83.16-1.25.14a15.23,15.23,0,0,1-2.34,0c-.22,0-.46.15-.69.1a2.69,2.69,0,0,0-1.09-.08,4.85,4.85,0,0,1-1.47.07c-.45,0-.9.07-1.35,0a3.17,3.17,0,0,0-1,.15.79.79,0,0,1-.61-.16c-.15-.11-.33.07-.5.1s-.42.45-.6-.16c-.11.2-.25.06-.36.16s-.39-.09-.59,0-.08-.27-.13-.38-.1-.44-.17.06-.26.44-.41,0c-.06-.17-.11-.18-.15,0s-.16.35-.26.1c0-.08-.09-.14-.11,0-.17.64-.4.06-.6.23,0,0-.08-.06-.09-.18,0-.34-.07-.33-.13-.14-.13.36-.3.31-.45.25-.47-.19-1,0-1.43-.19a18.83,18.83,0,0,0-1.94-.27,3.19,3.19,0,0,0-1.11.08.81.81,0,0,1-.8-.31c-.28-.34-.6-.22-.9-.24-.11,0-.21,0-.29-.23a1.69,1.69,0,0,1-.1-.77c0-.3.11-.59.24-.58s.44-.19.66-.42.45,0,.68,0a3.82,3.82,0,0,1,.59.09s.06,0,.09,0a.41.41,0,0,0,.1-.3c0-.15-.07-.11-.1-.1a3.64,3.64,0,0,1-1.47-.41c-.28-.1-.56-.23-.84-.35l-.15-.11A1.12,1.12,0,0,1,665.14,209.39Zm29.62,3.13s0,0,0,0,0-.09,0-.09S694.74,212.48,694.76,212.52Zm-.19-2.88v0Zm-1.3-1S693.27,208.66,693.27,208.67Z" fill="#9a673d"/>
          </g>
        </g>
        <g id="Group_101" data-name="Group 101">
          <g id="Group_99" data-name="Group 99">
            <path id="Path_138" data-name="Path 138" d="M758.47,261.39h0S758.47,261.38,758.47,261.39Z" fill="#5f5346"/>
          </g>
          <g id="Group_100" data-name="Group 100">
            <path id="Path_139" data-name="Path 139" d="M740.34,261.54c0-.3.2-.58.35-.49s.4.09.58.3c0,0,.14.16.1-.08-.09-.54.13-.48.17-.75.08-.47.18-.1.28,0s.19.17.28,0,.13-.1.18,0c.21.47.38,0,.55-.21s.22-.18.35-.11a5.52,5.52,0,0,0,1.56.35c.36.07.73,0,1.1.11.13,0,.22.31.34.29l.11,0c.2-.21.39-.52.6,0,.21-.3.41.39.62,0,0-.06.09-.08.12-.06a1.72,1.72,0,0,0,1.14.07c.07,0,.14,0,.19.2.33,0,.65-.33,1,0s.43.13.65.09a1.67,1.67,0,0,1,.59,0,.7.7,0,0,0,.38,0c.25-.08.54-.26.76,0s.39.42.6.06c0,0,.1-.07.14.08s.11.22.17.16c.31-.33.66.08.95-.18s.74.1,1.12,0a1.13,1.13,0,0,1,.77-.06,1.48,1.48,0,0,0,1.2-.12c.31-.15.64,0,1,0a.25.25,0,0,1,.24.18h0s0,0,0,0,.14-.2.2-.17c.58.18,1.16-.34,1.74,0,.15.09.27-.18.42-.18a3.88,3.88,0,0,0,1.85-.26c.17-.09.35-.05.51.21,0,0,0,.13.07.05.2-.57.46-.29.69-.32a11.82,11.82,0,0,0,2.57-.44,11.24,11.24,0,0,1,1.41-.37.5.5,0,0,1,.4.15c.24.17.24.15.13.78h0c.41-.17.81-.11,1.19.47a.64.64,0,0,1,.1.38,1.15,1.15,0,0,1,.06.17c.14.63.13.73-.12.92-.05,0-.14,0-.12.15s.08,0,.13,0,.19.18.28.27.38.12.57.33a.56.56,0,0,1,.17.49c0,.35-.06.67-.22.69s-.29.2-.42-.08c0,0-.06,0-.09,0h0c-.14.22-.31,0-.46.3a.64.64,0,0,0-.13.42c0,.53-.11.76-.32.78-.62,0-1.23.08-1.85.1a1.48,1.48,0,0,1-.71-.19c-.14-.08-.28.14-.43.17a22.4,22.4,0,0,1-2.32,0c-.71,0-1.43,0-2.13,0-.42,0-.84.17-1.25.15a15.35,15.35,0,0,1-2.35,0c-.22-.05-.46.14-.69.1a2.51,2.51,0,0,0-1.09-.09,4.83,4.83,0,0,1-1.47.08c-.45-.05-.9.06-1.34,0a3.17,3.17,0,0,0-1,.15.74.74,0,0,1-.61-.16c-.16-.1-.34.07-.5.1s-.42.45-.6-.16c-.12.21-.26.06-.37.17s-.39-.09-.58,0-.09-.27-.14-.37-.1-.44-.17.06-.26.43-.4,0c-.06-.17-.11-.18-.16,0s-.16.34-.26.1c0-.08-.09-.14-.11-.05-.17.65-.4.07-.6.24,0,0-.08-.06-.08-.18,0-.34-.07-.33-.14-.14-.13.36-.3.31-.44.25-.48-.19-1,0-1.44-.2-.64-.22-1.29-.11-1.94-.27a3.21,3.21,0,0,0-1.11.09.83.83,0,0,1-.8-.31c-.28-.34-.6-.22-.9-.24-.1,0-.2,0-.29-.24a1.77,1.77,0,0,1-.1-.76c0-.3.12-.59.25-.59s.44-.18.65-.41.45,0,.68,0,.4.06.59.09c0,0,.07,0,.1,0a.38.38,0,0,0,.1-.29c0-.15-.07-.11-.1-.1a3.56,3.56,0,0,1-1.47-.42c-.28-.1-.56-.23-.84-.35a.4.4,0,0,1-.15-.1A1.16,1.16,0,0,1,740.34,261.54ZM770,264.68s0,0,0,0,0-.09,0-.09,0,0,0,.08Zm-.19-2.88v0Zm-1.3-1S768.47,260.82,768.47,260.83Z" fill="#5f5346"/>
          </g>
        </g>
        <g id="Group_104" data-name="Group 104">
          <g id="Group_102" data-name="Group 102">
            <path id="Path_140" data-name="Path 140" d="M743.27,244.45Z" fill="#b8a588"/>
          </g>
          <g id="Group_103" data-name="Group 103">
            <path id="Path_141" data-name="Path 141" d="M725.14,244.6c0-.3.2-.58.35-.49s.4.09.58.3c0,.05.13.15.09-.09-.08-.53.13-.48.18-.75.08-.46.18-.1.28,0s.18.18.27,0,.14-.1.18,0c.22.46.38,0,.55-.21s.22-.19.36-.12a5.21,5.21,0,0,0,1.56.36c.36.07.73,0,1.1.11.13,0,.21.31.34.29l.11,0c.2-.21.39-.52.6,0,.2-.3.41.38.62,0a.09.09,0,0,1,.12-.05,1.69,1.69,0,0,0,1.13.06c.07,0,.15,0,.2.21.33,0,.65-.33,1,0a.65.65,0,0,0,.65.09,1.75,1.75,0,0,1,.6.05.67.67,0,0,0,.37,0c.25-.08.55-.26.76,0s.39.42.6.06c0,0,.1-.07.14.08s.11.22.17.16c.32-.33.66.08,1-.18s.75.11,1.12,0a1.3,1.3,0,0,1,.78-.06,1.46,1.46,0,0,0,1.19-.12c.31-.15.65,0,1,0a.24.24,0,0,1,.24.18h0l0,0c.07-.06.14-.19.21-.17.57.18,1.15-.34,1.73,0,.16.09.27-.18.43-.18a3.8,3.8,0,0,0,1.85-.26c.16-.08.35-.05.5.21,0,0,.05.14.08,0,.2-.57.45-.29.68-.31a13.16,13.16,0,0,0,2.57-.44,11.6,11.6,0,0,1,1.4-.38.54.54,0,0,1,.4.15c.24.17.24.15.13.78v0h0c.41-.18.81-.11,1.19.47a.69.69,0,0,1,.1.37l.06.18c.14.62.12.73-.13.91,0,0-.13,0-.12.16s.09,0,.13,0,.2.18.29.28.38.12.56.32a.54.54,0,0,1,.18.49c0,.35-.06.67-.22.69s-.29.2-.42-.08c0,0-.06,0-.09,0h0c-.14.22-.31,0-.46.3a.65.65,0,0,0-.13.43c0,.52-.11.75-.32.77-.62,0-1.23.08-1.85.1a1.35,1.35,0,0,1-.71-.19c-.14-.08-.28.14-.43.17a20.13,20.13,0,0,1-2.33,0c-.71,0-1.42,0-2.13.05-.41,0-.83.17-1.25.15a15.23,15.23,0,0,1-2.34,0c-.22-.05-.46.14-.69.1a2.87,2.87,0,0,0-1.09-.09,4.54,4.54,0,0,1-1.47.08c-.45,0-.9.07-1.35,0a2.92,2.92,0,0,0-1,.14.76.76,0,0,1-.6-.15c-.16-.1-.34.06-.51.1s-.42.45-.6-.17c-.12.21-.26.06-.37.17s-.39-.09-.58,0-.09-.26-.14-.37-.1-.44-.17.06-.26.44-.4,0c-.06-.17-.11-.18-.16,0s-.15.34-.26.1c0-.08-.08-.14-.11-.05-.17.65-.4.07-.59.24s-.09-.06-.09-.18c0-.34-.07-.33-.14-.14-.13.36-.3.31-.44.25-.48-.19-1,0-1.44-.2-.64-.22-1.29-.11-1.94-.27a3.39,3.39,0,0,0-1.1.09.81.81,0,0,1-.8-.31c-.29-.34-.6-.22-.9-.24-.11,0-.21,0-.3-.24a1.77,1.77,0,0,1-.1-.76c0-.3.12-.59.25-.59s.44-.19.65-.41.46,0,.68,0,.4.06.6.09c0,0,.06,0,.09,0a.41.41,0,0,0,.1-.3c0-.15-.07-.1-.1-.1a3.55,3.55,0,0,1-1.47-.41c-.28-.1-.56-.23-.84-.35a.42.42,0,0,1-.15-.11A1.11,1.11,0,0,1,725.14,244.6Zm29.62,3.13s0,0,0,0a.16.16,0,0,0,0-.09s0,0,0,.08Zm-.19-2.88v0Zm-1.3-1S753.27,243.88,753.27,243.89Z" fill="#b8a588"/>
          </g>
        </g>
        <g id="Group_107" data-name="Group 107">
          <g id="Group_106" data-name="Group 106">
            <path id="Path_143" data-name="Path 143" d="M689.5,244.6c0-.3.2-.58.35-.49s.39.09.58.3c0,.05.13.15.09-.09-.08-.53.13-.48.18-.75.08-.46.18-.1.28,0s.18.18.27,0,.14-.1.18,0c.21.46.38,0,.55-.21s.22-.19.36-.12a5.22,5.22,0,0,0,1.55.36c.37.07.74,0,1.1.11.14,0,.22.31.35.29l.1,0c.2-.21.4-.52.6,0,.21-.3.42.38.63,0a.09.09,0,0,1,.12-.05,1.69,1.69,0,0,0,1.13.06c.07,0,.15,0,.2.21.32,0,.65-.33,1,0s.44.13.66.09a1.67,1.67,0,0,1,.59.05.67.67,0,0,0,.37,0c.26-.08.55-.26.77,0s.39.42.6.06c0,0,.1-.07.13.08s.12.22.17.16c.32-.33.67.08,1-.18s.74.11,1.11,0a1.3,1.3,0,0,1,.78-.06,1.46,1.46,0,0,0,1.19-.12c.32-.15.65,0,1,0a.25.25,0,0,1,.24.18h0s0,0,0,0,.14-.19.2-.17c.58.18,1.16-.34,1.74,0,.15.09.27-.18.42-.18a3.76,3.76,0,0,0,1.85-.26c.17-.08.35-.05.51.21,0,0,0,.14.07,0,.2-.57.46-.29.69-.31a13.16,13.16,0,0,0,2.57-.44,9.78,9.78,0,0,1,1.41-.38.54.54,0,0,1,.4.15c.24.17.24.15.13.78h0c.41-.17.81-.11,1.19.47a.75.75,0,0,1,.1.38l.06.17c.14.63.12.73-.13.92,0,0-.13,0-.12.15s.09,0,.13,0,.2.18.29.27.38.12.56.33a.54.54,0,0,1,.18.49c0,.35-.06.67-.23.69s-.28.2-.41-.08c0,0-.06,0-.09,0h0c-.14.22-.32,0-.46.3a.59.59,0,0,0-.13.42c0,.53-.11.76-.33.77-.61,0-1.22.09-1.84.1a1.34,1.34,0,0,1-.71-.18c-.14-.08-.29.14-.43.17a20.09,20.09,0,0,1-2.33,0c-.71,0-1.42,0-2.13.05-.41,0-.83.17-1.25.15a16.62,16.62,0,0,1-2.34,0c-.22-.05-.46.14-.69.1a2.53,2.53,0,0,0-1.09-.09,4.85,4.85,0,0,1-1.47.08c-.45,0-.9.06-1.35,0a2.89,2.89,0,0,0-1,.14.74.74,0,0,1-.61-.16c-.15-.1-.33.07-.5.1s-.42.46-.6-.16c-.11.21-.25.06-.37.17s-.38-.09-.58,0-.09-.27-.14-.37-.1-.44-.16.06-.26.44-.41,0c-.06-.17-.11-.18-.15,0s-.16.34-.26.1c0-.08-.09-.14-.12-.05-.17.65-.4.07-.59.24,0,0-.08-.06-.09-.19,0-.34-.07-.32-.13-.13-.13.36-.3.3-.45.25-.48-.19-1,0-1.43-.2-.65-.22-1.3-.11-1.94-.27a3,3,0,0,0-1.11.09.8.8,0,0,1-.8-.32c-.28-.33-.6-.21-.9-.23-.11,0-.21,0-.29-.24a1.63,1.63,0,0,1-.1-.76c0-.3.11-.59.24-.59s.44-.19.66-.41.45,0,.68,0,.4.06.59.09c0,0,.06,0,.09,0a.41.41,0,0,0,.1-.3c0-.15-.07-.1-.1-.1a3.64,3.64,0,0,1-1.47-.41c-.28-.1-.56-.23-.84-.35l-.15-.11A1.15,1.15,0,0,1,689.5,244.6Zm29.62,3.13s0,0,0,0,0-.08,0-.09,0,0,0,.08Zm-.19-2.88v0Zm-1.3-1S717.63,243.88,717.63,243.89Z" fill="#9a673d"/>
          </g>
        </g>
        <g id="Group_110" data-name="Group 110">
          <g id="Group_108" data-name="Group 108">
            <path id="Path_144" data-name="Path 144" d="M780.09,244.45h0S780.09,244.44,780.09,244.45Z" fill="#9a673d"/>
          </g>
          <g id="Group_109" data-name="Group 109">
            <path id="Path_145" data-name="Path 145" d="M762,244.6c0-.3.2-.58.35-.49s.4.09.58.3c0,.05.14.15.1-.09-.09-.53.13-.48.17-.75.08-.46.18-.1.28,0s.19.18.28,0,.13-.1.18,0c.21.46.38,0,.55-.21s.22-.19.35-.12a5.21,5.21,0,0,0,1.56.36c.36.07.73,0,1.1.11.13,0,.22.31.34.29l.11,0c.2-.21.39-.52.6,0,.21-.3.41.38.62,0a.09.09,0,0,1,.12-.05,1.69,1.69,0,0,0,1.13.06c.07,0,.15,0,.2.21.33,0,.65-.33,1,0a.65.65,0,0,0,.65.09,1.75,1.75,0,0,1,.6.05.67.67,0,0,0,.37,0c.26-.08.55-.26.77,0s.38.42.6.06c0,0,.1-.07.13.08s.12.22.17.16c.32-.33.66.08,1-.18s.74.11,1.11,0a1.3,1.3,0,0,1,.78-.06,1.48,1.48,0,0,0,1.2-.12c.31-.15.64,0,1,0a.25.25,0,0,1,.24.18h0l0,0c.06-.06.14-.19.2-.17.58.18,1.15-.34,1.73,0,.16.09.28-.18.43-.18a3.78,3.78,0,0,0,1.85-.26c.16-.08.35-.05.5.21,0,0,0,.14.08,0,.2-.57.45-.29.68-.31a13.26,13.26,0,0,0,2.58-.44,10,10,0,0,1,1.4-.38.54.54,0,0,1,.4.15c.24.17.24.15.13.78h0c.42-.17.82-.11,1.2.47a.75.75,0,0,1,.1.38l.06.17c.14.63.12.73-.13.92-.05,0-.13,0-.12.15s.09,0,.13,0,.19.18.29.27.38.12.56.33a.54.54,0,0,1,.18.49c0,.35-.06.67-.23.69s-.28.2-.42-.08c0,0-.05,0-.09,0h0c-.14.22-.31,0-.46.3a.63.63,0,0,0-.12.42c0,.53-.12.76-.33.77-.61,0-1.22.09-1.84.1a1.34,1.34,0,0,1-.71-.18c-.14-.08-.29.14-.44.17a20,20,0,0,1-2.32,0c-.71,0-1.42,0-2.13.05-.41,0-.83.17-1.25.15a16.62,16.62,0,0,1-2.34,0c-.22-.05-.46.14-.69.1a2.52,2.52,0,0,0-1.09-.09,4.85,4.85,0,0,1-1.47.08c-.45,0-.9.06-1.35,0a2.89,2.89,0,0,0-1,.14.73.73,0,0,1-.6-.16c-.16-.1-.34.07-.51.1s-.42.46-.6-.16c-.12.21-.26.06-.37.17s-.39-.09-.58,0-.09-.27-.14-.37-.1-.44-.17.06-.26.44-.4,0c-.06-.17-.11-.18-.16,0s-.15.34-.26.1c0-.08-.08-.14-.11-.05-.17.65-.4.07-.59.24s-.09-.06-.09-.19c0-.34-.07-.32-.14-.13-.13.36-.3.3-.44.25-.48-.19-1,0-1.44-.2-.64-.22-1.29-.11-1.94-.27a3,3,0,0,0-1.11.09.83.83,0,0,1-.8-.32c-.28-.33-.6-.21-.9-.23-.1,0-.2,0-.29-.24a1.77,1.77,0,0,1-.1-.76c0-.3.12-.59.25-.59s.43-.19.65-.41.45,0,.68,0,.4.06.59.09c0,0,.07,0,.1,0a.41.41,0,0,0,.1-.3c0-.15-.07-.1-.1-.1a3.55,3.55,0,0,1-1.47-.41c-.28-.1-.56-.23-.84-.35a.58.58,0,0,1-.15-.11A1.12,1.12,0,0,1,762,244.6Zm29.62,3.13s0,0,0,0l0-.09s0,0,0,.08Zm-.19-2.88v0Zm-1.3-1S790.09,243.88,790.09,243.89Z" fill="#9a673d"/>
          </g>
        </g>
      </g>
    </g>
    <g id="Group_119" data-name="Group 119">
      <g id="Group_115" data-name="Group 115">
        <g id="Group_114" data-name="Group 114">
          <g id="Group_113" data-name="Group 113">
            <path id="Path_146" data-name="Path 146" d="M522,106.43a4,4,0,0,1-.63-7.86l.51-.08a4,4,0,0,1,4.58,3.26,3.91,3.91,0,0,1-3.19,4.52h0l-.59.1A4.48,4.48,0,0,1,522,106.43Z" fill="#5f89a2"/>
          </g>
        </g>
      </g>
      <g id="Group_118" data-name="Group 118">
        <g id="Group_117" data-name="Group 117">
          <g id="Group_116" data-name="Group 116">
            <path id="Path_147" data-name="Path 147" d="M664.13,151.31a4,4,0,0,1-.08-7.91l1.27,0a4,4,0,0,1,.26,7.9h0l-1.37,0Zm-15.8-1.1a3.57,3.57,0,0,1-.65-.06c-.46-.07-.92-.15-1.37-.24a4,4,0,0,1-3.18-4.6h0a4,4,0,0,1,4.6-3.17c.41.07.82.15,1.24.21a4,4,0,0,1-.65,7.85Zm32.9-.69a4,4,0,0,1-.71-7.84l1.25-.24a4,4,0,1,1,1.52,7.76h0l-1.35.26a4.17,4.17,0,0,1-.71.06Zm-49.45-3.87a3.81,3.81,0,0,1-1.42-.27l-1.29-.51a4,4,0,1,1,3-7.33h0c.38.16.77.32,1.17.47a3.95,3.95,0,0,1-1.43,7.63Zm66-.59a4,4,0,0,1-1.37-7.67h0l1.18-.44a3.94,3.94,0,0,1,5.11,2.26h0a4,4,0,0,1-2.27,5.11l-1.3.49a4.15,4.15,0,0,1-1.36.25Zm-81.47-6.94a4,4,0,0,1-2-.52l-1.17-.68a4,4,0,1,1,4-6.82l1.11.64a4,4,0,0,1,1.46,5.4h0a4,4,0,0,1-3.44,2Zm96.87-.59a4,4,0,0,1-2.1-7.3l1.07-.68a4,4,0,0,1,4.3,6.63l-1.17.75a4,4,0,0,1-2.1.6ZM601.76,129a4,4,0,0,1-2.17-.65l-1.11-.74a4,4,0,0,1-1.12-5.47h0a3.94,3.94,0,0,1,5.48-1.12h0l1.1.72a4,4,0,0,1,1.13,5.48h0a3.93,3.93,0,0,1-3.31,1.77Zm125-2a4,4,0,0,1-2.7-6.84l.91-.87a4,4,0,0,1,5.6.1h0a4,4,0,0,1-.1,5.59h0l-1,1a3.92,3.92,0,0,1-2.71,1.06Zm-139.48-7.33a3.89,3.89,0,0,1-2-.56l-1.12-.66a4,4,0,0,1-1.4-5.42h0a4,4,0,0,1,5.41-1.4l1.17.7a3.94,3.94,0,0,1,1.36,5.41h0a4,4,0,0,1-3.4,1.92Zm151.16-5.29a4,4,0,0,1-3-6.47h0l.83-1a4,4,0,0,1,5.56-.56h0a4,4,0,0,1,.55,5.57l-.85,1a4,4,0,0,1-3.05,1.42ZM572,111.78a3.86,3.86,0,0,1-1.54-.32L569.3,111a3.94,3.94,0,0,1-2.17-5.14h0a4,4,0,0,1,5.15-2.17l1.28.53a4,4,0,0,1,2.09,5.19h0a4,4,0,0,1-3.64,2.4Zm-16.37-5.13a4.15,4.15,0,0,1-.79-.08l-1.24-.24a4,4,0,0,1,1.45-7.77l1.36.26a4,4,0,0,1,3.09,4.66h0a4,4,0,0,1-3.88,3.16ZM537.24,105a4,4,0,0,1-.07-7.9h0c.47,0,1,0,1.39,0a4,4,0,1,1,0,7.91h-1.33Zm211.88-4.11a4,4,0,0,1-2.44-.84,4,4,0,0,1-.66-5.55l.82-1.05a4,4,0,1,1,6.21,4.9l-.82,1a3.93,3.93,0,0,1-3.11,1.5Zm11-13.2a4,4,0,0,1-2.92-6.62l.93-1a4,4,0,0,1,5.58-.21h0a3.94,3.94,0,0,1,.2,5.58h0l-.87,1a4,4,0,0,1-2.93,1.28ZM772.67,76a4,4,0,0,1-2.44-7.06h0c.36-.29.73-.57,1.1-.85a4,4,0,1,1,4.77,6.3h0l-1,.77a4,4,0,0,1-2.44.84Zm14.52-9.12a4,4,0,0,1-1.75-7.5l1.25-.6A4,4,0,0,1,792,60.62h0a4,4,0,0,1-1.89,5.27l-1.14.54a3.74,3.74,0,0,1-1.74.4Zm16.06-6a4,4,0,0,1-1-7.78h0l1.33-.34a3.94,3.94,0,0,1,4.8,2.84h0a4,4,0,0,1-2.85,4.8h0l-1.24.32a3.93,3.93,0,0,1-1,.13Zm16.9-3.15a4,4,0,0,1-.42-7.88l1.36-.14a4,4,0,0,1,4.32,3.56h0a4,4,0,0,1-3.56,4.31h0l-1.27.13-.44,0Z" fill="#5f89a2"/>
          </g>
        </g>
      </g>
    </g>
    <g id="Group_126" data-name="Group 126">
      <g id="Group_122" data-name="Group 122">
        <g id="Group_121" data-name="Group 121">
          <path id="Path_149" data-name="Path 149" d="M271.43,104.19a.62.62,0,0,1-.22.84,5.11,5.11,0,0,1-1.09.56c-.1,0-.31.07-.09.2.49.28.12.53.22.8.19.45-.2.32-.4.41s-.4.11-.44.35a.26.26,0,0,1-.27.24c-.64-.06-.57.54-.71.9a1,1,0,0,1-.48.57,21.94,21.94,0,0,0-2.64,1.85c-.61.44-1.14,1-1.76,1.4-.23.16-.54.07-.72.25l-.18.13c-.17.42-.27.92-.9.83-.13.51-.9.27-1,.83a.32.32,0,0,1-.15.21,6.74,6.74,0,0,0-1.79,1.48.39.39,0,0,1-.44.11c-.53.42-.79,1.13-1.49,1.35a2.7,2.7,0,0,0-1.07.82,7.1,7.1,0,0,1-1,.77,2.72,2.72,0,0,0-.56.51c-.35.41-.68.94-1.18,1.05s-.88.21-1,.77a.21.21,0,0,1-.27.13h0a.26.26,0,0,0-.36.1v0c-.27.68-1.07.84-1.35,1.43-.38.78-1.22.93-1.72,1.52a5.05,5.05,0,0,1-1.16,1.1,6,6,0,0,0-1.76,1.71,7.85,7.85,0,0,1-1.51,1.31.66.66,0,0,1-.5.19h0c-.06.14-.09.33-.2.4-1,.65-1.56,1.83-2.67,2.36-.3.14-.31.5-.54.72a15.28,15.28,0,0,0-2.69,2.7,1.18,1.18,0,0,1-.92.53c-.07,0-.16,0-.15.06.08.7-.51.83-.84,1.16a49.39,49.39,0,0,0-3.69,3.83c-.61.76-1.26,1.48-1.92,2.19a1.92,1.92,0,0,1-.72.44c-.49.2-.48.21-.72-.41h0a2.92,2.92,0,0,1-2.15,1.26.45.45,0,0,1-.4-.15l-.21,0c-.63-.29-.68-.38-.41-.87.05-.09.22-.17.08-.27s-.13.11-.19.18-.42.13-.63.19c-.4.11-.67.43-1.08.52-.2,0-.4.13-.6-.13s-.35-.58-.11-.83.3-.53.7-.5c0,0,.07-.1.11-.16h0c.07-.35.47-.43.51-.84,0-.2.09-.28-.08-.5-.33-.41-.33-.72,0-1,.92-.87,1.84-1.74,2.78-2.58a4.79,4.79,0,0,1,1.22-.83c.27-.13.34-.5.56-.72,1.11-1.15,2.44-2,3.61-3.12s2.16-2,3.25-2.94c.64-.56,1.18-1.25,1.84-1.8,1.23-1,2.32-2.23,3.63-3.17.37-.27.61-.73,1-1a11.25,11.25,0,0,0,1.74-1.42,19.54,19.54,0,0,1,2.22-2.05c.72-.58,1.34-1.27,2.06-1.84a11.81,11.81,0,0,0,1.4-1.43,3,3,0,0,1,1.05-.71c.3-.13.47-.5.71-.76s.35-.9,1-.68c0-.32.36-.4.46-.63.18-.42.66-.46.88-.81.12-.2.31.08.46.09s.44.2.21-.27.12-.69.61-.58c.2,0,.29,0,.25-.19-.06-.33,0-.48.34-.43.1,0,.23,0,.2-.12-.16-.72.58-.59.77-1,0-.09.16-.07.25,0,.24.25.32.15.3-.08,0-.44.26-.63.52-.79.87-.5,1.5-1.28,2.35-1.8,1.14-.71,2.07-1.67,3.17-2.43a12.88,12.88,0,0,0,1.65-1.57,2.84,2.84,0,0,1,1.44-.85,3.73,3.73,0,0,0,1.55-1,.68.68,0,0,1,.6-.22.91.91,0,0,1,.66.44c.15.27.22.59,0,.77a2.82,2.82,0,0,0-.74,1.2c-.17.42-.68.63-1,.93l-1,.73c-.05,0-.12.07-.15.13a.31.31,0,0,0,0,.35c.1.11.17,0,.22-.07a14.7,14.7,0,0,1,2.54-1.68c.5-.3,1-.58,1.53-.87a1.07,1.07,0,0,1,.31-.13A.77.77,0,0,1,271.43,104.19Zm-47.8,37.87s0,0-.08.05.09,0,.1,0S223.68,142.06,223.63,142.06Zm2.2,1.9,0,0,0,0Zm2.65-1.05Z" fill="#1a1818"/>
        </g>
      </g>
      <g id="Group_125" data-name="Group 125">
        <g id="Group_123" data-name="Group 123">
          <path id="Path_150" data-name="Path 150" d="M239.91,119h0S239.9,119,239.91,119Z" fill="#1a1818"/>
        </g>
        <g id="Group_124" data-name="Group 124">
          <path id="Path_151" data-name="Path 151" d="M263.86,143.71a.58.58,0,0,1-.81-.13h0a4.59,4.59,0,0,1-.54-1c0-.09-.07-.29-.19-.07-.27.49-.52.16-.77.28-.44.22-.31-.17-.4-.35s-.11-.37-.34-.39a.23.23,0,0,1-.24-.22v0c.06-.62-.52-.5-.88-.61a.8.8,0,0,1-.54-.41,19.05,19.05,0,0,0-1.8-2.38c-.43-.55-.95-1-1.36-1.58-.16-.2-.07-.51-.24-.67l-.13-.16c-.41-.12-.89-.18-.8-.79-.49-.08-.27-.83-.8-.87a.26.26,0,0,1-.2-.13,5.91,5.91,0,0,0-1.44-1.59.36.36,0,0,1-.11-.41c-.4-.47-1.09-.67-1.3-1.32a2.27,2.27,0,0,0-.8-1,6,6,0,0,1-.74-.85,3,3,0,0,0-.5-.5c-.39-.3-.91-.57-1-1s-.2-.83-.74-.87a.18.18,0,0,1-.13-.22v0c.07-.17,0-.3-.11-.33-.66-.2-.81-1-1.39-1.19-.75-.29-.9-1.09-1.47-1.52a4.11,4.11,0,0,1-1.06-1,5.24,5.24,0,0,0-1.66-1.55,6.66,6.66,0,0,1-1.26-1.34.58.58,0,0,1-.19-.46h0v0c-.13,0-.32-.06-.39-.16-.63-.92-1.77-1.35-2.28-2.38-.14-.27-.49-.25-.69-.45a13.66,13.66,0,0,0-2.62-2.36,1,1,0,0,1-.52-.84c0-.06,0-.15-.06-.13-.67.12-.8-.43-1.12-.72a43.53,43.53,0,0,0-3.7-3.22c-.73-.53-1.44-1.09-2.12-1.66a1.66,1.66,0,0,1-.42-.66c-.2-.45-.21-.44.39-.72h0a2.55,2.55,0,0,1-1.23-2,.46.46,0,0,1,.15-.4,1.18,1.18,0,0,1,0-.2c.27-.63.36-.68.83-.46.08,0,.16.2.27.06s-.12-.12-.18-.17-.13-.39-.18-.59c-.12-.37-.42-.6-.5-1-.05-.18-.13-.37.12-.57s.56-.39.79-.18.52.25.49.63c0,.05.1.07.15.1h0c.34,0,.42.42.82.43.18,0,.26.06.47-.12.4-.35.7-.37,1-.09.84.81,1.68,1.62,2.5,2.45a4,4,0,0,1,.8,1.11c.13.24.48.28.69.47,1.11,1,2,2.17,3,3.21s1.9,1.91,2.84,2.87c.55.57,1.22,1,1.75,1.62,1,1.1,2.15,2,3.07,3.22.26.33.7.53,1,.87a9.29,9.29,0,0,0,1.38,1.56,16.58,16.58,0,0,1,2,2c.56.65,1.23,1.19,1.79,1.83a10.11,10.11,0,0,0,1.38,1.23,2.45,2.45,0,0,1,.68.94c.13.29.49.41.74.62s.87.27.67.94c.3,0,.38.31.6.39.4.13.45.59.79.77.19.1-.08.31-.09.45s-.18.44.26.18.67.06.56.54c0,.2,0,.27.19.22s.46,0,.41.29c0,.1,0,.22.12.19.69-.22.57.5.95.65.08,0,.07.15,0,.24-.23.25-.14.32.09.29a.69.69,0,0,1,.76.43c.49.79,1.24,1.34,1.75,2.1.68,1,1.61,1.85,2.35,2.84a11,11,0,0,0,1.52,1.46,2.4,2.4,0,0,1,.82,1.31c.13.62.63,1,1,1.4a.61.61,0,0,1,.22.56,1,1,0,0,1-.42.67c-.26.16-.58.26-.75.07a2.5,2.5,0,0,0-1.16-.61c-.4-.13-.61-.6-.9-.92l-.71-.87c0-.05-.06-.11-.12-.13a.31.31,0,0,0-.34.07c-.1.11,0,.16.07.21a12.43,12.43,0,0,1,1.63,2.3c.3.45.56.93.85,1.39a1.39,1.39,0,0,1,.12.28A.79.79,0,0,1,263.86,143.71ZM227.17,101s0,0,0-.07,0,.08,0,.1.08,0,.08,0Zm-1.83,2.25,0,0,0,0Zm1,2.45Z" fill="#1a1818"/>
        </g>
      </g>
    </g>
    <g id="Group_145" data-name="Group 145">
      <g id="Group_129" data-name="Group 129">
        <g id="Group_127" data-name="Group 127">
          <path id="Path_152" data-name="Path 152" d="M47.37,322.81Z" fill="#1a1818"/>
        </g>
        <g id="Group_128" data-name="Group 128">
          <path id="Path_153" data-name="Path 153" d="M29.23,323c0-.3.2-.59.36-.49s.39.09.58.3c0,0,.13.15.09-.09-.08-.54.13-.48.18-.75.08-.47.18-.1.28,0s.18.18.27,0,.14-.1.18,0c.21.47.38,0,.55-.21s.22-.18.36-.11a5.14,5.14,0,0,0,1.55.35c.37.08.73,0,1.1.11.13,0,.22.31.34.29l.11,0c.2-.21.39-.52.6,0,.21-.3.41.38.62,0,0-.06.09-.08.13-.06a1.63,1.63,0,0,0,1.13.07c.07,0,.14,0,.19.2.33,0,.65-.33,1,0s.43.12.65.08a1.47,1.47,0,0,1,.59.06.81.81,0,0,0,.38,0c.25-.08.54-.26.76,0s.39.42.6.06c0,0,.1-.07.14.09s.11.21.17.15c.31-.33.66.08,1-.18s.74.11,1.12,0a1.26,1.26,0,0,1,.77-.06,1.48,1.48,0,0,0,1.2-.12c.31-.15.64,0,1,0a.25.25,0,0,1,.24.18h0l0,0c.07-.06.14-.2.2-.17.58.18,1.15-.34,1.73,0,.16.09.28-.18.43-.18a3.78,3.78,0,0,0,1.85-.26c.16-.08.35-.05.5.21,0,0,0,.14.08.05.2-.57.45-.28.68-.31a13.39,13.39,0,0,0,2.58-.44,9.65,9.65,0,0,1,1.4-.38.54.54,0,0,1,.4.15c.24.17.24.15.13.78h0c.42-.17.82-.1,1.19.48a.55.55,0,0,1,.1.37,1.34,1.34,0,0,1,.07.18c.13.62.12.73-.13.91-.05,0-.14,0-.12.16s.09,0,.13,0,.19.18.29.28.38.11.56.32a.53.53,0,0,1,.17.49c0,.35-.05.67-.22.69s-.28.2-.42-.08c0,0-.06,0-.09,0h0c-.14.22-.31,0-.46.3a.64.64,0,0,0-.12.43c0,.52-.12.75-.33.77-.61,0-1.23.08-1.84.1a1.45,1.45,0,0,1-.71-.19c-.14-.08-.29.14-.44.17a20,20,0,0,1-2.32,0c-.71,0-1.42,0-2.13.05-.41,0-.83.17-1.25.15a15.23,15.23,0,0,1-2.34,0c-.22-.05-.46.14-.69.1a2.7,2.7,0,0,0-1.09-.09,4.85,4.85,0,0,1-1.47.08c-.45-.05-.9.06-1.35,0a2.89,2.89,0,0,0-1,.14.75.75,0,0,1-.61-.16c-.15-.1-.33.07-.5.1s-.42.45-.6-.16c-.11.21-.25.06-.36.17s-.39-.09-.59,0-.09-.27-.14-.37-.1-.44-.16.06-.27.44-.41,0c-.06-.17-.11-.18-.15,0s-.16.34-.26.1c0-.08-.09-.14-.12-.05-.17.65-.4.07-.59.24s-.08-.06-.09-.18c0-.34-.07-.33-.13-.14-.13.36-.3.31-.45.25-.48-.19-1,0-1.43-.2-.65-.22-1.3-.11-1.94-.27a3.2,3.2,0,0,0-1.11.09.81.81,0,0,1-.8-.31c-.28-.34-.6-.22-.9-.24-.11,0-.21,0-.29-.24a1.51,1.51,0,0,1-.1-.76c0-.3.11-.59.24-.59s.44-.19.66-.41.45,0,.67,0l.6.09s.06,0,.09,0a.38.38,0,0,0,.1-.29c0-.15-.07-.11-.1-.1a3.82,3.82,0,0,1-1.47-.42c-.28-.1-.56-.23-.84-.35a.39.39,0,0,1-.15-.11A1.13,1.13,0,0,1,29.23,323Zm29.63,3.13s0,0,0,0a.3.3,0,0,0,0-.09s0,0,0,.08Zm-.19-2.88v0Zm-1.3-1S57.37,322.24,57.37,322.26Z" fill="#1a1818"/>
        </g>
      </g>
      <g id="Group_132" data-name="Group 132">
        <g id="Group_130" data-name="Group 130">
          <path id="Path_154" data-name="Path 154" d="M26.93,274.4Z" fill="#1a1818"/>
        </g>
        <g id="Group_131" data-name="Group 131">
          <path id="Path_155" data-name="Path 155" d="M8.8,274.56c0-.3.2-.58.35-.49s.4.09.58.3c0,.05.14.15.1-.08-.09-.54.13-.49.18-.76.07-.46.17-.1.27,0s.19.18.28,0,.13-.1.18,0c.21.46.38,0,.55-.22s.22-.18.35-.11a5.28,5.28,0,0,0,1.56.36c.37.07.73,0,1.1.11.13,0,.22.31.34.29l.11,0c.2-.21.39-.52.6,0,.21-.3.41.38.62,0,0,0,.09-.07.12,0a1.78,1.78,0,0,0,1.14.07c.07,0,.14,0,.19.2.33,0,.65-.33,1,0a.65.65,0,0,0,.65.09,1.67,1.67,0,0,1,.59.05.81.81,0,0,0,.38,0c.25-.08.54-.26.76,0s.39.43.6.07c0,0,.1-.07.14.08s.11.22.17.16c.31-.34.66.08.95-.18s.74.1,1.12,0a1.14,1.14,0,0,1,.77-.06,1.53,1.53,0,0,0,1.2-.12c.31-.16.65,0,1,0a.24.24,0,0,1,.24.18h0l0,0c.07-.06.14-.2.2-.17.58.18,1.16-.35,1.74,0,.15.09.27-.18.42-.19a3.88,3.88,0,0,0,1.85-.25c.17-.09.35-.05.51.2,0,0,.05.14.08.06.2-.58.45-.29.68-.32a13.16,13.16,0,0,0,2.57-.44,11.27,11.27,0,0,1,1.41-.38.54.54,0,0,1,.4.15c.24.17.24.15.13.78h0c.41-.17.81-.11,1.19.47a.66.66,0,0,1,.1.38l.06.17c.14.63.13.73-.13.92,0,0-.13,0-.12.15s.09,0,.13,0,.2.18.29.27.38.12.57.33a.56.56,0,0,1,.17.49c0,.35-.06.67-.22.69s-.29.2-.42-.08c0,0-.06,0-.09,0h0c-.14.22-.31,0-.46.3a.68.68,0,0,0-.13.43c0,.53-.11.75-.32.77-.62,0-1.23.09-1.85.1a1.38,1.38,0,0,1-.71-.19c-.14-.08-.28.15-.43.17a20,20,0,0,1-2.32,0c-.71,0-1.42.05-2.13.06-.42,0-.84.16-1.25.14a14.19,14.19,0,0,1-2.35,0c-.22,0-.46.15-.69.1a2.66,2.66,0,0,0-1.09-.08,4.83,4.83,0,0,1-1.47.07c-.45,0-.9.07-1.34,0a3.17,3.17,0,0,0-1,.15.74.74,0,0,1-.61-.16c-.16-.1-.34.07-.51.1s-.42.45-.6-.16c-.11.21-.26.06-.37.17s-.39-.09-.58,0-.09-.27-.14-.38-.1-.44-.16.07-.27.43-.41,0c-.06-.17-.11-.17-.15,0s-.16.35-.27.1c0-.08-.08-.14-.11,0-.17.64-.4.06-.59.23s-.09-.06-.09-.18c0-.34-.07-.33-.14-.14-.13.36-.3.31-.44.25-.48-.19-1,0-1.44-.19a18.1,18.1,0,0,0-1.94-.27,3.13,3.13,0,0,0-1.1.08.79.79,0,0,1-.8-.31c-.29-.34-.6-.22-.9-.24-.11,0-.21,0-.29-.23a1.57,1.57,0,0,1-.1-.77c0-.3.11-.59.24-.58a1.07,1.07,0,0,0,.66-.41c.2-.2.45,0,.67,0l.6.09s.06,0,.09,0a.4.4,0,0,0,.1-.29c0-.15-.07-.11-.1-.1a3.82,3.82,0,0,1-1.47-.42c-.28-.1-.56-.23-.84-.35a.39.39,0,0,1-.15-.11A1.12,1.12,0,0,1,8.8,274.56Zm29.62,3.13s0,0,0,0a.46.46,0,0,0,0-.09s0,.05,0,.08Zm-.19-2.88v0Zm-1.3-1S36.93,273.84,36.93,273.85Z" fill="#1a1818"/>
        </g>
      </g>
      <g id="Group_135" data-name="Group 135">
        <g id="Group_133" data-name="Group 133">
          <path id="Path_156" data-name="Path 156" d="M102.13,326.56Z" fill="#1a1818"/>
        </g>
        <g id="Group_134" data-name="Group 134">
          <path id="Path_157" data-name="Path 157" d="M84,326.72c0-.3.2-.58.36-.49s.39.09.58.3c0,.05.13.15.09-.09-.09-.53.13-.48.18-.75.07-.46.17-.1.28,0s.18.18.27,0,.13-.1.18,0c.21.46.38,0,.55-.21s.22-.19.35-.12a5.28,5.28,0,0,0,1.56.36c.37.07.73,0,1.1.11.13,0,.22.31.34.29l.11,0c.2-.21.39-.51.6,0,.21-.3.41.38.62,0,0-.06.09-.08.12-.06a1.69,1.69,0,0,0,1.13.07c.07,0,.15,0,.2.2.32,0,.65-.33,1,0s.43.13.65.09a1.67,1.67,0,0,1,.59.05.81.81,0,0,0,.38,0c.25-.08.54-.26.76,0s.39.42.6.06c0,0,.1-.07.14.08s.11.22.17.16c.31-.33.66.08,1-.18s.75.1,1.12,0a1.16,1.16,0,0,1,.78-.06,1.5,1.5,0,0,0,1.19-.12c.31-.15.65,0,1,0a.24.24,0,0,1,.24.18h0s0,0,0,0,.14-.2.2-.17c.58.18,1.16-.35,1.73,0,.16.09.28-.18.43-.18a3.9,3.9,0,0,0,1.85-.26c.16-.09.35-.05.51.21,0,0,0,.13.07.05.2-.57.45-.29.68-.32a11.91,11.91,0,0,0,2.58-.44,11.55,11.55,0,0,1,1.4-.37.53.53,0,0,1,.41.15c.24.17.24.15.13.78h0c.41-.17.81-.11,1.19.47a.75.75,0,0,1,.1.38l.06.17c.14.63.12.73-.13.92,0,0-.13,0-.12.15s.09,0,.13,0,.2.18.29.27.38.12.56.33a.54.54,0,0,1,.18.49c0,.35-.06.67-.22.69s-.29.2-.42-.08c0,0-.06,0-.09,0h0c-.14.22-.32,0-.46.3a.59.59,0,0,0-.13.42c0,.53-.12.76-.32.78-.62,0-1.23.08-1.85.1a1.45,1.45,0,0,1-.71-.19c-.14-.08-.29.14-.43.17a20.09,20.09,0,0,1-2.33,0c-.71,0-1.42,0-2.13,0-.41,0-.83.17-1.25.15a15.23,15.23,0,0,1-2.34,0c-.22,0-.46.14-.69.1a2.53,2.53,0,0,0-1.09-.09,4.85,4.85,0,0,1-1.47.08c-.45-.05-.9.06-1.35,0a2.89,2.89,0,0,0-1,.14.73.73,0,0,1-.6-.16c-.16-.1-.34.07-.51.1s-.42.45-.6-.16c-.12.21-.26.06-.37.17s-.39-.09-.58,0-.09-.27-.14-.37-.1-.44-.17.06-.26.44-.4,0c-.06-.17-.11-.18-.16,0s-.16.34-.26.1c0-.08-.09-.14-.11-.05-.17.65-.4.07-.59.23s-.09-.05-.09-.18c0-.34-.07-.32-.14-.13-.13.36-.3.3-.44.25-.48-.2-1,0-1.44-.2-.64-.22-1.29-.11-1.94-.27a3,3,0,0,0-1.11.09.83.83,0,0,1-.8-.32c-.28-.33-.6-.21-.9-.23-.1,0-.2,0-.29-.24a1.82,1.82,0,0,1-.1-.77c0-.3.12-.58.25-.58s.44-.19.65-.41.45,0,.68,0,.4.06.59.09c0,0,.07,0,.1,0a.4.4,0,0,0,.1-.29c0-.16-.07-.11-.1-.1a3.72,3.72,0,0,1-1.47-.42c-.28-.1-.56-.23-.84-.35a.33.33,0,0,1-.15-.11A1.12,1.12,0,0,1,84,326.72Zm29.63,3.13s0,0,0,0a.32.32,0,0,0,0-.09s0,.05,0,.08Zm-.19-2.88v0Zm-1.3-1Z" fill="#1a1818"/>
        </g>
      </g>
      <g id="Group_138" data-name="Group 138">
        <g id="Group_136" data-name="Group 136">
          <path id="Path_158" data-name="Path 158" d="M86.93,309.62Z" fill="#1a1818"/>
        </g>
        <g id="Group_137" data-name="Group 137">
          <path id="Path_159" data-name="Path 159" d="M68.8,309.78c0-.3.2-.58.35-.49s.39.09.58.3c0,.05.13.15.09-.09-.08-.53.13-.48.18-.75.08-.46.18-.1.28,0s.18.18.27,0,.14-.1.18,0c.22.47.38,0,.55-.21s.22-.18.36-.11a4.91,4.91,0,0,0,1.56.35c.36.08.73,0,1.09.12.14,0,.22.3.34.29l.11,0c.2-.21.4-.52.6,0,.21-.3.41.38.63,0a.11.11,0,0,1,.12-.06,1.63,1.63,0,0,0,1.13.07c.07,0,.14,0,.19.2.33,0,.65-.32,1,0s.44.12.65.09a1.75,1.75,0,0,1,.6.05.77.77,0,0,0,.37,0c.25-.08.55-.26.76,0s.39.43.6.06c0,0,.1-.06.14.09s.11.21.17.15c.32-.33.66.08.95-.17s.75.1,1.12,0a1.14,1.14,0,0,1,.77-.06,1.53,1.53,0,0,0,1.2-.12c.31-.16.65,0,1,0a.26.26,0,0,1,.24.19h0l0,0c.07-.07.14-.2.2-.18.58.19,1.16-.34,1.73,0,.16.09.28-.17.43-.18a3.9,3.9,0,0,0,1.85-.25c.16-.09.35-.05.51.2,0,.05,0,.14.07.06.2-.58.45-.29.68-.32a11.91,11.91,0,0,0,2.58-.44,11.6,11.6,0,0,1,1.4-.38.57.57,0,0,1,.4.15c.24.18.25.16.13.79h0c.42-.17.82-.11,1.19.47a.62.62,0,0,1,.1.38.49.49,0,0,1,.06.17c.14.63.13.73-.12.92,0,0-.14,0-.12.15s.08,0,.13,0,.19.18.28.27.39.12.57.33a.55.55,0,0,1,.17.49c0,.34-.06.66-.22.69s-.29.2-.42-.08c0,0-.06,0-.09,0h0c-.14.21-.31,0-.46.29a.66.66,0,0,0-.13.43c0,.53-.11.75-.32.77-.62.05-1.23.09-1.85.1a1.38,1.38,0,0,1-.71-.19c-.14-.08-.28.15-.43.17a19.92,19.92,0,0,1-2.32,0c-.71,0-1.42.05-2.13.06-.42,0-.84.16-1.25.14a14.18,14.18,0,0,1-2.35,0c-.22,0-.46.15-.69.1a2.66,2.66,0,0,0-1.09-.08,4.83,4.83,0,0,1-1.47.07c-.45,0-.9.07-1.35,0a3,3,0,0,0-1,.15.81.81,0,0,1-.6-.16c-.16-.1-.34.06-.5.1s-.42.45-.6-.17c-.12.21-.26.07-.37.17s-.39-.09-.58,0-.09-.27-.14-.38-.1-.44-.17.06-.26.44-.4,0c-.06-.17-.11-.18-.16,0s-.16.35-.26.1c0-.08-.09-.14-.11,0-.17.64-.4.06-.6.23,0,0-.08-.06-.08-.18,0-.34-.07-.32-.14-.14-.13.36-.3.31-.44.25-.48-.19-1,0-1.44-.19-.64-.22-1.29-.11-1.94-.27a3,3,0,0,0-1.11.09.83.83,0,0,1-.8-.32c-.28-.34-.6-.22-.9-.24a.29.29,0,0,1-.29-.23,1.84,1.84,0,0,1-.1-.77c0-.3.12-.59.25-.58s.44-.19.65-.41.45,0,.68,0,.4.06.59.09c0,0,.07,0,.09,0a.37.37,0,0,0,.1-.3c0-.15-.06-.1-.1-.1a3.55,3.55,0,0,1-1.46-.41c-.28-.1-.56-.23-.84-.35a.42.42,0,0,1-.15-.11A1.11,1.11,0,0,1,68.8,309.78Zm29.62,3.13s0,0,0,0,0-.08,0-.09,0,.05,0,.08ZM98.23,310v0Zm-1.3-1S96.93,309.06,96.93,309.07Z" fill="#1a1818"/>
        </g>
      </g>
      <g id="Group_141" data-name="Group 141">
        <g id="Group_140" data-name="Group 140">
          <path id="Path_161" data-name="Path 161" d="M33.16,309.78c0-.3.2-.58.35-.49s.4.09.58.3c0,.05.13.15.1-.09-.09-.53.13-.48.17-.75.08-.46.18-.1.28,0s.18.18.27,0,.14-.1.18,0c.22.47.38,0,.55-.21s.23-.18.36-.11a4.91,4.91,0,0,0,1.56.35c.36.08.73,0,1.09.12.14,0,.22.3.35.29l.1,0c.2-.21.4-.52.6,0,.21-.3.42.38.63,0a.11.11,0,0,1,.12-.06,1.63,1.63,0,0,0,1.13.07c.07,0,.14,0,.19.2.33,0,.65-.32,1,0s.44.12.65.09a1.75,1.75,0,0,1,.6.05.77.77,0,0,0,.37,0c.26-.08.55-.26.77,0s.38.43.6.06c0,0,.1-.06.13.09s.12.21.17.15c.32-.33.66.08,1-.17s.74.1,1.11,0a1.17,1.17,0,0,1,.78-.06,1.53,1.53,0,0,0,1.2-.12c.31-.16.64,0,1,0a.26.26,0,0,1,.24.19h0s0,0,0,0,.14-.2.2-.18c.58.19,1.15-.34,1.73,0,.16.09.28-.17.43-.18a3.9,3.9,0,0,0,1.85-.25c.16-.09.35-.05.5.2,0,.05,0,.14.08.06.2-.58.45-.29.68-.32a11.91,11.91,0,0,0,2.58-.44,11.6,11.6,0,0,1,1.4-.38.59.59,0,0,1,.4.15c.24.18.24.16.13.79h0c.42-.17.82-.11,1.19.47a.56.56,0,0,1,.1.38.87.87,0,0,1,.07.17c.13.63.12.73-.13.92-.05,0-.13,0-.12.15s.09,0,.13,0,.19.18.29.27.38.12.56.33a.53.53,0,0,1,.18.49c0,.34-.06.66-.23.69s-.28.2-.42-.08c0,0-.05,0-.08,0h0c-.15.21-.32,0-.46.29a.61.61,0,0,0-.13.43c0,.53-.12.75-.33.77-.61.05-1.22.09-1.84.1a1.35,1.35,0,0,1-.71-.19c-.14-.08-.29.15-.44.17a20,20,0,0,1-2.32,0c-.71,0-1.42.05-2.13.06-.41,0-.83.16-1.25.14a14.07,14.07,0,0,1-2.34,0c-.22,0-.46.15-.69.1a2.69,2.69,0,0,0-1.09-.08,4.85,4.85,0,0,1-1.47.07c-.45,0-.9.07-1.35,0a2.89,2.89,0,0,0-1,.15.82.82,0,0,1-.61-.16c-.15-.1-.33.06-.5.1s-.42.45-.6-.17c-.12.21-.26.07-.37.17s-.39-.09-.58,0-.09-.27-.14-.38-.1-.44-.17.06-.26.44-.4,0c-.06-.17-.11-.18-.16,0s-.16.35-.26.1c0-.08-.09-.14-.11,0-.17.64-.4.06-.59.23s-.09-.06-.09-.18c0-.34-.07-.32-.14-.14-.13.36-.3.31-.44.25-.48-.19-1,0-1.44-.19-.64-.22-1.29-.11-1.94-.27a3,3,0,0,0-1.11.09.83.83,0,0,1-.8-.32c-.28-.34-.6-.22-.9-.24-.11,0-.21,0-.29-.23a1.69,1.69,0,0,1-.1-.77c0-.3.11-.59.25-.58s.43-.19.65-.41.45,0,.68,0,.39.06.59.09c0,0,.07,0,.09,0a.37.37,0,0,0,.1-.3c0-.15-.06-.1-.1-.1a3.55,3.55,0,0,1-1.46-.41c-.28-.1-.56-.23-.84-.35a.42.42,0,0,1-.15-.11A1.12,1.12,0,0,1,33.16,309.78Zm29.62,3.13s0,0,0,0,0-.08,0-.09,0,.05,0,.08ZM62.59,310v0Zm-1.3-1S61.29,309.06,61.29,309.07Z" fill="#1a1818"/>
        </g>
      </g>
      <g id="Group_144" data-name="Group 144">
        <g id="Group_142" data-name="Group 142">
          <path id="Path_162" data-name="Path 162" d="M123.75,309.62Z" fill="#1a1818"/>
        </g>
        <g id="Group_143" data-name="Group 143">
          <path id="Path_163" data-name="Path 163" d="M105.62,309.78c0-.3.2-.58.35-.49s.4.09.58.3c0,.05.14.15.1-.09-.09-.53.13-.48.18-.75.07-.46.17-.1.28,0s.18.18.27,0,.13-.1.18,0c.21.47.38,0,.55-.21s.22-.18.35-.11a5,5,0,0,0,1.56.35c.37.08.73,0,1.1.12.14,0,.22.3.34.29l.11,0c.2-.21.4-.52.6,0,.21-.3.41.38.63,0a.11.11,0,0,1,.12-.06,1.63,1.63,0,0,0,1.13.07c.07,0,.14,0,.19.2.33,0,.65-.32,1,0s.44.12.65.09a1.75,1.75,0,0,1,.6.05.77.77,0,0,0,.37,0c.25-.08.55-.26.76,0s.39.43.6.06c0,0,.1-.06.14.09s.11.21.17.15c.31-.33.66.08.95-.17s.75.1,1.12,0a1.16,1.16,0,0,1,.78-.06,1.5,1.5,0,0,0,1.19-.12c.31-.16.65,0,1,0a.25.25,0,0,1,.24.19h0a.05.05,0,0,1,0,0c.07-.07.14-.2.2-.18.58.19,1.16-.34,1.73,0,.16.09.28-.17.43-.18a3.9,3.9,0,0,0,1.85-.25c.16-.09.35-.05.51.2,0,.05,0,.14.07.06.2-.58.46-.29.68-.32a12.55,12.55,0,0,0,2.58-.44,11.27,11.27,0,0,1,1.41-.38.6.6,0,0,1,.4.15c.24.18.24.16.13.79h0c.42-.17.82-.11,1.19.47a.62.62,0,0,1,.1.38.87.87,0,0,1,.07.17c.14.63.12.73-.13.92-.05,0-.14,0-.12.15s.08,0,.13,0,.19.18.29.27.38.12.56.33a.52.52,0,0,1,.17.49c0,.34-.06.66-.22.69s-.28.2-.42-.08c0,0-.06,0-.09,0h0c-.14.21-.31,0-.46.29a.66.66,0,0,0-.12.43c0,.53-.12.75-.33.77-.61.05-1.23.09-1.84.1a1.41,1.41,0,0,1-.72-.19c-.13-.08-.28.15-.43.17a20,20,0,0,1-2.32,0c-.71,0-1.42.05-2.13.06-.42,0-.84.16-1.25.14a14.19,14.19,0,0,1-2.35,0c-.22,0-.45.15-.68.1a2.73,2.73,0,0,0-1.1-.08,4.83,4.83,0,0,1-1.47.07c-.45,0-.9.07-1.34,0a2.89,2.89,0,0,0-1,.15.82.82,0,0,1-.61-.16c-.16-.1-.34.06-.5.1s-.42.45-.6-.17c-.12.21-.26.07-.37.17s-.39-.09-.58,0-.09-.27-.14-.38-.1-.44-.16.06-.27.44-.41,0c-.06-.17-.11-.18-.15,0s-.16.35-.27.1c0-.08-.08-.14-.11,0-.17.64-.4.06-.59.23s-.09-.06-.09-.18c0-.34-.07-.32-.14-.14-.13.36-.3.31-.44.25-.48-.19-1,0-1.44-.19-.64-.22-1.29-.11-1.94-.27a2.92,2.92,0,0,0-1.1.09.82.82,0,0,1-.8-.32c-.29-.34-.6-.22-.9-.24-.11,0-.21,0-.29-.23a1.57,1.57,0,0,1-.1-.77c0-.3.11-.59.24-.58s.44-.19.65-.41.46,0,.68,0l.6.09s.06,0,.09,0a.41.41,0,0,0,.1-.3c0-.15-.07-.1-.1-.1a3.55,3.55,0,0,1-1.47-.41c-.28-.1-.56-.23-.84-.35a.42.42,0,0,1-.15-.11A1.16,1.16,0,0,1,105.62,309.78Zm29.62,3.13s0,0,0,0a.46.46,0,0,0,0-.09s0,.05,0,.08Zm-.19-2.88v0Zm-1.3-1S133.75,309.06,133.75,309.07Z" fill="#1a1818"/>
        </g>
      </g>
    </g>
    <g id="Group_148" data-name="Group 148">
      <g id="Group_146" data-name="Group 146">
        <path id="Path_164" data-name="Path 164" d="M21.75,247Z" fill="#b8a588"/>
      </g>
      <g id="Group_147" data-name="Group 147">
        <path id="Path_165" data-name="Path 165" d="M39.88,246.83c0,.3-.2.58-.35.49s-.4-.09-.58-.3c0-.05-.13-.16-.1.08.09.54-.13.48-.17.76-.08.46-.18.1-.28,0s-.19-.17-.28,0-.13.1-.17,0c-.22-.47-.39,0-.56.21s-.22.18-.35.11a5.52,5.52,0,0,0-1.56-.35c-.36-.07-.73,0-1.1-.11-.13,0-.21-.31-.34-.29l-.11,0c-.2.21-.39.52-.6,0-.21.3-.41-.39-.62,0,0,.06-.08.08-.12.06a1.69,1.69,0,0,0-1.13-.07c-.07,0-.15,0-.2-.2-.33,0-.65.33-1,0a.65.65,0,0,0-.65-.09,1.75,1.75,0,0,1-.6-.05.67.67,0,0,0-.37,0c-.25.08-.55.26-.76,0s-.39-.42-.6-.06c0,0-.1.07-.14-.09s-.11-.21-.17-.15c-.32.33-.66-.08-1,.18s-.74-.11-1.11,0a1.3,1.3,0,0,1-.78.06,1.46,1.46,0,0,0-1.19.12,1.78,1.78,0,0,1-1,0,.25.25,0,0,1-.25-.18h0s0,0,0,0-.14.19-.21.17c-.58-.18-1.15.34-1.73,0-.16-.09-.28.18-.43.18a3.78,3.78,0,0,0-1.85.26c-.16.08-.35.05-.5-.21,0,0-.05-.14-.08,0-.2.57-.45.28-.68.31a13.26,13.26,0,0,0-2.58.44,11.6,11.6,0,0,1-1.4.38.54.54,0,0,1-.4-.15c-.24-.17-.25-.15-.14-.78h0c-.42.17-.82.1-1.19-.48a.62.62,0,0,1-.1-.38.49.49,0,0,1-.06-.17c-.14-.62-.13-.73.12-.91.05,0,.14,0,.12-.16s-.08,0-.13,0-.19-.19-.29-.28-.38-.12-.56-.32a.51.51,0,0,1-.17-.49c0-.35.06-.67.22-.7s.28-.2.42.09c0,0,.06,0,.09,0h0c.14-.21.31,0,.46-.29a.66.66,0,0,0,.12-.43c0-.53.12-.75.33-.77.61,0,1.23-.09,1.84-.1a1.41,1.41,0,0,1,.72.19c.13.08.28-.15.43-.17a20,20,0,0,1,2.32,0c.71,0,1.42,0,2.13-.06.42,0,.84-.16,1.25-.14a14.19,14.19,0,0,1,2.35,0c.22,0,.45-.15.68-.1a2.92,2.92,0,0,0,1.1.09,4.48,4.48,0,0,1,1.46-.08c.45,0,.9-.07,1.35,0a2.89,2.89,0,0,0,1-.15.78.78,0,0,1,.61.16c.15.11.33-.06.5-.1s.42-.45.6.16c.12-.2.26,0,.37-.16s.39.09.58,0,.09.26.14.37.1.44.17-.06.26-.44.41,0c.05.17.1.18.15,0s.16-.35.26-.1c0,.08.09.14.11,0,.17-.65.4-.07.6-.24,0,0,.08.06.08.18,0,.34.07.33.14.14.13-.36.3-.31.45-.25.47.19.95,0,1.43.19a15.88,15.88,0,0,0,1.94.27,3.19,3.19,0,0,0,1.11-.08.81.81,0,0,1,.8.31c.28.34.6.22.9.24.11,0,.21,0,.29.24a1.63,1.63,0,0,1,.1.76c0,.3-.11.59-.25.59s-.43.18-.65.41-.45,0-.68,0-.39-.06-.59-.09c0,0-.07,0-.09,0a.34.34,0,0,0-.1.29c0,.15.06.11.1.1a3.55,3.55,0,0,1,1.46.41c.28.1.56.23.84.36a.4.4,0,0,1,.15.1A1.1,1.1,0,0,1,39.88,246.83ZM10.26,243.7a0,0,0,0,0,0,0,.2.2,0,0,0,0,.09s0,0,0-.07Zm.19,2.88v0Zm1.3,1S11.75,247.55,11.75,247.54Z" fill="#b8a588"/>
      </g>
    </g>
    <g id="Group_151" data-name="Group 151">
      <g id="Group_149" data-name="Group 149">
        <path id="Path_166" data-name="Path 166" d="M42.18,295.39Z" fill="#5f5346"/>
      </g>
      <g id="Group_150" data-name="Group 150">
        <path id="Path_167" data-name="Path 167" d="M60.31,295.23c0,.3-.2.59-.35.49s-.39-.08-.58-.3c0,0-.13-.15-.09.09.08.54-.13.48-.18.75-.08.47-.18.1-.28,0s-.18-.17-.27,0-.14.1-.18,0c-.21-.47-.38,0-.55.21s-.22.18-.36.11a5.13,5.13,0,0,0-1.56-.35c-.36-.07-.73,0-1.1-.11-.13,0-.21-.31-.34-.29l-.1,0c-.2.21-.4.52-.6,0-.21.3-.42-.38-.63,0,0,.06-.08.08-.12.06a1.69,1.69,0,0,0-1.13-.07c-.07,0-.15,0-.19-.2-.33,0-.66.32-1,0s-.44-.13-.66-.09a1.67,1.67,0,0,1-.59-.05.77.77,0,0,0-.37,0c-.26.08-.55.26-.77,0s-.39-.43-.6-.06c0,0-.1.06-.13-.09s-.12-.21-.17-.15c-.32.33-.66-.08-1,.17s-.74-.1-1.11,0a1.17,1.17,0,0,1-.78.06,1.5,1.5,0,0,0-1.19.12c-.32.16-.65,0-1,0a.26.26,0,0,1-.25-.19h0s0,0,0,0-.14.2-.2.18c-.58-.19-1.16.34-1.74,0-.15-.09-.27.17-.42.18A3.88,3.88,0,0,0,38,296c-.17.09-.35.05-.51-.2,0-.05,0-.14-.07-.06-.2.58-.46.29-.69.32a11.82,11.82,0,0,0-2.57.44,13.3,13.3,0,0,1-1.41.38.59.59,0,0,1-.4-.15c-.24-.18-.24-.16-.13-.79h0c-.41.17-.82.11-1.19-.47a.62.62,0,0,1-.1-.38.49.49,0,0,1-.06-.17c-.14-.63-.13-.73.12-.91,0,0,.14,0,.12-.16s-.08,0-.13,0-.19-.18-.28-.27-.39-.12-.57-.33a.55.55,0,0,1-.17-.49c0-.34.06-.66.22-.69s.29-.2.42.08c0,0,.06,0,.09,0h0c.14-.21.31,0,.46-.29a.68.68,0,0,0,.13-.43c0-.53.11-.76.32-.77.62,0,1.23-.09,1.84-.11a1.39,1.39,0,0,1,.72.19c.14.08.28-.14.43-.17a20,20,0,0,1,2.32,0c.71,0,1.42,0,2.13-.05.42,0,.84-.17,1.25-.15a16.76,16.76,0,0,1,2.35,0c.22.05.46-.14.68-.1a2.56,2.56,0,0,0,1.1.09,4.77,4.77,0,0,1,1.46-.08c.46.05.9-.06,1.35,0a3.17,3.17,0,0,0,1-.15.74.74,0,0,1,.61.16c.15.1.33-.07.5-.1s.42-.45.6.16c.11-.21.26-.06.37-.17s.39.09.58,0,.09.27.14.37.1.44.16-.06.27-.43.41,0c.06.17.11.18.15,0s.16-.34.27-.1c0,.08.08.14.11.05.17-.65.4-.07.59-.24s.09.06.09.18c0,.34.07.33.14.14.12-.36.3-.31.44-.25.48.19,1,0,1.43.2.65.22,1.3.11,1.94.27a3.43,3.43,0,0,0,1.11-.09.81.81,0,0,1,.8.31c.29.34.6.22.9.24.11,0,.21,0,.29.24a1.51,1.51,0,0,1,.1.76c0,.3-.11.59-.24.59s-.44.18-.66.41-.45,0-.67,0l-.6-.09s-.06,0-.09,0a.41.41,0,0,0-.1.3c0,.15.07.1.1.1a3.55,3.55,0,0,1,1.47.41c.28.1.56.23.84.35a.58.58,0,0,1,.15.11A1.11,1.11,0,0,1,60.31,295.23ZM30.69,292.1s0,0,0,0a.3.3,0,0,0,0,.09s0,0,0-.08Zm.19,2.88v0Zm1.3,1S32.18,296,32.18,296Z" fill="#5f5346"/>
      </g>
    </g>
    <g id="Group_154" data-name="Group 154">
      <g id="Group_153" data-name="Group 153">
        <path id="Path_169" data-name="Path 169" d="M36,260c0,.3-.2.59-.36.49s-.39-.08-.58-.3c0,0-.13-.15-.09.09.09.54-.13.48-.18.75-.07.47-.17.1-.28,0s-.18-.18-.27,0-.13.1-.18,0c-.21-.47-.38,0-.55.21s-.22.18-.35.11a5,5,0,0,0-1.56-.35c-.37-.08-.73,0-1.1-.11-.14,0-.22-.31-.35-.3l-.1,0c-.2.21-.4.52-.6,0-.21.3-.41-.38-.63,0,0,.05-.08.08-.12.06a1.63,1.63,0,0,0-1.13-.07c-.07,0-.15,0-.19-.2-.33,0-.65.33-1,0s-.44-.12-.65-.08a1.75,1.75,0,0,1-.6-.06.78.78,0,0,0-.37,0c-.26.08-.55.25-.76,0s-.39-.43-.6-.06c0,0-.1.06-.14-.09s-.11-.21-.17-.15c-.32.33-.66-.08-.95.18s-.75-.11-1.12,0a1.23,1.23,0,0,1-.78.05,1.54,1.54,0,0,0-1.19.12c-.31.16-.65,0-1,0a.24.24,0,0,1-.24-.19h0a.05.05,0,0,1,0,0c-.07.07-.14.2-.2.18-.58-.19-1.16.34-1.74,0-.15-.09-.27.17-.42.18a3.88,3.88,0,0,0-1.85.25c-.16.09-.35.05-.51-.2,0,0,0-.14-.07-.06-.2.58-.46.29-.68.32a12.43,12.43,0,0,0-2.58.44,11.27,11.27,0,0,1-1.41.38.6.6,0,0,1-.4-.15c-.24-.17-.24-.15-.13-.79h0c-.42.17-.82.11-1.19-.47a.56.56,0,0,1-.1-.38.87.87,0,0,1-.07-.17c-.14-.62-.12-.73.13-.91,0,0,.13,0,.12-.16s-.09,0-.13,0-.19-.19-.29-.28-.38-.12-.56-.33a.49.49,0,0,1-.17-.48c0-.35.06-.67.22-.7s.28-.2.42.08c0,0,.06,0,.09,0h0c.14-.21.31,0,.46-.29a.67.67,0,0,0,.12-.43c0-.53.12-.76.33-.77.61-.05,1.23-.09,1.84-.1a1.32,1.32,0,0,1,.72.19c.13.08.28-.15.43-.17a18,18,0,0,1,2.32,0c.71,0,1.42-.05,2.13-.06.41,0,.84-.16,1.25-.14a14.07,14.07,0,0,1,2.34,0c.23,0,.46-.15.69-.1a2.73,2.73,0,0,0,1.1.08,4.77,4.77,0,0,1,1.46-.07c.45,0,.9-.07,1.35,0a3.17,3.17,0,0,0,1-.15.78.78,0,0,1,.61.16c.15.1.33-.07.5-.1s.42-.45.6.16c.11-.21.26-.06.37-.16s.39.09.58,0,.09.27.14.38.1.44.16-.06.27-.44.41,0c.06.17.11.18.15,0s.16-.35.26-.1c0,.08.09.14.12,0,.17-.64.4-.06.59-.23s.08.06.09.18c0,.34.07.33.13.14.13-.36.3-.31.45-.25.48.19,1,0,1.43.19.65.22,1.3.11,1.94.27a3.17,3.17,0,0,0,1.11-.08.79.79,0,0,1,.8.31c.28.34.6.22.9.24.11,0,.21,0,.29.23a1.57,1.57,0,0,1,.1.77c0,.3-.11.59-.24.58s-.44.19-.66.42-.45,0-.68,0a3.82,3.82,0,0,1-.59-.09s-.06,0-.09,0a.41.41,0,0,0-.1.3c0,.15.07.11.1.1a3.64,3.64,0,0,1,1.47.41c.28.1.56.23.84.35a.58.58,0,0,1,.15.11A1.17,1.17,0,0,1,36,260ZM6.33,256.88s0,0,0,0,0,.09,0,.09S6.35,256.92,6.33,256.88Zm.19,2.88v0Zm1.3,1Z" fill="#9a673d"/>
      </g>
    </g>
  </g>
</svg>
