<svg id="Layer_1" data-name="Layer 1" xmlns="http://www.w3.org/2000/svg" viewBox="0 0 421.07 90.99">
  <path d="M384.09,50.77h0" fill="#231f20"/>
  <path d="M372.64,51.39s0,0,0,0m-1.49-1.07v0m-.22-3.2s0,0-.05,0a.41.41,0,0,0,0,.1s0-.05,0-.09m33.93,3.48c0,.33-.23.65-.4.54s-.45-.1-.66-.33c-.05-.06-.16-.17-.11.09.1.6-.15.53-.2.84-.09.51-.21.11-.32,0s-.21-.2-.32,0-.15.12-.2,0c-.25-.52-.44,0-.63.23s-.26.2-.41.13a6,6,0,0,0-1.78-.4c-.42-.08-.84,0-1.26-.12-.15,0-.25-.34-.39-.32l-.12,0c-.23.23-.45.57-.69,0-.24.33-.47-.43-.71,0,0,.06-.1.09-.14.06a2,2,0,0,0-1.29-.07c-.09,0-.17,0-.23-.23-.37,0-.74.36-1.12,0s-.5-.14-.75-.1a2,2,0,0,1-.68-.06,1,1,0,0,0-.42,0c-.29.09-.63.29-.88,0s-.44-.47-.69-.07c0,0-.11.08-.16-.09s-.12-.24-.19-.17c-.36.37-.76-.09-1.09.19s-.85-.11-1.28,0a1.43,1.43,0,0,1-.89.06,1.78,1.78,0,0,0-1.37.13c-.36.18-.74,0-1.11,0a.3.3,0,0,1-.28-.21h0s0,0,0,0-.16.21-.23.19c-.66-.2-1.33.38-2,0-.18-.1-.31.2-.49.21a4.47,4.47,0,0,0-2.12.28c-.18.09-.4.05-.58-.23,0,0-.05-.15-.08-.06-.23.64-.52.32-.78.35a14.31,14.31,0,0,0-2.95.49,14.16,14.16,0,0,1-1.61.42.65.65,0,0,1-.47-.17c-.27-.19-.27-.17-.15-.87a0,0,0,0,1,0,0,1,1,0,0,1-1.37-.52.75.75,0,0,1-.11-.42c0-.07,0-.12-.07-.2-.16-.69-.14-.8.14-1,.06,0,.16,0,.14-.17s-.1,0-.15,0-.22-.2-.33-.3-.43-.13-.64-.36a.59.59,0,0,1-.2-.55c0-.38.07-.74.25-.77s.33-.22.48.09c0,0,.07,0,.11,0h0c.16-.24.36,0,.53-.33a.73.73,0,0,0,.14-.47c0-.59.13-.84.37-.86.71,0,1.41-.1,2.11-.11a1.53,1.53,0,0,1,.82.2c.16.09.33-.16.5-.19a23.66,23.66,0,0,1,2.66,0c.81,0,1.62,0,2.44-.06.47,0,.95-.19,1.43-.16a17.26,17.26,0,0,1,2.69,0c.25.05.52-.16.78-.11a3.36,3.36,0,0,0,1.26.09,5.28,5.28,0,0,1,1.68-.08c.51,0,1-.08,1.54,0a3.87,3.87,0,0,0,1.11-.16.88.88,0,0,1,.7.17c.18.11.38-.07.58-.11s.48-.5.68.18c.13-.23.3-.06.42-.18s.45.1.67,0,.1.3.16.41.11.49.19-.06.3-.49.47,0c.06.19.12.2.17,0,.09-.32.18-.39.3-.11,0,.08.1.15.13.05.19-.72.46-.08.68-.26.05,0,.1.06.1.2,0,.38.08.36.16.15.15-.4.34-.34.51-.27.54.21,1.1,0,1.64.21.74.25,1.48.12,2.22.3a3.65,3.65,0,0,0,1.27-.1,1,1,0,0,1,.92.35c.32.38.68.24,1,.27.12,0,.24,0,.33.26a1.89,1.89,0,0,1,.12.85c0,.33-.13.65-.28.65s-.5.21-.76.46-.51,0-.77,0l-.68-.1s-.07,0-.1,0a.43.43,0,0,0-.12.33c0,.16.08.11.12.11a4.19,4.19,0,0,1,1.68.46c.32.11.64.26,1,.39a.63.63,0,0,1,.18.12,1.21,1.21,0,0,1,.24,1" fill="#231f20"/>
  <path d="M321.35,46.6h0" fill="#231f20"/>
  <path d="M309.9,47.22s0,0,0,0m-1.49-1.07v0a.13.13,0,0,1,0-.06v0m-.22-3.2s0,0-.05,0a.41.41,0,0,0,0,.1s0,0,0-.09m33.94,3.48c0,.33-.24.65-.41.54s-.45-.1-.66-.33c-.05-.06-.16-.17-.11.09.1.6-.15.54-.2.84-.09.52-.21.11-.32,0s-.21-.19-.32,0-.15.11-.2,0c-.25-.52-.44,0-.63.23s-.26.21-.41.13a6,6,0,0,0-1.78-.39c-.42-.08-.84,0-1.26-.13-.15,0-.25-.34-.39-.32l-.12,0c-.23.24-.45.58-.69,0-.24.33-.47-.43-.71,0,0,.06-.1.09-.14.07a1.92,1.92,0,0,0-1.29-.08c-.09,0-.17,0-.23-.23-.37,0-.74.37-1.12,0s-.5-.14-.75-.1a2,2,0,0,1-.68-.06,1,1,0,0,0-.42,0c-.29.09-.63.29-.88,0s-.44-.47-.69-.06c0,0-.11.07-.15-.1s-.13-.23-.2-.17c-.36.37-.76-.09-1.09.2s-.85-.12-1.28,0a1.43,1.43,0,0,1-.89.06,1.79,1.79,0,0,0-1.37.14c-.36.17-.74,0-1.11,0a.28.28,0,0,1-.28-.21h0l0,0c-.07.07-.16.22-.23.19-.66-.2-1.33.38-2,0-.18-.1-.31.19-.49.2a4.47,4.47,0,0,0-2.12.28c-.18.1-.4.06-.58-.23,0,0-.05-.15-.08-.06-.23.64-.52.32-.78.35a14.31,14.31,0,0,0-2.95.49,14.16,14.16,0,0,1-1.61.42.69.69,0,0,1-.47-.16c-.27-.2-.27-.18-.15-.88a0,0,0,0,0,0,0,1,1,0,0,1-1.37-.52.75.75,0,0,1-.11-.42c0-.06-.05-.12-.07-.19-.16-.7-.14-.81.14-1,.06,0,.16,0,.14-.17s-.1,0-.15,0-.22-.2-.33-.3-.43-.13-.64-.36a.57.57,0,0,1-.2-.54c0-.39.07-.75.25-.77s.33-.23.48.08c0,0,.07,0,.11,0h0c.16-.24.36,0,.53-.33a.68.68,0,0,0,.14-.47c0-.59.13-.84.37-.86.71-.05,1.41-.09,2.11-.11a1.55,1.55,0,0,1,.82.21c.16.08.33-.17.5-.19a21.5,21.5,0,0,1,2.66,0c.81,0,1.62,0,2.44-.06.47,0,1-.18,1.43-.16a17.26,17.26,0,0,1,2.69,0c.25,0,.52-.16.78-.11a3.37,3.37,0,0,0,1.26.1,5.59,5.59,0,0,1,1.68-.09c.51,0,1-.07,1.54,0a3.55,3.55,0,0,0,1.11-.16.88.88,0,0,1,.7.17c.18.12.38-.07.58-.11s.48-.5.68.19c.13-.24.3-.07.42-.19s.45.1.67,0,.1.3.16.42.11.49.19-.07.3-.48.47,0c.06.19.12.2.17,0s.18-.38.3-.11c0,.09.1.16.13,0,.19-.72.46-.07.68-.26,0,0,.1.06.1.2,0,.38.08.36.16.15.15-.4.34-.34.51-.27.54.21,1.1,0,1.64.21a21.11,21.11,0,0,0,2.22.3,3.64,3.64,0,0,0,1.27-.09.93.93,0,0,1,.92.35c.32.37.68.24,1,.26.12,0,.24,0,.33.26a1.93,1.93,0,0,1,.12.85c0,.33-.13.66-.28.65s-.5.21-.75.46-.52,0-.78,0-.45-.07-.68-.1c0,0-.07,0-.1,0a.44.44,0,0,0-.12.33c0,.17.08.12.12.11a4.38,4.38,0,0,1,1.68.47c.32.1.64.25,1,.38a.94.94,0,0,1,.18.12,1.24,1.24,0,0,1,.25,1" fill="#231f20"/>
  <path d="M338.77,65.42h0" fill="#231f20"/>
  <path d="M327.32,66s0,0,0,0M325.83,65v0m-.22-3.2s0,0-.05,0a.41.41,0,0,0,0,.1s0-.05,0-.09m33.93,3.48c0,.34-.23.65-.4.54s-.45-.09-.66-.33c-.05,0-.16-.17-.11.09.1.6-.15.54-.2.84-.09.52-.21.12-.33,0s-.2-.19-.31,0-.15.11-.2,0c-.25-.52-.44,0-.63.23s-.26.21-.41.13a6.32,6.32,0,0,0-1.79-.39c-.41-.08-.83,0-1.25-.13-.15,0-.25-.34-.39-.32l-.13,0c-.22.24-.45.58-.68,0-.24.33-.47-.43-.71,0,0,.07-.1.09-.14.07a1.94,1.94,0,0,0-1.3-.08c-.08,0-.16,0-.22-.23-.37,0-.74.37-1.12,0a.76.76,0,0,0-.75-.09,2,2,0,0,1-.68-.06.85.85,0,0,0-.42,0c-.3.09-.63.29-.88,0s-.45-.48-.69-.07c0,0-.11.07-.16-.1s-.12-.23-.19-.17c-.36.37-.76-.09-1.09.2s-.85-.12-1.28,0a1.36,1.36,0,0,1-.89.06,1.79,1.79,0,0,0-1.37.14c-.36.17-.74,0-1.11,0a.28.28,0,0,1-.28-.2h0s0,0,0,0-.16.22-.23.19c-.67-.2-1.33.39-2,0-.18-.1-.31.19-.49.2a4.46,4.46,0,0,0-2.12.28c-.18.1-.4.06-.58-.23,0,0,0-.15-.08-.06-.23.64-.52.32-.78.35a15,15,0,0,0-3,.49,13.79,13.79,0,0,1-1.62.42.63.63,0,0,1-.46-.16c-.27-.2-.27-.17-.15-.87,0,0,0,0,0,0a1,1,0,0,1-1.37-.52.66.66,0,0,1-.11-.42,1.07,1.07,0,0,1-.07-.19c-.16-.7-.14-.81.14-1,.06,0,.16,0,.14-.17s-.1,0-.15,0-.22-.21-.33-.31-.44-.13-.64-.36a.57.57,0,0,1-.2-.54c0-.39.07-.75.25-.77s.33-.23.48.09c0,0,.07,0,.11-.05h0c.16-.24.35,0,.52-.32a.73.73,0,0,0,.15-.48c0-.59.13-.84.37-.86.7,0,1.41-.09,2.11-.11a1.55,1.55,0,0,1,.82.21c.16.09.32-.16.49-.19a23.79,23.79,0,0,1,2.67,0c.81,0,1.62-.05,2.44-.06.47,0,.95-.18,1.43-.16a17.27,17.27,0,0,1,2.69,0c.25.05.52-.16.78-.11a3.33,3.33,0,0,0,1.25.1,5.67,5.67,0,0,1,1.69-.09c.51.05,1-.07,1.54,0a3.55,3.55,0,0,0,1.11-.16.92.92,0,0,1,.7.17c.17.12.38-.07.58-.1s.48-.51.68.18c.13-.24.3-.07.42-.19s.45.1.67,0,.1.29.16.41.11.49.19-.07.3-.48.46,0c.07.19.13.2.18,0s.18-.38.3-.11c0,.09.1.16.13.05.19-.71.46-.07.68-.26.05,0,.1.07.1.2,0,.38.08.36.16.15.15-.4.34-.34.51-.27.54.21,1.1,0,1.64.21.74.25,1.48.13,2.22.31a3.92,3.92,0,0,0,1.27-.1.92.92,0,0,1,.91.35c.33.37.69.24,1,.26.12,0,.24,0,.33.26a1.93,1.93,0,0,1,.12.85c0,.34-.13.66-.28.65s-.51.21-.76.46-.51,0-.77,0-.46-.07-.68-.1c0,0-.08,0-.11,0a.44.44,0,0,0-.11.33c0,.17.08.12.12.11a4.38,4.38,0,0,1,1.68.47c.32.11.64.25,1,.39a.47.47,0,0,1,.18.12,1.22,1.22,0,0,1,.24,1" fill="#231f20"/>
  <path d="M379.6,65.42h0s0,0,0,0" fill="#231f20"/>
  <path d="M368.15,66h0M366.65,65s0,0,0,0v-.06a0,0,0,0,1,0,0m-.21-3.2a.05.05,0,0,0-.05,0,.41.41,0,0,0,0,.1s0-.05,0-.09m33.93,3.48c0,.34-.23.65-.4.54s-.46-.09-.67-.33c0,0-.15-.17-.11.09.1.6-.15.54-.2.84-.09.52-.2.12-.32,0s-.21-.19-.31,0-.16.11-.2,0c-.25-.52-.44,0-.64.23s-.25.21-.4.13a6.32,6.32,0,0,0-1.79-.39c-.42-.08-.84,0-1.25-.13-.16,0-.25-.34-.39-.32l-.13,0c-.22.24-.45.58-.68,0-.24.33-.47-.43-.72,0,0,.07-.09.09-.13.07a1.94,1.94,0,0,0-1.3-.08c-.08,0-.17,0-.22-.23-.38,0-.75.37-1.12,0a.76.76,0,0,0-.75-.09,1.94,1.94,0,0,1-.68-.06.89.89,0,0,0-.43,0c-.29.09-.62.29-.87,0s-.45-.48-.69-.07c0,0-.12.07-.16-.1s-.13-.23-.19-.17c-.36.37-.76-.09-1.1.2s-.85-.12-1.27,0a1.36,1.36,0,0,1-.89.06,1.79,1.79,0,0,0-1.37.14c-.36.17-.74,0-1.12,0a.28.28,0,0,1-.27-.2h0a.05.05,0,0,1,0,0c-.08.07-.16.22-.24.19-.66-.2-1.32.39-2,0-.18-.1-.32.19-.49.2a4.44,4.44,0,0,0-2.12.28c-.19.1-.4.06-.58-.23,0,0-.05-.15-.09-.06-.22.64-.52.32-.78.35a15.14,15.14,0,0,0-2.95.49,13.15,13.15,0,0,1-1.61.42.62.62,0,0,1-.46-.16c-.28-.2-.28-.17-.15-.87v0a1,1,0,0,1-1.36-.52.66.66,0,0,1-.11-.42,1.08,1.08,0,0,1-.08-.19c-.15-.7-.14-.81.15-1,0,0,.15,0,.14-.17s-.1,0-.15,0-.22-.21-.33-.31-.44-.13-.65-.36a.6.6,0,0,1-.2-.54c0-.39.07-.75.26-.77s.32-.23.48.09c0,0,.07,0,.1-.05h0c.16-.24.36,0,.53-.32a.73.73,0,0,0,.15-.48c0-.59.13-.84.37-.86.7,0,1.4-.09,2.11-.11a1.57,1.57,0,0,1,.82.21c.16.09.32-.16.49-.19a23.58,23.58,0,0,1,2.66,0c.82,0,1.63-.05,2.44-.06.48,0,1-.18,1.44-.16a17.13,17.13,0,0,1,2.68,0c.26.05.53-.16.79-.11a3.33,3.33,0,0,0,1.25.1,5.66,5.66,0,0,1,1.69-.09c.51.05,1-.07,1.54,0a3.55,3.55,0,0,0,1.11-.16.89.89,0,0,1,.69.17c.18.12.39-.07.58-.1s.48-.51.69.18c.13-.24.29-.07.42-.19s.44.1.67,0,.1.29.16.41.11.49.18-.07.31-.48.47,0c.07.19.13.2.18,0s.18-.38.3-.11c0,.09.1.16.13.05.19-.71.45-.07.68-.26,0,0,.09.07.1.2,0,.38.08.36.15.15.15-.4.34-.34.51-.27.55.21,1.1,0,1.65.21.73.25,1.48.13,2.22.31a3.94,3.94,0,0,0,1.27-.1.92.92,0,0,1,.91.35c.33.37.69.24,1,.26.13,0,.24,0,.34.26a1.8,1.8,0,0,1,.11.85c0,.34-.13.66-.28.65s-.5.21-.75.46-.51,0-.78,0-.45-.07-.67-.1c0,0-.08,0-.11,0a.44.44,0,0,0-.11.33c0,.17.08.12.12.11a4.38,4.38,0,0,1,1.68.47c.32.11.64.25,1,.39a.38.38,0,0,1,.17.12,1.22,1.22,0,0,1,.25,1" fill="#231f20"/>
  <path d="M296.59,65.42h0s0,0,0,0" fill="#231f20"/>
  <path d="M285.14,66h0M283.64,65s0,0,0,0v-.06a0,0,0,0,1,0,0m-.22-3.2s0,0,0,0,0,.09,0,.1,0-.05,0-.09m33.94,3.48c0,.34-.23.65-.4.54s-.46-.09-.67-.33c-.05,0-.15-.17-.11.09.1.6-.15.54-.2.84-.09.52-.2.12-.32,0s-.21-.19-.31,0-.16.11-.21,0c-.24-.52-.43,0-.63.23s-.25.21-.4.13a6.32,6.32,0,0,0-1.79-.39c-.42-.08-.84,0-1.25-.13-.16,0-.25-.34-.4-.32l-.12,0c-.23.24-.45.58-.68,0-.24.33-.48-.43-.72,0A.11.11,0,0,1,309,66a1.92,1.92,0,0,0-1.29-.08c-.08,0-.17,0-.22-.23-.38,0-.75.37-1.13,0s-.49-.14-.74-.09a1.94,1.94,0,0,1-.68-.06.89.89,0,0,0-.43,0c-.29.09-.63.29-.87,0s-.45-.48-.69-.07c0,0-.12.07-.16-.1s-.13-.23-.19-.17c-.37.37-.76-.09-1.1.2s-.85-.12-1.27,0a1.36,1.36,0,0,1-.89.06,1.79,1.79,0,0,0-1.37.14c-.36.17-.74,0-1.12,0a.28.28,0,0,1-.27-.2h0a.05.05,0,0,1,0,0c-.08.07-.16.22-.24.19-.66-.2-1.32.39-2,0-.18-.1-.32.19-.49.2a4.44,4.44,0,0,0-2.12.28c-.19.1-.4.06-.58-.23,0,0-.05-.15-.09-.06-.22.64-.52.32-.78.35a15.14,15.14,0,0,0-3,.49,13.15,13.15,0,0,1-1.61.42.62.62,0,0,1-.46-.16c-.28-.2-.28-.17-.15-.87v0a1,1,0,0,1-1.36-.52.72.72,0,0,1-.12-.42c0-.06-.05-.12-.07-.19-.16-.7-.14-.81.15-1,0,0,.15,0,.14-.17s-.1,0-.15,0-.22-.21-.33-.31-.44-.13-.65-.36a.6.6,0,0,1-.2-.54c0-.39.07-.75.26-.77s.32-.23.48.09c0,0,.07,0,.1-.05h0c.16-.24.36,0,.53-.32a.68.68,0,0,0,.14-.48c0-.59.14-.84.38-.86.7,0,1.4-.09,2.11-.11a1.59,1.59,0,0,1,.82.21c.15.09.32-.16.49-.19a23.61,23.61,0,0,1,2.66,0c.82,0,1.63-.05,2.44-.06.48,0,1-.18,1.43-.16a17.26,17.26,0,0,1,2.69,0c.25.05.53-.16.79-.11a3.32,3.32,0,0,0,1.25.1,5.61,5.61,0,0,1,1.68-.09c.52.05,1-.07,1.54,0a3.61,3.61,0,0,0,1.12-.16.89.89,0,0,1,.69.17c.18.12.39-.07.58-.1s.48-.51.69.18c.13-.24.29-.07.42-.19s.44.1.66,0,.11.29.16.41.12.49.19-.07.31-.48.47,0c.07.19.13.2.18,0s.18-.38.3-.11c0,.09.1.16.12.05.2-.71.46-.07.68-.26.06,0,.1.07.11.2,0,.38.07.36.15.15.15-.4.34-.34.51-.27.55.21,1.1,0,1.64.21.74.25,1.49.13,2.23.31a3.94,3.94,0,0,0,1.27-.1.92.92,0,0,1,.91.35c.32.37.68.24,1,.26.13,0,.24,0,.34.26a1.8,1.8,0,0,1,.11.85c0,.34-.13.66-.28.65s-.5.21-.75.46-.52,0-.78,0-.45-.07-.68-.1c0,0-.07,0-.1,0a.41.41,0,0,0-.11.33c0,.17.07.12.12.11a4.38,4.38,0,0,1,1.68.47c.32.11.64.25,1,.39a.38.38,0,0,1,.17.12,1.22,1.22,0,0,1,.25,1" fill="#231f20"/>
  <path d="M326.7,76.55h0" fill="#a97c50"/>
  <path d="M338.15,75.93h0M339.64,77v0m.22,3.2s0,0,.05,0a.41.41,0,0,0,0-.1s0,0,0,.09m-33.93-3.48c0-.33.23-.65.4-.54s.45.1.67.33c0,.06.15.17.1-.09-.1-.6.15-.54.21-.84.08-.52.2-.11.32,0s.21.2.31,0,.15-.11.2,0c.25.52.44,0,.63-.23s.26-.21.41-.13a5.7,5.7,0,0,0,1.79.39c.42.09.83,0,1.25.13.15,0,.25.34.39.32l.13,0c.22-.23.45-.58.68,0,.24-.33.47.43.71,0,0-.06.1-.09.14-.06a2,2,0,0,0,1.3.07c.08,0,.17,0,.22.23.37,0,.75-.37,1.12,0s.5.14.75.1a2,2,0,0,1,.68.06,1,1,0,0,0,.42,0c.3-.09.63-.29.88,0s.45.47.69.06c0,0,.12-.07.16.1s.13.24.19.17c.36-.37.76.09,1.09-.2s.85.12,1.28,0a1.43,1.43,0,0,1,.89-.06,1.74,1.74,0,0,0,1.37-.14c.36-.17.74,0,1.11,0a.3.3,0,0,1,.28.21h0l0,0c.08-.07.16-.22.23-.19.67.2,1.33-.38,2,0,.18.11.32-.19.49-.2a4.44,4.44,0,0,0,2.12-.28c.19-.1.4,0,.58.23,0,0,.05.15.08.06.23-.64.52-.32.79-.35a15.14,15.14,0,0,0,2.95-.49,13.15,13.15,0,0,1,1.61-.42.63.63,0,0,1,.46.17c.27.19.28.17.15.87h0a1,1,0,0,1,1.36.52.68.68,0,0,1,.11.42.62.62,0,0,1,.07.19c.16.7.15.81-.14,1-.06,0-.16,0-.14.17s.1,0,.15,0,.22.2.33.3.44.13.64.36a.59.59,0,0,1,.2.55c0,.38-.06.74-.25.77s-.33.22-.48-.09c0,0-.07,0-.1,0h0c-.16.24-.35,0-.52.33a.7.7,0,0,0-.15.47c0,.59-.13.84-.37.86-.7.05-1.41.1-2.11.11a1.55,1.55,0,0,1-.82-.21c-.16-.08-.32.17-.49.19a21.63,21.63,0,0,1-2.67,0c-.81,0-1.62,0-2.44.06-.47,0-.95.18-1.43.16a17.13,17.13,0,0,1-2.68,0c-.26,0-.53.16-.79.11a3.13,3.13,0,0,0-1.25-.09,5.65,5.65,0,0,1-1.69.08c-.51,0-1,.07-1.54,0a3.55,3.55,0,0,0-1.11.16.88.88,0,0,1-.7-.17c-.17-.12-.38.07-.57.11s-.48.5-.69-.18c-.13.23-.29.06-.42.18s-.45-.1-.67,0-.1-.3-.16-.42-.11-.49-.19.07-.3.49-.46,0c-.07-.18-.13-.2-.18,0s-.18.38-.3.11c0-.09-.1-.15-.13,0-.19.72-.46.07-.68.26-.05,0-.09-.06-.1-.2,0-.38-.08-.36-.16-.15-.14.4-.34.34-.5.27-.55-.21-1.1,0-1.65-.21a21.11,21.11,0,0,0-2.22-.3,3.91,3.91,0,0,0-1.27.09.92.92,0,0,1-.91-.35c-.33-.37-.69-.24-1-.26-.12,0-.23,0-.33-.26a1.8,1.8,0,0,1-.11-.85c0-.33.12-.65.28-.65s.5-.21.75-.46.51,0,.77,0l.68.1s.08,0,.11,0a.44.44,0,0,0,.11-.33c0-.17-.08-.12-.12-.11a4.36,4.36,0,0,1-1.68-.46c-.32-.11-.64-.26-1-.39a.63.63,0,0,1-.18-.12,1.25,1.25,0,0,1-.24-1" fill="#a97c50"/>
  <path d="M98.08,80.69h0s0,0,0,0" fill="#a97c50"/>
  <path d="M101.16,22.4s0,0,0,0M98,20.15a.17.17,0,0,0,0,.07v-.11s0,0,0,0m-.46-6.75c0-.05-.07,0-.11,0a1.65,1.65,0,0,0,.07.21c.06,0,.08-.1,0-.18m71.61,7.33c0,.71-.49,1.37-.85,1.15s-.95-.21-1.4-.71c-.1-.11-.32-.35-.23.21.21,1.26-.31,1.12-.42,1.76-.19,1.09-.44.24-.68.09s-.44-.41-.66-.05-.33.23-.43,0c-.52-1.09-.92.08-1.33.5s-.54.42-.86.26a13,13,0,0,0-3.77-.83c-.88-.17-1.77,0-2.65-.26-.32-.08-.52-.72-.83-.68l-.26-.06c-.47.49-.95,1.21-1.44.08-.5.7-1-.9-1.5-.06-.08.13-.21.19-.3.14a4.21,4.21,0,0,0-2.73-.17c-.17,0-.36-.05-.47-.47-.79-.08-1.58.77-2.37.06a1.63,1.63,0,0,0-1.57-.21,4.12,4.12,0,0,1-1.44-.12,1.83,1.83,0,0,0-.9,0c-.62.18-1.32.61-1.85,0s-.94-1-1.45-.14c0,.06-.24.15-.33-.2s-.28-.5-.41-.37c-.76.78-1.6-.18-2.31.42-.93.8-1.79-.25-2.69,0a3.11,3.11,0,0,1-1.88.13,3.76,3.76,0,0,0-2.89.28c-.76.37-1.56,0-2.35,0a.57.57,0,0,1-.58-.43v0l0-.09c-.16.15-.33.46-.49.41-1.4-.43-2.8.8-4.19,0-.38-.21-.67.42-1,.43-1.49,0-3-.18-4.48.59-.39.21-.84.13-1.22-.48-.07-.1-.11-.32-.18-.12-.48,1.34-1.1.67-1.65.74a31.29,31.29,0,0,0-6.23,1,26.15,26.15,0,0,1-3.4.88,1.33,1.33,0,0,1-1-.34c-.58-.41-.59-.37-.32-1.85,0,0,0,0,0,0-1,.4-2,.26-2.88-1.1a1.58,1.58,0,0,1-.24-.89,3.71,3.71,0,0,1-.15-.4c-.33-1.47-.3-1.71.31-2.15.11-.08.33,0,.29-.36s-.21,0-.31,0c-.28.06-.47-.43-.7-.64-.44-.42-.93-.28-1.36-.77a1.2,1.2,0,0,1-.42-1.14c0-.82.14-1.57.53-1.63s.69-.47,1,.19c0,.08.14-.05.21-.09v0c.34-.5.75,0,1.11-.69a1.49,1.49,0,0,0,.31-1c0-1.24.27-1.77.78-1.81,1.49-.1,3-.2,4.46-.24a3.28,3.28,0,0,1,1.73.44c.33.19.68-.34,1-.4,1.87-.3,3.74.18,5.62.09,1.71-.08,3.43-.1,5.14-.13,1,0,2-.38,3-.34,1.89.09,3.77-.33,5.67.05.53.11,1.11-.34,1.66-.24a6.77,6.77,0,0,0,2.64.21,11.8,11.8,0,0,1,3.55-.18c1.09.1,2.17-.16,3.26,0a7.62,7.62,0,0,0,2.34-.34,1.91,1.91,0,0,1,1.47.37c.37.25.81-.15,1.22-.23s1-1,1.44.38c.28-.48.63-.14.9-.39.48-.45.94.21,1.4-.07.26-.16.22.63.34.87s.24,1,.4-.14.64-1,1-.07c.15.4.27.42.37.05.2-.68.39-.81.64-.23.08.18.21.32.27.1.41-1.51,1-.15,1.44-.54.11-.1.2.13.21.42,0,.79.16.76.33.32.31-.85.72-.72,1.07-.58,1.16.44,2.32.07,3.47.45,1.56.52,3.13.26,4.69.63a7.64,7.64,0,0,0,2.68-.2,2,2,0,0,1,1.93.74c.68.78,1.44.51,2.18.56.26,0,.5,0,.7.55a3.77,3.77,0,0,1,.24,1.79c-.08.7-.27,1.38-.59,1.37-.57,0-1.06.44-1.58,1s-1.09.07-1.64,0-1-.13-1.43-.2c-.08,0-.16-.07-.23,0a.87.87,0,0,0-.23.68c0,.36.16.25.25.24,1.2-.12,2.37.58,3.55,1,.67.23,1.35.54,2,.82a1.05,1.05,0,0,1,.37.25,2.58,2.58,0,0,1,.52,2.12" fill="#a97c50"/>
  <path d="M40.18,40.33h0" fill="#231f20"/>
  <path d="M206.91,65.06h0m-1.85.86,0,0,0,0h0m-1.68-1.22a.07.07,0,0,0,0,0s.06,0,.07,0,0,0,0,0M235.9,35.93a.43.43,0,0,1-.11.6A4.42,4.42,0,0,1,235,37c-.07,0-.22.06-.06.14.37.18.11.37.2.55s-.13.24-.27.31-.28.1-.29.26a.19.19,0,0,1-.19.19c-.46,0-.38.4-.47.67a.66.66,0,0,1-.31.42,15.49,15.49,0,0,0-1.81,1.42c-.41.33-.77.74-1.2,1.06-.15.12-.38.07-.5.21l-.13.1c-.1.3-.14.66-.6.62-.07.36-.63.24-.67.63a.19.19,0,0,1-.09.15,4.87,4.87,0,0,0-1.22,1.13.28.28,0,0,1-.31.09c-.35.32-.51.83-1,1a1.84,1.84,0,0,0-.73.62,4,4,0,0,1-.65.58,2.34,2.34,0,0,0-.38.39c-.22.3-.44.69-.79.79s-.63.19-.66.59a.14.14,0,0,1-.19.09.18.18,0,0,0-.25.1c-.16.49-.73.64-.91,1.07s-.83.7-1.15,1.14a3.88,3.88,0,0,1-.79.83,4.26,4.26,0,0,0-1.18,1.28,5.59,5.59,0,0,1-1,1,.45.45,0,0,1-.35.16h0c0,.1-.05.24-.12.29-.7.51-1,1.36-1.81,1.78-.21.11-.2.37-.35.52a11.13,11.13,0,0,0-1.8,2,.85.85,0,0,1-.64.42c-.05,0-.12,0-.1,0,.08.48-.33.61-.55.85a37.09,37.09,0,0,0-2.46,2.86c-.41.55-.84,1.09-1.28,1.62a1.39,1.39,0,0,1-.5.34c-.34.16-.33.17-.54-.25h0a2.07,2.07,0,0,1-1.48,1,.35.35,0,0,1-.3-.09.77.77,0,0,1-.15,0c-.47-.17-.51-.23-.34-.58,0-.07.15-.13.05-.2s-.09.09-.13.14-.3.11-.44.16c-.29.1-.46.33-.76.41-.14,0-.28.12-.43-.06s-.28-.39-.13-.57.2-.38.48-.38c0,0,0-.08.08-.11h0c0-.25.32-.33.33-.62s0-.2-.09-.34-.26-.49-.05-.71c.61-.65,1.23-1.3,1.87-1.94a3.59,3.59,0,0,1,.84-.64c.18-.1.22-.36.36-.52.75-.86,1.66-1.55,2.45-2.36s1.46-1.48,2.19-2.21c.43-.42.79-.93,1.23-1.35.84-.78,1.56-1.67,2.46-2.39.25-.2.4-.54.66-.75a8.17,8.17,0,0,0,1.19-1.08,15.48,15.48,0,0,1,1.49-1.54c.5-.44.91-.95,1.4-1.38a9.6,9.6,0,0,0,.94-1.07,2.13,2.13,0,0,1,.71-.54c.22-.11.32-.38.48-.57s.2-.65.71-.53c0-.22.24-.29.3-.46s.45-.35.59-.61.23,0,.33,0,.33.12.14-.2.05-.48.41-.43c.15,0,.21,0,.17-.14s0-.34.23-.32c.07,0,.16,0,.14-.09-.16-.5.38-.45.5-.73,0-.06.11-.06.18,0s.24.09.21-.07a.58.58,0,0,1,.34-.58c.6-.39,1-1,1.6-1.37.78-.55,1.4-1.27,2.16-1.85a9.56,9.56,0,0,0,1.11-1.18,2,2,0,0,1,1-.66,2.74,2.74,0,0,0,1.06-.81.53.53,0,0,1,.42-.18.63.63,0,0,1,.5.28c.12.18.19.4.05.53a2.1,2.1,0,0,0-.48.88c-.1.3-.45.47-.7.69s-.44.38-.66.57c0,0-.08.05-.1.09a.21.21,0,0,0,0,.24c.08.07.12,0,.16-.05a9.62,9.62,0,0,1,1.74-1.3c.35-.24.71-.46,1.06-.69a.81.81,0,0,1,.21-.1.58.58,0,0,1,.69.23" fill="#231f20"/>
  <path d="M213.94,47.81h0" fill="#231f20"/>
  <path d="M203.52,39.18h0m-.86-1.66v0l0,0h0m1.2-1.66s0,0,0,0a.12.12,0,0,0,0,.08s.05,0,.05,0m28.58,28a.43.43,0,0,1-.6-.06c-.13-.23-.36-.4-.44-.67,0-.06-.06-.2-.14,0-.17.35-.36.13-.54.23s-.23-.1-.31-.23-.09-.25-.26-.25a.17.17,0,0,1-.19-.16c0-.43-.4-.32-.66-.38a.64.64,0,0,1-.41-.26,13.16,13.16,0,0,0-1.41-1.57c-.34-.37-.74-.66-1.06-1-.12-.13-.07-.35-.21-.45a.52.52,0,0,0-.1-.11c-.3-.07-.65-.08-.62-.52-.35,0-.23-.56-.62-.56a.2.2,0,0,1-.15-.08,4.31,4.31,0,0,0-1.12-1.05.24.24,0,0,1-.09-.28c-.32-.3-.82-.41-1-.85a1.51,1.51,0,0,0-.62-.63,3.84,3.84,0,0,1-.58-.56,1.7,1.7,0,0,0-.38-.32c-.3-.19-.68-.36-.79-.68s-.19-.57-.58-.57a.12.12,0,0,1-.09-.16c0-.12,0-.21-.1-.23-.48-.11-.64-.63-1.06-.76s-.7-.72-1.13-1a3.09,3.09,0,0,1-.82-.66,3.82,3.82,0,0,0-1.27-1,4.06,4.06,0,0,1-1-.87.37.37,0,0,1-.16-.31h0v0c-.1,0-.23,0-.29-.09-.5-.61-1.34-.85-1.76-1.54-.12-.19-.37-.16-.52-.29a9.75,9.75,0,0,0-2-1.52.7.7,0,0,1-.41-.56s0-.11,0-.09c-.48.12-.6-.26-.85-.44a30.64,30.64,0,0,0-2.83-2.07c-.55-.33-1.08-.69-1.61-1.06a1.16,1.16,0,0,1-.34-.44c-.16-.3-.17-.29.25-.52h0a1.76,1.76,0,0,1-1-1.31.28.28,0,0,1,.08-.28.77.77,0,0,1,0-.15c.16-.45.23-.49.57-.36.07,0,.13.13.2,0s-.09-.08-.14-.11-.11-.27-.16-.4-.33-.4-.41-.67-.11-.26.06-.41.38-.29.56-.16.39.15.39.41c0,0,.07,0,.11.06h0c.24,0,.32.27.6.26s.2,0,.34-.11.48-.29.7-.11c.65.52,1.29,1,1.93,1.59a3.16,3.16,0,0,1,.63.73c.1.17.36.18.52.3.85.62,1.54,1.42,2.34,2.09s1.47,1.24,2.19,1.87c.43.36.93.66,1.34,1,.78.71,1.66,1.32,2.38,2.1.2.22.53.33.74.56a6.88,6.88,0,0,0,1.07,1,11.72,11.72,0,0,1,1.53,1.27c.44.42,1,.76,1.38,1.19a8.23,8.23,0,0,0,1,.79,1.7,1.7,0,0,1,.54.62c.11.19.38.27.56.4s.65.14.53.62c.22,0,.29.2.46.24s.35.39.61.5,0,.22,0,.32-.12.32.19.12.48,0,.43.34q0,.21.15.15c.22-.08.33,0,.31.18s0,.15.09.13c.49-.19.44.32.72.41.06,0,.06.1,0,.17s-.09.23.07.19a.53.53,0,0,1,.58.27c.39.52,1,.87,1.36,1.38.55.69,1.26,1.21,1.84,1.87a8.44,8.44,0,0,0,1.17.94,1.76,1.76,0,0,1,.66.87c.12.43.5.65.79.93a.42.42,0,0,1,.19.38.68.68,0,0,1-.27.49c-.18.12-.4.2-.53.08a2,2,0,0,0-.87-.37c-.3-.07-.47-.38-.69-.6s-.37-.38-.56-.57c0,0-.05-.07-.09-.09a.23.23,0,0,0-.24.07c-.07.08,0,.11.05.15a8.17,8.17,0,0,1,1.29,1.52c.24.3.46.62.68.93a.72.72,0,0,1,.11.19.56.56,0,0,1-.22.66" fill="#231f20"/>
  <path d="M28.67,80.63h0M25.3,81.84l0,0,0,0s0,0,0,0m-2.8-2.2s-.06,0-.09.06a.22.22,0,0,0,.13,0c.05,0,0-.09,0-.09M83.41,36a.69.69,0,0,1-.28,1,7.33,7.33,0,0,1-1.39.64c-.12,0-.39.08-.12.23.63.33.15.61.29.92.24.53-.26.37-.52.47s-.5.14-.55.41a.33.33,0,0,1-.35.29c-.82-.08-.72.62-.91,1a1.13,1.13,0,0,1-.6.65,26.68,26.68,0,0,0-3.37,2.14c-.77.51-1.45,1.13-2.24,1.62-.3.18-.69.07-.92.28l-.23.15c-.22.49-.34,1.06-1.15,1-.16.58-1.13.31-1.25,1a.35.35,0,0,1-.19.24,8.57,8.57,0,0,0-2.28,1.71.5.5,0,0,1-.55.12c-.67.48-1,1.31-1.91,1.56a3.26,3.26,0,0,0-1.35.94,8.85,8.85,0,0,1-1.22.89,3.71,3.71,0,0,0-.72.59c-.43.47-.86,1.09-1.49,1.21s-1.12.24-1.23.89a.27.27,0,0,1-.35.14.34.34,0,0,0-.46.13c-.34.78-1.37,1-1.73,1.65-.47.9-1.55,1.07-2.18,1.76a6.25,6.25,0,0,1-1.48,1.26,7.38,7.38,0,0,0-2.25,2,9.7,9.7,0,0,1-1.93,1.51.82.82,0,0,1-.63.21h-.06c-.09.16-.12.39-.26.47-1.3.75-2,2.11-3.41,2.72-.38.16-.39.58-.69.82A19.17,19.17,0,0,0,40,71.62a1.56,1.56,0,0,1-1.17.62c-.09,0-.21,0-.19.06.09.81-.65,1-1.08,1.35a63.3,63.3,0,0,0-4.7,4.41c-.78.87-1.6,1.71-2.45,2.53a2.43,2.43,0,0,1-.91.5c-.62.23-.61.25-.92-.47,0,0,0,0,0,0a3.78,3.78,0,0,1-2.75,1.46.63.63,0,0,1-.51-.17,2,2,0,0,1-.26,0c-.8-.33-.86-.44-.52-1,.06-.1.27-.19.1-.32s-.16.14-.24.22-.54.14-.8.21c-.51.13-.85.5-1.38.6-.26,0-.52.15-.76-.15s-.44-.67-.14-1,.39-.62.89-.59c.06,0,.1-.11.14-.17h0c.1-.4.61-.49.66-1,0-.23.11-.32-.11-.57-.42-.48-.41-.83,0-1.17,1.17-1,2.34-2,3.54-3A6.66,6.66,0,0,1,28,73c.33-.14.43-.57.7-.82,1.42-1.33,3.11-2.36,4.6-3.61s2.76-2.26,4.15-3.38c.81-.65,1.5-1.45,2.34-2.08,1.57-1.19,3-2.57,4.63-3.66.47-.31.78-.84,1.26-1.16A14.09,14.09,0,0,0,48,56.69a24.57,24.57,0,0,1,2.82-2.37c.92-.66,1.71-1.46,2.63-2.12a14,14,0,0,0,1.79-1.65,3.8,3.8,0,0,1,1.33-.81c.39-.15.6-.58.91-.88s.45-1,1.31-.79c0-.36.46-.46.59-.72.23-.49.84-.54,1.12-.94.15-.22.39.09.58.1s.57.23.28-.31.15-.79.77-.66c.26.05.37,0,.32-.22-.09-.38,0-.55.43-.5.13,0,.29,0,.26-.14-.21-.82.74-.68,1-1.13.05-.1.21-.08.32,0,.3.28.41.17.38-.1,0-.51.33-.73.67-.91,1.1-.58,1.91-1.47,3-2.08,1.45-.81,2.63-1.93,4-2.8a15.68,15.68,0,0,0,2.1-1.81,3.69,3.69,0,0,1,1.84-1,4.79,4.79,0,0,0,2-1.2.9.9,0,0,1,.77-.25,1.11,1.11,0,0,1,.84.5c.19.31.28.69,0,.89a3.33,3.33,0,0,0-1,1.38c-.22.49-.86.74-1.33,1.07s-.82.57-1.23.85a.72.72,0,0,0-.19.14.34.34,0,0,0,.06.41c.13.12.22,0,.29-.08a17.69,17.69,0,0,1,3.23-1.93c.64-.36,1.3-.68,2-1a1.66,1.66,0,0,1,.39-.15,1,1,0,0,1,1.18.45" fill="#c2b59b"/>
  <path d="M26.83,41.47h0m-1.29-2.83,0,0,0,0h0M27.86,36s0,0-.06-.08a.19.19,0,0,0,0,.12s.09,0,.09,0M74.61,85.31a.8.8,0,0,1-1-.17c-.21-.4-.58-.69-.69-1.15,0-.11-.08-.33-.24-.08-.35.56-.66.17-1,.32-.56.25-.39-.2-.5-.41s-.14-.43-.44-.45-.31-.13-.3-.28c.07-.71-.67-.58-1.11-.7a1,1,0,0,1-.7-.47,19.92,19.92,0,0,0-2.29-2.74c-.54-.64-1.21-1.17-1.73-1.82-.2-.24-.08-.59-.31-.78l-.16-.19c-.52-.14-1.13-.2-1-.91-.63-.09-.34-1-1-1a.33.33,0,0,1-.25-.15A7.27,7.27,0,0,0,60,72.49a.37.37,0,0,1-.14-.47c-.52-.54-1.39-.77-1.66-1.52a2.64,2.64,0,0,0-1-1.1,7.24,7.24,0,0,1-.94-1,3.23,3.23,0,0,0-.64-.58c-.5-.34-1.15-.66-1.29-1.2s-.26-1-.95-1a.21.21,0,0,1-.15-.29c.08-.2,0-.35-.14-.39-.84-.23-1-1.11-1.77-1.37-1-.33-1.14-1.25-1.87-1.75a5.12,5.12,0,0,1-1.36-1.18,6.37,6.37,0,0,0-2.11-1.79,7.39,7.39,0,0,1-1.61-1.55.58.58,0,0,1-.24-.52h0s0,0,0,0c-.18-.06-.42-.07-.51-.19-.8-1.06-2.25-1.55-2.9-2.73-.18-.32-.62-.3-.88-.53a16.41,16.41,0,0,0-3.34-2.72,1.18,1.18,0,0,1-.66-1c0-.08,0-.18-.07-.16-.86.14-1-.49-1.43-.83a55,55,0,0,0-4.72-3.71c-.93-.61-1.83-1.26-2.71-1.92a2,2,0,0,1-.53-.76c-.25-.51-.27-.5.5-.83h0a2.89,2.89,0,0,1-1.56-2.26.5.5,0,0,1,.18-.46.86.86,0,0,1,.06-.23c.34-.72.46-.78,1.05-.53.11,0,.21.22.35.06s-.15-.13-.24-.19-.15-.45-.23-.68c-.14-.43-.53-.69-.64-1.14,0-.22-.16-.44.16-.67s.71-.44,1-.2.66.28.63.72c0,.06.12.08.18.11h0c.43,0,.53.48,1,.49.24,0,.34.07.6-.14.51-.4.89-.42,1.25-.1,1.07.93,2.14,1.87,3.19,2.82a5.48,5.48,0,0,1,1,1.28c.16.28.61.33.88.55,1.42,1.12,2.53,2.5,3.86,3.7s2.42,2.2,3.62,3.32c.7.65,1.55,1.18,2.22,1.85,1.28,1.27,2.75,2.36,3.92,3.72.32.39.9.61,1.24,1a11.39,11.39,0,0,0,1.75,1.79,21.11,21.11,0,0,1,2.53,2.26c.72.74,1.57,1.36,2.27,2.11A12.79,12.79,0,0,0,59,62a3,3,0,0,1,.87,1.09c.17.33.63.48.94.72s1.12.3.85,1.07c.39,0,.49.36.78.45.51.16.56.69,1,.9.24.11-.1.35-.11.51s-.24.51.33.21.84.07.71.62c-.06.23,0,.32.24.26.4-.1.58,0,.53.34,0,.11,0,.25.15.21.87-.25.73.58,1.2.75.12,0,.09.18,0,.29-.3.28-.19.36.1.32a.9.9,0,0,1,1,.5c.63.91,1.58,1.54,2.23,2.42.87,1.2,2.06,2.13,3,3.28a13.68,13.68,0,0,0,1.93,1.68,2.75,2.75,0,0,1,1,1.51c.17.72.81,1.12,1.29,1.61a.67.67,0,0,1,.27.65,1.09,1.09,0,0,1-.53.77c-.33.19-.73.29-1,.08a3.3,3.3,0,0,0-1.47-.7c-.52-.15-.79-.69-1.15-1.07s-.6-.67-.91-1c0-.06-.08-.13-.15-.15a.42.42,0,0,0-.43.08c-.13.13,0,.19.08.25a14.31,14.31,0,0,1,2.08,2.64c.37.52.72,1.07,1.08,1.61a1.33,1.33,0,0,1,.15.32.89.89,0,0,1-.47,1.07" fill="#c2b59b"/>
</svg>
