<svg id="Layer_1" data-name="Layer 1" xmlns="http://www.w3.org/2000/svg" viewBox="0 0 1440 490">
  <path d="M760.76,481.22c0,2.93-.07,5.86-.11,8.78H745.84c0-6.22,0-12.44-.08-18.66q-.07-10.71-.15-21.43c0-3.68-.05-7.37-.06-11.05q-.06-17.3-.11-34.59,0-6.81,0-13.62-.06-20,0-40,0-6.21,0-12.43,0-13,.13-26c0-.85,0-1.72,0-2.59-.13-4.87-.65-9.94-.16-14.74a22.78,22.78,0,0,1,2.34-8.44l.09.08-.1-.2c.89-2.75,2.6-1.78,3.9-2.62,5.93-3.79,7.81-.79,6.94,10.54,0,.51-.06,1-.06,1.55,0,2,.23,4,.31,5.91a.76.76,0,0,1,0,.15c2.28,4.75,1.2,10.14.84,15.4a21.58,21.58,0,0,0,.65,8.15l-.07-.11c-2,6.14-1.65,13.06-1.52,19.56,0,1.13.05,2.26.08,3.39q.16,6.88.39,13.77c.46,14.58,1.05,29.14,1.45,43.71q.23,8.12.35,16.25c0,1.89,0,3.78.07,5.67C761.17,445.53,761,463.37,760.76,481.22Z" fill="#cd704b"/>
  <path d="M728.38,339.3c-1.3,13,0,25.91.34,38.88.11,4.06.13,8.11-.07,12.17,0,.9-.09,1.81-.15,2.71-.83,12-1.27,24-1.52,36q-.15,7.17-.23,14.35c-.07,5.8-.11,11.61-.16,17.41,0,3,0,5.93-.07,8.9,0,3.58.11,7.16.36,10.73.21,3.19.5,6.37.82,9.56H714.9c.2-11.38-.68-22.74-1-34.11q-.07-2.89-.09-5.79c0-2.05,0-4.08,0-6.13q0-6.9.07-13.8.07-6.44.21-12.87.34-17.73,1.15-35.47.24-5.5.52-11,.19-3.84.4-7.68c.54-10.05.49-20.11.67-30.16,0-1.07,0-2.13.06-3.2.07-2.63,1.34-5.21,6.14-4.49l.25,0c3.31.56,6.41,1.74,7.18,3.78a3.4,3.4,0,0,1-.29,2.85,19,19,0,0,0-1.73,6.84C728.41,339,728.4,339.14,728.38,339.3Z" fill="#cd704b"/>
  <path d="M696.13,372.47l-.12.23a16.51,16.51,0,0,0-1.61,6.06c-1,8.86-.57,17.71-.13,26.57.2,3.81.39,7.62.47,11.43.06,3.19,0,6.38-.12,9.57,0,.77-.09,1.55-.15,2.32-.16,2.16-.31,4.31-.44,6.47q-.54,8.72-.82,17.45-.27,8-.39,16.05c-.13,7.13-.19,14.25-.25,21.38H680c-.12-3-.2-5.91-.22-8.87q-.07-13.92.21-27.84.11-5.48.26-10.93.24-8,.57-16c.12-2.92.26-5.85.4-8.77.11-2.44.24-4.87.37-7.31q.24-4.59.51-9.16c0-.26,0-.51,0-.77.56-10,.44-19.94.7-29.91a5.37,5.37,0,0,1,.41-2c.69-1.57,2.38-2.66,6-2.1C693.86,367.09,698.07,368.91,696.13,372.47Z" fill="#cd704b"/>
  <path d="M786,254.74c-.22,3.77-.26,7.53-.23,11.29.07,5.88.36,11.76.61,17.64.13,3.08.25,6.15.32,9.23.11,5.14.09,10.28-.25,15.43q-.33,5.3-.59,10.59-.39,7.88-.61,15.75c-.41,13.23-.55,26.47-.65,39.71l-.12,16c0,.29,0,.58,0,.87-.15,17.79,3.51,35.56,2.84,53.32-.06,2-.19,4-.39,6q-.75,7.68-1.36,15.36-1,12-1.53,24H770.65c.11-3,.23-6.07.33-9.1.5-14.33.63-28.67,1-43,.15-6.16.35-12.33.64-18.49,0-.1,0-.19,0-.29.7-14.81-.54-29.58-.84-44.37,0-1.56,0-3.13-.06-4.7,0-3.26,0-6.53,0-9.79q0-17.55.46-35.09.19-7.49.43-15,.42-12.49,1-25,.21-4.45.43-8.91c0-.11,0-.22,0-.33.27-5.37.39-10.74.46-16.11.06-3.63.09-7.26.13-10.89,0-3,.08-6.07.15-9.11s1.38-5.73,6.38-4.81c4.62.85,8.83,3,6.9,7.18a21.94,21.94,0,0,0-1.74,7.4C786.17,251.32,786.05,253,786,254.74Z" fill="#cd704b"/>
  <path d="M889.86,193.85c-1.91,19.57,1.35,39.1.08,58.72-1.77,27.61-1.76,55.3-2,83,0,4.28.15,8.56.45,12.84.54,8,1.47,16,2,24a134.76,134.76,0,0,1,0,22.46c-.17,1.77-.34,3.53-.5,5.3q-1,10.5-1.65,21Q886,455.57,886.88,490H874.17c-1.26-17.77-.73-35.48-.09-53.21.14-3.88.29-7.77.42-11.66.39-11.05.56-22.11.79-33.17.12-6,.25-12.09.46-18.14.11-3.49.24-7,.41-10.46.2-4.29.24-8.57.19-12.86-.08-6.3-.36-12.59-.62-18.88-.23-5.78-.45-11.55-.48-17.33-.14-31.38.74-62.74,2.33-94.1.6-12,.47-24.07.74-36.11.06-2.89,1.38-5.74,6.38-4.82,4.63.85,8.83,3,6.9,7.19A22.18,22.18,0,0,0,889.86,193.85Z" fill="#cd704b"/>
  <path d="M940.31,174.54c-1.9,19.56,1.35,39.1.08,58.71-1.76,27.62-1.76,55.3-2,83-.18,19.8,4.39,39.56,2.44,59.34a761.36,761.36,0,0,0-3.28,102.71q.23,5.87.54,11.74H925.82q-.42-8.21-1-16.39l-.18-2.53c-1.13-15.62-.87-31.2-.35-46.79.2-6.16.44-12.31.66-18.47.71-20.59.68-41.19,1.65-61.77.76-16.39-.82-32.71-.9-49.07-.15-31.38.74-62.75,2.32-94.11.6-12,.47-24.07.74-36.1.07-2.9,1.38-5.74,6.39-4.82,4.62.85,8.82,3,6.89,7.19A22.18,22.18,0,0,0,940.31,174.54Z" fill="#cd704b"/>
  <path d="M983,161.91c-1.91,19.57,1.35,39.11.08,58.72-1.77,27.62-1.76,55.3-2,83-.17,19.8,4.4,39.56,2.45,59.33a759.78,759.78,0,0,0-3.28,102.71c.3,8.13.77,16.25,1.28,24.37H969.12c-.45-10.52-1-21-1.77-31.55-1.58-21.79-.45-43.5.3-65.25.72-20.59.68-41.19,1.65-61.78.77-16.38-.81-32.71-.9-49.07-.14-31.37.74-62.74,2.33-94.1.6-12,.47-24.07.74-36.11.06-2.89,1.38-5.73,6.38-4.81,4.63.85,8.83,3,6.9,7.18A22,22,0,0,0,983,161.91Z" fill="#cd704b"/>
  <path d="M1083.68,154c-1.91,19.57,1.34,39.11.07,58.72-1.76,27.62-1.76,55.3-2,83-.18,19.8,4.39,39.56,2.45,59.33a759.79,759.79,0,0,0-3.29,102.71c.4,10.76,1.09,21.51,1.77,32.26h-12.6c-.5-13.16-1.14-26.31-2.09-39.44-1.58-21.79-.45-43.5.31-65.25.71-20.59.68-41.19,1.65-61.78.77-16.38-.82-32.71-.9-49.07-.15-31.37.74-62.74,2.33-94.1.6-12,.46-24.07.73-36.11.07-2.89,1.38-5.73,6.39-4.81,4.62.85,8.83,3,6.89,7.18A21.92,21.92,0,0,0,1083.68,154Z" fill="#cd704b"/>
  <path d="M1135.39,161.91c-1.91,19.57,1.35,39.11.08,58.72-1.77,27.62-1.76,55.3-2,83-.17,19.8,4.39,39.56,2.45,59.33a759.78,759.78,0,0,0-3.28,102.71c.3,8.13.77,16.25,1.27,24.37h-12.43q-.66-15.78-1.76-31.55c-1.58-21.79-.45-43.5.3-65.25.72-20.59.68-41.19,1.65-61.78.77-16.38-.82-32.71-.9-49.07-.14-31.37.74-62.74,2.33-94.1.6-12,.47-24.07.74-36.11.06-2.89,1.38-5.73,6.38-4.81,4.62.85,8.83,3,6.9,7.18A22,22,0,0,0,1135.39,161.91Z" fill="#cd704b"/>
  <polygon points="1167.95 476.33 1168.02 476.4 1168.02 476.43 1167.95 476.33" fill="#cd704b"/>
  <path d="M1186.25,472.7c.24,5.76.42,11.53.58,17.3H1169a11.83,11.83,0,0,0-.94-3.57c-.65-1.47,0-4,.89-5.67v.13c0-1.65.11-3.4-1-4.49.22-2.74-1.14-5.48,0-8.22.29-.23.73-.36.54-1.07,0-.21-.42-.24-.65-.35-.89-7.06.74-14-.15-21.34-.66-5.45-.29-11.74.06-17.6.67-10.94.61-22,.54-32.88-.12-17.7.28-35.38,0-53.07-.15-9.6.3-19.24-.14-28.8-.54-11.44.38-22.84-.19-34.27-.4-7.94.2-15.91.3-23.86.14-12.25-.26-24.5.49-36.74.23-3.85,1.19-7.9.21-11.67s-.85-7.63-.65-11.48a68.69,68.69,0,0,0-.86-14.32,76.64,76.64,0,0,1-.57-16.45c.16-2.63,1-3.6,2.36-4.22,2.73-1.26,5.42,1.75,5.89,6.62a15.4,15.4,0,0,0,.84,5.09c.83-1.47.65-3.37.93-5.08.44-2.66,1.13-5.37,3.14-5.67,1.8-.28,3.28,1.28,4.47,3.42.77,1.4.65,3.09.65,4.69,0,2.69,0,5.3,1.11,7.64.75,1.61.56,3.59.47,5.38q-.46,9.48-.15,18.95c.44,13.94-.93,27.82-.51,41.78.24,8.13-.48,16.39-.32,24.44.17,8.81-.16,17.52-.3,26.28-.08,4.06.3,8.22-.82,12.11,2.14,7.8.17,15.9.84,23.94.91,10.92-1.07,22-.07,33.28.69,7.82-.15,16.17.1,24.3.46,14.84-.6,29.61-.13,44.51C1185.88,445.36,1185.67,459,1186.25,472.7Z" fill="#cd704b"/>
  <path d="M1026.6,489.32c0,.23,0,.45,0,.68h-18.17c0-4.48-.09-8.94-.11-13.42v.06c.95-8.19.51-16.43.19-24.61-.53-13.08-.66-26.18-1.52-39.27q-1.23-18.93-.7-38c.59-21.33-.9-42.73-1.11-64.11-.22-21.89.34-43.8.08-65.69-.36-32-1.4-64.11.88-96.12.13-1.89-.18-5.51,2.05-5.11,3.92.72,6.15-2.29,9.07-3.76a4,4,0,0,1,3.43-.45c3.2,1.27,6.93,1,5.11,7.88-1.48,5.61.16,12.51-.36,18.24a100.69,100.69,0,0,0,.34,20.89c1.61,13.61.42,27,.44,40.53,0,6.5-1.29,13-.32,19.49l0-.06-.52,1.33v-.06c-1.26,1.87,0,3.88-.24,5.85-2,16.25-1.31,32.65-.34,48.86,1,16.56,1.23,33.09,1.08,49.61-.14,18-.32,36-.2,54,.08,11.59-.32,23.17-.36,34.75C1025.27,457,1026,473.15,1026.6,489.32Z" fill="#cd704b"/>
  <path d="M1296.54,233.14c-1.91,19.57,1.35,39.1.08,58.71-1.77,27.62-1.76,55.31-2,83-.17,19.8,4.39,39.55,2.45,59.33q-2.74,27.92-3.51,55.85H1280.3c.23-8.52.59-17.05.88-25.58.72-20.58.68-41.19,1.65-61.77.77-16.38-.82-32.71-.9-49.07-.14-31.38.74-62.74,2.33-94.1.6-12,.47-24.07.74-36.11.06-2.89,1.38-5.74,6.38-4.82,4.62.85,8.83,3,6.9,7.19A21.94,21.94,0,0,0,1296.54,233.14Z" fill="#cd704b"/>
  <path d="M1357.54,302.07c-1.91,19.57,1.35,39.1.08,58.72-1.77,27.62-1.76,55.3-2,83-.13,15.44,2.61,30.85,2.9,46.25h-15.34c.15-6.14.35-12.28.64-18.42.77-16.38-.82-32.71-.9-49.07-.14-31.38.74-62.74,2.33-94.1.6-12,.47-24.07.74-36.11.06-2.89,1.38-5.74,6.38-4.81,4.62.85,8.83,3,6.9,7.18A21.94,21.94,0,0,0,1357.54,302.07Z" fill="#cd704b"/>
  <path d="M1404.9,490h-20.57a28.49,28.49,0,0,0-.12-2.87c-.22-2.7.3-5.53.42-8.31.32-7.46-1.53-15.23,1.14-22.39.09-.26-.31-1-.48-1.46-1.88-5.8-1.59-12.27-2.49-18.34-1.23-8.33,1.58-16.27.76-24.12-1.51-14.19,3.06-22.59,10-29.44,1.7-2.6,3.41-6.19,6.1-3.78s5.83,15.13,4.43,17.82c-3,5.64-3.26,13.53-2,18.33,4,14.79.07,30.1,2.79,44.66l-.05-.07c-1.31,6.77,2.06,14.46-1.57,20.84a4.1,4.1,0,0,0,.48,2.31A10.24,10.24,0,0,1,1404.9,490Z" fill="#cd704b"/>
  <path d="M1234.89,266.85c0,6.5-1.3,13-.32,19.49l0-.07-.53,1.34v-.06c-1.26,1.86,0,3.87-.24,5.85-2,16.25-1.32,32.65-.34,48.86,1,16.56,1.22,33.09,1.08,49.61-.15,18-.32,36-.2,54,.08,11.58-.33,23.17-.36,34.75q0,4.69.06,9.39H1217.1c-.46-12.46-.63-24.95-1.44-37.42s-1.05-25.28-.7-38c.59-21.33-.9-42.74-1.12-64.11-.21-21.9.35-43.8.08-65.69-.36-32.05-1.39-64.11.89-96.13.13-1.89-.19-5.51,2-5.1,3.91.72,6.14-2.29,9.07-3.76a4,4,0,0,1,3.43-.45c3.19,1.27,6.92,1,5.11,7.87-1.48,5.62.16,12.52-.37,18.25a100.69,100.69,0,0,0,.35,20.89C1236.06,239.93,1234.86,253.34,1234.89,266.85Z" fill="#cd704b"/>
  <path d="M839.47,292.9q0,2,0,4c0,3.07-.28,6.13-.48,9.2a47.87,47.87,0,0,0,.16,10.29l0-.06-.52,1.34v-.07c-1.26,1.87,0,3.88-.24,5.85-.1.78-.19,1.57-.26,2.35-.4,3.68-.66,7.38-.81,11.07a326.82,326.82,0,0,0,.6,33.28c0,.72.09,1.44.13,2.16.43,7.12.71,14.22.89,21.33.23,9.43.27,18.86.19,28.29-.14,18-.32,36-.2,54,0,4.69,0,9.37-.09,14.06H820.62c-.11-2.45-.25-4.89-.41-7.34q-.75-11.54-.85-23.13c0-4.95,0-9.92.15-14.91.13-4.64.16-9.27.13-13.91-.13-16.72-1.08-33.46-1.25-50.2,0-4.77,0-9.54,0-14.3,0-6.24.06-12.47.11-18.71.07-9.86.14-19.71,0-29.57,0-1,0-2.07,0-3.11q0-3.75-.1-7.5-.14-9.68-.28-19.37Q818,281.49,818,275c-.14-18.78,0-37.55,1.39-56.31.13-1.89-.18-5.51,2-5.1,3.92.71,6.15-2.3,9.07-3.77a4,4,0,0,1,3.43-.45c3.2,1.27,6.92,1,5.11,7.88-1.48,5.61.16,12.52-.36,18.24a100.69,100.69,0,0,0,.34,20.89C840.45,268.66,839.63,280.76,839.47,292.9Z" fill="#cd704b"/>
  <path d="M763.63,490H752.85a106,106,0,0,0-7.09-18.66,74.24,74.24,0,0,0-4.38-7.64c-4.13-6.35-8.4-12.57-13.13-18.47q-.74-.92-1.5-1.83a108,108,0,0,0-12.88-13.23c-.48-.43-1-.84-1.46-1.24a121.55,121.55,0,0,0-17.67-12.17c-3.1-1.76-6.28-3.39-9.51-4.89-1.2-.54-2.41-1.07-3.63-1.57a108.68,108.68,0,0,0-27.09-7.3c-1.45-.19-2.91-.38-4.36-.54-3.74-.45-7.47-.83-11.21-1.1q-3.78-.28-7.56-.41a140.44,140.44,0,0,0-23.26,1c-14.68,1.91-28.85,7-42.06,13.82a75,75,0,0,0-14.6,10,158.41,158.41,0,0,0-12.65,12.19A140.54,140.54,0,0,0,507.05,490H496.94a82.26,82.26,0,0,1,6.93-20.18A171.27,171.27,0,0,1,521.16,443a146.53,146.53,0,0,1,22.46-22.7c6-4.75,11.82-9.74,18.24-14.12s13.38-8.13,21-10.09a172.48,172.48,0,0,1,57.59-4.57q6.18.54,12.3,1.51,4.65.75,9.26,1.72a149.86,149.86,0,0,1,20.14,5.64q6.17,2.19,12.12,5l.87.4a115.34,115.34,0,0,1,18.94,11.57,87.31,87.31,0,0,1,9.65,8.47c1.08,1.09,2.16,2.19,3.25,3.28,6.41,6.48,12.82,13.05,18.33,20.43.1.14.21.28.3.43a31.5,31.5,0,0,1,2.22,3.7c.68,1.46,1.29,3,1.93,4.43s1.26,2.95,2,4.37a24.92,24.92,0,0,0,2.67,4.06l-.08,0a136.15,136.15,0,0,1,6.42,14.77Q762.33,485.56,763.63,490Z" fill="#231f20"/>
  <path d="M836.51,490H825.72c-1.19-7.84-2.65-15.63-4.49-23.35-.58-2.38-1.2-4.76-1.87-7.12A175.62,175.62,0,0,0,804,421.33a305.91,305.91,0,0,0-19.27-30.48l-.31-.43c-4-5.41-8.16-10.66-12.65-15.67-3.46-3.85-7.09-7.56-10.9-11.09-.58-.54-1.16-1.08-1.75-1.6q-6.6-6-13.77-11.39a185.49,185.49,0,0,0-17-11.37q-5.67-3.36-11.56-6.3A169.49,169.49,0,0,0,671,317.65c-24.43-4.29-49.41-5.51-74-1.39-23.28,3.91-45.53,13-65.78,25.14a150.53,150.53,0,0,0-22.41,17,265.15,265.15,0,0,0-19.31,20.24,226.87,226.87,0,0,0-16.2,21.28l-1.88,2.76-1.76,2.84-3.53,5.68L462.79,417l-1.63,2.92-1.51,3-3,6L453.89,435,452.51,438l-1.24,3.1-2.49,6.2-2.2,6.31-1.12,3.16-1,3.2-1.93,6.41-1.67,6.49A162.76,162.76,0,0,0,437.6,490h-8.85c1-7.52,2.15-15,3.7-22.47a161.24,161.24,0,0,1,10.12-33.34c13.55-29.93,32.31-57.77,57.1-79.88,8.82-7.89,17.75-15.76,27.53-22.73a118.86,118.86,0,0,1,31.93-16.73,220.13,220.13,0,0,1,122.57-4.56,217.43,217.43,0,0,1,25.88,8.25c4.29,1.53,8.35,3.53,12.53,5.32l2.91,1.45,3.17,1.59,3,1.54,1.22.69,1.74,1,5.91,3.39,5.71,3.69,1.59,1,1.26.83,2.74,2c1.83,1.34,3.67,2.66,5.47,4,1.28,1.07,2.58,2.12,3.88,3.18,2.21,1.81,4.41,3.63,6.45,5.62,1.65,1.55,3.32,3.07,4.92,4.66l1.61,1.69,3,3.22q5,5.36,9.78,10.9a266,266,0,0,1,21.17,27.72c2.85,4.13,4.61,8.83,6.67,13.32a83.6,83.6,0,0,0,6.46,13.38l-.09-.05.87,2A229.29,229.29,0,0,1,836.51,490Z" fill="#231f20"/>
  <polygon points="686.34 253.01 686.34 253.01 686.26 252.99 686.34 253.01" fill="#231f20"/>
  <polygon points="627.52 248.27 627.48 248.27 627.56 248.27 627.52 248.27" fill="#231f20"/>
  <path d="M863.14,370.74l-.23-.25.06,0a2.18,2.18,0,0,1,.17.21" fill="#231f20"/>
  <path d="M717.65,260.33c-.83-.23-1.67-.4-2.51-.57.71.1,1.43.15,2.13.28Z" fill="#231f20"/>
  <polygon points="687.85 252.91 686 252.61 687.78 252.76 687.85 252.91" fill="#231f20"/>
  <polygon points="661.58 248.92 662.07 249.16 661.14 248.99 661.58 248.92" fill="#231f20"/>
  <path d="M606.15,249.12l-1.58.55a5.42,5.42,0,0,1,.73-.46c.05,0,.55-.06.85-.09" fill="#231f20"/>
  <path d="M915.45,490h-7.81a22.14,22.14,0,0,0-.71-2.69,6.23,6.23,0,0,0-2.42-3.53c-1-.63-1.63-2.08-2.06-6.79-.34-2.66-.69-5.36-1.05-8.08l-.59-4.09c-.25-1.35-.56-2.7-.85-4.05a264.49,264.49,0,0,0-11.71-39.61q-2-5.22-4.15-10.35l-2.51-5.67c-.84-1.9-1.66-3.8-2.63-5.65-1.26-2.48-2.45-5-3.67-7.53-.61-1.26-1.23-2.52-1.87-3.78a156.58,156.58,0,0,0-9-15.34l0-.09,0,.13a6.74,6.74,0,0,1-1.58-2.46h0c-1.89-3.17-4.1-6.15-6.18-9.2l-3.17-4.55L850,352.28q-6.09-7.9-12.78-15.39a262.13,262.13,0,0,0-18.76-19q-3.43-3.15-7-6.16a252.3,252.3,0,0,0-24.86-18.87,150.86,150.86,0,0,0-13-7.71c-1.53-.82-3.07-1.59-4.62-2.33l-.06-.05c-1.46-.82-2.9-1.72-4.4-2.49L760,278c-3-1.5-5.95-3.18-9.07-4.51l-9.23-4.19-9.43-3.75.05,0a8.36,8.36,0,0,0-.83-.32l0,0a12.08,12.08,0,0,1-2.27-.75c-.73-.28-1.43-.61-2.09-.93a12.47,12.47,0,0,0-3.73-1.35c-3.1-.29-5.54-1.41-8.51-2.48h0l-6.9-2.08c-2.29-.7-4.59-1.4-6.93-1.93l-.09,0a5.33,5.33,0,0,1-2.65-.6c-3.8-.36-7.84-1.45-11.94-2.09l-.63-.42-2.52-.64a5.75,5.75,0,0,0-2.91-.51h.05c-3-.58-6-.85-9.07-1.22s-6-.79-9.1-1l0,0c-10.31-.48-20.52-1.47-30.83-1.28l-.21,0-.16,0h-.1l-3.31.36-5.75,0-5.75.31a95.14,95.14,0,0,0-11.51,1.1c-.06.06-.1.12-.15.18H604l-5.51.52a28.82,28.82,0,0,0-3,.19c-4.36.89-8.67,1.86-13,2.67s-8.67,2-13.13,2.78c-4,.85-8.16,2.16-12.24,3.29-3.29.92-6.46,2.23-9.71,3.27l-4,1.29c-1.35.43-2.66.94-4,1.42-2.65,1-5.28,2-7.82,3.28v0c-4.22,1.8-8.35,3.79-12.54,5.66a273.76,273.76,0,0,0-50,31.07,184.59,184.59,0,0,0-14.55,11.77c-5.31,5.38-10.58,10.64-15.65,16.16-9.49,10.23-18.81,20.82-26.07,32.62v0a1.16,1.16,0,0,0-.63.87l0,0c-2.75,4.16-5.39,8.39-8,12.63l-3.7,6.48c-1.22,2.16-2.51,4.29-3.61,6.52A263.25,263.25,0,0,0,375.7,446a318.81,318.81,0,0,0-9.21,44h-8q.11-1.17.3-2.4v.07a284.26,284.26,0,0,1,10.57-47.86A280.09,280.09,0,0,1,394.81,381a285.17,285.17,0,0,1,38-52.14c10.35-11.35,21.36-22.36,34.24-31.54,1.38-1.06,2.81-2.08,4.27-3.09l4.33-3.1L480,288l4.48-2.93-.07.06c10.48-6,21.19-12.33,32.29-17.6,5.49-2.37,10.88-5,16.51-7.17,2.8-1.1,5.55-2.35,8.39-3.35l8.55-3c8.27-2.74,18.35-4.83,24.75-7a59.4,59.4,0,0,1,5.67-1.77c1.89-.45,3.75-.85,5.62-1.21,3.72-.73,7.41-1.42,11.28-1.85l9.6-1.2,9.64-.74a272.37,272.37,0,0,1,52.95.91l9.45,1.25,9.37,1.73c1.56.31,3.13.56,4.68.91l4.62,1.11c3.08.76,6.19,1.43,9.24,2.27,6.07,1.82,12.2,3.44,18.13,5.65,3,1.08,6,2,8.93,3.21l8.79,3.54A299.29,299.29,0,0,1,774,276.28q4.25,2.42,8.4,5,2,1.2,3.9,2.43a311,311,0,0,1,32,23.62l0,0a227.86,227.86,0,0,1,19.69,18.5q3.42,3.57,6.73,7.22l6,6.95c2,2.3,3.85,4.77,5.78,7.13,3.93,4.71,7.39,9.71,11,14.55q4.27,6,8.08,12.15a256.77,256.77,0,0,1,14.15,26.34c2.91,6.19,5.6,12.48,8.14,18.81.56,1.42,1.17,2.83,1.68,4.27l1.45,4.35c1,2.92,1.93,5.82,2.81,8.76l2.42,8.89c.4,1.48.86,2.95,1.24,4.44l1.09,4.48v0l.25,1.09,0,0A321.46,321.46,0,0,1,915.45,490Z" fill="#231f20"/>
  <path d="M710.9,490h-9.63c-1.09-3.44-2.72-6.66-3.58-10.18a48.14,48.14,0,0,0-4.87-11.2,64.55,64.55,0,0,0-12.72-15.25l-.1-.08a38.46,38.46,0,0,0-4.8-3.14c-1.72-.94-3.64-1.55-5.41-2.33s-3.68-1.27-5.4-2.06c-.88-.36-1.71-.83-2.58-1.23a20,20,0,0,1-2.54-1.34,52,52,0,0,0-9.16-4.53l-.51-.15a49.56,49.56,0,0,0-9.6-2.21l-2.6-.32-.91-.1-.4-.05h-1.31c-1.75,0-3.5,0-5.26.1a51,51,0,0,0-5.21.73l-2.58.46-2.52.76c-1.46.47-2.92.93-4.35,1.45l-4.14,1.95-2,1-1.93,1.19-3.83,2.35-3.6,2.64-1.81,1.27-1.7,1.42c-1.14.93-2.31,1.82-3.48,2.71s-2.22,1.93-3.38,2.85c-.53.42-1.05.86-1.56,1.3s-.91,1-1.34,1.51c-.88,1-1.7,2.1-2.51,3.17a38.83,38.83,0,0,0-2,3.46c-.62,1.19-1.37,2.29-1.87,3.52a14.18,14.18,0,0,1-3.06,3.77,6.08,6.08,0,0,0-1.93,4.39l0-.05A67.21,67.21,0,0,0,570.93,490H560.18c.26-1.07.53-2.13.81-3.19a84.06,84.06,0,0,1,2.88-8.82c.44-1.49,1.17-2.86,1.73-4.31s1.11-2.92,1.69-4.38c1-2.12,2-4.2,3.19-6.24,1.32-1.94,2.75-3.82,4.18-5.69s3.21-3.47,4.8-5.21,3.47-3.21,5.14-4.89a40.82,40.82,0,0,1,3.81-3.25c1.34-1,2.58-2.16,4-3.08a84.41,84.41,0,0,1,8.65-5.3c5.92-3.4,12.41-5.73,19-8a46.06,46.06,0,0,1,17-1.75,73.47,73.47,0,0,1,13.21,2.2l.25.07c9.13,2.35,18,5.82,25.42,11.21,1.42,1,2.86,2,4.3,2.95a81.39,81.39,0,0,1,13,10.21l.15.15,3.49,3.92c1.06,1.39,2,2.82,3,4.24l1.49,2.14,1.27,2.27c.83,1.52,1.68,3,2.45,4.56l2,4.77c.31.8.67,1.58.91,2.4l.71,2.46c.45,1.65,1,3.27,1.31,4.93l.82,5C710.85,489.61,710.87,489.8,710.9,490Z" fill="#231f20"/>
  <path d="M802.49,490H791.68c-.91-4.91-2-9.78-3.3-14.6-.86-3.16-1.8-6.31-2.86-9.42a116.48,116.48,0,0,0-11.79-25.33c-.58-.92-1.16-1.84-1.75-2.75-3.49-5.43-7.13-10.74-11-15.88-1.09-1.46-2.22-2.9-3.37-4.33a151,151,0,0,0-12.13-13.42q-3.62-3.54-7.52-6.77-4.49-3.76-9.27-7.15a155,155,0,0,0-13.42-8.52q-5.36-3-10.93-5.64c-2.73-1.25-5.49-2.42-8.29-3.49-4.18-1.62-8.44-3-12.75-4.24a134.34,134.34,0,0,0-17-3.62,246.6,246.6,0,0,0-28.78-2.62,170.89,170.89,0,0,0-28.93,1.43c-18.21,2.55-35.79,8.86-52.06,17.53a101.57,101.57,0,0,0-18.09,12.38,186.77,186.77,0,0,0-15.75,15.05,174.26,174.26,0,0,0-24.92,33.23,170.1,170.1,0,0,0-16.12,38.31q-1.36,4.88-2.29,9.85h-8.9c.77-4.89,1.6-9.77,2.67-14.63a111.15,111.15,0,0,1,8.81-26.13,201.91,201.91,0,0,1,20.86-32.94,178.28,178.28,0,0,1,27.37-27.83c7.3-5.83,14.55-11.79,22.45-17s16.42-9.71,25.66-12.26A202.74,202.74,0,0,1,675,356.85c1.75.33,3.47.77,5.2,1.21l5.18,1.31c3.39,1.07,6.87,1.92,10.21,3.17a166.37,166.37,0,0,1,19.83,8.12l.36.18c4.43,2.24,8.77,4.68,13,7.34a125.5,125.5,0,0,1,16.68,12.47c1.68,1.48,3.3,3,4.88,4.61,3.46,3.47,6.93,6.95,10.31,10.51,4.18,4.39,8.24,8.9,12,13.64q1.95,2.44,3.8,5a45.51,45.51,0,0,1,3.09,5c.87,1.77,1.65,3.58,2.47,5.35s1.6,3.57,2.5,5.31a35.61,35.61,0,0,0,2.79,4.53l.34.48-.08,0A166.91,166.91,0,0,1,802.49,490Z" fill="#231f20"/>
  <path d="M885.89,490H872.56a232.63,232.63,0,0,0-8.51-41.17,205.74,205.74,0,0,0-15.38-38.36c-3.06-5.71-6.31-11.33-9.79-16.81q-4.87-7.71-10.41-15-4.85-6.39-10.12-12.46-7.11-8.23-15-15.82c-5.77-5.52-11.82-10.78-18.13-15.72q-6.33-5-13-9.5l-2.45-1.64q-5-3.25-10.13-6.23c-4.62-2.69-9.33-5.22-14.11-7.63q-2.37-1.2-4.77-2.35a275.36,275.36,0,0,0-31-12.05,222.33,222.33,0,0,0-41.39-8.78c-32.88-3.76-66.44-1.48-98,8A235.18,235.18,0,0,0,434.8,399.39a207.09,207.09,0,0,0-17.13,35.85A255.6,255.6,0,0,0,404.86,486c-.23,1.34-.43,2.68-.61,4H391.74A292.46,292.46,0,0,1,398,456.37a204.33,204.33,0,0,1,14.18-40.07c2.42-5.35,5.43-10.5,8-15.65,7.88-15,17.81-29.32,27.81-42.1,11.07-14.07,24.2-25,37.83-35.74a14.3,14.3,0,0,1,1.59-1.09c.81-.46,1.65-1,2.51-1.58s1.82-1.14,2.74-1.77c1.86-1.25,3.75-2.61,5.56-3.89,2-1.47,4.12-2.66,6.19-4s4.15-2.59,6.29-3.79l6.43-3.59,3.2-1.84,3.26-1.77c4.16-2.29,7.76-3.42,12.06-5.36a225.12,225.12,0,0,1,50.08-16.54c8.09-1.72,16.22-3.44,24-4.12,17.85-1.61,35.53-2.26,53.25-.61,3,.25,6,.78,9,1.16l4.49.56c1.48.22,2.94.44,4.39.61,2.67.32,5.33.74,7.94,1.2s5.12,1.24,7.58,1.89l4.93,1.26,4.81,1.36c3.19.9,6.43,1.64,9.65,2.77a247.32,247.32,0,0,1,29.49,11.23q6.84,3.15,13.42,6.82c2.08,1.15,4.13,2.36,6.16,3.6l2.82,1.68,2.76,1.8,2.12,1.35,3.45,2.2c3.31,2.09,6.49,4.37,9.75,6.54l1.22.81c2.54,1.79,5.08,3.76,7.54,5.68a257.9,257.9,0,0,1,23.88,22.09q3.1,3.21,6.1,6.49l5.27,6c1.72,2,3.29,4.15,4.95,6.22,1.06,1.29,2.09,2.62,3.08,4,2.19,2.92,4.28,5.94,6.54,8.91,1.35,1.88,2.62,3.85,4,5.8s2.72,3.89,3.92,6c2.42,4.11,5.07,8.18,7.21,12.52a283.23,283.23,0,0,1,14.6,33.43c1.34,3.57,2.63,7.13,3.9,10.65.5,1.4,1,3.06,1.46,4.78s.95,3.52,1.32,5.22q.94,4,1.78,8c.58,2.63.88,5.29,1.31,7.92.91,5.25,1.32,10.54,1.95,15.9Z" fill="#231f20"/>
  <path d="M937.45,490H927l-.26-2.25c-.41-4.75-1.18-9.44-1.88-14.14-.15-1-.29-1.93-.42-2.9-.34-2.85-.95-5.65-1.47-8.47l-1.57-8.44-2-8.38c-.67-2.78-1.22-5.6-2.07-8.34-6-22.12-14.43-43.75-26.24-63.55l-.67-1.13q-6.66-11.19-14.08-21.9-6.84-9.83-14.38-19.16a281.32,281.32,0,0,0-23-25.22Q832.71,300,826,294.43q-3.9-3.33-7.93-6.48A277.36,277.36,0,0,0,785.73,266q-5.54-3.22-11.21-6.19-4.82-2.54-9.71-4.89a269.58,269.58,0,0,0-34.06-13.34c-5.78-2-11.71-3.41-17.61-4.94-2.93-.84-6-1.31-8.93-2s-6-1.29-9-1.73a352.21,352.21,0,0,0-53-5.09,302.35,302.35,0,0,0-53.15,3.47c-33.33,5.24-65.56,16.95-94.93,33.41a218,218,0,0,0-33,22.67l-3.88,3.14-3.72,3.33c-2.46,2.23-5,4.38-7.4,6.68l-7.14,7-1.79,1.73-1.71,1.8-3.42,3.61c-4.51,4.5-8.54,9.41-12.76,14.16-2,2.43-4,5-6,7.42l-3,3.71c-1,1.27-1.86,2.57-2.8,3.84l-5.58,7.7-5.22,7.93c-.86,1.33-1.76,2.64-2.59,4l-2.42,4.08c-1.59,2.74-3.27,5.42-4.81,8.19a298.24,298.24,0,0,0-28.18,70.2A255.9,255.9,0,0,0,351.54,490h-9.27c.13-1,.26-2,.38-3,2.12-16.13,4.34-32.2,8.09-48.06a232.49,232.49,0,0,1,15.72-46.32,330.87,330.87,0,0,1,36.1-59A313.44,313.44,0,0,1,451,283.81c12.94-10.47,26.24-20.61,40.5-29.5s29.46-16.5,45.59-21.6a330.43,330.43,0,0,1,172.22-6.53c1.55.35,3.12.63,4.65,1l4.61,1.23c3.07.84,6.17,1.61,9.23,2.47l9.1,2.87c1.52.49,3,.93,4.55,1.45l4.48,1.65,9,3.3,8.79,3.71,4.4,1.88,4.3,2.07,2.28,1.1L781,252l5,2.73,3.38,1.85c1.39.77,2.8,1.52,4.18,2.31l4.07,2.5,8.11,5,7.84,5.43c1.29.91,2.62,1.8,3.9,2.74l.53.41,3.23,2.51c2.5,2,5,3.89,7.49,5.89l7.16,6.26c1.19,1.05,2.4,2.08,3.55,3.16l.07.07,3.33,3.26a426.32,426.32,0,0,1,32.93,35.46c4.43,5.42,8.67,11,12.67,16.75l.09.13c2,2.89,3.81,5.88,5.56,8.89s3.17,6.21,4.75,9.3,3.07,6.23,4.66,9.32q1.18,2.31,2.5,4.58l2.67,4.51-.1-.07a296.84,296.84,0,0,1,28.92,105Z" fill="#231f20"/>
  <path d="M553.14,442.91s0,0,0,0l0,0Z" fill="#231f20"/>
  <path d="M735.84,490h-7.35a30.16,30.16,0,0,0-1.61-9.56,23.54,23.54,0,0,0-1.25-3c-2.62-5.23-5.06-10.52-8-15.6-1.16-2-2.4-4-3.74-5.91a51.12,51.12,0,0,0-6.74-8l.05,0c-3.13-4.37-8.43-7.6-11.45-11.75a5.46,5.46,0,0,0-1.56-1l-.18-.08a28.54,28.54,0,0,1-7-4.86,31.74,31.74,0,0,0-6.16-3.88,31.13,31.13,0,0,0-4-1.56c-1.52-.54-3.05-1-4.52-1.61a39,39,0,0,1-4.38-2.12,13.4,13.4,0,0,0-3.89-1.44l-6.8-1.38c-2.1-.34-4.2-.8-6.33-1.11l-.56-.08a81.65,81.65,0,0,0-12.45-1.15c-.5,0-1,0-1.51,0-5.48,0-10.64-1-16,.42a24.88,24.88,0,0,0-6.28.31,39.73,39.73,0,0,0-6,1.58c-9,3.15-17.75,6-25.84,10.64-4,2.26-8.56,5-11.31,7.83-5,5.21-10.42,9.12-14.71,14.49-3.27,4.13-6.61,8.76-9.67,13.48-3.37,5.2-4.78,11.59-7.22,18.26-.87,2.46-1.63,4.81-2.34,7.07h-7c0-.18.11-.36.17-.52,1.6-4.77,2.12-11.22,5-14.83a3.07,3.07,0,0,0,.15-.63,25.85,25.85,0,0,1,6.35-13.46,20.58,20.58,0,0,0,1.5-2.26c2.77-4.79,5.51-9.55,9.37-13.72,1.19-1.34.51-1.19.59-1.64,2.54-3.83,5.58-7.46,9.83-9.7l-.09.12.08-.09a43,43,0,0,1,14.28-9.51,14.06,14.06,0,0,0,2-1.35,50.84,50.84,0,0,1,5.93-3c5.12-2.59,10.8-4,15.68-5.8,8.34-3.2,16.45-5.44,26.25-5.06,2.09.09,4.25.12,6.46.05,1.64,0,3.32-.05,5-.05.58,0,1.16,0,1.74,0a51.71,51.71,0,0,1,9.93.94c1.24.25,2.47.55,3.67.92a5.33,5.33,0,0,0,1.33.17,20.83,20.83,0,0,1,6.33.83,32.88,32.88,0,0,1,6.06,2.36c2.85,1.38,7.11,2.88,8.46,2.88a13.16,13.16,0,0,1,5.09.93,28.07,28.07,0,0,1,7.12,4.09c2.16,1.7,4.07,3.13,6.27,4.63.55.39,1.13.77,1.73,1.17a57.66,57.66,0,0,1,5.49,4.47c4.25,3.67,8.87,7.46,12,12,.39.56.75,1.13,1.09,1.72a7.74,7.74,0,0,0,.93.84c3.66,3.4,6.7,8,9.57,12.3q.65,1,1.2,2c3.1,5.42,4.64,11.28,6.67,16.77A38.74,38.74,0,0,1,735.84,490Z" fill="#231f20"/>
  <path d="M304.22,188.65h0" fill="#231f20"/>
  <path d="M317.77,189.38s0,0,0,0m1.76-1.27v0s0,0,0-.07a0,0,0,0,1,0,0m.26-3.78s0,0,.06,0,0,.1,0,.11,0-.05,0-.1m-40.13,4.11c0,.4.28.77.48.65s.53-.12.78-.4c.06-.06.18-.2.13.11-.12.71.18.63.24,1,.11.61.24.14.38.05s.24-.23.37,0,.18.13.24,0c.29-.62.51,0,.75.27s.3.24.48.15a6.83,6.83,0,0,1,2.11-.46c.49-.1,1,0,1.48-.15.18,0,.3-.41.47-.38l.14,0c.27.28.53.68.81,0,.28.39.56-.51.84,0,.05.07.12.1.17.07a2.37,2.37,0,0,1,1.53-.09c.09,0,.2,0,.26-.27.45,0,.88.43,1.33,0a.91.91,0,0,1,.88-.12,2.23,2.23,0,0,0,.81-.07,1.06,1.06,0,0,1,.5,0c.35.1.74.34,1,0s.52-.56.81-.08c0,0,.14.08.19-.11s.15-.29.22-.21c.43.44.9-.1,1.3.23s1-.13,1.51,0a1.72,1.72,0,0,0,1,.07,2.1,2.1,0,0,1,1.62.16c.42.21.88,0,1.32,0a.33.33,0,0,0,.32-.24h0s0,0,0-.05.19.25.27.23c.79-.25,1.57.45,2.35,0,.21-.12.38.23.58.24a5.44,5.44,0,0,1,2.51.33c.22.12.47.07.68-.27,0-.06.07-.18.11-.07.26.75.61.38.92.42a16.94,16.94,0,0,1,3.49.57,14.8,14.8,0,0,0,1.9.5.74.74,0,0,0,.55-.2c.32-.22.33-.2.18-1h0a1.24,1.24,0,0,0,1.62-.62.88.88,0,0,0,.13-.5,1.13,1.13,0,0,0,.08-.22c.19-.83.17-1-.17-1.21-.06,0-.18,0-.16-.2s.11,0,.17,0,.27-.24.4-.36.51-.16.76-.43a.7.7,0,0,0,.23-.64c0-.46-.08-.88-.3-.91s-.38-.26-.57.11c0,0-.08,0-.12-.06h0c-.19-.28-.42,0-.62-.38a.78.78,0,0,1-.17-.56c0-.7-.16-1-.44-1-.84-.06-1.67-.12-2.5-.14a1.83,1.83,0,0,0-1,.25c-.18.1-.38-.2-.58-.23a27.6,27.6,0,0,0-3.15.05c-1,0-1.92-.06-2.89-.07-.56,0-1.13-.22-1.69-.19a21.1,21.1,0,0,0-3.18,0c-.3.06-.62-.19-.93-.14a3.72,3.72,0,0,1-1.48.12,6.35,6.35,0,0,0-2-.1c-.61,0-1.21-.09-1.82,0a4,4,0,0,1-1.32-.19,1.07,1.07,0,0,0-.82.21c-.21.13-.45-.09-.68-.13s-.57-.59-.81.21c-.16-.27-.35-.07-.5-.22s-.53.12-.79,0-.12.35-.19.49-.13.58-.22-.08-.36-.57-.55,0c-.09.23-.15.24-.21,0-.11-.38-.22-.45-.36-.13,0,.1-.12.18-.15.06-.23-.85-.54-.09-.8-.31-.07,0-.12.08-.12.24,0,.45-.1.43-.19.18-.17-.47-.4-.4-.6-.33-.65.25-1.3,0-1.94.26-.88.29-1.76.15-2.63.35a4.25,4.25,0,0,1-1.5-.11,1.13,1.13,0,0,0-1.08.41c-.39.44-.81.29-1.22.32-.15,0-.29,0-.4.31a2,2,0,0,0-.13,1c0,.39.15.77.33.77s.59.24.89.54.6,0,.91,0l.81-.12s.08,0,.12,0a.49.49,0,0,1,.13.39c0,.2-.09.14-.14.14a5.07,5.07,0,0,0-2,.54c-.38.13-.75.3-1.13.46a.85.85,0,0,0-.21.14,1.46,1.46,0,0,0-.29,1.19" fill="#231f20"/>
  <path d="M276.54,252.22h0s0,0,0,0" fill="#231f20"/>
  <path d="M290.08,252.94h0m1.77-1.26v0s0,0,0-.06,0,0,0,0m.26-3.78s0,0,.06,0,0,.11,0,.12-.05-.05,0-.1M252,252c0,.4.28.77.48.64s.53-.11.78-.39c.06-.07.18-.2.13.11-.12.71.18.63.24,1,.1.61.24.13.38,0s.24-.23.37,0,.18.13.24,0c.29-.61.51,0,.74.28s.3.24.48.15a7.28,7.28,0,0,1,2.12-.47c.49-.09,1,0,1.48-.15.18,0,.29-.4.46-.38l.15,0c.27.28.53.68.81,0,.28.39.56-.5.84,0,.05.08.12.11.17.08a2.24,2.24,0,0,1,1.53-.09c.09,0,.2,0,.26-.27.44,0,.88.43,1.33,0,.29-.26.59-.16.88-.11a2.16,2.16,0,0,0,.8-.07,1.1,1.1,0,0,1,.51,0c.34.1.74.34,1,0s.53-.56.82-.08c0,0,.14.09.19-.11s.15-.28.22-.2c.43.43.9-.11,1.3.23s1-.14,1.51,0a1.71,1.71,0,0,0,1,.07,2.1,2.1,0,0,1,1.62.16c.42.2.88,0,1.32,0a.33.33,0,0,0,.32-.24v0h0l0,0c.09.08.18.25.27.22.79-.24,1.57.45,2.35,0,.21-.12.37.23.58.23a5.34,5.34,0,0,1,2.51.34c.22.11.47.07.68-.27,0-.06.06-.18.1-.07.27.75.62.37.93.41a17.67,17.67,0,0,1,3.49.58,16.12,16.12,0,0,0,1.9.5.78.78,0,0,0,.55-.2c.32-.23.32-.2.18-1v0a1.21,1.21,0,0,0,1.61-.61.83.83,0,0,0,.14-.5,1.23,1.23,0,0,0,.08-.23c.19-.82.17-.95-.17-1.2-.06,0-.18,0-.16-.2s.11,0,.17,0,.27-.24.39-.36.52-.16.76-.43a.68.68,0,0,0,.24-.64c0-.46-.08-.88-.3-.91s-.38-.27-.57.1c0,.05-.08,0-.12,0h0c-.19-.28-.42,0-.62-.39a.78.78,0,0,1-.18-.56c0-.69-.15-1-.43-1-.84-.06-1.67-.11-2.5-.13a1.82,1.82,0,0,0-1,.24c-.19.11-.38-.19-.58-.22a27.6,27.6,0,0,0-3.15,0c-1,0-1.93-.06-2.89-.07-.56,0-1.13-.22-1.69-.19a21.1,21.1,0,0,0-3.18,0c-.3.06-.62-.19-.93-.13a3.92,3.92,0,0,1-1.48.12,6.35,6.35,0,0,0-2-.11c-.61.06-1.22-.08-1.82,0a4.63,4.63,0,0,1-1.32-.19,1,1,0,0,0-.82.2c-.21.14-.45-.08-.68-.12s-.57-.6-.81.21c-.16-.27-.35-.08-.5-.22s-.53.12-.79,0-.12.35-.19.49-.14.58-.22-.08-.36-.57-.56,0c-.08.22-.14.24-.2,0-.11-.38-.22-.46-.36-.13,0,.1-.12.18-.15.06-.23-.85-.54-.09-.81-.31-.06-.05-.11.07-.11.24,0,.44-.1.42-.19.18-.18-.48-.4-.41-.6-.33-.65.25-1.3,0-1.94.25-.88.3-1.76.15-2.63.36a4.5,4.5,0,0,1-1.5-.11,1.09,1.09,0,0,0-1.08.41c-.39.44-.81.28-1.22.31-.15,0-.29,0-.4.31a2.16,2.16,0,0,0-.14,1c.05.39.16.77.33.76s.6.25.89.54.61,0,.92,0,.54-.08.8-.12c.05,0,.09,0,.13,0a.49.49,0,0,1,.13.39c0,.2-.09.14-.14.13a5.09,5.09,0,0,0-2,.55c-.38.13-.75.3-1.13.46a.64.64,0,0,0-.21.14A1.45,1.45,0,0,0,252,252" fill="#231f20"/>
  <path d="M378.42,183.72h0" fill="#231f20"/>
  <path d="M392,184.45s0,0,0,0m1.76-1.27v0m.26-3.78s0,0,.06,0,0,.11,0,.11,0-.05,0-.1m-40.13,4.11c0,.4.28.77.48.65s.53-.12.79-.4c.05-.06.17-.2.12.11-.11.71.18.63.24,1,.11.61.24.14.38,0s.25-.23.37,0,.18.14.24,0c.29-.62.52,0,.75.27s.3.24.48.15a7.27,7.27,0,0,1,2.11-.46c.49-.1,1,0,1.49-.15.18,0,.29-.4.46-.38l.14,0c.27.27.54.68.81,0,.28.39.56-.51.85,0,0,.07.11.1.16.07a2.37,2.37,0,0,1,1.53-.09c.1,0,.2,0,.27-.27.44,0,.88.44,1.32,0a.91.91,0,0,1,.88-.12,2.21,2.21,0,0,0,.81-.07,1.06,1.06,0,0,1,.5,0c.35.11.74.34,1,0s.53-.56.81-.08c0,0,.14.09.19-.11s.15-.28.23-.21c.43.44.9-.1,1.29.24s1-.14,1.51,0a1.65,1.65,0,0,0,1,.08,2.05,2.05,0,0,1,1.62.15c.43.21.88,0,1.32,0a.34.34,0,0,0,.33-.24h0s0,0,0-.05.19.25.28.23c.78-.25,1.57.45,2.35,0,.21-.12.37.23.57.24a5.44,5.44,0,0,1,2.51.33c.22.12.47.07.69-.27,0,0,.06-.18.1-.07.26.76.61.38.92.42a16.85,16.85,0,0,1,3.49.58,16.58,16.58,0,0,0,1.9.49.77.77,0,0,0,.55-.19c.33-.23.33-.21.18-1h0a1.23,1.23,0,0,0,1.62-.62.81.81,0,0,0,.13-.5c0-.07.06-.13.09-.22.18-.82.16-1-.18-1.2-.06-.05-.18,0-.16-.21s.12,0,.18,0,.26-.24.39-.36.51-.15.76-.43a.68.68,0,0,0,.24-.64c0-.45-.09-.88-.31-.91s-.38-.26-.56.11c0,0-.08,0-.13,0h0c-.19-.28-.42,0-.62-.39a.8.8,0,0,1-.17-.56c0-.7-.16-1-.44-1-.83-.06-1.67-.12-2.5-.14a1.85,1.85,0,0,0-1,.25c-.18.1-.38-.19-.58-.23a30.1,30.1,0,0,0-3.15,0c-1,0-1.92,0-2.88-.07-.57,0-1.14-.21-1.7-.19a21,21,0,0,0-3.17,0c-.3.06-.63-.19-.94-.13a3.9,3.9,0,0,1-1.48.11,6.66,6.66,0,0,0-2-.1c-.61.06-1.21-.09-1.82,0a3.92,3.92,0,0,1-1.31-.19,1.08,1.08,0,0,0-.83.21c-.21.14-.45-.09-.68-.13s-.57-.59-.81.22c-.16-.28-.35-.08-.5-.23s-.53.12-.79,0-.12.35-.19.48-.13.58-.22-.08-.36-.57-.55,0c-.08.22-.15.23-.21,0-.11-.38-.22-.45-.35-.13-.05.11-.12.19-.16.06-.23-.85-.54-.08-.8-.3-.06-.05-.12.07-.12.23,0,.45-.09.43-.19.18-.17-.47-.4-.4-.6-.32-.65.25-1.3,0-1.94.25-.87.29-1.75.15-2.63.36a4.51,4.51,0,0,1-1.5-.12,1.12,1.12,0,0,0-1.08.42c-.39.44-.81.28-1.22.31-.15,0-.28,0-.4.31a2.12,2.12,0,0,0-.13,1c0,.39.15.77.33.77s.59.25.89.54.61,0,.92,0l.8-.12s.09,0,.12,0a.45.45,0,0,1,.13.38c0,.2-.09.14-.14.14a5,5,0,0,0-2,.54c-.38.13-.76.31-1.14.46a.69.69,0,0,0-.21.15,1.43,1.43,0,0,0-.29,1.18" fill="#231f20"/>
  <path d="M357.82,206h0" fill="#231f20"/>
  <path d="M371.36,206.69s0,0,0,0m1.76-1.26v0s0,0,0,0m.26-3.78s0,0,.06,0,0,.11,0,.12,0-.05,0-.1m-40.13,4.11c0,.4.28.77.48.64s.54-.11.79-.39c.05-.07.18-.2.13.11-.12.71.17.63.23,1,.11.61.24.13.38,0s.25-.23.37,0,.18.13.24,0c.29-.61.52,0,.75.28s.3.24.48.15a7.29,7.29,0,0,1,2.11-.47c.5-.09,1,0,1.49-.14.18,0,.29-.41.46-.39l.15,0c.26.28.53.68.8.05.29.38.56-.51.85,0,0,.08.11.11.16.08a2.31,2.31,0,0,1,1.53-.09c.1,0,.2,0,.27-.27.44,0,.88.43,1.32,0,.29-.27.59-.17.89-.12a2.18,2.18,0,0,0,.8-.07,1.06,1.06,0,0,1,.5,0c.35.1.75.34,1,0s.53-.55.82-.08c0,0,.13.09.18-.11s.15-.28.23-.2c.43.43.9-.11,1.29.23s1-.14,1.51,0a1.75,1.75,0,0,0,1.06.07,2.07,2.07,0,0,1,1.61.16c.43.2.88,0,1.32,0a.35.35,0,0,0,.33-.24v0h0a.05.05,0,0,0,0,0c.09.08.19.25.28.22.78-.24,1.57.45,2.35,0,.21-.12.37.23.57.24a5.19,5.19,0,0,1,2.51.33c.22.11.48.07.69-.27,0-.06.06-.18.1-.07.27.75.61.38.92.41a17.55,17.55,0,0,1,3.49.58,16.8,16.8,0,0,0,1.91.5.76.76,0,0,0,.54-.2c.33-.23.33-.2.18-1h0A1.23,1.23,0,0,0,373,206a.83.83,0,0,0,.13-.5,1.23,1.23,0,0,0,.09-.23c.18-.82.17-.95-.17-1.2-.07,0-.19,0-.17-.2s.12,0,.18,0,.26-.24.39-.36.52-.16.76-.43a.68.68,0,0,0,.24-.64c0-.46-.08-.88-.3-.91s-.39-.27-.57.1c0,.05-.08,0-.12,0h0c-.19-.28-.42,0-.62-.38a.89.89,0,0,1-.17-.57c0-.69-.16-1-.44-1-.83-.06-1.66-.11-2.5-.13a2,2,0,0,0-1,.24c-.18.11-.38-.19-.58-.22a27.6,27.6,0,0,0-3.15,0c-1,0-1.92-.06-2.88-.07-.56,0-1.13-.22-1.7-.19a21,21,0,0,0-3.17,0c-.3.06-.62-.19-.93-.13a3.93,3.93,0,0,1-1.48.12,6.7,6.7,0,0,0-2-.11c-.61.06-1.22-.08-1.83,0a4.28,4.28,0,0,1-1.31-.19,1,1,0,0,0-.82.21c-.21.13-.46-.09-.69-.13s-.57-.59-.81.21c-.15-.27-.35-.08-.5-.22s-.52.12-.79,0-.12.35-.18.49-.14.58-.23-.08-.36-.57-.55,0c-.08.22-.15.24-.21,0-.1-.38-.21-.45-.35-.13,0,.1-.12.18-.15.06-.23-.85-.55-.09-.81-.31-.06-.05-.11.08-.12.24,0,.44-.09.42-.18.18-.18-.48-.41-.4-.61-.33-.64.25-1.3,0-1.94.26-.87.29-1.75.14-2.63.35a4.5,4.5,0,0,1-1.5-.11,1.09,1.09,0,0,0-1.08.41c-.38.44-.81.29-1.22.31-.15,0-.28,0-.39.31a2.16,2.16,0,0,0-.14,1c.05.39.15.77.33.76s.59.25.89.54.61,0,.92,0l.8-.12s.09,0,.12,0a.49.49,0,0,1,.14.39c0,.2-.09.14-.14.13a5.21,5.21,0,0,0-2,.55c-.38.13-.76.3-1.14.46a.52.52,0,0,0-.2.14,1.45,1.45,0,0,0-.3,1.19" fill="#231f20"/>
  <path d="M309.54,206h0" fill="#231f20"/>
  <path d="M323.08,206.69h0m1.76-1.26v0s0,0,0,0m.26-3.78s0,0,.06,0,0,.11,0,.12,0-.05,0-.1M285,205.76c0,.4.28.77.48.64s.54-.11.79-.39c.05-.07.18-.2.13.11-.12.71.17.63.23,1,.11.61.24.13.38,0s.25-.23.37,0,.19.13.24,0c.29-.61.52,0,.75.28s.3.24.48.15a7.29,7.29,0,0,1,2.11-.47c.5-.09,1,0,1.49-.14.18,0,.29-.41.46-.39l.15,0c.26.28.53.68.8.05.29.38.56-.51.85,0,0,.08.11.11.16.08a2.31,2.31,0,0,1,1.53-.09c.1,0,.2,0,.27-.27.44,0,.88.43,1.32,0s.59-.17.89-.12a2.18,2.18,0,0,0,.8-.07,1.06,1.06,0,0,1,.5,0c.35.1.75.34,1,0s.53-.55.82-.08c0,0,.13.09.18-.11s.16-.28.23-.2c.43.43.9-.11,1.29.23s1-.14,1.51,0a1.75,1.75,0,0,0,1.06.07,2.07,2.07,0,0,1,1.61.16c.43.2.88,0,1.32,0a.34.34,0,0,0,.33-.24v0h0a.05.05,0,0,0,0,0c.09.08.19.25.28.22.78-.24,1.57.45,2.35,0,.21-.12.37.23.58.24a5.17,5.17,0,0,1,2.5.33c.22.11.48.07.69-.27,0-.06.06-.18.1-.07.27.75.61.38.92.41a17.55,17.55,0,0,1,3.49.58,16.8,16.8,0,0,0,1.91.5.76.76,0,0,0,.54-.2c.33-.23.33-.2.18-1h0a1.23,1.23,0,0,0,1.61-.62.83.83,0,0,0,.13-.5,1.23,1.23,0,0,0,.09-.23c.18-.82.17-.95-.18-1.2-.06,0-.18,0-.16-.2s.12,0,.18,0,.26-.24.39-.36.52-.16.76-.43a.68.68,0,0,0,.24-.64c0-.46-.08-.88-.3-.91s-.39-.27-.57.1c0,.05-.08,0-.12,0h0c-.19-.28-.42,0-.62-.38a.89.89,0,0,1-.17-.57c0-.69-.16-1-.44-1-.83-.06-1.66-.11-2.5-.13a1.9,1.9,0,0,0-1,.24c-.19.11-.39-.19-.59-.22a27.6,27.6,0,0,0-3.15,0c-1,0-1.92-.06-2.88-.07-.56,0-1.13-.22-1.7-.19a21,21,0,0,0-3.17,0c-.3.06-.62-.19-.93-.13a3.93,3.93,0,0,1-1.48.12,6.7,6.7,0,0,0-2-.11c-.61.06-1.22-.08-1.83,0a4.28,4.28,0,0,1-1.31-.19,1,1,0,0,0-.82.21c-.21.13-.46-.09-.69-.13s-.57-.59-.81.21c-.15-.27-.35-.08-.5-.22s-.52.12-.79,0-.12.35-.18.49-.14.58-.23-.08-.36-.57-.55,0c-.08.22-.15.24-.21,0-.1-.38-.21-.45-.35-.13-.05.1-.12.18-.15.06-.23-.85-.55-.09-.81-.31-.06-.05-.11.08-.12.24,0,.44-.09.42-.18.18-.18-.48-.41-.4-.61-.33-.64.25-1.3,0-1.94.26-.87.29-1.75.14-2.63.35a4.5,4.5,0,0,1-1.5-.11,1.09,1.09,0,0,0-1.08.41c-.38.44-.81.29-1.22.31-.15,0-.28,0-.39.31a2.16,2.16,0,0,0-.14,1c0,.39.15.77.33.76s.59.25.89.54.61,0,.92,0,.53-.08.8-.12c0,0,.09,0,.12,0a.53.53,0,0,1,.14.39c0,.2-.09.14-.14.13a5.21,5.21,0,0,0-2,.55c-.38.13-.76.3-1.14.46a.52.52,0,0,0-.2.14,1.45,1.45,0,0,0-.3,1.19" fill="#231f20"/>
  <path d="M407.7,206h0s0,0,0,0" fill="#231f20"/>
  <path d="M421.24,206.69h0m1.77-1.26v0s0,0,0-.06,0,0,0,0m.26-3.78s0,0,.06,0,0,.11,0,.12-.05-.05,0-.1m-40.13,4.11c0,.4.28.77.48.64s.53-.11.78-.39c.06-.07.18-.2.13.11-.12.71.18.63.24,1,.1.61.24.13.38,0s.24-.23.37,0,.18.13.24,0c.29-.61.51,0,.74.28s.3.24.48.15a7.28,7.28,0,0,1,2.12-.47c.49-.09,1,0,1.48-.14.18,0,.29-.41.46-.39l.15,0c.27.28.53.68.81.05.28.38.56-.51.84,0,.05.08.11.11.17.08a2.31,2.31,0,0,1,1.53-.09c.09,0,.2,0,.26-.27.44,0,.88.43,1.33,0,.29-.27.59-.17.88-.12a2.23,2.23,0,0,0,.81-.07,1.06,1.06,0,0,1,.5,0c.34.1.74.34,1,0s.52-.55.81-.08c0,0,.14.09.19-.11s.15-.28.22-.2c.43.43.9-.11,1.3.23s1-.14,1.51,0a1.71,1.71,0,0,0,1.05.07,2.1,2.1,0,0,1,1.62.16c.42.2.88,0,1.32,0a.33.33,0,0,0,.32-.24v0h0l0,0c.09.08.19.25.27.22.79-.24,1.57.45,2.35,0,.21-.12.38.23.58.24a5.19,5.19,0,0,1,2.51.33c.22.11.47.07.68-.27,0-.06.06-.18.1-.07.27.75.62.38.93.41a17.67,17.67,0,0,1,3.49.58,16.12,16.12,0,0,0,1.9.5.78.78,0,0,0,.55-.2c.32-.23.33-.2.18-1h0a1.22,1.22,0,0,0,1.61-.62.83.83,0,0,0,.14-.5,1.23,1.23,0,0,0,.08-.23c.19-.82.17-.95-.17-1.2-.06,0-.18,0-.16-.2s.11,0,.17,0,.27-.24.39-.36.52-.16.77-.43a.7.7,0,0,0,.23-.64c0-.46-.08-.88-.3-.91s-.38-.27-.57.1c0,.05-.08,0-.12,0h0c-.19-.28-.42,0-.62-.38a.83.83,0,0,1-.18-.57c0-.69-.15-1-.43-1-.84-.06-1.67-.11-2.5-.13a1.91,1.91,0,0,0-1,.24c-.19.11-.38-.19-.58-.22a27.6,27.6,0,0,0-3.15,0c-1,0-1.93-.06-2.89-.07-.56,0-1.13-.22-1.69-.19a21.1,21.1,0,0,0-3.18,0c-.3.06-.62-.19-.93-.13a3.92,3.92,0,0,1-1.48.12,6.67,6.67,0,0,0-2-.11c-.61.06-1.22-.08-1.82,0a4.3,4.3,0,0,1-1.32-.19,1,1,0,0,0-.82.21c-.21.13-.45-.09-.68-.13s-.57-.59-.81.21c-.16-.27-.35-.08-.5-.22s-.53.12-.79,0-.12.35-.19.49-.14.58-.22-.08-.36-.57-.56,0c-.08.22-.14.24-.2,0-.11-.38-.22-.45-.36-.13,0,.1-.12.18-.15.06-.23-.85-.54-.09-.8-.31-.07-.05-.12.08-.12.24,0,.44-.1.42-.19.18-.18-.48-.4-.4-.6-.33-.65.25-1.3,0-1.94.26-.88.29-1.76.14-2.63.35a4.5,4.5,0,0,1-1.5-.11,1.09,1.09,0,0,0-1.08.41c-.39.44-.81.29-1.22.31-.15,0-.29,0-.4.31a2.16,2.16,0,0,0-.14,1c.05.39.16.77.33.76.32,0,.6.25.89.54s.61,0,.92,0,.54-.08.8-.12c.05,0,.09,0,.13,0a.49.49,0,0,1,.13.39c0,.2-.09.14-.14.13a5.26,5.26,0,0,0-2,.55c-.38.13-.76.3-1.13.46a.55.55,0,0,0-.21.14,1.45,1.45,0,0,0-.29,1.19" fill="#231f20"/>
  <path d="M344.41,282.7h0" fill="#a97c50"/>
  <path d="M330.87,282h0m-1.76,1.26v0a0,0,0,0,1,0,0m-.26,3.78s0,0-.06,0,0-.11,0-.12,0,.06,0,.1M369,282.9c0-.39-.28-.76-.48-.64s-.54.12-.79.4c0,.06-.18.2-.13-.12.12-.7-.17-.63-.23-1-.11-.62-.24-.14-.38-.05s-.25.23-.37,0-.19-.13-.24,0c-.29.61-.52,0-.75-.27s-.3-.25-.48-.15a7.61,7.61,0,0,1-2.11.46c-.5.1-1,0-1.49.15-.18,0-.29.4-.46.38l-.15,0c-.26-.27-.53-.68-.8,0-.29-.39-.56.5-.85,0a.14.14,0,0,0-.16-.08,2.25,2.25,0,0,1-1.53.09c-.1,0-.2,0-.27.27-.44.05-.88-.43-1.32,0s-.59.16-.89.11a2.71,2.71,0,0,0-.8.07.94.94,0,0,1-.5,0c-.35-.11-.75-.35-1,0s-.53.56-.82.08c0,0-.13-.09-.18.11s-.16.28-.23.2c-.43-.43-.9.11-1.29-.23s-1,.14-1.51,0a1.68,1.68,0,0,0-1.06-.08,2.07,2.07,0,0,1-1.61-.16c-.43-.2-.88,0-1.32,0a.34.34,0,0,0-.33.25h0s0,0,0,.05-.19-.26-.28-.23c-.78.24-1.57-.45-2.35,0-.21.12-.37-.23-.58-.24a5.42,5.42,0,0,1-2.5-.33c-.22-.12-.48-.07-.69.27,0,0-.06.18-.1.07-.27-.76-.61-.38-.92-.42a17.55,17.55,0,0,1-3.49-.58,14.88,14.88,0,0,0-1.91-.49.71.71,0,0,0-.54.19c-.33.23-.33.2-.18,1v0a1.21,1.21,0,0,0-1.61.61.83.83,0,0,0-.13.5,1.57,1.57,0,0,0-.09.23c-.18.82-.17,1,.18,1.2.06.05.18,0,.16.2s-.12,0-.18,0-.26.23-.39.36-.52.15-.76.42a.7.7,0,0,0-.24.65c0,.45.08.87.3.91s.39.26.57-.11c0-.05.08,0,.12.05h0c.2.28.43,0,.63.39a.84.84,0,0,1,.17.56c0,.69.15,1,.44,1,.83.06,1.66.12,2.5.14a1.82,1.82,0,0,0,1-.25c.19-.1.39.19.59.22a27.6,27.6,0,0,0,3.15-.05c1,.05,1.92.06,2.88.07.56,0,1.13.22,1.7.2a22.38,22.38,0,0,0,3.17,0c.3-.06.62.19.93.13a3.73,3.73,0,0,1,1.48-.11,6.7,6.7,0,0,0,2,.1c.61-.06,1.22.09,1.83,0a4.61,4.61,0,0,1,1.31.19,1,1,0,0,0,.82-.2c.21-.14.46.08.69.13s.57.59.81-.22c.15.28.35.08.5.22s.52-.12.79,0,.12-.35.18-.49.14-.58.23.08.36.58.55,0q.12-.33.21,0c.1.38.21.46.35.13.05-.1.12-.18.15-.05.23.84.55.08.81.3.06.05.11-.07.12-.24,0-.44.09-.42.18-.17.18.47.41.4.61.32.64-.25,1.3,0,1.94-.25a26,26,0,0,1,2.63-.36,4.28,4.28,0,0,1,1.5.12,1.12,1.12,0,0,0,1.08-.42c.38-.44.81-.28,1.22-.31.15,0,.28,0,.39-.31a2.14,2.14,0,0,0,.14-1c-.05-.4-.15-.78-.33-.77s-.59-.25-.89-.54-.61,0-.92,0-.53.07-.8.11c0,0-.09,0-.12,0a.47.47,0,0,1-.14-.39c0-.19.09-.14.14-.13a4.88,4.88,0,0,0,2-.55c.38-.12.76-.3,1.14-.46a.52.52,0,0,0,.2-.14,1.45,1.45,0,0,0,.3-1.19" fill="#a97c50"/>
  <path d="M372.09,219.13h0" fill="#a97c50"/>
  <path d="M358.55,218.4h0m-1.76,1.27v0s0,0,0,0m-.26,3.78a0,0,0,0,1-.06,0s0-.1,0-.11,0,.05,0,.1m40.13-4.11c0-.4-.28-.77-.48-.65s-.54.12-.79.4c-.05.06-.18.2-.12-.11.11-.71-.18-.63-.24-1-.11-.61-.24-.14-.38-.05s-.25.23-.37,0-.18-.13-.24,0c-.29.62-.52,0-.75-.27s-.3-.24-.48-.15a7.27,7.27,0,0,1-2.11.46c-.5.1-1,0-1.49.15-.18,0-.29.41-.46.38l-.15,0c-.26-.27-.53-.68-.8,0-.28-.39-.56.51-.85,0,0-.07-.11-.1-.16-.07a2.37,2.37,0,0,1-1.53.09c-.1,0-.2,0-.27.27-.44,0-.88-.44-1.32,0a.91.91,0,0,1-.88.12,2.21,2.21,0,0,0-.81.07,1.06,1.06,0,0,1-.5,0c-.35-.1-.75-.34-1,0s-.53.56-.81.08c0,0-.14-.09-.19.11s-.15.28-.23.21c-.43-.44-.9.1-1.29-.24s-1,.14-1.51,0a1.68,1.68,0,0,0-1.06-.08,2,2,0,0,1-1.61-.15c-.43-.21-.88,0-1.32,0a.35.35,0,0,0-.33.24h0l0,.05c-.09-.08-.19-.25-.28-.23-.78.25-1.57-.44-2.35,0-.21.12-.37-.23-.57-.24a5.44,5.44,0,0,1-2.51-.33c-.22-.12-.48-.07-.69.27,0,0-.06.18-.1.07-.26-.75-.61-.38-.92-.42a16.85,16.85,0,0,1-3.49-.58,16.22,16.22,0,0,0-1.91-.49.72.72,0,0,0-.54.2c-.33.22-.33.2-.18,1h0a1.23,1.23,0,0,0-1.61.62.81.81,0,0,0-.13.5,1.12,1.12,0,0,0-.09.22c-.18.83-.16,1,.17,1.2.07.05.19,0,.17.21s-.12,0-.18,0-.26.24-.39.36-.52.15-.76.43a.68.68,0,0,0-.24.64c0,.46.08.88.3.91s.39.26.57-.11c0,0,.08,0,.12.06v0c.19.28.42,0,.62.39a.88.88,0,0,1,.17.56c0,.7.15,1,.44,1,.83.06,1.66.12,2.5.14a1.87,1.87,0,0,0,1-.25c.18-.1.38.19.58.23a27.6,27.6,0,0,0,3.15-.05c1,0,1.92.05,2.88.07.57,0,1.13.21,1.7.19a21,21,0,0,0,3.17,0c.3-.06.63.19.93.13a3.92,3.92,0,0,1,1.48-.11,6.7,6.7,0,0,0,2,.1c.61,0,1.22.09,1.83,0a3.92,3.92,0,0,1,1.31.19,1,1,0,0,0,.82-.21c.22-.14.46.09.69.13s.57.59.81-.22c.16.28.35.08.5.23s.53-.12.79,0,.12-.36.19-.49.13-.58.22.08.36.57.55,0q.12-.34.21,0c.11.38.22.45.35.13.05-.1.12-.19.16-.06.23.85.54.09.8.3.06.05.11-.07.12-.23,0-.45.09-.43.18-.18.18.47.41.4.61.32.64-.25,1.3,0,1.94-.25.87-.29,1.75-.15,2.63-.36a4.51,4.51,0,0,1,1.5.12,1.12,1.12,0,0,0,1.08-.42c.38-.43.81-.28,1.22-.31.15,0,.28,0,.39-.31a2.12,2.12,0,0,0,.14-1c0-.39-.15-.77-.33-.77s-.59-.25-.89-.54-.61,0-.92,0l-.8.12s-.09,0-.12,0a.45.45,0,0,1-.13-.38c0-.2.09-.14.14-.14a5,5,0,0,0,2-.54c.38-.13.76-.3,1.14-.46a.55.55,0,0,0,.2-.15,1.39,1.39,0,0,0,.3-1.18" fill="#a97c50"/>
  <path d="M270.22,287.62h0s0,0,0,0" fill="#726658"/>
  <path d="M256.68,286.9h0m-1.77,1.26a.06.06,0,0,1,0,0v0m-.26,3.78s0,0-.05,0a.5.5,0,0,1,0-.12s.05.06,0,.1m40.13-4.11c0-.4-.27-.77-.47-.64s-.54.11-.79.39c-.06.07-.18.2-.13-.11.12-.71-.17-.63-.24-1-.1-.61-.24-.13-.38-.05s-.24.23-.36,0-.19-.13-.25,0c-.29.61-.51,0-.74-.28s-.3-.24-.48-.15a7.28,7.28,0,0,1-2.12.47c-.49.09-1,0-1.48.15-.18,0-.29.4-.46.38l-.15,0c-.27-.28-.53-.68-.81,0-.28-.39-.55.5-.84,0-.05-.08-.11-.11-.16-.08a2.28,2.28,0,0,1-1.54.09c-.09,0-.2,0-.26.27-.44.05-.88-.43-1.33,0-.29.26-.59.16-.88.11a2.39,2.39,0,0,0-.8.07,1.1,1.1,0,0,1-.51,0c-.34-.1-.74-.34-1,0s-.53.56-.82.08c0,0-.13-.09-.19.11s-.15.28-.22.2c-.43-.43-.9.11-1.3-.23s-1,.14-1.5,0a1.75,1.75,0,0,0-1.06-.07,2.1,2.1,0,0,1-1.62-.16c-.42-.2-.87,0-1.31,0a.34.34,0,0,0-.33.24v0h0l0,0c-.1-.08-.19-.25-.28-.22-.79.24-1.57-.45-2.35,0-.21.12-.37-.23-.58-.23a5.3,5.3,0,0,1-2.5-.34c-.22-.11-.48-.07-.69.27,0,.06-.06.18-.1.07-.27-.75-.62-.37-.93-.41a17.45,17.45,0,0,1-3.48-.58,16.8,16.8,0,0,0-1.91-.5.76.76,0,0,0-.54.2c-.33.23-.33.2-.18,1v0h0a1.21,1.21,0,0,0-1.61.61.9.9,0,0,0-.14.5c0,.07-.06.14-.08.23-.19.82-.17.95.17,1.2.07,0,.18,0,.17.2s-.12,0-.18,0-.26.24-.39.36-.52.16-.76.43a.68.68,0,0,0-.24.64c0,.46.08.88.3.91s.39.27.57-.1c0-.05.08,0,.12.05h0c.19.28.43,0,.63.39a.84.84,0,0,1,.17.56c0,.69.15,1,.44,1,.83.06,1.66.11,2.49.14a1.92,1.92,0,0,0,1-.25c.19-.11.38.19.59.22A27.42,27.42,0,0,0,263,294c1,.05,1.93.06,2.89.07.56,0,1.13.22,1.69.19a21.1,21.1,0,0,0,3.18,0c.3-.06.62.19.93.13a3.92,3.92,0,0,1,1.48-.12,6.37,6.37,0,0,0,2,.11c.61-.06,1.22.08,1.82,0a4.63,4.63,0,0,1,1.32.19,1.06,1.06,0,0,0,.82-.2c.21-.14.46.08.69.12s.56.6.81-.21c.15.27.35.08.5.22s.52-.12.78,0,.12-.35.19-.49.14-.58.23.08.35.57.55,0c.08-.22.15-.24.21,0,.1.38.21.46.35.13,0-.1.12-.18.15-.06.23.85.55.09.81.31.06.05.11-.07.12-.24,0-.44.09-.42.18-.18.18.48.4.41.6.33.65-.25,1.3,0,1.95-.25a26.16,26.16,0,0,1,2.62-.36,4.56,4.56,0,0,1,1.51.11,1.1,1.1,0,0,0,1.08-.41c.38-.44.81-.28,1.22-.31.15,0,.28,0,.39-.31a2.16,2.16,0,0,0,.14-1c-.05-.39-.15-.77-.33-.76s-.6-.25-.89-.54-.61,0-.92,0-.54.08-.8.12c0,0-.09,0-.13,0a.51.51,0,0,1-.13-.39c0-.2.09-.14.14-.13a5.09,5.09,0,0,0,2-.55c.38-.13.76-.3,1.14-.46a.52.52,0,0,0,.2-.14,1.45,1.45,0,0,0,.29-1.19" fill="#726658"/>
  <path d="M290.82,265.38h0" fill="#c2b59b"/>
  <path d="M277.28,264.65h0m-1.77,1.27v-.05s0,.05,0,.07v0m-.26,3.78s0,0-.06,0,0-.11,0-.11,0,0,0,.1m40.13-4.11c0-.4-.28-.77-.48-.65s-.53.12-.78.4c-.06.06-.18.2-.13-.11.12-.71-.18-.63-.24-1-.1-.61-.24-.14-.38-.05s-.24.23-.37,0-.18-.14-.24,0c-.29.62-.51,0-.74-.27s-.31-.24-.49-.15a7.13,7.13,0,0,1-2.11.46c-.49.1-1,0-1.48.15-.18,0-.29.4-.46.38l-.15,0c-.27-.27-.53-.68-.81,0-.28-.39-.56.51-.84,0-.05-.07-.12-.1-.17-.07a2.37,2.37,0,0,1-1.53.09c-.09,0-.2,0-.26.27-.44,0-.88-.44-1.33,0a.91.91,0,0,1-.88.12,2.23,2.23,0,0,0-.81.07,1.06,1.06,0,0,1-.5,0c-.34-.11-.74-.34-1,0s-.52.56-.81.08c0,0-.14-.09-.19.11s-.15.28-.22.21c-.43-.44-.9.1-1.3-.24s-1,.14-1.51,0a1.64,1.64,0,0,0-1.05-.08,2.06,2.06,0,0,1-1.62-.15c-.42-.21-.88,0-1.32,0a.32.32,0,0,0-.32.24h0l0,.05c-.09-.08-.19-.26-.27-.23-.79.24-1.57-.45-2.35,0-.21.12-.38-.23-.58-.24a5.44,5.44,0,0,1-2.51-.33c-.22-.12-.47-.07-.68.27,0,.05-.06.18-.1.07-.27-.76-.62-.38-.93-.42a17,17,0,0,1-3.49-.58,16.06,16.06,0,0,0-1.9-.49.77.77,0,0,0-.55.19c-.32.23-.33.21-.18,1,0,0,0,0,0,0h0a1.21,1.21,0,0,0-1.61.62.81.81,0,0,0-.14.5,1.13,1.13,0,0,0-.08.22c-.19.82-.17,1,.17,1.2.06.05.18,0,.16.21s-.11,0-.17,0-.27.24-.39.36-.52.15-.77.43a.7.7,0,0,0-.23.64c0,.45.08.88.3.91s.38.26.57-.11c0,0,.08,0,.12.05h0c.19.28.42,0,.62.39a.8.8,0,0,1,.18.56c0,.7.15,1,.43,1,.84.06,1.67.12,2.5.14a1.83,1.83,0,0,0,1-.25c.19-.1.38.19.58.23a30.1,30.1,0,0,0,3.15-.05c1,0,1.93.05,2.89.07.56,0,1.13.21,1.69.19a21.1,21.1,0,0,0,3.18,0c.3-.06.62.19.93.13a3.91,3.91,0,0,1,1.48-.11,6.66,6.66,0,0,0,2,.1c.61-.06,1.21.09,1.82,0a4,4,0,0,1,1.32.19,1.07,1.07,0,0,0,.82-.21c.21-.14.45.09.68.13s.57.59.81-.22c.16.28.35.08.5.23s.53-.12.79,0,.12-.35.19-.48.14-.58.22.08.36.57.56,0c.08-.22.14-.23.2,0,.11.38.22.45.36.13,0-.11.12-.19.15-.06.23.85.54.08.8.3.07.05.12-.07.12-.23,0-.45.1-.43.19-.18.18.47.4.4.6.32.65-.25,1.3,0,1.94-.25.88-.29,1.76-.15,2.63-.36a4.51,4.51,0,0,1,1.5.12,1.11,1.11,0,0,0,1.08-.42c.39-.44.81-.28,1.22-.31.15,0,.29,0,.4-.31a2.12,2.12,0,0,0,.14-1c-.05-.4-.16-.77-.34-.77s-.59-.25-.88-.54-.61,0-.92,0-.54.08-.8.12c-.05,0-.09,0-.13,0a.47.47,0,0,1-.13-.38c0-.2.09-.14.14-.14a5.07,5.07,0,0,0,2-.54c.38-.13.75-.31,1.13-.46a.69.69,0,0,0,.21-.15,1.43,1.43,0,0,0,.29-1.18" fill="#c2b59b"/>
  <path d="M339.1,265.38h0" fill="#a97c50"/>
  <path d="M325.56,264.65h0m-1.77,1.27v-.05s0,.05,0,.07v0m-.26,3.78s0,0-.06,0,0-.11,0-.11.05,0,0,.1m40.13-4.11c0-.4-.28-.77-.48-.65s-.53.12-.78.4c-.06.06-.18.2-.13-.11.12-.71-.18-.63-.24-1-.1-.61-.24-.14-.38-.05s-.24.23-.37,0-.18-.14-.24,0c-.29.62-.51,0-.74-.27s-.31-.24-.49-.15a7.13,7.13,0,0,1-2.11.46c-.49.1-1,0-1.48.15-.18,0-.3.4-.47.38l-.14,0c-.27-.27-.54-.68-.81,0-.28-.39-.56.51-.84,0,0-.07-.12-.1-.17-.07a2.37,2.37,0,0,1-1.53.09c-.09,0-.2,0-.26.27-.44,0-.88-.44-1.33,0a.91.91,0,0,1-.88.12,2.23,2.23,0,0,0-.81.07,1.06,1.06,0,0,1-.5,0c-.35-.11-.74-.34-1,0s-.52.56-.81.08c0,0-.14-.09-.19.11s-.15.28-.22.21c-.43-.44-.9.1-1.3-.24s-1,.14-1.51,0a1.64,1.64,0,0,0-1.05-.08,2.06,2.06,0,0,1-1.62-.15c-.42-.21-.88,0-1.32,0a.32.32,0,0,0-.32.24h0l0,.05c-.09-.08-.19-.26-.27-.23-.79.24-1.57-.45-2.35,0-.22.12-.38-.23-.58-.24a5.44,5.44,0,0,1-2.51-.33c-.22-.12-.47-.07-.68.27,0,.05-.06.18-.1.07-.27-.76-.62-.38-.93-.42a17,17,0,0,1-3.49-.58,16.58,16.58,0,0,0-1.9-.49.77.77,0,0,0-.55.19c-.32.23-.33.21-.18,1,0,0,0,0,0,0a1.21,1.21,0,0,0-1.61.62.81.81,0,0,0-.14.5,1.13,1.13,0,0,0-.08.22c-.19.82-.17,1,.17,1.2.06.05.18,0,.16.21s-.11,0-.17,0-.27.24-.39.36-.52.15-.77.43a.7.7,0,0,0-.23.64c0,.45.08.88.3.91s.38.26.57-.11c0,0,.08,0,.12.05h0c.19.28.42,0,.62.39a.76.76,0,0,1,.17.56c0,.7.16,1,.44,1,.84.06,1.67.12,2.5.14a1.83,1.83,0,0,0,1-.25c.18-.1.38.19.58.23a30.1,30.1,0,0,0,3.15-.05c1,0,1.92.05,2.89.07.56,0,1.13.21,1.69.19a21.1,21.1,0,0,0,3.18,0c.3-.06.62.19.93.13a3.91,3.91,0,0,1,1.48-.11,6.66,6.66,0,0,0,2,.1c.61-.06,1.21.09,1.82,0a4,4,0,0,1,1.32.19,1.07,1.07,0,0,0,.82-.21c.21-.14.45.09.68.13s.57.59.81-.22c.16.28.35.08.5.23s.53-.12.79,0,.12-.35.19-.48.13-.58.22.08.36.57.55,0c.09-.22.15-.23.21,0,.11.38.22.45.36.13,0-.11.12-.19.15-.06.23.85.54.08.8.3.07.05.12-.07.12-.23,0-.45.1-.43.19-.18.18.47.4.4.6.32.65-.25,1.3,0,1.94-.25.88-.29,1.76-.15,2.63-.36a4.51,4.51,0,0,1,1.5.12,1.12,1.12,0,0,0,1.08-.42c.39-.44.81-.28,1.22-.31.15,0,.29,0,.4-.31a2.12,2.12,0,0,0,.14-1c-.05-.4-.16-.77-.34-.77s-.59-.25-.88-.54-.61,0-.92,0-.54.08-.8.12c-.05,0-.09,0-.13,0a.47.47,0,0,1-.13-.38c0-.2.09-.14.14-.14a5.07,5.07,0,0,0,2-.54c.38-.13.75-.31,1.13-.46a.69.69,0,0,0,.21-.15,1.43,1.43,0,0,0,.29-1.18" fill="#a97c50"/>
  <path d="M240.93,265.38h0" fill="#a97c50"/>
  <path d="M227.39,264.65s0,0,0,0m-1.76,1.27v0s0,0,0,0m-.26,3.78s0,0-.06,0,0-.11,0-.11,0,0,0,.1m40.13-4.11c0-.4-.28-.77-.48-.65s-.54.12-.79.4c-.05.06-.18.2-.12-.11.11-.71-.18-.63-.24-1-.11-.61-.24-.14-.38-.05s-.25.23-.37,0-.18-.14-.24,0c-.29.62-.52,0-.75-.27s-.3-.24-.48-.15a7.27,7.27,0,0,1-2.11.46c-.5.1-1,0-1.49.15-.18,0-.29.4-.46.38l-.14,0c-.27-.27-.54-.68-.81,0-.28-.39-.56.51-.85,0,0-.07-.11-.1-.16-.07a2.37,2.37,0,0,1-1.53.09c-.1,0-.2,0-.27.27-.44,0-.88-.44-1.32,0-.29.26-.59.17-.89.12a2.18,2.18,0,0,0-.8.07,1.06,1.06,0,0,1-.5,0c-.35-.11-.75-.34-1,0s-.53.56-.81.08c0,0-.14-.09-.19.11s-.15.28-.23.21c-.43-.44-.9.1-1.29-.24s-1,.14-1.51,0a1.68,1.68,0,0,0-1.06-.08,2,2,0,0,1-1.61-.15c-.43-.21-.88,0-1.32,0a.34.34,0,0,0-.33.24h0l0,.05c-.09-.08-.19-.26-.28-.23-.78.24-1.57-.45-2.35,0-.21.12-.37-.23-.57-.24a5.44,5.44,0,0,1-2.51-.33c-.22-.12-.48-.07-.69.27,0,.05-.06.18-.1.07-.27-.76-.61-.38-.92-.42A16.85,16.85,0,0,1,230,264a16.22,16.22,0,0,0-1.91-.49.75.75,0,0,0-.54.19c-.33.23-.33.21-.18,1v0a1.23,1.23,0,0,0-1.62.62.81.81,0,0,0-.13.5,1.12,1.12,0,0,0-.09.22c-.18.82-.16,1,.17,1.2.07.05.19,0,.17.21s-.12,0-.18,0-.26.24-.39.36-.52.15-.76.43a.68.68,0,0,0-.24.64c0,.45.08.88.3.91s.39.26.57-.11c0,0,.08,0,.12.05h0c.19.28.42,0,.62.39a.86.86,0,0,1,.17.56c0,.7.15,1,.44,1,.83.06,1.66.12,2.5.14a1.87,1.87,0,0,0,1-.25c.18-.1.38.19.58.23a30.1,30.1,0,0,0,3.15-.05c1,0,1.92.05,2.88.07.57,0,1.13.21,1.7.19a21,21,0,0,0,3.17,0c.3-.06.62.19.93.13a3.92,3.92,0,0,1,1.48-.11,6.75,6.75,0,0,0,2,.1c.6-.06,1.21.09,1.82,0a4,4,0,0,1,1.31.19,1.06,1.06,0,0,0,.82-.21c.22-.14.46.09.69.13s.57.59.81-.22c.16.28.35.08.5.23s.53-.12.79,0,.12-.35.19-.48.13-.58.22.08.36.57.55,0c.08-.22.15-.23.21,0,.11.38.21.45.35.13.05-.11.12-.19.16-.06.23.85.54.08.8.3.06.05.11-.07.12-.23,0-.45.09-.43.18-.18.18.47.41.4.61.32.64-.25,1.3,0,1.94-.25.87-.29,1.75-.15,2.63-.36a4.51,4.51,0,0,1,1.5.12,1.12,1.12,0,0,0,1.08-.42c.38-.44.81-.28,1.22-.31.15,0,.28,0,.39-.31a2.12,2.12,0,0,0,.14-1c-.05-.4-.15-.77-.33-.77s-.59-.25-.89-.54-.61,0-.92,0-.53.08-.8.12c0,0-.09,0-.12,0a.47.47,0,0,1-.13-.38c0-.2.09-.14.14-.14a5,5,0,0,0,2-.54c.38-.13.76-.31,1.14-.46a.55.55,0,0,0,.2-.15,1.39,1.39,0,0,0,.3-1.18" fill="#a97c50"/>
  <path d="M753.16,196.73h0s0,0,0,0" fill="#231f20"/>
  <path d="M772.2,216.43h0m3.48,1.62,0,0,0,0v0m3.15-2.3s.07,0,.1.08-.12,0-.15,0,0-.1.05-.1m-61-54a.81.81,0,0,0,.21,1.13,7.51,7.51,0,0,0,1.43.83c.13,0,.41.12.1.27-.69.33-.21.69-.38,1-.29.58.25.44.51.57s.53.19.56.5a.34.34,0,0,0,.35.35c.86,0,.71.76.87,1.25a1.25,1.25,0,0,0,.59.79,26.54,26.54,0,0,1,3.39,2.67c.79.63,1.45,1.38,2.25,2,.3.22.73.13.95.38l.24.19c.18.57.27,1.23,1.13,1.17.13.68,1.18.44,1.25,1.18a.39.39,0,0,0,.18.28,9.36,9.36,0,0,1,2.28,2.11.54.54,0,0,0,.58.19c.67.59,1,1.55,1.89,1.9a3.52,3.52,0,0,1,1.36,1.17,8.41,8.41,0,0,0,1.22,1.09,4.46,4.46,0,0,1,.71.73c.42.56.82,1.29,1.49,1.48s1.17.35,1.23,1.1a.28.28,0,0,0,.35.18c.24-.07.43,0,.48.18.3.92,1.37,1.2,1.7,2,.43,1.06,1.56,1.33,2.17,2.15a6.74,6.74,0,0,0,1.47,1.55,7.85,7.85,0,0,1,2.22,2.4,10.23,10.23,0,0,0,1.92,1.85.87.87,0,0,0,.65.3v0h.06c.08.19.09.45.24.56,1.31.94,1.94,2.54,3.39,3.33.39.21.37.69.66,1a21,21,0,0,1,3.38,3.79,1.57,1.57,0,0,0,1.19.79c.09,0,.22,0,.2.09-.17.91.61,1.13,1,1.6a67.1,67.1,0,0,1,4.62,5.35c.76,1,1.56,2.06,2.39,3a2.61,2.61,0,0,0,.93.64c.64.3.62.32,1-.47,0,0,0,0,0,0a3.92,3.92,0,0,0,2.78,1.85.6.6,0,0,0,.56-.16,1.45,1.45,0,0,0,.29,0c.87-.31,1-.43.63-1.09-.06-.12-.28-.24-.08-.37s.16.16.24.26.55.2.82.3c.54.19.87.63,1.42.78.27.07.53.21.82-.11s.52-.74.23-1.07-.37-.73-.9-.73c-.07,0-.1-.14-.14-.21h0c-.07-.46-.6-.61-.62-1.15,0-.26-.09-.37.17-.64.48-.51.5-.92.1-1.34-1.16-1.22-2.32-2.43-3.51-3.63a6.73,6.73,0,0,0-1.58-1.2c-.34-.19-.41-.68-.68-1-1.39-1.61-3.1-2.91-4.59-4.43s-2.73-2.77-4.11-4.14c-.81-.8-1.48-1.76-2.31-2.53-1.57-1.47-2.93-3.14-4.61-4.49-.48-.38-.76-1-1.25-1.41a15.89,15.89,0,0,1-2.23-2,24.68,24.68,0,0,0-2.8-2.89c-.92-.83-1.69-1.79-2.62-2.61a16.79,16.79,0,0,1-1.76-2,3.68,3.68,0,0,0-1.34-1c-.4-.2-.59-.71-.89-1.06s-.39-1.22-1.33-1c0-.42-.45-.55-.56-.87-.21-.56-.85-.66-1.11-1.14-.14-.26-.43.08-.63.08s-.62.21-.27-.38-.09-.91-.77-.8c-.28,0-.38-.05-.32-.28.13-.42,0-.63-.41-.59-.14,0-.31,0-.27-.18.29-.92-.72-.83-.94-1.36-.05-.12-.22-.1-.34,0-.35.3-.45.17-.4-.13.09-.59-.29-.86-.63-1.09-1.12-.74-1.91-1.81-3-2.57-1.47-1-2.64-2.38-4.06-3.48a17.38,17.38,0,0,1-2.08-2.2,3.84,3.84,0,0,0-1.87-1.25,5,5,0,0,1-2-1.51,1,1,0,0,0-.8-.34,1.22,1.22,0,0,0-.93.52c-.22.34-.35.75-.09,1a3.81,3.81,0,0,1,.89,1.64c.19.57.85.9,1.32,1.31s.83.71,1.25,1.06c.06.05.15.1.18.17a.41.41,0,0,1-.09.46c-.16.13-.24,0-.31-.11a18.75,18.75,0,0,0-3.27-2.43c-.64-.45-1.32-.86-2-1.29a1.47,1.47,0,0,0-.4-.19,1.07,1.07,0,0,0-1.29.42" fill="#231f20"/>
  <path d="M759,184.06h0s0,0,0,0" fill="#231f20"/>
  <path d="M778.57,167.88h0m1.61-3.12,0,0s0,0-.05-.05h0m-2.25-3.12s0-.06.07-.09,0,.11,0,.14-.09,0-.09-.05m-53.62,52.6a.82.82,0,0,0,1.12-.12c.25-.44.67-.74.82-1.26,0-.11.12-.37.26-.07.33.66.69.24,1,.43.58.33.44-.19.57-.43s.19-.47.5-.48.35-.12.35-.29c0-.81.75-.61,1.24-.72a1.07,1.07,0,0,0,.77-.48,23.32,23.32,0,0,1,2.66-2.95c.62-.68,1.37-1.24,2-2,.23-.25.14-.66.39-.85l.18-.2c.57-.13,1.22-.16,1.17-1,.67-.06.43-1.06,1.17-1.07a.35.35,0,0,0,.28-.14,7.81,7.81,0,0,1,2.09-2,.46.46,0,0,0,.19-.52c.59-.58,1.54-.77,1.89-1.62a2.84,2.84,0,0,1,1.16-1.17,7.66,7.66,0,0,0,1.08-1,4.23,4.23,0,0,1,.72-.61c.56-.35,1.28-.66,1.47-1.26s.36-1.07,1.09-1.07a.23.23,0,0,0,.19-.31c-.08-.23,0-.4.18-.43.9-.21,1.19-1.19,2-1.43,1-.31,1.32-1.34,2.13-1.85a5.79,5.79,0,0,0,1.54-1.25,7,7,0,0,1,2.38-1.88,8.18,8.18,0,0,0,1.84-1.64.69.69,0,0,0,.29-.58h0s0,0,0-.06c.19-.05.45,0,.55-.17.94-1.15,2.52-1.61,3.31-2.9.21-.35.68-.29,1-.54a18.19,18.19,0,0,1,3.75-2.85,1.3,1.3,0,0,0,.78-1c0-.09,0-.21.09-.18.9.23,1.13-.48,1.59-.83a58.22,58.22,0,0,1,5.31-3.88c1-.63,2-1.3,3-2a2.28,2.28,0,0,0,.63-.82c.3-.57.32-.55-.46-1h0a3.33,3.33,0,0,0,1.84-2.46.57.57,0,0,0-.16-.53,1.24,1.24,0,0,0,0-.27c-.31-.84-.43-.92-1.08-.68-.12,0-.24.24-.37,0s.17-.14.26-.2.21-.5.3-.75c.19-.48.62-.76.78-1.26.07-.24.21-.48-.11-.77s-.72-.55-1.06-.3-.72.28-.72.78c0,.06-.14.08-.21.11h0c-.46,0-.6.51-1.14.49-.25,0-.37.05-.63-.21-.5-.49-.9-.54-1.32-.21-1.21,1-2.42,2-3.61,3A5.81,5.81,0,0,0,770.1,166c-.19.31-.67.33-1,.56-1.6,1.17-2.89,2.66-4.4,3.92s-2.75,2.34-4.11,3.51c-.8.69-1.74,1.24-2.51,1.95-1.46,1.35-3.11,2.48-4.46,4-.38.41-1,.62-1.4,1a13.38,13.38,0,0,1-2,1.91,22.81,22.81,0,0,0-2.87,2.38c-.82.8-1.77,1.44-2.58,2.23a14.44,14.44,0,0,1-2,1.49,3.26,3.26,0,0,0-1,1.16c-.2.37-.7.5-1,.75s-1.21.27-1,1.16c-.41,0-.55.38-.86.46-.56.14-.66.74-1.14.94-.26.11.08.41.08.6s.21.59-.37.21-.9,0-.8.66c0,.26,0,.35-.28.27-.41-.15-.62-.07-.59.34,0,.13,0,.29-.17.24-.91-.35-.83.6-1.35.76-.12,0-.1.2,0,.33.29.34.17.43-.14.36a1,1,0,0,0-1.07.5c-.73,1-1.8,1.63-2.56,2.59-1,1.29-2.36,2.27-3.45,3.5a13.56,13.56,0,0,1-2.19,1.77,3.17,3.17,0,0,0-1.23,1.65c-.24.8-.95,1.21-1.5,1.73a.79.79,0,0,0-.34.72,1.21,1.21,0,0,0,.5.91c.34.24.75.39,1,.16a3.35,3.35,0,0,1,1.62-.69c.56-.14.89-.73,1.3-1.13s.7-.72,1-1.08c.05,0,.1-.13.17-.16a.43.43,0,0,1,.45.13c.13.15,0,.21-.1.27a15.41,15.41,0,0,0-2.42,2.86c-.45.56-.86,1.16-1.28,1.74a1.24,1.24,0,0,0-.19.36,1,1,0,0,0,.41,1.25" fill="#231f20"/>
  <path d="M650.15,402.46a55.43,55.43,0,0,0,.14,7.06c.18,2.54.45,5.09.63,7.64a45.14,45.14,0,0,1-.14,9.15l-.24,1.89c-.41,3.44-.71,6.87-.94,10.31-.6,9.25-.65,18.51-.8,27.76-.15,7.92,3,15.83,2.93,23.73H636.28c.17-3.44.38-6.88.72-10.32.77-7.89-.82-15.75-.9-23.63q-.11-10.08.39-20.17c.15-3.32.35-6.63.59-9.95s.52-6.67.83-10c.16-1.74.34-3.47.52-5.21.08-.72.14-1.45.19-2.17.18-2.4.26-4.8.32-7.19.06-2.68.1-5.36.22-8a2.11,2.11,0,0,1,1.29-1.83c.95-.48,2.54-.72,5.1-.49,3.34.3,6.46.92,7.2,2,.29.42.23.9-.31,1.46a6.51,6.51,0,0,0-1.73,3.56A30.67,30.67,0,0,0,650.15,402.46Z" fill="#cd704b"/>
</svg>
