<svg id="Layer_1" data-name="Layer 1" xmlns="http://www.w3.org/2000/svg" viewBox="0 0 1440 490">
  <path id="Path_438" data-name="Path 438" d="M1247.92,221.19h0s0,0,0,0" fill="#2b2e34"/>
  <path id="Path_439" data-name="Path 439" d="M1198.31,221.62c.07-.82.56-1.6,1-1.34s1.08.24,1.58.83c.11.13.37.41.26-.24-.23-1.47.36-1.31.49-2.06.21-1.27.48-.28.76-.1s.5.48.75.06.37-.27.49,0c.58,1.28,1-.09,1.5-.57s.6-.5,1-.31c1.41.74,2.84.68,4.27,1,1,.2,2,0,3,.31.36.09.59.84.93.8l.3.06c.53-.57,1.07-1.41,1.63-.09.57-.81,1.12,1.05,1.7.07.09-.16.23-.22.33-.16a4.59,4.59,0,0,0,3.1.19c.19,0,.4.06.53.56.89.09,1.78-.9,2.67-.07.59.54,1.2.34,1.79.24a4.65,4.65,0,0,1,1.62.14,2,2,0,0,0,1,0c.7-.21,1.5-.7,2.09,0s1.07,1.16,1.65.17c0-.08.27-.19.37.23s.31.58.46.42c.87-.9,1.82.22,2.62-.48,1-.93,2,.29,3,0a3.28,3.28,0,0,1,2.12-.16,4.11,4.11,0,0,0,3.27-.33c.86-.42,1.77,0,2.66.05a.66.66,0,0,1,.66.5,0,0,0,0,0,0,0v0l0,.1c.19-.17.38-.53.56-.47,1.58.5,3.17-.94,4.74,0,.43.25.76-.48,1.17-.5,1.69-.05,3.38.22,5.07-.69.44-.24,1-.14,1.38.57.07.11.13.37.2.14.54-1.57,1.24-.78,1.87-.86a35.24,35.24,0,0,0,7-1.2,29.81,29.81,0,0,1,3.84-1,1.5,1.5,0,0,1,1.1.41c.66.48.66.42.36,2.15,0,0,0,0,0,0h0c1.13-.47,2.23-.3,3.26,1.29a1.79,1.79,0,0,1,.27,1,3.75,3.75,0,0,1,.17.47c.37,1.72.34,2-.35,2.5-.13.1-.37,0-.33.43s.23,0,.36,0c.3-.07.53.5.78.75.5.49,1,.32,1.54.89a1.44,1.44,0,0,1,.48,1.34c0,1-.16,1.83-.61,1.9s-.78.55-1.15-.22c0-.1-.16.06-.24.11v0c-.39.59-.86,0-1.26.8a1.74,1.74,0,0,0-.35,1.18c0,1.44-.31,2.06-.89,2.1-1.68.12-3.36.24-5,.29a3.74,3.74,0,0,1-2-.52c-.37-.22-.77.4-1.18.47-2.12.35-4.23-.21-6.35-.11-2,.09-3.89.12-5.83.15-1.14,0-2.29.45-3.42.4-2.14-.11-4.28.38-6.42-.06-.6-.12-1.25.4-1.88.28a7.54,7.54,0,0,0-3-.24,12.91,12.91,0,0,1-4,.21c-1.23-.12-2.45.18-3.68.05a8.52,8.52,0,0,0-2.65.4,2,2,0,0,1-1.66-.43c-.43-.28-.92.18-1.39.27s-1.14,1.23-1.63-.45c-.32.57-.71.17-1,.46-.55.53-1.06-.24-1.59.09-.29.18-.24-.73-.38-1s-.28-1.21-.45.16-.73,1.2-1.12.08c-.16-.46-.3-.49-.42-.05-.22.79-.43.94-.71.27-.09-.22-.24-.38-.31-.12-.47,1.77-1.1.18-1.63.63-.12.11-.23-.15-.24-.49,0-.93-.19-.89-.37-.37-.36,1-.81.84-1.22.67-1.3-.52-2.62-.08-3.92-.52-1.76-.61-3.54-.31-5.31-.74a8.38,8.38,0,0,0-3,.23,2.22,2.22,0,0,1-2.18-.86c-.78-.92-1.64-.59-2.47-.65-.3,0-.57-.05-.8-.64a4.56,4.56,0,0,1-.27-2.1c.09-.82.31-1.61.67-1.6.64,0,1.2-.51,1.8-1.12s1.23-.09,1.85,0,1.08.16,1.62.25c.08,0,.18.07.25,0a1,1,0,0,0,.27-.8c0-.41-.19-.29-.29-.28-1.36.14-2.68-.67-4-1.14-.77-.27-1.53-.63-2.3-1a1.28,1.28,0,0,1-.4-.29,3.12,3.12,0,0,1-.6-2.48m81,8.57c0,.05.08,0,.12,0s0-.23-.08-.25-.09.12,0,.22m-.52-7.88a.28.28,0,0,0,0-.09v.13a.06.06,0,0,0,0,0m-3.56-2.64s0,0,0,0" fill="#2b2e34"/>
  <path id="Path_440" data-name="Path 440" d="M1192,88.75v0s0,0,0,0" fill="#2b2e34"/>
  <path id="Path_441" data-name="Path 441" d="M1142.41,89.19c.06-.82.56-1.6,1-1.34s1.08.24,1.59.83c.11.13.37.41.26-.24-.24-1.47.36-1.31.48-2.06.22-1.27.49-.28.77-.1s.5.48.74.06.37-.27.49,0c.59,1.28,1-.08,1.51-.57s.61-.5,1-.31c1.41.75,2.84.68,4.27,1,1,.2,2,0,3,.3.36.09.59.85.93.8l.29.07c.54-.58,1.08-1.42,1.63-.1.57-.81,1.13,1.05,1.71.07.09-.16.23-.22.33-.16a4.57,4.57,0,0,0,3.09.19c.19,0,.4.06.53.56.9.09,1.79-.9,2.68-.07.59.54,1.2.34,1.79.24a4.67,4.67,0,0,1,1.62.14,2.07,2.07,0,0,0,1,0c.7-.22,1.5-.71,2.09,0s1.06,1.16,1.64.17c0-.08.28-.19.38.23s.31.59.46.43c.86-.91,1.81.21,2.61-.49,1.06-.93,2,.29,3,0a3.38,3.38,0,0,1,2.13-.16,4.11,4.11,0,0,0,3.27-.33c.85-.42,1.77,0,2.66.05a.66.66,0,0,1,.66.5s0,0,0,0v0l0,.1c.18-.17.38-.53.56-.47,1.58.5,3.16-.94,4.74,0,.43.25.75-.48,1.17-.5,1.68,0,3.38.22,5.06-.69.45-.24,1-.14,1.39.57.07.11.12.37.2.14.54-1.57,1.24-.78,1.86-.86a35,35,0,0,0,7-1.2,30,30,0,0,1,3.85-1,1.51,1.51,0,0,1,1.1.41c.66.48.66.42.36,2.15,0,0,0,0,0,0h0c1.13-.47,2.23-.3,3.26,1.29a1.8,1.8,0,0,1,.26,1,2.54,2.54,0,0,1,.17.46c.38,1.72.35,2-.34,2.5-.13.1-.37,0-.33.43s.23,0,.35,0c.31-.07.53.5.79.75.5.49,1,.32,1.54.89a1.47,1.47,0,0,1,.48,1.34c0,1-.17,1.83-.61,1.9s-.78.55-1.15-.22c0-.1-.16.06-.24.1v0c-.38.59-.85,0-1.26.8a1.75,1.75,0,0,0-.34,1.17c0,1.45-.31,2.07-.89,2.11-1.68.12-3.36.24-5,.29a3.74,3.74,0,0,1-2-.52c-.38-.22-.77.4-1.18.47-2.12.35-4.24-.21-6.36-.11-1.94.09-3.88.12-5.82.15-1.14,0-2.29.45-3.42.4-2.14-.11-4.28.38-6.42-.06-.6-.12-1.26.4-1.88.28a7.55,7.55,0,0,0-3-.24,12.93,12.93,0,0,1-4,.21c-1.23-.12-2.45.18-3.68,0a8.47,8.47,0,0,0-2.65.4,2.06,2.06,0,0,1-1.66-.43c-.43-.28-.92.18-1.39.27s-1.15,1.23-1.63-.45c-.32.57-.71.17-1,.46-.55.53-1.07-.25-1.59.09-.29.18-.24-.74-.38-1s-.28-1.21-.46.16-.72,1.2-1.11.08c-.16-.46-.3-.49-.42-.05-.22.79-.43.94-.72.27-.09-.22-.23-.38-.3-.12-.47,1.76-1.1.18-1.63.63-.12.11-.23-.15-.24-.49,0-.93-.19-.89-.37-.37-.36,1-.81.84-1.22.67-1.3-.52-2.62-.08-3.92-.52-1.77-.61-3.54-.31-5.31-.75a8.59,8.59,0,0,0-3,.24,2.24,2.24,0,0,1-2.19-.86c-.77-.92-1.63-.59-2.46-.65-.3,0-.57-.05-.8-.64a4.56,4.56,0,0,1-.27-2.1c.09-.82.3-1.61.67-1.6.64,0,1.2-.52,1.79-1.13s1.23-.08,1.85,0,1.08.16,1.62.25c.09,0,.18.07.26,0a1.06,1.06,0,0,0,.26-.8c0-.42-.18-.3-.28-.29-1.36.14-2.68-.67-4-1.13-.76-.27-1.53-.63-2.29-1a1.33,1.33,0,0,1-.41-.29,3.1,3.1,0,0,1-.59-2.48m81,8.57s.08,0,.12,0,0-.23-.08-.25-.09.12,0,.22m-.52-7.88a.28.28,0,0,0,0-.09v.13s0,0,0,0m-3.56-2.64h0" fill="#2b2e34"/>
  <path id="Path_442" data-name="Path 442" d="M1397.75,231.46h0s0,0,0,0" fill="#2b2e34"/>
  <path id="Path_443" data-name="Path 443" d="M1348.14,231.89c.06-.83.56-1.6,1-1.34s1.08.24,1.58.83c.11.13.37.41.26-.24-.23-1.48.36-1.32.48-2.06.22-1.28.49-.28.77-.1s.5.48.75.06.37-.28.49,0c.58,1.28,1-.09,1.5-.58s.61-.5,1-.3c1.4.74,2.84.67,4.27,1,1,.2,2,0,3,.31.36.09.59.84.93.8l.3.06c.53-.58,1.07-1.42,1.62-.09.58-.81,1.13,1.05,1.71.06.09-.15.23-.21.33-.15a4.65,4.65,0,0,0,3.1.19c.19,0,.4.06.53.56.89.09,1.78-.9,2.67-.08a1.81,1.81,0,0,0,1.79.24,4.45,4.45,0,0,1,1.62.15,2.07,2.07,0,0,0,1,0c.7-.21,1.5-.71,2.09,0s1.07,1.16,1.65.16c0-.07.27-.18.37.24s.31.58.46.42c.87-.9,1.81.22,2.62-.49,1-.92,2,.29,3,0a3.32,3.32,0,0,1,2.13-.16,4.11,4.11,0,0,0,3.27-.33c.86-.43,1.77,0,2.66,0a.68.68,0,0,1,.66.5,0,0,0,0,0,0,0v0l0,.1c.19-.18.38-.53.56-.47,1.58.5,3.16-.94,4.74,0,.43.25.75-.48,1.17-.5,1.68-.06,3.38.22,5.06-.69.45-.24,1-.14,1.39.56.07.12.12.38.2.15.54-1.57,1.24-.79,1.87-.87a33.67,33.67,0,0,0,7-1.2,32.14,32.14,0,0,1,3.85-1,1.5,1.5,0,0,1,1.1.41c.66.47.66.42.36,2.15,0,0,0,0,0,0h0c1.13-.46,2.23-.3,3.26,1.29a1.8,1.8,0,0,1,.27,1,3.75,3.75,0,0,1,.17.47c.38,1.71.34,2-.35,2.5-.13.1-.37,0-.33.42s.23,0,.36,0c.31-.07.53.5.78.75.5.49,1,.33,1.54.9a1.45,1.45,0,0,1,.48,1.33c0,.95-.16,1.83-.61,1.9s-.78.55-1.15-.22c0-.09-.16.07-.24.11v0c-.39.58-.86,0-1.26.8a1.76,1.76,0,0,0-.35,1.17c0,1.45-.31,2.07-.89,2.11-1.68.12-3.36.24-5,.28a3.56,3.56,0,0,1-2-.52c-.37-.21-.77.4-1.17.47-2.12.35-4.24-.21-6.36-.1-1.94.09-3.89.12-5.83.15-1.13,0-2.29.45-3.42.39-2.14-.1-4.28.39-6.42,0-.6-.13-1.25.39-1.87.27a7.42,7.42,0,0,0-3-.23,12.86,12.86,0,0,1-4,.21c-1.24-.12-2.46.18-3.69,0a8.23,8.23,0,0,0-2.65.4,2.1,2.1,0,0,1-1.66-.43c-.43-.29-.92.18-1.39.27s-1.14,1.23-1.63-.45c-.32.57-.71.16-1,.46-.55.53-1.06-.25-1.59.08-.29.18-.24-.73-.38-1s-.27-1.21-.45.16-.72,1.2-1.12.08c-.16-.46-.3-.49-.42-.06-.21.8-.43,1-.71.27-.09-.21-.24-.38-.31-.12-.47,1.77-1.1.18-1.63.64-.12.1-.23-.16-.24-.49,0-.93-.19-.89-.37-.38-.36,1-.81.84-1.22.68-1.3-.52-2.62-.08-3.92-.53-1.76-.61-3.54-.3-5.31-.74a8.61,8.61,0,0,0-3,.24,2.22,2.22,0,0,1-2.18-.86c-.78-.92-1.64-.59-2.47-.65-.3,0-.57-.06-.8-.65a4.5,4.5,0,0,1-.27-2.09c.09-.82.31-1.61.67-1.6.64,0,1.2-.52,1.79-1.13s1.23-.08,1.86,0,1.08.16,1.62.24c.08,0,.17.08.25,0a1.06,1.06,0,0,0,.26-.8c0-.42-.18-.3-.28-.29-1.36.14-2.68-.67-4-1.13-.76-.27-1.53-.63-2.29-1a1.14,1.14,0,0,1-.41-.29,3.08,3.08,0,0,1-.59-2.47m81,8.56c0,.06.08,0,.12,0a.59.59,0,0,0-.08-.24c-.06,0-.09.11,0,.21m-.52-7.88a.28.28,0,0,0,0-.09v.14s0,0,0-.05m-3.56-2.63s0,0,0,0" fill="#2b2e34"/>
  <path id="Path_444" data-name="Path 444" d="M1356.15,185.11h0s0,0,0,0" fill="#2b2e34"/>
  <path id="Path_445" data-name="Path 445" d="M1306.55,185.54c.06-.82.56-1.59,1-1.34s1.08.24,1.59.83c.11.13.36.42.26-.24-.24-1.47.35-1.31.48-2.06.21-1.27.49-.28.77-.1s.5.49.74.06c.17-.28.37-.27.49,0,.58,1.27,1-.09,1.5-.58s.61-.5,1-.31c1.41.75,2.84.68,4.27,1,1,.2,2,0,3,.3.36.1.59.85.93.8l.3.07c.54-.57,1.07-1.42,1.63-.09.57-.81,1.12,1.05,1.7.06.09-.15.23-.21.33-.15a4.59,4.59,0,0,0,3.1.19c.19,0,.4.06.53.56.89.09,1.78-.9,2.68-.07.58.54,1.19.34,1.78.23a4.48,4.48,0,0,1,1.63.15,2,2,0,0,0,1,0c.7-.21,1.5-.71,2.1,0s1.06,1.16,1.64.16c0-.07.28-.18.38.24s.3.58.46.42c.86-.9,1.81.22,2.61-.48,1.06-.93,2,.28,3,0a3.29,3.29,0,0,1,2.12-.16,4.07,4.07,0,0,0,3.27-.34c.86-.42,1.77,0,2.66.05a.66.66,0,0,1,.66.5v0h0a.23.23,0,0,1,0,.1c.19-.18.38-.54.56-.48,1.59.51,3.17-.93,4.75,0,.42.25.75-.48,1.16-.5,1.69,0,3.38.22,5.07-.68.44-.25,1-.15,1.39.56.07.11.12.38.2.15.54-1.57,1.24-.79,1.86-.87a34.43,34.43,0,0,0,7-1.2,29.78,29.78,0,0,1,3.84-1,1.47,1.47,0,0,1,1.1.4c.66.48.67.43.36,2.15,0,0,0,0,0,0h0c1.14-.47,2.24-.3,3.26,1.29a1.73,1.73,0,0,1,.27,1,2.54,2.54,0,0,1,.17.46c.38,1.72.34,2-.35,2.5-.12.1-.37,0-.33.43s.24,0,.36,0c.31-.07.53.5.79.75.5.49,1,.33,1.53.89a1.45,1.45,0,0,1,.49,1.34c0,.95-.17,1.83-.61,1.9s-.78.55-1.15-.22c0-.09-.16.06-.25.11v0c-.39.58-.85,0-1.26.8a1.8,1.8,0,0,0-.35,1.17c0,1.44-.31,2.06-.88,2.1-1.68.13-3.37.24-5,.29a3.73,3.73,0,0,1-2-.52c-.38-.21-.77.4-1.18.47-2.12.35-4.24-.21-6.36-.11-1.94.09-3.88.13-5.83.15-1.13,0-2.28.45-3.42.4-2.14-.11-4.27.38-6.41,0-.6-.13-1.26.39-1.88.27a7.55,7.55,0,0,0-3-.24,12.93,12.93,0,0,1-4,.21c-1.23-.11-2.46.19-3.68.06a8,8,0,0,0-2.66.4,2.11,2.11,0,0,1-1.66-.43c-.42-.29-.92.18-1.38.26s-1.15,1.23-1.64-.44c-.31.57-.7.16-1,.46-.54.53-1.06-.25-1.59.08-.29.18-.24-.73-.38-1s-.27-1.21-.45.17-.72,1.19-1.11.08c-.17-.47-.3-.49-.42-.06-.22.79-.44,1-.72.27-.09-.21-.24-.38-.31-.12-.46,1.77-1.1.18-1.62.64-.13.1-.23-.16-.24-.5,0-.93-.19-.88-.38-.37-.35,1-.81.84-1.21.68-1.31-.52-2.63-.08-3.93-.53-1.76-.61-3.54-.31-5.3-.74a8.57,8.57,0,0,0-3,.24,2.24,2.24,0,0,1-2.19-.87c-.77-.91-1.63-.59-2.46-.65-.3,0-.57-.05-.8-.64a4.52,4.52,0,0,1-.28-2.09c.1-.82.31-1.61.67-1.6.64,0,1.2-.52,1.79-1.13s1.24-.08,1.86,0,1.08.16,1.62.24c.08,0,.18.08.25,0a1,1,0,0,0,.27-.8c0-.41-.19-.29-.29-.28-1.36.14-2.68-.67-4-1.14-.77-.26-1.53-.63-2.29-1a1.22,1.22,0,0,1-.41-.29,3.06,3.06,0,0,1-.59-2.48m81,8.57s.07,0,.11,0,0-.23-.07-.24-.09.11,0,.21m-.53-7.88v-.09s0,.09,0,.13a.06.06,0,0,0,0,0m-3.56-2.64s0,0,0,0" fill="#2b2e34"/>
  <path id="Path_446" data-name="Path 446" d="M1258.65,185.11h0s0,0,0,0" fill="#2b2e34"/>
  <path id="Path_447" data-name="Path 447" d="M1209.05,185.54c.06-.82.55-1.59,1-1.34s1.08.24,1.59.83c.11.13.36.42.26-.24-.24-1.47.35-1.31.48-2.06.21-1.27.49-.28.76-.1s.5.49.75.06c.17-.28.37-.27.49,0,.58,1.27,1-.1,1.5-.58s.61-.5,1-.31c1.41.75,2.85.68,4.27,1,1,.2,2,.06,3,.31.37.09.59.84.93.8l.3.06c.54-.57,1.07-1.41,1.63-.09.57-.81,1.12,1.06,1.7.07.09-.15.23-.21.33-.16a4.59,4.59,0,0,0,3.1.19c.19,0,.4.06.53.56.89.09,1.78-.9,2.68-.07.58.54,1.19.34,1.78.24a4.48,4.48,0,0,1,1.63.15,2.16,2.16,0,0,0,1,0c.7-.22,1.5-.71,2.1,0s1.06,1.16,1.64.17c0-.07.27-.18.37.23s.31.59.47.43c.86-.91,1.81.21,2.61-.49,1.06-.93,2,.29,3,0a3.36,3.36,0,0,1,2.12-.16,4.06,4.06,0,0,0,3.27-.33c.86-.42,1.77,0,2.66.05a.66.66,0,0,1,.66.5v0h0a.51.51,0,0,1,0,.1c.19-.18.38-.54.56-.48,1.58.51,3.17-.93,4.75,0,.42.25.75-.48,1.16-.5,1.69,0,3.38.22,5.07-.68.44-.25,1-.15,1.38.56.07.11.13.38.2.15.54-1.57,1.24-.79,1.87-.87a34.43,34.43,0,0,0,7-1.2,29.78,29.78,0,0,1,3.84-1,1.47,1.47,0,0,1,1.1.4c.66.48.67.43.36,2.15,0,0,0,0,0,0h0c1.14-.47,2.23-.3,3.26,1.29a1.73,1.73,0,0,1,.27,1,2.54,2.54,0,0,1,.17.46c.38,1.72.34,2-.35,2.5-.13.1-.37,0-.33.43s.24,0,.36,0c.31-.07.53.5.79.75.5.49,1,.33,1.53.89a1.42,1.42,0,0,1,.48,1.34c0,.95-.16,1.83-.61,1.9s-.77.55-1.14-.22c0-.09-.17.06-.25.11v0c-.39.58-.86,0-1.26.8a1.75,1.75,0,0,0-.35,1.17c0,1.44-.31,2.06-.88,2.1-1.68.13-3.37.24-5,.29a3.73,3.73,0,0,1-2-.52c-.38-.21-.78.4-1.18.47-2.12.35-4.24-.21-6.36-.11-1.94.09-3.88.13-5.83.15-1.13,0-2.28.45-3.42.4-2.14-.11-4.27.38-6.41,0-.61-.13-1.26.39-1.88.27a7.55,7.55,0,0,0-3-.24,12.93,12.93,0,0,1-4,.21c-1.23-.11-2.46.19-3.68.06a8,8,0,0,0-2.66.4,2.11,2.11,0,0,1-1.66-.43c-.42-.29-.92.18-1.38.26s-1.15,1.23-1.64-.44c-.31.57-.7.16-1,.46-.54.53-1.06-.25-1.59.08-.28.18-.24-.73-.38-1s-.27-1.21-.45.17-.72,1.19-1.11.08c-.17-.47-.3-.49-.42-.06-.22.79-.44,1-.72.27-.09-.21-.24-.38-.31-.12-.46,1.77-1.1.18-1.62.64-.13.1-.23-.16-.24-.5,0-.93-.19-.88-.38-.37-.35,1-.81.84-1.21.68-1.3-.52-2.63-.08-3.93-.53-1.76-.61-3.54-.31-5.3-.74a8.57,8.57,0,0,0-3,.24,2.24,2.24,0,0,1-2.19-.87c-.77-.91-1.63-.59-2.46-.65-.3,0-.57-.05-.8-.64a4.52,4.52,0,0,1-.28-2.09c.1-.82.31-1.61.67-1.6.64,0,1.2-.52,1.8-1.13s1.23-.08,1.85,0,1.08.16,1.62.24c.09,0,.18.08.25,0a1,1,0,0,0,.27-.8c0-.41-.18-.29-.29-.28-1.36.14-2.68-.67-4-1.14-.77-.26-1.53-.63-2.29-1a1.22,1.22,0,0,1-.41-.29,3.06,3.06,0,0,1-.59-2.48m81,8.57s.07,0,.11,0,0-.23-.07-.24-.09.11,0,.21m-.53-7.88v-.09s0,.09,0,.13a.06.06,0,0,0,0,0m-3.56-2.64s0,0,0,0" fill="#2b2e34"/>
  <path d="M1440,199.58a2.07,2.07,0,0,1-1.13-.45c-.43-.28-.92.19-1.38.27s-1.15,1.23-1.64-.45c-.31.57-.7.17-1,.46-.55.54-1.06-.24-1.59.09-.29.18-.24-.74-.38-1s-.27-1.21-.45.17-.72,1.19-1.11.07c-.17-.46-.3-.49-.42-.05-.22.79-.44.94-.72.27-.09-.22-.24-.38-.31-.12-.46,1.76-1.1.18-1.62.63-.13.11-.23-.15-.24-.49,0-.93-.19-.89-.38-.37-.35,1-.81.84-1.21.68-1.31-.53-2.63-.09-3.93-.53-1.76-.61-3.54-.31-5.3-.74a8.42,8.42,0,0,0-3,.23,2.2,2.2,0,0,1-2.18-.86c-.78-.92-1.64-.59-2.46-.65-.3,0-.57-.05-.8-.64a4.56,4.56,0,0,1-.28-2.1c.09-.82.31-1.61.67-1.6.64,0,1.2-.51,1.79-1.12s1.24-.09,1.86,0,1.08.16,1.62.25c.08,0,.17.07.25,0a1,1,0,0,0,.26-.8c0-.41-.18-.29-.28-.28-1.36.14-2.68-.67-4-1.14-.77-.27-1.53-.63-2.3-1a1.17,1.17,0,0,1-.4-.3,3,3,0,0,1-.59-2.47c.06-.83.56-1.6,1-1.34s1.08.24,1.59.83c.11.13.36.41.26-.24-.24-1.48.35-1.31.48-2.06.21-1.27.49-.28.77-.1s.5.48.74.06.37-.27.49,0c.58,1.28,1-.08,1.51-.57s.6-.5,1-.31c1.4.75,2.84.68,4.26,1,1,.2,2,.06,3,.31.37.09.6.85.94.8l.29.06c.54-.57,1.08-1.41,1.63-.08.57-.82,1.13,1.05,1.71.06.09-.15.23-.21.33-.15a4.63,4.63,0,0,0,3.09.19c.19,0,.4.05.54.55.89.1,1.78-.9,2.67-.07a1.81,1.81,0,0,0,1.79.24,4.45,4.45,0,0,1,1.62.15,2.07,2.07,0,0,0,1,0c.68-.22,1.46-.69,2-.07" fill="#2b2e34"/>
  <path id="Path_450" data-name="Path 450" d="M1329.08,25.26h0s0,0,0,0" fill="#ad7a4c"/>
  <path id="Path_451" data-name="Path 451" d="M1378.69,24.83c-.07.82-.56,1.6-1,1.34s-1.08-.24-1.58-.83c-.12-.13-.37-.42-.26.24.23,1.47-.36,1.31-.48,2.05-.22,1.28-.49.29-.77.1s-.5-.48-.75-.06-.37.28-.49,0c-.58-1.28-1,.09-1.5.58s-.6.5-1,.3c-1.4-.74-2.84-.67-4.26-1-1-.2-2-.05-3-.31-.37-.09-.6-.84-.94-.8l-.29-.06c-.54.57-1.08,1.41-1.63.09-.57.81-1.13-1.05-1.71-.07-.09.15-.23.21-.33.16a4.57,4.57,0,0,0-3.09-.19c-.19,0-.4-.06-.53-.56-.9-.09-1.79.9-2.68.07-.59-.54-1.2-.34-1.79-.24a4.45,4.45,0,0,1-1.62-.15,2.07,2.07,0,0,0-1,0c-.7.22-1.5.71-2.09,0s-1.07-1.15-1.65-.16c0,.08-.27.19-.37-.23s-.32-.59-.47-.42c-.86.9-1.81-.22-2.61.48-1.06.93-2-.29-3,0a3.36,3.36,0,0,1-2.12.16,4.1,4.1,0,0,0-3.27.33c-.86.42-1.77,0-2.66,0a.66.66,0,0,1-.66-.5v0h0a.23.23,0,0,1,0-.1c-.19.18-.38.54-.56.48-1.58-.51-3.17.93-4.74,0-.43-.25-.76.48-1.17.5-1.69.06-3.38-.22-5.06.7-.45.24-1,.14-1.39-.57-.07-.11-.12-.37-.2-.14-.54,1.57-1.24.78-1.86.86a34.31,34.31,0,0,0-7,1.2,30.4,30.4,0,0,1-3.85,1,1.56,1.56,0,0,1-1.1-.41c-.66-.48-.66-.42-.36-2.15,0,0,0,0,0,0h0c-1.13.47-2.23.3-3.25-1.29a1.73,1.73,0,0,1-.27-1,2.54,2.54,0,0,1-.17-.46c-.38-1.72-.34-2,.34-2.5.13-.1.37,0,.33-.43s-.23,0-.35,0c-.31.07-.53-.5-.79-.75-.5-.49-1-.32-1.54-.89a1.48,1.48,0,0,1-.49-1.35c0-.95.17-1.83.61-1.9s.78-.55,1.15.22c0,.09.16-.07.25-.11v0c.39-.58.86,0,1.26-.8a1.8,1.8,0,0,0,.35-1.17c0-1.44.31-2.06.88-2.1,1.68-.13,3.37-.24,5-.29a3.73,3.73,0,0,1,2,.52c.38.21.78-.4,1.18-.47,2.12-.35,4.24.21,6.36.11,1.94-.1,3.88-.13,5.83-.16,1.13,0,2.28-.44,3.42-.39,2.14.1,4.27-.38,6.42.05.6.13,1.25-.39,1.87-.27a7.37,7.37,0,0,0,3,.23,13.24,13.24,0,0,1,4-.21c1.23.12,2.46-.18,3.68-.05a8.29,8.29,0,0,0,2.66-.4,2.11,2.11,0,0,1,1.66.43c.42.29.92-.18,1.38-.26s1.15-1.23,1.64.44c.31-.57.7-.16,1-.46.54-.53,1.06.25,1.59-.08.28-.18.24.73.38,1s.27,1.21.45-.17.72-1.2,1.11-.08q.24.7.42.06c.22-.79.44-.94.72-.27.09.21.24.38.3.12.47-1.76,1.1-.18,1.63-.63.12-.11.23.15.24.49,0,.93.19.89.38.37.35-1,.81-.84,1.21-.68,1.31.53,2.63.08,3.93.53,1.76.61,3.53.31,5.3.74a8.37,8.37,0,0,0,3-.24A2.24,2.24,0,0,1,1374,13c.77.91,1.63.59,2.46.65.3,0,.57,0,.8.64a4.56,4.56,0,0,1,.27,2.1c-.09.82-.31,1.61-.67,1.6-.64,0-1.2.52-1.79,1.12s-1.23.09-1.86,0-1.08-.17-1.62-.25c-.08,0-.17-.08-.25,0a1,1,0,0,0-.26.8c0,.42.18.3.28.29,1.36-.14,2.68.67,4,1.13.77.27,1.53.63,2.3,1a1,1,0,0,1,.41.29,3,3,0,0,1,.59,2.47m-81-8.56c0-.05-.08,0-.12,0s0,.23.07.24.09-.11.05-.21m.52,7.88v.09s0-.09,0-.13a.06.06,0,0,0,0,0m3.56,2.64s0,0,0,0" fill="#ad7a4c"/>
  <path id="Path_452" data-name="Path 452" d="M1385,157.69h0s0,0,0,0" fill="#ad7a4c"/>
  <path id="Path_453" data-name="Path 453" d="M1434.59,157.26c-.06.82-.56,1.6-1,1.34s-1.08-.24-1.58-.83c-.11-.13-.37-.42-.26.24.23,1.47-.36,1.31-.48,2.05-.22,1.28-.49.29-.77.1s-.5-.48-.75-.06-.36.28-.49,0c-.58-1.28-1,.09-1.5.58s-.61.5-1,.3c-1.41-.74-2.84-.67-4.27-1-1-.2-2-.05-3-.3-.36-.1-.59-.85-.93-.8l-.3-.07c-.54.57-1.07,1.41-1.63.09-.57.81-1.12-1-1.7-.07-.09.16-.23.22-.33.16a4.59,4.59,0,0,0-3.1-.19c-.19,0-.4-.06-.53-.56-.89-.09-1.78.9-2.68.07-.58-.54-1.19-.34-1.78-.24A4.63,4.63,0,0,1,1405,158a2.07,2.07,0,0,0-1,0c-.7.22-1.5.71-2.09,0s-1.07-1.15-1.65-.16c0,.08-.27.19-.37-.23s-.32-.59-.46-.42c-.87.9-1.82-.22-2.62.48-1,.93-2-.29-3,0a3.35,3.35,0,0,1-2.12.16,4.11,4.11,0,0,0-3.27.33c-.86.42-1.77,0-2.66-.05a.66.66,0,0,1-.66-.5v0h0l0-.1c-.19.18-.38.54-.56.48-1.58-.51-3.17.93-4.74,0-.43-.25-.76.48-1.17.5-1.69.06-3.38-.22-5.06.7-.45.24-1,.14-1.39-.57-.07-.11-.12-.37-.2-.14-.54,1.57-1.24.78-1.86.86a33.65,33.65,0,0,0-7,1.2,31.49,31.49,0,0,1-3.84,1,1.48,1.48,0,0,1-1.1-.41c-.66-.47-.67-.42-.36-2.15,0,0,0,0,0,0h0c-1.14.46-2.24.3-3.26-1.29a1.75,1.75,0,0,1-.27-1,2.64,2.64,0,0,1-.17-.47c-.38-1.72-.34-2,.35-2.5.13-.1.37,0,.33-.42s-.24,0-.36,0c-.31.07-.53-.5-.79-.75-.5-.49-1-.32-1.53-.89a1.45,1.45,0,0,1-.49-1.34c0-1,.17-1.82.61-1.9s.78-.54,1.15.23c0,.09.16-.07.25-.11v0c.39-.58.86,0,1.26-.8a1.76,1.76,0,0,0,.35-1.17c0-1.45.31-2.07.88-2.11,1.68-.12,3.37-.24,5-.28a3.53,3.53,0,0,1,2,.52c.38.21.78-.4,1.18-.47,2.12-.35,4.24.2,6.36.1,1.94-.09,3.88-.12,5.83-.15,1.13,0,2.28-.45,3.42-.39,2.14.1,4.27-.39,6.42.05.6.13,1.25-.4,1.87-.27a7.37,7.37,0,0,0,3,.23,13.17,13.17,0,0,1,4-.22c1.24.12,2.46-.18,3.69-.05a8.23,8.23,0,0,0,2.65-.4,2.11,2.11,0,0,1,1.66.43c.43.29.92-.18,1.38-.26s1.15-1.23,1.64.44c.31-.57.7-.16,1-.46.55-.53,1.06.25,1.59-.08.28-.18.24.73.38,1s.27,1.21.45-.17.72-1.2,1.11-.08q.24.7.42.06c.22-.79.44-.94.72-.27.09.21.24.38.31.12.46-1.77,1.1-.18,1.62-.63.12-.11.23.15.24.49,0,.93.19.89.38.37.35-1,.81-.84,1.21-.68,1.31.52,2.63.08,3.93.53,1.76.61,3.53.31,5.3.74a8.57,8.57,0,0,0,3-.24,2.24,2.24,0,0,1,2.19.87c.77.91,1.63.59,2.46.65.3,0,.57,0,.8.64a4.43,4.43,0,0,1,.27,2.1c-.09.82-.3,1.61-.67,1.6-.64,0-1.2.51-1.79,1.12s-1.23.09-1.86,0-1.07-.17-1.62-.25c-.08,0-.17-.08-.25,0a1,1,0,0,0-.26.8c0,.41.18.29.28.28,1.36-.14,2.68.67,4,1.14.77.26,1.54.62,2.3,1a1,1,0,0,1,.41.29,3,3,0,0,1,.59,2.47m-81-8.56c0-.05-.08,0-.12,0s0,.23.08.24.09-.11,0-.21m.52,7.88a.28.28,0,0,0,0,.09v-.09m3.56,2.64s0,0,0,0" fill="#ad7a4c"/>
  <path id="Path_454" data-name="Path 454" d="M1179.25,15h0s0,0,0,0" fill="#6c6455"/>
  <path id="Path_455" data-name="Path 455" d="M1228.86,14.56c-.06.83-.56,1.6-1,1.34s-1.08-.24-1.58-.83c-.11-.13-.37-.41-.26.24.23,1.47-.36,1.31-.48,2.06-.22,1.27-.49.28-.77.1s-.5-.48-.75-.06-.36.27-.49,0c-.58-1.28-1,.08-1.5.57s-.61.5-1,.31c-1.4-.75-2.85-.68-4.27-1-1-.2-2-.06-3-.31-.36-.09-.59-.85-.93-.8l-.3-.07c-.54.58-1.07,1.42-1.63.09-.57.81-1.13-1.05-1.7-.06-.09.15-.23.21-.34.15a4.56,4.56,0,0,0-3.09-.19c-.19,0-.4-.06-.53-.56-.89-.09-1.78.9-2.68.08-.58-.54-1.19-.35-1.78-.24a4.48,4.48,0,0,1-1.63-.15,1.93,1.93,0,0,0-1,0c-.7.21-1.5.71-2.1,0s-1.06-1.15-1.64-.15c0,.07-.27.18-.38-.24s-.31-.58-.45-.42c-.87.9-1.82-.22-2.62.49-1,.92-2-.29-3,0a3.29,3.29,0,0,1-2.12.16,4.11,4.11,0,0,0-3.27.33c-.86.42-1.77,0-2.66,0a.69.69,0,0,1-.66-.5v0l0-.1c-.19.17-.38.53-.56.47-1.58-.5-3.17.94-4.74,0-.43-.25-.75.48-1.17.5-1.69.06-3.38-.21-5.06.7-.45.24-1,.14-1.39-.56-.07-.12-.12-.38-.2-.15-.54,1.57-1.24.79-1.86.87a33.65,33.65,0,0,0-7,1.2,31.64,31.64,0,0,1-3.85,1,1.51,1.51,0,0,1-1.1-.41c-.65-.47-.66-.42-.36-2.15l0,0h0c-1.14.47-2.24.3-3.26-1.29a1.72,1.72,0,0,1-.27-1,2.64,2.64,0,0,1-.17-.47c-.38-1.72-.34-2,.34-2.5.13-.1.37,0,.33-.43s-.23,0-.35,0c-.31.08-.53-.5-.79-.75-.5-.49-1-.32-1.54-.89a1.44,1.44,0,0,1-.48-1.35c0-1,.16-1.83.61-1.9s.77-.55,1.14.22c0,.1.16-.06.25-.11v0c.39-.59.86,0,1.26-.8A1.85,1.85,0,0,0,1149.3,4c0-1.44.31-2.06.89-2.1,1.68-.12,3.36-.24,5-.29a3.7,3.7,0,0,1,2,.52c.38.22.78-.4,1.18-.47,2.13-.35,4.24.21,6.36.11,1.94-.09,3.89-.12,5.83-.15,1.13,0,2.28-.45,3.42-.4,2.14.11,4.27-.38,6.41.06.61.12,1.26-.4,1.88-.28a7.55,7.55,0,0,0,3,.24,12.93,12.93,0,0,1,4-.21c1.24.12,2.46-.18,3.69-.05a8.52,8.52,0,0,0,2.65-.4,2,2,0,0,1,1.66.43c.43.28.92-.18,1.39-.27s1.14-1.23,1.63.45c.32-.57.71-.17,1-.46.55-.54,1.06.24,1.59-.09.28-.18.24.74.38,1s.27,1.21.45-.16.72-1.2,1.11-.08c.16.46.3.49.42.05.22-.79.44-.94.72-.27.09.22.24.38.31.12.46-1.76,1.1-.17,1.62-.63.12-.11.23.15.24.49,0,.93.19.89.38.37.35-1,.81-.84,1.21-.67,1.31.52,2.63.08,3.93.53,1.76.6,3.53.3,5.3.74a8.57,8.57,0,0,0,3-.24,2.23,2.23,0,0,1,2.19.86c.77.92,1.63.59,2.46.65.3,0,.57.05.8.65a4.5,4.5,0,0,1,.27,2.09c-.09.82-.3,1.61-.67,1.6-.64,0-1.2.52-1.79,1.13s-1.23.08-1.86,0-1.07-.17-1.62-.25c-.08,0-.17-.08-.25,0a1,1,0,0,0-.26.8c0,.41.18.29.28.28,1.36-.14,2.68.67,4,1.14.77.26,1.54.63,2.3,1a1.22,1.22,0,0,1,.42.29,3.09,3.09,0,0,1,.58,2.48m-81-8.56c0-.06-.08,0-.12,0a.65.65,0,0,0,.08.25c.06,0,.09-.12,0-.21m.52,7.87a.28.28,0,0,0,0,.09v-.09m3.56,2.64s0,0,0,0" fill="#6c6455"/>
  <path id="Path_456" data-name="Path 456" d="M1220.84,61.33h0s0,0,0,0" fill="#555042"/>
  <path id="Path_457" data-name="Path 457" d="M1270.45,60.9c-.06.83-.56,1.6-1,1.34s-1.08-.24-1.59-.82c-.11-.13-.36-.42-.26.23.24,1.48-.35,1.32-.48,2.06-.21,1.28-.48.29-.76.1s-.5-.48-.75-.06-.37.28-.49,0c-.58-1.28-1,.09-1.51.58s-.6.5-1,.3c-1.4-.74-2.84-.67-4.26-1-1-.2-2,0-3-.31-.37-.09-.59-.84-.94-.8l-.29-.06c-.54.57-1.08,1.41-1.63.09-.57.81-1.13-1.06-1.71-.07-.09.15-.23.21-.33.16a4.57,4.57,0,0,0-3.09-.19c-.19,0-.4-.06-.53-.56-.9-.09-1.78.9-2.68.07a1.81,1.81,0,0,0-1.79-.24,4.45,4.45,0,0,1-1.62-.15,2.07,2.07,0,0,0-1,0c-.7.22-1.5.71-2.09,0s-1.06-1.16-1.64-.16c0,.07-.28.18-.38-.23s-.31-.59-.46-.43c-.86.91-1.81-.21-2.61.49-1.06.93-2-.29-3,0a3.38,3.38,0,0,1-2.13.16,4,4,0,0,0-3.26.32c-.86.43-1.77,0-2.66,0a.68.68,0,0,1-.66-.5v0s0,0,0,0a.51.51,0,0,1,0-.1c-.19.18-.38.53-.56.48-1.58-.51-3.17.93-4.75,0-.42-.25-.75.48-1.16.5-1.69.07-3.38-.21-5.06.7-.45.24-1,.15-1.39-.56-.07-.11-.12-.38-.2-.15-.54,1.57-1.24.79-1.87.87a33.67,33.67,0,0,0-7,1.2,31.64,31.64,0,0,1-3.85,1,1.51,1.51,0,0,1-1.1-.41c-.65-.47-.66-.42-.36-2.15,0,0,0,0,0,0h0c-1.14.47-2.24.3-3.26-1.29a1.72,1.72,0,0,1-.27-1,2.64,2.64,0,0,1-.17-.47c-.38-1.72-.34-2,.34-2.5.13-.1.37,0,.33-.43s-.23,0-.35,0c-.31.07-.53-.5-.79-.75-.5-.49-1-.32-1.54-.89a1.45,1.45,0,0,1-.49-1.34c0-.95.17-1.83.61-1.9s.78-.55,1.15.22c0,.09.16-.07.24-.11v0c.38-.58.85,0,1.26-.8a1.82,1.82,0,0,0,.35-1.17c0-1.45.31-2.07.88-2.11,1.68-.12,3.36-.24,5-.28a3.55,3.55,0,0,1,2,.52c.38.21.77-.4,1.18-.47,2.12-.35,4.24.2,6.36.1,1.94-.09,3.88-.12,5.83-.15,1.13,0,2.28-.45,3.42-.39,2.13.1,4.27-.39,6.41,0,.6.13,1.26-.39,1.88-.27a7.37,7.37,0,0,0,3,.23,12.93,12.93,0,0,1,4-.21c1.23.12,2.46-.18,3.68,0a8.29,8.29,0,0,0,2.66-.4,2.11,2.11,0,0,1,1.66.43c.42.29.92-.18,1.38-.27s1.15-1.23,1.64.45c.31-.57.7-.16,1-.46.54-.53,1.06.25,1.59-.08.28-.18.23.73.37,1s.28,1.2.46-.17.72-1.19,1.11-.08q.24.7.42.06c.22-.8.43-1,.72-.27.09.21.23.38.3.12.47-1.77,1.1-.18,1.63-.64.12-.1.23.16.24.5,0,.92.19.88.37.37.36-1,.81-.84,1.22-.68,1.3.52,2.62.08,3.92.53,1.77.61,3.54.31,5.31.74a8.59,8.59,0,0,0,3-.24,2.24,2.24,0,0,1,2.19.86c.77.92,1.63.6,2.46.66.3,0,.57.05.8.64a4.68,4.68,0,0,1,.27,2.1c-.09.82-.31,1.6-.67,1.6-.64,0-1.2.51-1.79,1.12s-1.23.09-1.86,0-1.08-.17-1.62-.25c-.08,0-.18-.08-.25,0a1,1,0,0,0-.27.8c0,.42.19.3.29.29,1.36-.14,2.68.67,4,1.13.77.27,1.53.63,2.3,1a1.06,1.06,0,0,1,.41.29,3,3,0,0,1,.59,2.47m-81-8.56c0-.05-.07,0-.11,0s0,.23.07.24.09-.11,0-.21m.52,7.88a.28.28,0,0,0,0,.09s0-.09,0-.14l0,0m3.57,2.63s0,0,0,0" fill="#555042"/>
  <path id="Path_458" data-name="Path 458" d="M1318.34,61.33h0s0,0,0,0" fill="#ad7a4c"/>
  <path id="Path_459" data-name="Path 459" d="M1368,60.9c-.06.83-.56,1.6-1,1.34s-1.08-.24-1.59-.82c-.11-.13-.36-.42-.26.23.24,1.48-.35,1.32-.48,2.06-.21,1.28-.49.29-.77.1s-.5-.48-.74-.06-.37.28-.49,0c-.58-1.28-1,.09-1.51.58s-.6.5-1,.3c-1.4-.74-2.84-.67-4.26-1-1-.2-2,0-3-.31-.37-.09-.6-.84-.94-.8l-.29-.06c-.54.57-1.08,1.41-1.63.09-.57.81-1.13-1.06-1.71-.07-.09.15-.22.21-.33.16a4.57,4.57,0,0,0-3.09-.19c-.19,0-.4-.06-.53-.56-.9-.09-1.79.9-2.68.07-.59-.54-1.19-.35-1.79-.24a4.45,4.45,0,0,1-1.62-.15,2.07,2.07,0,0,0-1,0c-.7.22-1.5.71-2.09,0s-1.06-1.16-1.64-.16c0,.07-.28.18-.38-.23s-.31-.59-.46-.43c-.86.91-1.81-.21-2.61.49-1.06.93-2-.29-3,0a3.38,3.38,0,0,1-2.13.16,4.07,4.07,0,0,0-3.27.32c-.85.43-1.77,0-2.66,0a.67.67,0,0,1-.65-.5v0a.51.51,0,0,1,0-.1c-.19.18-.39.53-.56.48-1.59-.51-3.17.93-4.75,0-.42-.25-.75.48-1.17.5-1.68.07-3.38-.21-5.06.7-.44.24-1,.15-1.38-.56-.07-.11-.13-.38-.2-.15-.54,1.57-1.25.79-1.87.87a33.67,33.67,0,0,0-7,1.2,31.64,31.64,0,0,1-3.85,1,1.51,1.51,0,0,1-1.1-.41c-.66-.47-.66-.42-.36-2.15,0,0,0,0,0,0h0c-1.13.47-2.23.3-3.26-1.29a1.78,1.78,0,0,1-.26-1,2.64,2.64,0,0,1-.17-.47c-.38-1.72-.35-2,.34-2.5.13-.1.37,0,.33-.43s-.23,0-.35,0c-.31.07-.53-.5-.79-.75-.5-.49-1-.32-1.54-.89a1.45,1.45,0,0,1-.49-1.34c0-.95.16-1.83.61-1.9s.78-.55,1.15.22c0,.09.16-.07.24-.11v0c.38-.58.85,0,1.26-.8a1.75,1.75,0,0,0,.34-1.17c0-1.45.31-2.07.89-2.11,1.68-.12,3.36-.24,5-.28a3.56,3.56,0,0,1,2,.52c.37.21.77-.4,1.18-.47,2.12-.35,4.24.2,6.36.1,1.94-.09,3.88-.12,5.82-.15,1.14,0,2.29-.45,3.42-.39,2.14.1,4.28-.39,6.42,0,.6.13,1.25-.39,1.88-.27a7.37,7.37,0,0,0,3,.23,12.93,12.93,0,0,1,4-.21c1.23.12,2.45-.18,3.68,0a8.19,8.19,0,0,0,2.65-.4,2.06,2.06,0,0,1,1.66.43c.43.29.92-.18,1.39-.27s1.15-1.23,1.63.45c.32-.57.71-.16,1-.46.55-.53,1.07.25,1.59-.08.29-.18.24.73.38,1s.27,1.2.45-.17.72-1.19,1.12-.08q.24.7.42.06c.21-.8.43-1,.71-.27.09.21.24.38.31.12.47-1.77,1.1-.18,1.63-.64.12-.1.23.16.24.5,0,.92.19.88.37.37.36-1,.81-.84,1.22-.68,1.3.52,2.62.08,3.92.53,1.76.61,3.54.31,5.31.74a8.61,8.61,0,0,0,3-.24,2.22,2.22,0,0,1,2.18.86c.78.92,1.64.6,2.46.66.3,0,.58.05.8.64a4.55,4.55,0,0,1,.28,2.1c-.1.82-.31,1.6-.67,1.6-.64,0-1.2.51-1.8,1.12s-1.23.09-1.85,0-1.08-.17-1.62-.25c-.09,0-.18-.08-.25,0a1,1,0,0,0-.27.8c0,.42.18.3.29.29,1.35-.14,2.67.67,4,1.13.77.27,1.53.63,2.29,1a1.1,1.1,0,0,1,.42.29,3.08,3.08,0,0,1,.59,2.47m-81-8.56c0-.05-.07,0-.12,0s0,.23.08.24.09-.11,0-.21m.52,7.88a.28.28,0,0,0,0,.09s0-.09,0-.14l0,0m3.57,2.63s0,0,0,0" fill="#ad7a4c"/>
  <path id="Path_460" data-name="Path 460" d="M1120.1,61.33h0s0,0,0,0" fill="#ad7a4c"/>
  <path id="Path_461" data-name="Path 461" d="M1169.71,60.9c-.06.83-.56,1.6-1,1.34s-1.08-.24-1.59-.82c-.11-.13-.36-.42-.26.23.24,1.48-.35,1.32-.48,2.06-.21,1.28-.49.29-.77.1s-.5-.48-.74-.06-.37.28-.49,0c-.58-1.28-1,.09-1.51.58s-.6.5-1,.3c-1.4-.74-2.84-.67-4.26-1-1-.2-2,0-3-.31-.37-.09-.6-.84-.94-.8l-.29-.06c-.54.57-1.08,1.41-1.63.09-.57.81-1.13-1.06-1.71-.07-.09.15-.23.21-.33.16a4.57,4.57,0,0,0-3.09-.19c-.19,0-.4-.06-.54-.56-.89-.09-1.78.9-2.67.07a1.81,1.81,0,0,0-1.79-.24,4.45,4.45,0,0,1-1.62-.15,2.07,2.07,0,0,0-1,0c-.7.22-1.5.71-2.09,0s-1.06-1.16-1.64-.16c0,.07-.28.18-.38-.23s-.31-.59-.46-.43c-.86.91-1.81-.21-2.61.49-1.06.93-2-.29-3,0a3.38,3.38,0,0,1-2.13.16,4,4,0,0,0-3.26.32c-.86.43-1.78,0-2.66,0a.68.68,0,0,1-.66-.5v0a.51.51,0,0,1,0-.1c-.19.18-.39.53-.56.48-1.59-.51-3.17.93-4.75,0-.42-.25-.75.48-1.16.5-1.69.07-3.39-.21-5.07.7-.44.24-1,.15-1.38-.56-.07-.11-.13-.38-.2-.15-.54,1.57-1.24.79-1.87.87a33.67,33.67,0,0,0-7,1.2,31.64,31.64,0,0,1-3.85,1,1.51,1.51,0,0,1-1.1-.41c-.66-.47-.66-.42-.36-2.15,0,0,0,0,0,0h0c-1.13.47-2.23.3-3.26-1.29a1.78,1.78,0,0,1-.26-1,2.64,2.64,0,0,1-.17-.47c-.38-1.72-.34-2,.34-2.5.13-.1.37,0,.33-.43s-.23,0-.35,0c-.31.07-.53-.5-.79-.75-.5-.49-1-.32-1.54-.89a1.45,1.45,0,0,1-.49-1.34c0-.95.17-1.83.61-1.9s.78-.55,1.15.22c0,.09.16-.07.24-.11v0c.38-.58.85,0,1.26-.8a1.75,1.75,0,0,0,.34-1.17c0-1.45.31-2.07.89-2.11,1.68-.12,3.36-.24,5-.28a3.56,3.56,0,0,1,2,.52c.38.21.77-.4,1.18-.47,2.12-.35,4.24.2,6.36.1,1.94-.09,3.88-.12,5.82-.15,1.14,0,2.29-.45,3.42-.39,2.14.1,4.28-.39,6.42,0,.6.13,1.26-.39,1.88-.27a7.37,7.37,0,0,0,3,.23,12.93,12.93,0,0,1,4-.21c1.23.12,2.45-.18,3.68,0a8.19,8.19,0,0,0,2.65-.4,2.06,2.06,0,0,1,1.66.43c.43.29.92-.18,1.39-.27s1.15-1.23,1.63.45c.32-.57.71-.16,1-.46.55-.53,1.07.25,1.59-.08.29-.18.24.73.38,1s.27,1.2.45-.17.72-1.19,1.12-.08q.24.7.42.06c.21-.8.43-1,.71-.27.09.21.24.38.31.12.47-1.77,1.1-.18,1.63-.64.12-.1.23.16.24.5,0,.92.19.88.37.37.36-1,.81-.84,1.22-.68,1.3.52,2.62.08,3.92.53,1.76.61,3.54.31,5.31.74a8.59,8.59,0,0,0,3-.24,2.22,2.22,0,0,1,2.18.86c.78.92,1.64.6,2.46.66.3,0,.58.05.8.64a4.55,4.55,0,0,1,.28,2.1c-.1.82-.31,1.6-.67,1.6-.64,0-1.2.51-1.8,1.12s-1.23.09-1.85,0-1.08-.17-1.62-.25c-.09,0-.18-.08-.25,0a1,1,0,0,0-.27.8c0,.42.18.3.29.29,1.35-.14,2.67.67,4,1.13.77.27,1.53.63,2.29,1a1,1,0,0,1,.42.29,3.08,3.08,0,0,1,.59,2.47m-81-8.56c0-.05-.07,0-.12,0s0,.23.08.24.09-.11,0-.21m.52,7.88a.28.28,0,0,0,0,.09s0-.09,0-.14l0,0m3.57,2.63s0,0,0,0" fill="#ad7a4c"/>
  <path id="Path_463" data-name="Path 463" d="M625.4,144.72c0,.39-.26.75-.45.63s-.52-.11-.76-.39c-.05-.06-.17-.2-.12.11.11.7-.17.62-.23,1-.1.6-.23.13-.36,0s-.24-.23-.35,0-.18.13-.24,0c-.27-.61-.49,0-.71.27s-.29.24-.46.15a6.74,6.74,0,0,0-2-.46c-.47-.1-1,0-1.42-.15-.17,0-.28-.4-.44-.37l-.14,0c-.26.28-.51.68-.77.05-.27.38-.54-.5-.81,0,0,.07-.11.1-.16.07a2.18,2.18,0,0,0-1.47-.09c-.09,0-.19,0-.25-.27-.42,0-.84.43-1.27,0-.27-.26-.56-.16-.84-.11a2.22,2.22,0,0,1-.77-.07.87.87,0,0,0-.48,0c-.33.1-.71.33-1,0s-.5-.55-.77-.08c0,0-.14.09-.18-.11s-.15-.27-.22-.2c-.41.43-.86-.1-1.24.23s-1-.13-1.44,0a1.59,1.59,0,0,1-1,.07,1.91,1.91,0,0,0-1.55.16c-.41.2-.84,0-1.26,0a.31.31,0,0,1-.31-.24h0a.05.05,0,0,1,0,0c-.09.08-.18.25-.27.22-.75-.24-1.5.45-2.25,0-.2-.12-.35.23-.55.24a4.93,4.93,0,0,0-2.4.33c-.21.11-.45.06-.66-.27,0,0-.06-.18-.1-.07-.25.75-.59.37-.88.41a16.44,16.44,0,0,0-3.34.57,14.84,14.84,0,0,1-1.82.49.72.72,0,0,1-.53-.19c-.31-.23-.31-.2-.17-1a0,0,0,0,1,0,0h0c-.54.22-1.06.14-1.55-.61a.85.85,0,0,1-.12-.49,1,1,0,0,1-.08-.23c-.18-.81-.17-.94.16-1.18.06-.05.18,0,.15-.2s-.1,0-.16,0-.25-.23-.38-.35-.5-.15-.73-.42a.7.7,0,0,1-.22-.64c0-.45.08-.86.29-.9s.37-.26.54.1c0,.05.08,0,.12,0h0c.18-.27.4,0,.6-.38a.91.91,0,0,0,.16-.55c0-.69.15-1,.42-1,.8-.06,1.59-.12,2.39-.14a1.69,1.69,0,0,1,.93.25c.18.1.36-.19.55-.23a27.67,27.67,0,0,1,3,.05c.92,0,1.84-.05,2.76-.07.54,0,1.08-.21,1.62-.19a20.57,20.57,0,0,1,3,0c.29.06.6-.19.89-.13a3.58,3.58,0,0,0,1.42.11,6.38,6.38,0,0,1,1.9-.1c.58.06,1.16-.08,1.74,0a3.91,3.91,0,0,0,1.27-.19,1,1,0,0,1,.78.2c.2.14.44-.08.66-.12s.54-.59.77.21c.15-.27.34-.08.48-.22s.5.12.76,0,.11.35.18.48.13.57.21-.08.34-.56.53,0c.08.22.14.23.2,0,.1-.37.2-.45.34-.13,0,.1.11.19.14.06.22-.83.52-.08.77-.3.06-.05.11.08.12.24,0,.44.09.42.17.17.17-.46.39-.4.58-.32.62.25,1.24,0,1.86.25a24.41,24.41,0,0,0,2.51.35,4.1,4.1,0,0,0,1.44-.11,1.05,1.05,0,0,1,1,.41c.37.44.78.28,1.17.31.14,0,.27,0,.38.3a2.13,2.13,0,0,1,.13,1c0,.38-.14.76-.32.75s-.56.25-.85.54-.58,0-.88,0l-.76-.12s-.09,0-.12,0a.52.52,0,0,0-.13.39c0,.2.09.13.14.13a4.72,4.72,0,0,1,1.9.54c.36.12.72.3,1.08.45a.48.48,0,0,1,.2.14,1.45,1.45,0,0,1,.28,1.17M587,140.66s0,0,0,0a.28.28,0,0,0,0,.12s0-.06,0-.1m.25,3.73v0s0,0,0,0m1.68,1.25s0,0,0,0" fill="#2b2e34"/>
  <path id="Path_465" data-name="Path 465" d="M651.89,207.47c0,.39-.26.76-.45.63s-.52-.11-.76-.39c0-.06-.17-.2-.12.11.11.7-.17.63-.23,1-.1.6-.23.13-.36,0s-.24-.23-.35,0-.18.13-.24,0c-.27-.61-.49,0-.71.27s-.29.24-.46.15a6.74,6.74,0,0,0-2-.46c-.47-.09-1,0-1.42-.14-.17,0-.28-.4-.44-.38l-.14,0c-.26.27-.51.67-.77,0-.27.38-.54-.5-.81,0-.05.07-.11.1-.16.07a2.18,2.18,0,0,0-1.47-.09c-.09,0-.19,0-.25-.26-.42-.05-.84.42-1.27,0-.27-.25-.56-.16-.84-.11a2.22,2.22,0,0,1-.77-.07.87.87,0,0,0-.48,0c-.33.1-.71.33-1,0s-.5-.55-.77-.07c0,0-.13.08-.18-.12s-.15-.27-.22-.2c-.41.43-.86-.1-1.24.24s-1-.14-1.44,0a1.59,1.59,0,0,1-1,.07,2,2,0,0,0-1.55.16c-.41.2-.84,0-1.26,0a.31.31,0,0,1-.31-.24h0l0,0c-.09.08-.18.25-.26.22-.75-.23-1.5.45-2.25,0-.2-.11-.36.23-.55.24a4.91,4.91,0,0,0-2.4.33c-.22.11-.46.07-.66-.27,0,0-.06-.18-.1-.07-.26.75-.59.38-.89.41a16.45,16.45,0,0,0-3.34.58,13.91,13.91,0,0,1-1.82.48.72.72,0,0,1-.52-.19c-.31-.22-.32-.2-.17-1h0c-.54.22-1.06.14-1.54-.61a.86.86,0,0,1-.13-.49,2,2,0,0,1-.08-.22c-.18-.82-.16-.95.16-1.19.07-.05.18,0,.16-.2s-.11,0-.17,0-.25-.24-.37-.36-.5-.15-.73-.42a.7.7,0,0,1-.23-.64c0-.45.08-.86.29-.9s.37-.26.54.1c0,.05.08,0,.12,0h0c.18-.27.4,0,.6-.38a.78.78,0,0,0,.16-.55c0-.69.15-1,.42-1,.8-.06,1.6-.12,2.39-.14a1.78,1.78,0,0,1,.93.25c.18.1.37-.19.56-.23a25.2,25.2,0,0,1,3,.06c.92,0,1.84-.06,2.76-.08.54,0,1.08-.21,1.62-.18a19.4,19.4,0,0,1,3,0c.29.06.6-.18.89-.13a3.58,3.58,0,0,0,1.42.12,5.78,5.78,0,0,1,1.9-.1c.58.05,1.16-.09,1.74,0a3.91,3.91,0,0,0,1.27-.19,1,1,0,0,1,.78.2c.2.14.44-.08.66-.12s.54-.59.77.21c.15-.27.34-.08.48-.22s.5.12.76,0,.11.35.18.48.13.58.21-.07.34-.57.53,0c.08.22.14.23.2,0,.1-.37.2-.44.34-.12,0,.1.11.18.14,0,.22-.83.52-.08.77-.3.06-.05.11.08.12.24,0,.44.09.42.17.17.17-.46.39-.4.58-.32.62.25,1.24,0,1.86.25.84.29,1.68.15,2.51.36a4.1,4.1,0,0,0,1.44-.12,1.05,1.05,0,0,1,1,.41c.37.44.78.28,1.17.31.14,0,.27,0,.38.31a2.07,2.07,0,0,1,.13,1c0,.39-.14.76-.32.75s-.56.25-.85.54-.58,0-.88,0l-.76-.12s-.09,0-.12,0a.48.48,0,0,0-.13.38c0,.2.09.14.14.13a4.72,4.72,0,0,1,1.9.54c.36.13.72.3,1.08.45a.6.6,0,0,1,.2.14,1.47,1.47,0,0,1,.28,1.18m-38.4-4.06s0,0,0,0a.27.27,0,0,0,0,.12s0,0,0-.1m.25,3.73v0m1.69,1.25s0,0,0,0" fill="#2b2e34"/>
  <path id="Path_467" data-name="Path 467" d="M554.41,139.85c0,.39-.27.76-.46.64s-.51-.12-.75-.4c-.06-.06-.18-.2-.13.12.12.7-.16.62-.22,1-.1.6-.24.14-.37,0s-.23-.23-.35,0-.17.13-.23,0c-.28-.6-.49,0-.72.28s-.28.23-.46.14a6.6,6.6,0,0,0-2-.46c-.47-.09-.94,0-1.42-.14-.17-.05-.28-.4-.44-.38l-.14,0c-.25.27-.51.67-.77,0-.27.39-.54-.5-.81,0,0,.07-.11.1-.16.07a2.1,2.1,0,0,0-1.46-.08c-.09,0-.19,0-.26-.27-.42,0-.84.43-1.26,0a.86.86,0,0,0-.85-.12,2.22,2.22,0,0,1-.77-.07,1,1,0,0,0-.48,0c-.33.1-.71.34-1,0s-.5-.55-.78-.08c0,0-.13.08-.18-.11s-.15-.28-.22-.2c-.41.43-.86-.1-1.24.23s-1-.14-1.44,0a1.59,1.59,0,0,1-1,.08,2,2,0,0,0-1.55.15c-.4.2-.84,0-1.26,0a.33.33,0,0,1-.31-.24h0s0,0,0-.05-.18.26-.26.23c-.75-.24-1.5.44-2.25,0-.2-.12-.35.23-.55.23a5,5,0,0,0-2.4.33c-.21.12-.46.07-.66-.26,0-.06-.06-.18-.1-.07-.26.74-.59.37-.88.41a15.77,15.77,0,0,0-3.34.57,16.45,16.45,0,0,1-1.83.49.72.72,0,0,1-.52-.19c-.31-.23-.31-.2-.17-1v0h0c-.54.23-1.06.15-1.55-.61a.84.84,0,0,1-.13-.49,1.43,1.43,0,0,1-.08-.22c-.18-.81-.16-.95.17-1.19.06,0,.17,0,.15-.2s-.11,0-.17,0-.25-.24-.37-.36-.5-.15-.73-.42a.68.68,0,0,1-.23-.63c0-.45.08-.87.29-.9s.37-.26.55.1c0,0,.07,0,.11-.05h0c.18-.28.4,0,.6-.38a.86.86,0,0,0,.17-.56c0-.68.14-1,.42-1,.8-.06,1.59-.11,2.39-.13a1.67,1.67,0,0,1,.92.24c.18.1.37-.19.56-.22a25.16,25.16,0,0,1,3,0c.92,0,1.84-.06,2.76-.07.54,0,1.09-.22,1.62-.19a18.4,18.4,0,0,1,3.06,0c.28.05.59-.19.89-.13a3.54,3.54,0,0,0,1.41.11,6.08,6.08,0,0,1,1.9-.1c.59.06,1.17-.09,1.75,0a4.14,4.14,0,0,0,1.26-.19,1,1,0,0,1,.79.2c.2.13.43-.09.65-.13s.55-.58.78.21c.15-.27.33-.08.48-.22s.5.12.75,0,.11.34.18.48.13.57.21-.08.35-.57.53,0c.08.22.14.23.2,0,.1-.38.21-.45.34-.13.05.1.12.18.15.06.22-.84.52-.09.77-.3.06,0,.11.07.11.23,0,.44.09.42.18.18.17-.47.38-.4.58-.32.61.24,1.24,0,1.86.25.83.29,1.67.14,2.51.35a4.06,4.06,0,0,0,1.43-.11,1,1,0,0,1,1,.41c.36.43.77.28,1.16.3.15,0,.28,0,.38.31a2.07,2.07,0,0,1,.13,1c0,.39-.14.76-.31.76s-.57.24-.85.53-.59,0-.88,0-.51-.07-.77-.11c0,0-.08,0-.12,0a.47.47,0,0,0-.12.38c0,.2.08.14.13.13a4.88,4.88,0,0,1,1.9.54c.36.13.72.3,1.08.46a.48.48,0,0,1,.2.14,1.45,1.45,0,0,1,.28,1.17M516,135.79s0,0,0,0a.21.21,0,0,0,0,.11s0,0,0-.1m.24,3.73v0m1.68,1.25h0" fill="#2b2e34"/>
  <path id="Path_469" data-name="Path 469" d="M574.12,161.81c0,.39-.27.76-.46.64s-.51-.12-.75-.4c0-.06-.17-.2-.12.12.11.7-.17.62-.23,1-.1.6-.23.14-.37.05s-.23-.23-.35,0-.17.13-.23,0c-.28-.6-.49,0-.72.28s-.28.23-.45.14a7,7,0,0,0-2-.46c-.47-.09-.94,0-1.42-.14-.17,0-.28-.4-.44-.38l-.14,0c-.25.27-.51.67-.77,0-.27.39-.54-.5-.81,0a.14.14,0,0,1-.16.08,2.1,2.1,0,0,0-1.46-.09c-.09,0-.19,0-.25-.27-.43,0-.85.43-1.27,0a.86.86,0,0,0-.85-.12,2,2,0,0,1-.77-.07,1,1,0,0,0-.48,0c-.33.1-.71.34-1,0s-.5-.55-.78-.08c0,0-.13.08-.18-.11s-.14-.28-.22-.2c-.41.43-.86-.1-1.23.23s-1-.14-1.45,0a1.59,1.59,0,0,1-1,.08,2,2,0,0,0-1.55.15c-.4.2-.83,0-1.26,0a.32.32,0,0,1-.31-.24h0s0,0,0,0-.19.26-.27.23c-.75-.24-1.5.44-2.25,0-.2-.12-.35.23-.55.23a5,5,0,0,0-2.4.33c-.21.12-.45.07-.66-.26,0-.06-.06-.18-.1-.07-.25.74-.59.37-.88.41a15.77,15.77,0,0,0-3.34.57,16.88,16.88,0,0,1-1.82.49.72.72,0,0,1-.53-.19c-.31-.23-.31-.2-.17-1,0,0,0,0,0,0h0c-.54.23-1.06.15-1.55-.61a.82.82,0,0,1-.13-.49,1.43,1.43,0,0,1-.08-.22c-.18-.81-.16-.94.17-1.19.06,0,.17,0,.15-.2s-.11,0-.16,0-.26-.24-.38-.35-.5-.16-.73-.43a.7.7,0,0,1-.23-.63c0-.45.08-.87.29-.9s.37-.26.55.1c0,0,.07,0,.11,0h0c.18-.28.4,0,.6-.38a.86.86,0,0,0,.17-.56c0-.68.15-1,.42-1,.8-.06,1.59-.11,2.39-.13a1.67,1.67,0,0,1,.92.24c.18.1.37-.19.56-.22a25.16,25.16,0,0,1,3,.05c.93,0,1.85-.06,2.76-.07.54,0,1.09-.22,1.63-.19a19.43,19.43,0,0,1,3,0c.28.06.59-.19.89-.13a3.54,3.54,0,0,0,1.41.11,6.08,6.08,0,0,1,1.9-.1c.59.06,1.17-.09,1.75,0a4.14,4.14,0,0,0,1.26-.19,1,1,0,0,1,.79.2c.2.13.43-.09.65-.13s.55-.58.78.21c.15-.27.33-.08.48-.22s.5.12.75,0,.11.34.18.48.13.57.22-.08.34-.57.52,0c.08.22.14.23.2,0,.1-.38.21-.45.34-.13,0,.1.11.18.15.06.22-.84.52-.09.77-.3.06-.05.11.07.11.23,0,.44.09.42.18.18.17-.47.38-.4.57-.32.62.24,1.25,0,1.86.25.84.29,1.68.14,2.52.35a4,4,0,0,0,1.43-.11,1,1,0,0,1,1,.41c.37.43.77.28,1.17.3.14,0,.27,0,.37.31a2.21,2.21,0,0,1,.14,1c-.05.39-.15.76-.32.76s-.57.24-.85.53-.59,0-.88,0-.51-.07-.77-.11c0,0-.08,0-.12,0a.47.47,0,0,0-.12.38c0,.2.08.14.13.13a4.88,4.88,0,0,1,1.9.54c.36.13.72.3,1.09.46a.66.66,0,0,1,.2.14,1.48,1.48,0,0,1,.28,1.17m-38.4-4.06s0,0-.06,0a.21.21,0,0,0,0,.11s0,0,0-.1m.24,3.73v0m1.69,1.25s0,0,0,0" fill="#2b2e34"/>
  <path id="Path_471" data-name="Path 471" d="M620.32,161.81c0,.39-.27.76-.46.64s-.51-.12-.75-.4c-.05-.06-.17-.2-.12.12.11.7-.17.62-.23,1-.1.6-.23.14-.37.05s-.23-.23-.35,0-.17.13-.23,0c-.28-.6-.49,0-.72.28s-.28.23-.45.14a7,7,0,0,0-2-.46c-.47-.09-.94,0-1.42-.14-.17,0-.28-.4-.44-.38l-.14,0c-.25.27-.51.67-.77,0-.27.39-.54-.5-.81,0a.14.14,0,0,1-.16.08,2.1,2.1,0,0,0-1.46-.09c-.09,0-.19,0-.25-.27-.43,0-.85.43-1.27,0a.86.86,0,0,0-.85-.12,2,2,0,0,1-.77-.07,1,1,0,0,0-.48,0c-.33.1-.71.34-1,0s-.5-.55-.78-.08c0,0-.13.08-.18-.11s-.14-.28-.22-.2c-.41.43-.86-.1-1.23.23s-1-.14-1.45,0a1.59,1.59,0,0,1-1,.08,2,2,0,0,0-1.55.15c-.4.2-.83,0-1.26,0a.33.33,0,0,1-.31-.24h0s0,0,0,0-.18.26-.27.23c-.75-.24-1.5.44-2.25,0-.2-.12-.35.23-.55.23a5,5,0,0,0-2.4.33c-.21.12-.45.07-.66-.26,0-.06,0-.18-.1-.07-.25.74-.58.37-.88.41a15.77,15.77,0,0,0-3.34.57,16.88,16.88,0,0,1-1.82.49.72.72,0,0,1-.53-.19c-.31-.23-.31-.2-.17-1v0h0c-.54.23-1.06.15-1.55-.61a.82.82,0,0,1-.12-.49.83.83,0,0,1-.08-.22c-.18-.81-.17-.94.16-1.19.06,0,.18,0,.16-.2s-.11,0-.17,0-.25-.24-.38-.35-.5-.16-.72-.43a.65.65,0,0,1-.23-.63c0-.45.08-.87.29-.9s.36-.26.54.1c0,0,.08,0,.12,0h0c.18-.28.4,0,.6-.38a.92.92,0,0,0,.16-.56c0-.68.15-1,.42-1,.8-.06,1.59-.11,2.39-.13a1.68,1.68,0,0,1,.93.24c.18.1.36-.19.56-.22a25.2,25.2,0,0,1,3,.05c.92,0,1.84-.06,2.76-.07.54,0,1.08-.22,1.62-.19a19.43,19.43,0,0,1,3.05,0c.28.06.59-.19.89-.13a3.54,3.54,0,0,0,1.41.11,6.08,6.08,0,0,1,1.9-.1c.59.06,1.17-.09,1.75,0a4.14,4.14,0,0,0,1.26-.19,1,1,0,0,1,.79.2c.2.13.43-.09.65-.13s.55-.58.78.21c.15-.27.33-.08.48-.22s.5.12.75,0,.11.34.18.48.13.57.22-.08.34-.57.52,0c.08.22.15.23.2,0,.1-.38.21-.45.34-.13,0,.1.12.18.15.06.22-.84.52-.09.77-.3.06-.05.11.07.11.23,0,.44.09.42.18.18.17-.47.38-.4.58-.32.61.24,1.24,0,1.86.25.83.29,1.67.14,2.51.35a4,4,0,0,0,1.43-.11,1,1,0,0,1,1,.41c.37.43.77.28,1.17.3.14,0,.27,0,.37.31a2.21,2.21,0,0,1,.14,1c0,.39-.15.76-.32.76s-.57.24-.85.53-.59,0-.88,0-.51-.07-.77-.11c0,0-.08,0-.12,0a.47.47,0,0,0-.12.38c0,.2.08.14.13.13a4.83,4.83,0,0,1,1.9.54c.36.13.73.3,1.09.46a.66.66,0,0,1,.2.14,1.45,1.45,0,0,1,.28,1.17m-38.4-4.06s0,0-.06,0a.36.36,0,0,0,0,.11s0,0,0-.1m.25,3.73a0,0,0,0,0,0,.05v-.05m1.69,1.25s0,0,0,0" fill="#2b2e34"/>
  <path id="Path_473" data-name="Path 473" d="M526.38,161.81c0,.39-.27.76-.46.64s-.51-.12-.75-.4c0-.06-.17-.2-.12.12.11.7-.17.62-.23,1-.1.6-.23.14-.36.05s-.24-.23-.36,0-.17.13-.23,0c-.28-.6-.49,0-.71.28s-.29.23-.46.14a7.06,7.06,0,0,0-2-.46c-.48-.09-.95,0-1.42-.14-.18,0-.28-.4-.45-.38l-.14,0c-.25.27-.5.67-.77,0-.27.39-.53-.5-.81,0,0,.07-.1.1-.15.08a2.13,2.13,0,0,0-1.47-.09c-.09,0-.19,0-.25-.27-.43,0-.85.43-1.27,0a.86.86,0,0,0-.85-.12,2,2,0,0,1-.76-.07,1,1,0,0,0-.49,0c-.33.1-.71.34-1,0s-.5-.55-.78-.08c0,0-.13.08-.18-.11s-.14-.28-.21-.2c-.41.43-.86-.1-1.24.23s-1-.14-1.45,0a1.57,1.57,0,0,1-1,.08,2,2,0,0,0-1.55.15c-.41.2-.84,0-1.26,0a.32.32,0,0,1-.32-.24h0s0,0,0,0-.18.26-.27.23c-.75-.24-1.5.44-2.25,0-.2-.12-.35.23-.55.23a5,5,0,0,0-2.4.33c-.21.12-.45.07-.66-.26,0-.06-.05-.18-.1-.07-.25.74-.58.37-.88.41a15.77,15.77,0,0,0-3.34.57,16.28,16.28,0,0,1-1.82.49.7.7,0,0,1-.52-.19c-.32-.23-.32-.2-.18-1,0,0,0,0,0,0h0c-.54.23-1.06.15-1.55-.61a.82.82,0,0,1-.12-.49.83.83,0,0,1-.08-.22c-.18-.81-.17-.94.16-1.19.06,0,.18,0,.16-.2s-.11,0-.17,0-.25-.24-.38-.35-.5-.16-.72-.43a.68.68,0,0,1-.23-.63c0-.45.08-.87.29-.9s.37-.26.54.1c0,0,.08,0,.12,0h0c.18-.28.4,0,.6-.38a.92.92,0,0,0,.16-.56c0-.68.15-1,.42-1,.8-.06,1.59-.11,2.39-.13a1.68,1.68,0,0,1,.93.24c.18.1.36-.19.55-.22a25.33,25.33,0,0,1,3,.05c.92,0,1.84-.06,2.76-.07.54,0,1.08-.22,1.62-.19a19.42,19.42,0,0,1,3.05,0c.29.06.59-.19.89-.13a3.58,3.58,0,0,0,1.42.11,6,6,0,0,1,1.9-.1c.58.06,1.16-.09,1.74,0a4.09,4.09,0,0,0,1.26-.19,1,1,0,0,1,.79.2c.2.13.44-.09.66-.13s.54-.58.77.21c.15-.27.34-.08.48-.22s.5.12.75,0,.12.34.18.48.13.57.22-.08.34-.57.52,0c.08.22.15.23.2,0,.1-.38.21-.45.34-.13.05.1.12.18.15.06.22-.84.52-.09.77-.3.06-.05.11.07.11.23,0,.44.09.42.18.18.17-.47.39-.4.58-.32.62.24,1.24,0,1.86.25.83.29,1.67.14,2.51.35a4.12,4.12,0,0,0,1.44-.11,1,1,0,0,1,1,.41c.37.43.78.28,1.17.3.14,0,.27,0,.38.31a2.21,2.21,0,0,1,.13,1c-.05.39-.15.76-.32.76s-.56.24-.85.53-.58,0-.88,0-.51-.07-.77-.11c0,0-.08,0-.12,0a.51.51,0,0,0-.12.38c0,.2.08.14.13.13a4.83,4.83,0,0,1,1.9.54c.36.13.73.3,1.09.46a.66.66,0,0,1,.2.14,1.45,1.45,0,0,1,.28,1.17M488,157.75s0,0-.06,0a.36.36,0,0,0,0,.11s0,0,0-.1m.25,3.73v0m1.69,1.25s0,0,0,0" fill="#2b2e34"/>
  <path id="Path_475" data-name="Path 475" d="M539.93,238c0-.39.27-.76.46-.64s.51.12.75.39c.05.06.17.2.12-.11-.11-.7.17-.62.23-1,.1-.6.23-.14.36,0s.24.22.36,0,.17-.13.23,0c.28.61.49,0,.71-.27s.29-.23.46-.14a6.72,6.72,0,0,0,2,.45c.47.1.94,0,1.42.15.17,0,.28.4.44.38l.14,0c.25-.27.51-.67.77,0,.27-.38.53.5.81,0,0-.07.11-.1.15-.07a2.19,2.19,0,0,0,1.47.09c.09,0,.19,0,.25.26.43.05.85-.42,1.27,0a.88.88,0,0,0,.85.11,2.22,2.22,0,0,1,.77.07,1,1,0,0,0,.48,0c.33-.1.71-.33,1,0s.5.55.78.07c0,0,.13-.08.18.12s.14.27.22.2c.41-.43.85.1,1.23-.24s1,.14,1.45,0a1.59,1.59,0,0,1,1-.07,2,2,0,0,0,1.55-.16c.4-.2.83,0,1.26,0a.33.33,0,0,1,.31.24h0s0,0,0,.05.19-.25.27-.22c.75.24,1.5-.45,2.25,0,.2.11.35-.23.55-.24a4.93,4.93,0,0,0,2.4-.33c.21-.11.45-.07.66.27,0,.05,0,.18.1.07.25-.75.58-.38.88-.41a16.45,16.45,0,0,0,3.34-.58,13.91,13.91,0,0,1,1.82-.48.72.72,0,0,1,.52.19c.31.23.32.2.17,1h0c.54-.22,1.06-.14,1.54.61a.86.86,0,0,1,.13.49,1.55,1.55,0,0,1,.08.23c.18.81.16.94-.17,1.18-.06,0-.17,0-.15.2s.11,0,.17,0,.25.23.37.35.5.15.73.42a.7.7,0,0,1,.23.64c0,.45-.08.86-.29.9s-.37.26-.55-.1c0-.05-.07,0-.11,0h0c-.18.27-.4,0-.6.38a.84.84,0,0,0-.17.55c0,.69-.15,1-.42,1-.8.06-1.59.12-2.39.14a1.77,1.77,0,0,1-.92-.25c-.18-.1-.37.19-.56.23a25.2,25.2,0,0,1-3-.06c-.92,0-1.84.06-2.76.07-.54,0-1.09.21-1.62.19a19.27,19.27,0,0,1-3,0c-.29-.06-.6.19-.89.13a3.64,3.64,0,0,0-1.43-.11,6,6,0,0,1-1.9.1c-.58-.05-1.16.09-1.74,0a3.84,3.84,0,0,0-1.26.18,1,1,0,0,1-.78-.2c-.2-.13-.44.09-.66.13s-.54.58-.77-.21c-.15.27-.34.08-.48.22s-.5-.12-.76,0-.11-.35-.18-.49-.13-.57-.21.08-.34.57-.53,0c-.08-.22-.14-.23-.2,0-.1.38-.21.45-.34.13,0-.1-.11-.18-.14-.06-.22.84-.53.09-.77.3-.06.05-.11-.07-.12-.23,0-.44-.09-.42-.18-.18-.16.47-.38.4-.57.33-.62-.25-1.25,0-1.86-.26-.84-.28-1.68-.14-2.52-.35a3.84,3.84,0,0,0-1.43.12,1.07,1.07,0,0,1-1-.41c-.36-.44-.77-.28-1.16-.31-.15,0-.28,0-.38-.31a2.07,2.07,0,0,1-.13-1c0-.39.14-.77.31-.76s.57-.24.85-.53.58,0,.88,0,.51.07.77.11c0,0,.08,0,.12,0a.55.55,0,0,0,.12-.39c0-.2-.09-.14-.14-.13a4.72,4.72,0,0,1-1.9-.54c-.36-.12-.72-.29-1.08-.45a.48.48,0,0,1-.2-.14,1.45,1.45,0,0,1-.28-1.17m38.4,4.06s0,0,0,0a.2.2,0,0,0,0-.11s-.05,0,0,.1m-.24-3.74v0M576.4,237s0,0,0,0" fill="#ad7a4c"/>
  <path id="Path_477" data-name="Path 477" d="M513.44,175.22c0-.4.27-.76.46-.64s.51.11.75.39c.05.06.17.2.12-.11-.11-.7.17-.62.23-1,.1-.6.23-.14.36,0s.24.22.36,0,.17-.13.23,0c.28.61.49,0,.71-.27s.29-.24.46-.14a7,7,0,0,0,2,.45c.47.1.94,0,1.42.15.17,0,.28.4.44.37l.14,0c.25-.27.51-.67.77,0,.27-.39.53.5.81,0,0-.07.11-.1.16-.07a2.16,2.16,0,0,0,1.46.08c.09,0,.19,0,.25.27.43,0,.85-.43,1.27,0a.86.86,0,0,0,.85.12,2,2,0,0,1,.77.07,1,1,0,0,0,.48,0c.33-.1.71-.34,1,0s.5.56.78.08c0,0,.13-.08.18.11s.14.28.22.2c.41-.43.85.1,1.23-.23s1,.14,1.45,0a1.52,1.52,0,0,1,1-.07,2,2,0,0,0,1.55-.16c.4-.2.83,0,1.26,0a.33.33,0,0,1,.31.24h0l0,.05c.09-.08.18-.25.27-.23.75.24,1.5-.44,2.24,0,.2.12.36-.22.56-.23a4.93,4.93,0,0,0,2.4-.33c.21-.11.45-.07.66.27,0,.05,0,.17.1.07.25-.75.58-.38.88-.42a15.77,15.77,0,0,0,3.34-.57,13.91,13.91,0,0,1,1.82-.48.64.64,0,0,1,.52.19c.31.22.32.2.17,1h0c.54-.22,1.06-.14,1.54.61a.86.86,0,0,1,.13.49,2,2,0,0,1,.08.22c.18.82.16.95-.16,1.19-.06,0-.18,0-.16.2s.11,0,.17,0,.25.24.37.36.5.15.73.42a.7.7,0,0,1,.23.64c0,.45-.08.86-.29.9s-.37.26-.55-.11c0,0-.07,0-.11.05h0c-.18.28-.4,0-.6.38a.8.8,0,0,0-.16.56c0,.68-.15,1-.42,1-.8,0-1.6.11-2.39.13a1.77,1.77,0,0,1-.93-.24c-.18-.1-.37.19-.56.22a27.49,27.49,0,0,1-3,0c-.92,0-1.84,0-2.76.07-.54,0-1.08.21-1.62.19a20.55,20.55,0,0,1-3,0c-.29-.06-.6.19-.89.13a3.64,3.64,0,0,0-1.43-.11,6,6,0,0,1-1.9.1c-.58-.06-1.16.09-1.74,0a4.14,4.14,0,0,0-1.26.19,1,1,0,0,1-.78-.2c-.2-.13-.44.09-.66.13s-.54.58-.77-.21c-.15.27-.34.08-.48.22s-.5-.12-.76,0-.11-.35-.18-.49-.13-.57-.21.08-.34.57-.53,0c-.08-.22-.14-.23-.2,0-.1.38-.2.45-.34.13,0-.1-.11-.18-.14,0-.22.83-.52.08-.77.3-.06.05-.11-.08-.12-.24,0-.44-.09-.42-.17-.17-.17.46-.39.4-.58.32-.62-.25-1.24,0-1.86-.25-.84-.29-1.68-.15-2.51-.36a4.35,4.35,0,0,0-1.44.12,1.05,1.05,0,0,1-1-.41c-.37-.44-.78-.28-1.17-.31-.14,0-.27,0-.38-.3a2.13,2.13,0,0,1-.13-1c0-.39.14-.77.31-.76s.57-.25.85-.54.58,0,.88,0,.51.08.77.12c0,0,.08,0,.12,0a.55.55,0,0,0,.12-.39c0-.2-.09-.14-.13-.13A4.79,4.79,0,0,1,515,177a11.37,11.37,0,0,1-1.09-.45.48.48,0,0,1-.2-.14,1.45,1.45,0,0,1-.28-1.17m38.4,4.05s0,0,0,0a.27.27,0,0,0,0-.12s-.05.06,0,.1m-.24-3.73v0s0,0,0,0m-1.69-1.25s0,0,0,0" fill="#ad7a4c"/>
  <path id="Path_479" data-name="Path 479" d="M610.93,242.83c0-.39.26-.76.46-.63s.51.11.75.39c.05.06.17.2.12-.11-.11-.7.17-.63.23-1,.1-.6.23-.13.36-.05s.24.23.36,0,.17-.13.23,0c.27.61.49,0,.71-.27s.29-.24.46-.15a6.74,6.74,0,0,0,2,.46c.48.09,1,0,1.42.14.18.05.28.4.45.38l.13,0c.26-.27.51-.67.78,0,.27-.38.53.5.8,0,0-.08.11-.1.16-.08a2.19,2.19,0,0,0,1.47.09c.09,0,.19,0,.25.27.42,0,.84-.43,1.27,0,.28.26.56.17.84.12a2,2,0,0,1,.77.07,1.16,1.16,0,0,0,.49,0c.33-.1.71-.34,1,0s.5.55.78.08c0,0,.13-.09.18.11s.14.28.21.2c.41-.43.86.1,1.24-.23s1,.14,1.45,0a1.63,1.63,0,0,1,1-.07,2,2,0,0,0,1.55-.15c.41-.2.84,0,1.26,0a.32.32,0,0,1,.32.24h0s0,0,0,.05.18-.26.26-.23c.75.24,1.5-.44,2.25,0,.2.12.36-.23.55-.23a5.22,5.22,0,0,0,2.41-.33c.21-.12.45-.07.65.26,0,.06.06.18.1.07.26-.74.59-.37.89-.41a15.77,15.77,0,0,0,3.34-.57,15.72,15.72,0,0,1,1.82-.49.68.68,0,0,1,.52.2c.31.22.31.2.17,1v0h0c.54-.23,1.06-.15,1.55.61a.82.82,0,0,1,.13.49,1.43,1.43,0,0,1,.08.22c.18.81.16.95-.17,1.19-.06,0-.17,0-.15.2s.11,0,.16,0,.26.24.38.36.5.15.73.42a.67.67,0,0,1,.22.63c0,.45-.07.87-.28.9s-.37.26-.55-.1c0,0-.07,0-.11.05h0c-.18.28-.4,0-.6.38a.86.86,0,0,0-.17.56c0,.68-.15,1-.42,1-.8.06-1.59.11-2.39.13a1.7,1.7,0,0,1-.93-.24c-.17-.1-.36.19-.55.22a25.16,25.16,0,0,1-3-.06c-.93.05-1.85.06-2.76.07-.54,0-1.09.22-1.63.19a20.57,20.57,0,0,1-3,0c-.28-.06-.59.18-.89.13a3.4,3.4,0,0,0-1.42-.11,6.36,6.36,0,0,1-1.9.1c-.58-.06-1.16.08-1.74,0a4.14,4.14,0,0,0-1.26.19,1,1,0,0,1-.79-.2c-.2-.14-.43.08-.65.13s-.55.58-.78-.22c-.15.28-.33.08-.48.22s-.5-.12-.75,0-.11-.35-.18-.48-.13-.57-.21.08-.35.56-.53,0c-.08-.22-.14-.24-.2,0-.1.38-.21.45-.34.13,0-.1-.11-.18-.15-.06-.22.84-.52.08-.77.3-.05,0-.1-.07-.11-.23,0-.45-.09-.42-.18-.18-.16.47-.38.4-.57.32-.62-.25-1.25,0-1.86-.25a24.22,24.22,0,0,0-2.52-.35,4,4,0,0,0-1.43.11,1.07,1.07,0,0,1-1-.41c-.36-.43-.77-.28-1.16-.31-.15,0-.28,0-.38-.3a2.11,2.11,0,0,1-.13-1c0-.4.14-.77.31-.76s.56-.25.85-.54.58,0,.88,0l.76.12c.05,0,.09,0,.12,0a.48.48,0,0,0,.13-.38c0-.2-.09-.14-.14-.14a4.56,4.56,0,0,1-1.9-.54c-.36-.12-.72-.29-1.08-.45a.48.48,0,0,1-.2-.14,1.44,1.44,0,0,1-.28-1.17m38.4,4.06s0,0,0,0a.28.28,0,0,0,0-.12s0,.05,0,.1m-.24-3.73v0a0,0,0,0,1,0,0m-1.69-1.25h0" fill="#6c6455"/>
  <path id="Path_481" data-name="Path 481" d="M591.21,220.87c0-.39.27-.76.46-.63s.52.11.76.39c.05.06.17.2.12-.11-.11-.7.17-.63.23-1,.1-.6.23-.13.36,0s.24.23.35,0,.18-.13.24,0c.27.61.49,0,.71-.27s.29-.24.46-.15a6.74,6.74,0,0,0,2,.46c.47.09,1,0,1.42.14.18.05.28.4.44.38l.14,0c.26-.27.51-.67.78-.05.27-.38.53.5.8,0,0-.08.11-.1.16-.08a2.18,2.18,0,0,0,1.47.09c.09,0,.19,0,.25.27.42,0,.84-.43,1.27,0,.27.26.56.17.84.12a2,2,0,0,1,.77.07,1.11,1.11,0,0,0,.48,0c.34-.1.72-.34,1,0s.5.55.78.08c0,0,.13-.09.17.11s.15.28.22.2c.41-.43.86.1,1.24-.23s1,.14,1.44,0a1.66,1.66,0,0,1,1-.07,2,2,0,0,0,1.55-.15c.41-.2.84,0,1.26,0a.32.32,0,0,1,.32.24s0,0,0,0h0s0,0,0,.05.18-.26.26-.23c.75.24,1.5-.44,2.25,0,.2.12.35-.23.55-.23a5.16,5.16,0,0,0,2.4-.33c.22-.12.46-.07.66.26,0,.06.06.18.1.07.26-.74.59-.37.89-.41a15.77,15.77,0,0,0,3.34-.57,16.11,16.11,0,0,1,1.81-.49.69.69,0,0,1,.53.2c.31.22.31.2.17,1v0h0c.54-.23,1.06-.15,1.55.61a.9.9,0,0,1,.13.49c0,.07,0,.14.08.22.17.81.16.95-.17,1.19-.06,0-.17,0-.15.2s.11,0,.16,0,.25.24.38.36.5.15.73.42a.67.67,0,0,1,.22.63c0,.45-.08.87-.29.9s-.36.26-.54-.1c0,0-.08,0-.11.05h0c-.19.28-.4,0-.6.38a.86.86,0,0,0-.17.56c0,.68-.15,1-.42,1-.8.06-1.59.11-2.39.13a1.68,1.68,0,0,1-.93-.24c-.17-.1-.36.19-.55.22a25.37,25.37,0,0,1-3-.06c-.92.05-1.84.06-2.76.07-.53,0-1.08.22-1.62.19a20.57,20.57,0,0,1-3,0c-.28-.06-.59.18-.89.13a3.4,3.4,0,0,0-1.42-.11,6.38,6.38,0,0,1-1.9.1c-.58-.06-1.16.08-1.74,0a4.14,4.14,0,0,0-1.26.19,1,1,0,0,1-.79-.2c-.2-.14-.43.08-.65.13s-.55.58-.78-.22c-.15.28-.33.08-.48.22s-.5-.12-.75,0-.11-.35-.18-.48-.13-.57-.22.08-.34.56-.52,0c-.08-.22-.14-.24-.2,0-.1.38-.21.45-.34.13,0-.1-.11-.18-.15-.06-.22.84-.52.08-.77.3,0,.05-.11-.07-.11-.23,0-.45-.09-.42-.18-.18-.17.47-.38.4-.57.32-.62-.25-1.25,0-1.86-.25a24.22,24.22,0,0,0-2.52-.35,4,4,0,0,0-1.43.11,1.07,1.07,0,0,1-1-.41c-.37-.43-.77-.28-1.17-.31-.14,0-.27,0-.37-.3a2.11,2.11,0,0,1-.14-1c0-.4.15-.77.32-.76s.56-.25.85-.54.58,0,.88,0l.76.12s.09,0,.12,0a.44.44,0,0,0,.12-.38c0-.2-.08-.14-.13-.14a4.56,4.56,0,0,1-1.9-.54c-.37-.12-.72-.29-1.09-.45a.66.66,0,0,1-.2-.14,1.48,1.48,0,0,1-.28-1.17m38.4,4.06s0,0,.06,0a.56.56,0,0,0,0-.12s0,0,0,.1m-.24-3.73v0m-1.7-1.25s0,0,0,0" fill="#c1b89c"/>
  <path id="Path_483" data-name="Path 483" d="M545,220.87c0-.39.27-.76.46-.63s.52.11.76.39c0,.06.17.2.12-.11-.11-.7.17-.63.23-1,.1-.6.23-.13.36,0s.24.23.35,0,.18-.13.24,0c.27.61.49,0,.71-.27s.29-.24.46-.15a6.74,6.74,0,0,0,2,.46c.47.09.95,0,1.42.14.18.05.28.4.44.38l.14,0c.26-.27.51-.67.78-.05.27-.38.53.5.8,0,.05-.08.11-.1.16-.08a2.18,2.18,0,0,0,1.47.09c.09,0,.19,0,.25.27.42,0,.84-.43,1.27,0,.27.26.56.17.84.12a2,2,0,0,1,.77.07,1.11,1.11,0,0,0,.48,0c.34-.1.72-.34,1,0s.5.55.78.08c0,0,.13-.09.17.11s.15.28.22.2c.41-.43.86.1,1.24-.23s1,.14,1.44,0a1.66,1.66,0,0,1,1-.07,2,2,0,0,0,1.55-.15c.41-.2.84,0,1.26,0a.32.32,0,0,1,.32.24s0,0,0,0h0l0,.05c.09-.09.18-.26.27-.23.75.24,1.5-.44,2.24,0,.2.12.36-.23.56-.23a5.13,5.13,0,0,0,2.39-.33c.22-.12.46-.07.66.26,0,.06.06.18.1.07.26-.74.59-.37.89-.41a15.77,15.77,0,0,0,3.34-.57,16.11,16.11,0,0,1,1.81-.49.69.69,0,0,1,.53.2c.31.22.31.2.17,1,0,0,0,0,0,0h0c.54-.23,1.06-.15,1.55.61a.82.82,0,0,1,.12.49.83.83,0,0,1,.08.22c.18.81.17.95-.16,1.19-.06,0-.18,0-.16.2s.11,0,.17,0,.25.24.38.36.5.15.72.42a.65.65,0,0,1,.23.63c0,.45-.08.87-.29.9s-.36.26-.54-.1c0,0-.08,0-.11.05h0c-.19.28-.4,0-.6.38a.86.86,0,0,0-.17.56c0,.68-.15,1-.42,1-.8.06-1.59.11-2.39.13a1.7,1.7,0,0,1-.93-.24c-.17-.1-.36.19-.55.22a25.37,25.37,0,0,1-3-.06c-.92.05-1.84.06-2.76.07-.53,0-1.08.22-1.62.19a20.57,20.57,0,0,1-3,0c-.28-.06-.59.18-.89.13a3.4,3.4,0,0,0-1.42-.11,6.38,6.38,0,0,1-1.9.1c-.58-.06-1.16.08-1.74,0a4.14,4.14,0,0,0-1.26.19,1,1,0,0,1-.79-.2c-.2-.14-.43.08-.65.13s-.55.58-.78-.22c-.15.28-.33.08-.48.22s-.5-.12-.75,0-.11-.35-.18-.48-.13-.57-.22.08-.34.56-.52,0c-.08-.22-.14-.24-.2,0-.1.38-.21.45-.34.13,0-.1-.11-.18-.15-.06-.22.84-.52.08-.77.3-.06.05-.11-.07-.11-.23,0-.45-.09-.42-.18-.18-.17.47-.38.4-.57.32-.62-.25-1.25,0-1.86-.25a24.22,24.22,0,0,0-2.52-.35,4,4,0,0,0-1.43.11,1.07,1.07,0,0,1-1-.41c-.37-.43-.77-.28-1.17-.31-.14,0-.27,0-.37-.3a2.11,2.11,0,0,1-.14-1c0-.4.15-.77.32-.76s.56-.25.85-.54.58,0,.88,0l.76.12s.09,0,.12,0a.44.44,0,0,0,.12-.38c0-.2-.08-.14-.13-.14a4.56,4.56,0,0,1-1.9-.54c-.37-.12-.72-.29-1.09-.45a.66.66,0,0,1-.2-.14,1.48,1.48,0,0,1-.28-1.17m38.4,4.06s0,0,.06,0a.56.56,0,0,0,0-.12s0,0,0,.1m-.24-3.73v0a0,0,0,0,0,0,0m-1.7-1.25s0,0,0,0" fill="#ad7a4c"/>
  <path id="Path_485" data-name="Path 485" d="M639,220.87c0-.39.27-.76.46-.63s.51.11.75.39c.06.06.18.2.13-.11-.12-.7.16-.63.22-1,.1-.6.24-.13.37,0s.23.23.35,0,.17-.13.23,0c.28.61.5,0,.72-.27s.28-.24.46-.15a6.6,6.6,0,0,0,2,.46c.47.09,1,0,1.42.14.17.05.28.4.44.38l.14,0c.25-.27.51-.67.77-.05.27-.38.54.5.81,0a.13.13,0,0,1,.16-.08,2.16,2.16,0,0,0,1.46.09c.09,0,.19,0,.26.27.42,0,.84-.43,1.26,0a.86.86,0,0,0,.85.12,2,2,0,0,1,.77.07,1.11,1.11,0,0,0,.48,0c.33-.1.71-.34,1,0s.5.55.78.08c0,0,.13-.09.18.11s.15.28.22.2c.41-.43.86.1,1.24-.23s1,.14,1.44,0a1.66,1.66,0,0,1,1-.07,2,2,0,0,0,1.55-.15c.4-.2.84,0,1.26,0a.32.32,0,0,1,.31.24h0a.08.08,0,0,1,0,.05c.09-.09.18-.26.27-.23.75.24,1.5-.44,2.25,0,.2.12.35-.23.55-.23a5.18,5.18,0,0,0,2.4-.33c.21-.12.45-.07.66.26,0,.06.06.18.1.07.25-.74.59-.37.88-.41a15.77,15.77,0,0,0,3.34-.57,16.28,16.28,0,0,1,1.82-.49.68.68,0,0,1,.52.2c.32.22.32.2.18,1,0,0,0,0,0,0h0c.54-.23,1.06-.15,1.54.61a.76.76,0,0,1,.13.49,1.43,1.43,0,0,1,.08.22c.18.81.16.95-.16,1.19-.06,0-.18,0-.16.2s.11,0,.17,0,.25.24.37.36.5.15.73.42a.68.68,0,0,1,.23.63c0,.45-.08.87-.29.9s-.37.26-.54-.1c0,0-.08,0-.12.05h0c-.18.28-.4,0-.6.38a.8.8,0,0,0-.16.56c0,.68-.15,1-.42,1-.8.06-1.6.11-2.39.13a1.68,1.68,0,0,1-.93-.24c-.18-.1-.37.19-.56.22a25.2,25.2,0,0,1-3-.06c-.92.05-1.84.06-2.76.07-.54,0-1.08.22-1.62.19a20.57,20.57,0,0,1-3,0c-.29-.06-.6.18-.89.13a3.42,3.42,0,0,0-1.42-.11,6.4,6.4,0,0,1-1.9.1c-.59-.06-1.17.08-1.75,0a4.08,4.08,0,0,0-1.25.19,1,1,0,0,1-.79-.2c-.2-.14-.44.08-.66.13s-.54.58-.77-.22c-.15.28-.34.08-.48.22s-.5-.12-.75,0-.12-.35-.19-.48-.12-.57-.21.08-.34.56-.53,0c-.07-.22-.14-.24-.2,0-.1.38-.2.45-.34.13,0-.1-.11-.18-.14-.06-.22.84-.52.08-.77.3-.06.05-.11-.07-.11-.23,0-.45-.09-.42-.18-.18-.17.47-.39.4-.58.32-.62-.25-1.24,0-1.86-.25a23.67,23.67,0,0,0-2.51-.35,4.12,4.12,0,0,0-1.44.11,1.06,1.06,0,0,1-1-.41c-.37-.43-.78-.28-1.17-.31-.14,0-.27,0-.38-.3a2.24,2.24,0,0,1-.13-1c0-.4.14-.77.31-.76s.57-.25.85-.54.59,0,.88,0,.51.08.77.12c0,0,.08,0,.12,0a.47.47,0,0,0,.12-.38c0-.2-.08-.14-.13-.14a4.52,4.52,0,0,1-1.9-.54,11.37,11.37,0,0,1-1.09-.45.56.56,0,0,1-.2-.14,1.44,1.44,0,0,1-.28-1.17m38.4,4.06s0,0,.06,0a.56.56,0,0,0,0-.12s0,0,0,.1m-.24-3.73v0m-1.7-1.25s0,0,0,0" fill="#ad7a4c"/>
  <path d="M777,490h-542c49.65-57.08,117.68-108.72,197-124.46,79.31-11.66,157.32-3.07,223.74,26.83q7.46,3.35,14.72,7.07,10.07,5.16,19.72,11c3.68,2.22,7.31,4.53,10.89,6.9a300.91,300.91,0,0,1,37.09,29.1q4.6,4.23,9,8.69A296.77,296.77,0,0,1,777,490Z" fill="#8ca7b1"/>
  <path d="M1146.63,473.65l-.21,16.35h-11.55q.15-22.22.29-44.42c0-24.58-.65-49.16-.44-73.73.18-21.2,1.31-42.39,1.74-63.6.1-5,.33-10.3-1.13-15l0,.08c1.78-5.75-1.5-12.5,1.1-18.09.14-1.56.21-3.13.21-4.69,0-.39,0-.77,0-1.15-.65-8.71.75-11,5.16-8.1,1,.64,2.25-.1,2.91,2l-.07.16.07-.06c3,5.9,1.54,13.19,1.6,19.8.23,32.41.09,64.83,0,97.24-.06,19.89-.41,39.8-.06,59.65.1,5.43.62,10.88.23,16.39C1146.49,462.19,1146.69,467.92,1146.63,473.65Z" fill="#2b2e34"/>
  <path d="M1171.17,490h-9.88q-.42-21.92-2.7-43.76c-1.46-14,2-28.06,1.82-42.11-.17-19.63-.17-39.28-1.48-58.88-1-13.92,1.48-27.78,0-41.67a15.17,15.17,0,0,0-1.29-5.25c-1.44-3,1.69-4.5,5.13-5.1,3.73-.65,4.71,1.36,4.76,3.42.2,8.54.1,17.09.55,25.62,1.18,22.26,1.84,44.53,1.73,66.8-.06,11.61-1.24,23.2-.67,34.82.72,14.61.7,29.23,1.23,43.85C1170.69,475.16,1171,482.58,1171.17,490Z" fill="#2b2e34"/>
  <path d="M1196,490H1186q-.7-12.28-2.09-24.53c-1.45-12.91,2-25.8,1.82-38.73-.17-18.05-.17-36.13-1.48-54.16-1-12.8,1.48-25.55.06-38.32a13.09,13.09,0,0,0-1.3-4.83c-1.44-2.74,1.69-4.13,5.14-4.69,3.72-.6,4.7,1.26,4.75,3.15.2,7.85.1,15.72.55,23.57,1.18,20.47,1.84,41,1.73,61.44-.06,10.68-1.24,21.34-.67,32,.73,13.44.7,26.89,1.23,40.34C1195.82,486.85,1195.89,488.42,1196,490Z" fill="#2b2e34"/>
  <path d="M1127.52,462.86c-.63,9-1.08,18.09-1.43,27.14h-9.31c.44-7.21.86-14.42,1.12-21.63a602.39,602.39,0,0,0-2.45-78.9c-1.44-15.19,2-30.37,1.83-45.58-.17-21.25-.16-42.52-1.48-63.73-1-15.07,1.48-30.08.06-45.11a17.4,17.4,0,0,0-1.3-5.68c-1.44-3.22,1.7-4.87,5.14-5.52,3.72-.71,4.7,1.47,4.75,3.7.2,9.24.1,18.5.55,27.73,1.18,24.09,1.84,48.19,1.74,72.29-.07,12.57-1.25,25.11-.68,37.7.73,15.82.7,31.64,1.23,47.46C1127.86,429.44,1128.69,446.12,1127.52,462.86Z" fill="#2b2e34"/>
  <path d="M1050.43,420c-1.6,22.89-2,45.83-2.66,68.75l0,1.23H1038c-.18-21.53,2-43,2.82-64.47a602.45,602.45,0,0,0-2.45-78.9c-1.44-15.19,2-30.37,1.83-45.58-.17-21.25-.16-42.51-1.48-63.73-.94-15.07,1.48-30.07.06-45.11a17.4,17.4,0,0,0-1.3-5.68c-1.43-3.22,1.7-4.87,5.14-5.52,3.73-.71,4.71,1.48,4.76,3.7.2,9.24.1,18.5.54,27.74,1.19,24.09,1.84,48.18,1.74,72.29-.07,12.56-1.25,25.11-.67,37.7.72,15.81.7,31.63,1.23,47.45C1050.77,386.6,1051.61,403.28,1050.43,420Z" fill="#2b2e34"/>
  <path d="M1012.86,405.18c-1.6,22.89-2,45.83-2.66,68.75-.14,5.35-.15,10.71-.14,16.07h-9.62c.11-3.32.15-6.63.06-9.95-.61-23.17,1.91-46.24,2.74-69.35a602.54,602.54,0,0,0-2.45-78.91c-1.44-15.19,2-30.37,1.83-45.57-.16-21.25-.16-42.52-1.48-63.74-.94-15.06,1.48-30.07.06-45.1a17.64,17.64,0,0,0-1.29-5.69c-1.44-3.22,1.69-4.86,5.13-5.52,3.73-.7,4.71,1.48,4.76,3.7.2,9.25.1,18.5.54,27.74,1.19,24.09,1.85,48.19,1.74,72.29-.06,12.57-1.25,25.11-.67,37.7.72,15.81.7,31.64,1.23,47.45C1013.2,371.77,1014,388.44,1012.86,405.18Z" fill="#2b2e34"/>
  <path d="M981.07,395.49c-1.6,22.88-2,45.82-2.66,68.74-.24,8.59-.12,17.18-.13,25.77H968.15c.43-6.55.73-13.1.56-19.65-.61-23.17,1.9-46.24,2.74-69.35A604.13,604.13,0,0,0,969,322.1c-1.45-15.2,2-30.38,1.82-45.58-.17-21.25-.17-42.52-1.48-63.74-1-15.06,1.48-30.07.06-45.1a17.34,17.34,0,0,0-1.3-5.68c-1.44-3.22,1.69-4.87,5.14-5.52,3.72-.71,4.7,1.47,4.75,3.7.2,9.24.1,18.5.55,27.73,1.18,24.09,1.84,48.19,1.73,72.29-.06,12.57-1.24,25.11-.67,37.7.73,15.82.7,31.64,1.23,47.46C981.4,362.07,982.24,378.75,981.07,395.49Z" fill="#2b2e34"/>
  <path d="M906.11,389.42c-1.6,22.89-2,45.83-2.66,68.75-.29,10.61-.05,21.23-.17,31.83H892.77c.62-8.57,1.21-17.15,1-25.71-.61-23.17,1.9-46.24,2.74-69.35A602.54,602.54,0,0,0,894,316c-1.45-15.19,2-30.37,1.83-45.57-.17-21.25-.17-42.52-1.48-63.74-.95-15.06,1.48-30.07.05-45.1a17.13,17.13,0,0,0-1.29-5.69c-1.44-3.22,1.69-4.86,5.13-5.51,3.73-.71,4.71,1.47,4.76,3.7.2,9.24.1,18.5.55,27.73,1.18,24.09,1.84,48.19,1.73,72.29-.06,12.57-1.24,25.11-.67,37.7.72,15.81.7,31.64,1.23,47.45C906.44,356,907.28,372.69,906.11,389.42Z" fill="#2b2e34"/>
  <path d="M867.6,395.49c-1.6,22.88-2,45.82-2.66,68.74-.24,8.59-.12,17.18-.13,25.77H854.68c.43-6.55.73-13.1.56-19.65-.61-23.17,1.9-46.24,2.74-69.35a602.54,602.54,0,0,0-2.45-78.91c-1.44-15.19,2-30.37,1.83-45.57-.17-21.25-.17-42.52-1.48-63.74-1-15.06,1.48-30.07.06-45.1a17.34,17.34,0,0,0-1.3-5.68c-1.44-3.22,1.69-4.87,5.14-5.52,3.72-.71,4.7,1.47,4.75,3.7.2,9.24.1,18.5.55,27.73,1.18,24.09,1.84,48.19,1.73,72.29-.06,12.57-1.24,25.11-.67,37.7.73,15.82.7,31.64,1.23,47.46C867.94,362.07,868.77,378.75,867.6,395.49Z" fill="#2b2e34"/>
  <path d="M831.65,409.3v0l.05,0Z" fill="#2b2e34"/>
  <path d="M831.81,372c-.5-8.4-.45-16.87-.4-25.26.09-13.59-.21-27.18,0-40.77.11-7.37-.23-14.77.1-22.12.4-8.79-.29-17.54.14-26.32.3-6.11-.15-12.23-.22-18.34-.11-9.41.19-18.81-.37-28.22-.17-2.95-.89-6.06-.16-9a29.36,29.36,0,0,0,.48-8.82,54.71,54.71,0,0,1,.65-11,60.72,60.72,0,0,0,.42-12.64c-.12-2-.77-2.77-1.75-3.24-2-1-4,1.35-4.39,5.09a12.62,12.62,0,0,1-.62,3.9c-.63-1.12-.49-2.59-.7-3.9-.33-2-.84-4.12-2.33-4.35s-2.45,1-3.33,2.63a7.5,7.5,0,0,0-.49,3.6,14,14,0,0,1-.83,5.87,9.21,9.21,0,0,0-.34,4.14q.33,7.27.11,14.55c-.33,10.71.69,21.37.38,32.1-.18,6.24.35,12.58.24,18.77-.13,6.77.11,13.46.22,20.19,0,3.11-.22,6.31.6,9.31-1.59,6-.12,12.19-.61,18.37-.68,8.4.8,16.87,0,25.57-.52,6,.11,12.42-.08,18.67-.34,11.4.45,22.75.1,34.19-.32,10.47-.16,21-.59,31.47-.45,10.92-.6,21.87-1,32.8-.61,16.91-.94,33.84-1.33,50.77h14.37a2.36,2.36,0,0,1,0-1.3c.88-3.43.54-7.08.58-10.67,0-3.41,1.57-6.86-.13-10.24-.13-.27.27-1.13.29-1.73.13-4.47,1.93-9-.13-13.45a6.11,6.11,0,0,1,.24-2.25,17.41,17.41,0,0,0,.49-4.13h0a4,4,0,0,0,.35-2.52,78.08,78.08,0,0,1-.26-13.59c.06-1.47.54-2.83.17-4.45-.64-2.81-1.39-5.58-.06-8.68.48-1.14,0-3.05-.67-4.36,0-1.24-.06-2.53.72-3.35-.16-2.1.85-4.21,0-6.31-.22-.18-.55-.28-.41-.82h0c0-.17.31-.19.48-.28.66-5.42-.55-10.75.11-16.4A80.2,80.2,0,0,0,831.81,372Zm-.5,74.23-.61-.29C831.1,445.21,831.18,445.81,831.31,446.18Z" fill="#2b2e34"/>
  <path d="M952.88,281.91c-.16,16.42-1.27,32.87-.83,49.25q.39,14.7-.53,29.22c-.63,10.06-.73,20.12-1.13,30.17-.24,6.27-.57,12.59.15,18.86,0,5.48-.16,11,0,16.45.38,16.19-.25,32.36-.55,48.54-.1,5.2-.14,10.4-.17,15.6H937.06c.08-5,.18-10.08.19-15.12,0-18.57-1-37.13-.3-55.68.47-12.43,1-24.85.95-37.29,0-8.9-.33-17.8-.27-26.7.1-13.83,0-27.65-.15-41.48-.1-12.69.07-25.39.8-38.11.73-12.45,1.23-25.05-.25-37.54-.18-1.51.76-3.06-.18-4.49v0l-.39-1c.7-5-.26-9.94-.25-14.92,0-10.37-.87-20.68.33-31.14a79.6,79.6,0,0,0,.25-16c-.38-4.4.83-9.7-.27-14-1.35-5.31,1.43-5.08,3.81-6.05a2.89,2.89,0,0,1,2.55.35c2.18,1.12,3.84,3.44,6.76,2.89,1.66-.32,1.42,2.46,1.52,3.91,1.7,24.6.93,49.22.66,73.85C952.62,248.26,953,265.09,952.88,281.91Z" fill="#2b2e34"/>
  <path d="M747.6,450.2c-.12,1.65-.22,3.29-.33,4.94-.73,11.61-1.18,23.24-1.53,34.86h-9.65c.65-11.42,1.47-22.85,1.89-34.28q.16-4.64.25-9.27a604.19,604.19,0,0,0-2.7-69.64c-1.45-15.19,2-30.37,1.83-45.58-.17-21.25-.17-42.51-1.48-63.73-1-15.06,1.48-30.07,0-45.1a17.13,17.13,0,0,0-1.29-5.69c-1.44-3.22,1.69-4.86,5.13-5.52,3.73-.7,4.71,1.48,4.76,3.7.2,9.25.1,18.5.55,27.74,1.18,24.09,1.84,48.18,1.73,72.29-.06,12.57-1.24,25.11-.67,37.7.72,15.81.7,31.63,1.23,47.45C747.93,416.78,748.77,433.46,747.6,450.2Z" fill="#2b2e34"/>
  <path d="M702.73,490H692.9a599.69,599.69,0,0,0-2.79-60.23,112.31,112.31,0,0,1,.14-19.32c.66-8.75,1.75-17.5,1.68-26.26-.16-21.25-.16-42.52-1.48-63.74-.94-15.06,1.48-30.07.06-45.1a17.58,17.58,0,0,0-1.29-5.68c-1.44-3.22,1.69-4.87,5.13-5.52,3.73-.71,4.71,1.47,4.76,3.7.2,9.24.1,18.5.54,27.73,1.19,24.09,1.85,48.19,1.74,72.29-.06,12.57-1.25,25.11-.67,37.7.18,3.93.31,7.85.42,11.78.32,11.89.41,23.79.81,35.68C702.36,465.36,702.93,477.67,702.73,490Z" fill="#2b2e34"/>
  <path d="M668.44,457.59a2.08,2.08,0,0,0-.24,1.2c2.11,8.12-1.68,16.67-.08,24.17a38.5,38.5,0,0,1,.83,7H654c0-.09-.07-.17-.11-.26h0c1.43-5.28-.94-10.18-.44-15.49.83-8.93.07-18.15,2.17-26.89a8.09,8.09,0,0,0-.19-4c-1.14-3.2-.75-6.22.08-9.3a21.73,21.73,0,0,0,.36-11.12c-.71-2.85-1.36-5.67.2-8.46a3.23,3.23,0,0,0,.36-1.78c-2.7-4.9-.2-10.8-1.17-16l0,.07c.26-1.45.44-2.91.56-4.38.81-9.85-1.06-20,1.52-29.93a22.36,22.36,0,0,0-1.47-14.08c-1.05-2.07,1.18-11.75,3.29-13.69s3.27.9,4.54,2.9l0,0c5.16,5.26,8.55,11.71,7.42,22.6-.61,6,1.48,12.13.57,18.53-.67,4.66-.45,9.63-1.86,14.09-.12.38-.42.92-.35,1.12a19,19,0,0,1,1,5.51c.22,3.86-.35,7.83-.19,11.69a54.41,54.41,0,0,1,.31,6.38,23.62,23.62,0,0,0,.92,8.85c1.14,4.05,1.27,8.54-2.07,11.73-1.13,1.09-1.52,5.17-.7,8C670,450.06,670.43,453.86,668.44,457.59Z" fill="#2b2e34"/>
  <path d="M797.52,312.5c-.16,16.43-1.27,32.87-.84,49.26q.41,14.7-.52,29.21c-.63,10.06-.73,20.12-1.13,30.18-.24,6.25-.57,12.58.15,18.85,0,5.49-.16,11,0,16.45.27,11.2.05,22.37-.21,33.55h-13.2c-.25-13.41-.66-26.81-.15-40.21.46-12.43,1-24.85.95-37.29,0-8.9-.33-17.8-.27-26.7.09-13.82,0-27.65-.15-41.47-.11-12.69.06-25.39.8-38.11.73-12.46,1.22-25.06-.25-37.54-.18-1.52.75-3.06-.18-4.49v.05l-.39-1,0,.05c.73-5-.24-10-.23-15,0-10.38-.88-20.68.32-31.14a78.89,78.89,0,0,0,.26-16c-.39-4.4.83-9.7-.27-14-1.35-5.3,1.43-5.07,3.81-6.05a3,3,0,0,1,2.55.35c2.18,1.13,3.84,3.44,6.75,2.89,1.67-.31,1.43,2.47,1.53,3.92,1.7,24.59.93,49.22.66,73.84C797.26,278.86,797.68,295.69,797.52,312.5Z" fill="#2b2e34"/>
  <path d="M1092,335.61c-.16,16.42-1.27,32.87-.83,49.25q.39,14.7-.53,29.21c-.63,10.06-.73,20.13-1.13,30.18-.24,6.27-.57,12.58.15,18.86,0,5.48-.16,11,0,16.44q.12,5.24.12,10.45h-13.92c0-5.7,0-11.41.23-17.11.47-12.42,1-24.84,1-37.28,0-8.9-.33-17.8-.27-26.7.1-13.83,0-27.65-.15-41.48-.1-12.69.07-25.39.8-38.11.73-12.45,1.23-25.06-.25-37.54-.18-1.51.76-3.06-.18-4.49v0l-.39-1c.7-5-.26-9.95-.25-14.92,0-10.37-.87-20.68.33-31.14a79.62,79.62,0,0,0,.25-16c-.38-4.4.83-9.7-.27-14-1.35-5.31,1.43-5.08,3.81-6a2.92,2.92,0,0,1,2.55.34c2.18,1.13,3.84,3.44,6.76,2.89,1.66-.31,1.42,2.47,1.52,3.92,1.7,24.59.93,49.22.66,73.85C1091.73,302,1092.15,318.79,1092,335.61Z" fill="#2b2e34"/>
  <path id="Path_506" data-name="Path 506" d="M774.81,305.62a.81.81,0,0,1-.28,1.1,7.62,7.62,0,0,1-1.42.73c-.12,0-.4.08-.12.25.64.37.15.7.29,1,.25.59-.26.42-.52.53s-.52.15-.57.46a.33.33,0,0,1-.35.32c-.83-.08-.74.7-.92,1.17a1.26,1.26,0,0,1-.62.74,25.32,25.32,0,0,0-3.42,2.4c-.79.57-1.48,1.26-2.29,1.81-.3.2-.7.09-.93.32l-.24.17c-.21.55-.34,1.2-1.16,1.08-.17.66-1.16.35-1.27,1.08a.38.38,0,0,1-.2.26,9.32,9.32,0,0,0-2.32,1.92.5.5,0,0,1-.57.15c-.68.54-1,1.46-1.93,1.74a3.38,3.38,0,0,0-1.38,1.07,9.13,9.13,0,0,1-1.24,1,4.21,4.21,0,0,0-.73.67c-.44.52-.87,1.21-1.52,1.36s-1.14.27-1.25,1a.27.27,0,0,1-.35.16h0a.34.34,0,0,0-.46.12v0c-.35.88-1.39,1.09-1.76,1.86-.48,1-1.58,1.2-2.22,2a6.78,6.78,0,0,1-1.51,1.42,7.82,7.82,0,0,0-2.29,2.22,9.36,9.36,0,0,1-2,1.7.84.84,0,0,1-.64.25v0h-.07c-.08.18-.11.44-.26.53-1.31.84-2,2.37-3.47,3.06-.38.18-.4.65-.7.92a20.58,20.58,0,0,0-3.48,3.5,1.53,1.53,0,0,1-1.19.7c-.09,0-.21-.06-.2.07.1.91-.66,1.08-1.09,1.51a65.84,65.84,0,0,0-4.78,5c-.8,1-1.63,1.92-2.49,2.84a2.63,2.63,0,0,1-.93.57c-.63.25-.62.27-.94-.54h0a3.75,3.75,0,0,1-2.79,1.64.58.58,0,0,1-.52-.2l-.27-.06c-.82-.36-.87-.49-.53-1.11.06-.12.28-.23.11-.37s-.17.16-.25.25-.55.16-.81.24c-.52.15-.87.56-1.4.67-.26.06-.53.17-.77-.17s-.45-.75-.15-1.06.4-.7.91-.66c.06,0,.1-.13.15-.2h0c.1-.45.61-.56.67-1.1,0-.25.11-.36-.12-.64-.43-.53-.42-.93,0-1.32,1.19-1.12,2.39-2.25,3.6-3.34a6.83,6.83,0,0,1,1.59-1.07c.34-.16.44-.64.71-.92,1.45-1.49,3.17-2.66,4.69-4.06s2.8-2.54,4.21-3.8c.83-.73,1.54-1.63,2.38-2.34,1.6-1.34,3-2.89,4.71-4.11.49-.34.8-.94,1.29-1.3a14.89,14.89,0,0,0,2.26-1.84,25,25,0,0,1,2.88-2.66c.94-.75,1.74-1.65,2.68-2.39A17.66,17.66,0,0,0,746.1,322a3.78,3.78,0,0,1,1.34-.92c.4-.17.62-.65.93-1s.46-1.18,1.34-.89c0-.41.47-.52.6-.82.23-.54.85-.6,1.14-1.05.15-.25.4.1.6.12s.57.25.27-.35.16-.89.79-.75c.27.06.38,0,.33-.25-.09-.42,0-.61.44-.56.13,0,.29,0,.26-.15-.21-.93.75-.77,1-1.27.06-.12.22-.1.33,0,.31.31.42.19.39-.11-.05-.58.33-.82.68-1,1.12-.66,2-1.66,3-2.34,1.48-.92,2.68-2.17,4.11-3.15a17.21,17.21,0,0,0,2.14-2,3.66,3.66,0,0,1,1.87-1.1,4.81,4.81,0,0,0,2-1.35.9.9,0,0,1,.79-.29,1.18,1.18,0,0,1,.85.57c.19.35.28.77,0,1a3.82,3.82,0,0,0-1,1.56c-.22.54-.87.82-1.34,1.2s-.84.63-1.27.95c-.06.05-.15.09-.18.16a.39.39,0,0,0,0,.45c.14.14.23,0,.3-.08a18.67,18.67,0,0,1,3.3-2.18c.64-.4,1.31-.76,2-1.13a1.52,1.52,0,0,1,.4-.16,1,1,0,0,1,1.21.5m-62,49.1a.15.15,0,0,0-.1.06s.1.05.13,0,0-.1,0-.1m2.85,2.47,0,0,0,0v0m3.43-1.36h0" fill="#2b2e34"/>
  <path id="Path_508" data-name="Path 508" d="M765,356.86a.75.75,0,0,1-1-.18h0a6.52,6.52,0,0,1-.7-1.3c0-.12-.09-.37-.25-.09-.35.63-.67.2-1,.36-.57.28-.4-.22-.51-.46s-.15-.48-.44-.5a.3.3,0,0,1-.31-.29v0c.07-.8-.68-.64-1.14-.78a1.09,1.09,0,0,1-.71-.53,21.87,21.87,0,0,0-2.32-3.09c-.56-.71-1.23-1.31-1.77-2-.2-.27-.08-.66-.31-.87l-.16-.21c-.53-.16-1.15-.24-1-1-.64-.1-.35-1.08-1-1.13a.37.37,0,0,1-.26-.16,7.5,7.5,0,0,0-1.86-2.07.45.45,0,0,1-.14-.53c-.53-.61-1.42-.86-1.69-1.71a3,3,0,0,0-1-1.24,6.7,6.7,0,0,1-1-1.1,3.58,3.58,0,0,0-.65-.64c-.51-.39-1.18-.75-1.32-1.36s-.26-1.07-1-1.12a.23.23,0,0,1-.16-.29s0,0,0,0c.09-.22,0-.39-.14-.44-.85-.26-1.06-1.24-1.8-1.53-1-.38-1.16-1.42-1.91-2a5.58,5.58,0,0,1-1.37-1.33,6.67,6.67,0,0,0-2.15-2,8.21,8.21,0,0,1-1.64-1.74.71.71,0,0,1-.24-.59h0v-.06c-.17-.07-.42-.08-.51-.21-.81-1.19-2.29-1.75-3-3.08-.18-.35-.63-.33-.9-.59a17.19,17.19,0,0,0-3.38-3.05,1.3,1.3,0,0,1-.67-1.08c0-.09.05-.2-.08-.18-.87.16-1-.55-1.46-.93a54.31,54.31,0,0,0-4.8-4.17c-.95-.69-1.86-1.42-2.75-2.16a2.4,2.4,0,0,1-.55-.85c-.24-.58-.26-.57.51-.94h0a3.26,3.26,0,0,1-1.59-2.54.61.61,0,0,1,.19-.51,1.28,1.28,0,0,1,0-.27c.35-.81.47-.87,1.07-.6.12.06.22.26.35.08s-.14-.15-.23-.22-.16-.51-.23-.76c-.15-.49-.55-.78-.66-1.29-.05-.24-.16-.49.16-.75s.73-.49,1-.23.67.33.64.82c0,.06.12.08.19.12h0c.43.06.54.54,1,.56.25,0,.35.07.62-.17.52-.45.9-.47,1.27-.11,1.09,1,2.18,2.1,3.24,3.18a5.52,5.52,0,0,1,1,1.44c.16.31.62.36.9.61,1.45,1.26,2.57,2.81,3.93,4.15s2.46,2.48,3.68,3.73c.71.73,1.58,1.34,2.26,2.09,1.3,1.43,2.8,2.65,4,4.18.34.44.92.69,1.27,1.13a12.63,12.63,0,0,0,1.77,2,22.11,22.11,0,0,1,2.58,2.54c.72.84,1.59,1.53,2.31,2.37a14.23,14.23,0,0,0,1.79,1.59,3.27,3.27,0,0,1,.89,1.22c.16.37.63.54.95.81s1.13.34.86,1.21c.4,0,.5.4.79.5.52.18.58.77,1,1,.24.12-.1.4-.11.58s-.24.57.34.24.86.07.72.7c-.06.26,0,.36.24.29.41-.12.6,0,.54.38,0,.12,0,.28.15.24.89-.28.75.65,1.23.84.11.05.09.2,0,.32-.3.32-.18.41.11.37a.9.9,0,0,1,1,.56c.63,1,1.61,1.73,2.26,2.72.89,1.34,2.1,2.39,3.05,3.68a14.65,14.65,0,0,0,2,1.89,3.11,3.11,0,0,1,1.07,1.7c.17.8.82,1.26,1.31,1.81a.79.79,0,0,1,.28.73,1.29,1.29,0,0,1-.54.87c-.34.2-.74.33-1,.09a3.32,3.32,0,0,0-1.5-.8c-.52-.17-.8-.77-1.16-1.2s-.62-.75-.93-1.13c-.05-.06-.08-.14-.15-.16a.39.39,0,0,0-.44.09c-.13.14,0,.21.08.27a15.47,15.47,0,0,1,2.11,3c.39.59.74,1.2,1.1,1.8a1.34,1.34,0,0,1,.16.37,1,1,0,0,1-.48,1.19m-47.56-55.37s0-.06-.06-.08,0,.1,0,.13.1,0,.1,0m-2.37,2.92,0,0,.05,0h0m1.32,3.18h0" fill="#2b2e34"/>
</svg>
