<svg id="Layer_1" data-name="Layer 1" xmlns="http://www.w3.org/2000/svg" viewBox="0 0 1440 490">
  <path d="M1315.56,447.33q-.13,21.33-.29,42.67h13.18l.15-11.78c.07-6.3-.16-12.61-.26-18.92.44-6.06-.16-12.05-.26-18-.4-21.86,0-43.77.07-65.67.12-35.68.28-71.37,0-107-.06-7.27,1.58-15.29-1.81-21.79l-.08.06.08-.17c-.75-2.32-2.19-1.51-3.3-2.21-5-3.21-6.6-.68-5.86,8.91a58,58,0,0,1-.22,6.43h0c-3,6.14.77,13.58-1.25,19.91l0-.09c1.66,5.19,1.4,11,1.29,16.54-.49,23.34-1.77,46.67-2,70C1314.83,393.21,1315.58,420.27,1315.56,447.33Z" fill="#9e947f"/>
  <path d="M1342.63,291c1.61,15.29-1.14,30.55-.07,45.87,1.49,21.58,1.49,43.21,1.68,64.82.15,15.47-3.71,30.9-2.07,46.35q2.24,21,2.92,41.95h11.21c-.19-6.09-.46-12.18-.69-18.28-.6-16.08-.57-32.18-1.39-48.26-.65-12.8.69-25.56.76-38.34.12-24.51-.63-49-2-73.52-.51-9.4-.4-18.81-.62-28.21-.06-2.27-1.17-4.49-5.4-3.77-3.91.67-7.47,2.34-5.83,5.62A16.28,16.28,0,0,1,1342.63,291Z" fill="#9e947f"/>
  <path d="M1371.4,324.79c1.62,14.06-1.14,28.09-.06,42.19,1.49,19.84,1.49,39.74,1.68,59.61.15,14.23-3.72,28.42-2.07,42.63q1.2,10.39,2,20.78h11.44c-.56-14.46-.55-28.92-1.35-43.38-.65-11.78.69-23.51.76-35.26.12-22.56-.63-45.1-2-67.64-.51-8.64-.4-17.3-.62-26-.06-2.08-1.17-4.12-5.4-3.46-3.91.61-7.47,2.15-5.83,5.16A13.86,13.86,0,0,1,1371.4,324.79Z" fill="#9e947f"/>
  <path d="M1293.65,215.58c1.62,16.55-1.14,33.07-.06,49.65,1.49,23.36,1.49,46.77,1.68,70.16.14,16.74-3.72,33.45-2.07,50.17a643.11,643.11,0,0,1,2.77,86.86c-.22,5.86-.54,11.72-.89,17.58h10.45c.36-7.89.8-15.78,1.37-23.66,1.33-18.42.38-36.78-.26-55.18-.61-17.41-.58-34.83-1.4-52.24-.64-13.85.7-27.66.77-41.49.12-26.54-.63-53.06-2-79.58-.51-10.17-.4-20.35-.63-30.53-.05-2.45-1.16-4.85-5.4-4.08-3.9.72-7.46,2.54-5.83,6.08A18.37,18.37,0,0,1,1293.65,215.58Z" fill="#9e947f"/>
  <path d="M1206.11,168.42c1.61,16.55-1.14,33.07-.06,49.66,1.49,23.35,1.48,46.76,1.67,70.15.15,16.74-3.71,33.45-2.07,50.17a641.59,641.59,0,0,1,2.78,86.86c-.81,21.59-3,43.13-3.2,64.74h11.24c.65-23.61,1.19-47.24,2.89-70.81,1.33-18.43.38-36.79-.26-55.18-.61-17.41-.58-34.84-1.4-52.24-.65-13.86.69-27.66.76-41.5.13-26.53-.62-53.06-2-79.58-.51-10.16-.4-20.35-.63-30.53,0-2.45-1.17-4.85-5.4-4.07-3.91.72-7.46,2.53-5.83,6.07A18.72,18.72,0,0,1,1206.11,168.42Z" fill="#9e947f"/>
  <path d="M1163.45,152.09c1.61,16.55-1.14,33.07-.07,49.65,1.49,23.36,1.49,46.77,1.68,70.16.15,16.74-3.72,33.45-2.07,50.17a644.81,644.81,0,0,1,2.78,86.86c-1,25.45-3.81,50.84-3.12,76.34,0,1.58.06,3.15.06,4.73h10.8c0-3.83,0-7.65.16-11.46.71-25.23,1.21-50.49,3-75.68,1.34-18.43.38-36.79-.26-55.19-.6-17.41-.57-34.83-1.39-52.23-.65-13.86.69-27.66.76-41.5.12-26.53-.63-53.06-2-79.58-.51-10.17-.4-20.35-.62-30.53-.06-2.45-1.17-4.85-5.4-4.07-3.91.72-7.47,2.53-5.83,6.07A18.85,18.85,0,0,1,1163.45,152.09Z" fill="#9e947f"/>
  <path d="M1127.34,141.42c1.61,16.54-1.14,33.06-.06,49.65,1.49,23.35,1.48,46.76,1.67,70.15.15,16.75-3.71,33.46-2.07,50.18a641.48,641.48,0,0,1,2.78,86.86c-1,25.44-3.8,50.83-3.11,76.33.14,5.13,0,10.27-.26,15.41h11.12c0-7.38-.05-14.76.16-22.14.71-25.23,1.2-50.48,3-75.68,1.33-18.42.38-36.78-.26-55.18-.61-17.41-.58-34.83-1.4-52.24-.65-13.85.69-27.66.76-41.49.13-26.54-.62-53.06-2-79.58-.5-10.17-.39-20.36-.62-30.53,0-2.45-1.17-4.86-5.4-4.08-3.91.72-7.46,2.53-5.83,6.08A18.61,18.61,0,0,1,1127.34,141.42Z" fill="#9e947f"/>
  <path d="M1042.21,134.74c1.62,16.55-1.14,33.07-.06,49.65,1.49,23.36,1.49,46.77,1.68,70.16.15,16.74-3.72,33.45-2.07,50.17a643.21,643.21,0,0,1,2.77,86.86c-1,25.45-3.8,50.84-3.11,76.34.2,7.36-.16,14.72-.65,22.08h11.51c0-9.6-.11-19.21.16-28.81.71-25.23,1.2-50.49,3-75.68,1.33-18.43.38-36.79-.26-55.18-.6-17.41-.57-34.84-1.4-52.24-.64-13.86.7-27.66.77-41.5.12-26.53-.63-53.06-2-79.58-.51-10.16-.4-20.35-.62-30.53-.06-2.45-1.17-4.85-5.4-4.07-3.91.72-7.47,2.53-5.84,6.07A18.48,18.48,0,0,1,1042.21,134.74Z" fill="#9e947f"/>
  <path d="M998.48,141.42c1.62,16.54-1.14,33.06-.06,49.65,1.49,23.35,1.49,46.76,1.68,70.15.14,16.75-3.72,33.46-2.07,50.18a643.11,643.11,0,0,1,2.77,86.86c-.95,25.44-3.8,50.83-3.11,76.33.14,5.13,0,10.27-.25,15.41h11.11c0-7.38,0-14.76.16-22.14.71-25.23,1.2-50.48,3-75.68,1.33-18.42.38-36.78-.26-55.18-.61-17.41-.57-34.83-1.4-52.24-.64-13.85.7-27.66.77-41.49.12-26.54-.63-53.06-2-79.58-.51-10.17-.4-20.36-.63-30.53,0-2.45-1.16-4.86-5.4-4.08-3.9.72-7.46,2.53-5.83,6.08A18.37,18.37,0,0,1,998.48,141.42Z" fill="#9e947f"/>
  <path d="M970.94,407.3l-.05.05v0Z" fill="#9e947f"/>
  <path d="M953,487.53h0c.13-5.12.24-10.24.37-15.37.14-5.58.28-11.16.45-16.73q.23-7.55.5-15.07l.06-1.8c.41-11.44.59-22.89,1.07-34.31s.31-23.12.67-34.64c.39-12.59-.5-25.09-.11-37.63.21-6.88-.5-13.95.08-20.56.85-9.58-.82-18.9-.06-28.14.57-6.8-1.09-13.65.71-20.24-.94-3.29-.62-6.81-.68-10.25-.13-7.4-.41-14.77-.26-22.22.13-6.81-.47-13.79-.27-20.66.36-11.81-.81-23.54-.43-35.33q.25-8-.13-16a9.91,9.91,0,0,1,.4-4.55,15.22,15.22,0,0,0,.94-6.46,8,8,0,0,1,.55-4c1-1.8,2.26-3.12,3.78-2.89,1.69.26,2.28,2.55,2.65,4.79.24,1.45.08,3.06.79,4.3a13.15,13.15,0,0,0,.71-4.3c.39-4.12,2.67-6.67,5-5.6,1.12.52,1.86,1.34,2,3.57a64.57,64.57,0,0,1-.48,13.9,58.7,58.7,0,0,0-.73,12.12,31.42,31.42,0,0,1-.55,9.71c-.82,3.19,0,6.61.19,9.86.63,10.36.29,20.72.41,31.07.08,6.73.59,13.46.25,20.18-.48,9.67.29,19.3-.16,29-.37,8.09,0,16.24-.11,24.35-.22,15,.12,29.92,0,44.88-.06,9.23-.11,18.56.45,27.81a86.07,86.07,0,0,1,0,14.88c-.75,6.21.63,12.07-.12,18-.19.09-.51.11-.55.3-.16.59.21.7.46.9.93,2.31-.21,4.63,0,6.94-.92.92-.8,2.4-.82,3.81v-.11c.72,1.44,1.3,3.54.75,4.79-1.5,3.42-.66,6.47.07,9.56.42,1.78-.13,3.28-.19,4.9a83,83,0,0,0,.29,15,4.3,4.3,0,0,1-.38,2.77h0a19,19,0,0,1-.55,4.55,6.32,6.32,0,0,0-.28,2.48c2.13,4.46.63,9,.22,13.47,0,.44-.07.89-.08,1.33,0,.66-.47,1.61-.32,1.91,1.93,3.72.19,7.52.15,11.27,0,2.31.09,4.65,0,6.95H953C953,489.18,953,488.35,953,487.53ZM970.51,448c-.15-.41-.24-1.08-.7-.32Z" fill="#9e947f"/>
  <path d="M1090.83,479.59c0,3.47-.06,6.94-.12,10.41h14.41q0-5.47.15-10.95c.34-17.81,1.06-35.61.62-53.43-.15-6,0-12,0-18.06-.81-6.92-.44-13.9-.17-20.81.45-11.06.56-22.14,1.28-33.21q1-16,.6-32.17c-.5-18,.76-36.13.94-54.21.18-18.51-.29-37-.07-55.55.31-27.1,1.18-54.22-.75-81.29-.11-1.59.16-4.66-1.73-4.31-3.31.61-5.2-1.94-7.67-3.18a3.38,3.38,0,0,0-2.9-.38c-2.7,1.07-5.85.81-4.32,6.66,1.25,4.74-.14,10.58.31,15.42a85.73,85.73,0,0,1-.29,17.67c-1.37,11.51-.36,22.86-.37,34.27,0,5.5,1.09,11,.26,16.48l0,0,.45,1.13V214c1.06,1.58,0,3.28.2,4.94,1.68,13.75,1.12,27.62.29,41.32-.84,14-1,28-.91,42,.12,15.22.27,30.43.16,45.65-.06,9.8.28,19.59.31,29.39,0,13.69-.55,27.37-1.08,41.05C1089.7,438.71,1090.88,459.14,1090.83,479.59Z" fill="#9e947f"/>
  <path d="M862.21,201.65c1.61,16.55-1.14,33.07-.07,49.65,1.5,23.36,1.49,46.77,1.68,70.16.07,8.21-.82,16.42-1.55,24.62-.29,3.23-.56,6.46-.73,9.69a114,114,0,0,0,0,12.4c.06,1.15.15,2.31.26,3.46l.39,4.09q1.22,13.18,1.91,26.37.39,7.17.6,14.33.38,11.85.28,23.7,0,6.13-.21,12.27c-.05,2-.12,4.07-.19,6.1-.31,8.2-.81,16.4-1.33,24.6-.15,2.31-.29,4.61-.44,6.91h10.78c.29-8.27.64-16.54,1.1-24.81q.36-6.39.81-12.78c0-.06,0-.12,0-.18.62-8.59.74-17.16.63-25.73-.06-5.13-.21-10.26-.39-15.39-.16-4.62-.34-9.25-.5-13.88q-.23-6.42-.35-12.83c-.06-2.62-.12-5.23-.16-7.85-.09-4.22-.17-8.44-.27-12.66-.07-3.29-.16-6.59-.27-9.88-.09-3-.21-6-.35-9-.65-13.85.69-27.66.76-41.49.12-26.54-.62-53.06-2-79.58-.5-10.17-.39-20.36-.62-30.53-.06-2.45-1.17-4.85-5.4-4.08-3.91.72-7.46,2.54-5.83,6.08A18.61,18.61,0,0,1,862.21,201.65Z" fill="#9e947f"/>
  <path d="M810.62,259.94c1.62,16.55-1.14,33.07-.06,49.65.31,4.81.55,9.62.75,14.43.13,3.29.24,6.59.33,9.88.11,3.82.19,7.65.26,11.47q.06,3.25.1,6.5c.1,7.46.15,14.91.2,22.36,0,1.84,0,3.68,0,5.52s0,3.88-.1,5.82c-.18,4.62-.58,9.23-1,13.84-.32,3.49-.66,7-.91,10.48a127.17,127.17,0,0,0-.32,16.56c.06,1.15.15,2.31.26,3.47q.35,3.54.66,7.08,2.31,26.5,2.52,53h11.19c0-11.5-.53-23-.93-34.48q-.15-4.31-.25-8.61c-.09-3.46-.16-6.93-.23-10.39-.13-6.77-.24-13.54-.43-20.31-.11-3.72-.24-7.43-.41-11.15,0-.59,0-1.19-.07-1.78-.21-4.48-.21-8.95-.12-13.43.08-3.76.23-7.53.39-11.29.22-5.59.46-11.18.49-16.77,0-2,0-4.09,0-6.13s0-4.19,0-6.29q0-5.83-.11-11.67c-.05-3.47-.12-6.93-.2-10.4q-.48-22.55-1.65-45.09c-.51-10.17-.4-20.35-.62-30.53-.06-2.45-1.17-4.85-5.4-4.07-3.91.71-7.47,2.53-5.83,6.07A18.59,18.59,0,0,1,810.62,259.94Z" fill="#9e947f"/>
  <path d="M769.53,490h16c-.09-.5-.19-1-.3-1.53-1.82-8.26,2.48-17.66.09-26.61a2.33,2.33,0,0,1,.26-1.32c2.27-4.1,1.72-8.28.42-12.64-.93-3.12-.49-7.62.8-8.81,3.79-3.52,3.64-8.46,2.35-12.92l0-.17a25.3,25.3,0,0,1-1-9.57c0-.44,0-.88,0-1.32,0-1.87-.32-3.8-.4-5.71-.11-2.57.08-5.19.2-7.8a31.47,31.47,0,0,0-.66-9.5,16.15,16.15,0,0,0-.51-1.63c-.08-.22.27-.81.4-1.23,1.17-3.59,1.35-7.48,1.66-11.32.11-1.41.25-2.81.45-4.19a30.3,30.3,0,0,0,.17-6.58c-.32-4.7-1.28-9.28-.81-13.82a38,38,0,0,0,.1-7.65,26.7,26.7,0,0,0-1.79-7.5,28.89,28.89,0,0,0-6.76-9.75c-.47-.71-.93-1.51-1.43-2.19h0c-1-1.43-2.18-2.37-3.73-1a4.74,4.74,0,0,0-.37.39c-1.4,1.73-2.79,6.11-3.38,9.71-.36,2.22-.42,4.14,0,5a18.52,18.52,0,0,1,.93,2.13,24.46,24.46,0,0,1,.74,13.37,44.65,44.65,0,0,0-1.31,7.53,98.39,98.39,0,0,0-.28,10.86,136.06,136.06,0,0,1-.17,15q-.2,2.21-.6,4.38l0-.06a18.87,18.87,0,0,1,.24,4.33c-.18,4.52-1.23,9.22,1.09,13.3a.18.18,0,0,1,0,.11,4.13,4.13,0,0,1-.44,1.84,9.59,9.59,0,0,0-.76,7.11c.15.73.34,1.47.53,2.21a23.17,23.17,0,0,1-.4,12.23c-1,3.4-1.39,6.72-.1,10.24a8.72,8.72,0,0,1,.22,4.4c-2.39,9.61-1.53,19.77-2.47,29.6C768.21,482.7,769.23,486.32,769.53,490Z" fill="#9e947f"/>
  <path d="M913.85,475.87c0,4.71.15,9.42.25,14.13h15.26c0-1.91.08-3.82.11-5.73.15-8.32.2-16.64,0-25-.15-5.84,0-11.69,0-17.54v-.52a83.29,83.29,0,0,1-.49-10.82c0-3.34.19-6.67.32-10q.07-1.67.12-3.33c.16-4.32.27-8.65.41-13,.18-5.64.38-11.27.75-16.91q1-16,.59-32.17c-.49-18,.77-36.13.95-54.21.18-18.51-.29-37-.07-55.55.31-27.1,1.18-54.21-.75-81.29-.11-1.59.16-4.66-1.73-4.31-3.31.61-5.2-1.94-7.67-3.18a3.38,3.38,0,0,0-2.9-.38c-2.7,1.07-5.86.81-4.32,6.66,1.25,4.74-.14,10.58.31,15.42a85,85,0,0,1-.3,17.67c-1.36,11.51-.35,22.85-.36,34.27,0,5.5,1.09,11,.26,16.48l0,0,.44,1.13v-.05c1.06,1.58,0,3.28.2,4.94,1.68,13.75,1.11,27.62.29,41.32-.84,14-1,28-.92,42,.13,15.22.28,30.43.17,45.66,0,2.08,0,4.17,0,6.25,0,4,.1,8.11.18,12.17h0c0,3.65.11,7.29.12,10.95V413c0,3.06,0,6.13-.1,9.19-.18,9.92-.6,19.85-1,29.77,0,1.24-.09,2.47-.12,3.71C913.75,462.41,913.76,469.14,913.85,475.87Z" fill="#9e947f"/>
  <path d="M1263.87,484.73c-.15-6,0-12.07,0-18.11v.06c-.81-6.93-.44-13.9-.16-20.81.44-11.07.56-22.15,1.28-33.22q1-16,.59-32.16c-.49-18,.77-36.14,1-54.22.18-18.51-.3-37-.07-55.55.3-27.1,1.18-54.21-.75-81.29-.11-1.59.16-4.65-1.73-4.31-3.32.61-5.2-1.94-7.67-3.18a3.41,3.41,0,0,0-2.9-.38c-2.71,1.07-5.86.81-4.33,6.66,1.25,4.74-.13,10.58.31,15.43a85,85,0,0,1-.29,17.66c-1.36,11.51-.35,22.86-.37,34.28,0,5.49,1.09,11,.27,16.47l0-.05.44,1.13v-.05c1.07,1.58,0,3.28.21,4.94,1.67,13.75,1.11,27.62.28,41.33-.83,14-1,28-.91,41.95.12,15.22.27,30.43.17,45.66-.07,9.79.28,19.59.31,29.38,0,13.69-.56,27.37-1.08,41q-.24,6.3-.26,12.6H1264C1263.94,488.25,1263.91,486.49,1263.87,484.73Z" fill="#9e947f"/>
  <path d="M342.49,414.48h0" fill="#231f20"/>
  <path d="M331,415.1s0,0,0,0M329.55,414v0a.43.43,0,0,0,0-.05v0m-.22-3.2s0,0-.05,0,0,.09,0,.1,0-.05,0-.09m33.94,3.48c0,.33-.24.65-.41.54s-.45-.1-.66-.34c-.05-.05-.15-.16-.11.1.1.6-.15.53-.2.84-.09.51-.21.11-.32,0s-.21-.2-.31,0-.16.12-.21,0c-.24-.52-.43,0-.63.23s-.25.2-.41.13a6,6,0,0,0-1.78-.4c-.42-.08-.84,0-1.26-.12-.15,0-.25-.34-.39-.32l-.12,0c-.23.23-.45.57-.69,0-.23.33-.47-.43-.71,0,0,.06-.1.09-.14.06a2,2,0,0,0-1.29-.07c-.08,0-.17,0-.23-.23-.37,0-.74.36-1.12,0a.77.77,0,0,0-.74-.1,1.94,1.94,0,0,1-.68-.06.78.78,0,0,0-.43,0c-.29.09-.63.29-.88,0s-.44-.47-.69-.07c0,0-.11.08-.15-.09s-.13-.24-.2-.17c-.36.37-.76-.09-1.09.19s-.85-.11-1.28,0a1.43,1.43,0,0,1-.89.06,1.79,1.79,0,0,0-1.37.13c-.35.18-.74,0-1.11,0a.3.3,0,0,1-.28-.21h0a.05.05,0,0,0,0,0c-.08.07-.16.21-.23.19-.66-.2-1.33.38-2,0-.17-.1-.31.2-.48.21a4.44,4.44,0,0,0-2.12.28c-.19.09-.41.05-.59-.23,0-.05-.05-.15-.08-.06-.23.64-.52.32-.78.35a14.31,14.31,0,0,0-2.95.49,13.64,13.64,0,0,1-1.61.42.67.67,0,0,1-.47-.17c-.27-.19-.27-.17-.15-.87h0a1,1,0,0,1-1.37-.52.75.75,0,0,1-.11-.42c0-.07-.05-.12-.07-.2-.16-.69-.14-.8.15-1,.05,0,.15,0,.13-.17s-.09,0-.15,0-.22-.2-.33-.3-.43-.13-.64-.36a.59.59,0,0,1-.2-.55c0-.38.07-.74.25-.77s.33-.22.49.09c0,0,.06,0,.1,0h0c.16-.24.36,0,.53-.33A.73.73,0,0,0,330,410c0-.59.13-.84.37-.86.71,0,1.41-.1,2.11-.11a1.53,1.53,0,0,1,.82.2c.16.09.33-.16.5-.19a23.62,23.62,0,0,1,2.66.05c.81,0,1.63-.05,2.44-.06.48,0,1-.19,1.43-.16a17.26,17.26,0,0,1,2.69,0c.25.05.52-.16.79-.11a3.3,3.3,0,0,0,1.25.09,5.29,5.29,0,0,1,1.68-.08c.52,0,1-.08,1.54,0a3.87,3.87,0,0,0,1.11-.16.88.88,0,0,1,.7.17c.18.11.38-.07.58-.11s.48-.5.68.18c.13-.23.3-.06.43-.18s.44.1.66,0,.1.3.16.41.12.49.19-.06.3-.49.47,0c.07.19.12.2.17,0,.09-.32.19-.39.3-.11,0,.08.1.15.13.05.2-.72.46-.08.68-.26.05,0,.1.06.1.2,0,.38.08.36.16.15.15-.4.34-.34.51-.27.55.21,1.1,0,1.64.21.74.25,1.48.12,2.22.3a3.65,3.65,0,0,0,1.27-.1,1,1,0,0,1,.92.35c.32.38.68.24,1,.27.12,0,.24,0,.33.26a1.89,1.89,0,0,1,.12.85c0,.33-.13.65-.28.65s-.5.21-.75.46-.52,0-.78,0l-.68-.1s-.07,0-.1,0a.39.39,0,0,0-.11.33c0,.16.07.11.11.11a4.24,4.24,0,0,1,1.69.46c.32.11.64.26,1,.39a.59.59,0,0,1,.17.12,1.24,1.24,0,0,1,.25,1" fill="#231f20"/>
  <path d="M365.9,468.24h0" fill="#231f20"/>
  <path d="M354.45,468.85s0,0,0,0M353,467.78v0a.13.13,0,0,1,0-.06v0m-.22-3.2s0,0-.05,0a.41.41,0,0,0,0,.1s0-.05,0-.09m33.94,3.48c0,.34-.24.65-.41.54s-.45-.09-.66-.33c-.05,0-.16-.17-.11.09.1.6-.15.54-.2.84-.09.52-.21.12-.32,0s-.21-.19-.32,0-.15.11-.2,0c-.25-.52-.44,0-.63.24s-.26.2-.41.12a6.33,6.33,0,0,0-1.78-.39c-.42-.08-.84,0-1.26-.13-.15,0-.25-.34-.39-.32l-.12,0c-.23.24-.45.58-.69,0-.24.33-.47-.43-.71,0,0,.07-.1.09-.14.07a1.92,1.92,0,0,0-1.29-.08c-.08,0-.17,0-.23-.23-.37,0-.74.37-1.12,0s-.5-.14-.75-.09a2,2,0,0,1-.68-.06.85.85,0,0,0-.42,0c-.29.09-.63.29-.88,0s-.44-.48-.69-.07c0,0-.11.07-.15-.1s-.13-.23-.2-.17c-.36.37-.76-.09-1.09.2s-.85-.12-1.28,0a1.36,1.36,0,0,1-.89.06,1.79,1.79,0,0,0-1.37.14c-.36.17-.74,0-1.11,0a.28.28,0,0,1-.28-.2h0l0,0c-.07.07-.16.22-.23.19-.66-.2-1.33.39-2,0-.18-.1-.31.19-.49.2a4.47,4.47,0,0,0-2.12.28c-.18.1-.4.06-.58-.23,0,0-.05-.15-.08-.06-.23.64-.52.32-.78.36a14.29,14.29,0,0,0-2.95.48,14.16,14.16,0,0,1-1.61.42.64.64,0,0,1-.47-.16c-.27-.2-.27-.17-.15-.88h0a1,1,0,0,1-1.37-.52.73.73,0,0,1-.11-.42c0-.06,0-.12-.07-.19-.16-.7-.14-.81.14-1,.06,0,.16,0,.14-.17s-.1,0-.15,0-.22-.21-.33-.31-.43-.13-.64-.36a.57.57,0,0,1-.2-.54c0-.39.07-.74.25-.77s.33-.23.48.09c0,0,.07,0,.11-.05h0c.16-.24.36,0,.53-.32a.74.74,0,0,0,.14-.48c0-.59.13-.84.37-.85.71-.05,1.41-.1,2.11-.12a1.55,1.55,0,0,1,.82.21c.16.09.33-.16.5-.19a23.65,23.65,0,0,1,2.66,0c.81,0,1.62-.05,2.44-.06.47,0,1-.18,1.43-.16a17.26,17.26,0,0,1,2.69,0c.25.05.52-.16.78-.11a3.17,3.17,0,0,0,1.26.1,5.59,5.59,0,0,1,1.68-.09c.51.05,1-.07,1.54,0a3.55,3.55,0,0,0,1.11-.16.92.92,0,0,1,.7.17c.18.12.38-.07.58-.1s.48-.5.68.18c.13-.24.3-.07.42-.19s.45.1.67,0,.1.29.16.41.11.49.19-.07.3-.48.47,0c.06.19.12.2.17,0s.18-.38.3-.11c0,.09.1.16.13.05.19-.71.46-.07.68-.26.05,0,.1.07.1.2,0,.38.08.36.16.15.15-.39.34-.33.51-.27.54.21,1.1,0,1.64.21.74.25,1.48.13,2.22.31a3.9,3.9,0,0,0,1.27-.1.93.93,0,0,1,.92.35c.32.37.68.24,1,.26.12,0,.24,0,.33.26a1.93,1.93,0,0,1,.12.85c0,.34-.13.66-.28.65s-.5.21-.75.46-.52,0-.78,0-.45-.07-.68-.1c0,0-.07,0-.1,0a.44.44,0,0,0-.12.33c0,.17.08.12.12.11a4.38,4.38,0,0,1,1.68.47c.32.11.64.25,1,.39a.47.47,0,0,1,.18.12,1.22,1.22,0,0,1,.25,1" fill="#231f20"/>
  <path d="M279.76,410.31h0" fill="#231f20"/>
  <path d="M268.3,410.93s0,0,0,0m-1.49-1.07v0s0,0,0-.06v0m-.22-3.2s0,0,0,0,0,.09,0,.1,0-.05,0-.09m33.94,3.48c0,.33-.24.65-.41.54s-.45-.1-.66-.33c0-.06-.15-.17-.11.09.1.6-.15.54-.2.84-.09.52-.2.11-.32,0s-.21-.19-.31,0-.16.11-.21,0c-.24-.52-.43,0-.63.23s-.25.21-.41.13a6,6,0,0,0-1.78-.39c-.42-.08-.84,0-1.26-.13-.15,0-.25-.34-.39-.32l-.12,0c-.23.23-.45.58-.68,0-.24.33-.48-.43-.72,0,0,.06-.1.09-.14.07a1.92,1.92,0,0,0-1.29-.08c-.08,0-.17,0-.23-.23-.37,0-.74.37-1.12,0a.77.77,0,0,0-.74-.1,1.94,1.94,0,0,1-.68-.06,1,1,0,0,0-.43,0c-.29.09-.63.29-.88,0s-.44-.47-.69-.06c0,0-.11.07-.15-.1s-.13-.23-.2-.17c-.36.37-.75-.09-1.09.2s-.85-.12-1.28,0a1.43,1.43,0,0,1-.89.06,1.79,1.79,0,0,0-1.37.14c-.35.17-.74,0-1.11,0a.28.28,0,0,1-.28-.21h0l0,0c-.07.07-.16.22-.23.19-.66-.2-1.33.38-2,0-.17-.1-.31.19-.48.2a4.44,4.44,0,0,0-2.12.28c-.19.1-.41.06-.59-.23,0-.05-.05-.15-.08-.06-.23.64-.52.32-.78.35a14.31,14.31,0,0,0-2.95.49,13.64,13.64,0,0,1-1.61.42.66.66,0,0,1-.46-.16c-.28-.2-.28-.18-.16-.88h0a1,1,0,0,1-1.36-.52.68.68,0,0,1-.12-.42c0-.06-.05-.12-.07-.19-.16-.7-.14-.81.15-1,.05,0,.15,0,.13-.17s-.09,0-.14,0-.23-.2-.33-.3-.44-.13-.65-.36a.57.57,0,0,1-.2-.54c0-.39.07-.75.25-.77s.33-.23.49.08c0,0,.06,0,.1,0h0c.16-.24.36,0,.53-.33a.68.68,0,0,0,.14-.47c0-.59.13-.84.37-.86.71-.05,1.41-.09,2.11-.11a1.55,1.55,0,0,1,.82.21c.16.08.33-.17.5-.19a21.47,21.47,0,0,1,2.66,0c.81,0,1.63-.05,2.44-.06.48,0,1-.18,1.43-.16a17.26,17.26,0,0,1,2.69,0c.25,0,.52-.16.79-.11a3.3,3.3,0,0,0,1.25.1,5.61,5.61,0,0,1,1.68-.09c.52.05,1-.07,1.54,0a3.55,3.55,0,0,0,1.11-.16.88.88,0,0,1,.7.17c.18.12.38-.07.58-.11s.48-.5.68.19c.14-.24.3-.07.43-.19s.44.1.66,0,.1.3.16.42.12.49.19-.07.3-.48.47,0c.07.19.12.2.17,0s.19-.38.3-.11c0,.09.1.16.13.05.2-.72.46-.07.68-.26.05,0,.1.06.1.2,0,.38.08.36.16.15.15-.4.34-.34.51-.27.55.21,1.1,0,1.64.21a21.11,21.11,0,0,0,2.22.3,3.64,3.64,0,0,0,1.27-.09.93.93,0,0,1,.92.35c.32.37.68.24,1,.26.13,0,.24,0,.33.26a1.68,1.68,0,0,1,.12.85c0,.33-.13.66-.28.65s-.5.21-.75.46-.52,0-.78,0-.45-.07-.68-.1c0,0-.07,0-.1,0a.41.41,0,0,0-.11.33c0,.17.07.12.11.11a4.43,4.43,0,0,1,1.69.47c.32.1.64.25,1,.38a.88.88,0,0,1,.17.12,1.24,1.24,0,0,1,.25,1" fill="#231f20"/>
  <path d="M297.17,429.13h0" fill="#231f20"/>
  <path d="M285.72,429.74s0,0,0,0m-1.49-1.07v0a.13.13,0,0,1,0-.06v0m-.22-3.2s0,0-.05,0a.41.41,0,0,0,0,.1s0-.05,0-.09M318,429c0,.34-.24.65-.41.54s-.45-.09-.66-.33c-.05-.05-.16-.17-.11.09.1.6-.15.54-.2.84-.09.52-.21.12-.32,0s-.21-.19-.32,0-.15.11-.2,0c-.25-.52-.44,0-.63.23s-.26.21-.41.13a6.33,6.33,0,0,0-1.78-.39c-.42-.08-.84,0-1.26-.13-.15,0-.25-.34-.39-.32l-.12,0c-.23.24-.45.58-.69,0-.23.33-.47-.43-.71,0,0,.07-.1.09-.14.07a1.92,1.92,0,0,0-1.29-.08c-.08,0-.17,0-.23-.23-.37,0-.74.37-1.12,0s-.5-.14-.75-.09a2.24,2.24,0,0,1-.68-.06.85.85,0,0,0-.42,0c-.29.09-.63.29-.88,0s-.44-.48-.69-.07c0,0-.11.07-.15-.1s-.13-.23-.2-.17c-.36.37-.76-.09-1.09.2s-.85-.12-1.28,0a1.36,1.36,0,0,1-.89.06,1.79,1.79,0,0,0-1.37.14c-.36.17-.74,0-1.11,0a.28.28,0,0,1-.28-.2h0l0,0c-.07.07-.16.22-.23.19-.66-.2-1.33.39-2,0-.18-.1-.31.19-.49.2a4.47,4.47,0,0,0-2.12.28c-.18.1-.4.06-.58-.23,0,0-.05-.15-.08-.06-.23.64-.52.32-.78.35a15,15,0,0,0-2.95.49,14.16,14.16,0,0,1-1.61.42.64.64,0,0,1-.47-.16c-.27-.2-.27-.17-.15-.87v0a1,1,0,0,1-1.37-.52.73.73,0,0,1-.11-.42c0-.06-.05-.12-.07-.19-.16-.7-.14-.81.14-1,.06,0,.16,0,.14-.17s-.1,0-.15,0-.22-.21-.33-.31-.43-.13-.64-.36a.57.57,0,0,1-.2-.54c0-.39.07-.75.25-.77s.33-.23.48.09c0,0,.07,0,.11-.05h0c.16-.24.36,0,.53-.33a.68.68,0,0,0,.14-.47c0-.59.13-.84.37-.86.71,0,1.41-.09,2.11-.11a1.55,1.55,0,0,1,.82.21c.16.09.33-.16.5-.19a23.65,23.65,0,0,1,2.66,0c.81,0,1.62-.05,2.44-.06.47,0,1-.18,1.43-.16a17.26,17.26,0,0,1,2.69,0c.25,0,.52-.16.78-.11a3.37,3.37,0,0,0,1.26.1,5.59,5.59,0,0,1,1.68-.09c.51.05,1-.07,1.54,0a3.55,3.55,0,0,0,1.11-.16.92.92,0,0,1,.7.17c.18.12.38-.07.58-.1s.48-.51.68.18c.13-.24.3-.07.42-.19s.45.1.67,0,.1.29.16.41.11.49.19-.07.3-.48.47,0c.06.19.12.2.17,0s.18-.38.3-.11c0,.09.1.16.13.05.19-.71.46-.07.68-.26.05,0,.1.07.1.2,0,.38.08.36.16.15.15-.4.34-.34.51-.27.54.21,1.1,0,1.64.21.74.25,1.48.13,2.22.31a3.9,3.9,0,0,0,1.27-.1.93.93,0,0,1,.92.35c.32.37.68.24,1,.26.12,0,.24,0,.33.26a1.93,1.93,0,0,1,.12.85c0,.34-.13.66-.28.65s-.5.21-.75.46-.52,0-.78,0-.45-.07-.68-.1c0,0-.07,0-.1,0a.44.44,0,0,0-.12.33c0,.17.08.12.12.11a4.33,4.33,0,0,1,1.68.47c.32.11.64.25,1,.39a.47.47,0,0,1,.18.12,1.22,1.22,0,0,1,.25,1" fill="#231f20"/>
  <path d="M338,429.13h0s0,0,0,0" fill="#231f20"/>
  <path d="M326.55,429.74h0m-1.49-1.07v0s0,0,0,0m-.22-3.2s0,0,0,0a.41.41,0,0,0,0,.1s0-.05,0-.09M358.77,429c0,.34-.23.65-.4.54s-.45-.09-.67-.33c0-.05-.15-.17-.1.09.1.6-.15.54-.21.84-.09.52-.2.12-.32,0s-.2-.19-.31,0-.15.11-.2,0c-.25-.52-.44,0-.63.23s-.26.21-.41.13a6.32,6.32,0,0,0-1.79-.39c-.41-.08-.83,0-1.25-.13-.15,0-.25-.34-.39-.32l-.13,0c-.22.24-.45.58-.68,0-.24.33-.47-.43-.71,0,0,.07-.1.09-.14.07a1.94,1.94,0,0,0-1.3-.08c-.08,0-.17,0-.22-.23-.37,0-.75.37-1.12,0a.76.76,0,0,0-.75-.09,2.24,2.24,0,0,1-.68-.06.85.85,0,0,0-.42,0c-.3.09-.63.29-.88,0s-.45-.48-.69-.07c0,0-.12.07-.16-.1s-.13-.23-.19-.17c-.36.37-.76-.09-1.09.2s-.85-.12-1.28,0a1.36,1.36,0,0,1-.89.06,1.79,1.79,0,0,0-1.37.14c-.36.17-.74,0-1.11,0a.28.28,0,0,1-.28-.2h0l0,0c-.08.07-.16.22-.23.19-.67-.2-1.33.39-2,0-.18-.1-.32.19-.49.2a4.44,4.44,0,0,0-2.12.28c-.18.1-.4.06-.58-.23,0,0-.05-.15-.08-.06-.23.64-.52.32-.79.35a15.14,15.14,0,0,0-2.95.49,13.15,13.15,0,0,1-1.61.42.62.62,0,0,1-.46-.16c-.27-.2-.28-.17-.15-.87v0a1,1,0,0,1-1.37-.52.66.66,0,0,1-.11-.42.62.62,0,0,1-.07-.19c-.16-.7-.15-.81.14-1,.05,0,.16,0,.14-.17s-.1,0-.15,0-.22-.21-.33-.31-.44-.13-.64-.36a.57.57,0,0,1-.2-.54c0-.39.06-.75.25-.77s.33-.23.48.09c0,0,.07,0,.1-.05h0c.16-.24.35,0,.52-.33a.68.68,0,0,0,.15-.47c0-.59.13-.84.37-.86.7,0,1.41-.09,2.11-.11a1.55,1.55,0,0,1,.82.21c.16.09.32-.16.49-.19a23.79,23.79,0,0,1,2.67,0c.81,0,1.62-.05,2.44-.06.47,0,.95-.18,1.43-.16a17.13,17.13,0,0,1,2.68,0c.26,0,.53-.16.79-.11a3.33,3.33,0,0,0,1.25.1,5.66,5.66,0,0,1,1.69-.09c.51.05,1-.07,1.54,0a3.55,3.55,0,0,0,1.11-.16.89.89,0,0,1,.69.17c.18.12.39-.07.58-.1s.49-.51.69.18c.13-.24.29-.07.42-.19s.45.1.67,0,.1.29.16.41.11.49.19-.07.3-.48.46,0c.07.19.13.2.18,0s.18-.38.3-.11c0,.09.1.16.13.05.19-.71.46-.07.68-.26.05,0,.09.07.1.2,0,.38.08.36.15.15.15-.4.35-.34.51-.27.55.21,1.1,0,1.65.21.74.25,1.48.13,2.22.31a3.92,3.92,0,0,0,1.27-.1.92.92,0,0,1,.91.35c.33.37.69.24,1,.26.13,0,.24,0,.34.26a1.8,1.8,0,0,1,.11.85c0,.34-.13.66-.28.65s-.5.21-.75.46-.51,0-.77,0-.46-.07-.68-.1c0,0-.08,0-.11,0a.44.44,0,0,0-.11.33c0,.17.08.12.12.11a4.38,4.38,0,0,1,1.68.47c.32.11.64.25,1,.39a.38.38,0,0,1,.17.12,1.18,1.18,0,0,1,.25,1" fill="#231f20"/>
  <path d="M255,429.13h0s0,0,0,0" fill="#231f20"/>
  <path d="M243.54,429.74h0m-1.5-1.07s0,0,0,0v-.06a0,0,0,0,1,0,0m-.21-3.2s0,0-.05,0a.41.41,0,0,0,0,.1s0-.05,0-.09M275.76,429c0,.34-.23.65-.4.54s-.46-.09-.67-.33c0-.05-.15-.17-.11.09.1.6-.14.54-.2.84-.09.52-.2.12-.32,0s-.21-.19-.31,0-.15.11-.2,0c-.25-.52-.44,0-.64.23s-.25.21-.4.13a6.32,6.32,0,0,0-1.79-.39c-.42-.08-.84,0-1.25-.13-.16,0-.25-.34-.39-.32l-.13,0c-.22.24-.45.58-.68,0-.24.33-.47-.43-.71,0,0,.07-.1.09-.14.07a1.94,1.94,0,0,0-1.3-.08c-.08,0-.17,0-.22-.23-.38,0-.75.37-1.12,0a.76.76,0,0,0-.75-.09,2.24,2.24,0,0,1-.68-.06.9.9,0,0,0-.43,0c-.29.09-.62.29-.87,0s-.45-.48-.69-.07c0,0-.12.07-.16-.1s-.13-.23-.19-.17c-.36.37-.76-.09-1.1.2s-.85-.12-1.27,0a1.36,1.36,0,0,1-.89.06,1.79,1.79,0,0,0-1.37.14c-.36.17-.74,0-1.11,0a.28.28,0,0,1-.28-.2h0a.05.05,0,0,1,0,0c-.08.07-.16.22-.24.19-.66-.2-1.32.39-2,0-.18-.1-.32.19-.49.2a4.44,4.44,0,0,0-2.12.28c-.19.1-.4.06-.58-.23,0,0-.05-.15-.09-.06-.22.64-.52.32-.78.35a15.14,15.14,0,0,0-2.95.49,13.15,13.15,0,0,1-1.61.42.62.62,0,0,1-.46-.16c-.28-.2-.28-.17-.15-.87v0a1,1,0,0,1-1.36-.52.66.66,0,0,1-.11-.42,1.08,1.08,0,0,1-.08-.19c-.15-.7-.14-.81.15-1,0,0,.15,0,.14-.17s-.1,0-.15,0-.22-.21-.33-.31-.44-.13-.65-.36a.62.62,0,0,1-.2-.54c0-.39.07-.75.26-.77s.33-.23.48.09c0,0,.07,0,.1-.05h0c.17-.24.36,0,.53-.33a.68.68,0,0,0,.15-.47c0-.59.13-.84.37-.86.7,0,1.41-.09,2.11-.11a1.57,1.57,0,0,1,.82.21c.16.09.32-.16.49-.19a23.58,23.58,0,0,1,2.66,0c.82,0,1.63-.05,2.44-.06.48,0,1-.18,1.44-.16a17.13,17.13,0,0,1,2.68,0c.26,0,.53-.16.79-.11a3.33,3.33,0,0,0,1.25.1,5.66,5.66,0,0,1,1.69-.09c.51.05,1-.07,1.54,0a3.55,3.55,0,0,0,1.11-.16.89.89,0,0,1,.69.17c.18.12.39-.07.58-.1s.48-.51.69.18c.13-.24.29-.07.42-.19s.45.1.67,0,.1.29.16.41.11.49.18-.07.31-.48.47,0c.07.19.13.2.18,0s.18-.38.3-.11c0,.09.1.16.13.05.19-.71.45-.07.68-.26.05,0,.09.07.1.2,0,.38.08.36.15.15.15-.4.34-.34.51-.27.55.21,1.1,0,1.65.21.73.25,1.48.13,2.22.31a3.94,3.94,0,0,0,1.27-.1.92.92,0,0,1,.91.35c.33.37.69.24,1,.26.13,0,.24,0,.34.26a1.8,1.8,0,0,1,.11.85c0,.34-.13.66-.28.65s-.5.21-.75.46-.51,0-.78,0-.45-.07-.67-.1c0,0-.08,0-.11,0a.44.44,0,0,0-.11.33c0,.17.08.12.12.11a4.38,4.38,0,0,1,1.68.47c.32.11.64.25,1,.39a.38.38,0,0,1,.17.12,1.22,1.22,0,0,1,.25,1" fill="#231f20"/>
  <path d="M285.1,440.26h0s0,0,0,0" fill="#a97c50"/>
  <path d="M296.55,439.64h0m1.49,1.07v0s0,0,0,0m.22,3.2a.05.05,0,0,0,.05,0,.41.41,0,0,0,0-.1s0,.05,0,.09m-33.93-3.48c0-.33.23-.65.4-.54s.45.1.67.33c0,.06.15.17.11-.09-.1-.6.14-.54.2-.84.09-.52.2-.11.32,0s.21.19.31,0,.15-.11.2,0c.25.52.44,0,.63-.23s.26-.21.41-.13a5.7,5.7,0,0,0,1.79.39c.42.08.84,0,1.25.13.16,0,.25.34.39.32l.13,0c.22-.23.45-.58.68,0,.24-.33.47.43.71,0,0-.06.1-.09.14-.06a2,2,0,0,0,1.3.07c.08,0,.17,0,.22.23.38,0,.75-.37,1.12,0s.5.14.75.1a2,2,0,0,1,.68.06,1,1,0,0,0,.43,0c.29-.09.62-.29.87,0s.45.47.69.06c0,0,.12-.07.16.1s.13.24.19.17c.36-.37.76.09,1.1-.2s.85.12,1.27,0a1.43,1.43,0,0,1,.89-.06,1.74,1.74,0,0,0,1.37-.14c.36-.17.74,0,1.11,0a.3.3,0,0,1,.28.21h0a.05.05,0,0,1,0,0c.08-.07.16-.22.24-.19.66.2,1.32-.38,2,0,.18.11.32-.19.49-.2a4.44,4.44,0,0,0,2.12-.28c.19-.1.4-.06.58.23,0,0,.05.15.09.06.22-.64.52-.32.78-.35a15.14,15.14,0,0,0,3-.49,13.15,13.15,0,0,1,1.61-.42.63.63,0,0,1,.46.17c.28.19.28.17.15.87h0a1,1,0,0,1,1.36.52.68.68,0,0,1,.11.42,1.08,1.08,0,0,1,.08.19c.15.7.14.81-.15,1-.05,0-.15,0-.14.17s.1,0,.15,0,.22.2.33.3.44.13.65.36a.65.65,0,0,1,.2.55c0,.38-.07.74-.26.77s-.33.22-.48-.09c0,0-.07,0-.1,0h0c-.17.24-.36,0-.53.33a.7.7,0,0,0-.15.47c0,.59-.13.84-.37.86-.7.05-1.41.1-2.11.11a1.57,1.57,0,0,1-.82-.21c-.16-.08-.32.17-.49.19a21.44,21.44,0,0,1-2.66,0c-.82,0-1.63.05-2.44.06-.48,0-1,.18-1.44.16a17.13,17.13,0,0,1-2.68,0c-.26,0-.53.16-.79.11a3.13,3.13,0,0,0-1.25-.09,5.6,5.6,0,0,1-1.68.08c-.52-.05-1,.07-1.55,0a3.55,3.55,0,0,0-1.11.16.85.85,0,0,1-.69-.17c-.18-.12-.39.07-.58.11s-.48.5-.69-.18c-.13.23-.29.06-.42.18s-.45-.1-.67,0-.1-.3-.16-.42-.11-.49-.18.07-.31.49-.47,0c-.07-.19-.13-.2-.18,0s-.18.38-.3.11c0-.09-.1-.16-.13-.05-.19.72-.46.07-.68.26-.05,0-.09-.06-.1-.2,0-.38-.08-.36-.15-.15-.15.4-.34.34-.51.27-.55-.21-1.1,0-1.65-.21a20.76,20.76,0,0,0-2.22-.3,3.67,3.67,0,0,0-1.27.09.92.92,0,0,1-.91-.35c-.33-.37-.69-.24-1-.26-.13,0-.24,0-.34-.26a1.8,1.8,0,0,1-.11-.85c0-.33.13-.65.28-.65s.5-.21.75-.46.51,0,.78,0l.67.1s.08,0,.11,0a.44.44,0,0,0,.11-.33c0-.17-.08-.12-.12-.11a4.36,4.36,0,0,1-1.68-.46c-.32-.11-.64-.26-1-.39a.66.66,0,0,1-.17-.12,1.21,1.21,0,0,1-.25-1" fill="#a97c50"/>
  <path d="M353.83,479.37h0s0,0,0,0" fill="#c2b59b"/>
  <path d="M365.28,478.75h0m1.49,1.07v0s0,0,0,0M367,483a.05.05,0,0,0,.05,0,.41.41,0,0,0,0-.1s0,.05,0,.09m-33.93-3.48c0-.33.23-.65.4-.54s.45.1.67.33c0,.06.15.17.11-.09-.1-.6.14-.54.2-.84.09-.51.2-.11.32,0s.21.2.31,0,.15-.11.2,0c.25.52.44,0,.63-.23s.26-.2.41-.13a5.7,5.7,0,0,0,1.79.39c.42.09.84,0,1.25.13.16,0,.25.34.39.32l.13,0c.22-.23.45-.58.68,0,.24-.33.47.43.71,0,0-.06.1-.09.14-.06a2,2,0,0,0,1.3.07c.08,0,.17,0,.22.23.38,0,.75-.37,1.12,0s.5.14.75.1a2,2,0,0,1,.68.06,1,1,0,0,0,.43,0c.29-.09.62-.29.87,0s.45.47.69.06c0,0,.12-.07.16.1s.13.24.19.17c.36-.37.76.09,1.1-.2s.85.12,1.27,0a1.43,1.43,0,0,1,.89-.06,1.74,1.74,0,0,0,1.37-.14c.36-.17.74,0,1.11,0a.3.3,0,0,1,.28.21h0a.05.05,0,0,1,0,0c.08-.07.16-.22.24-.19.66.2,1.32-.38,2,0,.18.1.32-.2.49-.21a4.44,4.44,0,0,0,2.12-.28c.19-.1.4-.06.58.23,0,.05.05.15.09.06.22-.64.52-.32.78-.35a15.14,15.14,0,0,0,2.95-.49,13.15,13.15,0,0,1,1.61-.42.63.63,0,0,1,.46.17c.28.19.28.17.15.87h0a1,1,0,0,1,1.36.52.68.68,0,0,1,.11.42,1.54,1.54,0,0,1,.08.19c.15.7.14.81-.15,1-.05,0-.15,0-.14.17s.1,0,.15,0,.22.2.33.3.44.13.64.36a.62.62,0,0,1,.21.55c0,.38-.07.74-.26.77s-.33.22-.48-.09c0,0-.07,0-.1,0h0c-.17.24-.36,0-.53.33a.7.7,0,0,0-.15.47c0,.59-.13.84-.37.86-.7.05-1.41.1-2.11.11a1.57,1.57,0,0,1-.82-.21c-.16-.08-.32.17-.49.19a21.44,21.44,0,0,1-2.66,0c-.82,0-1.63.05-2.44.06-.48,0-1,.18-1.44.16a17.13,17.13,0,0,1-2.68,0c-.26-.05-.53.16-.79.11a3.13,3.13,0,0,0-1.25-.09,6,6,0,0,1-1.69.08c-.51-.05-1,.08-1.54,0a3.55,3.55,0,0,0-1.11.16.85.85,0,0,1-.69-.17c-.18-.12-.39.07-.58.11s-.48.5-.69-.18c-.13.23-.29.06-.42.18s-.45-.1-.67,0-.1-.3-.16-.42-.11-.49-.18.07-.31.49-.47,0c-.07-.18-.13-.2-.18,0s-.18.38-.3.11c0-.09-.1-.15-.13-.05-.19.72-.46.07-.68.26-.05,0-.09-.06-.1-.2,0-.38-.08-.36-.15-.15-.15.4-.34.34-.51.27-.55-.21-1.1,0-1.65-.21a20.76,20.76,0,0,0-2.22-.3,3.93,3.93,0,0,0-1.27.09.92.92,0,0,1-.91-.35c-.33-.37-.69-.24-1-.26-.13,0-.24,0-.34-.26a1.8,1.8,0,0,1-.11-.85c0-.33.13-.65.28-.65s.5-.21.75-.46.51,0,.78,0l.67.1s.08,0,.11,0a.44.44,0,0,0,.11-.33c0-.17-.08-.12-.12-.11a4.36,4.36,0,0,1-1.68-.46c-.32-.11-.64-.26-1-.39a.48.48,0,0,1-.17-.12,1.21,1.21,0,0,1-.25-1" fill="#c2b59b"/>
  <path d="M313,479.37h0" fill="#a97c50"/>
  <path d="M324.46,478.75h0m1.49,1.07a.08.08,0,0,0,0,0v0m.22,3.2s0,0,.05,0,0-.09,0-.1,0,.05,0,.09m-33.94-3.48c0-.33.24-.65.41-.54s.45.1.66.33c.05.06.15.17.11-.09-.1-.6.15-.54.2-.84.09-.51.2-.11.32,0s.21.2.31,0,.16-.11.21,0c.24.52.43,0,.63-.23s.25-.2.4-.13a5.7,5.7,0,0,0,1.79.39c.42.09.84,0,1.26.13.15,0,.24.34.39.32l.12,0c.23-.23.45-.58.68,0,.24-.33.48.43.72,0,0-.06.09-.09.14-.06a2,2,0,0,0,1.29.07c.08,0,.17,0,.23.23.37,0,.74-.37,1.12,0a.77.77,0,0,0,.74.1,1.94,1.94,0,0,1,.68.06,1,1,0,0,0,.43,0c.29-.09.63-.29.88,0s.44.47.68.06c0,0,.12-.07.16.1s.13.24.19.17c.37-.37.76.09,1.1-.2s.85.12,1.27,0a1.46,1.46,0,0,1,.9-.06,1.72,1.72,0,0,0,1.36-.14c.36-.17.75,0,1.12,0a.29.29,0,0,1,.27.21h0s0,0,0,0,.16-.22.24-.19c.66.2,1.33-.38,2,0,.17.1.31-.2.48-.21a4.44,4.44,0,0,0,2.12-.28c.19-.1.4-.06.58.23,0,.05.06.15.09.06.22-.64.52-.32.78-.35a15,15,0,0,0,2.95-.49,13.64,13.64,0,0,1,1.61-.42.63.63,0,0,1,.46.17c.28.19.28.17.15.87h0a1,1,0,0,1,1.36.52.75.75,0,0,1,.12.42c0,.07.05.12.07.19.16.7.14.81-.15,1-.05,0-.15,0-.14.17s.1,0,.15,0,.23.2.33.3.44.13.65.36a.59.59,0,0,1,.2.55c0,.38-.07.74-.26.77s-.32.22-.48-.09c0,0-.06,0-.1,0h0c-.16.24-.36,0-.53.33a.65.65,0,0,0-.14.47c0,.59-.13.84-.37.86-.71.05-1.41.1-2.12.11a1.59,1.59,0,0,1-.82-.21c-.15-.08-.32.17-.49.19a21.47,21.47,0,0,1-2.66,0c-.81,0-1.63.05-2.44.06-.48,0-1,.18-1.43.16a17.26,17.26,0,0,1-2.69,0c-.25-.05-.53.16-.79.11a3.11,3.11,0,0,0-1.25-.09,6,6,0,0,1-1.68.08c-.52-.05-1,.08-1.54,0a3.61,3.61,0,0,0-1.12.16.86.86,0,0,1-.69-.17c-.18-.12-.39.07-.58.11s-.48.5-.68-.18c-.14.23-.3.06-.43.18s-.44-.1-.66,0-.1-.3-.16-.42-.12-.49-.19.07-.3.49-.47,0c-.07-.18-.12-.2-.17,0s-.19.38-.3.11c0-.09-.1-.15-.13-.05-.2.72-.46.07-.68.26-.06,0-.1-.06-.1-.2,0-.38-.08-.36-.16-.15-.15.4-.34.34-.51.27-.55-.21-1.1,0-1.64-.21a21.3,21.3,0,0,0-2.23-.3,3.85,3.85,0,0,0-1.26.09.93.93,0,0,1-.92-.35c-.32-.37-.68-.24-1-.26-.13,0-.24,0-.33-.26a1.68,1.68,0,0,1-.12-.85c0-.33.13-.65.28-.65s.5-.21.75-.46.52,0,.78,0l.68.1s.07,0,.1,0a.41.41,0,0,0,.11-.33c0-.17-.07-.12-.12-.11a4.41,4.41,0,0,1-1.68-.46c-.32-.11-.64-.26-1-.39a.48.48,0,0,1-.17-.12,1.24,1.24,0,0,1-.25-1" fill="#a97c50"/>
  <path d="M396,479.37h0" fill="#a97c50"/>
  <path d="M407.47,478.75s0,0,0,0m1.49,1.07v0s0,0,0,.06v0m.22,3.2s0,0,.05,0,0-.09,0-.1,0,.05,0,.09m-33.94-3.48c0-.33.24-.65.41-.54s.45.1.66.33c.05.06.15.17.11-.09-.1-.6.15-.54.2-.84.09-.51.21-.11.32,0s.21.2.31,0,.16-.11.21,0c.24.52.43,0,.63-.23s.25-.2.41-.13a5.7,5.7,0,0,0,1.78.39c.42.09.84,0,1.26.13.15,0,.25.34.39.32l.12,0c.23-.23.45-.58.69,0,.23-.33.47.43.71,0,0-.06.1-.09.14-.06a2,2,0,0,0,1.29.07c.08,0,.17,0,.23.23.37,0,.74-.37,1.12,0a.77.77,0,0,0,.74.1,1.94,1.94,0,0,1,.68.06,1,1,0,0,0,.43,0c.29-.09.63-.29.88,0s.44.47.69.06c0,0,.11-.07.15.1s.13.24.2.17c.36-.37.76.09,1.09-.2s.85.12,1.28,0a1.43,1.43,0,0,1,.89-.06,1.75,1.75,0,0,0,1.37-.14c.35-.17.74,0,1.11,0a.3.3,0,0,1,.28.21h0l0,0c.07-.07.16-.22.23-.19.66.2,1.33-.38,2,0,.17.1.31-.2.48-.21a4.44,4.44,0,0,0,2.12-.28c.19-.1.41-.06.59.23,0,.05.05.15.08.06.23-.64.52-.32.78-.35a15,15,0,0,0,2.95-.49,13.64,13.64,0,0,1,1.61-.42.67.67,0,0,1,.47.17c.27.19.27.17.15.87h0a1,1,0,0,1,1.37.52.75.75,0,0,1,.11.42c0,.07.05.12.07.19.16.7.14.81-.15,1-.05,0-.15,0-.13.17s.09,0,.14,0,.23.2.34.3.43.13.64.36a.59.59,0,0,1,.2.55c0,.38-.07.74-.25.77s-.33.22-.49-.09c0,0-.06,0-.1,0h0c-.16.24-.36,0-.53.33a.7.7,0,0,0-.14.47c0,.59-.13.84-.37.86-.71.05-1.41.1-2.11.11a1.55,1.55,0,0,1-.82-.21c-.16-.08-.33.17-.5.19a21.47,21.47,0,0,1-2.66,0c-.81,0-1.63.05-2.44.06-.48,0-1,.18-1.43.16a17.26,17.26,0,0,1-2.69,0c-.25-.05-.52.16-.79.11a3.11,3.11,0,0,0-1.25-.09,6,6,0,0,1-1.68.08c-.52-.05-1,.08-1.54,0a3.55,3.55,0,0,0-1.11.16.88.88,0,0,1-.7-.17c-.18-.12-.38.07-.58.11s-.48.5-.68-.18c-.13.23-.3.06-.43.18s-.44-.1-.66,0-.1-.3-.16-.42-.12-.49-.19.07-.3.49-.47,0c-.07-.18-.12-.2-.17,0s-.19.38-.3.11c0-.09-.1-.15-.13-.05-.2.72-.46.07-.68.26,0,0-.1-.06-.1-.2,0-.38-.08-.36-.16-.15-.15.4-.34.34-.51.27-.55-.21-1.1,0-1.64-.21a21.11,21.11,0,0,0-2.22-.3,3.9,3.9,0,0,0-1.27.09.93.93,0,0,1-.92-.35c-.32-.37-.68-.24-1-.26-.12,0-.24,0-.33-.26a1.93,1.93,0,0,1-.12-.85c0-.33.13-.65.28-.65s.5-.21.75-.46.52,0,.78,0l.68.1s.07,0,.1,0a.41.41,0,0,0,.11-.33c0-.17-.07-.12-.11-.11a4.41,4.41,0,0,1-1.69-.46c-.32-.11-.64-.26-1-.39a.59.59,0,0,1-.17-.12,1.24,1.24,0,0,1-.25-1" fill="#a97c50"/>
  <path d="M76.75,364.41h0s0,0,0,0" fill="#a97c50"/>
  <path d="M52.59,365.71s0,0,0,0m-3.15-2.25v.07s0-.07,0-.11a.06.06,0,0,0,0,0M49,356.71s-.07,0-.11,0,0,.19.07.21.08-.1,0-.18M120.59,364c0,.71-.49,1.37-.85,1.15s-1-.21-1.4-.71c-.1-.11-.33-.35-.23.21.21,1.26-.32,1.12-.43,1.76-.19,1.09-.43.24-.68.09s-.44-.41-.65-.05-.33.23-.44,0c-.51-1.1-.92.07-1.33.49s-.53.43-.86.26a13,13,0,0,0-3.76-.83c-.89-.17-1.77,0-2.65-.26-.33-.08-.53-.72-.83-.68l-.26-.06c-.48.49-1,1.22-1.44.08-.51.7-1-.9-1.51-.06-.08.13-.2.18-.29.14a4.17,4.17,0,0,0-2.74-.16c-.16,0-.35-.05-.47-.48-.78-.08-1.57.77-2.36.06a1.65,1.65,0,0,0-1.58-.21,4.06,4.06,0,0,1-1.43-.12,1.83,1.83,0,0,0-.9,0c-.62.19-1.33.61-1.85,0s-.94-1-1.45-.14c0,.06-.25.16-.34-.2s-.27-.5-.4-.36c-.77.77-1.6-.19-2.31.41-.94.8-1.8-.25-2.7,0a3.1,3.1,0,0,1-1.88.13,3.74,3.74,0,0,0-2.88.28c-.76.37-1.57,0-2.35,0a.58.58,0,0,1-.59-.43s0,0,0,0v0a.79.79,0,0,1,0-.09c-.17.15-.34.46-.49.41-1.41-.43-2.8.8-4.2,0-.37-.21-.66.42-1,.43-1.49,0-3-.18-4.47.59-.39.21-.85.12-1.23-.48-.06-.1-.11-.32-.17-.12-.48,1.34-1.1.67-1.65.74a31.29,31.29,0,0,0-6.23,1,26.15,26.15,0,0,1-3.4.88,1.33,1.33,0,0,1-1-.34c-.59-.41-.59-.37-.32-1.84,0,0,0,0,0,0-1,.4-2,.26-2.88-1.1a1.43,1.43,0,0,1-.24-.89,3.71,3.71,0,0,1-.15-.4c-.34-1.47-.3-1.71.31-2.15.11-.08.32,0,.29-.36s-.21,0-.32,0c-.27.06-.47-.43-.69-.64-.45-.42-.93-.28-1.36-.77a1.22,1.22,0,0,1-.43-1.14c0-.82.15-1.57.54-1.63s.69-.47,1,.19c0,.08.15-.05.22-.09v0c.33-.5.75,0,1.11-.69a1.44,1.44,0,0,0,.3-1c0-1.24.28-1.77.79-1.81,1.48-.1,3-.2,4.45-.24a3.26,3.26,0,0,1,1.73.44c.33.19.69-.34,1-.4,1.88-.3,3.75.18,5.62.09,1.72-.08,3.44-.1,5.15-.13,1,0,2-.38,3-.33,1.89.08,3.78-.34,5.67,0,.54.11,1.11-.34,1.66-.24a6.82,6.82,0,0,0,2.65.21,11.8,11.8,0,0,1,3.55-.18c1.09.1,2.17-.16,3.25-.05a7.35,7.35,0,0,0,2.35-.34,1.88,1.88,0,0,1,1.46.37c.38.25.82-.15,1.23-.23s1-1.05,1.44.38c.28-.48.63-.14.9-.39.48-.45.93.21,1.4-.07.25-.16.21.63.34.87s.24,1,.39-.14.64-1,1-.07c.14.4.27.42.37.05.19-.68.38-.81.63-.23.08.18.22.32.28.1.41-1.51,1-.15,1.43-.54.11-.09.21.13.21.42,0,.79.17.76.34.32.31-.84.71-.72,1.07-.58,1.15.44,2.32.07,3.47.45,1.56.52,3.13.26,4.69.64a7.91,7.91,0,0,0,2.68-.21,2,2,0,0,1,1.93.74c.68.79,1.44.51,2.17.56.27,0,.51,0,.71.55a3.79,3.79,0,0,1,.24,1.79c-.08.7-.27,1.38-.59,1.37-.57,0-1.06.44-1.59,1s-1.08.07-1.64,0-1-.14-1.43-.21c-.07,0-.15-.07-.22,0a.91.91,0,0,0-.23.69c0,.36.16.25.25.24,1.2-.11,2.37.58,3.54,1,.68.23,1.36.54,2,.82a1.05,1.05,0,0,1,.37.25,2.58,2.58,0,0,1,.52,2.12" fill="#a97c50"/>
  <path d="M106.15,477.85h0s0,0,0,0" fill="#a97c50"/>
  <path d="M82,479.15s0,0,0,0m-3.15-2.25V477s0-.07,0-.11a.06.06,0,0,0,0,0m-.47-6.75s-.06,0-.1,0,0,.19.07.21.08-.1,0-.18M150,477.48c-.05.71-.49,1.37-.85,1.15s-1-.2-1.4-.71c-.1-.11-.33-.35-.23.21.21,1.26-.32,1.12-.43,1.76-.19,1.09-.43.24-.68.09s-.44-.41-.65-.05-.33.23-.44,0c-.51-1.1-.92.07-1.33.49s-.53.43-.86.26a13,13,0,0,0-3.76-.83c-.89-.17-1.77,0-2.65-.26-.33-.08-.53-.72-.83-.68l-.26-.06c-.48.49-1,1.22-1.44.08-.51.7-1-.9-1.51-.06-.08.13-.2.19-.29.14a4.17,4.17,0,0,0-2.74-.16c-.16,0-.35-.05-.46-.48-.79-.08-1.58.77-2.37.06a1.65,1.65,0,0,0-1.58-.21,4.06,4.06,0,0,1-1.43-.12,1.83,1.83,0,0,0-.9,0c-.62.19-1.33.61-1.85,0s-.94-1-1.45-.14c0,.06-.25.16-.34-.2s-.27-.5-.4-.36c-.77.77-1.6-.19-2.31.41-.94.8-1.8-.25-2.7,0A3.1,3.1,0,0,1,112,478a3.74,3.74,0,0,0-2.88.28c-.76.37-1.57,0-2.35,0a.58.58,0,0,1-.59-.43s0,0,0,0v0a.79.79,0,0,1,0-.09c-.17.15-.34.46-.49.41-1.4-.43-2.8.8-4.2,0-.37-.21-.66.42-1,.43-1.49,0-3-.18-4.47.59-.39.21-.85.13-1.23-.48-.06-.1-.11-.32-.17-.12-.48,1.34-1.1.67-1.65.74a31.29,31.29,0,0,0-6.23,1,26.15,26.15,0,0,1-3.4.88,1.33,1.33,0,0,1-1-.34c-.59-.41-.59-.37-.32-1.84,0,0,0,0,0,0-1,.4-2,.26-2.88-1.1a1.43,1.43,0,0,1-.24-.89,3.71,3.71,0,0,1-.15-.4c-.33-1.47-.3-1.71.31-2.15.11-.08.32,0,.29-.36s-.21,0-.32,0c-.27.06-.47-.43-.69-.64-.45-.42-.93-.28-1.36-.76a1.26,1.26,0,0,1-.43-1.15c0-.82.15-1.56.54-1.63s.69-.47,1,.2c0,.07.14-.06.21-.1v0c.34-.5.75,0,1.11-.69a1.44,1.44,0,0,0,.3-1c0-1.24.28-1.77.79-1.81,1.48-.1,3-.2,4.45-.24a3.26,3.26,0,0,1,1.73.44c.33.19.69-.34,1-.4,1.88-.3,3.75.18,5.62.09,1.72-.08,3.44-.1,5.15-.13,1,0,2-.38,3-.33,1.89.08,3.78-.34,5.67,0,.54.11,1.11-.34,1.66-.24a6.83,6.83,0,0,0,2.65.21,11.8,11.8,0,0,1,3.55-.18c1.09.1,2.17-.16,3.25-.05a7.35,7.35,0,0,0,2.35-.34,1.88,1.88,0,0,1,1.46.37c.38.25.82-.15,1.23-.23s1-1.05,1.44.38c.28-.48.63-.14.9-.39.48-.45.94.21,1.4-.07.26-.16.21.63.34.87s.24,1,.4-.14.63-1,1-.07c.14.4.27.42.37.05.19-.68.38-.81.63-.23.08.18.22.32.28.1.41-1.51,1-.15,1.43-.54.11-.09.21.13.21.42,0,.8.17.76.34.32.31-.84.71-.72,1.07-.58,1.15.44,2.32.07,3.47.45,1.56.52,3.13.26,4.69.64a7.59,7.59,0,0,0,2.67-.21,2,2,0,0,1,1.94.74c.68.79,1.44.51,2.17.56.27,0,.51,0,.71.55a3.79,3.79,0,0,1,.24,1.79c-.08.7-.27,1.38-.59,1.37-.57,0-1.06.44-1.59,1s-1.08.07-1.64,0-.95-.14-1.43-.21c-.07,0-.15-.07-.22,0a.87.87,0,0,0-.23.68c0,.36.16.25.25.25,1.2-.12,2.37.57,3.54,1,.68.23,1.36.54,2,.82a1.21,1.21,0,0,1,.37.25,2.58,2.58,0,0,1,.52,2.12" fill="#a97c50"/>
  <path d="M67.27,395.32h0s0,0,0,0" fill="#a97c50"/>
  <path d="M43.1,396.62h0M40,394.36a.22.22,0,0,0,0,.08v-.12s0,0,0,0m-.46-6.75c0-.05-.06,0-.1,0a.68.68,0,0,0,.06.21c.06,0,.08-.09,0-.18M111.11,395c-.06.71-.5,1.37-.86,1.15s-1-.21-1.4-.71c-.1-.11-.32-.36-.23.2.21,1.26-.31,1.13-.42,1.76-.19,1.1-.43.25-.68.09s-.44-.41-.66-.05-.32.24-.43,0c-.52-1.1-.92.07-1.33.49s-.54.43-.86.26a12.63,12.63,0,0,0-3.77-.82c-.88-.17-1.77-.05-2.65-.26-.32-.08-.52-.73-.82-.69l-.26-.05c-.48.49-1,1.21-1.45.07-.5.7-1-.9-1.5,0-.08.13-.2.18-.3.13a4.14,4.14,0,0,0-2.73-.16c-.17,0-.35-.05-.47-.48-.79-.08-1.57.77-2.37.06-.51-.46-1-.29-1.57-.2a4.13,4.13,0,0,1-1.44-.13,1.84,1.84,0,0,0-.9,0c-.61.18-1.32.6-1.85,0s-.94-1-1.45-.14c0,.07-.24.16-.33-.2s-.27-.5-.41-.36c-.76.77-1.6-.19-2.31.42-.93.79-1.79-.25-2.69,0a3,3,0,0,1-1.88.14,3.68,3.68,0,0,0-2.89.28c-.75.36-1.56,0-2.35,0a.6.6,0,0,1-.58-.43v0l0-.08c-.17.15-.34.45-.5.4-1.4-.43-2.8.8-4.19,0-.38-.21-.67.41-1,.42-1.49.06-3-.18-4.47.6-.4.21-.85.12-1.23-.48-.06-.1-.11-.33-.18-.13-.48,1.34-1.1.68-1.65.74a31.07,31.07,0,0,0-6.22,1,28.4,28.4,0,0,1-3.4.89,1.38,1.38,0,0,1-1-.35c-.58-.41-.58-.36-.32-1.84v0c-1,.39-2,.25-2.88-1.11a1.53,1.53,0,0,1-.24-.89,3.06,3.06,0,0,1-.15-.4c-.33-1.47-.3-1.71.31-2.14.11-.09.33,0,.29-.37s-.2,0-.31,0c-.28.06-.47-.43-.7-.65-.44-.42-.92-.28-1.36-.76a1.22,1.22,0,0,1-.42-1.15c0-.81.14-1.56.54-1.62s.68-.47,1,.19c0,.08.14-.06.22-.09h0c.34-.5.75,0,1.11-.68a1.54,1.54,0,0,0,.31-1c0-1.24.28-1.77.78-1.8,1.49-.11,3-.21,4.46-.25a3.39,3.39,0,0,1,1.73.45c.33.18.68-.35,1-.41,1.87-.3,3.75.18,5.62.1,1.71-.08,3.43-.11,5.15-.13,1,0,2-.39,3-.34,1.89.09,3.78-.33,5.67,0,.53.11,1.11-.33,1.66-.23a6.76,6.76,0,0,0,2.64.2,11.81,11.81,0,0,1,3.55-.18c1.09.1,2.17-.15,3.26,0a7.58,7.58,0,0,0,2.34-.34,1.85,1.85,0,0,1,1.47.37c.38.24.81-.16,1.22-.23s1-1.06,1.45.38c.28-.49.62-.14.89-.39.48-.46.94.21,1.41-.08.25-.15.21.63.33.87s.24,1,.4-.14.64-1,1-.06c.14.39.26.42.37,0,.19-.68.38-.81.63-.23.08.19.21.33.27.11.41-1.52,1-.16,1.44-.55.11-.09.2.13.21.42,0,.8.17.76.33.32.31-.84.72-.72,1.08-.58,1.15.45,2.32.07,3.46.45,1.56.53,3.13.27,4.69.64a7.88,7.88,0,0,0,2.68-.2,2,2,0,0,1,1.93.73c.69.79,1.45.51,2.18.56.26,0,.5.05.7.55a3.83,3.83,0,0,1,.24,1.8c-.08.7-.27,1.37-.59,1.36-.56,0-1,.45-1.58,1s-1.09.07-1.64,0-1-.14-1.43-.21c-.08,0-.16-.07-.22,0a.86.86,0,0,0-.24.69c0,.35.16.25.25.24,1.2-.12,2.37.57,3.55,1,.68.23,1.35.54,2,.83a.91.91,0,0,1,.36.25,2.61,2.61,0,0,1,.53,2.12" fill="#a97c50"/>
  <path d="M186.73,368.39h0" fill="#231f20"/>
  <path d="M170.63,385.06h0m-2.94,1.36,0,0s0,0,0,0v0M165,384.48s-.05,0-.08.06.1,0,.12,0,0-.09,0-.09m51.61-45.65a.67.67,0,0,1-.19.95,6.22,6.22,0,0,1-1.2.71c-.11,0-.34.09-.09.22.58.28.18.58.32.87.25.49-.21.37-.43.49s-.44.15-.47.42a.28.28,0,0,1-.29.29c-.74,0-.61.65-.74,1.06a1.09,1.09,0,0,1-.5.67,24.1,24.1,0,0,0-2.87,2.25c-.66.54-1.22,1.17-1.9,1.69-.25.19-.61.11-.81.33l-.19.16c-.16.48-.23,1-1,1-.11.57-1,.37-1.06,1a.32.32,0,0,1-.15.24,7.61,7.61,0,0,0-1.93,1.78.44.44,0,0,1-.49.15c-.56.51-.81,1.32-1.6,1.61a3.07,3.07,0,0,0-1.15,1,7,7,0,0,1-1,.93,3.47,3.47,0,0,0-.6.61c-.36.48-.7,1.09-1.26,1.25s-1,.3-1,.93a.23.23,0,0,1-.3.16.29.29,0,0,0-.4.15c-.26.77-1.16,1-1.44,1.69-.36.89-1.32,1.12-1.84,1.82a5.69,5.69,0,0,1-1.24,1.31,6.77,6.77,0,0,0-1.88,2,8,8,0,0,1-1.62,1.56.69.69,0,0,1-.55.25h-.06c-.06.16-.07.38-.2.47-1.11.8-1.64,2.15-2.87,2.82-.33.18-.31.58-.56.83a17.7,17.7,0,0,0-2.85,3.2,1.35,1.35,0,0,1-1,.67c-.08,0-.19,0-.17.07.14.77-.51,1-.87,1.36a56.06,56.06,0,0,0-3.9,4.53c-.65.88-1.33,1.73-2,2.57a2.22,2.22,0,0,1-.79.54c-.54.26-.53.27-.86-.4,0,0,0,0,0,0a3.33,3.33,0,0,1-2.36,1.56.5.5,0,0,1-.47-.13l-.24,0c-.75-.27-.81-.37-.54-.93,0-.1.24-.2.07-.31s-.13.14-.2.22-.47.17-.7.25c-.45.16-.73.53-1.2.66-.23.06-.45.18-.69-.09s-.44-.62-.19-.91.3-.62.76-.62c.05,0,.08-.11.11-.17h0c.06-.39.51-.51.53-1,0-.22.07-.32-.14-.54-.41-.44-.43-.78-.09-1.13,1-1,2-2.07,3-3.08a6.12,6.12,0,0,1,1.34-1c.29-.16.35-.57.58-.83,1.17-1.36,2.62-2.46,3.88-3.75s2.31-2.34,3.48-3.5c.68-.68,1.25-1.48,1.95-2.14,1.33-1.24,2.47-2.65,3.9-3.79.4-.33.64-.86,1.06-1.2a13.81,13.81,0,0,0,1.88-1.7,21.1,21.1,0,0,1,2.37-2.45c.78-.7,1.43-1.51,2.21-2.2a15,15,0,0,0,1.49-1.69,3.24,3.24,0,0,1,1.13-.86c.34-.17.5-.6.76-.9s.33-1,1.12-.84c0-.35.38-.47.48-.73.17-.48.71-.57.93-1,.12-.22.37.06.54.06s.52.19.22-.31.08-.77.65-.69c.24,0,.33,0,.27-.23-.1-.35,0-.53.36-.5.11,0,.25,0,.22-.15-.25-.78.61-.7.79-1.15,0-.1.19-.09.29,0,.3.25.38.14.34-.11-.08-.5.24-.73.54-.92.94-.62,1.61-1.53,2.53-2.18,1.25-.87,2.23-2,3.43-2.94a14.88,14.88,0,0,0,1.77-1.86,3.14,3.14,0,0,1,1.58-1A4.24,4.24,0,0,0,212,337a.81.81,0,0,1,.67-.29,1,1,0,0,1,.79.44c.19.29.3.64.07.85a3.26,3.26,0,0,0-.75,1.38c-.16.48-.72.76-1.11,1.11s-.7.6-1.06.89c0,.05-.12.09-.15.15a.33.33,0,0,0,.08.39c.13.11.2,0,.25-.09a16.07,16.07,0,0,1,2.77-2.06c.55-.38,1.11-.73,1.68-1.09a1.68,1.68,0,0,1,.33-.16.91.91,0,0,1,1.1.36" fill="#231f20"/>
  <path d="M181.78,357.68h0" fill="#231f20"/>
  <path d="M165.24,344h0m-1.36-2.64,0,0,0,0h0m1.91-2.64s0-.05-.06-.07,0,.09,0,.11.08,0,.08,0m45.34,44.48a.67.67,0,0,1-.94-.1c-.22-.37-.57-.63-.7-1.06,0-.1-.1-.32-.22-.07-.28.57-.58.21-.87.37-.48.28-.36-.16-.48-.36s-.16-.4-.42-.4a.26.26,0,0,1-.29-.25c0-.69-.64-.52-1.05-.61a.93.93,0,0,1-.66-.41,19.61,19.61,0,0,0-2.24-2.49c-.53-.58-1.16-1.05-1.68-1.65-.19-.21-.11-.56-.33-.72l-.15-.17c-.48-.11-1-.13-1-.82-.56,0-.37-.9-1-.9a.29.29,0,0,1-.23-.13,7,7,0,0,0-1.77-1.65.37.37,0,0,1-.16-.44c-.5-.49-1.3-.66-1.6-1.37a2.46,2.46,0,0,0-1-1,7,7,0,0,1-.92-.89,3.06,3.06,0,0,0-.61-.51c-.47-.3-1.08-.56-1.24-1.07s-.3-.9-.92-.9a.2.2,0,0,1-.16-.27c.06-.19,0-.33-.15-.36-.77-.18-1-1-1.68-1.21-.88-.26-1.11-1.13-1.8-1.56a4.92,4.92,0,0,1-1.3-1.06,6,6,0,0,0-2-1.59,6.79,6.79,0,0,1-1.55-1.39.61.61,0,0,1-.25-.49h0v-.06c-.16,0-.37,0-.46-.14-.79-1-2.13-1.36-2.8-2.45-.18-.3-.58-.25-.82-.46a16,16,0,0,0-3.18-2.41,1.12,1.12,0,0,1-.66-.88c0-.07,0-.18-.08-.15-.76.19-.95-.41-1.34-.7a50.2,50.2,0,0,0-4.49-3.29c-.88-.52-1.73-1.09-2.56-1.67a2,2,0,0,1-.53-.7c-.26-.48-.28-.47.39-.83h0a2.82,2.82,0,0,1-1.56-2.08.52.52,0,0,1,.14-.45,1,1,0,0,1,0-.23c.26-.71.36-.77.91-.57.1,0,.2.2.31,0s-.14-.12-.22-.17-.17-.42-.25-.63c-.16-.41-.53-.64-.66-1.07-.06-.2-.18-.4.09-.65s.61-.46.9-.25.61.23.61.66c0,0,.11.06.17.09h0c.39,0,.51.43,1,.41.21,0,.31,0,.53-.17.43-.42.77-.46,1.12-.18,1,.83,2,1.67,3.05,2.52a5,5,0,0,1,1,1.17c.16.26.56.28.82.47,1.35,1,2.44,2.25,3.72,3.32s2.32,2,3.47,3c.68.59,1.48,1.05,2.13,1.65,1.23,1.14,2.63,2.1,3.76,3.34.33.35.85.53,1.19.89a11.19,11.19,0,0,0,1.69,1.61,18.34,18.34,0,0,1,2.43,2c.69.67,1.5,1.21,2.18,1.89a13.08,13.08,0,0,0,1.68,1.25,2.75,2.75,0,0,1,.86,1c.17.3.59.42.89.63s1,.23.84,1c.34,0,.46.32.72.39.47.12.56.62,1,.79.22.1-.06.35-.06.51s-.18.5.31.18.76,0,.68.55c0,.23,0,.3.23.24.35-.13.52-.06.5.29,0,.11,0,.23.15.19.77-.29.7.51,1.13.65.11,0,.1.17,0,.27-.25.29-.14.37.11.31a.82.82,0,0,1,.91.42c.62.83,1.52,1.38,2.16,2.19.87,1.1,2,1.92,2.92,3a12.83,12.83,0,0,0,1.85,1.49,2.68,2.68,0,0,1,1,1.39c.2.68.8,1,1.27,1.47a.68.68,0,0,1,.29.61,1.1,1.1,0,0,1-.43.77c-.29.2-.63.32-.84.13a3,3,0,0,0-1.38-.58c-.47-.12-.75-.62-1.1-1s-.59-.6-.88-.91c0-.05-.08-.11-.15-.13a.36.36,0,0,0-.38.1c-.11.13,0,.19.09.23a13.15,13.15,0,0,1,2,2.42c.38.48.73,1,1.09,1.48a1.43,1.43,0,0,1,.16.3.87.87,0,0,1-.35,1.05" fill="#231f20"/>
  <path d="M1400.65,490h11.57c.32-4.1-.29-8.19,1-12.29,1.33-4.5.4-9,.92-13.54.71-6.35,1.2-12.71,3-19.06,1.34-4.64.38-9.27-.25-13.9-.61-4.39-.58-8.78-1.4-13.16-.65-3.49.69-7,.76-10.45a92.69,92.69,0,0,0-2-20.05,73.77,73.77,0,0,1-.62-7.69c-.06-.62-1.17-1.22-5.4-1-3.91.18-7.46.64-5.83,1.53a2.79,2.79,0,0,1,1.47,1.58c1.61,4.17-1.14,8.33-.07,12.51,1.5,5.88,1.49,11.78,1.68,17.67.15,4.22-3.71,8.43-2.07,12.64a42.3,42.3,0,0,1,2.78,21.88c-1,6.41-3.8,12.8-3.11,19.23.31,2.94-.77,5.89-1.61,8.83-.49,1.78,2.15,3.55.33,5.33h.07Z" fill="#9e947f"/>
  <path d="M727.3,490a21.78,21.78,0,0,0-.3-9.15c-.81-3.14-1.55-6.24.22-9.31a3.51,3.51,0,0,0,.42-2c-3.07-5.39-.23-11.89-1.33-17.62l0,.06c2.11-11.29-.49-23.12,1.66-34.66.19-1,.42-2.08.7-3.11a21.41,21.41,0,0,0,.61-5.42A22.78,22.78,0,0,0,727,398.75a4.37,4.37,0,0,1-.3-1.8,30,30,0,0,1,1.65-8.61,12.09,12.09,0,0,1,2.39-4.66c2.29-2,3.72,1,5.16,3.2h0l.83.84a26.91,26.91,0,0,1,7.84,20.73c0,1.07-.1,2.17-.23,3.32a29.52,29.52,0,0,0,0,5.15c.33,5,1.44,10,.67,15.24s-.51,10.61-2.11,15.51c-.13.43-.48,1-.4,1.24,2.26,6.06.7,12.62,1,18.93a57.66,57.66,0,0,1,.35,7,25.24,25.24,0,0,0,1,9.74,18.78,18.78,0,0,1,.82,5.38Z" fill="#9e947f"/>
  <path d="M586.67,490h9.08c.53-1,1.08-2,1.64-3.05a258.9,258.9,0,0,1,16.3-25.78,156.78,156.78,0,0,1,20.18-23c21.06-19.63,47.66-33.85,76-38.91,5.55-1,11.13-1.76,16.73-2.32,5.21-.53,10.44-.86,15.68-1a162.63,162.63,0,0,1,28.54,1.85c.55.07,1.09.16,1.64.25a137.93,137.93,0,0,1,15.41,3.51,157.76,157.76,0,0,1,22.31,8.29c4.24,1.93,8.4,4.05,12.47,6.32,1.83,1,3.65,2.06,5.44,3.14a126.62,126.62,0,0,1,19,14.37,223.35,223.35,0,0,1,16.33,17.11l1.3,1.56c3.46,4.15,6.83,8.38,9.92,12.8q1.27,1.8,2.48,3.64l1.59,2.33,1.49,2.4,3,4.8,2.77,4.93,1.38,2.46,1.27,2.52.87,1.73h9.86a210.42,210.42,0,0,0-23.87-37.77q-5-6.28-10.53-12.11-4.87-5.12-10.16-9.85a273.83,273.83,0,0,0-23.29-19.22c-3-2.12-6-4.14-9.19-6a98,98,0,0,0-11.15-5.65q-3.27-1.4-6.66-2.51-8.52-2.83-17.22-4.8-8-1.83-16.08-2.91a184.36,184.36,0,0,0-34.49-1.46q-4.2.21-8.39.61a185.12,185.12,0,0,0-27.47,4.71,181.38,181.38,0,0,0-21.89,7c-3.62,1.29-7.06,3-10.59,4.49l-5.15,2.58-2.57,1.3-2.5,1.42-5,2.86-4.83,3.13-2.41,1.58-2.32,1.68c-1.55,1.14-3.11,2.26-4.63,3.42-2.93,2.45-6,4.78-8.73,7.45-1.39,1.3-2.81,2.59-4.17,3.93L622.12,438a249.5,249.5,0,0,0-26.18,32.67c-2.41,3.49-3.89,7.46-5.63,11.26A73.69,73.69,0,0,1,586.67,490Z" fill="#231f20"/>
  <polygon points="696.91 344.61 696.91 344.61 696.97 344.6 696.91 344.61" fill="#231f20"/>
  <polygon points="746.64 340.6 746.68 340.6 746.61 340.6 746.64 340.6" fill="#231f20"/>
  <path d="M516.46,488.56c.44-1.22.95-2.41,1.43-3.61,6.79-16.93,14.87-33.43,25.67-48.46,3.1-4.09,6-8.32,9.35-12.3,1.64-2,3.17-4.08,4.89-6l5.11-5.87a216,216,0,0,1,22.37-21.78,248.56,248.56,0,0,1,63.83-39.3l7.44-3c2.46-1,5-1.8,7.54-2.71,5-1.88,10.2-3.24,15.34-4.78,2.58-.71,5.2-1.28,7.81-1.92l3.91-.94c1.31-.3,2.64-.51,4-.77l7.93-1.46,8-1.06a230.29,230.29,0,0,1,44.78-.77l8.15.63,7.31.91.8.1c3.28.37,6.4.95,9.55,1.56,1.57.31,3.15.65,4.74,1,.19.05.39.09.58.15,1.4.37,2.8.86,4.22,1.35,5.36,1.8,13.8,3.55,20.75,5.84l.18.06,7.23,2.52c1.24.43,2.45.92,3.66,1.42s2.29,1,3.44,1.41c4.76,1.82,9.32,4.06,14,6.07,7.21,3.42,14.23,7.35,21.12,11.32l6.19,3.56-.06-.05,3.78,2.48,3.29,2.39.37.27,3.66,2.62c1.23.85,2.44,1.72,3.61,2.61,10.89,7.77,20.2,17.08,28.95,26.68,1.3,1.41,2.59,2.84,3.85,4.28q7.36,8.39,13.87,17.41a248,248,0,0,1,14.44,22.39q5.4,9.45,10,19.33,4.05,8.79,7.37,17.86h-6.84c-.29-.83-.59-1.64-.9-2.47h0a206.14,206.14,0,0,0-11.26-25.09c-.93-1.88-2-3.68-3.06-5.51l-3.12-5.48c-2-3.24-4-6.48-6.1-9.67l-.66-1,0,0a1,1,0,0,0-.53-.74v0A141.88,141.88,0,0,0,915,422.2c-2.83-3.31-5.77-6.53-8.73-9.72-4.29-4.67-8.75-9.11-13.24-13.66a154.74,154.74,0,0,0-12.3-10q-2.91-2.28-5.91-4.46-6.2-4.54-12.71-8.68a226,226,0,0,0-23.64-13.14c-3.54-1.57-7-3.26-10.6-4.78v0c-1.6-.78-3.25-1.47-4.91-2.12l-1.7-.65c-1.12-.4-2.23-.84-3.37-1.2l-3.42-1.09c-.84-.27-1.67-.56-2.5-.85-1.89-.68-3.78-1.38-5.71-1.92-3.45-.95-6.95-2.06-10.35-2.78-2.44-.44-4.84-1-7.22-1.49l-3.89-.86c-3.69-.68-7.34-1.5-11-2.26a13.05,13.05,0,0,0-1.61-.12l-1,0-4.66-.43a2,2,0,0,0-.35,0,1,1,0,0,0-.13-.16,79.86,79.86,0,0,0-9.73-.93l-4.86-.26-4.87,0-2.8-.32-.07,0-.15,0-.17,0c-8.72-.16-17.35.68-26.07,1.09h0c-2.58.17-5.13.57-7.69.84s-5.14.54-7.67,1h0a4.9,4.9,0,0,0-2.46.43l-2.13.54-.53.36c-3.47.54-6.89,1.46-10.1,1.76a4.49,4.49,0,0,1-2.24.52l.1-.05-.17.07c-2,.45-3.93,1-5.87,1.64l-5.84,1.75h0c-2.51.9-4.58,1.85-7.2,2.09a10.74,10.74,0,0,0-3.15,1.15c-.57.27-1.16.55-1.78.78a9.21,9.21,0,0,1-1.92.64h0a6,6,0,0,0-.7.28l0,0-8,3.17-7.81,3.55c-2.63,1.12-5.12,2.54-7.67,3.81l-3.81,2c-1.27.66-2.48,1.41-3.72,2.11l0,0c-13,6.21-24.92,15.08-36,24.45a225.9,225.9,0,0,0-32.58,34.25l-2.88,3.72-2.68,3.85c-1.76,2.58-3.63,5.09-5.23,7.77h0a5.81,5.81,0,0,1-1.34,2.07l0-.11,0,.08a135.84,135.84,0,0,0-7.64,13c-1.63,3.2-3.08,6.43-4.68,9.57-.82,1.56-1.52,3.17-2.23,4.77l-2.12,4.8C528,482,526.43,486,525,490h-9Zm249.6-146.78a6.71,6.71,0,0,0-.62-.39s-.47-.05-.72-.07Zm-47.84-.57-.38-.06-.41.2Zm-21,3.06-1.5.12-.06.13Zm-24.64,6.05c-.6.08-1.21.12-1.8.23l-.32.25C671.13,350.6,671.84,350.46,672.55,350.32ZM547.54,444l.05,0-.19.21A.85.85,0,0,1,547.54,444Zm0,0,.05,0-.19.21A.85.85,0,0,1,547.54,444Z" fill="none"/>
  <path d="M607.3,490h9.29q1.75-3.44,3.83-6.7a203,203,0,0,1,13.66-19.42,118.64,118.64,0,0,1,16.61-17.08,130.05,130.05,0,0,1,28.43-18,118.06,118.06,0,0,1,32.2-9.6c5.53-.81,11.06-1.44,16.6-1.83,2.58-.19,5.15-.32,7.74-.39,2.87-.08,5.74-.1,8.61,0a136.1,136.1,0,0,1,15.85,1.25q5.39.75,10.67,2a128.08,128.08,0,0,1,18.28,5.8,149.34,149.34,0,0,1,15.08,7q3.44,1.85,6.68,4a82.44,82.44,0,0,1,8.61,6.48q2,1.68,3.92,3.43c3.27,3,6.39,6.08,9.4,9.29a146.75,146.75,0,0,1,21.07,28.1q1.59,2.82,3.08,5.7h10q-1.8-3.5-3.73-6.91a166.61,166.61,0,0,0-13.62-20.38,150.62,150.62,0,0,0-23.14-23.54l-3.31-2.65c-4.31-3.45-8.64-6.89-13.22-10.07q-1.21-.85-2.46-1.68a79.12,79.12,0,0,0-19.33-9.66c-.78-.25-1.57-.49-2.36-.71-4.56-1.25-9.16-2.3-13.77-3.15a168.64,168.64,0,0,0-27.46-2.79q-7.66-.16-15.3.37a175.35,175.35,0,0,0-25.3,3.6c-1.48.28-2.94.65-4.4,1l-4.38,1.1c-2.87.9-5.81,1.63-8.63,2.68a140.2,140.2,0,0,0-16.77,6.87c-10.79,5.43-21,12.24-29.5,20.8-7.78,7.78-15.58,15.67-22.11,24.63a39,39,0,0,0-2.62,4.26c-.73,1.49-1.39,3-2.08,4.53s-1.36,3-2.12,4.48a31.49,31.49,0,0,1-2.65,4.24l.07,0C608.25,488,607.76,489,607.3,490Z" fill="#231f20"/>
  <path d="M542.06,490h11.75c1.76-4.17,3.7-8.27,5.82-12.24a200.86,200.86,0,0,1,17.09-26.89A204,204,0,0,1,598,427a201.1,201.1,0,0,1,28.42-22.72,218.52,218.52,0,0,1,24.53-13.7,234,234,0,0,1,26.25-10.2,188.38,188.38,0,0,1,35-7.42,214.56,214.56,0,0,1,59.2,1.28q8.82,1.46,17.46,3.72c2.1.54,4.18,1.13,6.26,1.75q8.67,2.58,17.07,5.9,5,2,10,4.28,6.25,2.88,12.3,6.2a199.45,199.45,0,0,1,30.25,20.37q5.93,4.83,11.44,10.08a195.39,195.39,0,0,1,14.61,15.44,200.75,200.75,0,0,1,18.92,26.45c1.45,2.45,2.87,4.94,4.23,7.48,2.45,4.56,4.74,9.26,6.82,14.13H932c-.81-1.92-1.65-3.84-2.53-5.73-.24-.53-.48-1.06-.73-1.58-2-4.52-4.6-8.87-6.8-13.23-2.46-4.68-5.16-9.29-8-13.78-4.87-7.67-10.17-15-15.51-21.82a152.72,152.72,0,0,0-22.72-22.75c-3-2.54-6.14-5-9.27-7.48a13.07,13.07,0,0,0-1.34-.92c-.34-.19-.69-.4-1-.62l-1.09-.71c-.76-.46-1.53-1-2.32-1.5-1.57-1.06-3.16-2.21-4.7-3.29-1.66-1.24-3.48-2.25-5.23-3.36S847.2,391,845.39,390L840,387l-2.7-1.56-2.76-1.49c-3.52-1.93-6.56-2.89-10.2-4.54q-.9-.43-1.8-.84c-3.37-1.57-6.81-3-10.29-4.33a194.15,194.15,0,0,0-22.77-7.08c-2.49-.62-5-1.19-7.49-1.73-3.44-.73-6.89-1.46-10.31-2.08s-6.72-1.12-10-1.4c-15.1-1.36-30-1.91-45-.52-2.52.22-5.07.66-7.62,1l-3.8.47c-1.25.19-2.48.38-3.71.52-2.25.27-4.5.62-6.71,1s-4.33,1-6.41,1.59l-4.17,1.07-4.07,1.15c-2.7.76-5.43,1.39-8.16,2.34-14.4,4.52-28.57,10.37-41.49,18.31l-2.39,1.42-2.34,1.52-4.7,3c-3.15,2-6.16,4.18-9.28,6.22-2.15,1.51-4.3,3.18-6.38,4.81A234.74,234.74,0,0,0,580,430l-4.45,5.07c-1.46,1.7-2.79,3.5-4.19,5.25-2.85,3.48-5.34,7.22-8.13,10.9-1.14,1.59-2.22,3.25-3.35,4.9s-2.29,3.29-3.31,5c-2.05,3.48-4.29,6.92-6.1,10.59A200,200,0,0,0,542.06,490Z" fill="#231f20"/>
  <path d="M495.5,490h9.07a206.32,206.32,0,0,1,19.18-43.47,296.28,296.28,0,0,1,24.64-35.68,227.46,227.46,0,0,1,30.39-31.21,239.83,239.83,0,0,1,51.77-33.39A227.11,227.11,0,0,1,659.35,335c4.88-1.66,9.91-2.89,14.89-4.18,2.48-.71,5-1.11,7.56-1.66s5-1.09,7.59-1.46a299.86,299.86,0,0,1,44.82-4.31,259.29,259.29,0,0,1,40.43,2.27c1.37.19,2.74.39,4.1.6h0l.43.06a228.74,228.74,0,0,1,32.47,7.6q5.65,1.75,11.22,3.8a252.73,252.73,0,0,1,36.58,16.85c.7.4,1.4.8,2.1,1.22q6.6,3.8,12.88,8.12c4.47,3.08,8.8,6.35,13,9.83l3.28,2.66,3.15,2.81c2.08,1.89,4.23,3.71,6.26,5.65l6,5.88,1.51,1.46,1.45,1.53,2.9,3.05q1.56,1.56,3.06,3.2h0c2.63,2.86,5.14,5.85,7.72,8.76,1.73,2.06,3.36,4.19,5,6.27l1.67,2.1.84,1c.81,1.07,1.58,2.17,2.37,3.24l4.72,6.51,4.41,6.71c.73,1.13,1.49,2.23,2.19,3.37l2,3.45c1.35,2.31,2.77,4.58,4.07,6.92s2.54,4.69,3.76,7.06A257.14,257.14,0,0,1,968.64,490h9A186.57,186.57,0,0,0,970,468.54c-.83-2-1.7-3.91-2.61-5.84q-5.92-12.37-13-24.16a267.12,267.12,0,0,0-17.53-25.75q-3.42-4.4-7-8.66-7.15-8.46-15-16.34-9-9-18.89-17.13c-7.09-5.74-14.31-11.36-21.79-16.65q-5.82-4.11-11.88-7.93l-.59-.37a170.27,170.27,0,0,0-38.55-18.27l-.47-.14h0Q817,325.53,811.31,324a280.09,280.09,0,0,0-133.81-2.1c-1.31.3-2.64.53-3.94.88l-3.9,1c-2.59.71-5.21,1.36-7.8,2.09l-7.7,2.43c-1.28.41-2.57.78-3.84,1.22L646.53,331l-7.58,2.8-7.44,3.14-3.71,1.58-3.64,1.75-7.27,3.53-7.09,3.86c-1.17.66-2.37,1.29-3.53,2l-3.44,2.11L596,356l-6.63,4.59c-1.09.77-2.21,1.52-3.29,2.32l-3.19,2.47c-2.11,1.65-4.24,3.29-6.33,5l-6.06,5.29c-1,.89-2,1.76-3,2.67l-2.87,2.81c-14,13.68-27.45,28.15-38.64,44.27-1.67,2.45-3.22,5-4.71,7.51s-2.68,5.26-4,7.87-2.6,5.27-3.94,7.88c-.67,1.31-1.37,2.6-2.11,3.87l-2.26,3.82.09-.06A248,248,0,0,0,495.5,490Z" fill="#231f20"/>
</svg>
