<svg id="Layer_1" data-name="Layer 1" xmlns="http://www.w3.org/2000/svg" xmlns:xlink="http://www.w3.org/1999/xlink" viewBox="0 0 720 629.39">
  <defs>
    <clipPath id="clip-path">
      <path d="M720,29.39v600H121.29c-41.76-30-11.77-106,8-228.6C151.45,262.65,250.12,204.64,301,144.53S623.76,4.31,720,29.39Z" fill="none"/>
    </clipPath>
  </defs>
  <g clip-path="url(#clip-path)">
    <image width="612" height="792" transform="translate(88.51 -102) scale(1.14)" xlink:href="../../Assets/bg-img-hoop-1.jpg"/>
  </g>
  <path d="M649.84,554.27l-1,49.36a15.33,15.33,0,0,0,.36,2.51l0-.07c-.16,7.78-.36,15.55-.47,23.32H635c.08-12.34.38-24.66.41-37q.32-29.68.62-59.35c0-18.58-.78-37.16-.52-55.72.22-16,1.57-32,2.1-48.07.12-3.77.39-7.79-1.36-11.36l-.06.06c2.14-4.34-1.8-9.45,1.33-13.67a24.13,24.13,0,0,0,.25-3.5c0-.3,0-.61,0-.91-.78-6.58.91-8.32,6.22-6.12,1.17.49,2.7-.08,3.5,1.52l-.09.12.09-.05c3.59,4.47,1.85,10,1.92,15,.28,24.5.11,49,0,73.5-.08,15-.5,30.08-.08,45.08.11,4.1.74,8.21.28,12.37v0C649.67,545.62,649.92,549.94,649.84,554.27Z" fill="#c1b89c"/>
  <path d="M678.75,594.26c-1.37,11.69-2,23.41-2.56,35.13H664.33c.8-10.4,2.21-20.78,2.84-31.17a260.78,260.78,0,0,0-2.94-56.79c-1.74-10.94,2.35-21.86,2.19-32.8-.2-15.29-.2-30.6-1.78-45.87-1.14-10.84,1.78-21.64.07-32.46a8.58,8.58,0,0,0-1.55-4.09c-1.74-2.31,2-3.5,6.17-4,4.49-.51,5.67,1.06,5.72,2.66.24,6.66.13,13.32.66,20,1.43,17.33,2.22,34.68,2.09,52-.07,9-1.5,18.07-.81,27.13.87,11.38.84,22.77,1.48,34.15C679.15,570.21,680.16,582.21,678.75,594.26Z" fill="#c1b89c"/>
  <path d="M709.23,603.28c-1.14,8.7-1.79,17.4-2.28,26.11H695.32c.79-7.53,1.83-15.06,2.34-22.59a206.87,206.87,0,0,0-2.94-50.55c-1.75-9.74,2.35-19.45,2.19-29.19-.2-13.62-.2-27.24-1.78-40.83-1.14-9.65,1.78-19.26.07-28.89a7.21,7.21,0,0,0-1.56-3.64c-1.73-2.06,2-3.11,6.18-3.53,4.48-.45,5.66.94,5.72,2.37.24,5.92.12,11.85.66,17.77a462,462,0,0,1,2.09,46.31c-.08,8-1.5,16.08-.81,24.15.87,10.13.84,20.27,1.48,30.4C709.63,581.88,710.64,592.56,709.23,603.28Z" fill="#c1b89c"/>
  <path d="M626.85,561.53c-1.92,19.23-2.44,38.5-3.2,57.76-.13,3.36-.17,6.73-.18,10.1H612c0-1.65,0-3.31,0-5-.73-19.46,2.29-38.84,3.29-58.26a354.1,354.1,0,0,0-2.94-66.29c-1.74-12.76,2.35-25.51,2.19-38.29-.2-17.85-.2-35.72-1.77-53.54-1.14-12.66,1.77-25.27.06-37.9a11,11,0,0,0-1.55-4.78c-1.73-2.7,2-4.09,6.18-4.64,4.48-.59,5.66,1.25,5.72,3.11.24,7.77.12,15.54.66,23.3,1.42,20.24,2.22,40.49,2.09,60.74-.08,10.55-1.5,21.1-.81,31.67.87,13.28.84,26.58,1.48,39.86C627.25,533.45,628.27,547.47,626.85,561.53Z" fill="#c1b89c"/>
  <path d="M534.1,534.65c-1.93,20.29-2.45,40.62-3.2,61-.43,11.26.08,22.54-.35,33.79h-13s0-.09,0-.14c.89-9.41,2-18.83,1.7-28.24-.73-20.53,2.29-41,3.3-61.47a394.12,394.12,0,0,0-2.94-69.95c-1.74-13.47,2.35-26.92,2.19-40.4-.2-18.84-.2-37.69-1.77-56.5-1.14-13.36,1.77-26.66.06-40a12.15,12.15,0,0,0-1.55-5c-1.73-2.85,2-4.31,6.17-4.89,4.49-.62,5.67,1.31,5.73,3.28.24,8.2.12,16.4.66,24.59,1.42,21.36,2.21,42.72,2.08,64.09-.07,11.14-1.5,22.25-.81,33.41.88,14,.84,28.05,1.49,42.07C534.5,505,535.51,519.81,534.1,534.65Z" fill="#c1b89c"/>
  <path d="M488.89,531.67c-1.93,21.27-2.45,42.58-3.2,63.88-.4,11.27,0,22.57-.3,33.84H472.44c.87-9.38,1.89-18.78,1.57-28.16-.73-21.52,2.3-43,3.3-64.43a431.79,431.79,0,0,0-2.94-73.31c-1.74-14.11,2.35-28.21,2.19-42.34-.2-19.74-.2-39.5-1.78-59.21-1.14-14,1.78-27.94.07-41.91a13.22,13.22,0,0,0-1.55-5.28c-1.74-3,2-4.52,6.17-5.13,4.49-.65,5.67,1.37,5.72,3.44.24,8.59.13,17.19.66,25.77,1.43,22.38,2.22,44.77,2.09,67.16-.07,11.68-1.5,23.33-.81,35,.87,14.69.84,29.4,1.48,44.09C489.29,500.63,490.3,516.12,488.89,531.67Z" fill="#c1b89c"/>
  <path d="M450.63,525.12c-1.92,21.46-2.45,43-3.2,64.46-.47,13.26.21,26.56-.54,39.81H434.13a22.77,22.77,0,0,1-.07-4.21c.89-9.95,2-19.92,1.7-29.87-.73-21.72,2.29-43.35,3.3-65a440.75,440.75,0,0,0-2.94-74c-1.75-14.24,2.34-28.47,2.19-42.73-.2-19.93-.2-39.86-1.78-59.76-1.14-14.12,1.78-28.2.07-42.29A13.3,13.3,0,0,0,435,306.2c-1.73-3,2-4.56,6.18-5.17,4.48-.67,5.66,1.38,5.72,3.46.24,8.67.12,17.35.66,26,1.42,22.59,2.21,45.18,2.09,67.78-.08,11.78-1.5,23.54-.81,35.34.87,14.83.84,29.67,1.48,44.5C451,493.79,452,509.43,450.63,525.12Z" fill="#c1b89c"/>
  <path d="M360.44,518.85c-1.93,21.37-2.45,42.8-3.2,64.2-.54,15.19.44,30.42-1,45.57,0,.26-.05.51-.07.77H344.78c-.33-3.62-1.24-7.24-.92-10.88.89-9.91,2-19.84,1.7-29.74-.73-21.64,2.29-43.18,3.3-64.77a438.2,438.2,0,0,0-2.94-73.68c-1.74-14.19,2.35-28.36,2.19-42.57-.2-19.84-.2-39.7-1.78-59.51-1.14-14.07,1.78-28.09.07-42.13a13.36,13.36,0,0,0-1.55-5.3c-1.74-3,2-4.55,6.17-5.16,4.49-.66,5.67,1.38,5.72,3.46.24,8.63.13,17.27.66,25.9,1.43,22.5,2.22,45,2.09,67.51-.07,11.73-1.5,23.45-.81,35.2.87,14.76.84,29.54,1.48,44.31C360.84,487.64,361.85,503.22,360.44,518.85Z" fill="#c1b89c"/>
  <path d="M314.1,523.76c-1.92,21.33-2.45,42.71-3.2,64.07-.49,13.86.28,27.73-.66,41.56h-12.4a27.75,27.75,0,0,1-.31-6.17c.88-9.88,2-19.8,1.7-29.68-.74-21.59,2.29-43.09,3.29-64.63a435.38,435.38,0,0,0-2.94-73.53c-1.74-14.16,2.35-28.3,2.2-42.48-.2-19.8-.2-39.62-1.78-59.4-1.14-14,1.78-28,.07-42a13.21,13.21,0,0,0-1.56-5.3c-1.73-3,2-4.53,6.18-5.14,4.48-.66,5.66,1.38,5.72,3.45.24,8.61.12,17.24.66,25.85,1.42,22.45,2.21,44.9,2.09,67.37-.08,11.71-1.5,23.4-.81,35.13.87,14.74.84,29.48,1.48,44.22C314.5,492.62,315.51,508.16,314.1,523.76Z" fill="#c1b89c"/>
  <path d="M270.83,535.49h0l.06-.05Z" fill="#c1b89c"/>
  <path d="M271,500.81c-.59-7.82-.54-15.68-.48-23.48.1-12.62-.25-25.24,0-37.87.13-6.85-.27-13.73.12-20.55.48-8.17-.34-16.3.17-24.46.36-5.67-.18-11.36-.27-17-.12-8.75.24-17.49-.43-26.23-.21-2.74-1.07-5.63-.2-8.32a21.21,21.21,0,0,0,.58-8.2,38.93,38.93,0,0,1,.78-10.22,44,44,0,0,0,.5-11.74,3,3,0,0,0-2.1-3c-2.45-.9-4.87,1.25-5.28,4.72a9.22,9.22,0,0,1-.75,3.63c-.75-1-.59-2.4-.84-3.62-.4-1.9-1-3.83-2.81-4.05-1.61-.19-2.95.92-4,2.44a5.56,5.56,0,0,0-.58,3.35,10.44,10.44,0,0,1-1,5.45,6.69,6.69,0,0,0-.42,3.85,132.53,132.53,0,0,1,.13,13.52c-.4,9.95.84,19.85.46,29.82-.22,5.8.43,11.69.29,17.44-.16,6.29.13,12.51.27,18.75.06,2.9-.27,5.87.73,8.65-1.92,5.57-.16,11.35-.75,17.08-.82,7.8.95,15.67.06,23.75-.62,5.59.13,11.55-.09,17.35-.41,10.59.53,21.14.11,31.77-.38,9.72-.19,19.48-.71,29.23-.54,10.15-.72,20.32-1.19,30.48-.84,17.91-1.24,35.86-1.81,53.79-.13,4.1-.22,8.2-.3,12.29h17.74c0-2.06.07-4.12,0-6.18-.15-2.72-.53-5.72.37-8.5l.06,0a1.53,1.53,0,0,1,0-1.89l0,0c.85-1.34-.85-2.2-.37-3.63,1.07-3.18.66-6.58.71-9.92.05-3.16,1.89-6.36-.16-9.5-.16-.26.32-1.06.34-1.61.16-4.16,2.32-8.36-.15-12.5-.23-.4.14-1.39.29-2.09a12.82,12.82,0,0,0,.59-3.84h0a3,3,0,0,0,.41-2.35,55.49,55.49,0,0,1-.31-12.62c.07-1.37.65-2.64.2-4.14-.77-2.61-1.67-5.18-.07-8.06.58-1.06,0-2.84-.8-4,0-1.15-.08-2.35.86-3.11-.2-2,1-3.91,0-5.87-.26-.17-.66-.26-.49-.76.05-.16.38-.18.59-.26.79-5-.67-10,.13-15.23C271.68,509.47,271.35,505,271,500.81Zm-.61,68.95-.73-.27C270.17,568.87,270.26,569.41,270.42,569.76Z" fill="#c1b89c"/>
  <path d="M416.72,420.6c-.2,15.61-1.53,31.23-1,46.8a247.45,247.45,0,0,1-.63,27.77c-.77,9.56-.89,19.12-1.36,28.67-.29,6-.69,12,.17,17.92,0,5.21-.19,10.42,0,15.63.47,15.39-.29,30.75-.66,46.13-.2,8.62-.22,17.25-.27,25.87H397.55c0-8.47.33-16.95.36-25.42,0-17.64-1.2-35.28-.37-52.91.56-11.81,1.19-23.61,1.15-35.43,0-8.46-.4-16.91-.33-25.37.12-13.14,0-26.27-.18-39.41-.12-12.06.09-24.13,1-36.21.88-11.84,1.47-23.81-.3-35.67-.21-1.44.91-2.91-.22-4.27v.05l-.47-1c.85-4.74-.31-9.45-.3-14.18,0-9.86-1.05-19.65.39-29.59a59.43,59.43,0,0,0,.31-15.25c-.47-4.18,1-9.22-.32-13.32-1.63-5,1.71-4.82,4.58-5.74a4.25,4.25,0,0,1,3.07.33c2.62,1.07,4.62,3.26,8.13,2.74,2-.3,1.71,2.35,1.83,3.73,2,23.36,1.12,46.77.79,70.16C416.41,388.64,416.91,404.62,416.72,420.6Z" fill="#c1b89c"/>
  <path d="M169.71,546.36c-1.92,18.85-2.45,37.75-3.2,56.63-.35,8.8,0,17.61-.21,26.4H153.65A150.13,150.13,0,0,0,154.84,608c-.74-19.08,2.29-38.08,3.3-57.11a341.19,341.19,0,0,0-2.94-65c-1.75-12.51,2.34-25,2.18-37.54-.2-17.5-.2-35-1.77-52.49-1.14-12.41,1.77-24.77.06-37.15a10.69,10.69,0,0,0-1.55-4.68c-1.74-2.65,2-4,6.18-4.54,4.48-.59,5.66,1.21,5.72,3,.24,7.62.12,15.24.66,22.85,1.42,19.84,2.21,39.68,2.09,59.54-.08,10.35-1.5,20.68-.81,31,.87,13,.83,26.06,1.48,39.09C170.11,518.84,171.12,532.58,169.71,546.36Z" fill="#c1b89c"/>
  <path d="M115.05,571.22c-1.92,16.74-2.44,33.52-3.2,50.28-.12,2.63-.16,5.26-.17,7.89H100.24q0-1.71-.06-3.42c-.74-16.94,2.29-33.81,3.3-50.71a269.19,269.19,0,0,0-2.94-57.7c-1.75-11.11,2.34-22.21,2.19-33.33-.2-15.54-.2-31.09-1.78-46.61-1.14-11,1.78-22,.07-33a8.8,8.8,0,0,0-1.56-4.16c-1.73-2.35,2-3.56,6.18-4,4.48-.52,5.66,1.08,5.72,2.7.24,6.76.12,13.53.66,20.29,1.42,17.61,2.22,35.23,2.09,52.86-.08,9.19-1.5,18.36-.81,27.57.87,11.56.84,23.13,1.48,34.7C115.45,546.79,116.47,559,115.05,571.22Z" fill="#c1b89c"/>
  <path d="M229.77,443.07c-.19,15-1.52,30.07-1,45.06a225,225,0,0,1-.63,26.73c-.76,9.2-.88,18.4-1.35,27.6-.29,5.75-.69,11.54.17,17.3,0,5-.19,10,0,15,.47,14.82-.29,29.6-.66,44.41q-.12,5.12-.16,10.22H210.82c.08-3.26.14-6.52.15-9.77.06-17-1.2-34-.37-51,.56-11.37,1.2-22.73,1.15-34.11,0-8.14-.4-16.28-.33-24.42.12-12.66,0-25.3-.18-37.95-.12-11.61.09-23.23,1-34.86.88-11.4,1.48-22.93-.3-34.35-.21-1.38.92-2.8-.22-4.1v0l-.47-.94c.85-4.57-.3-9.09-.3-13.66,0-9.49-1-18.91.39-28.48a55.1,55.1,0,0,0,.31-14.68c-.47-4,1-8.88-.32-12.83-1.63-4.85,1.71-4.64,4.58-5.53a4.46,4.46,0,0,1,3.07.32c2.61,1,4.61,3.14,8.12,2.64,2-.28,1.72,2.26,1.84,3.59,2,22.5,1.11,45,.79,67.56C229.46,412.29,230,427.68,229.77,443.07Z" fill="#c1b89c"/>
  <path d="M584.09,457.21c-.19,14.24-1.52,28.49-1,42.69a203.92,203.92,0,0,1-.62,25.33c-.77,8.71-.89,17.44-1.36,26.15-.29,5.44-.69,10.93.18,16.38,0,4.75-.19,9.48,0,14.22.47,14-.29,28-.65,42.07-.05,1.78-.08,3.56-.11,5.34H565.24c0-1.64,0-3.28,0-4.92.06-16.1-1.2-32.18-.36-48.26.56-10.78,1.19-21.54,1.14-32.32,0-7.72-.4-15.43-.32-23.14.11-12,0-24-.18-35.95-.13-11,.08-22,1-33,.88-10.79,1.48-21.72-.3-32.53-.21-1.32.92-2.66-.21-3.9v.05l-.47-.9,0,0c.87-4.33-.29-8.64-.29-13,0-9-1-17.92.4-27a50.25,50.25,0,0,0,.31-13.91c-.47-3.81,1-8.41-.33-12.14-1.63-4.6,1.71-4.4,4.58-5.25a4.7,4.7,0,0,1,3.07.3c2.62,1,4.62,3,8.13,2.5,2-.27,1.72,2.14,1.83,3.4,2,21.32,1.12,42.67.8,64C583.79,428.06,584.29,442.64,584.09,457.21Z" fill="#c1b89c"/>
  <path d="M76.66,599.08c-1.57,10.09-2.21,20.2-2.8,30.31h-12c.64-9.12,2.46-18.22,3.19-27.33a148,148,0,0,0-2.94-42.66c-1.74-8.22,2.35-16.43,2.19-24.65-.2-11.49-.2-23-1.78-34.46-1.14-8.15,1.78-16.26.07-24.39a5.64,5.64,0,0,0-1.55-3.08c-1.74-1.74,2-2.63,6.17-3,4.49-.38,5.67.8,5.72,2,.24,5,.13,10,.66,15a329.29,329.29,0,0,1,2.09,39.09c-.07,6.8-1.5,13.58-.81,20.38.87,8.55.84,17.11,1.48,25.66C77.06,581,78.07,590,76.66,599.08Z" fill="#c1b89c"/>
  <path d="M39.93,629.39H28.06a88.11,88.11,0,0,0-3.36-23c-1.75-6.33,2.34-12.64,2.19-19-.2-8.84-.2-17.69-1.78-26.52-1.14-6.27,1.78-12.51.07-18.77a4,4,0,0,0-1.56-2.36c-1.73-1.34,2-2,6.18-2.3,4.48-.3,5.66.61,5.72,1.54.24,3.85.12,7.7.66,11.54a196.58,196.58,0,0,1,2.09,30.08c-.08,5.23-1.5,10.45-.81,15.69.87,6.58.84,13.16,1.48,19.74C39.37,620.53,39.94,625,39.93,629.39Z" fill="#c1b89c"/>
</svg>
