<svg id="Layer_1" data-name="Layer 1" xmlns="http://www.w3.org/2000/svg" xmlns:xlink="http://www.w3.org/1999/xlink" viewBox="0 0 836.95 493.29">
  <defs>
    <clipPath id="clip-path">
      <path d="M837,15.61V493.29H360.3c-33.24-23.91-9.37-84.36,6.33-182,17.69-110,96.24-156.16,136.75-204S760.34-4.35,837,15.61Z" fill="none"/>
    </clipPath>
  </defs>
  <g clip-path="url(#clip-path)">
    <image width="1500" height="1941" transform="translate(329.47 -84.5) scale(0.35)" xlink:href="../../Assets/bg-img-hoop-4.jpg"/>
  </g>
  <path d="M649.17,281.76h0s0,0,0,0" fill="#231f20"/>
  <g>
    <path d="M699.24,460q-.11,16.62-.23,33.26h10.27l.12-9.18c.05-4.91-.12-9.83-.2-14.75.34-4.73-.13-9.39-.21-14.05-.31-17,0-34.12.06-51.19.09-27.81.22-55.63,0-83.44,0-5.67,1.23-11.92-1.41-17l-.07,0,.07-.13c-.59-1.81-1.71-1.18-2.58-1.72-3.9-2.51-5.14-.53-4.56,6.94a44.41,44.41,0,0,1-.18,5h0c-2.3,4.79.6,10.59-1,15.52l0-.07c1.3,4.05,1.09,8.61,1,12.89-.38,18.2-1.38,36.38-1.55,54.58C698.67,417.84,699.25,438.94,699.24,460Z" fill="#c2b59b"/>
    <path d="M720.34,338.18c1.25,11.92-.89,23.81-.06,35.75,1.16,16.83,1.16,33.69,1.31,50.53.12,12.06-2.89,24.09-1.61,36.13q1.74,16.35,2.27,32.7H731c-.15-4.75-.36-9.5-.54-14.25-.46-12.53-.44-25.08-1.08-37.62-.51-10,.54-19.92.59-29.88.1-19.11-.49-38.21-1.53-57.31-.4-7.33-.31-14.66-.49-22,0-1.77-.91-3.5-4.21-2.94-3,.52-5.82,1.83-4.54,4.38A12.84,12.84,0,0,1,720.34,338.18Z" fill="#c2b59b"/>
    <path d="M742.76,364.51c1.26,11-.89,21.9,0,32.89,1.16,15.46,1.16,31,1.3,46.46.12,11.09-2.89,22.15-1.61,33.23q.93,8.1,1.53,16.2h8.92c-.44-11.27-.43-22.54-1.06-33.82-.5-9.18.54-18.32.6-27.48.09-17.59-.49-35.15-1.54-52.72-.4-6.74-.31-13.49-.48-20.23,0-1.62-.91-3.21-4.21-2.7-3,.48-5.82,1.68-4.55,4A10.76,10.76,0,0,1,742.76,364.51Z" fill="#c2b59b"/>
    <path d="M682.16,279.38c1.26,12.9-.89,25.78,0,38.7,1.16,18.21,1.16,36.46,1.31,54.69.11,13.05-2.9,26.08-1.61,39.11A502.23,502.23,0,0,1,684,479.59c-.18,4.56-.43,9.13-.7,13.7h8.15c.28-6.15.62-12.3,1.07-18.44,1-14.36.29-28.67-.21-43-.47-13.57-.45-27.15-1.09-40.72-.5-10.79.55-21.56.6-32.34.1-20.68-.49-41.36-1.53-62-.4-7.93-.32-15.86-.49-23.8,0-1.91-.91-3.78-4.21-3.18-3,.57-5.82,2-4.55,4.74A14.41,14.41,0,0,1,682.16,279.38Z" fill="#c2b59b"/>
    <path d="M613.92,242.62c1.26,12.9-.89,25.78,0,38.71,1.17,18.2,1.16,36.45,1.31,54.68.11,13.05-2.9,26.08-1.62,39.11a500.56,500.56,0,0,1,2.17,67.7c-.63,16.83-2.32,33.62-2.49,50.47H622c.5-18.41.92-36.82,2.25-55.2,1-14.36.3-28.67-.2-43-.48-13.57-.46-27.16-1.09-40.72-.51-10.8.53-21.56.59-32.35.1-20.68-.49-41.36-1.53-62-.4-7.92-.31-15.86-.49-23.8,0-1.91-.91-3.78-4.21-3.17-3.05.56-5.81,2-4.54,4.73A14.69,14.69,0,0,1,613.92,242.62Z" fill="#c2b59b"/>
    <path d="M580.67,229.89c1.25,12.9-.89,25.78-.06,38.71,1.17,18.2,1.17,36.45,1.31,54.68.12,13.05-2.9,26.08-1.61,39.11a503.94,503.94,0,0,1,2.17,67.71c-.74,19.83-3,39.62-2.43,59.5,0,1.23,0,2.46,0,3.69h8.42c0-3,0-6,.13-8.93.55-19.67.94-39.36,2.35-59,1-14.36.3-28.67-.2-43-.47-13.57-.45-27.14-1.09-40.71-.5-10.8.54-21.56.6-32.35.09-20.68-.5-41.36-1.54-62-.4-7.92-.31-15.86-.48-23.79,0-1.91-.92-3.79-4.21-3.18-3.05.56-5.83,2-4.55,4.73A14.71,14.71,0,0,1,580.67,229.89Z" fill="#c2b59b"/>
    <path d="M552.52,221.58c1.26,12.89-.89,25.77,0,38.7,1.16,18.2,1.15,36.45,1.3,54.68.11,13.05-2.9,26.08-1.62,39.11a500.65,500.65,0,0,1,2.17,67.71c-.74,19.83-3,39.62-2.42,59.5.11,4,0,8-.21,12h8.67c0-5.75,0-11.51.13-17.26.55-19.67.93-39.35,2.35-59,1-14.36.3-28.67-.2-43-.48-13.57-.45-27.15-1.09-40.72-.51-10.8.53-21.56.59-32.34.1-20.69-.48-41.36-1.54-62-.39-7.93-.3-15.87-.48-23.8,0-1.91-.91-3.79-4.21-3.18-3,.56-5.81,2-4.54,4.74A14.58,14.58,0,0,1,552.52,221.58Z" fill="#c2b59b"/>
    <path d="M486.16,216.37c1.27,12.9-.88,25.78,0,38.7,1.16,18.21,1.16,36.46,1.31,54.69.11,13.05-2.9,26.07-1.62,39.11a500.55,500.55,0,0,1,2.16,67.7c-.74,19.84-3,39.63-2.42,59.51.15,5.73-.13,11.47-.51,17.21h9c0-7.48-.08-15,.13-22.46.55-19.66.93-39.35,2.35-59,1-14.37.3-28.68-.2-43-.47-13.57-.44-27.16-1.09-40.72-.5-10.81.54-21.56.6-32.35.09-20.68-.49-41.36-1.54-62-.39-7.92-.31-15.86-.48-23.8,0-1.91-.91-3.78-4.21-3.17-3.05.56-5.82,2-4.55,4.73A14.22,14.22,0,0,1,486.16,216.37Z" fill="#c2b59b"/>
    <path d="M452.08,221.58c1.26,12.89-.89,25.77-.05,38.7,1.16,18.2,1.16,36.45,1.31,54.68.11,13.05-2.9,26.08-1.61,39.11a502.29,502.29,0,0,1,2.16,67.71c-.74,19.83-3,39.62-2.43,59.5.11,4,0,8-.19,12h8.66c0-5.75,0-11.51.12-17.26.56-19.67.94-39.35,2.36-59,1-14.36.29-28.67-.21-43-.47-13.57-.44-27.15-1.09-40.72-.5-10.8.55-21.56.6-32.34.1-20.69-.49-41.36-1.53-62-.4-7.93-.32-15.87-.49-23.8,0-1.91-.91-3.79-4.21-3.18-3,.56-5.82,2-4.55,4.74A14.36,14.36,0,0,1,452.08,221.58Z" fill="#c2b59b"/>
    <path d="M430.61,428.83l0,0v0Z" fill="#c2b59b"/>
    <path d="M416.65,491.36h0q.15-6,.29-12,.17-6.53.35-13c.12-3.92.24-7.84.39-11.75,0-.47,0-.94.05-1.4.32-8.92.46-17.85.83-26.75s.24-18,.52-27c.31-9.81-.39-19.56-.08-29.33.16-5.36-.39-10.87.06-16,.66-7.46-.64-14.73-.05-21.93.45-5.3-.85-10.64.56-15.78-.74-2.56-.49-5.31-.53-8-.11-5.77-.32-11.51-.21-17.32.1-5.31-.36-10.75-.21-16.1.28-9.21-.63-18.35-.33-27.54q.19-6.25-.1-12.5a7.64,7.64,0,0,1,.31-3.54,11.89,11.89,0,0,0,.73-5,6.17,6.17,0,0,1,.43-3.09c.78-1.41,1.76-2.43,2.95-2.26s1.77,2,2.06,3.74c.19,1.13.06,2.38.62,3.35a10.5,10.5,0,0,0,.55-3.35c.3-3.21,2.08-5.2,3.88-4.37.88.41,1.45,1.05,1.55,2.79A50.27,50.27,0,0,1,430.9,234a45.58,45.58,0,0,0-.57,9.45,24.43,24.43,0,0,1-.43,7.57c-.64,2.48,0,5.15.15,7.68.49,8.08.23,16.15.32,24.22.06,5.25.46,10.49.19,15.73-.37,7.54.23,15-.12,22.59-.29,6.31,0,12.66-.09,19-.17,11.67.1,23.32,0,35-.05,7.2-.09,14.47.35,21.68a67.15,67.15,0,0,1,0,11.6c-.59,4.84.49,9.41-.09,14.07-.15.07-.4.09-.43.23-.13.46.16.55.36.7.72,1.81-.17,3.61,0,5.41-.72.72-.62,1.88-.64,3v-.08c.56,1.12,1,2.76.59,3.73-1.17,2.67-.52,5,.05,7.45.33,1.39-.1,2.56-.15,3.82a64.8,64.8,0,0,0,.23,11.66,3.41,3.41,0,0,1-.3,2.16h0a14.87,14.87,0,0,1-.43,3.55,4.87,4.87,0,0,0-.22,1.93c1.66,3.48.49,7,.17,10.5,0,.34-.05.69-.06,1,0,.51-.36,1.25-.25,1.49,1.51,2.9.15,5.86.12,8.78,0,1.8.07,3.63,0,5.42H416.61C416.63,492.65,416.64,492,416.65,491.36Zm13.63-30.82c-.12-.32-.19-.84-.55-.25Z" fill="#c2b59b"/>
    <path d="M524.06,485.17c0,2.71,0,5.41-.09,8.12H535.2c0-2.85.06-5.69.12-8.54.26-13.88.82-27.75.48-41.64-.11-4.69,0-9.39,0-14.08a103.36,103.36,0,0,1-.14-16.22c.35-8.62.44-17.26,1-25.89q.82-12.48.47-25.08c-.39-14,.59-28.16.73-42.25.14-14.43-.23-28.87,0-43.3.24-21.13.92-42.26-.59-63.37-.08-1.23.13-3.63-1.35-3.36-2.58.48-4-1.51-6-2.47a2.61,2.61,0,0,0-2.26-.3c-2.1.83-4.56.63-3.36,5.19,1,3.7-.11,8.25.24,12a66.3,66.3,0,0,1-.23,13.77c-1.07,9-.28,17.82-.29,26.72,0,4.28.85,8.55.21,12.84v0l.35.88v0c.83,1.23,0,2.55.16,3.85,1.31,10.71.87,21.53.22,32.2-.65,10.93-.8,21.81-.7,32.71.09,11.87.21,23.72.12,35.59,0,7.63.22,15.27.24,22.9,0,10.68-.43,21.34-.84,32C523.18,453.31,524.1,469.23,524.06,485.17Z" fill="#c2b59b"/>
    <path d="M345.86,268.53c1.25,12.9-.89,25.77-.06,38.7,1.17,18.2,1.16,36.45,1.31,54.68.06,6.4-.64,12.8-1.21,19.2-.22,2.51-.43,5-.56,7.55a86.48,86.48,0,0,0,0,9.66c0,.9.11,1.8.2,2.7l.3,3.19q.94,10.28,1.49,20.55.3,5.6.47,11.17.28,9.24.22,18.48c0,3.19-.08,6.37-.17,9.56,0,1.58-.09,3.17-.14,4.76-.25,6.39-.64,12.78-1,19.17-.12,1.8-.23,3.6-.34,5.39h8.4c.23-6.45.5-12.89.86-19.34q.27-5,.63-10c0-.05,0-.1,0-.14.48-6.7.57-13.38.49-20.06-.05-4-.17-8-.31-12-.12-3.61-.26-7.22-.39-10.82q-.17-5-.27-10c0-2.05-.09-4.08-.12-6.12l-.21-9.87q-.09-3.86-.22-7.7-.11-3.53-.27-7c-.5-10.8.54-21.56.59-32.34.1-20.69-.48-41.36-1.53-62-.39-7.92-.31-15.87-.48-23.79-.05-1.91-.92-3.78-4.21-3.18-3.05.56-5.82,2-4.55,4.74A14.6,14.6,0,0,1,345.86,268.53Z" fill="#c2b59b"/>
    <path d="M305.64,314c1.27,12.9-.88,25.78,0,38.7q.36,5.63.58,11.25c.1,2.56.19,5.14.26,7.7.09,3,.15,6,.2,8.94,0,1.69.06,3.38.08,5.07.08,5.81.12,11.62.16,17.43,0,1.43,0,2.87,0,4.3s0,3-.08,4.54c-.14,3.6-.45,7.19-.78,10.79-.25,2.72-.51,5.44-.71,8.16a99.4,99.4,0,0,0-.25,12.91c.05.9.12,1.8.2,2.71q.27,2.76.52,5.52c1.2,13.77,1.88,27.54,2,41.31h8.72c0-9-.41-17.91-.72-26.88-.08-2.24-.14-4.47-.19-6.71-.08-2.7-.13-5.4-.18-8.1-.11-5.28-.19-10.55-.34-15.83-.09-2.9-.19-5.79-.32-8.69,0-.46,0-.93-.05-1.39-.17-3.49-.17-7-.1-10.47.07-2.93.18-5.87.31-8.8.17-4.35.36-8.71.38-13.07,0-1.59,0-3.19,0-4.78s0-3.26,0-4.9c0-3,0-6.06-.08-9.1,0-2.7-.1-5.4-.16-8.1q-.37-17.58-1.29-35.15c-.39-7.93-.31-15.86-.48-23.8-.05-1.91-.91-3.78-4.21-3.17-3.05.55-5.82,2-4.54,4.73A14.32,14.32,0,0,1,305.64,314Z" fill="#c2b59b"/>
    <path d="M273.62,493.29h12.44c-.07-.39-.14-.8-.23-1.19-1.42-6.44,1.93-13.77.07-20.75a1.83,1.83,0,0,1,.2-1c1.77-3.19,1.34-6.45.33-9.85-.72-2.43-.38-5.94.62-6.86,3-2.75,2.84-6.6,1.84-10.08a.5.5,0,0,1,0-.13,19.53,19.53,0,0,1-.78-7.46c0-.34,0-.68,0-1,0-1.45-.25-3-.32-4.45-.08-2,.07-4,.16-6.08a24.45,24.45,0,0,0-.51-7.4c-.11-.43-.25-.85-.4-1.27-.06-.17.21-.63.31-1a38.49,38.49,0,0,0,1.29-8.83c.09-1.09.2-2.19.35-3.26a23.91,23.91,0,0,0,.14-5.13c-.25-3.66-1-7.23-.63-10.77a29.31,29.31,0,0,0,.07-6,20.84,20.84,0,0,0-1.39-5.84,22.55,22.55,0,0,0-5.27-7.6c-.37-.56-.73-1.18-1.12-1.71h0c-.81-1.11-1.69-1.84-2.9-.77a2.93,2.93,0,0,0-.29.31c-1.09,1.34-2.18,4.76-2.64,7.56a8,8,0,0,0,0,3.88,14.62,14.62,0,0,1,.73,1.66,19.05,19.05,0,0,1,.57,10.42,35.2,35.2,0,0,0-1,5.87A79.59,79.59,0,0,0,275,403a105.81,105.81,0,0,1-.13,11.69c-.1,1.14-.26,2.28-.47,3.41l0,0a14.52,14.52,0,0,1,.19,3.37c-.14,3.52-1,7.19.85,10.37a.11.11,0,0,1,0,.08,3.1,3.1,0,0,1-.34,1.44,7.48,7.48,0,0,0-.59,5.54c.11.57.26,1.15.41,1.72a18.06,18.06,0,0,1-.31,9.54,12.45,12.45,0,0,0-.08,8,6.74,6.74,0,0,1,.17,3.43c-1.86,7.49-1.19,15.41-1.92,23.07C272.59,487.6,273.38,490.42,273.62,493.29Z" fill="#c2b59b"/>
    <path d="M386.11,482.27c0,3.68.12,7.35.2,11H398.2l.09-4.47c.11-6.48.15-13,0-19.46-.12-4.55,0-9.11,0-13.67v-.41a66.07,66.07,0,0,1-.38-8.43c0-2.61.15-5.2.25-7.79,0-.87.07-1.73.09-2.6.13-3.36.21-6.74.32-10.11.14-4.39.3-8.78.59-13.18q.81-12.46.46-25.07c-.39-14.06.6-28.17.74-42.26.14-14.43-.23-28.87-.06-43.3.24-21.12.92-42.25-.58-63.36-.09-1.24.12-3.63-1.35-3.36-2.58.47-4.05-1.51-6-2.48a2.65,2.65,0,0,0-2.26-.3c-2.1.84-4.57.63-3.37,5.19,1,3.7-.11,8.25.24,12a66.41,66.41,0,0,1-.23,13.78c-1.06,9-.27,17.81-.28,26.71,0,4.29.85,8.55.2,12.85l0,0,.34.88v0c.83,1.23,0,2.56.16,3.85,1.3,10.72.86,21.53.22,32.21-.65,10.92-.81,21.82-.72,32.7.11,11.87.22,23.72.14,35.6,0,1.62,0,3.25,0,4.87,0,3.15.08,6.32.14,9.48h0c0,2.85.09,5.68.1,8.54v1.63c0,2.38,0,4.77-.08,7.16-.14,7.73-.47,15.47-.76,23.2,0,1-.07,1.93-.1,2.9C386,471.78,386,477,386.11,482.27Z" fill="#c2b59b"/>
    <path d="M658.94,489.18c-.11-4.7,0-9.41,0-14.12v.05a103.35,103.35,0,0,1-.12-16.22c.34-8.63.43-17.27,1-25.89q.81-12.48.46-25.07c-.38-14.06.6-28.17.74-42.27.14-14.42-.23-28.86,0-43.3.23-21.12.92-42.25-.59-63.36-.08-1.24.13-3.62-1.34-3.36-2.59.48-4.06-1.51-6-2.48a2.65,2.65,0,0,0-2.26-.29c-2.12.83-4.57.63-3.38,5.19,1,3.69-.1,8.24.24,12a66.34,66.34,0,0,1-.22,13.77c-1.06,9-.28,17.82-.29,26.72,0,4.28.85,8.54.21,12.84v0l.35.88v0c.83,1.23,0,2.56.16,3.85,1.3,10.72.87,21.53.22,32.22-.65,10.91-.8,21.81-.71,32.7.09,11.86.21,23.72.13,35.59,0,7.63.22,15.27.24,22.9,0,10.67-.43,21.33-.84,32-.12,3.27-.18,6.54-.2,9.82H659C659,491.92,659,490.55,658.94,489.18Z" fill="#c2b59b"/>
    <path d="M765.56,493.29h9c.25-3.2-.23-6.39.74-9.58,1-3.51.31-7,.72-10.56.55-4.95.93-9.9,2.34-14.85,1-3.62.3-7.23-.19-10.84-.48-3.42-.45-6.84-1.09-10.26-.51-2.72.54-5.43.59-8.14a72.61,72.61,0,0,0-1.53-15.63,57.56,57.56,0,0,1-.49-6c0-.49-.91-.95-4.21-.81-3.05.14-5.81.5-4.54,1.2a2.13,2.13,0,0,1,1.14,1.23c1.26,3.25-.88,6.49,0,9.75,1.17,4.58,1.16,9.18,1.31,13.77.12,3.29-2.89,6.57-1.61,9.86a33,33,0,0,1,2.16,17.05c-.74,5-3,10-2.42,15,.24,2.29-.6,4.59-1.26,6.88-.38,1.39,1.68,2.77.26,4.16h.06Z" fill="#c2b59b"/>
    <path d="M240.7,493.29a16.85,16.85,0,0,0-.24-7.13c-.63-2.45-1.2-4.87.18-7.26a2.76,2.76,0,0,0,.32-1.53c-2.39-4.2-.18-9.27-1-13.73l0,0c1.64-8.8-.38-18,1.29-27,.15-.81.33-1.62.55-2.43a16.64,16.64,0,0,0,.47-4.22,17.76,17.76,0,0,0-1.77-7.86,3.32,3.32,0,0,1-.24-1.4,23.37,23.37,0,0,1,1.29-6.71,9.45,9.45,0,0,1,1.86-3.64c1.79-1.59,2.9.78,4,2.5h0l.65.65a21,21,0,0,1,6.11,16.16c0,.83-.08,1.69-.18,2.59a22.37,22.37,0,0,0,0,4c.25,3.87,1.12,7.8.52,11.88s-.4,8.27-1.65,12.09c-.1.34-.37.8-.31,1,1.76,4.72.55,9.83.76,14.75a44.19,44.19,0,0,1,.27,5.48,19.65,19.65,0,0,0,.82,7.59,14.81,14.81,0,0,1,.64,4.2Z" fill="#c2b59b"/>
    <polygon points="217.01 379.96 217.01 379.95 217.06 379.95 217.01 379.96" fill="#c2b59b"/>
    <polygon points="255.78 376.83 255.81 376.83 255.75 376.83 255.78 376.83" fill="#c2b59b"/>
  </g>
  <path d="M632.66,322.06s0,0,0,0m-3.38,1.21a.05.05,0,0,0,0,0l0,0v0m-2.8-2.2s-.06,0-.09.06.1.05.13,0,0-.08,0-.09m60.92-43.68a.69.69,0,0,1-.28,1,7.14,7.14,0,0,1-1.4.64c-.12,0-.39.08-.11.23.62.33.15.62.28.92.24.53-.26.37-.51.48s-.51.13-.56.4a.33.33,0,0,1-.35.29c-.81-.07-.72.62-.9,1a1.16,1.16,0,0,1-.61.66,25.8,25.8,0,0,0-3.36,2.13c-.78.51-1.46,1.13-2.25,1.62-.29.18-.69.07-.92.28l-.23.15c-.21.49-.34,1.07-1.15,1-.16.59-1.13.32-1.24,1a.36.36,0,0,1-.19.24,8.47,8.47,0,0,0-2.29,1.71.51.51,0,0,1-.55.13c-.67.48-1,1.3-1.9,1.55a3.34,3.34,0,0,0-1.36.95,10.37,10.37,0,0,1-1.21.88,3.48,3.48,0,0,0-.72.6c-.44.46-.86,1.08-1.5,1.2s-1.12.25-1.23.89a.26.26,0,0,1-.34.14.37.37,0,0,0-.47.13c-.34.79-1.37,1-1.72,1.65-.48.9-1.56,1.08-2.19,1.76a6,6,0,0,1-1.48,1.26,7.63,7.63,0,0,0-2.25,2,9.35,9.35,0,0,1-1.92,1.51.9.9,0,0,1-.63.22h-.07c-.08.16-.11.39-.26.47-1.29.75-2,2.11-3.41,2.72-.38.16-.39.58-.68.82a19.23,19.23,0,0,0-3.43,3.12,1.54,1.54,0,0,1-1.17.62c-.09,0-.2-.05-.19.07.09.8-.65,1-1.08,1.34a63.16,63.16,0,0,0-4.69,4.41c-.79.88-1.61,1.71-2.45,2.53a2.74,2.74,0,0,1-.92.51c-.62.22-.61.24-.92-.48h0a3.78,3.78,0,0,1-2.74,1.45.57.57,0,0,1-.51-.17,2.56,2.56,0,0,1-.27-.05c-.8-.33-.86-.44-.52-1,.06-.11.28-.2.11-.33s-.17.14-.25.22-.53.15-.8.21c-.51.14-.85.5-1.38.6-.25,0-.51.15-.75-.15s-.45-.67-.15-.95.39-.61.9-.58c.06,0,.09-.12.14-.18h0c.09-.41.6-.5.66-1,0-.22.11-.32-.12-.57-.41-.47-.41-.83,0-1.17,1.17-1,2.35-2,3.54-3a6.71,6.71,0,0,1,1.57-.95c.34-.15.43-.57.7-.83,1.42-1.32,3.11-2.36,4.61-3.6s2.75-2.27,4.14-3.39c.81-.65,1.51-1.45,2.34-2.08,1.57-1.19,3-2.57,4.63-3.66.47-.3.78-.84,1.27-1.16a14.47,14.47,0,0,0,2.22-1.64,25.54,25.54,0,0,1,2.82-2.36c.93-.67,1.71-1.47,2.64-2.13a14.54,14.54,0,0,0,1.78-1.64,3.68,3.68,0,0,1,1.33-.82c.39-.15.6-.58.91-.87s.45-1.05,1.32-.8c0-.36.45-.45.58-.72.23-.48.84-.53,1.12-.94.15-.22.4.09.59.1s.56.23.27-.31.15-.79.78-.66c.26.06.36,0,.32-.22-.09-.38,0-.55.43-.5.13,0,.29,0,.26-.13-.21-.83.73-.69,1-1.14.06-.1.21-.08.32,0,.31.28.41.18.39-.09,0-.52.32-.73.66-.91,1.1-.59,1.92-1.48,3-2.08,1.45-.82,2.64-1.93,4-2.81a15.06,15.06,0,0,0,2.11-1.81,3.61,3.61,0,0,1,1.83-1,4.91,4.91,0,0,0,2-1.21.92.92,0,0,1,.77-.25,1.21,1.21,0,0,1,.84.5c.18.32.27.69,0,.89a3.28,3.28,0,0,0-.94,1.39c-.22.48-.86.73-1.33,1.07l-1.24.85a.45.45,0,0,0-.19.14.33.33,0,0,0,.06.4c.14.13.22,0,.29-.07a18.05,18.05,0,0,1,3.24-1.94c.63-.35,1.29-.68,1.94-1a1.64,1.64,0,0,1,.39-.14,1,1,0,0,1,1.19.44" fill="#a97c50"/>
  <path d="M630.82,282.9h0m-1.3-2.83,0,0,0,0h0m2.33-2.6s0-.05-.06-.08,0,.1,0,.12.09,0,.1,0m46.75,49.27a.8.8,0,0,1-1-.16c-.21-.41-.58-.7-.7-1.16,0-.1-.08-.33-.24-.08-.34.57-.65.18-1,.32-.56.25-.4-.2-.51-.41s-.14-.43-.43-.45-.32-.13-.3-.28c.07-.71-.67-.57-1.12-.7a1,1,0,0,1-.7-.47,19.92,19.92,0,0,0-2.29-2.74c-.54-.64-1.2-1.17-1.73-1.82-.19-.24-.08-.59-.3-.77l-.16-.19c-.53-.15-1.14-.21-1-.92-.62-.09-.34-1-1-1a.35.35,0,0,1-.26-.15,7.11,7.11,0,0,0-1.83-1.84.37.37,0,0,1-.14-.47c-.51-.54-1.39-.76-1.66-1.52a2.61,2.61,0,0,0-1-1.1,7.32,7.32,0,0,1-.95-1,3.47,3.47,0,0,0-.63-.58c-.5-.34-1.16-.66-1.3-1.19s-.26-1-.95-1a.21.21,0,0,1-.15-.29c.08-.19,0-.35-.14-.39-.83-.23-1-1.11-1.76-1.36-1-.34-1.15-1.26-1.88-1.75A5.35,5.35,0,0,1,652,302.1a6.34,6.34,0,0,0-2.11-1.78,8.15,8.15,0,0,1-1.61-1.55.6.6,0,0,1-.23-.53h0v-.06c-.17-.06-.41-.07-.5-.18-.8-1.07-2.25-1.56-2.91-2.74-.18-.32-.62-.29-.88-.53a17,17,0,0,0-3.33-2.72,1.13,1.13,0,0,1-.66-1c0-.08.05-.18-.08-.16-.86.15-1-.49-1.43-.82a55.56,55.56,0,0,0-4.72-3.72q-1.4-.92-2.7-1.92a1.79,1.79,0,0,1-.54-.75c-.24-.52-.27-.51.5-.84h0a2.9,2.9,0,0,1-1.57-2.26.5.5,0,0,1,.19-.45.69.69,0,0,1,0-.24c.35-.72.46-.78,1.05-.53.11,0,.22.22.35.06s-.15-.13-.23-.19-.16-.45-.23-.67c-.15-.44-.54-.7-.65-1.15,0-.22-.16-.44.16-.67s.71-.44,1-.2.66.29.63.73c0,.05.12.07.18.11h0c.43.06.53.49,1,.5.24,0,.34.06.61-.15.5-.4.88-.42,1.25-.1,1.07.93,2.14,1.87,3.18,2.83a5.13,5.13,0,0,1,1,1.28c.15.28.6.32.87.54,1.42,1.12,2.53,2.51,3.86,3.7s2.42,2.21,3.62,3.32c.7.65,1.55,1.19,2.23,1.86,1.27,1.26,2.74,2.35,3.91,3.72.33.38.9.6,1.24,1a12.4,12.4,0,0,0,1.75,1.8,20.31,20.31,0,0,1,2.54,2.25c.71.75,1.56,1.37,2.27,2.11a12.86,12.86,0,0,0,1.76,1.42,3,3,0,0,1,.87,1.08c.16.33.62.48.94.72s1.11.31.85,1.08c.38,0,.48.36.77.45.51.15.57.68,1,.89.24.11-.1.35-.11.52s-.24.5.33.21.85.06.71.62c0,.23,0,.31.24.26.4-.11.59,0,.53.33,0,.11,0,.25.15.21.88-.24.73.58,1.21.76.11,0,.09.17,0,.28-.3.28-.18.37.1.32a.93.93,0,0,1,1,.51c.62.9,1.58,1.54,2.22,2.42.88,1.19,2.07,2.13,3,3.27a12.59,12.59,0,0,0,1.94,1.68,2.83,2.83,0,0,1,1.05,1.52c.16.71.8,1.11,1.28,1.61.18.18.34.34.28.64a1.11,1.11,0,0,1-.54.78c-.33.18-.73.29-.94.08a3.41,3.41,0,0,0-1.48-.71c-.52-.15-.78-.69-1.15-1.06s-.6-.67-.9-1c0-.05-.09-.12-.15-.15a.43.43,0,0,0-.44.08c-.13.13,0,.19.08.25a13.66,13.66,0,0,1,2.08,2.65c.38.52.72,1.06,1.08,1.6a1.26,1.26,0,0,1,.16.33.89.89,0,0,1-.47,1.06" fill="#a97c50"/>
  <path d="M401.93,410.3h0m-3.38,1.2,0,0,0,0v0m-2.79-2.19a.15.15,0,0,0-.1.06s.11,0,.13,0,0-.09,0-.09m60.91-43.68a.68.68,0,0,1-.28,1,6.63,6.63,0,0,1-1.4.65c-.12,0-.39.08-.11.22.62.33.15.62.29.93.24.53-.27.37-.52.47s-.51.14-.56.41a.31.31,0,0,1-.35.28c-.81-.07-.72.63-.9,1.05a1.14,1.14,0,0,1-.61.65,25.87,25.87,0,0,0-3.36,2.14c-.78.5-1.45,1.12-2.25,1.62-.29.17-.69.07-.92.28l-.23.15c-.21.49-.34,1.06-1.14,1-.16.58-1.14.31-1.25.95a.36.36,0,0,1-.19.24,8.85,8.85,0,0,0-2.28,1.71.53.53,0,0,1-.56.13c-.67.48-1,1.31-1.9,1.56a3.23,3.23,0,0,0-1.36.94,8.2,8.2,0,0,1-1.21.89,3.71,3.71,0,0,0-.72.59c-.44.47-.86,1.08-1.5,1.21s-1.12.24-1.23.89a.27.27,0,0,1-.34.14.34.34,0,0,0-.46.13c-.35.78-1.37,1-1.73,1.65-.48.9-1.55,1.07-2.19,1.75a5.88,5.88,0,0,1-1.48,1.27,7.46,7.46,0,0,0-2.25,2,8.72,8.72,0,0,1-1.92,1.51.8.8,0,0,1-.63.22h-.07c-.08.16-.11.38-.26.47-1.29.74-2,2.11-3.41,2.72-.38.16-.39.58-.68.82a18.86,18.86,0,0,0-3.43,3.12,1.49,1.49,0,0,1-1.17.61c-.09,0-.2,0-.19.07.1.81-.65,1-1.07,1.35a59.47,59.47,0,0,0-4.7,4.41c-.78.87-1.61,1.71-2.45,2.53a2.48,2.48,0,0,1-.92.5c-.62.23-.61.25-.92-.47v0a3.77,3.77,0,0,1-2.74,1.46.6.6,0,0,1-.51-.18.86.86,0,0,1-.27-.05c-.8-.32-.86-.43-.52-1,.06-.1.28-.2.11-.32s-.17.14-.25.22-.53.14-.79.21c-.52.13-.86.5-1.38.6-.26,0-.52.15-.76-.15s-.44-.67-.15-.95.4-.62.9-.59c.06,0,.09-.11.14-.17h0c.1-.4.6-.5.66-1,0-.23.11-.32-.11-.57-.42-.48-.41-.83,0-1.18,1.17-1,2.34-2,3.53-3a7.09,7.09,0,0,1,1.57-1c.34-.15.43-.57.7-.82,1.42-1.33,3.12-2.36,4.61-3.61s2.76-2.26,4.14-3.38c.81-.66,1.51-1.45,2.34-2.08,1.57-1.2,3-2.57,4.63-3.66.48-.31.78-.84,1.27-1.16a14.47,14.47,0,0,0,2.22-1.64A23.84,23.84,0,0,1,424,384c.92-.67,1.71-1.46,2.63-2.12a16.43,16.43,0,0,0,1.79-1.65,3.67,3.67,0,0,1,1.32-.81c.4-.15.61-.59.91-.88s.45-1,1.32-.79c.05-.37.46-.46.58-.73.23-.48.84-.53,1.12-.93.15-.23.4.09.59.1s.57.23.27-.31.15-.79.78-.66c.26.05.37,0,.32-.22-.09-.38,0-.55.43-.5.13,0,.29,0,.26-.14-.21-.82.73-.68,1-1.13.06-.11.22-.08.33,0,.3.28.4.17.38-.1,0-.51.33-.73.67-.91,1.1-.58,1.91-1.48,3-2.08,1.46-.82,2.64-1.93,4-2.8a15.76,15.76,0,0,0,2.11-1.81,3.61,3.61,0,0,1,1.84-1,4.85,4.85,0,0,0,2-1.2.9.9,0,0,1,.77-.25,1.15,1.15,0,0,1,.84.5c.18.31.27.68,0,.89a3.31,3.31,0,0,0-.94,1.38c-.22.49-.86.73-1.33,1.07s-.83.57-1.24.85c-.06.05-.15.08-.18.14a.32.32,0,0,0,.05.41c.14.12.22,0,.29-.08a18.12,18.12,0,0,1,3.24-1.93c.63-.36,1.29-.68,1.94-1a1.32,1.32,0,0,1,.39-.15,1.06,1.06,0,0,1,1.19.45" fill="#a97c50"/>
  <path d="M400.09,371.13h0m-1.3-2.82,0,0,.05,0h0m2.33-2.6s0-.06-.06-.08-.05.09,0,.12.1,0,.1,0M447.87,415a.8.8,0,0,1-1-.17c-.21-.4-.58-.69-.69-1.16,0-.1-.09-.33-.24-.08-.35.57-.66.18-1,.33-.56.25-.39-.2-.5-.41s-.15-.43-.44-.45-.32-.13-.3-.28c.07-.71-.67-.58-1.12-.7a1.11,1.11,0,0,1-.7-.47,21.33,21.33,0,0,0-2.28-2.75c-.55-.63-1.21-1.17-1.74-1.82-.19-.23-.08-.59-.3-.77l-.16-.19c-.52-.14-1.13-.21-1-.91-.62-.1-.34-1-1-1a.34.34,0,0,1-.26-.14,7,7,0,0,0-1.83-1.84.39.39,0,0,1-.14-.47c-.51-.54-1.39-.77-1.66-1.53a2.67,2.67,0,0,0-1-1.1,6.77,6.77,0,0,1-.95-1,3.15,3.15,0,0,0-.63-.57c-.5-.34-1.16-.66-1.3-1.2s-.26-.95-1-1a.2.2,0,0,1-.15-.28c.09-.2,0-.35-.14-.39-.83-.24-1-1.11-1.76-1.37-1-.34-1.15-1.26-1.88-1.75a5.1,5.1,0,0,1-1.35-1.18,6.47,6.47,0,0,0-2.11-1.79,7.44,7.44,0,0,1-1.62-1.55.6.6,0,0,1-.23-.52h0v-.05c-.17-.06-.41-.07-.5-.19-.8-1.06-2.25-1.55-2.91-2.74-.17-.31-.62-.29-.88-.52a16.35,16.35,0,0,0-3.33-2.72,1.18,1.18,0,0,1-.66-1c0-.07.05-.18-.07-.16-.86.15-1-.48-1.44-.82a52.09,52.09,0,0,0-4.72-3.71c-.93-.61-1.82-1.26-2.7-1.92a2,2,0,0,1-.54-.76c-.24-.52-.26-.5.5-.83h0a2.86,2.86,0,0,1-1.56-2.25.47.47,0,0,1,.18-.46.86.86,0,0,1,.05-.23c.35-.73.46-.78,1.06-.54.11.05.21.23.34.07s-.15-.13-.23-.2-.16-.45-.23-.67c-.14-.43-.53-.7-.64-1.15-.06-.21-.17-.43.15-.66s.72-.44,1-.21.66.29.63.73c0,.05.12.07.19.11h0c.43.05.54.48,1,.49.24,0,.34.07.61-.14.51-.4.88-.42,1.25-.1,1.07.93,2.14,1.87,3.18,2.82a5.32,5.32,0,0,1,1,1.28c.16.28.61.33.88.55,1.41,1.12,2.52,2.5,3.85,3.7s2.42,2.2,3.62,3.31c.7.65,1.55,1.19,2.23,1.86,1.27,1.27,2.75,2.36,3.91,3.72.33.39.9.61,1.24,1a11.1,11.1,0,0,0,1.76,1.8,21,21,0,0,1,2.53,2.26c.71.74,1.56,1.36,2.27,2.11a13.59,13.59,0,0,0,1.76,1.41,2.91,2.91,0,0,1,.87,1.09c.17.33.62.47.94.72s1.11.3.85,1.07c.38,0,.49.36.77.45.51.16.57.69,1,.89.24.12-.09.36-.1.52s-.24.51.33.21.84.07.71.62c-.06.23,0,.32.23.26.4-.11.59,0,.53.34,0,.11,0,.24.15.21.88-.25.73.58,1.21.75.11,0,.09.18,0,.28-.3.29-.18.37.11.33a.9.9,0,0,1,1,.5c.62.91,1.58,1.54,2.22,2.42.88,1.2,2.07,2.13,3,3.28a14.36,14.36,0,0,0,1.94,1.68,2.77,2.77,0,0,1,1.05,1.51c.16.72.8,1.12,1.29,1.61a.69.69,0,0,1,.27.65,1.1,1.1,0,0,1-.54.77c-.33.19-.72.29-.94.08a3.29,3.29,0,0,0-1.48-.7c-.52-.16-.78-.69-1.14-1.07s-.61-.67-.91-1c0-.06-.08-.13-.15-.15a.41.41,0,0,0-.43.08c-.14.13,0,.19.08.24A14.67,14.67,0,0,1,447.1,412c.38.52.73,1.07,1.08,1.61a1,1,0,0,1,.16.32.89.89,0,0,1-.47,1.07" fill="#a97c50"/>
</svg>
