<svg id="Layer_1" data-name="Layer 1" xmlns="http://www.w3.org/2000/svg" viewBox="0 0 1440 490">
  <path d="M1015.23,334c-.13,2.93-.31,5.87-.29,8.71q.06,8.87.1,17.72h0c0,3.77,0,7.55.05,11.32h0q.06,19.8,0,39.62h0c0,4.1,0,8.18,0,12.28q0,20.22-.12,40.44l0,8.77,0,6c0,3.71,0,7.41-.07,11.11H999.52q0-4.47,0-8.94,0-9.82,0-19.65c.07-8.63.26-17.25.5-25.89h0q.21-6.93.44-13.86h0c.46-13.78,1-27.54,1.3-41.33h0l.09-4c0-2.76.14-5.57.08-8.39h0a42.5,42.5,0,0,0-1.6-11.71l-.06.11c1.54-5,.25-10.51.09-15.83a18.2,18.2,0,0,1,1.39-8.39c.08-2.07.32-4.18.32-6.22,0-.32,0-.64,0-.95s0-.43,0-.65c-.87-11.66,1-14.74,6.91-10.84,1.3.86,3-.14,3.89,2.69l-.09.21.09-.08a21.26,21.26,0,0,1,1.47,3.81C1015.5,324.42,1015.44,329.21,1015.23,334Z" fill="#c2b59b"/>
  <path d="M1046.56,484.45c0,1.85,0,3.7-.08,5.55h-12.7c0-1.92,0-3.82,0-5.74h0q0-5.55-.12-11.1-.08-5.91-.21-11.84-.14-6.21-.34-12.42c-.2-5.81-.45-11.63-.79-17.44-.11-1.88-.22-3.77-.35-5.65s-.22-4-.25-5.93-.06-4.08,0-6.12c0-3.72.18-7.44.34-11.16.21-4.57.44-9.14.55-13.71.09-3.31.12-6.62,0-9.94-.09-3-.26-5.95-.56-8.92a21.81,21.81,0,0,0-1.4-6.3c-.1-.24-.21-.49-.33-.73-1.93-4,2.26-6,6.87-6.83,3.64-.63,5.32.63,6,2.43a6.69,6.69,0,0,1,.37,2.15c.22,9.39.17,18.79.49,28.18q.09,3.06.25,6.12c0,.88.09,1.77.14,2.65l.06,1.13c.12,2.49.25,5,.36,7.46,0,.5,0,1,.07,1.49q.2,4.22.36,8.44.54,12.63.86,25.28c.09,3.76.18,7.53.25,11.3.05,3.22.1,6.45.14,9.67s.06,6.38.07,9.57Q1046.59,478.24,1046.56,484.45Z" fill="#c2b59b"/>
  <path d="M1080.3,490h-13.11c0-1.12-.06-2.25-.1-3.37q-.19-5.88-.49-11.75-.31-6.24-.76-12.49c0-.54-.08-1.08-.1-1.62-.15-2.59-.21-5.17-.2-7.75,0-3,.11-6,.24-9.07.14-3.4.33-6.79.48-10.19.21-4.8.36-9.6.22-14.41-.08-2.75-.25-5.51-.56-8.27a27,27,0,0,0-.41-2.7,14,14,0,0,0-1.32-3.76,3.08,3.08,0,0,1-.27-2.74c.79-1.91,3.86-3,7.14-3.54,2.9-.46,4.55.18,5.44,1.29a4.75,4.75,0,0,1,.92,2.92c.15,5.77.18,11.54.27,17.31,0,1.59.06,3.18.1,4.77,0,.49,0,1,0,1.46,0,1,.06,2.07.11,3.11,0,.52,0,1,.06,1.55,0,1.12.1,2.24.16,3.36.12,2.12.24,4.23.35,6.35q.2,3.66.38,7.32.19,3.95.36,7.91.27,6.29.49,12.56t.37,12.65C1080.19,483.93,1080.25,487,1080.3,490Z" fill="#c2b59b"/>
  <path d="M989,490H974.19c-.15-1.67-.3-3.34-.46-5a126.65,126.65,0,0,1-.31-17.85c.29-6.6.92-13.21,1.5-19.82h0c.69-7.78,1.32-15.55,1.25-23.34-.06-7.31-.1-14.62-.16-21.93,0-4.7-.08-9.39-.16-14.08-.14-11.12-.39-22.25-.84-33.36q-.32-7.55-.77-15.1c0-.28,0-.56,0-.84a240,240,0,0,1,0-24.73c.13-3.26.28-6.51.4-9.76.2-5.62.33-11.23.17-16.85-.09-3-.26-6-.54-9,0-.51-.1-1-.16-1.53a21,21,0,0,0-1.57-6.08c-1.93-4.3,2.26-6.51,6.87-7.38,5-1,6.3,2,6.36,4.95,0,1.14.05,2.28.06,3.42.06,3.52.1,7,.13,10.55.06,5.33.12,10.65.28,16,.06,2.4.15,4.79.27,7.19l.09,2q.6,12.2,1,24.39.29,7.53.5,15.06h0q.43,15.15.6,30.3.07,6.57.1,13.15,0,6,0,11.89c-.05,10.42-.68,20.83-1,31.25-.14,4.9-.2,9.79-.09,14.69,0,1.51.08,3,.15,4.52C988.5,465.06,988.72,477.53,989,490Z" fill="#c2b59b"/>
  <path d="M887.37,490H874.15q-.31-16.29-1.3-32.55h0q-.89-14.9-2.31-29.8c-.29-3.08-.44-6.17-.46-9.25-.08-6.25.3-12.49.81-18.74.72-8.87,1.69-17.75,2-26.64.08-2.12.12-4.25.1-6.38,0-3.52-.05-7-.08-10.57q-.06-9.27-.15-18.54c-.19-18.75-.59-37.49-1.75-56.2-1.27-20.17,2-40.26.08-60.38a23.6,23.6,0,0,0-1.73-7.61c-1.93-4.31,2.26-6.51,6.87-7.39,5-.94,6.3,2,6.36,5,.27,12.37.14,24.76.74,37.13,1.23,25.13,2,50.28,2.26,75.44q.09,9.18.06,18.37c0,1,0,2,0,3,0,4.14-.13,8.27-.27,12.4-.28,7.91-.68,15.81-.8,23.72-.08,4.71-.05,9.42.16,14.13,0,.07,0,.14,0,.21.55,11.91.77,23.82,1,35.74h0c.16,9.13.33,18.26.64,27.38h0c0,.13,0,.26,0,.39C886.74,469.2,887.17,479.6,887.37,490Z" fill="#c2b59b"/>
  <path d="M837.1,490H824q.06-8.89-.1-17.78-.25-14.85-1.06-29.69h0q-.9-16.93-2.51-33.86c0-.29-.05-.59-.08-.88-1.94-20.33,2.61-40.65,2.44-61-.23-28.44-.22-56.91-2-85.31-1.27-20.17,2-40.26.08-60.38a23.36,23.36,0,0,0-1.74-7.61,4,4,0,0,1,.14-4c1.18-1.75,3.88-2.8,6.74-3.35,4.08-.77,5.7,1,6.18,3.35a7.79,7.79,0,0,1,.18,1.61c.27,12.37.14,24.76.74,37.13,1.58,32.24,2.46,64.5,2.32,96.76-.09,16.83-1.67,33.62-.9,50.46.17,3.65.3,7.31.42,11,.3,9.45.46,18.9.64,28.36.14,7.21.28,14.43.51,21.64,0,.86.05,1.71.08,2.57.37,11.05.83,22.08,1,33.11C837.21,478,837.23,484,837.1,490Z" fill="#c2b59b"/>
  <path d="M794,490H781.83c-.21.6-.41,1.2-.61,1.8,0-.6,0-1.2,0-1.8a812.25,812.25,0,0,0-3.57-95.2c-1.94-20.33,2.61-40.65,2.44-61-.23-28.44-.22-56.91-2-85.31-1.24-19.73,1.84-39.37.2-59l-.12-1.33a23.36,23.36,0,0,0-1.74-7.61c-1.92-4.31,2.27-6.51,6.88-7.39,5-.94,6.3,2,6.36,5,.08,3.79.13,7.58.17,11.37.09,8.59.15,17.18.57,25.75,1.58,32.25,2.46,64.51,2.32,96.77-.09,16.82-1.67,33.61-.9,50.46,1,21.17.93,42.35,1.65,63.52.35,10.62.79,21.23,1,31.85S794.68,479.24,794,490Z" fill="#c2b59b"/>
  <path d="M693.5,484.92c-.12,1.69-.23,3.38-.34,5.08H680.69a803.25,803.25,0,0,0-3.35-103.31c-1.93-20.34,2.62-40.65,2.44-61-.22-28.45-.21-56.91-2-85.32-1.27-20.16,2-40.25.07-60.37a23.09,23.09,0,0,0-1.73-7.61c-1.93-4.31,2.26-6.52,6.87-7.39,5-1,6.3,2,6.37,4.95.26,12.38.13,24.76.73,37.13,1.59,32.25,2.47,64.5,2.32,96.77-.08,16.82-1.66,33.61-.9,50.46,1,21.16.94,42.35,1.65,63.52C693.94,440.19,695.07,462.52,693.5,484.92Z" fill="#c2b59b"/>
  <path d="M642.15,490H629.37a812.25,812.25,0,0,0-3.57-95.2c-1.94-20.33,2.61-40.65,2.44-61-.23-28.44-.22-56.91-2-85.31-1.27-20.17,2-40.26.07-60.38a23.09,23.09,0,0,0-1.73-7.61c-1.92-4.31,2.27-6.51,6.88-7.39,5-.94,6.29,2,6.36,5,.27,12.37.14,24.76.73,37.12,1.59,32.25,2.47,64.51,2.33,96.77-.09,16.82-1.67,33.61-.9,50.46,1,21.17.93,42.35,1.64,63.52C642.37,447.3,643.42,468.61,642.15,490Z" fill="#c2b59b"/>
  <path d="M594,461.54c.35,6,.72,12.49.05,18.1A60.89,60.89,0,0,0,594,490H576.05c.1-8.15.14-16.3.38-24.43.47-15.32-.58-30.51-.13-45.77.25-8.36-.59-16.95.1-25,1-11.65-1-23-.07-34.22.67-8.27-1.29-16.6.84-24.61-1.11-4-.74-8.29-.81-12.47-.15-9-.48-18-.3-27,.15-8.28-.56-16.76-.32-25.13.42-14.36-1-28.62-.51-43,.21-6.51.15-13-.15-19.48-.09-1.85-.28-3.89.46-5.54,1.08-2.4,1.12-5.09,1.12-7.86,0-1.64-.13-3.38.64-4.82,1.18-2.2,2.67-3.8,4.46-3.52,2,.31,2.69,3.1,3.12,5.83.28,1.76.1,3.72.94,5.23a16.56,16.56,0,0,0,.83-5.23c.47-5,3.16-8.11,5.88-6.81,1.32.63,2.19,1.63,2.34,4.34a81.68,81.68,0,0,1-.56,16.91,71.86,71.86,0,0,0-.86,14.72A39.74,39.74,0,0,1,592.8,234c-1,3.88,0,8.05.21,12,.75,12.59.35,25.19.49,37.78.09,8.18.7,16.37.3,24.54-.57,11.76.34,23.47-.19,35.24-.44,9.83,0,19.74-.14,29.61-.25,18.2.15,36.38,0,54.57C593.43,439,593.37,450.29,594,461.54Z" fill="#c2b59b"/>
  <path d="M756.1,341c-.21,22-1.7,44-1.11,65.92q.53,19.68-.7,39.12c-.85,13.46-1,26.93-1.51,40.39,0,1.18-.09,2.37-.13,3.56H735.91c.1-5,.16-10.09.14-15.13,0-11.91-.44-23.83-.36-35.73.12-18.52-.05-37-.2-55.52-.14-17,.09-34,1.08-51,1-16.67,1.64-33.54-.34-50.25-.24-2,1-4.09-.24-6v.06l-.52-1.37,0,.06c1-6.7-.32-13.35-.31-20,0-13.88-1.18-27.68.43-41.68a106.45,106.45,0,0,0,.34-21.48c-.52-5.88,1.11-13-.36-18.76-1.81-7.1,1.91-6.79,5.1-8.1a3.92,3.92,0,0,1,3.42.47c2.91,1.51,5.13,4.6,9,3.87,2.22-.42,1.91,3.3,2,5.24q.51,7.41.81,14.82c1.17,28,.38,56,.07,84C755.76,296,756.32,318.49,756.1,341Z" fill="#c2b59b"/>
  <path d="M480.74,490H467q-.75-11-1.8-21.95c-1.94-20.34,2.61-40.66,2.44-61-.22-28.44-.22-56.91-2-85.31-1.26-20.16,2-40.25.08-60.38a23.09,23.09,0,0,0-1.73-7.61c-1.93-4.3,2.26-6.51,6.87-7.38,5-.95,6.3,2,6.37,5,.26,12.38.13,24.76.73,37.13,1.58,32.24,2.46,64.5,2.32,96.77-.08,16.82-1.66,33.61-.9,50.46C480.19,453.76,480.28,471.89,480.74,490Z" fill="#c2b59b"/>
  <path d="M419.46,456.08c-.06,11.31-.79,22.61-1,33.92h-12c.26-4,.41-8.05.38-12.08-.23-28.45-.22-56.91-2-85.31-1.27-20.17,2-40.26.07-60.38a23.09,23.09,0,0,0-1.73-7.61c-1.92-4.31,2.27-6.52,6.88-7.39,5-1,6.29,2,6.36,4.95.27,12.38.14,24.76.74,37.13C418.72,391.56,419.6,423.81,419.46,456.08Z" fill="#c2b59b"/>
  <path d="M379.71,470.59c-.89,6.25-.6,12.9-2.48,18.87a4.6,4.6,0,0,1-.21.54H358.34c1.33-13.53-1.41-27.57,2.13-41.2,1.28-4.92,1-13-2-18.84-1.4-2.77,1.58-15.72,4.41-18.33,2.68-2.47,4.38,1.21,6.08,3.89h0c6.91,7.05,11.46,15.69,10,30.27C378.14,453.87,380.94,462,379.71,470.59Z" fill="#c2b59b"/>
  <path d="M548.13,382c-.21,22-1.7,44-1.11,65.93q.53,19.68-.7,39.11c-.06,1-.12,2-.17,3h-18.4q-.06-5,0-9.91c.12-18.51-.05-37-.2-55.52-.14-17,.09-34,1.08-51,1-16.68,1.64-33.54-.34-50.25-.24-2,1-4.1-.24-6v.07l-.53-1.38,0,.07c1-6.7-.32-13.35-.31-20,0-13.89-1.17-27.68.43-41.68a107.17,107.17,0,0,0,.35-21.48c-.53-5.89,1.1-13-.37-18.76-1.81-7.11,1.91-6.8,5.1-8.1a3.92,3.92,0,0,1,3.42.46c2.91,1.51,5.13,4.61,9,3.87,2.22-.42,1.91,3.3,2,5.25,2.27,32.92,1.24,65.89.88,98.85C547.79,336.93,548.35,359.45,548.13,382Z" fill="#c2b59b"/>
  <path d="M942.78,293.63q0,6.14,0,12.27-.08,9.3-.21,18.61-.07,4.86-.14,9.72c0,3.7-.1,7.41-.14,11.11-.07,5.72-.08,11.45-.07,17.17q0,8.81.1,17.59c.07,10.93.15,21.86.05,32.79-.05,4.83-.16,9.66-.29,14.49-.2,7.23-.46,14.45-.66,21.68h0c-.27,9.93-.43,19.84-.17,29.75.1,3.74.15,7.46.16,11.18H921.93q0-12.35-.16-24.67h0c0-3.27,0-6.55-.07-9.82-.14-17,.09-34,1.08-51l.24-4.23c.36-6.63.64-13.3.69-20h0a206.21,206.21,0,0,0-1.27-26,14.84,14.84,0,0,1,.28-3.24,3.94,3.94,0,0,0-.52-2.77v.07l-.52-1.38,0,.06a37.91,37.91,0,0,0,.36-6.1c0-4.65-.68-9.28-.67-13.94,0-1.73,0-3.45,0-5.18-.07-4.32-.21-8.64-.3-13-.12-6.28-.13-12.57.33-18.9.12-1.54.26-3.08.44-4.63a106.55,106.55,0,0,0,.35-21.49c-.52-5.88,1.11-13-.36-18.76-1.81-7.1,1.9-6.79,5.09-8.09a3.89,3.89,0,0,1,3.42.46c2.91,1.51,5.13,4.6,9,3.87,2.23-.42,1.91,3.3,2,5.24.62,9,1,18.05,1.2,27.08C942.71,280.26,942.77,286.94,942.78,293.63Z" fill="#c2b59b"/>
  <path d="M1413.07,490H1047c-.15.14-.28.28-.41.42l-.13.15c0-.19,0-.38,0-.57H781.83q5.61-16.41,12.7-32.22a454.11,454.11,0,0,1,25.8-49.12l1.66-2.73q6.16-9.81,12.88-19.58a526.76,526.76,0,0,1,37.88-48.83q6.25-7.14,12.83-14a414.78,414.78,0,0,1,35.75-33.58q10.35-8.58,21.22-16.32c29-20.62,60.77-36.15,94.61-43.56C1204,202.51,1363.78,285.42,1413.07,490Z" fill="#76863e"/>
  <path d="M1225.06,490h-12.38a137.93,137.93,0,0,0-12-14.81A160.44,160.44,0,0,0,1188,462.65a75.43,75.43,0,0,0-14.55-10.27c-13.17-7-27.29-12.24-41.93-14.22a137.45,137.45,0,0,0-23.19-1,229.52,229.52,0,0,0-23,2.11q-3.42.46-6.81,1.17a105.22,105.22,0,0,0-12.73,3.49,110,110,0,0,0-11.08,4.46c-2.83,1.35-5.63,2.81-8.36,4.38a121.32,121.32,0,0,0-12.94,8.52c-2,1.48-3.91,3-5.79,4.65a104.91,104.91,0,0,0-12.71,12.93q-1.57,1.89-3.08,3.82-2.77,3.59-5.36,7.29H993a29.47,29.47,0,0,1,1.81-2.92c1.49-2.06,3.05-4.06,4.67-6,4.88-5.93,10.2-11.45,15.48-16.94l1.36-1.42a93.9,93.9,0,0,1,16.74-13.81,121.88,121.88,0,0,1,11.76-6.79l1.27-.61a142.52,142.52,0,0,1,20.17-7.73c3.82-1.15,7.69-2.14,11.58-3l.16,0a168.27,168.27,0,0,1,78.74,1.42c7.6,2,14.56,5.87,20.94,10.37s12.22,9.64,18.18,14.52a148.49,148.49,0,0,1,22.38,23.34Q1221.83,485.08,1225.06,490Z" fill="#231f20"/>
  <path d="M1303,490h-10.89l-1.75-5.15-2.48-6.38-1.24-3.19-1.37-3.14-2.74-6.26-3-6.13-1.49-3.06-1.64-3-3.25-6-3.52-5.84-1.75-2.92-1.89-2.83a230.55,230.55,0,0,0-16.13-21.89,272.4,272.4,0,0,0-19.25-20.81,150.91,150.91,0,0,0-22.34-17.47c-20.19-12.51-42.37-21.83-65.57-25.85-24.54-4.23-49.45-3-73.79,1.43a157.68,157.68,0,0,0-25.8,7.07c-4.24,1.53-8.42,3.25-12.53,5.13a173.84,173.84,0,0,0-15.51,8h0q-6.84,4-13.33,8.53h0q-6.68,4.68-12.93,9.94-4.92,4.14-9.55,8.59-1.65,1.57-3.27,3.2a194.41,194.41,0,0,0-20.51,24.75c-5.07,7.19-9.74,14.65-14.13,22.27h0q-2.61,4.5-5.09,9.07A177.94,177.94,0,0,0,923.13,490H912.56a238.75,238.75,0,0,1,9-24.23l-.09.05c.1-.16.19-.33.28-.49h0a85.31,85.31,0,0,0,6.17-13.26c2-4.61,3.8-9.44,6.64-13.69q3.57-5.61,7.45-11a333.51,333.51,0,0,1,23.4-28.73l4.65-5c1.59-1.63,3.26-3.2,4.9-4.79.29-.29.57-.57.87-.85,3-2.89,6.28-5.48,9.43-8.2,1.14-.9,2.29-1.78,3.45-2.66l2-1.5,2.74-2.05,2.84-1.92,5.62-3.75h0l.07,0,5.89-3.48,2.94-1.73,3-1.58,1.17-.6h0l4.89-2.52c4.17-1.84,8.22-3.9,12.49-5.47a209.76,209.76,0,0,1,25.8-8.48,213,213,0,0,1,122.18,4.68c11.49,3.89,22.11,10,31.82,17.21s18.65,15.26,27.45,23.37c24.71,22.73,43.41,51.37,56.91,82.14A145.09,145.09,0,0,1,1303,490Z" fill="#231f20"/>
  <polygon points="1053.59 285.05 1053.59 285.05 1053.67 285.03 1053.59 285.05" fill="#231f20"/>
  <polygon points="1112.18 280.17 1112.27 280.18 1112.22 280.17 1112.18 280.17" fill="#231f20"/>
  <path d="M877.35,406.11l0-.06a.67.67,0,0,1,.13-.15l.06,0-.19.19m.13-.15a.67.67,0,0,0-.13.15l.19-.19Zm492,71.24A300.55,300.55,0,0,0,1306.29,363c-10.32-11.67-21.29-23-34.13-32.43-1.38-1.1-2.8-2.15-4.25-3.18l-4.32-3.19-4.31-3.24-4.46-3,.07.06c-10.45-6.21-21.13-12.68-32.19-18.09-5.47-2.45-10.84-5.17-16.46-7.38-2.79-1.14-5.53-2.42-8.37-3.44l-8.51-3.07c-8.24-2.82-18.3-5-24.68-7.18-1.91-.67-3.77-1.36-5.65-1.82s-3.74-.87-5.59-1.25c-3.72-.74-7.4-1.45-11.26-1.89l-9.56-1.24-9.61-.75a262.29,262.29,0,0,0-52.78.92l-9.42,1.3-9.34,1.78c-1.56.31-3.12.56-4.66.93l-4.62,1.13c-3.07.79-6.16,1.48-9.2,2.34-6,1.88-12.17,3.54-18.08,5.81-3,1.11-6,2.06-8.9,3.3l-8.76,3.65q-5.57,2.44-11,5.1-5.87,2.86-11.6,6-8.57,4.68-16.84,9.91Q950,319,942.52,324.51c-7,5.16-13.88,10.65-20.51,16.36a259.54,259.54,0,0,0-26.37,26.48l-6,7.15c-1.78,2.06-3.38,4.27-5,6.41l-.72.92c-3.91,4.84-7.36,10-11,15-.66.95-1.32,1.9-2,2.86-11.77,17.49-20.74,36.55-28.32,56.07-.56,1.45-1.17,2.9-1.68,4.38l-1.45,4.48c-.78,2.48-1.58,5-2.33,7.45-.16.52-.32,1-.47,1.56l-2.41,9.14c-.4,1.52-.86,3-1.23,4.56l-.63,2.71h10.21a291.68,291.68,0,0,1,13.88-42.68l2.51-5.83c.83-1.95,1.65-3.91,2.61-5.81,1.89-3.81,3.61-7.74,5.52-11.63.84-1.68,1.86-3.62,3-5.66,1.82-3.34,3.93-6.95,6-10.12v0a6.88,6.88,0,0,0,1.58-2.52c1.89-3.27,4.09-6.32,6.17-9.46l.87-1.29,2.29-3.39,3.39-4.52A272.93,272.93,0,0,1,922.72,351q3-2.82,6.09-5.52c4.4-3.85,8.92-7.64,13.57-11.24a168.44,168.44,0,0,1,28.82-18.48l.06-.05c1-.58,2-1.19,3-1.77.46-.27.93-.54,1.41-.79l4.48-2.39c2.17-1.11,4.29-2.32,6.47-3.41.85-.43,1.71-.84,2.58-1.22l9.2-4.32,9.4-3.85,0,0a8.33,8.33,0,0,1,.82-.34h0a10.86,10.86,0,0,0,2.27-.78c.72-.28,1.42-.62,2.08-.94a12.2,12.2,0,0,1,3.72-1.4c3.09-.29,5.53-1.45,8.49-2.54h0l6.88-2.13c2.29-.72,4.57-1.45,6.91-2l.09,0a5.13,5.13,0,0,0,2.64-.62c3.79-.37,7.82-1.49,11.9-2.14l.63-.44,2.51-.66a5.65,5.65,0,0,1,2.91-.53h-.06c3-.59,6-.86,9-1.25s6-.81,9.07-1h0c10.28-.5,20.45-1.52,30.72-1.32l.21,0,.17,0h0l.08,0,3.3.38,5.73,0,5.73.31a94.74,94.74,0,0,1,11.48,1.14c.06.06.1.13.15.19h.41l5.5.53a28.43,28.43,0,0,1,3,.19c4.34.92,8.65,1.92,13,2.75s8.64,2,13.09,2.86c4,.87,8.13,2.22,12.2,3.38,3.28.94,6.44,2.3,9.68,3.37l4,1.32c1.34.44,2.65,1,4,1.46a83.76,83.76,0,0,1,7.78,3.37v0c4.21,1.86,8.33,3.9,12.51,5.82a271.76,271.76,0,0,1,49.81,31.95,184.41,184.41,0,0,1,14.5,12.11c5.29,5.53,10.55,10.94,15.6,16.62,9.46,10.51,18.75,21.4,26,33.54v0a1.19,1.19,0,0,1,.62.9l0,0c2.74,4.28,5.36,8.63,8,13l3.68,6.66c1.23,2.23,2.51,4.42,3.6,6.71a276.32,276.32,0,0,1,21,55.17q.88,3.25,1.7,6.51h8.15Q1371.43,483.54,1369.53,477.14ZM1022.39,292.58l.37-.3c.7-.14,1.42-.19,2.13-.28C1024.05,292.17,1023.21,292.34,1022.39,292.58Zm29.7-7.63.07-.16,1.77-.15Zm25.69-3.85.49-.26.45.08Zm55.75-.05c.29,0,.79.06.85.09a7.51,7.51,0,0,1,.72.47Z" fill="none"/>
  <path d="M1160.27,490h-15c-.49-.39-1-.79-1.46-1.2l-1.69-1.45-1.81-1.31-3.59-2.72-3.81-2.41-1.93-1.23-2-1-4.12-2c-1.43-.54-2.89-1-4.35-1.49l-2.5-.78-2.58-.48a48,48,0,0,0-5.19-.74c-1.75-.07-3.5-.1-5.24-.11h-1.31l-1.3.15-2.6.33c-3.47.29-6.8,1.47-10.07,2.43a51.36,51.36,0,0,0-9.14,4.66l-.46.28A18.66,18.66,0,0,1,1078,482c-.86.41-1.69.89-2.57,1.26-1.72.82-3.64,1.28-5.38,2.12-1,.44-2,.83-3,1.25a21,21,0,0,0-2.39,1.15,40.61,40.61,0,0,0-3.46,2.22H1047c5-5.22,11.12-9.09,16.94-13.27.87-.65,1.76-1.27,2.66-1.85a67.74,67.74,0,0,1,13.14-6.63,95,95,0,0,1,9.78-3.12c9.68-2.55,20.28-3.62,30.1-.46,6.61,2.29,13.08,4.69,19,8.18a85.3,85.3,0,0,1,8.62,5.46c1.41.94,2.66,2.11,4,3.16a42,42,0,0,1,3.81,3.34c1.66,1.73,3.51,3.27,5.12,5Z" fill="#231f20"/>
  <path d="M1258.87,490h-11.76c-1.71-3.65-3.55-7.24-5.49-10.77a178.6,178.6,0,0,0-24.83-34.17,185,185,0,0,0-15.71-15.47,100.49,100.49,0,0,0-18-12.74c-16.22-8.91-33.75-15.4-51.9-18a166.76,166.76,0,0,0-28.83-1.47,235.71,235.71,0,0,0-25.83,2.28l-2.86.42c-3.25.48-6.5,1.1-9.72,1.83-1.34.31-2.68.64-4,1-.86.22-1.71.45-2.56.7q-2.79.78-5.56,1.7-3.48,1.14-6.92,2.49c-.82.31-1.64.64-2.45,1q-3.4,1.41-6.74,3c-1.36.66-2.7,1.33-4,2a154.33,154.33,0,0,0-16.56,9.93,145.8,145.8,0,0,0-12.91,9.95l-2.15,1.88h0a133.16,133.16,0,0,0-12.24,12.56q-2.68,3.09-5.19,6.32c-3.22,4.13-6.26,8.39-9.17,12.74-2.39,3.56-4.69,7.19-6.93,10.87a107.24,107.24,0,0,0-6.34,12H949.33c1.07-2.51,2.21-5,3.4-7.46l-.09,0a40.9,40.9,0,0,0,3.13-5.15c.89-1.79,1.64-3.64,2.49-5.46s1.59-3.68,2.46-5.5a47.42,47.42,0,0,1,3.08-5.18,168.42,168.42,0,0,1,11.12-14s0,0,0,0c4.18-4.78,8.56-9.38,13-13.92l2-2.06a110.27,110.27,0,0,1,10.6-9.68h0a134.73,134.73,0,0,1,14.64-10.24h0q4.68-2.83,9.53-5.35c2.44-1.18,4.88-2.34,7.35-3.45,3.87-1.73,7.78-3.33,11.79-4.69h0l.6-.21h0c2.25-.87,4.57-1.55,6.88-2.24,1.11-.33,2.21-.66,3.3-1l2.06-.54,3.11-.81c1.71-.46,3.43-.91,5.18-1.25s3.8-.82,5.71-1.19a195.67,195.67,0,0,1,90.74,3.59c9.2,2.62,17.72,7.23,25.57,12.61s15.11,11.51,22.39,17.51A181.17,181.17,0,0,1,1236.62,453a208.78,208.78,0,0,1,20.79,33.87C1257.92,487.89,1258.41,488.94,1258.87,490Z" fill="#231f20"/>
  <path d="M1340,490h-13c-1.67-6.1-3.53-12-5.56-17.56a217.34,217.34,0,0,0-17.07-36.87,243.65,243.65,0,0,0-22.3-32.16,237.83,237.83,0,0,0-66.37-55.81,231.08,231.08,0,0,0-46.36-19.91c-31.51-9.73-65-12.07-97.74-8.21a217,217,0,0,0-41.25,9q-7.63,2.5-15.08,5.5t-14.87,6.44l-1,.46q-5.68,2.84-11.24,5.89h0q-6.68,3.69-13.12,7.8c-1.53,1-3,2-4.55,3a235.9,235.9,0,0,0-28.19,22.53q-2.7,2.5-5.31,5.09-7.29,7.23-13.94,15.06-5.81,6.81-11.1,14A244.11,244.11,0,0,0,891.78,447q-2.89,5.58-5.4,11.41h0a232.69,232.69,0,0,0-9.93,28c-.34,1.19-.68,2.38-1,3.58H861.09a.29.29,0,0,1,0-.09c.48-1.77,1-3.48,1.45-4.92,3.18-9.09,6.51-18.41,10.29-27.54h0c2.5-6.05,5.19-12,8.15-17.77,1.43-3,3.08-5.84,4.74-8.67h0q1.25-2.1,2.45-4.21c1.2-2.12,2.62-4.1,3.91-6.13s2.59-4,3.94-6c3.29-4.46,6.23-9,9.59-13.24,1.65-2.13,3.22-4.32,4.93-6.4l5.25-6.16q3.87-4.35,7.9-8.6h0c5.87-6.19,12-12.16,18.46-17.77q1.74-1.51,3.52-3c2.46-2,5-4,7.52-5.84,3.68-2.49,7.23-5.15,10.94-7.57l5.55-3.65,2.75-1.84,1.79-1.11,1-.63c4-2.55,8.16-4.93,12.37-7.14,4.71-2.48,9.53-4.75,14.41-6.85,4-1.74,8.13-3.35,12.24-4.86q4.92-1.8,9.89-3.41c3.22-1.16,6.44-1.92,9.63-2.85l4.79-1.39,4.91-1.3c2.45-.67,5-1.34,7.56-1.94s5.26-.91,7.91-1.24c1.45-.17,2.91-.4,4.38-.63l4.48-.58c3-.38,6-.92,9-1.18,17.66-1.7,35.28-1,53.08.62,7.78.7,15.88,2.47,23.94,4.24a219.38,219.38,0,0,1,49.92,17c4.29,2,7.88,3.17,12,5.52l3.25,1.81,3.19,1.91,6.41,3.68c2.13,1.24,4.18,2.6,6.27,3.9s4.21,2.58,6.17,4.08c1.8,1.32,3.69,2.72,5.54,4,.92.64,1.84,1.26,2.73,1.82s1.7,1.15,2.51,1.61a16.86,16.86,0,0,1,1.58,1.13c13.59,11,26.68,22.29,37.71,36.75a294.48,294.48,0,0,1,27.73,43.3c2.59,5.29,5.6,10.58,8,16.09A217.65,217.65,0,0,1,1340,490Z" fill="#231f20"/>
  <path d="M1390.92,490h-9.24c-.48-2.21-1-4.41-1.56-6.6A312.18,312.18,0,0,0,1352,411.2c-1.53-2.84-3.2-5.6-4.79-8.41l-2.42-4.2c-.82-1.38-1.72-2.72-2.58-4.09l-5.2-8.16-5.56-7.91c-.93-1.32-1.84-2.65-2.79-3.95l-3-3.82c-2-2.54-3.91-5.13-5.94-7.63-4.21-4.89-8.23-9.93-12.72-14.57l-3.41-3.7L1302,342.9l-1.78-1.78-7.11-7.14c-2.39-2.37-4.93-4.57-7.38-6.87l-3.71-3.42-3.87-3.23a216.67,216.67,0,0,0-32.92-23.31c-29.28-16.93-61.4-29-94.63-34.36a293.14,293.14,0,0,0-53-3.57,340,340,0,0,0-52.84,5.24c-3,.45-6,1.19-9,1.78s-6,1.15-8.9,2c-5.88,1.57-11.8,3.06-17.56,5.08A227.93,227.93,0,0,0,986,282.21c-3.56,1.55-7.09,3.17-10.59,4.83l-.56.28a292.75,292.75,0,0,0-32.08,18.58q-11.09,7.39-21.43,15.85-3.52,2.89-6.95,5.9a265.08,265.08,0,0,0-29,29.54q-3.51,4.14-6.85,8.41c-1.91,2.44-3.79,4.92-5.64,7.41a368.7,368.7,0,0,0-23.4,36A234.38,234.38,0,0,0,836,436.35a289.78,289.78,0,0,0-12.12,35.87c-.2.7-.38,1.41-.57,2.11-.85,2.82-1.4,5.72-2.07,8.58L819.65,490H808.91a311.25,311.25,0,0,1,13.93-47.47h0q4.21-11,9.27-21.7l-.1.07,2.67-4.65c.28-.51.56-1,.83-1.53.58-1,1.13-2.11,1.66-3.18,1.58-3.17,3-6.42,4.64-9.58s3.1-6.39,4.73-9.56,3.58-6.17,5.55-9.14a297.55,297.55,0,0,1,20.81-27.19q6.2-7.28,12.74-14.22,5.9-6.31,12-12.42L901,326c1.15-1.11,2.35-2.16,3.53-3.25l7.15-6.43c2.46-2.06,5-4.05,7.46-6.06l1.84-1.47,1.92-1.53c1.27-1,2.59-1.88,3.88-2.82l7.82-5.59,8.08-5.17.08-.05,4-2.52c1.38-.82,2.78-1.59,4.17-2.38l8.35-4.7,8.57-4.29,4.29-2.12,2-.87,2.4-1.06,8.77-3.82.55-.21,8.38-3.19,4.46-1.69c1.5-.53,3-1,4.54-1.49l9.08-3c3.05-.89,6.13-1.68,9.19-2.54l4.6-1.26c1.53-.43,3.09-.72,4.64-1.08a319.68,319.68,0,0,1,171.66,6.72c16.08,5.24,31.25,13.08,45.45,22.21s27.47,19.57,40.37,30.34A318.18,318.18,0,0,1,1336.46,368a342.26,342.26,0,0,1,36,60.69,244.89,244.89,0,0,1,15.67,47.63C1389.17,480.84,1390.09,485.41,1390.92,490Z" fill="#231f20"/>
  <path d="M1186.4,480.41l0-.06v0Z" fill="#231f20"/>
  <path d="M1192.73,490h-8.6c-.28-.39-.58-.78-.87-1.16-4.29-5.51-9.7-9.54-14.66-14.9-2.74-2.9-7.25-5.72-11.29-8.05-8.06-4.8-16.83-7.7-25.75-10.94a38.24,38.24,0,0,0-5.94-1.62,23.84,23.84,0,0,0-6.26-.32c-5.39-1.43-10.53-.41-16-.44a78.57,78.57,0,0,0-13.91,1.2c-2.32.31-4.59.84-6.88,1.23l-3.33.69-3.44.72a13.41,13.41,0,0,0-3.88,1.48,36.18,36.18,0,0,1-4.36,2.18c-.6.25-1.21.48-1.83.7-.88.33-1.78.63-2.68,1a30.51,30.51,0,0,0-10.12,5.59,30.9,30.9,0,0,1-6.39,4.71c-.26.13-.53.26-.8.37a5.27,5.27,0,0,0-1.56,1c-2.71,3.86-7.31,6.95-10.46,10.82h0c-.34.41-.66.82-1,1.25l0,0a47,47,0,0,0-4,4.52h-9.63a44.66,44.66,0,0,1,5-5.95,8.51,8.51,0,0,0,.93-.86,41.48,41.48,0,0,1,8.48-10c1.5-1.39,3-2.73,4.53-4.06a53.94,53.94,0,0,1,5.48-4.61c1-.7,2-1.36,2.86-2,1.73-1.26,3.33-2.5,5.1-3.94,3.59-2.85,8.15-5.33,12.18-5.16a7.9,7.9,0,0,0,1.78-.34,44.38,44.38,0,0,0,6.65-2.62,32.47,32.47,0,0,1,6-2.44c.21-.07.43-.13.65-.18a20.28,20.28,0,0,1,5.65-.66,4.91,4.91,0,0,0,1.33-.18,45.48,45.48,0,0,1,13.55-1.91c2.28-.11,4.54.07,6.74,0s4.35,0,6.43-.05c9.77-.39,17.86,1.91,26.17,5.21,4.86,1.87,10.52,3.29,15.63,6a50,50,0,0,1,5.91,3.08,13.78,13.78,0,0,0,2,1.39,42.63,42.63,0,0,1,14.22,9.78l.08.09-.08-.12c4.23,2.3,7.26,6,9.79,10,.1.48-.61.31.59,1.69A53.22,53.22,0,0,1,1192.73,490Z" fill="#231f20"/>
  <path d="M1362.18,105.7h0" fill="#231f20"/>
  <path d="M1348.68,106.45s0,0,0,0m-1.75-1.3v0a0,0,0,0,0,0,0m-.26-3.89s0,0-.06,0,0,.12,0,.12,0,0,0-.1m40,4.23c0,.41-.28.79-.48.66s-.53-.12-.78-.41c-.05-.06-.18-.2-.13.12.12.72-.17.65-.24,1-.1.63-.24.14-.37,0s-.25-.23-.37,0-.18.13-.24,0c-.29-.63-.52,0-.75.28s-.3.25-.48.16a6.87,6.87,0,0,0-2.1-.48c-.49-.1-1,0-1.48-.15-.18,0-.29-.42-.46-.4l-.15,0c-.26.29-.53.7-.8,0-.28.4-.56-.52-.85,0,0,.08-.11.11-.16.08a2.22,2.22,0,0,0-1.52-.09c-.1,0-.2,0-.27-.28-.44,0-.88.45-1.32,0-.29-.27-.59-.17-.88-.12a2.16,2.16,0,0,1-.8-.07.85.85,0,0,0-.5,0c-.35.1-.74.35-1,0s-.52-.57-.81-.08c0,0-.13.09-.18-.11s-.16-.29-.23-.21c-.43.44-.9-.11-1.29.24s-1-.15-1.51,0a1.64,1.64,0,0,1-1,.08,2,2,0,0,0-1.61.16c-.42.21-.87,0-1.31,0a.35.35,0,0,1-.33-.25h0l0,0c-.09.08-.19.26-.28.23-.78-.25-1.56.46-2.34,0-.21-.13-.37.23-.57.24a5.28,5.28,0,0,0-2.5.34c-.22.12-.47.07-.69-.28,0,0-.06-.18-.1-.07-.26.78-.61.39-.92.43a16.08,16.08,0,0,0-3.47.6,17.21,17.21,0,0,1-1.9.5.74.74,0,0,1-.55-.2c-.32-.23-.33-.21-.18-1.06a0,0,0,0,0,0,0c-.56.23-1.1.15-1.61-.64a.84.84,0,0,1-.13-.51,1.23,1.23,0,0,1-.09-.23c-.18-.85-.17-1,.17-1.24.07,0,.19,0,.17-.21s-.12,0-.18,0-.26-.24-.39-.37-.51-.16-.76-.44a.73.73,0,0,1-.23-.66c0-.47.08-.9.3-.93s.38-.28.56.11c0,0,.08,0,.12-.06h0c.19-.29.42,0,.62-.39a.92.92,0,0,0,.17-.58c0-.72.15-1,.44-1,.83-.06,1.66-.12,2.49-.14a1.82,1.82,0,0,1,1,.25c.19.11.38-.2.58-.23a27.42,27.42,0,0,1,3.14.05c1,0,1.92-.06,2.88-.07.56,0,1.12-.22,1.69-.2a22.22,22.22,0,0,1,3.16,0c.3.06.62-.2.93-.13a3.72,3.72,0,0,0,1.48.11,6.3,6.3,0,0,1,2-.1c.61.06,1.21-.09,1.82,0a4,4,0,0,0,1.31-.19,1,1,0,0,1,.82.21c.21.14.45-.09.68-.13s.57-.61.81.22c.15-.29.34-.08.5-.23s.52.12.78,0,.12.36.19.5.13.6.22-.08.36-.59.55,0q.12.34.21,0c.1-.39.21-.47.35-.14.05.11.12.19.15.07.23-.88.55-.09.81-.32.06-.05.11.08.12.24,0,.46.09.44.18.19.17-.49.4-.42.6-.34.64.26,1.3,0,1.94.26a23.26,23.26,0,0,0,2.62.37,4.22,4.22,0,0,0,1.49-.12,1.11,1.11,0,0,1,1.08.43c.38.45.81.29,1.21.32.15,0,.29,0,.4.32a2.25,2.25,0,0,1,.14,1c0,.41-.16.79-.34.79s-.58.25-.88.55-.61,0-.92,0l-.8-.12s-.08,0-.12,0a.5.5,0,0,0-.13.4c0,.2.09.14.14.13a5.08,5.08,0,0,1,2,.57c.38.13.76.31,1.13.47a.69.69,0,0,1,.21.15,1.52,1.52,0,0,1,.29,1.22" fill="#231f20"/>
  <path d="M1389.78,171.07h0s0,0,0,0" fill="#231f20"/>
  <path d="M1376.28,171.82h0m-1.76-1.3v0a.2.2,0,0,1,0-.07,0,0,0,0,0,0,0m-.26-3.89s0,0-.06,0a.4.4,0,0,0,0,.12s0,0,0-.1m40,4.22c0,.41-.27.79-.47.67s-.54-.12-.79-.41c0-.07-.18-.21-.12.11.11.73-.18.65-.24,1-.11.63-.24.14-.38,0s-.25-.24-.37,0-.18.14-.24,0c-.29-.64-.51,0-.74.28s-.3.25-.48.15a6.91,6.91,0,0,0-2.11-.47c-.49-.1-1,0-1.48-.16-.18,0-.29-.41-.46-.39l-.14,0c-.27.28-.53.7-.81,0-.28.4-.56-.52-.84,0,0,.08-.11.11-.17.08a2.21,2.21,0,0,0-1.52-.09c-.1,0-.2,0-.26-.28-.45-.05-.88.44-1.32,0a.88.88,0,0,0-.89-.12,2.42,2.42,0,0,1-.8-.08,1.06,1.06,0,0,0-.5,0c-.34.11-.74.35-1,0s-.53-.57-.81-.08c0,0-.14.09-.19-.12s-.15-.29-.23-.21c-.42.45-.89-.1-1.29.24s-1-.14-1.5,0a1.65,1.65,0,0,1-1,.08,2,2,0,0,0-1.61.16c-.43.21-.88,0-1.32,0a.33.33,0,0,1-.32-.25v0h0a.08.08,0,0,0,0,0c-.09.08-.18.26-.27.23-.79-.25-1.57.46-2.35,0-.21-.12-.37.24-.57.25a5.18,5.18,0,0,0-2.5.34c-.22.12-.47.07-.68-.28,0-.06-.06-.18-.1-.07-.27.77-.62.39-.92.43a16.67,16.67,0,0,0-3.48.59,14.86,14.86,0,0,1-1.9.51.71.71,0,0,1-.54-.2c-.33-.24-.33-.21-.18-1.06v0c-.56.24-1.1.15-1.61-.63a.84.84,0,0,1-.13-.51,1.55,1.55,0,0,1-.08-.23c-.19-.85-.17-1,.17-1.24.06,0,.18,0,.16-.21s-.11,0-.17,0-.27-.25-.39-.37-.52-.16-.76-.44a.72.72,0,0,1-.24-.66c0-.47.08-.9.3-.94s.38-.27.57.11c0,.05.08,0,.12,0h0c.19-.29.42,0,.62-.4a.85.85,0,0,0,.17-.58c0-.71.16-1,.44-1,.83-.06,1.66-.11,2.49-.14a2,2,0,0,1,1,.26c.18.11.38-.2.58-.23a25.15,25.15,0,0,1,3.13.05c1-.05,1.92-.06,2.88-.07.56,0,1.13-.23,1.69-.2a19.75,19.75,0,0,1,3.17,0c.29.06.61-.2.92-.14a3.56,3.56,0,0,0,1.48.12,6.31,6.31,0,0,1,2-.11c.61.06,1.21-.08,1.82,0a4,4,0,0,0,1.31-.2,1,1,0,0,1,.82.22c.21.14.45-.09.68-.14s.57-.6.81.22c.16-.28.35-.08.5-.22s.52.12.78,0,.12.36.19.5.14.59.22-.08.36-.59.55,0c.08.23.15.24.21,0,.11-.39.22-.46.36-.13,0,.11.11.19.15.06.23-.87.54-.09.8-.31.06-.05.11.07.12.24,0,.46.09.44.18.18.18-.48.4-.41.6-.33.65.26,1.3,0,1.94.26.87.3,1.75.15,2.62.37a4.18,4.18,0,0,0,1.49-.12,1.09,1.09,0,0,1,1.08.43c.39.45.81.29,1.22.32.15,0,.28,0,.39.31a2.29,2.29,0,0,1,.14,1c0,.4-.15.79-.33.78s-.59.26-.89.56-.61,0-.91,0-.54-.08-.8-.12c0,0-.09,0-.13,0a.51.51,0,0,0-.13.39c0,.21.09.15.14.14a4.85,4.85,0,0,1,2,.56c.38.14.76.31,1.14.48a.52.52,0,0,1,.2.14,1.53,1.53,0,0,1,.29,1.22" fill="#231f20"/>
  <path d="M1288.23,100.63h0s0,0,0,0" fill="#231f20"/>
  <path d="M1274.73,101.38s0,0,0,0m-1.76-1.3v0s0,0,0-.07a0,0,0,0,0,0,0m-.26-3.89s0,0-.06,0,0,.11,0,.12,0-.06,0-.11m40,4.23c0,.41-.27.79-.47.66s-.53-.12-.78-.41c-.06-.06-.18-.2-.13.12.11.73-.18.65-.24,1-.11.63-.24.14-.38,0s-.24-.24-.37,0-.18.13-.24,0c-.29-.63-.51,0-.74.29s-.3.24-.48.15a6.87,6.87,0,0,0-2.11-.48c-.49-.1-1,0-1.48-.15-.18,0-.29-.42-.46-.39l-.14,0c-.27.29-.53.7-.81.05-.28.4-.55-.52-.84,0,0,.07-.11.1-.16.07a2.25,2.25,0,0,0-1.53-.09c-.09,0-.2,0-.26-.28-.44,0-.88.45-1.32,0-.29-.27-.59-.17-.88-.12a2.21,2.21,0,0,1-.81-.07,1.06,1.06,0,0,0-.5,0c-.34.1-.74.35-1,0s-.53-.58-.81-.09c0,0-.14.09-.19-.11s-.15-.29-.23-.21c-.42.45-.89-.11-1.29.24s-1-.14-1.5,0a1.64,1.64,0,0,1-1,.08,2,2,0,0,0-1.61.16c-.43.21-.88,0-1.32,0a.33.33,0,0,1-.32-.25h0s0,0,0,0-.19.26-.28.23c-.78-.25-1.56.47-2.34,0-.21-.13-.37.23-.58.24a5.3,5.3,0,0,0-2.5.34c-.22.12-.47.07-.68-.27,0-.06-.06-.19-.1-.08-.27.78-.61.39-.92.43a16.92,16.92,0,0,0-3.48.6,18.39,18.39,0,0,1-1.9.51.76.76,0,0,1-.54-.2c-.33-.24-.33-.21-.18-1.07h0c-.56.23-1.1.15-1.6-.63a.9.9,0,0,1-.14-.52,1.23,1.23,0,0,1-.08-.23c-.19-.85-.17-1,.17-1.24.06,0,.18,0,.16-.2s-.11,0-.17,0-.26-.24-.39-.37-.52-.16-.76-.44a.7.7,0,0,1-.24-.66c0-.47.08-.9.3-.93s.39-.27.57.11c0,0,.08,0,.12-.06h0c.19-.28.42,0,.62-.39a.82.82,0,0,0,.17-.58c0-.71.16-1,.44-1,.83-.06,1.66-.12,2.49-.14a1.85,1.85,0,0,1,1,.25c.18.11.38-.19.58-.23a27.43,27.43,0,0,1,3.14.06c1,0,1.91-.06,2.87-.08.56,0,1.13-.22,1.69-.19a21,21,0,0,1,3.17,0c.3.06.62-.19.92-.13a3.73,3.73,0,0,0,1.48.11,6.66,6.66,0,0,1,2-.1c.6.06,1.21-.09,1.81,0a3.92,3.92,0,0,0,1.31-.19,1,1,0,0,1,.82.21c.21.14.46-.09.69-.13s.56-.61.8.22c.16-.28.35-.08.5-.23s.53.12.79,0,.11.36.18.5.14.6.23-.08.35-.59.55,0c.08.23.14.24.2,0,.11-.39.22-.47.36-.13,0,.1.11.19.15.06.23-.87.54-.09.8-.32.06,0,.11.08.12.25,0,.46.09.43.19.18.17-.49.4-.41.59-.33.65.25,1.3,0,1.94.26a26.16,26.16,0,0,0,2.62.36,4.26,4.26,0,0,0,1.5-.12,1.09,1.09,0,0,1,1.07.43c.39.45.81.29,1.22.32.15,0,.28,0,.39.32a2.25,2.25,0,0,1,.14,1c-.05.41-.15.8-.33.79s-.59.26-.89.56-.6,0-.91,0-.53-.08-.8-.12c0,0-.09,0-.13,0a.54.54,0,0,0-.12.4c0,.2.08.14.13.14a4.94,4.94,0,0,1,2,.56c.37.13.75.31,1.13.47a.55.55,0,0,1,.2.15,1.48,1.48,0,0,1,.29,1.22" fill="#231f20"/>
  <path d="M1308.76,123.51h0s0,0,0,0" fill="#231f20"/>
  <path d="M1295.26,124.26s0,0,0,0m-1.76-1.3a.06.06,0,0,0,0,0v0m-.26-3.89s0,0,0,0,0,.11,0,.12,0,0,0-.1m40,4.22c0,.41-.28.79-.48.67s-.53-.12-.78-.41c-.06-.07-.18-.21-.13.11.12.73-.18.65-.24,1-.1.63-.24.14-.38,0s-.24-.23-.36,0-.19.14-.25,0c-.28-.63-.51,0-.74.28s-.3.25-.48.15a6.85,6.85,0,0,0-2.1-.47c-.5-.1-1,0-1.48-.15-.18,0-.3-.42-.46-.4l-.15,0c-.27.28-.53.7-.8,0-.29.4-.56-.52-.85,0,0,.08-.11.11-.16.08a2.25,2.25,0,0,0-1.53-.09c-.09,0-.2,0-.26-.28-.44,0-.88.44-1.32,0-.29-.27-.59-.17-.88-.12a2.4,2.4,0,0,1-.8-.08,1.11,1.11,0,0,0-.51,0c-.34.11-.74.35-1,0s-.52-.57-.81-.08c0,0-.14.09-.19-.12s-.15-.28-.22-.21c-.43.45-.9-.1-1.29.24s-1-.14-1.51,0a1.64,1.64,0,0,1-1,.08,2,2,0,0,0-1.61.16c-.42.21-.87,0-1.31,0a.33.33,0,0,1-.33-.25h0a.05.05,0,0,1,0,0c-.09.08-.19.26-.28.23-.78-.25-1.56.46-2.34,0-.21-.12-.37.24-.58.25a5.12,5.12,0,0,0-2.49.34c-.23.12-.48.07-.69-.28,0,0-.06-.18-.1-.07-.27.78-.61.39-.92.43a16.89,16.89,0,0,0-3.48.59,14.43,14.43,0,0,1-1.9.51.72.72,0,0,1-.54-.2c-.33-.23-.33-.21-.18-1.06,0,0,0,0,0,0-.56.23-1.11.14-1.61-.64a.91.91,0,0,1-.14-.51c0-.08-.06-.14-.08-.23-.19-.85-.17-1,.17-1.24.07,0,.19,0,.17-.21s-.12,0-.18,0-.26-.25-.39-.37-.52-.16-.76-.44a.72.72,0,0,1-.24-.66c0-.47.09-.9.3-.94s.39-.27.57.11c0,0,.08,0,.12,0h0c.19-.29.43,0,.63-.4a.9.9,0,0,0,.17-.58c0-.71.15-1,.43-1,.83-.06,1.66-.12,2.49-.14a1.83,1.83,0,0,1,1,.25c.18.11.38-.2.58-.23a27.42,27.42,0,0,1,3.14,0c1,0,1.92-.06,2.87-.07.56,0,1.13-.23,1.69-.2a19.74,19.74,0,0,1,3.17,0c.3.06.62-.2.93-.14a3.5,3.5,0,0,0,1.47.12,6.36,6.36,0,0,1,2-.1c.6.05,1.21-.09,1.81,0a3.94,3.94,0,0,0,1.31-.2,1,1,0,0,1,.82.22c.21.14.46-.09.69-.14s.56-.6.8.23c.16-.29.35-.09.5-.23s.53.12.79,0,.12.36.19.5.13.59.22-.08.35-.59.55,0q.12.34.21,0c.1-.4.21-.47.35-.14,0,.11.12.19.15.06.23-.87.54-.09.8-.31.07-.05.12.07.12.24,0,.46.09.44.19.18.17-.48.4-.41.6-.33.64.26,1.29,0,1.93.26.87.3,1.75.15,2.62.37a4.26,4.26,0,0,0,1.5-.12,1.1,1.1,0,0,1,1.08.43c.38.45.8.29,1.21.32.15,0,.28,0,.4.32a2.37,2.37,0,0,1,.13,1c0,.4-.15.79-.33.79s-.59.25-.88.55-.61,0-.92,0-.53-.08-.8-.12c0,0-.09,0-.12,0a.49.49,0,0,0-.13.39c0,.21.09.15.14.14a5.06,5.06,0,0,1,2,.56c.38.14.75.31,1.13.48a.52.52,0,0,1,.2.14,1.52,1.52,0,0,1,.3,1.22" fill="#231f20"/>
  <path d="M1356.89,123.51h0" fill="#231f20"/>
  <path d="M1343.39,124.26s0,0,0,0m-1.76-1.3v0a.2.2,0,0,1,0-.07,0,0,0,0,0,0,0m-.26-3.89s0,0-.06,0a.4.4,0,0,0,0,.12s0,0,0-.1m40,4.22c0,.41-.27.79-.47.67s-.54-.12-.79-.41c0-.07-.18-.21-.12.11.11.73-.18.65-.24,1-.11.63-.24.14-.38,0s-.25-.23-.37,0-.18.14-.24,0c-.29-.63-.51,0-.74.28s-.3.25-.48.15a7,7,0,0,0-2.11-.47c-.49-.1-1,0-1.48-.15-.18,0-.29-.42-.46-.4l-.15,0c-.26.28-.53.7-.8,0-.28.4-.56-.52-.84,0,0,.08-.11.11-.16.08a2.25,2.25,0,0,0-1.53-.09c-.1,0-.2,0-.26-.28-.44,0-.88.44-1.33,0-.29-.27-.59-.17-.88-.12a2.42,2.42,0,0,1-.8-.08,1.06,1.06,0,0,0-.5,0c-.35.11-.74.35-1,0s-.53-.57-.82-.08c0,0-.13.09-.18-.12s-.15-.28-.23-.21c-.43.45-.89-.1-1.29.24s-1-.14-1.5,0a1.65,1.65,0,0,1-1,.08,2,2,0,0,0-1.62.16c-.42.21-.87,0-1.31,0a.33.33,0,0,1-.32-.25h0s0,0,0,0-.19.26-.27.23c-.79-.25-1.57.46-2.35,0-.21-.12-.37.24-.57.25a5.18,5.18,0,0,0-2.5.34c-.22.12-.47.07-.68-.28,0,0-.06-.18-.1-.07-.27.78-.62.39-.93.43a16.69,16.69,0,0,0-3.47.59,14.86,14.86,0,0,1-1.9.51.74.74,0,0,1-.55-.2c-.32-.23-.32-.21-.18-1.06h0c-.56.23-1.1.14-1.61-.64a.84.84,0,0,1-.13-.51,1.55,1.55,0,0,1-.08-.23c-.19-.85-.17-1,.17-1.24.06,0,.18,0,.16-.21s-.11,0-.18,0-.26-.25-.39-.37-.51-.16-.75-.44a.72.72,0,0,1-.24-.66c0-.47.08-.9.3-.94s.38-.27.57.11c0,0,.08,0,.12,0h0c.19-.29.42,0,.62-.4a.9.9,0,0,0,.17-.58c0-.71.16-1,.44-1,.83-.06,1.66-.12,2.49-.14a1.82,1.82,0,0,1,1,.25c.19.11.39-.2.58-.23a27.38,27.38,0,0,1,3.14,0c1,0,1.92-.06,2.88-.07.56,0,1.13-.23,1.69-.2a19.61,19.61,0,0,1,3.16,0c.3.06.62-.2.93-.14a3.55,3.55,0,0,0,1.48.12,6.3,6.3,0,0,1,2-.1c.61.05,1.21-.09,1.82,0a4,4,0,0,0,1.31-.2,1,1,0,0,1,.82.22c.21.14.45-.09.68-.14s.57-.6.81.23c.15-.29.35-.09.5-.23s.52.12.78,0,.12.36.19.5.14.59.22-.08.36-.59.55,0q.12.34.21,0c.11-.4.22-.47.35-.14,0,.11.12.19.16.06.23-.87.54-.09.8-.31.06-.05.11.07.12.24,0,.46.09.44.18.18.18-.48.4-.41.6-.33.65.26,1.3,0,1.94.26.87.3,1.75.15,2.62.37A4.18,4.18,0,0,0,1378,117a1.09,1.09,0,0,1,1.08.43c.38.45.81.29,1.22.32.14,0,.28,0,.39.32a2.23,2.23,0,0,1,.14,1c0,.4-.15.79-.33.79s-.59.25-.89.55-.61,0-.91,0-.54-.08-.8-.12c-.05,0-.09,0-.13,0a.53.53,0,0,0-.13.39c0,.21.09.15.14.14a5.06,5.06,0,0,1,2,.56c.38.14.76.31,1.13.48a.55.55,0,0,1,.21.14,1.53,1.53,0,0,1,.29,1.22" fill="#231f20"/>
  <path d="M1259,123.51h0" fill="#231f20"/>
  <path d="M1245.54,124.26s0,0,0,0m-1.76-1.3v0m-.26-3.89s0,0-.06,0a.4.4,0,0,0,0,.12s0,0,0-.1m40,4.22c0,.41-.27.79-.47.67s-.54-.12-.79-.41c0-.07-.18-.21-.12.11.11.73-.18.65-.24,1-.11.63-.24.14-.38,0s-.25-.23-.37,0-.18.14-.24,0c-.29-.63-.52,0-.74.28s-.3.25-.48.15a7,7,0,0,0-2.11-.47c-.49-.1-1,0-1.48-.15-.18,0-.29-.42-.46-.4l-.15,0c-.26.28-.53.7-.8,0-.28.4-.56-.52-.84,0,0,.08-.12.11-.17.08a2.21,2.21,0,0,0-1.52-.09c-.1,0-.2,0-.27-.28-.44,0-.87.44-1.32,0-.29-.27-.59-.17-.88-.12a2.42,2.42,0,0,1-.8-.08,1.06,1.06,0,0,0-.5,0c-.35.11-.74.35-1,0s-.53-.57-.82-.08c0,0-.13.09-.18-.12s-.15-.28-.23-.21c-.43.45-.89-.1-1.29.24s-1-.14-1.5,0a1.65,1.65,0,0,1-1,.08,2,2,0,0,0-1.62.16c-.42.21-.87,0-1.31,0a.33.33,0,0,1-.32-.25h0s0,0,0,0-.19.26-.28.23c-.78-.25-1.56.46-2.34,0-.21-.12-.37.24-.57.25a5.18,5.18,0,0,0-2.5.34c-.22.12-.47.07-.68-.28,0,0-.07-.18-.1-.07-.27.78-.62.39-.93.43a16.69,16.69,0,0,0-3.47.59,14.86,14.86,0,0,1-1.9.51.74.74,0,0,1-.55-.2c-.32-.23-.32-.21-.18-1.06h0c-.56.23-1.1.14-1.61-.64a.84.84,0,0,1-.13-.51,1.55,1.55,0,0,1-.08-.23c-.19-.85-.17-1,.17-1.24.06,0,.18,0,.16-.21s-.12,0-.18,0-.26-.25-.39-.37-.51-.16-.75-.44a.72.72,0,0,1-.24-.66c0-.47.08-.9.3-.94s.38-.27.57.11c0,0,.07,0,.12,0h0c.19-.29.42,0,.62-.4a.9.9,0,0,0,.17-.58c0-.71.16-1,.44-1,.83-.06,1.66-.12,2.49-.14a1.82,1.82,0,0,1,1,.25c.19.11.39-.2.58-.23a27.38,27.38,0,0,1,3.14,0c1,0,1.92-.06,2.88-.07.56,0,1.13-.23,1.69-.2a19.61,19.61,0,0,1,3.16,0c.3.06.62-.2.93-.14a3.55,3.55,0,0,0,1.48.12,6.3,6.3,0,0,1,2-.1c.61.05,1.21-.09,1.82,0a4,4,0,0,0,1.31-.2,1,1,0,0,1,.82.22c.21.14.45-.09.68-.14s.57-.6.81.23c.15-.29.35-.09.5-.23s.52.12.78,0,.12.36.19.5.13.59.22-.08.36-.59.55,0q.12.34.21,0c.11-.4.22-.47.35-.14,0,.11.12.19.16.06.22-.87.54-.09.8-.31.06-.05.11.07.12.24,0,.46.09.44.18.18.18-.48.4-.41.6-.33.65.26,1.3,0,1.94.26.87.3,1.74.15,2.62.37a4.18,4.18,0,0,0,1.49-.12,1.09,1.09,0,0,1,1.08.43c.38.45.81.29,1.22.32.14,0,.28,0,.39.32a2.23,2.23,0,0,1,.14,1c0,.4-.15.79-.33.79s-.59.25-.89.55-.61,0-.91,0-.54-.08-.8-.12c0,0-.09,0-.13,0a.53.53,0,0,0-.13.39c0,.21.09.15.14.14a5.06,5.06,0,0,1,2,.56c.38.14.76.31,1.13.48a.55.55,0,0,1,.21.14,1.53,1.53,0,0,1,.29,1.22" fill="#231f20"/>
  <path d="M1322.12,202.41h0" fill="#a97c50"/>
  <path d="M1335.62,201.66s0,0,0,0m1.76,1.3v0m.26,3.89s0,0,.06,0a.4.4,0,0,0,0-.12s0,.05,0,.1m-40-4.23c0-.4.27-.79.47-.66s.54.12.79.41c0,.06.18.2.12-.12-.11-.72.18-.65.24-1,.11-.63.24-.14.38-.05s.25.23.37,0,.18-.14.24,0c.29.63.51,0,.74-.28s.3-.25.48-.15a7.29,7.29,0,0,0,2.11.47c.49.1,1,0,1.48.15.18,0,.29.42.46.4l.15,0c.26-.28.53-.7.8-.05.28-.4.56.52.84,0,0-.08.12-.11.16-.08a2.25,2.25,0,0,0,1.53.09c.1,0,.2,0,.27.28.43,0,.87-.44,1.32,0,.29.27.59.17.88.12a2.18,2.18,0,0,1,.8.08,1.06,1.06,0,0,0,.5,0c.35-.11.74-.36,1,0s.53.57.82.08c0,0,.13-.09.18.12s.15.28.23.21c.43-.45.89.1,1.29-.25s1,.15,1.5,0a1.65,1.65,0,0,1,1-.08,2,2,0,0,0,1.62-.16c.42-.21.87,0,1.31,0a.33.33,0,0,1,.32.25h0s0,0,0,.05.19-.26.28-.23c.78.25,1.56-.46,2.34,0,.21.12.37-.24.57-.25a5.18,5.18,0,0,0,2.5-.34c.22-.12.47-.07.68.28,0,.05.07.18.1.07.27-.78.62-.39.93-.43A16.69,16.69,0,0,0,1333,201a14.86,14.86,0,0,1,1.9-.51.74.74,0,0,1,.55.2c.32.23.32.21.18,1.06h0c.56-.23,1.1-.14,1.61.64a.84.84,0,0,1,.13.51,1.55,1.55,0,0,1,.08.23c.19.85.17,1-.17,1.24-.06,0-.18,0-.16.21s.12,0,.18,0,.26.24.39.37.51.16.75.44a.72.72,0,0,1,.24.66c0,.47-.08.9-.3.93s-.38.28-.57-.1c0-.05-.07,0-.12,0h0c-.19.29-.42,0-.62.4a.89.89,0,0,0-.17.57c0,.72-.16,1-.44,1-.83.06-1.66.12-2.49.14a1.82,1.82,0,0,1-1-.25c-.19-.11-.39.2-.58.23a27.38,27.38,0,0,1-3.14,0c-1,0-1.92.06-2.88.07-.56,0-1.13.22-1.69.2a20.84,20.84,0,0,1-3.16,0c-.3-.06-.62.2-.93.14a3.55,3.55,0,0,0-1.48-.12,6.3,6.3,0,0,1-2,.1c-.61-.06-1.21.09-1.82,0a4.28,4.28,0,0,0-1.31.19,1,1,0,0,1-.82-.21c-.21-.14-.45.09-.68.13s-.57.61-.81-.22c-.15.29-.35.09-.5.23s-.52-.12-.78,0-.12-.36-.19-.5-.13-.6-.22.08-.36.59-.55,0q-.12-.34-.21,0c-.11.39-.22.47-.35.14,0-.11-.12-.19-.16-.06-.22.87-.54.08-.8.31-.06,0-.11-.08-.12-.24,0-.46-.09-.44-.18-.19-.18.49-.4.42-.6.34-.65-.26-1.3,0-1.94-.26-.87-.3-1.74-.15-2.62-.37a4.18,4.18,0,0,0-1.49.12,1.11,1.11,0,0,1-1.08-.43c-.38-.45-.81-.29-1.22-.32-.14,0-.28,0-.39-.32a2.25,2.25,0,0,1-.14-1c0-.4.15-.79.33-.79s.59-.25.89-.55.61,0,.91,0,.54.08.8.13c0,0,.09,0,.13,0a.53.53,0,0,0,.13-.39c0-.21-.09-.15-.14-.14a4.91,4.91,0,0,1-2-.57c-.38-.13-.76-.31-1.13-.47a.55.55,0,0,1-.21-.14,1.54,1.54,0,0,1-.29-1.23" fill="#a97c50"/>
  <path d="M1294.53,137h0s0,0,0,0" fill="#a97c50"/>
  <path d="M1308,136.29s0,0,0,0m1.76,1.31v0s0,0,0,.07a0,0,0,0,0,0,0m.26,3.88s0,0,.06,0,0-.11,0-.12,0,.06,0,.1m-40-4.22c0-.41.27-.79.47-.66s.53.11.78.4c.06.07.18.21.13-.11-.11-.73.18-.65.24-1,.11-.63.24-.14.38-.05s.24.24.37,0,.18-.14.24,0c.29.64.51,0,.74-.28s.3-.25.48-.15a7.17,7.17,0,0,0,2.11.48c.49.09,1,0,1.48.15.18,0,.29.41.46.39l.14,0c.27-.28.53-.7.81,0,.28-.4.55.52.84,0a.14.14,0,0,1,.16-.08,2.31,2.31,0,0,0,1.53.1c.09,0,.2,0,.26.27.44,0,.88-.44,1.32,0a.91.91,0,0,0,.88.12,2.21,2.21,0,0,1,.81.07,1.06,1.06,0,0,0,.5,0c.34-.11.74-.35,1,0s.53.58.81.08c0,0,.14-.09.19.12s.15.29.23.21c.42-.45.89.11,1.29-.24s1,.14,1.5,0a1.64,1.64,0,0,1,1-.07,2,2,0,0,0,1.61-.17c.43-.21.88,0,1.32,0a.34.34,0,0,1,.32.25v0h0s0,0,0,0,.19-.27.28-.24c.78.25,1.56-.46,2.34,0,.21.12.37-.24.58-.25a5.18,5.18,0,0,0,2.5-.34c.22-.12.47-.07.68.28,0,.06.06.18.1.07.27-.77.61-.39.92-.43a16.89,16.89,0,0,0,3.48-.59,14.43,14.43,0,0,1,1.9-.51.72.72,0,0,1,.54.2c.33.24.33.21.18,1.06v0c.56-.24,1.1-.15,1.6.63a.86.86,0,0,1,.14.51,1.35,1.35,0,0,1,.08.24c.19.84.17,1-.17,1.23-.06.05-.18,0-.16.21s.11,0,.17,0,.26.25.39.37.52.16.76.44a.72.72,0,0,1,.24.66c0,.47-.08.9-.3.94s-.39.27-.57-.11c0-.05-.08,0-.12.05h0c-.19.29-.42,0-.62.4a.8.8,0,0,0-.17.58c0,.71-.16,1-.44,1-.83.06-1.66.12-2.49.14a1.75,1.75,0,0,1-1-.26c-.18-.1-.38.2-.58.23a25.32,25.32,0,0,1-3.14,0c-1,0-1.91.06-2.87.07-.56,0-1.13.23-1.69.2a19.74,19.74,0,0,1-3.17,0c-.3-.06-.62.2-.92.14a3.74,3.74,0,0,0-1.48-.12,6.35,6.35,0,0,1-2,.11c-.6-.06-1.21.09-1.81,0a4.21,4.21,0,0,0-1.31.2,1.06,1.06,0,0,1-.82-.21c-.21-.14-.46.08-.69.13s-.56.61-.8-.22c-.16.28-.35.08-.5.22s-.53-.12-.79.05-.12-.37-.18-.51-.14-.59-.23.09-.35.58-.55,0c-.08-.22-.14-.24-.2,0-.11.39-.22.46-.36.13,0-.11-.11-.19-.15-.06-.23.87-.54.09-.8.31-.06.06-.11-.07-.12-.24,0-.46-.09-.44-.19-.18-.17.48-.4.41-.59.33-.65-.26-1.3,0-1.94-.26-.87-.3-1.75-.15-2.62-.37a4.26,4.26,0,0,0-1.5.12,1.07,1.07,0,0,1-1.07-.42c-.39-.46-.81-.3-1.22-.32-.15,0-.28,0-.39-.32a2.29,2.29,0,0,1-.14-1c.05-.4.15-.79.33-.78s.59-.26.88-.56.61,0,.92,0,.53.08.8.12c0,0,.09,0,.12,0a.5.5,0,0,0,.13-.4c0-.21-.08-.15-.13-.14a4.85,4.85,0,0,1-2-.56c-.38-.13-.76-.31-1.14-.48a.52.52,0,0,1-.2-.14,1.48,1.48,0,0,1-.29-1.22" fill="#a97c50"/>
  <path d="M1396.08,207.48h0s0,0,0,0" fill="#726658"/>
  <path d="M1409.58,206.73s0,0,0,0m1.76,1.3s0,0,0,0v.06s0,0,0,0m.25,3.89s0,0,.06,0,0-.11,0-.11,0,.05,0,.1m-40-4.23c0-.41.28-.79.48-.66s.53.12.78.41c.06.06.18.2.13-.12-.12-.73.18-.65.24-1,.1-.63.24-.14.38-.06s.24.24.36,0,.19-.13.25,0c.28.63.51,0,.74-.29s.3-.24.48-.15a6.87,6.87,0,0,0,2.1.48c.5.1,1,0,1.48.15.18.05.3.42.46.39l.15,0c.27-.29.53-.7.8-.05.29-.4.56.52.85,0,0-.07.11-.1.16-.07a2.25,2.25,0,0,0,1.53.09c.09,0,.2,0,.26.28.44,0,.88-.45,1.32,0,.29.27.59.17.88.12a2.16,2.16,0,0,1,.8.07,1.11,1.11,0,0,0,.51,0c.34-.1.74-.35,1,0s.52.57.81.08c0,0,.14-.09.19.11s.15.29.22.21c.43-.45.9.11,1.29-.24s1,.15,1.51,0a1.64,1.64,0,0,1,1-.08,2,2,0,0,0,1.61-.16c.42-.21.87,0,1.31,0a.33.33,0,0,1,.33.25h0s0,0,0,.05.19-.26.28-.23c.78.25,1.56-.47,2.34,0,.21.13.37-.23.58-.24a5.24,5.24,0,0,0,2.49-.34c.23-.12.48-.07.69.27,0,.06.06.19.1.08.27-.78.61-.39.92-.43a16.92,16.92,0,0,0,3.48-.6,16.12,16.12,0,0,1,1.9-.5.68.68,0,0,1,.54.2c.33.23.33.2.18,1.05v0c.56-.23,1.11-.15,1.61.64a.91.91,0,0,1,.14.51c0,.07.06.14.08.23.19.85.17,1-.17,1.24-.06,0-.19,0-.16.2s.11,0,.17,0,.26.24.39.37.52.16.76.44a.7.7,0,0,1,.24.66c0,.47-.09.9-.3.93s-.39.27-.57-.11c0,0-.08,0-.12.06h0c-.19.29-.43,0-.63.39a.92.92,0,0,0-.17.58c0,.72-.15,1-.43,1-.83.06-1.66.12-2.49.14a1.83,1.83,0,0,1-1-.25c-.18-.11-.38.19-.58.23a27.42,27.42,0,0,1-3.14-.05c-1,0-1.92.06-2.87.07-.56,0-1.13.22-1.69.2a22.36,22.36,0,0,1-3.17,0c-.3-.06-.62.19-.93.13a3.67,3.67,0,0,0-1.47-.11,6.36,6.36,0,0,1-2,.1c-.6-.06-1.21.09-1.81,0a3.92,3.92,0,0,0-1.31.19,1,1,0,0,1-.82-.21c-.21-.14-.46.09-.69.13s-.56.61-.8-.22c-.16.28-.35.08-.5.23s-.53-.12-.79,0-.12-.36-.19-.5-.13-.6-.22.08-.35.59-.55,0q-.12-.34-.21,0c-.1.39-.21.47-.35.13,0-.1-.12-.18-.15-.06-.23.88-.54.09-.8.32-.06.05-.12-.08-.12-.24,0-.46-.09-.44-.19-.19-.17.49-.4.41-.6.34-.64-.26-1.29,0-1.93-.27a26.16,26.16,0,0,0-2.62-.36,4.26,4.26,0,0,0-1.5.12,1.12,1.12,0,0,1-1.08-.43c-.38-.45-.8-.29-1.21-.32-.15,0-.28,0-.4-.32a2.39,2.39,0,0,1-.13-1c0-.41.15-.8.33-.79s.59-.25.88-.56.61,0,.92,0,.53.08.8.12c0,0,.09,0,.12,0a.5.5,0,0,0,.13-.4c0-.2-.09-.14-.14-.14a4.89,4.89,0,0,1-2-.56c-.38-.13-.75-.31-1.13-.47a.55.55,0,0,1-.2-.15,1.51,1.51,0,0,1-.3-1.22" fill="#726658"/>
  <path d="M1375.55,184.6h0" fill="#c2b59b"/>
  <path d="M1389.05,183.85s0,0,0,0m1.75,1.3v0s0,0,0,0m.26,3.89s0,0,.06,0,0-.11,0-.12,0,.05,0,.1m-40-4.22c0-.41.28-.79.48-.67s.53.12.78.41c0,.07.18.21.13-.11-.12-.73.17-.65.24-1,.1-.63.24-.14.37-.05s.25.24.37,0,.18-.14.24,0c.29.64.52,0,.75-.28s.3-.25.48-.15a6.85,6.85,0,0,0,2.1.47c.49.1,1,0,1.48.16.18,0,.29.41.46.39l.15,0c.26-.28.53-.7.8,0,.28-.4.56.52.84,0,0-.08.12-.11.17-.08a2.28,2.28,0,0,0,1.52.1c.1,0,.2,0,.27.27.44,0,.88-.44,1.32,0a.88.88,0,0,0,.88.11,2.4,2.4,0,0,1,.8.08,1.06,1.06,0,0,0,.5,0c.35-.11.74-.35,1,0s.52.57.81.08c0,0,.14-.09.19.12s.15.29.22.21c.43-.45.9.1,1.29-.24s1,.14,1.51,0a1.64,1.64,0,0,1,1-.08,2,2,0,0,0,1.61-.16c.42-.21.87,0,1.31,0a.34.34,0,0,1,.33.25v0h0l0,0c.09-.08.19-.26.28-.23.78.25,1.56-.46,2.34,0,.21.12.37-.24.57-.25a5.16,5.16,0,0,0,2.5-.34c.22-.12.48-.07.69.28,0,.06.06.18.1.07.26-.77.61-.39.92-.43a16.89,16.89,0,0,0,3.48-.59,14.72,14.72,0,0,1,1.89-.51.74.74,0,0,1,.55.2c.32.24.33.21.18,1.06,0,0,0,0,0,0,.56-.24,1.1-.15,1.61.63a.84.84,0,0,1,.13.51,1.57,1.57,0,0,1,.09.23c.18.85.17,1-.17,1.24-.07.05-.19,0-.17.21s.12,0,.18,0,.26.25.39.37.51.16.76.44a.72.72,0,0,1,.23.66c0,.47-.08.9-.3.94s-.38.27-.56-.11c0-.05-.08,0-.12.05h0c-.19.29-.42,0-.62.4a.9.9,0,0,0-.17.58c0,.71-.15,1-.44,1-.83.06-1.66.11-2.49.14a1.93,1.93,0,0,1-1-.26c-.19-.11-.38.2-.58.23a25.32,25.32,0,0,1-3.14,0c-1,0-1.92.06-2.88.07-.56,0-1.12.23-1.68.2a19.74,19.74,0,0,1-3.17,0c-.3-.06-.62.2-.93.14a3.54,3.54,0,0,0-1.48-.12,6.29,6.29,0,0,1-2,.11c-.61-.06-1.21.08-1.82,0a4,4,0,0,0-1.31.2,1,1,0,0,1-.82-.22c-.21-.14-.45.09-.68.14s-.57.61-.81-.22c-.15.28-.34.08-.5.22s-.52-.12-.78,0-.12-.36-.19-.5-.13-.59-.22.08-.36.59-.55,0c-.08-.23-.15-.24-.21,0-.1.39-.21.46-.35.13,0-.11-.12-.19-.15-.06-.23.87-.55.09-.81.31-.06,0-.11-.07-.11-.24,0-.46-.1-.44-.19-.18-.17.48-.4.41-.6.33-.64-.26-1.29,0-1.94-.26-.87-.3-1.74-.15-2.62-.37a4.22,4.22,0,0,0-1.49.12,1.09,1.09,0,0,1-1.08-.43c-.38-.45-.81-.29-1.21-.32-.15,0-.29,0-.4-.31a2.16,2.16,0,0,1-.13-1c0-.4.15-.79.33-.78s.59-.26.88-.56.61,0,.92,0,.53.08.8.12c0,0,.08,0,.12,0a.48.48,0,0,0,.13-.39c0-.21-.09-.15-.14-.14a4.89,4.89,0,0,1-2-.56c-.38-.13-.75-.31-1.13-.48a.64.64,0,0,1-.21-.14,1.53,1.53,0,0,1-.29-1.22" fill="#c2b59b"/>
  <path d="M1327.42,184.6h0s0,0,0,0" fill="#a97c50"/>
  <path d="M1340.92,183.85h0m1.76,1.3v0s0,0,0,.07a0,0,0,0,0,0,0m.26,3.89s0,0,.06,0,0-.11,0-.12,0,.05,0,.1m-40-4.22c0-.41.27-.79.47-.67s.54.12.78.41c.06.07.18.21.13-.11-.11-.73.18-.65.24-1,.11-.63.24-.14.38-.05s.24.24.37,0,.18-.14.24,0c.29.64.51,0,.74-.28s.3-.25.48-.15a6.85,6.85,0,0,0,2.11.47c.49.1,1,0,1.48.16.18,0,.29.41.46.39l.14,0c.27-.28.53-.7.81,0,.28-.4.55.52.84,0,0-.08.11-.11.16-.08a2.31,2.31,0,0,0,1.53.1c.1,0,.2,0,.26.27.44,0,.88-.44,1.32,0a.9.9,0,0,0,.89.11,2.42,2.42,0,0,1,.8.08,1.06,1.06,0,0,0,.5,0c.34-.11.74-.35,1,0s.53.57.81.08c0,0,.14-.09.19.12s.15.29.23.21c.42-.45.89.1,1.29-.24s1,.14,1.5,0a1.65,1.65,0,0,1,1.05-.08,2,2,0,0,0,1.61-.16c.43-.21.88,0,1.32,0a.33.33,0,0,1,.32.25v0h0l0,0c.09-.08.18-.26.27-.23.78.25,1.56-.46,2.34,0,.21.12.37-.24.58-.25a5.18,5.18,0,0,0,2.5-.34c.22-.12.47-.07.68.28,0,.06.06.18.1.07.27-.77.61-.39.92-.43a16.78,16.78,0,0,0,3.48-.59,14.86,14.86,0,0,1,1.9-.51.72.72,0,0,1,.54.2c.33.24.33.21.18,1.06v0c.56-.24,1.1-.15,1.6.63a.84.84,0,0,1,.14.51,1.55,1.55,0,0,1,.08.23c.19.85.17,1-.17,1.24-.06.05-.18,0-.16.21s.11,0,.17,0,.26.25.39.37.52.16.76.44a.72.72,0,0,1,.24.66c0,.47-.08.9-.3.94s-.39.27-.57-.11c0-.05-.08,0-.12.05h0c-.19.29-.42,0-.62.4a.85.85,0,0,0-.17.58c0,.71-.16,1-.44,1-.83.06-1.66.11-2.49.14a2,2,0,0,1-1-.26c-.18-.11-.38.2-.58.23a25.35,25.35,0,0,1-3.14,0c-.95,0-1.91.06-2.87.07-.56,0-1.13.23-1.69.2a19.75,19.75,0,0,1-3.17,0c-.3-.06-.62.2-.92.14a3.56,3.56,0,0,0-1.48-.12,6.31,6.31,0,0,1-2,.11c-.61-.06-1.22.08-1.82,0a4,4,0,0,0-1.31.2,1,1,0,0,1-.82-.22c-.21-.14-.45.09-.68.14s-.57.61-.81-.22c-.16.28-.35.08-.5.22s-.53-.12-.79,0-.11-.36-.18-.5-.14-.59-.23.08-.35.59-.54,0c-.09-.23-.15-.24-.21,0-.11.39-.22.46-.36.13,0-.11-.11-.19-.15-.06-.23.87-.54.09-.8.31-.06,0-.11-.07-.12-.24,0-.46-.09-.44-.18-.18-.18.48-.4.41-.6.33-.65-.26-1.3,0-1.94-.26-.87-.3-1.75-.15-2.62-.37a4.26,4.26,0,0,0-1.5.12,1.07,1.07,0,0,1-1.07-.43c-.39-.45-.81-.29-1.22-.32-.15,0-.28,0-.39-.31a2.29,2.29,0,0,1-.14-1c0-.4.15-.79.33-.78s.59-.26.89-.56.6,0,.91,0,.53.08.8.12c0,0,.09,0,.13,0a.51.51,0,0,0,.13-.39c0-.21-.09-.15-.14-.14a4.94,4.94,0,0,1-2-.56c-.37-.13-.75-.31-1.13-.48a.52.52,0,0,1-.2-.14,1.53,1.53,0,0,1-.29-1.22" fill="#a97c50"/>
  <path d="M1425.27,184.6h0s0,0,0,0" fill="#a97c50"/>
  <path d="M1438.77,183.85h0m1.76,1.3v0s0,0,0,.07a0,0,0,0,0,0,0m.26,3.89s0,0,.06,0,0-.11,0-.12,0,.05,0,.1m-40-4.22c0-.41.27-.79.47-.67s.54.12.78.41c.06.07.18.21.13-.11-.11-.73.18-.65.24-1,.11-.63.24-.14.38-.05s.25.24.37,0,.18-.14.24,0c.29.64.51,0,.74-.28s.3-.25.48-.15a6.91,6.91,0,0,0,2.11.47c.49.1,1,0,1.48.16.18,0,.29.41.46.39l.14,0c.27-.28.53-.7.81,0,.28-.4.55.52.84,0,0-.08.11-.11.16-.08a2.31,2.31,0,0,0,1.53.1c.1,0,.2,0,.26.27.44,0,.88-.44,1.32,0a.9.9,0,0,0,.89.11,2.42,2.42,0,0,1,.8.08,1.06,1.06,0,0,0,.5,0c.34-.11.74-.35,1,0s.53.57.81.08c0,0,.14-.09.19.12s.15.29.23.21c.42-.45.89.1,1.29-.24s1,.14,1.5,0a1.65,1.65,0,0,1,1-.08,2,2,0,0,0,1.61-.16c.43-.21.88,0,1.32,0a.33.33,0,0,1,.32.25v0h0l0,0c.09-.08.18-.26.27-.23.78.25,1.57-.46,2.34,0,.21.12.37-.24.58-.25a5.18,5.18,0,0,0,2.5-.34c.22-.12.47-.07.68.28,0,.06.06.18.1.07.27-.77.61-.39.92-.43a16.78,16.78,0,0,0,3.48-.59,14.86,14.86,0,0,1,1.9-.51.72.72,0,0,1,.54.2c.33.24.33.21.18,1.06v0c.56-.24,1.1-.15,1.6.63a.84.84,0,0,1,.14.51,1.55,1.55,0,0,1,.08.23c.19.85.17,1-.17,1.24-.06.05-.18,0-.16.21s.11,0,.17,0,.26.25.39.37.52.16.76.44a.72.72,0,0,1,.24.66c0,.47-.08.9-.3.94s-.39.27-.57-.11c0-.05-.08,0-.12.05h0c-.19.29-.42,0-.62.4a.85.85,0,0,0-.17.58c0,.71-.16,1-.44,1-.83.06-1.66.11-2.49.14a2,2,0,0,1-1-.26c-.18-.11-.38.2-.58.23a25.35,25.35,0,0,1-3.14,0c-1,0-1.91.06-2.87.07-.56,0-1.13.23-1.69.2a19.75,19.75,0,0,1-3.17,0c-.3-.06-.62.2-.92.14a3.56,3.56,0,0,0-1.48-.12,6.31,6.31,0,0,1-2,.11c-.61-.06-1.22.08-1.82,0a4,4,0,0,0-1.31.2,1,1,0,0,1-.82-.22c-.21-.14-.45.09-.68.14s-.57.61-.81-.22c-.16.28-.35.08-.5.22s-.53-.12-.78,0-.12-.36-.19-.5-.14-.59-.23.08-.35.59-.54,0c-.09-.23-.15-.24-.21,0-.11.39-.22.46-.36.13,0-.11-.11-.19-.15-.06-.23.87-.54.09-.8.31-.06,0-.11-.07-.12-.24,0-.46-.09-.44-.18-.18-.18.48-.4.41-.6.33-.65-.26-1.3,0-1.94-.26-.87-.3-1.75-.15-2.62-.37a4.26,4.26,0,0,0-1.5.12,1.07,1.07,0,0,1-1.07-.43c-.39-.45-.81-.29-1.22-.32-.15,0-.28,0-.39-.31a2.29,2.29,0,0,1-.14-1c.05-.4.15-.79.33-.78s.59-.26.89-.56.6,0,.91,0,.53.08.8.12c0,0,.09,0,.13,0a.51.51,0,0,0,.13-.39c0-.21-.09-.15-.14-.14a4.85,4.85,0,0,1-2-.56c-.38-.13-.76-.31-1.14-.48a.52.52,0,0,1-.2-.14,1.53,1.53,0,0,1-.29-1.22" fill="#a97c50"/>
  <path d="M120.68,451h0" fill="#231f20"/>
  <path d="M135.22,450.19s0,0,0,0m1.89,1.4v0m.28,4.19s0,0,.06,0,0-.12,0-.13,0,.06,0,.11m-43.07-4.55c0-.44.3-.85.51-.72s.57.13.84.44c.06.07.2.22.14-.12-.13-.78.19-.7.26-1.1.11-.67.26-.15.4-.05s.27.25.4,0,.2-.15.26,0c.31.68.55,0,.8-.31s.32-.26.52-.16a7.68,7.68,0,0,0,2.26.51c.53.11,1.07,0,1.6.16.19,0,.31.45.49.43l.16,0c.29-.3.57-.75.87-.05.3-.43.6.56.9,0,0-.08.13-.11.18-.08a2.44,2.44,0,0,0,1.64.1c.11,0,.22,0,.29.29.47.05.94-.48,1.42,0,.31.28.63.18.95.12a2.49,2.49,0,0,1,.86.08,1,1,0,0,0,.54,0c.37-.12.8-.38,1.12,0s.56.62.87.09c0,0,.14-.1.2.12s.16.31.24.23c.46-.48,1,.11,1.39-.26s1.08.15,1.62,0a1.83,1.83,0,0,1,1.13-.08,2.18,2.18,0,0,0,1.74-.17c.45-.23.94,0,1.41,0a.36.36,0,0,1,.35.27h0s0,0,0,.05.2-.28.3-.25c.84.27,1.68-.49,2.52,0,.23.13.4-.26.62-.26a5.7,5.7,0,0,0,2.69-.37c.24-.13.51-.08.74.29,0,.07.06.2.1.08.29-.83.66-.42,1-.46a18.08,18.08,0,0,0,3.74-.64,18.82,18.82,0,0,1,2.05-.55.79.79,0,0,1,.58.22c.35.25.35.22.19,1.14v0c.6-.25,1.18-.16,1.73.68a1,1,0,0,1,.14.55,1.45,1.45,0,0,1,.09.25c.2.92.18,1.06-.18,1.33-.07.05-.2,0-.18.23s.13,0,.19,0,.28.26.42.4.56.17.82.47a.78.78,0,0,1,.25.71c0,.51-.08,1-.32,1s-.41.29-.61-.12c0-.05-.09,0-.13.06h0c-.21.31-.46,0-.67.42a1,1,0,0,0-.19.63c0,.77-.16,1.1-.47,1.12-.89.06-1.78.12-2.68.15a1.94,1.94,0,0,1-1-.28c-.2-.11-.41.22-.62.25a29.29,29.29,0,0,1-3.38-.05c-1,.05-2.07.06-3.1.08-.6,0-1.21.24-1.82.21a22.85,22.85,0,0,1-3.41,0c-.32-.07-.66.21-1,.15a3.74,3.74,0,0,0-1.59-.13,7,7,0,0,1-2.13.11c-.66-.06-1.31.1-2,0a4.31,4.31,0,0,0-1.41.21,1.09,1.09,0,0,1-.88-.23c-.23-.15-.49.1-.74.14s-.61.66-.87-.23c-.16.3-.37.08-.53.24s-.57-.13-.85,0-.13-.39-.2-.55-.15-.64-.24.09-.39.64-.59,0c-.09-.24-.16-.26-.23,0-.11.42-.23.51-.38.15,0-.12-.12-.2-.16-.07-.25.94-.58.1-.87.34-.06.06-.12-.08-.12-.26,0-.49-.1-.47-.2-.2-.19.52-.43.45-.65.36-.69-.28-1.39,0-2.08-.28-.94-.32-1.88-.16-2.82-.39A4.62,4.62,0,0,0,98,458a1.17,1.17,0,0,1-1.17-.46c-.41-.48-.86-.31-1.3-.34-.16,0-.31,0-.43-.34a2.33,2.33,0,0,1-.14-1.11c0-.44.16-.86.35-.86.34,0,.64-.27,1-.59s.66,0,1,0,.57.09.86.13c0,0,.1.05.13,0a.54.54,0,0,0,.15-.43c0-.22-.1-.15-.16-.15a5.15,5.15,0,0,1-2.13-.6c-.41-.14-.81-.33-1.22-.51a.61.61,0,0,1-.22-.16,1.61,1.61,0,0,1-.31-1.31" fill="#231f20"/>
  <path d="M91,380.61h0s0,0,0,0" fill="#231f20"/>
  <path d="M105.51,379.8s0,0,0,0m1.89,1.4v0a0,0,0,0,0,0,0m.28,4.19s0,0,.06,0,0-.12,0-.13,0,.06,0,.11m-43.07-4.55c0-.44.29-.85.51-.71s.57.13.84.44c.06.07.2.22.14-.13-.13-.78.19-.7.25-1.09.12-.68.26-.15.41-.06s.27.26.4,0,.19-.14.26,0c.31.68.55-.05.8-.31s.32-.26.52-.16a7.25,7.25,0,0,0,2.26.51c.53.11,1.06,0,1.59.17.2.05.32.44.5.42l.16,0c.28-.3.57-.75.86,0,.31-.44.6.56.91,0,0-.08.12-.11.18-.08a2.44,2.44,0,0,0,1.64.1c.1,0,.22,0,.29.3.47,0,.94-.48,1.42,0,.31.28.63.18,1,.12a2.52,2.52,0,0,1,.86.08,1,1,0,0,0,.54,0c.37-.11.8-.37,1.11,0s.57.62.88.09c0,0,.14-.1.2.13s.16.31.24.22c.46-.48,1,.12,1.39-.26s1.08.16,1.62,0a1.76,1.76,0,0,1,1.13-.09,2.14,2.14,0,0,0,1.74-.17c.45-.23.94,0,1.41,0a.36.36,0,0,1,.35.27v0l0,.06c.1-.1.2-.28.3-.25.84.26,1.68-.5,2.52,0,.22.13.4-.25.62-.26a5.72,5.72,0,0,0,2.69-.37c.23-.13.51-.08.73.3,0,.06.07.2.11.08.29-.84.66-.42,1-.46a18.87,18.87,0,0,0,3.75-.64,15.43,15.43,0,0,1,2-.55.8.8,0,0,1,.59.21c.35.26.35.23.19,1.14v0c.61-.25,1.19-.16,1.74.69a1,1,0,0,1,.14.55,1.45,1.45,0,0,1,.09.25c.2.91.18,1.06-.18,1.33-.07.05-.2,0-.18.22s.12,0,.19,0,.28.27.42.4.56.17.82.48a.78.78,0,0,1,.25.71c0,.5-.09,1-.32,1s-.42.3-.61-.12c0,0-.09,0-.13.06h0c-.2.31-.45,0-.67.43a1,1,0,0,0-.18.62c0,.77-.16,1.1-.47,1.12-.89.07-1.79.13-2.68.15a1.93,1.93,0,0,1-1-.27c-.2-.12-.41.21-.63.25a29.37,29.37,0,0,1-3.38-.06c-1,0-2.06.07-3.09.08-.61,0-1.22.24-1.82.21a21.57,21.57,0,0,1-3.41,0c-.32-.06-.67.21-1,.15a4.09,4.09,0,0,0-1.59-.13,6.66,6.66,0,0,1-2.13.11c-.66-.06-1.31.1-2,0a4.59,4.59,0,0,0-1.41.21,1.12,1.12,0,0,1-.88-.22c-.23-.16-.49.09-.74.14s-.61.65-.87-.24c-.17.3-.37.09-.54.24s-.56-.13-.84.05-.13-.39-.2-.54-.15-.64-.24.09-.39.63-.6,0c-.08-.25-.16-.26-.22,0-.11.42-.23.5-.38.14,0-.11-.13-.2-.16-.06-.25.94-.59.09-.87.33-.06.06-.12-.08-.12-.26,0-.49-.11-.47-.2-.2-.19.53-.44.45-.65.36-.69-.27-1.4,0-2.09-.28-.93-.32-1.88-.16-2.82-.39a4.43,4.43,0,0,0-1.61.13,1.2,1.2,0,0,1-1.16-.46c-.41-.49-.87-.32-1.31-.35-.16,0-.3,0-.42-.34a2.46,2.46,0,0,1-.15-1.11c.05-.44.17-.86.36-.85.34,0,.63-.28,1-.6s.66,0,1,0a8.51,8.51,0,0,1,.86.13s.09,0,.13,0a.5.5,0,0,0,.14-.42c0-.22-.09-.16-.15-.15a5.33,5.33,0,0,1-2.13-.61c-.41-.14-.81-.33-1.22-.51a.62.62,0,0,1-.22-.15,1.61,1.61,0,0,1-.31-1.32" fill="#231f20"/>
  <path d="M200.32,456.45h0s0,0,0,0" fill="#231f20"/>
  <path d="M214.85,455.65s0,0,0,0m1.9,1.4V457a.17.17,0,0,0,0,.07v0m.28,4.19s0,0,.06,0a.5.5,0,0,0,0-.13s-.05.06,0,.12M174,456.68c0-.43.3-.85.52-.71s.57.13.84.44c.06.07.19.22.14-.12-.13-.79.19-.7.25-1.1.12-.68.26-.15.41-.05s.26.25.39,0,.2-.15.27,0c.31.68.55,0,.8-.3s.32-.27.51-.16a8,8,0,0,0,2.27.51c.53.1,1.06,0,1.59.16.2.05.32.45.5.42l.15,0c.29-.31.58-.75.87-.05.31-.43.6.56.91,0,0-.08.12-.11.18-.08a2.44,2.44,0,0,0,1.64.1c.1,0,.21,0,.28.3.48.05.95-.48,1.42,0a1,1,0,0,0,1,.13,2.34,2.34,0,0,1,.87.08,1.24,1.24,0,0,0,.54,0c.37-.12.79-.38,1.11,0s.57.62.87.09c0,0,.15-.1.2.12s.17.31.25.23c.46-.49,1,.11,1.39-.26s1.08.15,1.62,0a1.83,1.83,0,0,1,1.13-.08,2.16,2.16,0,0,0,1.73-.18c.46-.22.95,0,1.42,0a.36.36,0,0,1,.35.26v0h0s0,0,0,.05.21-.28.3-.25c.84.27,1.69-.5,2.52,0,.23.14.4-.25.62-.26a5.58,5.58,0,0,0,2.69-.37c.24-.13.51-.07.74.3,0,.06.07.2.11.08.29-.83.66-.42,1-.46a18.17,18.17,0,0,0,3.75-.64,17.14,17.14,0,0,1,2-.55.83.83,0,0,1,.59.22c.35.25.35.22.19,1.14a0,0,0,0,1,0,0h0c.6-.24,1.19-.15,1.73.69a1,1,0,0,1,.15.55,1.45,1.45,0,0,1,.09.25c.2.91.18,1.06-.19,1.33-.06,0-.19,0-.17.23s.12,0,.19,0,.28.26.42.39.55.18.81.48a.75.75,0,0,1,.26.71c0,.5-.09,1-.33,1s-.41.29-.61-.12c0-.05-.08,0-.13.06v0c-.2.32-.45,0-.67.43a1,1,0,0,0-.18.63c0,.76-.17,1.09-.47,1.12-.9.06-1.79.12-2.68.15a1.92,1.92,0,0,1-1-.28c-.2-.11-.41.22-.63.25a27.24,27.24,0,0,1-3.38-.06c-1,.05-2.06.07-3.09.09-.61,0-1.22.23-1.82.2a21.56,21.56,0,0,1-3.41,0c-.32-.07-.67.21-1,.14a3.9,3.9,0,0,0-1.59-.12,7,7,0,0,1-2.14.11c-.65-.06-1.3.09-2,0a4.56,4.56,0,0,0-1.41.22,1.11,1.11,0,0,1-.89-.23c-.22-.15-.48.09-.73.14s-.61.65-.87-.24c-.17.31-.38.09-.54.25s-.56-.13-.84,0-.13-.39-.21-.54-.14-.64-.24.09-.38.63-.59,0c-.08-.25-.16-.26-.22,0-.12.42-.23.5-.38.15-.05-.12-.13-.21-.17-.07-.24.94-.58.1-.86.34-.07.05-.12-.08-.13-.26,0-.5-.1-.48-.2-.2-.18.52-.43.44-.64.36-.7-.28-1.4,0-2.09-.28-.93-.32-1.88-.16-2.82-.4a4.67,4.67,0,0,0-1.61.13,1.18,1.18,0,0,1-1.16-.46c-.41-.49-.87-.31-1.31-.34-.16,0-.3,0-.42-.35a2.29,2.29,0,0,1-.15-1.11c.05-.43.16-.85.36-.85s.63-.27,1-.6.65,0,1,0,.58.09.87.13c0,0,.09,0,.13,0a.58.58,0,0,0,.14-.43c0-.22-.1-.16-.15-.15a5.47,5.47,0,0,1-2.13-.6c-.41-.15-.82-.34-1.22-.51a.65.65,0,0,1-.22-.16,1.65,1.65,0,0,1-.32-1.32" fill="#231f20"/>
  <path d="M178.21,431.82h0s0,0,0,0" fill="#231f20"/>
  <path d="M192.75,431s0,0,0,0m1.89,1.4v0m.28,4.18s0,0,.06,0,0-.12,0-.13-.05.06,0,.11m-43.08-4.55c0-.44.3-.85.52-.71s.57.13.84.44c.06.07.19.22.14-.13-.13-.78.19-.7.25-1.09.12-.68.26-.15.41-.06s.27.26.4,0,.19-.14.26,0c.31.68.55,0,.8-.3s.32-.27.51-.17a7.38,7.38,0,0,0,2.27.51c.53.11,1.06,0,1.59.17.2.05.32.45.5.42l.16,0c.28-.3.57-.75.86,0,.31-.43.6.56.91,0,.05-.08.12-.11.18-.08a2.44,2.44,0,0,0,1.64.1c.1,0,.21,0,.28.3.48.05.95-.48,1.43,0,.31.29.63.18.94.13a2.32,2.32,0,0,1,.87.07,1,1,0,0,0,.54,0c.37-.11.79-.37,1.11,0s.57.61.87.08c0,0,.15-.09.2.13s.17.31.25.22c.46-.48,1,.12,1.39-.25s1.08.15,1.62,0a1.69,1.69,0,0,1,1.13-.08,2.19,2.19,0,0,0,1.74-.18c.45-.22.94,0,1.41,0a.36.36,0,0,1,.35.27v0h0l0,.05c.09-.09.2-.28.29-.25.85.27,1.69-.5,2.53,0,.22.14.39-.25.61-.26a5.58,5.58,0,0,0,2.69-.37c.24-.13.51-.07.74.3,0,.06.07.2.11.08.29-.84.66-.42,1-.46a18.17,18.17,0,0,0,3.75-.64,15,15,0,0,1,2-.55.78.78,0,0,1,.59.22c.35.25.35.22.19,1.14h0c.6-.25,1.19-.16,1.73.69a.88.88,0,0,1,.15.55,1.45,1.45,0,0,1,.09.25c.2.91.18,1.06-.19,1.33-.06,0-.19,0-.17.22s.12,0,.19,0,.28.27.42.4.55.17.81.48a.75.75,0,0,1,.26.71c0,.5-.09,1-.32,1s-.42.29-.61-.12c0,0-.09,0-.13.05h0c-.2.31-.45,0-.67.43a1,1,0,0,0-.18.62c0,.77-.17,1.1-.47,1.12-.89.07-1.79.13-2.68.15a1.91,1.91,0,0,1-1-.27c-.2-.12-.41.21-.63.25a29.37,29.37,0,0,1-3.38-.06c-1,.05-2.06.07-3.09.08-.61,0-1.22.24-1.82.21a20.44,20.44,0,0,1-3.41,0c-.32-.06-.67.21-1,.15a4.09,4.09,0,0,0-1.59-.13,7,7,0,0,1-2.14.12c-.65-.07-1.3.09-1.95,0a4.59,4.59,0,0,0-1.41.21,1.11,1.11,0,0,1-.89-.22c-.22-.16-.49.09-.73.14s-.61.65-.87-.24c-.17.3-.38.09-.54.24s-.56-.13-.84.05-.13-.39-.21-.54-.14-.64-.24.09-.38.63-.59,0c-.08-.25-.16-.26-.22,0-.12.42-.23.5-.38.14,0-.11-.13-.2-.16-.06-.25.94-.59.09-.87.34-.07.05-.12-.09-.13-.27,0-.49-.1-.47-.19-.19-.19.52-.44.44-.65.36-.69-.28-1.4-.05-2.09-.29-.93-.32-1.88-.16-2.82-.39a4.43,4.43,0,0,0-1.61.13,1.18,1.18,0,0,1-1.16-.46c-.41-.49-.87-.31-1.31-.35-.16,0-.3,0-.42-.34a2.33,2.33,0,0,1-.15-1.11c.05-.44.16-.86.36-.85s.63-.27.95-.6.66,0,1,0,.57.08.86.13c0,0,.09,0,.13,0a.5.5,0,0,0,.14-.42c0-.22-.09-.16-.15-.15a5.33,5.33,0,0,1-2.13-.61c-.41-.14-.81-.33-1.22-.51a.62.62,0,0,1-.22-.15,1.65,1.65,0,0,1-.32-1.32" fill="#231f20"/>
  <path d="M126.39,431.82h0" fill="#231f20"/>
  <path d="M140.92,431h0m1.9,1.4v-.05a.17.17,0,0,0,0,.07v0m.28,4.18s0,0,.06,0,0-.12,0-.13-.05.06,0,.11M100,432.05c0-.44.3-.85.51-.71s.58.13.85.44c.06.07.19.22.14-.13-.13-.78.19-.7.25-1.09.12-.68.26-.15.41-.06s.26.26.39,0,.2-.14.27,0c.31.68.55,0,.8-.3s.32-.27.51-.17a7.38,7.38,0,0,0,2.27.51c.53.11,1.06,0,1.59.17.2.05.32.45.5.42l.15,0c.29-.3.58-.75.87,0,.31-.43.6.56.91,0,0-.08.12-.11.17-.08a2.47,2.47,0,0,0,1.65.1c.1,0,.21,0,.28.3.48.05.95-.48,1.42,0,.31.29.64.18,1,.13a2.34,2.34,0,0,1,.87.07,1,1,0,0,0,.54,0c.37-.11.79-.37,1.11,0s.57.61.87.08c0,0,.15-.09.2.13s.17.31.25.22c.46-.48,1,.12,1.39-.25s1.08.15,1.62,0a1.69,1.69,0,0,1,1.13-.08,2.16,2.16,0,0,0,1.73-.18c.46-.22.94,0,1.42,0a.36.36,0,0,1,.35.27v0h0s0,0,0,.05.21-.28.3-.25c.84.27,1.69-.5,2.52,0,.23.14.4-.25.62-.26a5.58,5.58,0,0,0,2.69-.37c.24-.13.51-.07.74.3,0,.06.07.2.11.08.29-.84.66-.42,1-.46a18.17,18.17,0,0,0,3.75-.64,15,15,0,0,1,2-.55.78.78,0,0,1,.59.22c.35.25.35.22.19,1.14h0c.61-.25,1.19-.16,1.73.69a1,1,0,0,1,.15.55c0,.08.06.15.09.25.2.91.18,1.06-.19,1.33-.07,0-.19,0-.17.22s.12,0,.19,0,.28.27.42.4.55.17.81.48a.75.75,0,0,1,.26.71c0,.5-.09,1-.33,1s-.41.29-.61-.12c0,0-.08,0-.13.05h0c-.2.31-.45,0-.67.43a1,1,0,0,0-.18.62c0,.77-.17,1.1-.47,1.12-.9.07-1.79.13-2.68.15a1.91,1.91,0,0,1-1-.27c-.2-.12-.41.21-.63.25a29.33,29.33,0,0,1-3.38-.06c-1,.05-2.06.07-3.1.08-.6,0-1.21.24-1.81.21a20.43,20.43,0,0,1-3.41,0c-.32-.06-.67.21-1,.15a4.09,4.09,0,0,0-1.59-.13,7,7,0,0,1-2.14.12c-.65-.07-1.3.09-2,0a4.66,4.66,0,0,0-1.42.21,1.09,1.09,0,0,1-.88-.22c-.22-.16-.49.09-.73.14s-.61.65-.87-.24c-.17.3-.38.09-.54.24s-.56-.13-.85.05-.12-.39-.2-.54-.14-.64-.24.09-.38.63-.59,0c-.08-.25-.16-.26-.22,0-.12.42-.23.5-.38.14,0-.11-.13-.2-.17-.06-.24.94-.58.09-.86.34-.07.05-.12-.09-.13-.27,0-.49-.1-.47-.2-.19-.18.52-.43.44-.64.36-.7-.28-1.4-.05-2.09-.29-.94-.32-1.88-.16-2.82-.39a4.43,4.43,0,0,0-1.61.13,1.18,1.18,0,0,1-1.16-.46c-.41-.49-.87-.31-1.31-.35-.16,0-.3,0-.42-.34a2.33,2.33,0,0,1-.15-1.11c.05-.44.16-.86.36-.85s.63-.27,1-.6.65,0,1,0,.58.08.87.13c0,0,.09,0,.13,0a.53.53,0,0,0,.14-.42c0-.22-.1-.16-.15-.15a5.33,5.33,0,0,1-2.13-.61c-.41-.14-.82-.33-1.22-.51a.62.62,0,0,1-.22-.15,1.65,1.65,0,0,1-.32-1.32" fill="#231f20"/>
  <path d="M231.75,431.82h0s0,0,0,0" fill="#231f20"/>
  <path d="M246.29,431s0,0,0,0m1.89,1.4v0m.28,4.18s0,0,.06,0,0-.12,0-.13,0,.06,0,.11m-43.07-4.55c0-.44.3-.85.51-.71s.57.13.84.44c.06.07.2.22.14-.13-.13-.78.19-.7.26-1.09.11-.68.26-.15.4-.06s.27.26.4,0,.2-.14.26,0c.31.68.55,0,.8-.3s.32-.27.52-.17a7.38,7.38,0,0,0,2.26.51c.53.11,1.07,0,1.6.17.19.05.31.45.49.42l.16,0c.29-.3.57-.75.87,0,.3-.43.6.56.9,0,0-.08.13-.11.18-.08a2.44,2.44,0,0,0,1.64.1c.11,0,.22,0,.29.3.47.05.94-.48,1.42,0,.31.29.63.18.95.13a2.27,2.27,0,0,1,.86.07,1,1,0,0,0,.54,0c.37-.11.8-.37,1.12,0s.56.61.87.08c0,0,.14-.09.2.13s.16.31.24.22c.46-.48,1,.12,1.39-.25s1.08.15,1.62,0a1.69,1.69,0,0,1,1.13-.08,2.18,2.18,0,0,0,1.74-.18c.45-.22.94,0,1.41,0a.36.36,0,0,1,.35.27v0h0s0,0,0,.05.2-.28.3-.25c.84.27,1.68-.5,2.52,0,.23.14.4-.25.62-.26a5.58,5.58,0,0,0,2.69-.37c.24-.13.51-.07.74.3,0,.06.06.2.1.08.29-.84.66-.42,1-.46a18.08,18.08,0,0,0,3.74-.64,15.16,15.16,0,0,1,2-.55.75.75,0,0,1,.58.22c.35.25.35.22.19,1.14h0c.6-.25,1.18-.16,1.73.69a1,1,0,0,1,.14.55,1.45,1.45,0,0,1,.09.25c.2.91.18,1.06-.18,1.33-.07,0-.2,0-.18.22s.13,0,.19,0,.28.27.42.4.56.17.82.48a.78.78,0,0,1,.25.71c0,.5-.08,1-.32,1s-.41.29-.61-.12c0,0-.09,0-.13.05h0c-.21.31-.46,0-.67.43a1,1,0,0,0-.19.62c0,.77-.16,1.1-.47,1.12-.89.07-1.78.13-2.68.15a1.93,1.93,0,0,1-1-.27c-.2-.12-.41.21-.62.25a29.29,29.29,0,0,1-3.38-.06c-1,.05-2.07.07-3.1.08-.6,0-1.21.24-1.82.21a20.45,20.45,0,0,1-3.41,0c-.32-.06-.66.21-1,.15a4.09,4.09,0,0,0-1.59-.13,7,7,0,0,1-2.13.12c-.66-.07-1.31.09-2,0a4.59,4.59,0,0,0-1.41.21,1.09,1.09,0,0,1-.88-.22c-.23-.16-.49.09-.74.14s-.61.65-.87-.24c-.16.3-.37.09-.53.24s-.57-.13-.85.05-.13-.39-.2-.54-.15-.64-.24.09-.39.63-.59,0c-.09-.25-.16-.26-.23,0-.11.42-.23.5-.38.14,0-.11-.12-.2-.16-.06-.25.94-.58.09-.87.34-.06.05-.12-.09-.12-.27,0-.49-.1-.47-.2-.19-.19.52-.43.44-.65.36-.69-.28-1.39-.05-2.08-.29-.94-.32-1.88-.16-2.82-.39a4.4,4.4,0,0,0-1.61.13,1.19,1.19,0,0,1-1.17-.46c-.41-.49-.86-.31-1.3-.35-.16,0-.31,0-.43-.34a2.33,2.33,0,0,1-.14-1.11c.05-.44.16-.86.35-.85.34,0,.64-.27,1-.6s.66,0,1,0,.57.08.86.13c0,0,.09,0,.13,0a.53.53,0,0,0,.15-.42c0-.22-.1-.16-.16-.15a5.33,5.33,0,0,1-2.13-.61c-.41-.14-.81-.33-1.22-.51a.72.72,0,0,1-.22-.15,1.65,1.65,0,0,1-.31-1.32" fill="#231f20"/>
  <path d="M163.82,346.86h0s0,0,0,0" fill="#a97c50"/>
  <path d="M149.28,347.67s0,0,0,0m-1.89-1.4v0s0,0,0-.07a0,0,0,0,0,0,0m-.28-4.19s0,0-.06,0,0,.12,0,.13,0-.06,0-.11m43.08,4.55c0,.44-.3.85-.52.71s-.57-.12-.84-.44c-.06-.07-.19-.22-.14.13.13.78-.19.7-.25,1.09-.12.68-.26.15-.41.06s-.27-.26-.4,0-.19.14-.26,0c-.31-.68-.55.05-.8.31s-.32.26-.51.16a7.38,7.38,0,0,0-2.27-.51c-.53-.11-1.06,0-1.59-.17-.2,0-.32-.44-.5-.42l-.16,0c-.28.3-.57.75-.86,0-.31.44-.6-.55-.91,0-.05.08-.12.11-.18.08a2.44,2.44,0,0,0-1.64-.1c-.1,0-.21,0-.28-.29-.48-.05-.95.47-1.42,0a1,1,0,0,0-.95-.12,2.55,2.55,0,0,1-.87-.08,1,1,0,0,0-.54,0c-.37.11-.79.37-1.11,0s-.57-.62-.87-.09c0,0-.15.1-.2-.13s-.17-.31-.25-.22c-.46.48-1-.12-1.39.26s-1.08-.16-1.62,0a1.76,1.76,0,0,1-1.13.09,2.16,2.16,0,0,0-1.73.17c-.46.23-1,0-1.42,0a.36.36,0,0,1-.35-.27h0a.11.11,0,0,1,0-.06c-.1.1-.21.29-.3.26-.85-.27-1.69.49-2.53,0-.22-.13-.39.25-.61.26a5.7,5.7,0,0,0-2.69.37c-.24.13-.51.08-.74-.3,0-.06-.07-.2-.11-.08-.29.84-.66.42-1,.47a18.84,18.84,0,0,0-3.75.63,15,15,0,0,1-2,.55.81.81,0,0,1-.59-.21c-.35-.26-.35-.23-.19-1.14v0c-.61.25-1.19.16-1.73-.68a.94.94,0,0,1-.15-.56,1.7,1.7,0,0,1-.09-.24c-.2-.92-.18-1.07.19-1.34.07,0,.19,0,.17-.22s-.12,0-.19,0-.28-.27-.42-.4-.55-.17-.81-.47A.78.78,0,0,1,146,343c0-.51.09-1,.32-1s.42-.29.61.12c0,0,.09,0,.13-.06h0c.2-.31.45,0,.67-.43a1,1,0,0,0,.18-.62c0-.77.17-1.1.47-1.12.89-.07,1.79-.13,2.68-.15a1.91,1.91,0,0,1,1,.27c.2.12.41-.21.63-.25a29.37,29.37,0,0,1,3.38.06c1-.05,2.06-.06,3.09-.08.61,0,1.22-.24,1.82-.21a22.83,22.83,0,0,1,3.41,0c.32.06.67-.21,1-.15a4.09,4.09,0,0,0,1.59.13,6.71,6.71,0,0,1,2.14-.11c.65.06,1.3-.1,1.95,0a4.59,4.59,0,0,0,1.41-.21,1.11,1.11,0,0,1,.89.23c.22.15.48-.1.73-.15s.61-.65.87.24c.17-.3.38-.09.54-.24s.56.13.84-.05.13.39.21.54.14.65.24-.08.38-.64.59-.05c.08.25.16.26.22,0,.12-.42.23-.5.38-.14,0,.11.13.2.16.06.25-.93.59-.09.87-.33.07-.06.12.08.13.26,0,.49.1.47.19.2.19-.53.44-.45.65-.36.69.27,1.4,0,2.09.28.93.32,1.88.16,2.82.39a4.43,4.43,0,0,0,1.61-.13,1.2,1.2,0,0,1,1.16.46c.41.49.87.32,1.31.35.16,0,.3,0,.42.34a2.33,2.33,0,0,1,.15,1.11c-.05.44-.16.86-.36.85s-.63.28-.95.6-.65.05-1,0-.57-.08-.86-.13c0,0-.09,0-.13,0a.5.5,0,0,0-.14.42c0,.22.09.16.15.15a5.33,5.33,0,0,1,2.13.61c.41.14.81.33,1.22.51a.54.54,0,0,1,.22.16,1.61,1.61,0,0,1,.32,1.31" fill="#a97c50"/>
  <path d="M193.53,417.25h0" fill="#a97c50"/>
  <path d="M179,418.05h0m-1.9-1.4a.43.43,0,0,0,0,.05v-.05m-.28-4.18s0,0-.06,0,0,.12,0,.13,0-.06,0-.11M219.9,417c0,.44-.3.85-.51.71s-.58-.13-.85-.44c-.06-.07-.19-.22-.13.13.12.78-.19.69-.26,1.09-.11.68-.26.15-.41.05s-.26-.25-.39,0-.2.15-.26,0c-.31-.68-.56,0-.81.3s-.32.27-.51.17a7.38,7.38,0,0,0-2.27-.51c-.53-.11-1.06,0-1.59-.17-.19-.05-.32-.45-.5-.42l-.15,0c-.29.31-.58.76-.87.05-.3.43-.6-.56-.91,0,0,.08-.12.11-.17.08a2.47,2.47,0,0,0-1.65-.1c-.1,0-.21,0-.28-.3-.47-.05-.95.48-1.42,0-.31-.29-.64-.18-1-.13a2.34,2.34,0,0,1-.87-.08,1.11,1.11,0,0,0-.54,0c-.37.11-.79.37-1.11,0s-.56-.61-.87-.09c0,0-.15.1-.2-.12s-.17-.31-.25-.22c-.46.48-1-.12-1.39.25s-1.08-.15-1.62,0a1.69,1.69,0,0,1-1.13.08,2.16,2.16,0,0,0-1.73.18c-.46.22-.94,0-1.42,0a.36.36,0,0,1-.35-.26v0h0s0,0,0-.05-.21.28-.3.25c-.84-.27-1.68.5-2.52,0-.23-.14-.4.25-.62.26a5.58,5.58,0,0,0-2.69.37c-.24.13-.51.07-.74-.3,0-.06-.06-.2-.11-.08-.28.84-.66.42-1,.46a18,18,0,0,0-3.74.64,15.56,15.56,0,0,1-2.05.55.79.79,0,0,1-.58-.22c-.35-.25-.36-.22-.2-1.14h0c-.6.24-1.19.16-1.73-.69a.89.89,0,0,1-.14-.55,1.45,1.45,0,0,1-.1-.25c-.2-.91-.18-1.06.19-1.33.07-.05.2,0,.17-.23s-.12,0-.19,0-.28-.27-.41-.4-.56-.17-.82-.48a.75.75,0,0,1-.26-.71c0-.5.09-1,.33-1s.41-.29.61.12c0,0,.08,0,.13-.06v0c.2-.31.45,0,.67-.43a1,1,0,0,0,.18-.62c0-.77.17-1.1.47-1.12.9-.07,1.79-.13,2.68-.16a2,2,0,0,1,1,.28c.2.11.41-.21.63-.25a27.24,27.24,0,0,1,3.38.06c1-.05,2.06-.07,3.1-.08.6,0,1.21-.24,1.81-.21a21.69,21.69,0,0,1,3.42,0c.32.07.66-.21,1-.14a4.09,4.09,0,0,0,1.59.13,7,7,0,0,1,2.14-.12c.65.07,1.3-.09,2,0a4.65,4.65,0,0,0,1.41-.22,1.14,1.14,0,0,1,.88.23c.22.16.49-.09.73-.14s.61-.65.87.24c.17-.3.38-.09.54-.25s.57.14.85,0,.12.39.2.54.14.64.24-.09.38-.63.59,0c.09.25.16.26.22,0,.12-.42.23-.5.38-.14.05.11.13.2.17.06.24-.94.58-.09.86-.34.07-.05.12.09.13.27,0,.49.1.47.2.19.19-.52.43-.44.64-.36.7.28,1.4,0,2.09.28a27.33,27.33,0,0,0,2.82.4,4.42,4.42,0,0,0,1.61-.13,1.18,1.18,0,0,1,1.16.46c.41.49.87.31,1.31.35.16,0,.3,0,.42.34a2.31,2.31,0,0,1,.15,1.11c0,.44-.16.86-.35.85-.35,0-.64.27-1,.6s-.65,0-1,0-.58-.09-.86-.13c0,0-.1,0-.14,0a.62.62,0,0,0-.14.43c0,.22.1.16.15.15a5.43,5.43,0,0,1,2.13.6c.41.15.82.34,1.22.52a.75.75,0,0,1,.23.15,1.69,1.69,0,0,1,.31,1.32" fill="#a97c50"/>
  <path d="M84.19,341.4h0s0,0,0,0" fill="#726658"/>
  <path d="M69.65,342.21h0m-1.9-1.4a.09.09,0,0,1,0,.05v-.08s0,0,0,0m-.27-4.19s0,0-.07,0,0,.12,0,.13,0-.06,0-.11m43.07,4.55c0,.44-.3.85-.51.72s-.57-.13-.84-.44c-.06-.07-.2-.22-.14.12.12.78-.19.7-.26,1.1-.11.67-.26.15-.41.05s-.26-.25-.39,0-.2.15-.26,0c-.31-.68-.55.05-.8.31s-.32.27-.52.16a7.68,7.68,0,0,0-2.27-.51c-.53-.11-1.06,0-1.59-.16-.19-.05-.31-.45-.5-.43l-.15,0c-.29.3-.57.75-.87.05-.3.43-.6-.56-.9,0,0,.08-.13.11-.18.08a2.41,2.41,0,0,0-1.65-.09c-.1,0-.21,0-.28-.3-.47-.05-.94.48-1.42,0a1,1,0,0,0-1-.13,2.49,2.49,0,0,1-.86-.08,1.23,1.23,0,0,0-.54,0c-.37.12-.8.38-1.12,0s-.56-.62-.87-.09c0,0-.15.1-.2-.12s-.16-.31-.24-.23c-.46.48-1-.11-1.39.26s-1.08-.15-1.62,0a1.83,1.83,0,0,1-1.13.08,2.18,2.18,0,0,0-1.74.17c-.46.23-.94,0-1.41,0a.35.35,0,0,1-.35-.27h0s0,0,0,0-.2.28-.3.25c-.84-.27-1.68.5-2.52,0-.23-.13-.4.26-.62.26a5.59,5.59,0,0,0-2.69.38c-.24.12-.51.07-.74-.3,0-.07-.06-.2-.1-.08-.29.83-.66.42-1,.46a18,18,0,0,0-3.74.64,18.82,18.82,0,0,1-2,.55.79.79,0,0,1-.58-.22c-.35-.25-.35-.22-.19-1.14v0h0c-.6.25-1.18.16-1.73-.68a1,1,0,0,1-.14-.55,1.45,1.45,0,0,1-.09-.25c-.2-.91-.18-1.06.18-1.33.07-.05.2,0,.18-.23s-.13,0-.19,0-.28-.26-.42-.4-.56-.17-.82-.47a.75.75,0,0,1-.25-.71c0-.51.08-1,.32-1s.41-.29.61.12c0,.05.09,0,.13-.06h0c.21-.31.45,0,.67-.42a1,1,0,0,0,.19-.63c0-.77.16-1.09.47-1.12.89-.06,1.78-.12,2.68-.15a1.94,1.94,0,0,1,1,.28c.2.11.41-.22.62-.25a29.29,29.29,0,0,1,3.38.05c1-.05,2.07-.06,3.1-.08.6,0,1.21-.24,1.82-.21a22.85,22.85,0,0,1,3.41,0c.32.07.66-.21,1-.14a4,4,0,0,0,1.6.12,7,7,0,0,1,2.13-.11c.66.06,1.3-.1,2,0a4.31,4.31,0,0,0,1.41-.21,1.1,1.1,0,0,1,.88.23c.23.15.49-.1.74-.14s.61-.66.87.23c.16-.3.37-.08.53-.24s.57.13.85-.05.13.39.2.55.15.64.24-.09.38-.64.59,0c.09.24.16.26.23,0,.11-.42.23-.51.38-.15,0,.12.12.2.16.07.25-.94.58-.1.86-.34.07-.06.13.08.13.26,0,.49.1.47.2.2.19-.52.43-.45.65-.36.69.28,1.39,0,2.08.28.94.32,1.88.16,2.82.39a4.62,4.62,0,0,0,1.61-.12,1.18,1.18,0,0,1,1.17.46c.41.48.86.31,1.3.34.16,0,.31,0,.43.34a2.49,2.49,0,0,1,.14,1.12c0,.43-.16.85-.35.85-.34,0-.64.27-1,.59s-.65.05-1,0-.58-.09-.86-.13c-.05,0-.1,0-.14,0a.58.58,0,0,0-.14.43c0,.22.1.15.16.15a5.15,5.15,0,0,1,2.13.6c.4.14.81.34,1.22.51a.77.77,0,0,1,.22.16,1.61,1.61,0,0,1,.31,1.31" fill="#726658"/>
  <path d="M106.29,366h0" fill="#585447"/>
  <path d="M91.76,366.84h0m-1.9-1.4a.09.09,0,0,1,0,.05v-.05m-.27-4.19a.06.06,0,0,0-.07,0c0,.05,0,.12,0,.13s0-.06,0-.12m43.07,4.56c0,.43-.3.85-.51.71s-.58-.13-.85-.44c-.05-.07-.19-.22-.13.12.12.79-.19.7-.26,1.1-.11.68-.26.15-.41.05s-.26-.25-.39,0-.2.15-.26,0c-.31-.68-.55,0-.8.3s-.33.27-.52.16a8,8,0,0,0-2.26-.51c-.54-.1-1.07,0-1.6-.16-.19-.05-.31-.45-.5-.42l-.15,0c-.29.31-.58.75-.87,0-.3.43-.6-.56-.91,0a.13.13,0,0,1-.17.08,2.41,2.41,0,0,0-1.65-.1c-.1,0-.21,0-.28-.3-.47-.05-1,.48-1.42,0a1,1,0,0,0-1-.13,2.27,2.27,0,0,1-.86-.08,1.23,1.23,0,0,0-.54,0c-.38.12-.8.38-1.12,0s-.56-.62-.87-.09c0,0-.15.1-.2-.12s-.16-.31-.25-.23c-.45.49-1-.11-1.38.26s-1.08-.15-1.62,0a1.83,1.83,0,0,1-1.13.08,2.18,2.18,0,0,0-1.74.18c-.46.22-.94,0-1.42,0a.34.34,0,0,1-.34-.26v0h0s0,0,0,0-.21.28-.3.25c-.84-.27-1.68.5-2.52,0-.23-.14-.4.25-.62.26a5.58,5.58,0,0,0-2.69.37c-.24.13-.51.07-.74-.3,0-.06-.06-.2-.11-.08-.28.83-.65.42-1,.46a18,18,0,0,0-3.74.64,16.79,16.79,0,0,1-2,.55.79.79,0,0,1-.58-.22c-.35-.25-.35-.22-.19-1.14h0c-.6.24-1.19.15-1.73-.69a.89.89,0,0,1-.14-.55,1.45,1.45,0,0,1-.09-.25c-.2-.91-.19-1.06.18-1.33.07-.05.2,0,.18-.23s-.13,0-.19,0-.29-.26-.42-.39-.56-.18-.82-.48a.75.75,0,0,1-.26-.71c0-.5.09-1,.33-1s.41-.29.61.12c0,.05.08,0,.13-.06v0c.2-.32.46,0,.67-.43a.92.92,0,0,0,.18-.63c0-.76.17-1.09.48-1.12.89-.06,1.78-.12,2.68-.15a2,2,0,0,1,1,.28c.2.11.41-.22.62-.25a29.29,29.29,0,0,1,3.38.05c1,0,2.07-.06,3.1-.08.6,0,1.21-.23,1.82-.2a21.58,21.58,0,0,1,3.41,0c.32.07.66-.21,1-.14a3.86,3.86,0,0,0,1.58.12,7,7,0,0,1,2.14-.11c.65.06,1.31-.09,2,0a4.61,4.61,0,0,0,1.41-.22,1.1,1.1,0,0,1,.88.23c.23.15.49-.1.74-.14s.61-.65.87.24c.16-.31.37-.09.53-.25s.57.13.85,0,.13.39.2.54.14.64.24-.09.38-.63.59,0c.09.25.16.26.22,0,.12-.42.24-.5.38-.15.05.12.13.21.17.07.25-.94.58-.1.86-.34.07-.05.13.08.13.26,0,.5.1.48.2.2.19-.52.43-.44.65-.36.69.28,1.39,0,2.08.28.94.32,1.88.16,2.82.4a4.4,4.4,0,0,0,1.61-.13,1.18,1.18,0,0,1,1.16.46c.42.49.87.31,1.31.34.16,0,.31,0,.43.35a2.42,2.42,0,0,1,.14,1.11c-.05.43-.16.85-.35.85s-.64.27-1,.6-.65,0-1,0-.58-.09-.86-.13c-.05,0-.1,0-.14,0a.62.62,0,0,0-.14.43c0,.22.1.16.15.15a5.52,5.52,0,0,1,2.14.6c.4.15.81.34,1.22.51a.77.77,0,0,1,.22.16,1.69,1.69,0,0,1,.31,1.32" fill="#585447"/>
  <path d="M158.12,366h0s0,0,0,0" fill="#a97c50"/>
  <path d="M143.58,366.84h0m-1.9-1.4a.09.09,0,0,1,0,.05v-.05m-.27-4.19a0,0,0,0,0-.06,0c0,.05,0,.12,0,.13s0-.06,0-.12m43.07,4.56c0,.43-.3.85-.51.71s-.57-.13-.84-.44c-.06-.07-.2-.22-.14.12.13.79-.19.7-.26,1.1-.11.68-.26.15-.4.05s-.27-.25-.4,0-.2.15-.26,0c-.31-.68-.55,0-.8.3s-.32.27-.52.16a8,8,0,0,0-2.27-.51c-.53-.1-1.06,0-1.59-.16-.19-.05-.31-.45-.5-.42l-.15,0c-.29.31-.57.75-.87,0-.3.43-.6-.56-.9,0,0,.08-.13.11-.18.08a2.39,2.39,0,0,0-1.64-.1c-.11,0-.22,0-.29-.3-.47-.05-.94.48-1.42,0-.31-.29-.63-.19-.95-.13a2.27,2.27,0,0,1-.86-.08,1.23,1.23,0,0,0-.54,0c-.37.12-.8.38-1.12,0s-.56-.62-.87-.09c0,0-.15.1-.2-.12s-.16-.31-.24-.23c-.46.49-1-.11-1.39.26s-1.08-.15-1.62,0a1.83,1.83,0,0,1-1.13.08,2.18,2.18,0,0,0-1.74.18c-.46.22-.94,0-1.41,0a.35.35,0,0,1-.35-.26v0h0s0,0,0,0-.2.28-.3.25c-.84-.27-1.68.5-2.52,0-.23-.14-.4.25-.62.26a5.58,5.58,0,0,0-2.69.37c-.24.13-.51.07-.74-.3,0-.06-.06-.2-.1-.08-.29.83-.66.42-1,.46a18.08,18.08,0,0,0-3.74.64,16.79,16.79,0,0,1-2,.55.79.79,0,0,1-.58-.22c-.35-.25-.35-.22-.19-1.14h0c-.6.24-1.18.15-1.73-.69a1,1,0,0,1-.14-.55,1.45,1.45,0,0,1-.09-.25c-.2-.91-.18-1.06.18-1.33.07-.05.2,0,.18-.23s-.13,0-.19,0-.28-.26-.42-.39-.56-.18-.82-.48a.73.73,0,0,1-.25-.71c0-.5.08-1,.32-1s.41-.29.61.12c0,.05.09,0,.13-.06v0c.21-.32.46,0,.67-.43a1,1,0,0,0,.19-.63c0-.76.16-1.09.47-1.12.89-.06,1.78-.12,2.68-.15a1.94,1.94,0,0,1,1,.28c.2.11.41-.22.62-.25a29.29,29.29,0,0,1,3.38.05c1,0,2.07-.06,3.1-.08.6,0,1.21-.23,1.82-.2a21.58,21.58,0,0,1,3.41,0c.32.07.66-.21,1-.14a3.9,3.9,0,0,0,1.59.12,7,7,0,0,1,2.13-.11c.66.06,1.31-.09,2,0a4.61,4.61,0,0,0,1.41-.22,1.1,1.1,0,0,1,.88.23c.23.15.49-.1.74-.14s.61-.65.87.24c.16-.31.37-.09.53-.25s.57.13.85,0,.13.39.2.54.15.64.24-.09.38-.63.59,0c.09.25.16.26.23,0,.11-.42.23-.5.38-.15,0,.12.12.21.16.07.25-.94.58-.1.86-.34.07-.05.13.08.13.26,0,.5.1.48.2.2.19-.52.43-.44.65-.36.69.28,1.39,0,2.08.28.94.32,1.88.16,2.82.4a4.4,4.4,0,0,0,1.61-.13,1.19,1.19,0,0,1,1.17.46c.41.49.86.31,1.3.34.16,0,.31,0,.43.35a2.42,2.42,0,0,1,.14,1.11c-.05.43-.16.85-.35.85-.34,0-.64.27-1,.6s-.66,0-1,0-.58-.09-.86-.13c-.05,0-.1,0-.14,0a.62.62,0,0,0-.14.43c0,.22.1.16.16.15a5.47,5.47,0,0,1,2.13.6c.4.15.81.34,1.22.51a.77.77,0,0,1,.22.16,1.65,1.65,0,0,1,.31,1.32" fill="#a97c50"/>
  <path d="M52.75,366h0s0,0,0,0" fill="#a97c50"/>
  <path d="M38.21,366.84s0,0,0,0m-1.89-1.4v0M36,361.25s0,0-.06,0,0,.12,0,.13,0-.06,0-.12m43.08,4.56c0,.43-.3.85-.52.71s-.57-.13-.84-.44c-.06-.07-.19-.22-.14.12.13.79-.19.7-.25,1.1-.12.68-.26.15-.41.05s-.27-.25-.4,0-.19.15-.26,0c-.31-.68-.55,0-.8.3s-.32.27-.51.16a8,8,0,0,0-2.27-.51c-.53-.1-1.06,0-1.59-.16-.2-.05-.32-.45-.5-.42l-.16,0c-.28.31-.57.75-.86,0-.31.43-.6-.56-.91,0,0,.08-.12.11-.18.08a2.38,2.38,0,0,0-1.64-.1c-.1,0-.21,0-.28-.3-.48-.05-.95.48-1.43,0a.93.93,0,0,0-.94-.13,2.32,2.32,0,0,1-.87-.08,1.24,1.24,0,0,0-.54,0c-.37.12-.79.38-1.11,0s-.57-.62-.87-.09c0,0-.15.1-.2-.12s-.17-.31-.25-.23c-.46.49-1-.11-1.39.26s-1.08-.15-1.62,0a1.83,1.83,0,0,1-1.13.08,2.19,2.19,0,0,0-1.74.18c-.45.22-.94,0-1.41,0a.36.36,0,0,1-.35-.26v0h0l0,0c-.09.09-.2.28-.29.25-.85-.27-1.69.5-2.53,0-.22-.14-.39.25-.61.26a5.58,5.58,0,0,0-2.69.37c-.24.13-.51.07-.74-.3,0-.06-.07-.2-.11-.08-.29.83-.66.42-1,.46a18.17,18.17,0,0,0-3.75.64,16.64,16.64,0,0,1-2,.55.83.83,0,0,1-.59-.22c-.35-.25-.35-.22-.19-1.14h0c-.6.24-1.19.15-1.73-.69a.88.88,0,0,1-.15-.55,1.45,1.45,0,0,1-.09-.25c-.2-.91-.18-1.06.19-1.33.06-.05.19,0,.17-.23s-.12,0-.19,0-.28-.26-.42-.39-.55-.18-.81-.48a.75.75,0,0,1-.26-.71c0-.5.09-1,.32-1s.42-.29.61.12c0,.05.09,0,.13-.06v0c.2-.32.45,0,.67-.43a1,1,0,0,0,.18-.63c0-.76.17-1.09.47-1.12.89-.06,1.79-.12,2.68-.15a1.92,1.92,0,0,1,1,.28c.2.11.41-.22.63-.25A29.36,29.36,0,0,1,45,359c1,0,2.06-.06,3.09-.08.61,0,1.22-.23,1.82-.2a21.57,21.57,0,0,1,3.41,0c.32.07.67-.21,1-.14a3.9,3.9,0,0,0,1.59.12,7,7,0,0,1,2.14-.11c.65.06,1.3-.09,2,0a4.61,4.61,0,0,0,1.41-.22,1.11,1.11,0,0,1,.89.23c.22.15.49-.1.73-.14s.61-.65.87.24c.17-.31.38-.09.54-.25s.56.13.84,0,.13.39.21.54.14.64.24-.09.38-.63.59,0c.08.25.16.26.22,0,.12-.42.23-.5.38-.15,0,.12.13.21.16.07.25-.94.59-.1.87-.34.07-.05.12.08.13.26,0,.5.1.48.19.2.19-.52.44-.44.65-.36.69.28,1.4,0,2.09.28.93.32,1.88.16,2.82.4a4.43,4.43,0,0,0,1.61-.13,1.18,1.18,0,0,1,1.16.46c.41.49.87.31,1.31.34.16,0,.3,0,.42.35a2.29,2.29,0,0,1,.15,1.11c-.05.43-.16.85-.36.85s-.63.27-1,.6-.66,0-1,0-.57-.09-.86-.13c0,0-.09,0-.13,0a.54.54,0,0,0-.14.43c0,.22.09.16.15.15a5.47,5.47,0,0,1,2.13.6c.41.15.81.34,1.22.51a.65.65,0,0,1,.22.16,1.65,1.65,0,0,1,.32,1.32" fill="#a97c50"/>
  <path d="M1049.76,411h0s0,0,0,0" fill="#231f20"/>
  <path d="M1030.78,431.31v0m-3.47,1.65h0l0,0s0,0,0,0m0,0v0m-3.13-2.33s-.07,0-.09.08.11,0,.14,0S1024.24,430.59,1024.17,430.59Zm0,0s-.07,0-.09.08.11,0,.14,0S1024.24,430.59,1024.17,430.59ZM1085,375.07a1.06,1.06,0,0,0-1.29-.43,1.5,1.5,0,0,0-.4.2c-.66.43-1.33.86-2,1.32a18.55,18.55,0,0,0-3.26,2.5c-.07.08-.15.24-.31.11a.42.42,0,0,1-.09-.47c0-.08.12-.12.18-.18.42-.36.84-.71,1.25-1.08s1.12-.77,1.31-1.35a3.93,3.93,0,0,1,.89-1.69c.26-.25.13-.68-.09-1a1.2,1.2,0,0,0-.93-.53.91.91,0,0,0-.79.35,5,5,0,0,1-2,1.55,3.81,3.81,0,0,0-1.86,1.28,18,18,0,0,1-2.08,2.27c-1.41,1.13-2.57,2.51-4,3.57-1.08.78-1.87,1.89-3,2.65a1.09,1.09,0,0,0-.63,1.12c0,.31-.06.44-.4.14-.12-.11-.29-.13-.34,0-.22.54-1.23.44-.94,1.39,0,.14-.12.19-.26.18-.44,0-.54.18-.42.61.07.24,0,.33-.32.29-.67-.11-1.09.28-.76.83s-.09.38-.27.38-.49-.35-.63-.08c-.26.5-.9.6-1.1,1.18-.12.32-.54.46-.56.89-.94-.23-1,.59-1.33,1s-.48.88-.89,1.08a4.22,4.22,0,0,0-1,.74,2.8,2.8,0,0,0-.28.31,18.37,18.37,0,0,1-1.76,2.06c-.38.35-.74.73-1.1,1.11s-1,1.07-1.51,1.56a27.17,27.17,0,0,0-2.79,3c-.16.2-.34.4-.52.59-.53.53-1.12,1-1.7,1.48s-.77,1.06-1.24,1.46-.64.55-.94.84c-.83.78-1.6,1.63-2.38,2.46-.42.44-.84.89-1.28,1.31-.83.8-1.5,1.78-2.3,2.6q-2.07,2.12-4.11,4.26c-1,1-2,2-3.06,3a18.91,18.91,0,0,0-1.51,1.59c-.27.32-.33.82-.68,1a7,7,0,0,0-1.57,1.23c-1.19,1.23-2.35,2.48-3.5,3.74-.4.43-.38.84.1,1.37.26.27.18.39.17.66,0,.55-.55.7-.62,1.18h0c0,.07-.07.21-.13.21-.54,0-.65.45-.9.75s-.07.74.23,1.1.55.2.81.12c.55-.16.88-.61,1.41-.8.28-.1.63-.06.83-.31s0-.41.24-.27,0,.26-.09.39c-.31.67-.24.79.64,1.11a.9.9,0,0,0,.28,0,.58.58,0,0,0,.56.17,3.86,3.86,0,0,0,2.77-1.91v0c.39.82.37.8,1,.49a3,3,0,0,0,.55-.32,1.75,1.75,0,0,0,.38-.34c.82-1,1.62-2.06,2.38-3.13a69.39,69.39,0,0,1,4.6-5.5c.42-.48,1.2-.72,1-1.65,0-.14.11-.09.2-.1a1.55,1.55,0,0,0,1.18-.8,19.65,19.65,0,0,1,3.19-3.72l.18-.18c.29-.3.27-.79.66-1,1.45-.82,2.08-2.46,3.38-3.43.15-.11.16-.37.24-.57h.06v0a.86.86,0,0,0,.65-.31,9.82,9.82,0,0,0,1.91-1.9,8.46,8.46,0,0,1,1.62-2,7,7,0,0,1,.6-.48,6.89,6.89,0,0,0,1.46-1.59,6.89,6.89,0,0,1,1.35-1.18,2.54,2.54,0,0,0,.81-1,1.83,1.83,0,0,1,.45-.62c.45-.43,1-.78,1.25-1.44a.34.34,0,0,1,.47-.18.28.28,0,0,0,.35-.19c.07-.77.55-.93,1.23-1.13s1.06-.94,1.49-1.52a3.89,3.89,0,0,1,.71-.75,9.85,9.85,0,0,0,1.21-1.12,3.46,3.46,0,0,1,1.36-1.21c.93-.36,1.21-1.34,1.88-2a.52.52,0,0,0,.58-.19,13.34,13.34,0,0,1,1.5-1.6,4.74,4.74,0,0,1,.77-.56.43.43,0,0,0,.18-.3c.07-.76,1.12-.51,1.24-1.21.86.06,1-.62,1.13-1.2l.24-.19c.22-.27.65-.17.94-.4.81-.63,1.47-1.41,2.25-2.06a27.72,27.72,0,0,1,3.38-2.74,1.32,1.32,0,0,0,.59-.81c.16-.51,0-1.31.87-1.29a.35.35,0,0,0,.35-.35c0-.33.33-.41.55-.52s.8,0,.51-.59c-.17-.35.31-.72-.38-1.06-.3-.15,0-.23.1-.27a7.26,7.26,0,0,0,1.42-.86A.84.84,0,0,0,1085,375.07Z" fill="none"/>
  <path d="M1043.92,398h0s0,0,0,0" fill="#231f20"/>
  <path d="M1024.43,381.36h0m-1.59-3.21a.05.05,0,0,1,0,0l.05,0Zm2.18-3.29a.27.27,0,0,0,0,.14c0,.05.1,0,.1-.06S1025,374.88,1025,374.86Zm0,0a.27.27,0,0,0,0,.14c0,.05.1,0,.1-.06S1025,374.88,1025,374.86Zm-2.18,3.29a.05.05,0,0,1,0,0l.05,0Zm57.86,45.4c-.55-.54-1.26-1-1.49-1.79a3.28,3.28,0,0,0-1.23-1.69l-.27-.21a12.5,12.5,0,0,1-1.92-1.61c-1.08-1.27-2.41-2.27-3.44-3.6-.75-1-1.81-1.65-2.55-2.66a.93.93,0,0,0-1.07-.52c-.3.07-.42,0-.13-.37.1-.13.12-.29,0-.33-.52-.17-.44-1.15-1.34-.79-.14,0-.19-.11-.18-.24,0-.43-.17-.51-.59-.35-.22.08-.31,0-.27-.29.09-.6-.22-1-.69-.72a.34.34,0,0,0-.11.05c-.58.39-.36-.05-.37-.22s.34-.5.08-.61c-.48-.21-.58-.82-1.14-1-.31-.09-.44-.48-.85-.47.22-.92-.57-.88-1-1.19s-.85-.4-1.05-.77a3.4,3.4,0,0,0-1-1.21l-.16-.11c-.44-.31-.89-.61-1.3-.95-.18-.15-.35-.3-.51-.46-.81-.82-1.76-1.48-2.58-2.29a23.09,23.09,0,0,0-2-1.81,10.34,10.34,0,0,0-.84-.64,8.87,8.87,0,0,1-1.38-1.29c-.21-.22-.42-.45-.62-.68-.39-.44-1-.66-1.39-1.08-1.34-1.51-3-2.67-4.44-4.06a9.44,9.44,0,0,0-.84-.7c-.56-.43-1.14-.83-1.67-1.3-1.36-1.21-2.71-2.42-4.1-3.61s-2.79-2.83-4.38-4c-.3-.23-.78-.25-1-.57-.1-.16-.2-.31-.31-.46a6.12,6.12,0,0,0-.88-.95c-1.18-1.05-2.38-2.06-3.59-3.07-.42-.35-.81-.3-1.32.21-.26.27-.37.2-.63.21-.53,0-.68-.47-1.14-.49v0c-.07,0-.21-.05-.21-.11,0-.51-.43-.58-.72-.8s-.71,0-1,.31-.19.54-.11.79c.15.52.58.8.77,1.29.1.26.06.6.3.77.09.07.4,0,.26.21s-.25,0-.37-.05c-.65-.25-.77-.17-1.07.7a1.35,1.35,0,0,0,0,.28.65.65,0,0,0-.16.55,3.41,3.41,0,0,0,1.84,2.52h0c-.78.44-.76.43-.46,1a2.39,2.39,0,0,0,.63.85c1,.71,2,1.39,3,2a50.35,50.35,0,0,1,4.91,3.69l.38.3c.46.36.69,1.09,1.58.85.13,0,.08.1.09.18a1.37,1.37,0,0,0,.78,1.08,17.86,17.86,0,0,1,3.75,2.93c.29.25.76.19,1,.55.79,1.33,2.37,1.8,3.3,3,.07.1.23.12.39.15h0l.15,0s0,0,0,.07a.75.75,0,0,0,.3.6l.22.22a6.23,6.23,0,0,0,1.61,1.47,7.11,7.11,0,0,1,2.38,1.93,3.33,3.33,0,0,0,.25.28,6.22,6.22,0,0,0,1.28,1c.73.47,1,1.37,1.83,1.78a1.08,1.08,0,0,0,.29.13c.75.23,1.05,1.16,1.86,1.42l.12,0c.16,0,.25.21.18.45a.25.25,0,0,0,.18.32c.73,0,.89.45,1.09,1.09s.91.95,1.46,1.31a3.32,3.32,0,0,1,.72.62,7.87,7.87,0,0,0,1.08,1.08,2.88,2.88,0,0,1,1.16,1.21c.35.86,1.3,1.06,1.89,1.65a.46.46,0,0,0,.18.54,8,8,0,0,1,2.08,2,.38.38,0,0,0,.29.15c.72,0,.5,1,1.16,1.1,0,.73.45.84,1,.94l.21,0c.06.07.12.13.18.21.26.19.17.61.39.88.61.72,1.35,1.29,2,2a23.21,23.21,0,0,1,2.64,3,1.14,1.14,0,0,0,.78.5c.48.11,1.25-.1,1.24.73a.31.31,0,0,0,.34.31c.31,0,.39.29.5.49s0,.77.56.44c.34-.19.7.24,1-.45.14-.3.22,0,.26.08a6.52,6.52,0,0,0,.83,1.3.6.6,0,0,0,.53.28.79.79,0,0,0,.58-.17,1.07,1.07,0,0,0,.41-1.27,1.18,1.18,0,0,0-.19-.37c-.3-.44-.6-.88-.91-1.3-.12-.17-.24-.34-.37-.5a15.94,15.94,0,0,0-2.41-2.94c-.07-.06-.23-.12-.1-.28a.42.42,0,0,1,.45-.13c.07,0,.11.11.17.17.35.37.68.75,1,1.1s.69.93,1.18,1.12l.12,0a3.43,3.43,0,0,1,1.62.72c.25.23.66.07,1-.17a1.3,1.3,0,0,0,.5-.94A.81.81,0,0,0,1080.68,423.55Z" fill="none"/>
</svg>
