<svg id="Layer_1" data-name="Layer 1" xmlns="http://www.w3.org/2000/svg" viewBox="0 0 600 102.24">
  <g>
    <path d="M0,0V102.24H600V0ZM597.32,99.56h-296V2.68h296Zm-298.63,0H201.8V2.68h96.89Zm-99.56,0H102.24V2.68h96.89Zm-99.57,0H2.68V2.68H99.56Z" fill="#fff"/>
    <rect x="346.95" y="55.04" width="2.11" height="14.06" fill="#fff"/>
    <path d="M354.86,61.81c0-.78,0-2.73,0-3.25.22.36.7,1.2,1,1.72l5.61,8.82h2V55h-2.05v7.25c0,.78,0,2.79,0,3.31-.2-.36-.8-1.4-1.16-2L355,55h-2.15V69.1h2.05Z" fill="#fff"/>
    <path d="M367.15,55V69.1H371c3.68,0,6.85-2.07,6.85-7s-3.07-7-6.85-7Zm8.53,7c0,2.95-1.36,5-4.7,5h-1.72v-10H371C374.32,57.09,375.68,59.12,375.68,62.07Z" fill="#fff"/>
    <rect x="380.88" y="55.04" width="2.11" height="14.06" fill="#fff"/>
    <path d="M386.08,62.07c0,4.26,2.31,7.25,5.95,7.25,3.13,0,5.34-2.11,5.34-5.72V62h-4.44v2h2.29v.06A2.92,2.92,0,0,1,392,67.21c-2.45,0-3.8-2-3.8-5.14s1.35-5.14,3.8-5.14A3.05,3.05,0,0,1,395,58.6l1.85-1.15A5.06,5.06,0,0,0,392,54.82C388.39,54.82,386.08,57.81,386.08,62.07Z" fill="#fff"/>
    <polygon points="409.42 57.09 409.42 55.04 400.36 55.04 400.36 69.1 409.72 69.1 409.72 67.05 402.47 67.05 402.47 62.61 406.5 62.61 406.5 60.56 402.47 60.56 402.47 57.09 409.42 57.09" fill="#fff"/>
    <path d="M414.86,55h-2.15V69.1h2.05V61.81c0-.78,0-2.73,0-3.25.22.36.7,1.2,1,1.72l5.6,8.82h2V55h-2.05v7.25c0,.78,0,2.79,0,3.31-.2-.36-.8-1.4-1.16-2Z" fill="#fff"/>
    <path d="M432.33,69.32c3.57,0,6-2.89,6-7.27s-2.41-7.23-6-7.23-6,2.89-6,7.27S428.77,69.32,432.33,69.32Zm0-12.41c2.25,0,3.89,2,3.89,5.18s-1.58,5.14-3.81,5.14-3.88-2-3.88-5.18S430.08,56.91,432.31,56.91Z" fill="#fff"/>
    <path d="M446.51,69.32c3.49,0,5.4-2.15,5.4-6.08V55H449.8v8.24c0,2.57-1.05,3.93-3.25,3.93s-3.22-1.42-3.22-4.08V55h-2.11v8.15C441.22,67.07,443,69.32,446.51,69.32Z" fill="#fff"/>
    <path d="M459.84,67.25a5.13,5.13,0,0,1-3.66-1.67l-1.5,1.47a6.48,6.48,0,0,0,5,2.27c3.59,0,5.2-1.73,5.2-4.26s-1.73-3.39-4.5-4.23c-2.43-.73-3.07-1.21-3.07-2.19s.7-1.75,2.35-1.75a4.23,4.23,0,0,1,3.27,1.35l1.49-1.51a6.29,6.29,0,0,0-4.6-1.91c-2.59,0-4.64,1.49-4.64,3.92s1.42,3.25,4.4,4.13c2.35.71,3.17,1.25,3.17,2.33C462.75,66.57,461.81,67.25,459.84,67.25Z" fill="#fff"/>
    <path d="M472.57,69.1h2.19l1.16-3.34h5.62l1.19,3.34H485L479.86,55h-2.23Zm6.14-11.69c.16.61.73,2.23,1.07,3.24l1.12,3.23h-4.34l1.13-3.21C478.05,59.62,478.55,58,478.71,57.41Z" fill="#fff"/>
    <polygon points="487.75 69.1 489.86 69.1 489.86 62.85 493.89 62.85 493.89 60.78 489.86 60.78 489.86 57.11 496.81 57.11 496.81 55.04 487.75 55.04 487.75 69.1" fill="#fff"/>
    <polygon points="499.44 69.1 501.55 69.1 501.55 62.85 505.58 62.85 505.58 60.78 501.55 60.78 501.55 57.11 508.49 57.11 508.49 55.04 499.44 55.04 499.44 69.1" fill="#fff"/>
    <path d="M513.29,55,508.23,69.1h2.19l1.16-3.34h5.63l1.18,3.34h2.25L515.52,55Zm-1.06,8.84,1.12-3.21c.36-1.05.86-2.65,1-3.26.16.61.73,2.23,1.07,3.24l1.12,3.23Z" fill="#fff"/>
    <rect x="523.51" y="55.04" width="2.11" height="14.06" fill="#fff"/>
    <path d="M540.06,59.24c0-2.89-2.07-4.2-4.52-4.2h-6.17V69.1h2.07V63.54h3.18l2.78,5.56h2.44L537,63.36A3.91,3.91,0,0,0,540.06,59.24Zm-4.52,2.31h-4.1V57h4.1a2.16,2.16,0,0,1,2.39,2.27A2.12,2.12,0,0,1,535.54,61.55Z" fill="#fff"/>
    <path d="M543,58.74c0,2.51,1.42,3.25,4.39,4.13,2.35.71,3.18,1.25,3.18,2.33,0,1.37-1,2-2.91,2A5.13,5.13,0,0,1,544,65.58l-1.5,1.47a6.48,6.48,0,0,0,5,2.27c3.6,0,5.21-1.73,5.21-4.26s-1.73-3.39-4.5-4.23c-2.43-.73-3.07-1.21-3.07-2.19s.7-1.75,2.35-1.75a4.23,4.23,0,0,1,3.27,1.35l1.48-1.51a6.26,6.26,0,0,0-4.59-1.91C545.07,54.82,543,56.31,543,58.74Z" fill="#fff"/>
    <path d="M330.9,43.86h5.62l1.19,3.34H340l-5.12-14.06h-2.23L327.55,47.2h2.19Zm1.77-5.1c.36-1,.86-2.65,1-3.25.16.6.73,2.23,1.07,3.23L335.88,42h-4.34Z" fill="#fff"/>
    <polygon points="344.84 40.95 348.87 40.95 348.87 38.88 344.84 38.88 344.84 35.21 351.79 35.21 351.79 33.14 342.73 33.14 342.73 47.2 344.84 47.2 344.84 40.95" fill="#fff"/>
    <polygon points="356.52 40.95 360.56 40.95 360.56 38.88 356.52 38.88 356.52 35.21 363.47 35.21 363.47 33.14 354.42 33.14 354.42 47.2 356.52 47.2 356.52 40.95" fill="#fff"/>
    <path d="M365.4,47.2l1.16-3.34h5.62l1.19,3.34h2.25L370.5,33.14h-2.23L363.21,47.2Zm2.93-8.44c.36-1,.86-2.65,1-3.25.16.6.73,2.23,1.07,3.23L371.54,42H367.2Z" fill="#fff"/>
    <rect x="378.49" y="33.14" width="2.11" height="14.06" fill="#fff"/>
    <path d="M386.42,41.64h3.17l2.8,5.56h2.42l-2.87-5.75a3.89,3.89,0,0,0,3.1-4.11c0-2.89-2.07-4.2-4.52-4.2h-6.17V47.2h2.07Zm0-6.51h4.1a2.16,2.16,0,0,1,2.39,2.27,2.12,2.12,0,0,1-2.39,2.25h-4.1Z" fill="#fff"/>
    <polygon points="407.65 45.15 400.4 45.15 400.4 40.71 404.43 40.71 404.43 38.66 400.4 38.66 400.4 35.19 407.35 35.19 407.35 33.14 398.29 33.14 398.29 47.2 407.65 47.2 407.65 45.15" fill="#fff"/>
    <path d="M414.71,45.35a5.11,5.11,0,0,1-3.65-1.67l-1.51,1.47a6.5,6.5,0,0,0,5,2.27c3.59,0,5.2-1.73,5.2-4.26s-1.73-3.39-4.5-4.23c-2.43-.73-3.07-1.21-3.07-2.19s.7-1.75,2.35-1.75a4.22,4.22,0,0,1,3.27,1.35l1.49-1.51a6.29,6.29,0,0,0-4.6-1.91c-2.59,0-4.64,1.49-4.64,3.92s1.43,3.25,4.4,4.13c2.35.71,3.17,1.25,3.17,2.33C417.62,44.67,416.68,45.35,414.71,45.35Z" fill="#fff"/>
    <path d="M430.8,43.86h5.62l1.18,3.34h2.25l-5.12-14.06H432.5L427.44,47.2h2.19Zm1.76-5.1c.36-1,.87-2.65,1-3.25.16.6.72,2.23,1.06,3.23L435.78,42h-4.34Z" fill="#fff"/>
    <path d="M447.3,47.42c3.49,0,5.4-2.15,5.4-6.09V33.14h-2.11v8.24c0,2.57-1,3.93-3.25,3.93s-3.21-1.42-3.21-4.08V33.14H442v8.15C442,45.17,443.82,47.42,447.3,47.42Z" fill="#fff"/>
    <polygon points="459.47 47.2 461.57 47.2 461.57 35.21 465.67 35.21 465.67 33.14 455.37 33.14 455.37 35.21 459.47 35.21 459.47 47.2" fill="#fff"/>
    <path d="M473.06,47.42c3.57,0,6-2.89,6-7.27s-2.41-7.23-6-7.23-6,2.89-6,7.27S469.5,47.42,473.06,47.42ZM473,35c2.25,0,3.89,2,3.89,5.18s-1.58,5.14-3.81,5.14-3.88-2-3.88-5.18S470.81,35,473,35Z" fill="#fff"/>
    <path d="M487.33,47.42a5.34,5.34,0,0,0,4.84-2.69l-1.74-1.17a3.35,3.35,0,0,1-3.1,1.75c-2.45,0-3.77-2-3.77-5.14S484.88,35,487.33,35a3.05,3.05,0,0,1,2.92,1.69l1.86-1.17a5,5,0,0,0-4.78-2.63c-3.63,0-5.94,3-5.94,7.25S483.7,47.42,487.33,47.42Z" fill="#fff"/>
    <polygon points="497.31 40.93 503.78 40.93 503.78 47.2 505.89 47.2 505.89 33.14 503.78 33.14 503.78 38.82 497.31 38.82 497.31 33.14 495.21 33.14 495.21 47.2 497.31 47.2 497.31 40.93" fill="#fff"/>
    <polygon points="512.75 47.2 514.86 47.2 514.86 35.21 518.96 35.21 518.96 33.14 508.66 33.14 508.66 35.21 512.75 35.21 512.75 47.2" fill="#fff"/>
    <path d="M526.35,47.42c3.57,0,6-2.89,6-7.27s-2.41-7.23-6-7.23-6,2.89-6,7.27S522.79,47.42,526.35,47.42Zm0-12.41c2.25,0,3.89,2,3.89,5.18s-1.58,5.14-3.81,5.14-3.88-2-3.88-5.18S524.1,35,526.33,35Z" fill="#fff"/>
    <path d="M537.39,39.91c0-.78,0-2.73,0-3.25.22.36.7,1.2,1,1.72L544,47.2h2V33.14h-2v7.25c0,.78,0,2.79,0,3.31-.2-.36-.81-1.4-1.17-2l-5.34-8.58h-2.15V47.2h2Z" fill="#fff"/>
    <polygon points="559.04 45.15 551.79 45.15 551.79 40.71 555.83 40.71 555.83 38.66 551.79 38.66 551.79 35.19 558.74 35.19 558.74 33.14 549.68 33.14 549.68 47.2 559.04 47.2 559.04 45.15" fill="#fff"/>
    <path d="M566.1,45.35a5.11,5.11,0,0,1-3.65-1.67l-1.51,1.47a6.5,6.5,0,0,0,5,2.27c3.6,0,5.2-1.73,5.2-4.26s-1.73-3.39-4.5-4.23c-2.43-.73-3.07-1.21-3.07-2.19s.7-1.75,2.35-1.75a4.22,4.22,0,0,1,3.27,1.35l1.49-1.51a6.27,6.27,0,0,0-4.6-1.91c-2.59,0-4.64,1.49-4.64,3.92s1.43,3.25,4.4,4.13c2.35.71,3.17,1.25,3.17,2.33C569,44.67,568.07,45.35,566.1,45.35Z" fill="#fff"/>
    <path d="M21.56,70.15a3.55,3.55,0,0,0,3,5.46,3.46,3.46,0,0,0,1.54-.36,11.61,11.61,0,0,0,3.27,5.18l1.72,1.49-.17-2.28a9.13,9.13,0,0,1,2.74-6.49c3.09-3.26,1.73-6.63.59-8L34.1,65A5.54,5.54,0,0,1,38,63.64c3,.17,6.25,2.88,9.53,7.87.2.46.43.92.65,1.38a4.17,4.17,0,0,0-.8-.09c-2.15,0-3.84,1.41-3.84,3.2s1.54,3.19,3.66,3.19a5.4,5.4,0,0,0,3.23-1.14A22.17,22.17,0,0,1,44.7,81.9a21,21,0,0,1-8.11,1.89l-2.11,0c-.7,0-1.39-.18-2.1-.25a32.16,32.16,0,0,1-4.17-.86c-1.37-.4-2.73-.9-4.11-1.34S21.42,80.16,20,79.64c1.18.88,2.42,1.68,3.67,2.5,1.33.65,2.65,1.36,4.05,1.91a24.32,24.32,0,0,0,8.89,1.62,18.86,18.86,0,0,0,8.74-2.48,16.34,16.34,0,0,0,6-5.8l.32.26a16.42,16.42,0,0,0,5.81,5.54,18.86,18.86,0,0,0,8.74,2.48,24.32,24.32,0,0,0,8.89-1.62c1.4-.55,2.72-1.26,4.05-1.91,1.25-.82,2.49-1.62,3.67-2.5-1.39.52-2.73,1.1-4.06,1.67s-2.74.94-4.12,1.34a31.82,31.82,0,0,1-4.17.86c-.7.07-1.4.24-2.1.25l-2.1,0a21,21,0,0,1-8.12-1.89A22.18,22.18,0,0,1,53,78.57a4.59,4.59,0,0,0,2.23.62h0c2.16,0,3.84-1.4,3.84-3.19s-1.54-3.2-3.66-3.2a4.77,4.77,0,0,0-1,.12c.42-.88.82-1.76,1.17-2.62,3-4.21,6-6.5,8.71-6.66A5.48,5.48,0,0,1,68.17,65L68,65.2c-1.15,1.32-2.51,4.69.58,8a9.13,9.13,0,0,1,2.74,6.49L71.14,82l1.75-1.52a11.61,11.61,0,0,0,3.27-5.18,3.49,3.49,0,0,0,1.54.36,3.55,3.55,0,0,0,3-5.46,12.2,12.2,0,0,0,4-3.9l1.15-2-2.21.58a9.08,9.08,0,0,1-6.88-1.51,5.82,5.82,0,0,0-7.33.27,7.37,7.37,0,0,0-5.22-1.85q-3.44.18-6.9,3.56a1.24,1.24,0,0,0,0-.16A18.86,18.86,0,0,1,62,60l1.51,1.21a.93.93,0,0,0,.59.21,1,1,0,0,0,.73-.35.94.94,0,0,0-.14-1.32l-1.06-.85c.45-.28.9-.52,1.34-.74l1.82,1.66a1,1,0,0,0,.64.24.92.92,0,0,0,.69-.31A.93.93,0,0,0,68,58.44l-1.19-1.08c.55-.19,1.06-.35,1.55-.47l1.74,1.55a.94.94,0,0,0,.63.24,1,1,0,0,0,.7-.32A.93.93,0,0,0,71.38,57l-.68-.61a12,12,0,0,1,1.53-.12h0a.94.94,0,0,0,0-1.88,13.67,13.67,0,0,0-2.14.19l.31-1.5a.94.94,0,0,0-1.83-.39L68.15,55c-.5.12-1,.27-1.58.46l.21-1a.94.94,0,1,0-1.84-.38l-.46,2.23c-.41.19-.84.41-1.28.65l.1-.45a.94.94,0,0,0-1.84-.38L61,58.42a19.92,19.92,0,0,0-2.68,2.38A22.94,22.94,0,0,1,71.09,48.25a3.19,3.19,0,0,0,.33.4,2.87,2.87,0,0,0,4.06,0,2.84,2.84,0,0,0,.8-2.41l4,.92,0-.12L76,45.09l.23-4.68-.12,0-1,3.93a2.86,2.86,0,0,0-3.72.28,2.83,2.83,0,0,0-.82,1.84,24.06,24.06,0,0,0-10.48,7.65c1.18-4,2.53-8.64,3.65-12.91A16.2,16.2,0,0,1,73.9,30a2.56,2.56,0,0,0,.3.37A2.87,2.87,0,0,0,78.74,27L83.25,27v-.13L78.65,26l-.89-4.6h-.12l0,4.51a2.86,2.86,0,0,0-4.23,2.41A18.25,18.25,0,0,0,62,40.69c-1,3.73-2.14,7.78-3.21,11.39a34.21,34.21,0,0,0-6.2-17.77c0-1.22,0-2.46-.06-3.64a5.89,5.89,0,0,1,3.66-3.31,3,3,0,0,0,.23.27,2.86,2.86,0,0,0,4.54-3.39l4.51,0v-.13l-4.6-.88-.89-4.61h-.12l0,4.52a2.86,2.86,0,0,0-3.39.48,2.82,2.82,0,0,0-.74,1.32,10.15,10.15,0,0,0-3.18,1.73c0-.57,0-1,0-1.39a2.85,2.85,0,0,0,.37-5l2.41-3.56-.09-.09-3.31,3.24a2.69,2.69,0,0,0-1.13,0l-3.32-3.24-.08.09,2.41,3.56A2.84,2.84,0,0,0,50,25.16c0,.41,0,.92,0,1.58a10,10,0,0,0-3.32-1.85,3,3,0,0,0-.74-1.32,2.89,2.89,0,0,0-2.64-.77l-.81-4.23h-.12l0,4.64a2.56,2.56,0,0,0-.44.36,2.48,2.48,0,0,0-.36.44l-4.64,0v.13l4.22.81a2.84,2.84,0,0,0,5.06,2.36,5.71,5.71,0,0,1,3.88,4h0c0,.86,0,1.84.06,2.92a31.93,31.93,0,0,0-5.3,11.53,35.62,35.62,0,0,0-1,7.07c-1.13-3.81-2.39-8.2-3.45-12.23A18.28,18.28,0,0,0,28.9,28.27a2.86,2.86,0,0,0-3.46-2.7l-.81-4.22H24.5L24.45,26a2.48,2.48,0,0,0-.44.36,2.42,2.42,0,0,0-.36.43l-4.64,0V27l4.23.81a2.87,2.87,0,0,0,4.83,2.64,3.07,3.07,0,0,0,.28-.35A16.33,16.33,0,0,1,38.49,41.17c1.13,4.27,2.47,8.94,3.65,12.91a24.09,24.09,0,0,0-10.47-7.65,2.85,2.85,0,0,0-3.61-2.57l-1-3.18H27l.35,3.5a2.43,2.43,0,0,0-.51.4A2.77,2.77,0,0,0,26,46.28l-3.87.47v.13l3.88.3a2.93,2.93,0,0,0,.78,1.47,2.87,2.87,0,0,0,4.06,0,2.51,2.51,0,0,0,.33-.4A22.94,22.94,0,0,1,44,60.8a19.86,19.86,0,0,0-2.67-2.38l-.48-2.27a.93.93,0,1,0-1.83.38l.09.45c-.44-.24-.86-.46-1.28-.65l-.46-2.23a.94.94,0,0,0-1.84.38l.21,1c-.55-.19-1.08-.34-1.57-.46l-.48-2.3a.94.94,0,0,0-1.84.39l.31,1.5A15.32,15.32,0,0,0,30,54.43a.93.93,0,0,0-.92,1,.91.91,0,0,0,.95.93,13.36,13.36,0,0,1,1.56.12l-.68.61a.94.94,0,1,0,1.25,1.4l1.72-1.54c.49.13,1,.29,1.54.49l-1.15,1a.93.93,0,0,0,.63,1.63,1,1,0,0,0,.63-.24l1.8-1.64c.44.22.89.46,1.35.73l-1,.84a.94.94,0,0,0-.15,1.32,1,1,0,0,0,.74.35.92.92,0,0,0,.58-.21l1.5-1.2a18.93,18.93,0,0,1,4.86,5.47c-2.36-2.35-4.72-3.6-7.07-3.72a7.35,7.35,0,0,0-5.22,1.85,5.82,5.82,0,0,0-7.33-.27,9.15,9.15,0,0,1-6.87,1.52l-2.24-.62,1.18,2A12,12,0,0,0,21.56,70.15Zm54.16-5.22a11.88,11.88,0,0,0,6.1,2,6.65,6.65,0,0,1-4.36,2.32,6,6,0,0,1-3.9-1.43q-.33-.3-.69-.57a17.65,17.65,0,0,1-2.09-2.29C71.6,64.26,73.33,63.38,75.72,64.93ZM69.05,67a17.82,17.82,0,0,1,2.61,1.62,8.77,8.77,0,0,0,.68.56,6.09,6.09,0,0,1,2.15,3.59A6.68,6.68,0,0,1,73,77.49a11.83,11.83,0,0,0-3-5.63C68,69.79,68.55,67.93,69.05,67ZM47.32,77.15h0c-.83,0-1.41-.48-1.41-1.15a1.34,1.34,0,0,1,1.48-1.15A3.84,3.84,0,0,1,49.68,76h0A3.92,3.92,0,0,1,47.32,77.15Zm8-2.3c.83,0,1.42.47,1.42,1.15a1.36,1.36,0,0,1-1.47,1.15h0A3.85,3.85,0,0,1,52.94,76h0A3.89,3.89,0,0,1,55.33,74.85Zm-4-38c2.78,4.12,10,17.71,0,36.7C41.29,54.55,48.52,41,51.31,36.85ZM33.22,67c.49.92,1,2.78-.92,4.85a11.86,11.86,0,0,0-3,5.64,6.66,6.66,0,0,1-1.48-4.71,6,6,0,0,1,2.14-3.6c.23-.17.46-.36.69-.56A16.81,16.81,0,0,1,33.22,67Zm-6.68-2.08c2.39-1.54,4.12-.67,4.94,0a16.46,16.46,0,0,1-2.15,2.33l-.57.48a6.14,6.14,0,0,1-4,1.48,6.67,6.67,0,0,1-4.36-2.32A11.82,11.82,0,0,0,26.54,64.93Z" fill="#fff"/>
    <path d="M221.94,66.12l0,.1.81,3.11,2.95-1.27,1.32-.58.83.91,2.64,2.89,1.83-3.46c1.12-2.12,2.24-6.59-.4-10,.83-2.29,2.13-4.26,3.6-4.26a4.36,4.36,0,0,1,2.29.92,13.51,13.51,0,0,1,6,11.26c-.06,2.17-.55,2.86-2.6,4.82a53.12,53.12,0,0,1-4.75,4,6.9,6.9,0,0,0-2.63-.53A5.43,5.43,0,0,0,229,76.69a5.33,5.33,0,0,0-.27,4.67,6.88,6.88,0,0,0,3,3.35,7,7,0,0,0,3.49,1A5.43,5.43,0,0,0,240,83.05a4.38,4.38,0,0,0,.41-.91c3.79-2.36,7.39-5,9.8-8.2,2.41,3.22,6,5.84,9.79,8.2a5,5,0,0,0,.41.91,5.44,5.44,0,0,0,4.81,2.62,7,7,0,0,0,3.49-1c3-1.75,4.25-5.35,2.71-8a5.44,5.44,0,0,0-4.81-2.62,6.86,6.86,0,0,0-2.63.53,50.44,50.44,0,0,1-4.75-4c-2.06-2-2.54-2.65-2.6-4.82a13.5,13.5,0,0,1,6-11.26,4.36,4.36,0,0,1,2.29-.92c1.47,0,2.78,2,3.6,4.26-2.63,3.42-1.51,7.89-.39,10L270,71.28l2.64-2.89.82-.91,1.33.58,2.94,1.27.81-3.11,0-.1.22.07,4.82,1.53-1.33-4.88a17.81,17.81,0,0,0-1.52-3.7,8.59,8.59,0,0,0-4.15-4.09,17.09,17.09,0,0,0-4.9-7,10.38,10.38,0,0,0-6.78-2.64,11,11,0,0,0-3.92.75,17.3,17.3,0,0,0-5.94,4c0-.25,0-.5,0-.75L255,48c0-2.93,0-5.92,0-8.81v-.82l.5-.6.24-.3A7.72,7.72,0,0,1,257.61,36a4.49,4.49,0,0,1,1.81-.49h.15a7.23,7.23,0,0,0,1.35,1.88,6.74,6.74,0,0,0,4.7,2,5.17,5.17,0,0,0,3.69-1.48c2.16-2.16,1.91-5.93-.56-8.39a6.7,6.7,0,0,0-4.69-2,5.68,5.68,0,0,0-.59,0,12.62,12.62,0,0,0-1.72-.4h-.1a12.05,12.05,0,0,0-1.72-.12,9.44,9.44,0,0,0-1.2.07,11.22,11.22,0,0,0-2.13.45A9.81,9.81,0,0,0,257,24.6c0-4.5-2.87-8-6.53-8S244,20.1,244,24.6a10,10,0,0,0,.39,2.77,11.44,11.44,0,0,0-2.81-.69,9.44,9.44,0,0,0-1.2-.07,13.84,13.84,0,0,0-1.72.12h-.1a11.43,11.43,0,0,0-1.72.39,5.63,5.63,0,0,0-.58,0,6.77,6.77,0,0,0-4.7,2c-2.47,2.47-2.72,6.23-.56,8.39A5.16,5.16,0,0,0,234.66,39a6.74,6.74,0,0,0,4.7-2,7,7,0,0,0,1.35-1.87h.14a4.43,4.43,0,0,1,1.85.51,7.65,7.65,0,0,1,1.82,1.51l.24.3a14.77,14.77,0,0,0,1,1.12l0,0v.63c0,2.9.05,5.89,0,8.82,0,.49,0,1,0,1.46,0,.3,0,.61,0,.91a17.6,17.6,0,0,0-6.21-4.27,11.06,11.06,0,0,0-3.92-.75A10.31,10.31,0,0,0,228.81,48a17.11,17.11,0,0,0-4.91,7,8.58,8.58,0,0,0-4.14,4.09,18.13,18.13,0,0,0-1.53,3.7l-1.33,4.88,4.82-1.53Zm4.12-8.74h.14a11.81,11.81,0,0,1,.27-1.31,14.2,14.2,0,0,1,4.11-6,7.67,7.67,0,0,1,5-2,8.21,8.21,0,0,1,2.94.58c4,1.53,7.22,5.58,9.47,9.15,0,0,0-.07,0-.1a92.33,92.33,0,0,0,.52-9.68c0-3.22,0-6.45,0-9.67,0-.32,0-.63,0-.94a9,9,0,0,1-.74-.79,16.24,16.24,0,0,1-1.18-1.37A10.58,10.58,0,0,0,244,33.17a7.3,7.3,0,0,0-3-.81h-.32a9.87,9.87,0,0,0-1.22.09,8.34,8.34,0,0,0-.83.2,4.28,4.28,0,0,1-4,3.63,2.38,2.38,0,0,1-1.74-.68c-1.09-1.08-.84-3.1.56-4.49a4,4,0,0,1,2.75-1.23A2.74,2.74,0,0,1,237,30a8.66,8.66,0,0,1,1.94-.53,12.62,12.62,0,0,1,1.37-.1,6.36,6.36,0,0,1,.87.06,8.55,8.55,0,0,1,4.13,1.6,11,11,0,0,1,2.8,3.13c.12.21.22.42.33.63,0-1.94,0-3.88-.11-5.83a6.06,6.06,0,0,1-1.64-4.35c0-2.91,1.69-5.28,3.77-5.28s3.78,2.37,3.78,5.28a5.91,5.91,0,0,1-1.87,4.54c-.06,1.71-.09,3.41-.11,5.12a10.73,10.73,0,0,1,2.63-2.89,8.64,8.64,0,0,1,4.13-1.59,6.36,6.36,0,0,1,.87-.06,10.4,10.4,0,0,1,1.37.1,8.16,8.16,0,0,1,1.94.53,2.47,2.47,0,0,1,.82-.13,4,4,0,0,1,2.74,1.24c1.4,1.39,1.65,3.4.56,4.49a2.42,2.42,0,0,1-1.74.67,4,4,0,0,1-2.75-1.23,4.07,4.07,0,0,1-1.21-2.4c-.27-.07-.56-.14-.83-.19a8.25,8.25,0,0,0-1.22-.09h-.32a7.15,7.15,0,0,0-3,.81,10.72,10.72,0,0,0-2.6,2.12A16.5,16.5,0,0,1,252.53,37a3.45,3.45,0,0,1-.26.28c0,.37,0,.73,0,1.1,0,3.22,0,6.45,0,9.67s.11,6.27.5,9.4C255,54,258.08,50.18,262,48.7a8.13,8.13,0,0,1,2.94-.58,7.67,7.67,0,0,1,5,2,14.11,14.11,0,0,1,4.11,6,11.81,11.81,0,0,1,.27,1.31h.14c3.49,0,5.17,6.18,5.17,6.18l-3-1-.76,2.92-3.13-1.35-2.15,2.35s-2.64-5,1.07-8c-1-3.91-3.24-7.75-6.71-7.75a6.83,6.83,0,0,0-3.85,1.4,16.31,16.31,0,0,0-7.18,13.61c.09,3.24,1.2,4.57,3.45,6.73,1.18,1.13,4.63,4.27,6.59,5.27a5,5,0,0,1,.58-.4,4.26,4.26,0,0,1,2.12-.59,2.69,2.69,0,0,1,2.42,1.25c.78,1.36,0,3.26-1.7,4.26a4.19,4.19,0,0,1-2.11.59,2.71,2.71,0,0,1-2.42-1.25,2.31,2.31,0,0,1-.3-1.23c-5.85-3.54-11.15-7.5-12.29-12.81-1.15,5.31-6.45,9.27-12.3,12.81a2.4,2.4,0,0,1-.29,1.23,2.72,2.72,0,0,1-2.43,1.25,4.25,4.25,0,0,1-2.11-.59c-1.72-1-2.48-2.9-1.7-4.26a2.7,2.7,0,0,1,2.43-1.25,4.25,4.25,0,0,1,2.11.59,5,5,0,0,1,.58.4c2-1,5.42-4.14,6.59-5.27,2.26-2.16,3.36-3.49,3.45-6.73a16.33,16.33,0,0,0-7.17-13.61,6.86,6.86,0,0,0-3.86-1.4c-3.47,0-5.69,3.84-6.71,7.75,3.72,3,1.07,8,1.07,8l-2.15-2.35-3.12,1.35-.77-2.92-3,1S222.57,57.38,226.06,57.38Z" fill="#fff"/>
    <path d="M128.53,40a12.82,12.82,0,0,0,5.77-3.44c1.31,1,3.08,2.25,5,3.47,4,2.54,7.25,3.9,9.68,4.1l-.06,7.2H135.11c-1.34-1.53-3.15-4.28-3-5.69a1.28,1.28,0,1,0-2.55-.29c-.23,2,1.14,4.38,2.27,6h-6.26a1.29,1.29,0,1,0,0,2.57h6.53c-1.12,1.6-2.41,3.92-2.19,5.86a1.3,1.3,0,0,0,1.28,1.14h.15a1.29,1.29,0,0,0,1.13-1.43c-.16-1.37,1.55-4,2.88-5.56h13.58L148.87,61l-1.06-.79-.4-.29c-2.53-1.86-6.4-1.25-8.64,1.38s-2,6.26.51,8.13l.4.29,1.61,1.19h-6.45c-4.4-5.9-7.23-8.14-8.67-9a.76.76,0,0,0-1.15.66v6.83l-1.44,0h-.25a3.21,3.21,0,0,0,.19,6.37h.25l1.47,0v6a.76.76,0,0,0,1.15.66c1.44-.84,4.27-3.07,8.68-9h6l-2,2.67-.29.38c-1.86,2.46-1,6,2,7.94s6.85,1.51,8.71-.95l.3-.38.87-1.16.88,1.16s.2.25.29.38c1.86,2.46,5.76,2.88,8.71.95s3.84-5.48,2-7.94l-.29-.38-2-2.67h5.68c4.41,5.9,7.24,8.13,8.68,9a.76.76,0,0,0,1.15-.66v-6l1.48,0h.24a3.21,3.21,0,0,0,.19-6.37h-.25l-1.44,0V62.59a.76.76,0,0,0-1.15-.66c-1.44.83-4.27,3.07-8.67,9h-6.16l1.61-1.19.39-.29c2.53-1.87,2.76-5.51.52-8.13s-6.11-3.24-8.64-1.38l-.4.29-.88.65,0-7H166c1.09,1.27,3.05,4.06,2.88,5.56A1.29,1.29,0,0,0,170,60.87h.15a1.3,1.3,0,0,0,1.28-1.14c.22-1.94-1.08-4.26-2.19-5.86h6.53a1.29,1.29,0,1,0,0-2.57h-6.27c1.14-1.6,2.51-4,2.28-6a1.29,1.29,0,0,0-2.56.29c.17,1.41-1.64,4.16-3,5.69H152.4l-.05-7.2c2.43-.2,5.63-1.56,9.68-4.1,2-1.23,3.72-2.49,5-3.47a12.49,12.49,0,0,0,19.45-1.69.48.48,0,0,0-.54-.73,12.76,12.76,0,0,1-9.23-.5l2.81-2.23.28-.22a4.47,4.47,0,0,0,.38-6.29A4.48,4.48,0,0,0,174,23.82l-.28.23-3.54,2.81a12.58,12.58,0,0,1-1-4.67,12.84,12.84,0,0,1,.87-4.9.53.53,0,0,0-.77-.64,12.84,12.84,0,0,0-5.7,14.19,11.28,11.28,0,0,0,1.73,3.61c-1.29.91-3,2.11-4.69,3.39-10,7.37-17.75,1.36-19.93,0-1.83-1.15-3.5-2.34-4.77-3.28a11.53,11.53,0,0,0,1.81-3.72,12.83,12.83,0,0,0-5.71-14.19.52.52,0,0,0-.76.64,12.82,12.82,0,0,1-.11,9.57l-3.54-2.81-.28-.23a4.48,4.48,0,0,0-6.21,1.06,4.48,4.48,0,0,0,.37,6.29l.29.22,2.8,2.23a12.76,12.76,0,0,1-9.23.5.48.48,0,0,0-.53.73A12.82,12.82,0,0,0,128.53,40Z" fill="#fff"/>
  </g>
</svg>
