<svg id="Layer_1" data-name="Layer 1" xmlns="http://www.w3.org/2000/svg" xmlns:xlink="http://www.w3.org/1999/xlink" viewBox="0 0 246.25 135.71">
  <defs>
    <clipPath id="clip-path">
      <rect width="246.25" height="135.71" fill="none"/>
    </clipPath>
  </defs>
  <g clip-path="url(#clip-path)">
    <path id="Path_107" data-name="Path 107" d="M146.41,295.07C80.66,305.91,18,269.48,6.36,180.55c-5.8-42.43,2.28-72.9,20-101.94,17.74-28.25,45.16-56.6,78-63.8C170.18,4,232.88,40.4,244.48,129.33c5.8,42.43-2.28,72.9-20,101.94C206.71,259.52,179.29,287.89,146.41,295.07Z" fill="#637e26"/>
  </g>
  <path id="Path_961" data-name="Path 961" d="M28.08,85.75l1-1.92c.34-.65.66-1.3,1-2,.61-1.31,1.17-2.65,1.79-4s1.2-2.65,1.83-4,1.38-2.55,2.14-3.78A151.65,151.65,0,0,1,53.4,47.89l1.3-1.4c.45-.47.91-.9,1.37-1.35l2.76-2.66c.94-.84,1.91-1.68,2.87-2.51l1.45-1.24c.49-.4,1-.78,1.5-1.17l3-2.31,3.12-2.14,1.56-1.06c.53-.34,1.07-.66,1.6-1l3.23-1.94,3.3-1.78,1.65-.88,1.69-.8,3.38-1.57,3.44-1.41L92.37,22c.57-.23,1.16-.42,1.74-.62l3.51-1.22c1.17-.37,2.36-.7,3.54-1l1.78-.53c.58-.17,1.19-.29,1.79-.44A115.32,115.32,0,0,1,171,20.91a74.62,74.62,0,0,1,17.53,9.19,157.65,157.65,0,0,1,15.57,12.55,128.21,128.21,0,0,1,18.62,21.2A143.91,143.91,0,0,1,236.55,89a105.82,105.82,0,0,1,6,19.7c1.44,6.75,2.29,13.59,3.11,20.45.1.89.2,1.75.34,2.62q.1.65.24,1.29c.07.42.15.85.24,1.28.65,3-.57,4.52-1.94,5.1s-1.93-1.32-2-3.3a126.36,126.36,0,0,0-3.09-24.5,135.31,135.31,0,0,0-10.83-29.87c-.59-1.17-1.24-2.31-1.85-3.48l-.93-1.73c-.32-.56-.67-1.12-1-1.68l-2-3.37-2.15-3.27c-.36-.55-.71-1.1-1.08-1.63L218.53,65c-.76-1.06-1.5-2.13-2.29-3.16-1.62-2-3.17-4.11-4.9-6L210,54.27l-.66-.77-.69-.74-2.74-2.95c-.92-1-1.9-1.89-2.85-2.84l-1.43-1.41-1.49-1.33a84.48,84.48,0,0,0-12.7-9.65A103.23,103.23,0,0,0,151,20.37a106.06,106.06,0,0,0-20.44-1.48,123.55,123.55,0,0,0-20.39,2.17c-1.16.19-2.3.49-3.45.74a31.75,31.75,0,0,0-3.43.84c-2.27.65-4.55,1.26-6.77,2.1a97.36,97.36,0,0,0-13.1,5.67A108.92,108.92,0,0,0,46,62.91,151.25,151.25,0,0,0,34.79,80.85a114.56,114.56,0,0,0-10.09,27c-.32,1.17-.54,2.37-.8,3.55L23.15,115l-.6,3.6c-.2,1.19-.44,2.39-.56,3.6-.3,2.41-.7,4.82-.89,7.25l-.37,3.64-.25,3.65c-.19,2.56-1.35,2.7-2.47,2.8-.94.1-1.45-.79-1.39-2.41A137.18,137.18,0,0,1,28.1,85.73Z" fill="#1a1818"/>
</svg>
