<svg id="Layer_1" data-name="Layer 1" xmlns="http://www.w3.org/2000/svg" viewBox="0 0 179.54 113.85">
  <path d="M174.42,90.15c2.55-1,2.46-1,1.69-2.94a8.44,8.44,0,0,0-1.79-2.93c-2.88-2.7-5.87-5.35-8.95-7.85a201.34,201.34,0,0,1-15.64-15c-1.35-1.35-1.88-3.76-4.72-3.47-.43,0-.24-.29-.24-.58a4.75,4.75,0,0,0-2.21-3.75,62.69,62.69,0,0,1-11-11c-.86-.91-2.31-1-2.88-2.16-2.22-4.57-7-6.79-9.63-10.93-.34-.43-1.11-.53-1.68-.82v-.19a2.64,2.64,0,0,0-.77-2,31.28,31.28,0,0,0-5.35-6.16,23.62,23.62,0,0,1-5.63-5.3c-.48-.62-.91-1.25-1.35-1.87a20.06,20.06,0,0,0-4.47-4.77c-2.41-2-3-5.44-6.16-7A5.48,5.48,0,0,1,91.92,0L90.48,1.44c-2.6,2.27-4.81,5-7.41,7.27a66.15,66.15,0,0,0-5.87,5.73,31.14,31.14,0,0,0-2.12,2.36,39.39,39.39,0,0,1-6.35,5.63c-1.4,1.06-2.17,2.89-3.57,3.95C60.35,30.13,56.5,34.85,52,38.89c-2.35,2.17-4.23,4.91-6.54,7.12-3.95,3.81-7.89,7.66-11.75,11.55-4.18,4.29-9.09,7.8-13,12.33-.77.91-1,2.35-1.92,2.84A17.89,17.89,0,0,0,14.24,76c-3.37,3.32-6.69,6.74-10,10.15-1.11,1.21-1,2.41.39,4,.72.82.48,1.1.48,1.92,0,1.59-1.54,1.93-1.74,3.32.05-.09.15-.19.24-.19s.34.19.15.29-.24-.05-.39-.1h0c-.1.2-.2.58-.39.58-1.54-.1-1.83,1.2-2.55,2s-.19,2.12.72,3.23,1.59.67,2.36.48c1.59-.34,2.5-1.59,4-2.07.77-.24,1.83-.05,2.36-.72.24-.24.15-1.16.72-.73s-.09.73-.24,1.11c-.86,1.88-.67,2.26,1.88,3.37a4,4,0,0,0,.82.15,1.74,1.74,0,0,0,1.63.57,10.3,10.3,0,0,0,8-4.91c1.15,2.41,1.15,2.36,3,1.59a7.38,7.38,0,0,0,2.65-1.73c2.36-2.79,4.62-5.68,6.78-8.62a180,180,0,0,1,13.1-15.11c1.2-1.3,3.41-1.83,2.88-4.57,0-.43.34-.24.58-.24A4.16,4.16,0,0,0,55,67.72,56,56,0,0,1,64.59,57c.86-.81.77-2.21,1.87-2.79,4.19-2.07,5.92-6.73,9.68-9.29.43-.28.43-1.05.67-1.63H77a2.05,2.05,0,0,0,1.83-.72,25.6,25.6,0,0,0,5.49-5.15,21,21,0,0,1,6.31-6.74c.28-.2.52-.44.81-.68a41.48,41.48,0,0,1,4.24,5.39c1.11,1.54,3,2.56,4.09,4,3.85,5.39,8.71,9.82,13,14.82,2.21,2.65,5,4.86,7.31,7.46,4,4.43,7.94,8.91,12,13.29,4.38,4.76,8,10.15,12.7,14.72.92.87,2.41,1.16,2.89,2.22A22.27,22.27,0,0,0,151,97q5.21,5.77,10.54,11.31c1.21,1.3,2.46,1.35,4.14,0,.87-.72,1.2-.43,2-.38,1.69.19,2,1.83,3.42,2.12v0c.24.14.63.24.63.43-.1,1.59,1.25,2,2.07,2.84,1,1,2.21.38,3.36-.48s.73-1.54.53-2.41c-.33-1.68-1.63-2.74-2.11-4.38-.24-.87-.05-1.92-.73-2.55-.28-.29-1.2-.24-.77-.77s.77.1,1.16.34c1.92,1.06,2.31.86,3.46-1.69a5.6,5.6,0,0,0,.2-.86,1.76,1.76,0,0,0,.62-1.64A12.12,12.12,0,0,0,174.42,90.15ZM12.8,102.71v-.09l.14.14ZM171.15,110c-.1-.1-.19-.19-.19-.29s.19-.29.28-.14S171.2,109.83,171.15,110Zm7.55-9.24h-.09l.19-.1Z" fill="#fff"/>
</svg>
