<svg id="Layer_1" data-name="Layer 1" xmlns="http://www.w3.org/2000/svg" viewBox="0 0 442.37 131.84">
  <path d="M140.7,18.28c.08,1.06.72,2,1.23,1.72.68-.43,1.38-.31,2-1.06.14-.16.46-.53.33.3-.3,1.88.46,1.68.62,2.63.27,1.63.62.36,1,.13s.64-.61,1-.07c.22.37.47.35.63,0,.74-1.64,1.33.11,1.92.73.43.45.78.64,1.24.39,1.8-.95,3.63-.86,5.44-1.23,1.28-.25,2.56-.06,3.83-.39.47-.11.76-1.08,1.19-1l.38-.08c.69.73,1.37,1.81,2.08.12.73,1,1.44-1.35,2.18-.09.11.2.29.27.42.2a5.9,5.9,0,0,1,4-.24c.25,0,.51-.07.68-.71,1.14-.12,2.27,1.15,3.42.1.74-.69,1.52-.45,2.28-.31a5.81,5.81,0,0,0,2.07-.19,2.61,2.61,0,0,1,1.3.05c.89.28,1.91.91,2.67.05s1.36-1.49,2.1-.22c0,.1.35.23.48-.3s.39-.74.59-.54c1.1,1.16,2.31-.28,3.33.63,1.35,1.18,2.6-.38,3.9,0a4.2,4.2,0,0,0,2.71.2,5.24,5.24,0,0,1,4.17.42c1.1.55,2.26,0,3.4-.05a.86.86,0,0,0,.84-.65s0,0,0,0l0,0a1,1,0,0,1,.05-.12c.24.22.49.68.72.6,2-.64,4,1.2,6.05,0,.55-.32,1,.61,1.49.63,2.15.08,4.32-.27,6.46.89.57.31,1.22.18,1.77-.72.09-.15.16-.48.26-.19.69,2,1.58,1,2.38,1.11,3,.39,6,.51,9,1.54a39.46,39.46,0,0,0,4.91,1.31,1.87,1.87,0,0,0,1.4-.52c.84-.6.85-.54.46-2.74,0,0,0,0,0,0h0c1.45.6,2.85.39,4.16-1.64a2.22,2.22,0,0,0,.34-1.32,4.84,4.84,0,0,0,.22-.6c.48-2.19.43-2.55-.45-3.2-.16-.12-.47.05-.41-.54s.29,0,.45,0c.4.1.67-.63,1-.95.64-.63,1.34-.42,2-1.14a1.85,1.85,0,0,0,.61-1.71c-.05-1.21-.21-2.33-.78-2.42s-1-.7-1.46.28c-.06.12-.2-.08-.31-.13v0c-.49-.74-1.09,0-1.61-1a2.3,2.3,0,0,1-.45-1.5c0-1.84-.4-2.64-1.13-2.69-2.14-.15-4.29-.3-6.44-.36a4.71,4.71,0,0,0-2.5.66c-.48.27-1-.51-1.5-.6-2.71-.45-5.41.26-8.11.14-2.48-.12-5-.16-7.44-.2-1.45,0-2.92-.57-4.37-.5-2.73.13-5.45-.49-8.19.07-.77.15-1.6-.5-2.4-.35a9.85,9.85,0,0,1-3.82.3A16.66,16.66,0,0,0,191.22,1c-1.57.16-3.13-.23-4.7-.06a10.44,10.44,0,0,1-3.37-.51A2.71,2.71,0,0,0,181,.94c-.54.36-1.17-.23-1.77-.34s-1.46-1.58-2.08.57c-.4-.74-.9-.22-1.29-.59-.7-.68-1.36.31-2-.11-.37-.23-.31.94-.49,1.3s-.34,1.54-.57-.21c-.21-1.59-.92-1.52-1.42-.1-.21.59-.39.63-.54.07-.28-1-.56-1.2-.92-.34-.11.27-.3.49-.39.15-.59-2.25-1.4-.23-2.07-.81-.16-.13-.3.2-.31.63,0,1.19-.24,1.13-.48.47-.46-1.26-1-1.07-1.56-.86-1.66.66-3.35.1-5,.67-2.25.78-4.51.39-6.77,1-1.26.31-2.58-.15-3.86-.31a2.86,2.86,0,0,0-2.79,1.1c-1,1.17-2.09.76-3.15.83-.38,0-.73.07-1,.82a5.8,5.8,0,0,0-.36,2.67c.12,1.05.39,2.06.86,2,.82,0,1.52.66,2.29,1.44s1.57.11,2.37,0,1.37-.2,2.06-.31c.11,0,.23-.1.32,0a1.3,1.3,0,0,1,.34,1c0,.53-.23.37-.36.36-1.73-.18-3.42.86-5.12,1.45-1,.34-2,.8-2.93,1.23a1.5,1.5,0,0,0-.53.37,3.9,3.9,0,0,0-.75,3.16" fill="#2b2e34"/>
  <path d="M.07,124.37c.08,1.06.71,2,1.23,1.71s1.38-.3,2-1c.14-.17.46-.53.33.3-.3,1.88.45,1.68.61,2.63.27,1.63.62.36,1,.13s.64-.61,1-.07c.22.36.47.35.63,0,.74-1.63,1.33.11,1.92.74.43.45.77.64,1.24.4,1.79-1,3.62-.87,5.44-1.24,1.28-.25,2.55-.06,3.83-.39.46-.12.75-1.07,1.19-1l.38-.09c.68.73,1.37,1.81,2.08.12.72,1,1.44-1.35,2.17-.09.12.2.3.28.43.2a5.81,5.81,0,0,1,3.94-.23c.25,0,.52-.08.69-.72,1.14-.12,2.27,1.15,3.41.1.75-.7,1.53-.44,2.28-.31a5.77,5.77,0,0,0,2.07-.19,2.6,2.6,0,0,1,1.3,0c.9.28,1.92.91,2.68,0s1.36-1.49,2.1-.21c.05.09.35.23.48-.3s.39-.75.58-.55c1.1,1.16,2.32-.27,3.34.63,1.35,1.18,2.6-.37,3.89,0a4.3,4.3,0,0,0,2.72.2,5.24,5.24,0,0,1,4.17.41c1.1.55,2.26,0,3.4,0a.87.87,0,0,0,.84-.64.08.08,0,0,1,0,0s0,0,0,0l.06-.13c.24.22.49.68.72.6,2-.64,4,1.2,6,0,.54-.32,1,.61,1.49.64,2.15.07,4.32-.27,6.46.88.57.31,1.22.18,1.77-.72.09-.15.16-.48.26-.19.69,2,1.58,1,2.38,1.11,3,.39,6,.5,9,1.54A39.61,39.61,0,0,0,96.5,130a1.89,1.89,0,0,0,1.4-.52c.84-.6.85-.53.46-2.74,0,0,0,0,0,0h0c1.45.6,2.86.38,4.16-1.65a2.28,2.28,0,0,0,.35-1.32,3.57,3.57,0,0,0,.21-.6c.49-2.19.44-2.55-.44-3.2-.16-.12-.47,0-.42-.54s.3,0,.45.05c.4.09.68-.64,1-1,.64-.63,1.34-.42,2-1.14a1.89,1.89,0,0,0,.61-1.71c-.06-1.21-.21-2.33-.78-2.42s-1-.7-1.47.28c0,.12-.2-.08-.3-.13s0,0,0,0c-.49-.74-1.09,0-1.61-1a2.3,2.3,0,0,1-.45-1.5c0-1.85-.4-2.64-1.13-2.69-2.15-.16-4.29-.31-6.44-.36a4.77,4.77,0,0,0-2.5.65c-.48.28-1-.51-1.5-.6-2.71-.44-5.41.27-8.12.14-2.48-.12-5-.15-7.43-.19-1.45,0-2.92-.58-4.37-.51-2.73.14-5.46-.48-8.19.07-.77.16-1.6-.5-2.4-.35a9.48,9.48,0,0,1-3.82.3,16.37,16.37,0,0,0-5.13-.27c-1.57.15-3.13-.23-4.7-.06a10.72,10.72,0,0,1-3.37-.51,2.65,2.65,0,0,0-2.12.55c-.54.37-1.17-.23-1.77-.34s-1.46-1.57-2.08.57c-.4-.73-.9-.21-1.3-.59-.69-.67-1.35.32-2-.1-.37-.24-.31.93-.49,1.3s-.35,1.54-.58-.21-.92-1.53-1.41-.1c-.22.59-.39.62-.54.07-.28-1-.56-1.21-.92-.34-.11.27-.3.48-.39.15-.59-2.25-1.4-.23-2.07-.81-.16-.14-.3.2-.31.63,0,1.18-.24,1.13-.48.47-.46-1.26-1-1.07-1.56-.87-1.66.67-3.35.11-5,.68-2.25.78-4.51.39-6.77,1-1.26.31-2.58-.15-3.87-.31A2.83,2.83,0,0,0,6,109.27c-1,1.17-2.08.75-3.14.83-.38,0-.73.07-1,.82a5.93,5.93,0,0,0-.35,2.67c.12,1,.39,2.06.86,2,.82,0,1.52.66,2.28,1.44s1.58.1,2.37,0,1.38-.21,2.07-.31c.11,0,.22-.1.32,0a1.34,1.34,0,0,1,.34,1c0,.52-.23.37-.36.35C7.67,118,6,119,4.28,119.61c-1,.34-1.95.8-2.92,1.22a1.47,1.47,0,0,0-.53.38,3.93,3.93,0,0,0-.76,3.16" fill="#2b2e34"/>
  <path d="M442.29,100.44c-.08-1-.71-2-1.23-1.71-.67.43-1.38.31-2,1.06-.15.16-.47.52-.33-.3.3-1.89-.46-1.68-.62-2.63-.27-1.63-.62-.37-1-.13s-.64.61-.95.07c-.21-.37-.47-.35-.62,0-.75,1.63-1.33-.11-1.93-.73-.42-.45-.77-.64-1.23-.39-1.8,1-3.63.86-5.45,1.23-1.28.25-2.55.06-3.83.39-.46.12-.75,1.08-1.19,1l-.38.08c-.68-.73-1.37-1.81-2.08-.12-.72-1-1.44,1.35-2.17.09-.12-.2-.3-.27-.43-.2a5.87,5.87,0,0,1-3.94.24c-.25-.05-.52.07-.69.71-1.13.12-2.27-1.15-3.41-.1-.75.7-1.53.45-2.28.31a5.77,5.77,0,0,0-2.07.19,2.72,2.72,0,0,1-1.3-.05c-.9-.28-1.92-.91-2.68,0s-1.35,1.49-2.1.22c-.05-.1-.35-.23-.48.3s-.39.74-.58.54c-1.1-1.16-2.32.27-3.34-.62-1.35-1.19-2.6.37-3.89,0a4.3,4.3,0,0,0-2.72-.2,5.2,5.2,0,0,1-4.17-.42c-1.1-.54-2.26,0-3.4.06a.86.86,0,0,0-.84.64,0,0,0,0,1,0,0s0,0,0,0,0,.07-.06.12c-.24-.22-.49-.67-.72-.6-2,.65-4-1.19-6.05,0-.54.32-1-.61-1.49-.63-2.15-.08-4.32.28-6.46-.88-.57-.31-1.22-.18-1.77.71-.09.15-.16.48-.26.19-.68-2-1.57-1-2.37-1.11-3-.38-6-.5-9-1.53a39.5,39.5,0,0,0-4.91-1.32,2,2,0,0,0-1.4.52c-.84.61-.85.54-.46,2.74,0,0,0,0,0,0h0c-1.44-.6-2.85-.38-4.16,1.64a2.23,2.23,0,0,0-.34,1.33,3.89,3.89,0,0,0-.22.6c-.48,2.19-.43,2.55.45,3.2.16.12.47-.06.41.54s-.29,0-.45,0c-.4-.09-.67.64-1,1-.64.62-1.34.41-2,1.13a1.9,1.9,0,0,0-.61,1.71c.05,1.21.21,2.33.78,2.42s1,.7,1.47-.28c.05-.12.2.08.3.13a0,0,0,0,1,0,0c.49.74,1.09,0,1.61,1a2.25,2.25,0,0,1,.44,1.5c0,1.85.4,2.64,1.13,2.69,2.15.16,4.3.31,6.44.36a4.77,4.77,0,0,0,2.5-.65c.48-.28,1,.51,1.5.6,2.71.44,5.41-.27,8.12-.14,2.48.12,5,.15,7.43.19,1.45,0,2.92.58,4.37.51,2.73-.14,5.46.48,8.19-.07.77-.16,1.6.5,2.4.35a9.48,9.48,0,0,1,3.82-.3,16.37,16.37,0,0,0,5.13.27c1.57-.15,3.13.23,4.7.06a10.85,10.85,0,0,1,3.39.51,2.66,2.66,0,0,0,2.12-.55c.54-.36,1.17.23,1.76.34s1.47,1.58,2.09-.57c.4.73.9.21,1.29.59.7.68,1.36-.32,2,.11.37.23.31-.94.49-1.3s.34-1.55.57.21c.21,1.59.92,1.52,1.42.1.21-.6.39-.63.54-.08.27,1,.56,1.21.91.35.12-.27.3-.49.4-.16.59,2.26,1.4.23,2.07.82.16.13.29-.2.31-.63,0-1.19.24-1.14.48-.48.45,1.26,1,1.07,1.55.87,1.66-.67,3.35-.11,5-.68,2.25-.78,4.51-.39,6.77-1,1.26-.3,2.58.16,3.87.31a2.83,2.83,0,0,0,2.79-1.1c1-1.17,2.08-.75,3.14-.83.38,0,.73-.07,1-.82a5.91,5.91,0,0,0,.35-2.67c-.12-1-.39-2.06-.86-2-.82,0-1.52-.66-2.28-1.44s-1.58-.1-2.37,0-1.38.21-2.07.31c-.11,0-.22.1-.32,0a1.33,1.33,0,0,1-.34-1c0-.53.23-.38.36-.36,1.74.18,3.42-.86,5.13-1.46,1-.34,2-.8,2.92-1.22a1.47,1.47,0,0,0,.53-.38,3.93,3.93,0,0,0,.76-3.16" fill="#ad7a4c"/>
  <path d="M251,113.55c-.07-1.06-.71-2-1.22-1.71-.68.43-1.38.31-2,1-.14.17-.47.53-.33-.3.3-1.88-.46-1.68-.62-2.63-.27-1.62-.62-.36-1-.13s-.64.61-1,.08c-.22-.37-.47-.35-.63,0-.75,1.63-1.33-.11-1.92-.74-.43-.45-.78-.64-1.24-.39-1.8,1-3.63.87-5.45,1.23-1.27.26-2.55.07-3.83.39-.46.12-.75,1.08-1.19,1l-.37.08c-.69-.73-1.38-1.8-2.08-.11-.73-1-1.44,1.34-2.19.08a.35.35,0,0,0-.42-.2,5.78,5.78,0,0,1-3.95.24c-.24,0-.51.08-.67.72-1.14.11-2.28-1.15-3.42-.1-.75.69-1.52.44-2.28.31a5.55,5.55,0,0,0-2.07.19,2.72,2.72,0,0,1-1.3-.05c-.89-.28-1.91-.91-2.67,0s-1.36,1.49-2.1.21c-.06-.09-.35-.23-.49.3s-.39.75-.58.54c-1.1-1.16-2.31.28-3.34-.62-1.34-1.18-2.6.37-3.89,0a4.14,4.14,0,0,0-2.71-.2,5.24,5.24,0,0,1-4.17-.42c-1.1-.55-2.26,0-3.4,0a.89.89,0,0,0-.85.65,0,0,0,0,1,0,0v0a.67.67,0,0,0-.06.12c-.24-.22-.49-.68-.72-.6-2,.64-4-1.2-6.05,0-.55.32-1-.61-1.49-.63-2.15-.08-4.32.27-6.46-.89-.57-.31-1.22-.18-1.77.72-.09.15-.16.48-.26.19-.67-2-1.57-1-2.37-1.11-3-.39-6-.5-9-1.54a39.31,39.31,0,0,0-4.9-1.31,1.89,1.89,0,0,0-1.41.52c-.84.6-.85.54-.46,2.74,0,0,0,0,0,0h0c-1.45-.6-2.86-.39-4.16,1.64a2.28,2.28,0,0,0-.35,1.32,3.57,3.57,0,0,0-.21.6c-.49,2.19-.44,2.55.44,3.2.16.12.47-.05.42.54s-.3,0-.45,0c-.4-.1-.68.63-1,.95-.64.63-1.34.42-2,1.14a1.88,1.88,0,0,0-.61,1.7c.06,1.22.21,2.34.78,2.42s1,.7,1.47-.28c.05-.12.2.09.31.14a0,0,0,0,1,0,0c.48.75,1.08,0,1.6,1a2.23,2.23,0,0,1,.44,1.5c0,1.84.4,2.64,1.14,2.69,2.14.15,4.28.3,6.43.36a4.69,4.69,0,0,0,2.5-.66c.48-.27,1,.51,1.5.6,2.71.45,5.41-.27,8.11-.14,2.48.12,5,.16,7.44.2,1.45,0,2.92.57,4.37.5,2.73-.14,5.45.49,8.19-.07.77-.16,1.6.51,2.4.35a9.66,9.66,0,0,1,3.82-.3,16.35,16.35,0,0,0,5.13.27c1.57-.15,3.13.23,4.7.07a10.45,10.45,0,0,1,3.38.5,2.6,2.6,0,0,0,2.12-.54c.55-.37,1.18.23,1.77.34s1.46,1.57,2.09-.57c.4.73.9.21,1.29.59.69.67,1.36-.32,2,.1.37.24.31-.93.49-1.3s.34-1.54.57.21c.21,1.6.92,1.53,1.42.1.21-.59.38-.62.54-.07.27,1,.55,1.21.91.34.12-.27.3-.48.39-.15.6,2.25,1.4.23,2.08.81.15.14.29-.2.31-.63,0-1.18.24-1.13.48-.47.45,1.25,1,1.07,1.55.86,1.66-.66,3.35-.1,5-.67,2.25-.78,4.51-.39,6.77-1,1.26-.31,2.58.15,3.87.31a2.83,2.83,0,0,0,2.78-1.1c1-1.17,2.09-.76,3.15-.83.38,0,.73-.07,1-.82a5.8,5.8,0,0,0,.36-2.67c-.12-1-.4-2.06-.86-2-.82,0-1.53-.66-2.29-1.44s-1.57-.11-2.37,0-1.38.2-2.06.31c-.11,0-.23.1-.32,0a1.3,1.3,0,0,1-.34-1c0-.53.23-.37.36-.36,1.73.18,3.42-.86,5.12-1.45,1-.34,2-.8,2.93-1.23a1.5,1.5,0,0,0,.53-.37,4,4,0,0,0,.76-3.16" fill="#6c6455"/>
  <path d="M304.14,54.39c-.08-1.06-.71-2-1.23-1.71-.67.43-1.38.31-2,1-.15.17-.47.53-.33-.3.3-1.88-.46-1.68-.62-2.62-.27-1.63-.62-.37-1-.14s-.63.62-.95.08c-.21-.37-.47-.35-.62,0-.75,1.63-1.33-.11-1.93-.73-.43-.45-.77-.64-1.24-.39-1.79,1-3.62.86-5.44,1.23-1.28.25-2.55.06-3.83.39-.46.12-.75,1.07-1.19,1l-.38.09c-.68-.73-1.37-1.81-2.08-.12-.73-1-1.44,1.35-2.17.09-.12-.2-.3-.27-.43-.2a5.83,5.83,0,0,1-3.95.23c-.24,0-.51.08-.68.72-1.14.12-2.27-1.15-3.41-.1-.75.7-1.53.44-2.28.31a5.77,5.77,0,0,0-2.07.19,2.72,2.72,0,0,1-1.3-.05c-.9-.28-1.92-.91-2.68,0s-1.35,1.49-2.1.21c-.05-.09-.35-.23-.48.3s-.4.75-.58.55c-1.1-1.16-2.32.27-3.34-.62-1.35-1.19-2.6.36-3.89,0a4.3,4.3,0,0,0-2.72-.2,5.2,5.2,0,0,1-4.17-.42c-1.09-.54-2.26,0-3.4.06a.86.86,0,0,0-.84.64,0,0,0,0,1,0,0v0l-.06.12c-.24-.22-.49-.67-.72-.6-2,.65-4-1.2-6.05,0-.54.32-1-.61-1.49-.63-2.15-.08-4.32.27-6.46-.88-.57-.31-1.22-.19-1.77.71-.09.15-.16.48-.26.19-.68-2-1.57-1-2.37-1.11-3-.38-6-.5-9-1.53a40,40,0,0,0-4.91-1.32,1.93,1.93,0,0,0-1.41.52c-.84.61-.84.54-.46,2.74,0,0,0,0,0,0h0c-1.45-.6-2.85-.38-4.16,1.64a2.23,2.23,0,0,0-.34,1.33,3.89,3.89,0,0,0-.22.6c-.48,2.19-.43,2.55.44,3.2.17.12.48-.06.43.54s-.3,0-.46,0c-.4-.09-.67.63-1,1-.64.62-1.33.41-2,1.13a1.87,1.87,0,0,0-.61,1.71c.05,1.21.21,2.33.78,2.42s1,.7,1.46-.28c.06-.12.2.08.31.13s0,0,0,0c.49.74,1.09,0,1.61,1a2.23,2.23,0,0,1,.44,1.5c0,1.85.4,2.64,1.13,2.69,2.15.15,4.29.31,6.44.36a4.69,4.69,0,0,0,2.5-.66c.48-.27,1,.52,1.5.6,2.71.45,5.41-.26,8.12-.13,2.48.12,5,.15,7.44.19,1.44,0,2.91.57,4.36.51,2.73-.14,5.45.48,8.19-.07.77-.16,1.6.5,2.4.35a9.48,9.48,0,0,1,3.82-.3,16.35,16.35,0,0,0,5.13.27c1.57-.15,3.13.23,4.7.06a10.74,10.74,0,0,1,3.38.51,2.68,2.68,0,0,0,2.13-.55c.54-.36,1.17.23,1.76.34s1.47,1.57,2.09-.57c.4.73.9.21,1.29.59.69.67,1.36-.32,2,.1.37.24.31-.93.49-1.3s.34-1.54.57.22c.21,1.59.92,1.52,1.42.1.21-.6.39-.63.54-.08.27,1,.55,1.21.91.35.12-.27.3-.49.39-.16.6,2.26,1.4.23,2.08.82.16.13.29-.2.31-.63,0-1.19.24-1.14.48-.48.45,1.26,1,1.07,1.55.87,1.66-.67,3.35-.11,5-.68,2.25-.78,4.51-.39,6.77-.95,1.26-.31,2.58.15,3.87.31a2.81,2.81,0,0,0,2.78-1.1c1-1.17,2.09-.75,3.15-.83.38,0,.73-.07,1-.82a5.8,5.8,0,0,0,.36-2.67c-.12-1.05-.39-2.06-.86-2-.81,0-1.52-.66-2.28-1.44s-1.58-.1-2.37,0-1.38.21-2.07.31c-.11,0-.23.1-.32,0a1.34,1.34,0,0,1-.34-1c0-.52.23-.37.36-.35,1.74.17,3.42-.86,5.13-1.46,1-.34,1.95-.8,2.92-1.22a1.66,1.66,0,0,0,.53-.38,3.93,3.93,0,0,0,.76-3.16" fill="#555042"/>
  <path d="M428.59,54.39c-.07-1.06-.71-2-1.23-1.71-.67.43-1.38.31-2,1-.14.17-.47.53-.33-.3.3-1.88-.46-1.68-.62-2.62-.27-1.63-.62-.37-1-.14s-.64.62-1,.08c-.21-.37-.46-.35-.62,0-.75,1.63-1.33-.11-1.92-.73-.43-.45-.78-.64-1.24-.39-1.8,1-3.63.86-5.45,1.23-1.27.25-2.55.06-3.83.39-.46.12-.75,1.07-1.19,1l-.38.09c-.68-.73-1.37-1.81-2.08-.12-.72-1-1.44,1.35-2.17.09-.12-.2-.3-.27-.43-.2a5.81,5.81,0,0,1-3.94.23c-.25,0-.52.08-.68.72-1.14.12-2.28-1.15-3.42-.1-.75.7-1.53.44-2.28.31a5.77,5.77,0,0,0-2.07.19,2.72,2.72,0,0,1-1.3-.05c-.89-.28-1.92-.91-2.67,0s-1.37,1.49-2.1.21c-.06-.09-.36-.23-.49.3s-.39.75-.58.55c-1.1-1.16-2.32.27-3.34-.62-1.35-1.19-2.6.36-3.89,0a4.3,4.3,0,0,0-2.72-.2,5.18,5.18,0,0,1-4.16-.42c-1.1-.54-2.26,0-3.4.06a.86.86,0,0,0-.85.64,0,0,0,0,1,0,0v0a1,1,0,0,1-.05.12c-.24-.22-.49-.67-.72-.6-2,.65-4-1.2-6.05,0-.55.32-1-.61-1.49-.63-2.15-.08-4.32.27-6.46-.88-.57-.31-1.22-.19-1.77.71-.09.15-.16.48-.26.19-.67-2-1.57-1-2.37-1.11-3-.38-6-.5-9-1.53a40,40,0,0,0-4.91-1.32,1.94,1.94,0,0,0-1.4.52c-.85.61-.86.54-.47,2.74,0,0,0,0,0,0h0c-1.45-.6-2.86-.38-4.16,1.64a2.31,2.31,0,0,0-.35,1.33,3,3,0,0,0-.21.6c-.49,2.19-.44,2.55.44,3.2.16.12.47-.06.42.54s-.3,0-.45,0c-.4-.09-.68.63-1,1-.64.62-1.34.41-2,1.13a1.9,1.9,0,0,0-.61,1.71c.06,1.21.21,2.33.78,2.42s1,.7,1.47-.28c.05-.12.2.08.31.13v0c.49.74,1.1,0,1.61,1a2.23,2.23,0,0,1,.44,1.5c0,1.85.4,2.64,1.13,2.69,2.15.15,4.29.31,6.44.36a4.69,4.69,0,0,0,2.5-.66c.48-.27,1,.52,1.5.6,2.71.45,5.41-.26,8.11-.13,2.48.12,5,.15,7.44.19,1.45,0,2.92.57,4.37.51,2.72-.14,5.45.48,8.19-.07.77-.16,1.6.5,2.4.35a9.43,9.43,0,0,1,3.81-.3,16.43,16.43,0,0,0,5.14.27c1.56-.15,3.13.23,4.7.06a10.78,10.78,0,0,1,3.38.51,2.64,2.64,0,0,0,2.12-.55c.55-.36,1.18.23,1.77.34s1.46,1.57,2.08-.57c.4.73.9.21,1.3.59.69.67,1.35-.32,2,.1.36.24.3-.93.48-1.3s.35-1.54.58.22c.21,1.59.92,1.52,1.42.1.21-.6.38-.63.53-.08.28,1,.56,1.21.92.35.12-.27.3-.49.39-.16.6,2.26,1.4.23,2.08.82.15.13.29-.2.3-.63,0-1.19.24-1.14.48-.48.45,1.26,1,1.07,1.55.87,1.67-.67,3.35-.11,5-.68,2.25-.78,4.51-.39,6.77-.95,1.25-.31,2.58.15,3.86.31a2.82,2.82,0,0,0,2.79-1.1c1-1.17,2.09-.75,3.14-.83.39,0,.74-.07,1-.82a5.8,5.8,0,0,0,.36-2.67c-.12-1.05-.4-2.06-.86-2-.82,0-1.52-.66-2.29-1.44s-1.57-.1-2.37,0-1.38.21-2.06.31c-.11,0-.23.1-.33,0a1.33,1.33,0,0,1-.33-1c0-.52.23-.37.36-.35,1.73.17,3.42-.86,5.12-1.46,1-.34,1.95-.8,2.93-1.22a1.66,1.66,0,0,0,.53-.38,3.89,3.89,0,0,0,.75-3.16" fill="#ad7a4c"/>
  <path d="M175.55,54.39c-.08-1.06-.71-2-1.23-1.71s-1.38.31-2,1c-.15.17-.47.53-.33-.3.3-1.88-.46-1.68-.62-2.62-.27-1.63-.62-.37-1-.14s-.63.62-1,.08c-.21-.37-.47-.35-.62,0-.75,1.63-1.33-.11-1.93-.73-.42-.45-.77-.64-1.23-.39-1.8,1-3.63.86-5.45,1.23-1.28.25-2.55.06-3.83.39-.46.12-.75,1.07-1.19,1l-.38.09c-.68-.73-1.37-1.81-2.08-.12-.72-1-1.44,1.35-2.17.09-.12-.2-.3-.27-.43-.2a5.81,5.81,0,0,1-3.94.23c-.25,0-.52.08-.69.72-1.14.12-2.27-1.15-3.41-.1-.75.7-1.53.44-2.28.31a5.77,5.77,0,0,0-2.07.19,2.72,2.72,0,0,1-1.3-.05c-.9-.28-1.92-.91-2.68,0s-1.35,1.49-2.1.21c0-.09-.35-.23-.47.3s-.4.75-.59.55c-1.1-1.16-2.32.27-3.34-.62-1.35-1.19-2.6.36-3.89,0a4.3,4.3,0,0,0-2.72-.2,5.2,5.2,0,0,1-4.17-.42c-1.1-.54-2.25,0-3.4.06a.86.86,0,0,0-.84.64,0,0,0,0,1,0,0v0l-.06.12c-.24-.22-.49-.67-.72-.6-2,.65-4-1.2-6,0-.54.32-1-.61-1.49-.63-2.15-.08-4.32.27-6.46-.88-.57-.31-1.22-.19-1.77.71-.09.15-.15.48-.26.19-.68-2-1.57-1-2.37-1.11-3-.38-6-.5-9-1.53a40,40,0,0,0-4.91-1.32,1.93,1.93,0,0,0-1.41.52c-.84.61-.84.54-.46,2.74,0,0,0,0,0,0h0c-1.44-.6-2.85-.38-4.16,1.64a2.23,2.23,0,0,0-.34,1.33,3.89,3.89,0,0,0-.22.6c-.48,2.19-.43,2.55.45,3.2.16.12.47-.06.42.54s-.3,0-.46,0c-.4-.09-.67.63-1,1-.64.62-1.33.41-2,1.13a1.87,1.87,0,0,0-.61,1.71c0,1.21.21,2.33.78,2.42s1,.7,1.47-.28c0-.12.2.08.3.13s0,0,0,0c.49.74,1.09,0,1.61,1a2.23,2.23,0,0,1,.44,1.5c0,1.85.4,2.64,1.13,2.69,2.15.15,4.3.31,6.44.36a4.69,4.69,0,0,0,2.5-.66c.48-.27,1,.52,1.5.6,2.71.45,5.41-.26,8.12-.13,2.48.12,5,.15,7.44.19,1.44,0,2.91.57,4.36.51,2.73-.14,5.46.48,8.19-.07.77-.16,1.6.5,2.4.35a9.48,9.48,0,0,1,3.82-.3,16.35,16.35,0,0,0,5.13.27c1.57-.15,3.13.23,4.7.06a10.85,10.85,0,0,1,3.39.51,2.66,2.66,0,0,0,2.12-.55c.54-.36,1.17.23,1.76.34s1.47,1.57,2.09-.57c.4.73.9.21,1.29.59.7.67,1.36-.32,2,.1.37.24.31-.93.49-1.3s.34-1.54.57.22c.21,1.59.92,1.52,1.42.1.21-.6.39-.63.54-.08.27,1,.56,1.21.91.35.12-.27.3-.49.4-.16.59,2.26,1.4.23,2.07.82.16.13.29-.2.31-.63,0-1.19.24-1.14.48-.48.45,1.26,1,1.07,1.55.87,1.66-.67,3.35-.11,5-.68,2.25-.78,4.51-.39,6.77-.95,1.26-.31,2.58.15,3.87.31a2.83,2.83,0,0,0,2.79-1.1c1-1.17,2.08-.75,3.14-.83.38,0,.73-.07,1-.82a5.93,5.93,0,0,0,.35-2.67c-.12-1.05-.39-2.06-.86-2-.81,0-1.52-.66-2.28-1.44s-1.58-.1-2.37,0-1.38.21-2.07.31c-.11,0-.22.1-.32,0a1.34,1.34,0,0,1-.34-1c0-.52.23-.37.36-.35,1.74.17,3.42-.86,5.13-1.46,1-.34,2-.8,2.92-1.22a1.47,1.47,0,0,0,.53-.38,3.93,3.93,0,0,0,.76-3.16" fill="#ad7a4c"/>
</svg>
