<svg id="Layer_1" data-name="Layer 1" xmlns="http://www.w3.org/2000/svg" viewBox="0 0 465.74 161.1">
  <g id="Group_677" data-name="Group 677">
    <g id="Group_675" data-name="Group 675">
      <path id="Path_834" data-name="Path 834" d="M451.41,89.22a5.77,5.77,0,0,0,.93-11.47h0l-.75-.12a5.82,5.82,0,0,0-6.68,4.77A5.7,5.7,0,0,0,449.57,89h0l.87.14a5.84,5.84,0,0,0,.93.08" fill="#6ca1b7"/>
    </g>
    <g id="Group_676" data-name="Group 676">
      <path id="Path_835" data-name="Path 835" d="M244,154.73a5.77,5.77,0,0,0,.12-11.54l-1.86-.05a5.77,5.77,0,0,0-.5,11.53h.12l2,0H244m23.07-1.61A6,6,0,0,0,268,153c.67-.11,1.34-.22,2-.35a5.77,5.77,0,1,0-2.08-11.35h0l-1.8.32a5.77,5.77,0,0,0,.93,11.46m-48-1a5.77,5.77,0,0,0,1-11.45l-1.83-.34A5.77,5.77,0,1,0,216,151.65l2,.38a7.46,7.46,0,0,0,1.05.1m72.18-5.66a5.73,5.73,0,0,0,2.08-.39c.63-.24,1.26-.49,1.88-.75a5.77,5.77,0,0,0-4.34-10.7h0c-.56.23-1.13.46-1.71.68a5.78,5.78,0,0,0,2.09,11.16m-96.37-.86a5.77,5.77,0,0,0,2-11.19l-1.73-.65A5.77,5.77,0,0,0,191,144.54l1.89.71a5.65,5.65,0,0,0,2,.36m118.93-10.13a5.73,5.73,0,0,0,2.88-.77l1.7-1a5.77,5.77,0,0,0-5.84-10l-1.62.94a5.77,5.77,0,0,0,2.88,10.77m-141.41-.86A5.77,5.77,0,0,0,175.43,124l-1.56-1a5.77,5.77,0,1,0-6.27,9.68c.56.37,1.13.73,1.7,1.09a5.73,5.73,0,0,0,3.06.88M335,122.12a5.75,5.75,0,0,0,3.17-1l1.62-1.07a5.77,5.77,0,1,0-6.27-9.69l-.09.06-1.6,1.06A5.77,5.77,0,0,0,335,122.12m-182.45-2.86a5.77,5.77,0,0,0,3.95-10L155.19,108a5.77,5.77,0,0,0-8.16,8.16l.15.14c.48.47,1,.93,1.46,1.39a5.72,5.72,0,0,0,3.94,1.57m203.6-10.7a5.69,5.69,0,0,0,3-.82l1.63-1a5.77,5.77,0,0,0-5.86-9.94l-1.7,1a5.77,5.77,0,0,0,3,10.72m-220.64-7.72A5.78,5.78,0,0,0,140,91.39l-1.21-1.47a5.77,5.77,0,1,0-8.93,7.31l1.25,1.52a5.8,5.8,0,0,0,4.45,2.09M378.46,97a5.63,5.63,0,0,0,2.25-.46l1.7-.71a5.77,5.77,0,1,0-4.35-10.68h0l-1.87.77A5.77,5.77,0,0,0,378.45,97m23.9-7.48a5.54,5.54,0,0,0,1.15-.12l1.81-.35a5.77,5.77,0,1,0-2.11-11.34l-2,.38a5.77,5.77,0,0,0,1.14,11.43m26.86-2.39a5.77,5.77,0,0,0,.1-11.54c-.68,0-1.39,0-2,0a5.77,5.77,0,0,0,0,11.54l1.85,0h.1m-309.29-6a5.76,5.76,0,0,0,4.53-9.33l-1.2-1.53a5.77,5.77,0,1,0-9.06,7.15l1.19,1.5a5.75,5.75,0,0,0,4.54,2.21M103.86,61.88a5.77,5.77,0,0,0,4.25-9.67l-1.35-1.45a5.77,5.77,0,0,0-8.15-.29h0a5.78,5.78,0,0,0-.28,8.16L99.6,60a5.78,5.78,0,0,0,4.26,1.87M85.56,44.74a5.77,5.77,0,0,0,3.57-10.3h0l-1.6-1.24a5.77,5.77,0,1,0-7,9.2h0L82,43.51a5.76,5.76,0,0,0,3.56,1.23M64.37,31.43a5.77,5.77,0,0,0,2.55-10.95L65.1,19.6a5.77,5.77,0,0,0-7.68,2.75h0A5.77,5.77,0,0,0,60.17,30h0l1.67.8a5.83,5.83,0,0,0,2.53.59M40.92,22.69a5.77,5.77,0,0,0,1.5-11.34h0l-1.94-.51a5.77,5.77,0,0,0-7,4.16h0a5.77,5.77,0,0,0,4.15,7h0l1.8.48a6.3,6.3,0,0,0,1.5.2M16.26,18.1a5.77,5.77,0,0,0,.61-11.51l-2-.2a5.78,5.78,0,0,0-6.3,5.2h0a5.78,5.78,0,0,0,5.2,6.3h0l1.86.19c.2,0,.41,0,.62,0" fill="#6ca1b7"/>
    </g>
  </g>
</svg>
