<svg id="Layer_1" data-name="Layer 1" xmlns="http://www.w3.org/2000/svg" viewBox="0 0 448.62 148.37">
  <g id="Group_677" data-name="Group 677">
    <g id="Group_675" data-name="Group 675">
      <path id="Path_834" data-name="Path 834" d="M442.86,82.85a5.77,5.77,0,0,0,.93-11.46h0l-.74-.12A5.83,5.83,0,0,0,436.35,76a5.71,5.71,0,0,0,4.66,6.6h.05l.86.14a5.86,5.86,0,0,0,.94.07" fill="#6ca1b7"/>
    </g>
    <g id="Group_676" data-name="Group 676">
      <path id="Path_835" data-name="Path 835" d="M235.43,148.37a5.77,5.77,0,0,0,.12-11.54l-1.86-.05a5.77,5.77,0,0,0-.5,11.53h.12l2,.06h.12m23.07-1.61a5.86,5.86,0,0,0,.94-.08l2-.35A5.77,5.77,0,1,0,259.37,135h0l-1.8.31a5.77,5.77,0,0,0,.93,11.47m-48-1a5.77,5.77,0,0,0,1-11.45l-1.83-.35a5.77,5.77,0,0,0-2.21,11.33l2,.37a5.16,5.16,0,0,0,1,.1m72.18-5.66a5.69,5.69,0,0,0,2.08-.39l1.88-.74a5.77,5.77,0,0,0-4.33-10.7h0l-1.71.68a5.77,5.77,0,0,0,2.08,11.15m-96.36-.86a5.77,5.77,0,0,0,2-11.19l-1.73-.65a5.77,5.77,0,0,0-4.15,10.77l1.9.72a5.83,5.83,0,0,0,2,.35m118.93-10.12a5.79,5.79,0,0,0,2.87-.77l1.71-1a5.78,5.78,0,0,0-5.85-10l-1.62.95a5.77,5.77,0,0,0,2.89,10.77m-141.42-.87a5.77,5.77,0,0,0,3.07-10.66c-.52-.32-1-.65-1.55-1a5.77,5.77,0,0,0-6.28,9.69l1.71,1.09a5.76,5.76,0,0,0,3.05.88m162.67-12.5a5.92,5.92,0,0,0,3.17-1l1.62-1.07a5.77,5.77,0,0,0-6.27-9.69l-.09.06-1.6,1a5.77,5.77,0,0,0,3.18,10.59M144,112.89a5.77,5.77,0,0,0,3.94-10l-1.34-1.27a5.77,5.77,0,0,0-8.16,8.16l.15.14,1.46,1.39a5.78,5.78,0,0,0,3.95,1.56m203.6-10.69a5.84,5.84,0,0,0,3-.82l1.62-1a5.77,5.77,0,0,0-5.86-9.94l-1.7,1a5.77,5.77,0,0,0,3,10.72M127,94.47A5.77,5.77,0,0,0,131.42,85l-1.21-1.47a5.77,5.77,0,1,0-8.93,7.32l1.25,1.51A5.77,5.77,0,0,0,127,94.47M369.9,90.66a5.77,5.77,0,0,0,2.25-.46l1.7-.71A5.77,5.77,0,1,0,369.5,78.8h0l-1.86.77a5.78,5.78,0,0,0,2.26,11.09m23.9-7.49a6.2,6.2,0,0,0,1.14-.11l1.81-.36a5.77,5.77,0,1,0-2.11-11.34q-1,.18-2,.39a5.77,5.77,0,0,0,1.14,11.42m26.87-2.39a5.77,5.77,0,0,0,.09-11.54c-.68,0-1.39,0-2,0a5.77,5.77,0,0,0,0,11.54h1.95m-309.3-6a5.77,5.77,0,0,0,4.54-9.33l-1.2-1.52a5.77,5.77,0,0,0-9.07,7.14l1.19,1.51a5.76,5.76,0,0,0,4.54,2.2M95.3,55.51a5.76,5.76,0,0,0,4.26-9.66L98.2,44.39a5.77,5.77,0,0,0-8.15-.29h0a5.78,5.78,0,0,0-.29,8.16L91,53.64a5.71,5.71,0,0,0,4.26,1.87M77,38.38a5.77,5.77,0,0,0,3.57-10.31h0L79,26.83A5.77,5.77,0,0,0,72,36h0c.49.37,1,.74,1.46,1.12A5.77,5.77,0,0,0,77,38.38M55.81,25.06a5.77,5.77,0,0,0,2.55-10.95c-.6-.29-1.21-.59-1.82-.87A5.76,5.76,0,0,0,48.87,16h0a5.77,5.77,0,0,0,2.75,7.68h0l1.66.8a5.74,5.74,0,0,0,2.54.59M32.36,16.33A5.78,5.78,0,0,0,33.86,5h0l-1.94-.51a5.77,5.77,0,0,0-7,4.16h0a5.78,5.78,0,0,0,4.16,7h0l1.8.47a5.83,5.83,0,0,0,1.5.2M7.7,11.74A5.77,5.77,0,0,0,8.31.23l-2-.2A5.76,5.76,0,0,0,0,5.22H0a5.76,5.76,0,0,0,5.19,6.29h0l1.85.19.63,0" fill="#6ca1b7"/>
    </g>
  </g>
</svg>
