<svg id="Layer_1" data-name="Layer 1" xmlns="http://www.w3.org/2000/svg" xmlns:xlink="http://www.w3.org/1999/xlink" viewBox="0 0 556 537.03">
  <defs>
    <clipPath id="clip-path">
      <rect y="112.03" width="556" height="425" fill="none"/>
    </clipPath>
    <clipPath id="clip-path-2">
      <rect x="-499.08" y="112.48" width="1234.08" height="526.45" fill="none"/>
    </clipPath>
  </defs>
  <g clip-path="url(#clip-path)">
    <g id="Mask_Group_12" data-name="Mask Group 12">
      <g id="Group_799" data-name="Group 799">
        <g clip-path="url(#clip-path-2)">
          <g id="Group_798" data-name="Group 798">
            <g id="Group_785" data-name="Group 785">
              <path id="Path_991" data-name="Path 991" d="M518.19,432.77h0s0,0,0,0" fill="#ad7a4c"/>
            </g>
            <g id="Group_787" data-name="Group 787">
              <path id="Path_993" data-name="Path 993" d="M-105.87,491.8a52.82,52.82,0,0,0,7-10.59c2.14-3.65,4.12-7.49,7.06-10.6a198.69,198.69,0,0,1,15-14.72c5.3-4.55,10.59-9.06,16-13.4A136,136,0,0,1-42,429.69c3.35-1.77,6.63-3.66,10.09-5.19l5.14-2.36,5.25-2.12c14-5.59,28.65-9.15,43.31-11.74a283.23,283.23,0,0,1,101.69.56,95,95,0,0,1,27.94,10.67c8.78,4.83,17,10.42,25.39,15.75a189.83,189.83,0,0,1,32.33,26.27,199.43,199.43,0,0,1,26.07,33c5.41,8.49,9,18,11.69,27.66s4.48,19.48,6.4,29.36A30.49,30.49,0,0,0,255.5,559c1.87,4.29-1.79,6.64-5.86,7.48-4.41.91-5.68-1.82-5.83-4.57-.68-11.46-2.44-22.93-6.21-33.77-9.89-28.25-28.19-52.63-50.81-71.57a222,222,0,0,0-18.35-14.13,117.15,117.15,0,0,0-20.37-11.17C130,424,111.14,418.52,91.82,416.68c-20.43-1.92-40.76-.62-61,1.55a173,173,0,0,0-20.72,3.48,178.13,178.13,0,0,0-20.16,6.16,184.37,184.37,0,0,0-19.33,8.48,188.9,188.9,0,0,0-18.18,10.78C-64.29,458.35-77.89,473.31-90.1,489a117,117,0,0,0-18.43,35.77l-1.54,4.81-1.3,4.88-.66,2.44-.54,2.46-1.11,4.93c-1.23,6.62-2.46,13.28-3.23,20.07-.47,3.54-3.88,3.77-7.23,3.94-2.77.16-4.31-1.12-4.19-3.49a151.28,151.28,0,0,1,6.59-38.11,154.57,154.57,0,0,1,16-34.91Z" fill="#b1aaa0"/>
            </g>
            <g id="Group_788" data-name="Group 788">
              <path id="Path_994" data-name="Path 994" d="M-190,454.58a138.51,138.51,0,0,0,10.37-15.9c3.37-5.34,6.55-10.89,10.84-15.61a287.46,287.46,0,0,1,22-22.4c7.84-6.93,15.7-13.76,23.92-20.17a223.21,223.21,0,0,1,28.15-19.15c5-2.69,9.89-5.57,15-7.91l7.67-3.65,7.83-3.28c20.9-8.7,42.79-14.49,64.85-18.58l4.71-.9,4.74-.72,9.47-1.44,9.52-1.06,4.75-.55,4.78-.35,9.54-.73,9.57-.37,4.79-.2H67.4l9.58,0a378.9,378.9,0,0,1,76.44,9,171.5,171.5,0,0,1,41.89,15.84c13.28,6.92,25.89,14.92,38.4,23a276.37,276.37,0,0,1,86.6,89.35c7.8,12.8,13.3,26.87,17.49,41.2s7,29,9.42,43.75a67.86,67.86,0,0,0,2.48,11.18c1.94,6.4-1.69,9.83-5.74,11.09-4.4,1.37-5.71-2.79-5.9-7-.92-17.5-3.66-35-9.12-51.6-.9-2.7-1.94-5.36-2.89-8l-1.46-4-1.68-3.92c-1.14-2.6-2.18-5.25-3.39-7.82L315.78,476A233.36,233.36,0,0,0,298.2,446.9l-2.42-3.49L293.19,440c-1.74-2.23-3.4-4.53-5.2-6.71-3.67-4.31-7.23-8.71-11.17-12.78-3.75-4.24-7.88-8.12-11.9-12.11-2-2-4.19-3.81-6.27-5.72l-3.15-2.85c-1.06-.93-2.18-1.8-3.27-2.71A310.52,310.52,0,0,0,224,375.76a208.52,208.52,0,0,0-31.14-17.12,334.7,334.7,0,0,0-42.14-14.81A271,271,0,0,0,107,335.29c-31.23-3.41-62.58-2-93.65,1.94a276.93,276.93,0,0,0-31.69,5.87,280.65,280.65,0,0,0-30.78,9.77,283.7,283.7,0,0,0-29.53,13.21,285.29,285.29,0,0,0-27.73,16.68c-25.39,17.29-46.69,39.86-64.87,64.33a192,192,0,0,0-27.88,55l-2.36,7.37-2,7.47-1,3.74-.8,3.78-1.64,7.56c-1.76,10.15-3.43,20.37-4.24,30.72-.51,5.42-3.93,5.76-7.28,6-2.77.22-4.29-1.68-4.15-5.2a225.18,225.18,0,0,1,9.36-56.74,230.46,230.46,0,0,1,23.39-52.22Z" fill="#b1aaa0"/>
            </g>
            <g id="Group_789" data-name="Group 789">
              <path id="Path_995" data-name="Path 995" d="M-246.75,429.45A228.39,228.39,0,0,0-234.12,410c4.21-6.47,8.2-13.18,13.4-19,8.28-9.82,17.49-18.79,26.77-27.58,9.54-8.53,19.15-16.93,29.24-24.73a284.62,284.62,0,0,1,34.48-23.44c6.11-3.31,12.1-6.85,18.4-9.76l9.38-4.5,9.56-4.08c25.55-10.79,52.34-18.08,79.4-23.18l5.78-1.12c1.93-.33,3.87-.59,5.81-.9L9.72,269.9l11.68-1.32,5.84-.66,5.85-.44,11.72-.88,11.74-.43,5.87-.22,5.88,0H80.06c31.33.86,62.76,4.38,93.56,11.83a227,227,0,0,1,51.29,19.35c16.33,8.32,31.88,18,47.19,27.85a344.47,344.47,0,0,1,59,48.61,338.38,338.38,0,0,1,46.6,61c9.42,15.7,16.21,32.86,21.41,50.33s8.65,35.4,11.46,53.47a106.31,106.31,0,0,0,2.68,13.68c2,7.82-1.61,12-5.66,13.52-4.38,1.68-5.73-3.44-6-8.61-1.07-21.57-4.47-43.11-11.08-63.64-1.08-3.34-2.34-6.62-3.5-9.93l-1.78-5-2-4.85c-1.39-3.22-2.65-6.5-4.13-9.67l-4.57-9.46a284.44,284.44,0,0,0-21.53-36c-1-1.44-1.95-2.9-3-4.31l-3.18-4.17c-2.15-2.76-4.18-5.6-6.4-8.3C336,396.44,331.58,391,326.73,386c-4.63-5.24-9.72-10-14.66-15-2.51-2.43-5.17-4.7-7.75-7.06l-3.88-3.52c-1.31-1.16-2.69-2.23-4-3.36l-8.42-7-8.67-6.67c-2.85-2.29-5.87-4.34-8.85-6.45s-5.9-4.31-9-6.21l-9.26-5.87c-3.09-2-6.35-3.64-9.52-5.46-6.32-3.69-13-6.67-19.64-9.8a404.49,404.49,0,0,0-51.9-18.51,339.27,339.27,0,0,0-53.94-10.75c-38.54-4.41-77.32-3-115.67,2.21-6.6.72-13.1,2-19.64,3.17-3.28.53-6.5,1.34-9.74,2.07L-37.57,290a355.57,355.57,0,0,0-74.37,28.6l-8.74,4.84-4.37,2.42c-1.44.84-2.84,1.73-4.26,2.6l-8.52,5.23c-2.8,1.8-5.52,3.72-8.29,5.58-31.27,21.4-57.77,49.11-80,79.51a243,243,0,0,0-34.28,67.91l-2.9,9.09-2.42,9.23-1.23,4.61-1,4.67-2,9.34a366.12,366.12,0,0,0-4.93,37.92c-.54,6.68-4,7.09-7.32,7.39-2.77.27-4.28-2.06-4.12-6.35A275.21,275.21,0,0,1-275,493.3a281.22,281.22,0,0,1,28.4-63.91Z" fill="#b1aaa0"/>
            </g>
            <g id="Group_790" data-name="Group 790">
              <path id="Path_996" data-name="Path 996" d="M263.22,407.45h0s0,0,0,0" fill="#b1aaa0"/>
            </g>
            <g id="Group_791" data-name="Group 791">
              <path id="Path_997" data-name="Path 997" d="M271.23,353.41a.91.91,0,0,1,.55,1.15,7.59,7.59,0,0,1-.7,1.66c-.09.11-.28.37.08.3.82-.14.64.5,1,.69.64.34.07.56-.07.85s-.34.5-.15.8a.39.39,0,0,1-.08.54c-.78.53-.13,1.14.05,1.69a1.35,1.35,0,0,1,0,1.08,31.29,31.29,0,0,0-1.22,4.56c-.27,1.08-.35,2.18-.66,3.24-.11.39-.54.58-.57,1l-.09.31c.22.64.57,1.29-.22,1.78.34.69-.74,1.15-.32,1.86a.4.4,0,0,1,0,.37,10.13,10.13,0,0,0-.61,3.36.57.57,0,0,1-.39.53c-.2,1,.18,2-.4,2.92A3.78,3.78,0,0,0,267,384a9.46,9.46,0,0,1-.35,1.76,4.63,4.63,0,0,0-.14,1.11,3.81,3.81,0,0,1-.33,2.28c-.47.62-.79,1.07-.36,1.78a.3.3,0,0,1-.18.39h0a.38.38,0,0,0-.31.44v0c.34,1-.41,2-.18,2.88.32,1.23-.49,2.19-.49,3.32a7.12,7.12,0,0,1-.27,2.34,8.84,8.84,0,0,0-.37,3.58,10.9,10.9,0,0,1-.46,2.89.93.93,0,0,1-.38.68h0l-.06,0c.06.22.21.46.15.65-.53,1.69,0,3.53-.78,5.17-.2.44.13.86.07,1.31a23.06,23.06,0,0,0-.47,5.56,1.72,1.72,0,0,1-.53,1.47c-.07.06-.22.1-.11.2.74.72.21,1.42.15,2.1a74.92,74.92,0,0,0-.53,7.77c0,1.43,0,2.86-.09,4.28a3,3,0,0,1-.4,1.16c-.37.68-.34.69-1.2.22h0a4.26,4.26,0,0,1-1.22,3.44.65.65,0,0,1-.6.21,1.17,1.17,0,0,1-.27.15c-1,.27-1.12.21-1.27-.58,0-.15.08-.4-.17-.4s0,.26,0,.4c0,.34-.35.53-.53.8-.34.5-.34,1.11-.73,1.6-.18.23-.33.52-.78.41s-.94-.33-.9-.82-.16-.89.3-1.23c.06,0,0-.18,0-.27h0c-.25-.47.12-.93-.22-1.44-.16-.24-.16-.39-.56-.47-.76-.15-1-.51-1-1.14.22-1.84.43-3.67.69-5.51a7.69,7.69,0,0,1,.6-2.09c.17-.39-.09-.87-.06-1.32.17-2.34.82-4.6,1.12-6.91.27-2.12.58-4.24.88-6.36.18-1.24.15-2.52.36-3.75.42-2.33.51-4.69,1.1-7,.16-.65,0-1.4.16-2.07a16.19,16.19,0,0,0,.63-3.23,28.3,28.3,0,0,1,.55-4.4c.27-1.33.31-2.68.59-4a19.05,19.05,0,0,0,.23-2.92,4.06,4.06,0,0,1,.5-1.77,4.09,4.09,0,0,0,.08-1.53c0-.61-.46-1.35.51-1.75-.25-.39,0-.78-.07-1.13-.2-.64.3-1.14.22-1.74,0-.33.42-.2.6-.34s.68-.2,0-.5-.51-.88.15-1.21c.27-.14.31-.29.1-.46-.39-.3-.43-.55,0-.8.13-.08.24-.23.12-.32-.86-.65.08-1.21-.07-1.82,0-.15.12-.24.3-.23.5.05.5-.13.26-.37a1.18,1.18,0,0,1-.16-1.38c.5-1.38.48-2.85.93-4.23.62-1.87.75-3.83,1.28-5.72a19.64,19.64,0,0,0,.38-3.33,4.13,4.13,0,0,1,.82-2.31,5.37,5.37,0,0,0,.75-2.62,1,1,0,0,1,.48-.82,1.3,1.3,0,0,1,1.15-.13c.42.17.8.46.74.86a4.21,4.21,0,0,0,.3,2,4.25,4.25,0,0,1-.3,2c-.12.59-.27,1.16-.4,1.75a.49.49,0,0,0-.05.27.42.42,0,0,0,.38.35c.22,0,.18-.17.2-.28a19.88,19.88,0,0,1,1.27-4.28c.27-.82.58-1.62.89-2.42a1.59,1.59,0,0,1,.22-.43,1.14,1.14,0,0,1,1.41-.44m-18,87.55s0,.07,0,.12.13,0,.14-.06,0-.11-.1-.06m4.26.07h.05l-.07,0,0,0m2-3.67h0" fill="#b1aaa0"/>
            </g>
            <g id="Group_792" data-name="Group 792">
              <path id="Path_998" data-name="Path 998" d="M249.79,399.74h0s0,0,0,0" fill="#b1aaa0"/>
            </g>
            <g id="Group_793" data-name="Group 793">
              <path id="Path_999" data-name="Path 999" d="M300,404.92a.85.85,0,0,1-1,.61h0a7.43,7.43,0,0,1-1.56-.61c-.1-.08-.34-.26-.27.1.15.81-.44.66-.61,1-.29.66-.51.1-.78,0s-.47-.31-.75-.11a.34.34,0,0,1-.47,0l0,0c-.51-.75-1.05-.07-1.55.14a1.2,1.2,0,0,1-1,.05,25.89,25.89,0,0,0-4.25-1c-1-.22-2-.25-3-.49-.36-.09-.55-.52-.9-.53l-.29-.07c-.58.25-1.17.64-1.65-.13-.63.37-1.08-.68-1.72-.22a.39.39,0,0,1-.35.05,8.44,8.44,0,0,0-3.11-.44.5.5,0,0,1-.51-.36c-.9-.14-1.85.29-2.71-.25a3.24,3.24,0,0,0-1.79-.32,8.15,8.15,0,0,1-1.63-.26,4.44,4.44,0,0,0-1-.09c-.72,0-1.56.22-2.12-.21s-1-.73-1.65-.26a.27.27,0,0,1-.35-.13l0,0c-.08-.25-.27-.34-.44-.27-.92.38-1.82-.32-2.67,0-1.12.38-2-.38-3.08-.32a6.06,6.06,0,0,1-2.16-.15,7.75,7.75,0,0,0-3.32-.18,9,9,0,0,1-2.69-.31.79.79,0,0,1-.63-.34h0s0,0,0-.06c-.2.07-.42.24-.59.19-1.57-.44-3.26.15-4.8-.51-.42-.18-.79.17-1.21.13a20.18,20.18,0,0,0-5.15-.18,1.46,1.46,0,0,1-1.37-.45c-.07-.07-.1-.21-.2-.1-.64.78-1.3.29-1.94.26a63.86,63.86,0,0,0-7.19-.13c-1.31.1-2.63.13-4,.13a2.36,2.36,0,0,1-1.09-.34c-.64-.32-.65-.3-.24-1.18h0a3.69,3.69,0,0,1-3.22-1,.68.68,0,0,1-.21-.59,1.3,1.3,0,0,1-.14-.26c-.28-1-.23-1.1.5-1.3.13,0,.37.06.35-.19s-.23,0-.36,0c-.32,0-.51-.33-.75-.49-.48-.31-1-.28-1.5-.64-.23-.17-.5-.3-.41-.76s.27-1,.73-.95.81-.21,1.14.25c0,.05.17,0,.26,0s0,0,0,0c.42-.27.86.07,1.31-.29.22-.18.36-.19.42-.59.12-.77.43-1.07,1-1,1.7.12,3.41.24,5.11.4a6.58,6.58,0,0,1,1.95.49c.37.16.8-.13,1.22-.12,2.16.05,4.27.57,6.42.75,2,.16,3.93.36,5.9.56,1.15.11,2.34,0,3.48.16,2.15.29,4.34.26,6.48.73.6.13,1.29-.08,1.92,0a14.51,14.51,0,0,0,3,.46,24.19,24.19,0,0,1,4.07.32c1.24.2,2.49.17,3.73.38a15.21,15.21,0,0,0,2.7.07,3.84,3.84,0,0,1,1.66.41c.41.2.93,0,1.41,0s1.23-.53,1.63.42c.35-.27.72,0,1.05-.14.58-.22,1.06.25,1.61.13.3-.06.2.42.32.59s.2.67.47,0,.8-.56,1.13.08c.14.26.28.29.42.07.27-.4.49-.45.74-.06.08.12.22.23.3.1.57-.89,1.12,0,1.68-.17.13,0,.22.11.21.29,0,.5.14.5.36.24a1,1,0,0,1,1.27-.23c1.29.42,2.65.33,3.94.71,1.74.52,3.56.55,5.32,1a16.73,16.73,0,0,0,3.08.2,3.48,3.48,0,0,1,2.15.7,4.77,4.77,0,0,0,2.45.61.88.88,0,0,1,.77.43,1.41,1.41,0,0,1,.16,1.15c-.14.42-.4.82-.77.77a3.82,3.82,0,0,0-1.88.4c-.58.24-1.25-.09-1.87-.19s-1.09-.2-1.63-.3a.55.55,0,0,0-.25,0,.45.45,0,0,0-.31.4c0,.23.16.18.27.19a17.9,17.9,0,0,1,4,1c.76.23,1.51.5,2.26.76a1.66,1.66,0,0,1,.4.2,1.17,1.17,0,0,1,.46,1.39m-81.43-13.4s-.07,0-.11,0,0,.13.06.14.1-.05.05-.11m.08,4.26v0s0,0,0-.07l0,0m3.46,1.79h0" fill="#b1aaa0"/>
            </g>
            <g id="Group_794" data-name="Group 794">
              <path id="Path_1000" data-name="Path 1000" d="M-226.18,504.9a92.06,92.06,0,0,0,10.62-18.4c3.25-6.34,6.24-13,10.67-18.42,7.08-9.15,14.92-17.41,22.73-25.58,8-7.9,16-15.74,24.23-23.26A204.57,204.57,0,0,1-129.55,397c5.06-3.08,10-6.36,15.26-9l7.78-4.11,7.93-3.68c21.2-9.7,43.34-15.87,65.53-20.36,50.59-10,102.31-10.28,153.87,1.07,14.89,3.32,29.06,10.1,42.29,18.57s25.78,18.14,38.43,27.42a299.31,299.31,0,0,1,49,45.68A345.72,345.72,0,0,1,290,509.94c8.19,14.77,13.62,31.34,17.72,48.1s6.78,33.87,9.7,51.05a58.45,58.45,0,0,0,3.3,13c2.83,7.47-2.7,11.55-8.87,13-6.67,1.57-8.58-3.18-8.82-8-1-19.93-3.72-39.87-9.42-58.71-15-49.12-42.71-91.52-77-124.48a352.11,352.11,0,0,0-27.78-24.57A172.14,172.14,0,0,0,158,400c-27.36-12.68-55.88-22.22-85.13-25.44-30.92-3.37-61.68-1.11-92.36,2.64a225.83,225.83,0,0,0-31.35,6,243.08,243.08,0,0,0-30.49,10.68,260,260,0,0,0-29.26,14.73,281.31,281.31,0,0,0-27.49,18.72c-25.24,19.47-45.8,45.46-64.26,72.72-12.4,18.56-21.7,39.86-27.86,62.16l-2.32,8.36-2,8.48-1,4.24-.81,4.28-1.68,8.57c-1.85,11.51-3.7,23.08-4.87,34.87-.7,6.17-5.87,6.56-10.93,6.86-4.19.26-6.52-2-6.35-6.08a298.66,298.66,0,0,1,9.94-66.25A289.1,289.1,0,0,1-226,504.88Z" fill="#b1aaa0"/>
            </g>
            <g id="Group_795" data-name="Group 795">
              <path id="Path_1001" data-name="Path 1001" d="M-353.48,440.11a244.17,244.17,0,0,0,15.68-27.63c5.1-9.27,9.91-18.92,16.39-27.12,10.33-13.88,21.8-26.51,33.32-38.92,11.85-12,23.75-23.9,36.17-35,13.32-12.51,27.8-23.26,42.57-33.27,7.56-4.67,15-9.66,22.77-13.74l11.6-6.33,11.84-5.7c31.61-15.09,64.74-25.13,98.12-32.22l7.13-1.56,7.17-1.24,14.33-2.49L-22,213l7.2-.94,7.22-.61L6.87,210.2l14.48-.64,7.24-.33h7.25l14.5,0C89,210.21,127.82,214.85,166,225c22.09,5.74,43.35,15.46,63.39,27.59s39.2,26,58.14,40a446.49,446.49,0,0,1,73.08,68.9,489.53,489.53,0,0,1,58.05,86.48c11.82,22.25,20.15,46.74,26.51,71.63s10.57,50.4,14.29,76.07a135.21,135.21,0,0,0,3.76,19.45c2.94,11.12-2.54,17.08-8.68,19.27-6.65,2.38-8.63-4.85-8.94-12.15-1.4-30.42-5.56-60.8-13.84-89.71-1.36-4.7-2.94-9.32-4.39-14l-2.21-7-2.55-6.82c-1.72-4.53-3.3-9.13-5.13-13.6l-5.67-13.3c-8-17.47-16.54-34.6-26.62-50.56l-3.67-6.06-3.92-5.87c-2.64-3.88-5.14-7.87-7.88-11.66-5.55-7.5-10.94-15.16-16.9-22.24-5.69-7.37-11.94-14.12-18-21.06-3.08-3.42-6.34-6.62-9.5-9.95l-4.77-5c-1.61-1.63-3.3-3.15-4.94-4.73a485.28,485.28,0,0,0-42.79-37.23,305.46,305.46,0,0,0-47.15-29.79,468.09,468.09,0,0,0-63.77-25.79A365.82,365.82,0,0,0,95.72,233C48.45,227.08,1,229.43-46,236.33c-16.14,2.12-32.09,5.9-47.95,10.16-15.71,4.82-31.4,10.08-46.57,16.95-15.33,6.45-30.07,14.53-44.67,22.93-14.32,9-28.57,18.2-41.94,29-38.4,30.05-70.62,69.26-98.09,111.78a354.07,354.07,0,0,0-42.14,95.51l-3.56,12.8-3,13-1.51,6.49-1.21,6.57-2.48,13.14c-2.66,17.65-5.18,35.4-6.39,53.41-.77,9.42-5.94,10-11,10.43-4.19.38-6.5-2.93-6.29-9a445.39,445.39,0,0,1,14.11-98.64A432.19,432.19,0,0,1-353.31,440Z" fill="#b1aaa0"/>
            </g>
            <g id="Group_796" data-name="Group 796">
              <path id="Path_1002" data-name="Path 1002" d="M-439.41,396.38c6.9-11,13.22-22.2,19.09-33.86,6.36-11.25,12.39-22.92,20.25-33,12.53-17.06,26.45-32.64,40.48-47.93,14.43-14.81,29-29.4,44.22-43,16.37-15.25,34.09-28.41,52.16-40.71,9.25-5.75,18.29-11.9,27.84-16.94l14.18-7.83,14.48-7.07c38.64-18.73,79.18-31.38,120.12-40.23l8.73-1.93c2.92-.58,5.87-1,8.8-1.55l17.58-3.09L-33.81,117l8.83-1.15,8.86-.74,17.73-1.52,17.77-.74,8.88-.37,8.89,0H55c47.41,1.52,95,7.67,141.58,20.66,26.94,7.38,53,19.07,77.63,33.67s48.25,31.24,71.43,48.47A544.6,544.6,0,0,1,435,299.88,587.57,587.57,0,0,1,505.54,406c14.27,27.3,24.57,57.13,32.44,87.51s13.13,61.56,17.4,93a210.72,210.72,0,0,0,4.07,23.79c3,13.59-2.43,20.81-8.55,23.5-6.63,2.92-8.67-6-9-15-1.63-37.5-6.8-74.94-16.82-110.64-1.65-5.81-3.56-11.51-5.31-17.27L517,482.3,514,473.87c-2.1-5.6-4-11.29-6.25-16.81l-6.93-16.45C491,419,480.53,397.8,468.16,378c-1.51-2.5-3-5-4.52-7.5l-4.81-7.25c-3.25-4.8-6.32-9.75-9.69-14.44-6.83-9.28-13.47-18.75-20.81-27.51-7-9.11-14.72-17.46-22.2-26-3.8-4.22-7.83-8.18-11.73-12.29l-5.88-6.12c-2-2-4.07-3.88-6.1-5.83l-12.74-12.16-13.14-11.6c-4.3-4-8.87-7.55-13.39-11.22s-8.93-7.5-13.65-10.81l-14-10.2c-4.67-3.41-9.6-6.34-14.41-9.5-9.57-6.42-19.72-11.6-29.73-17.06a563.77,563.77,0,0,0-78.56-32.23,456.71,456.71,0,0,0-81.63-18.74c-58.31-7.7-117-5.28-175,3.73-10,1.24-19.82,3.51-29.71,5.5-5,.91-9.84,2.32-14.74,3.58L-123,154.23c-19.39,6.06-38.72,12.63-57.44,21.18-18.9,8-37.08,18.05-55.06,28.46l-13.22,8.4-6.62,4.2c-2.17,1.46-4.3,3-6.45,4.52l-12.87,9.09c-4.24,3.12-8.36,6.46-12.54,9.68-47.3,37.19-87.37,85.32-120.93,138.15a449.32,449.32,0,0,0-51.79,118l-4.38,15.8-3.66,16-1.85,8-1.49,8.11-3,16.23c-3.22,21.79-6.19,43.72-7.42,65.92-.82,11.62-6,12.32-11.06,12.85-4.19.45-6.49-3.59-6.25-11a543.62,543.62,0,0,1,16.92-120.5,528.48,528.48,0,0,1,42.92-111.07Z" fill="#b1aaa0"/>
            </g>
            <g id="Group_797" data-name="Group 797">
              <path id="Path_1003" data-name="Path 1003" d="M144.24,578.59c0-3.75-2.17-6.13-4.24-8.39a46.56,46.56,0,0,1-6-6.94l-3.87-6.81a75.91,75.91,0,0,0-4.46-6.38,47.63,47.63,0,0,0-4.92-6,74.26,74.26,0,0,0-5.68-5c-2.08-1.79-4.34-3.29-6.54-4.88s-4.31-3.33-6.49-5-4.49-3-6.71-4.65L92,522.21l-3.49-2.11-7-4.35c-2.4-1.31-4.86-2.45-7.31-3.68-4.86-2.67-10-4.23-15.23-5.94-11.9-3.18-24.37-4.31-36.49-2.25-6.09.63-12,2.58-17.81,4.48a72.55,72.55,0,0,0-8.47,3.73,54.25,54.25,0,0,0-8.11,4.48A43.14,43.14,0,0,1-21.29,521a78.26,78.26,0,0,1-9.77,3.37c-6.47,2.4-13.34,4.67-18.86,9.46-4,3-7.55,6.8-11.22,10.3a56.89,56.89,0,0,0-5.11,5.75c-1.63,2-3.33,3.91-4.88,6l-4.29,6.51-2.11,3.26c-.63,1.14-1.19,2.33-1.78,3.5l-3.42,7c-1.06,2.39-1.79,5-2.65,7.43-.58,1.76-1.25,3.47-2,5.13-.56,1.75-1.18,3.47-1.84,5.16s-1.38,3.37-2.11,5a52.09,52.09,0,0,0-1.82,5.18A53.68,53.68,0,0,0-96.66,626a11.2,11.2,0,0,0,2.1,5.73c2.45,3.16-3.27,4.58-9.51,5.34-6.75.82-8.42-1.63-8.39-4.21.08-5.29,0-10.63.92-15.86l.94-7.92c.31-2.64,1-5.2,1.35-7.85l.87-5.16.46-2.59.69-2.5,2.84-10c1-3.33,2.46-6.44,3.71-9.68l2-4.81c.74-1.55,1.57-3,2.37-4.55,1.63-3,3.2-6.08,5-9l5.73-8.36a71.35,71.35,0,0,1,6.26-7.83,91.07,91.07,0,0,1,6.71-7.32c2.49-2.33,5.07-4.53,7.67-6.69s5.49-3.8,8.21-5.71l4.1-2.81c1.35-1,2.82-1.69,4.21-2.58A99.1,99.1,0,0,0-40.26,506c13.86-9.5,29.47-15.11,45.3-19.25,16.69-4.37,34.5-6.61,51.45-1.24a86.9,86.9,0,0,1,8.57,2.85l8.48,3L81.81,495A72.22,72.22,0,0,1,90,498.84l8,4.27c2.68,1.36,5.15,3.25,7.72,4.85s5.17,3.16,7.54,5.17l7.21,5.77c6.62,5.74,13.32,11.45,19.28,18.18a79.81,79.81,0,0,1,8.44,10.62,55.84,55.84,0,0,1,3.75,5.77q1.63,3.09,3.13,6.26c2.86,5.55,5.07,11.49,7.73,17.1,1.34,2.8,2.22,5.88,3.38,8.79s2.36,5.82,3.05,9l2.35,9.24.55,2.32.32,2.38.56,4.77a67.74,67.74,0,0,1,.58,9.55c-.14,3.21-.38,6.4-.76,9.56-.4,3.34-5.55,3.51-10.6,3.66-4.17.11-6.61-.81-6.62-2.5a127.4,127.4,0,0,0-11.24-55.07Z" fill="#b1aaa0"/>
            </g>
          </g>
        </g>
      </g>
    </g>
  </g>
  <g id="Group_815" data-name="Group 815">
    <g id="Group_800" data-name="Group 800">
      <path id="Path_970" data-name="Path 970" d="M334.44,124.6c0-.48.32-.93.56-.78s.63.14.93.48c.06.08.21.24.15-.14-.14-.86.21-.77.28-1.2.13-.74.29-.16.45-.06s.29.28.44,0,.21-.16.28,0c.35.75.61,0,.89-.34s.35-.29.56-.18a8,8,0,0,0,2.5.56c.59.12,1.17,0,1.76.18.21.06.35.5.55.47l.17,0c.31-.34.63-.83,1,0,.34-.48.66.61,1,0,.06-.08.14-.12.2-.09a2.62,2.62,0,0,0,1.81.11c.11,0,.23,0,.31.33.52.06,1-.53,1.57,0,.34.32.7.2,1,.14a2.54,2.54,0,0,1,1,.09,1.22,1.22,0,0,0,.6,0c.41-.12.88-.41,1.23,0s.62.68,1,.1c0,0,.16-.1.22.14s.18.34.27.25c.51-.53,1.06.12,1.53-.29s1.19.17,1.78,0a2,2,0,0,1,1.25-.1,2.4,2.4,0,0,0,1.91-.2c.5-.25,1,0,1.55,0a.41.41,0,0,1,.39.3h0l0,.06c.11-.1.22-.31.33-.28.92.3,1.85-.54,2.77,0,.25.15.44-.28.68-.29a6.15,6.15,0,0,0,3-.41c.26-.14.56-.08.81.33,0,.07.07.22.12.09.31-.92.72-.46,1.09-.51a19.84,19.84,0,0,0,4.12-.7,17.49,17.49,0,0,1,2.26-.6.85.85,0,0,1,.64.23c.39.28.39.25.21,1.26v0h0c.66-.27,1.3-.18,1.9.75a1,1,0,0,1,.16.6,2.31,2.31,0,0,1,.1.28c.22,1,.2,1.16-.2,1.46-.07.06-.22,0-.19.25s.13,0,.21,0,.31.29.46.44.61.19.9.52a.85.85,0,0,1,.28.78c0,.56-.1,1.07-.36,1.11s-.45.32-.67-.13c0-.05-.09,0-.14.07v0c-.23.35-.5,0-.74.47a1,1,0,0,0-.2.69c0,.85-.18,1.21-.52,1.23-1,.08-2,.14-2.95.17a2.13,2.13,0,0,1-1.15-.3c-.22-.13-.45.24-.69.28a30.8,30.8,0,0,1-3.72-.07c-1.14.06-2.27.07-3.41.09-.66,0-1.34.26-2,.23a23.74,23.74,0,0,1-3.77,0c-.35-.07-.73.23-1.1.16a4.49,4.49,0,0,0-1.75-.14,7.43,7.43,0,0,1-2.35.13c-.72-.07-1.44.1-2.16,0a4.82,4.82,0,0,0-1.55.23,1.2,1.2,0,0,1-1-.25c-.25-.17-.54.1-.81.16s-.67.72-1-.27c-.18.34-.41.1-.59.27s-.62-.14-.93.05-.14-.43-.22-.6-.16-.7-.27.1-.42.7-.65,0c-.1-.27-.18-.29-.25,0-.12.46-.25.55-.42.15-.05-.12-.14-.22-.18-.07-.27,1-.64.11-.95.38-.07.06-.13-.09-.14-.29,0-.55-.11-.52-.22-.22-.2.58-.47.49-.71.4-.76-.3-1.54,0-2.3-.31a29.8,29.8,0,0,0-3.11-.43,4.82,4.82,0,0,0-1.77.14,1.32,1.32,0,0,1-1.28-.5c-.45-.54-1-.35-1.44-.38-.18,0-.34,0-.47-.38a2.61,2.61,0,0,1-.15-1.24c.05-.48.18-.94.39-.93.37,0,.7-.3,1.05-.66s.72,0,1.08,0,.64.1.95.14c.05,0,.1,0,.15,0a.62.62,0,0,0,.15-.47c0-.25-.1-.18-.16-.17a5.87,5.87,0,0,1-2.35-.66c-.45-.16-.9-.37-1.34-.57a.74.74,0,0,1-.25-.17,1.79,1.79,0,0,1-.34-1.45m47.44,5s0,0,.07,0,0-.13-.05-.14,0,.07,0,.13m-.31-4.62v0m-2.08-1.54s0,0,0,0" fill="#2b2e34"/>
    </g>
    <g id="Group_803" data-name="Group 803">
      <path id="Path_974" data-name="Path 974" d="M422.15,130.61c0-.48.33-.93.56-.78s.63.14.93.48c.07.08.21.25.15-.14-.14-.86.21-.77.29-1.2.12-.74.28-.16.44-.06s.3.28.44,0,.22-.16.29,0c.34.75.61,0,.88-.34s.35-.29.57-.18a8.26,8.26,0,0,0,2.5.57c.58.11,1.17,0,1.75.18.22,0,.35.49.55.46l.17,0c.32-.34.63-.83,1-.05.33-.48.66.61,1,0,.05-.09.13-.13.19-.1a2.68,2.68,0,0,0,1.81.12c.11,0,.24,0,.31.32.53.06,1.05-.52,1.57,0,.34.32.7.2,1,.14a2.6,2.6,0,0,1,1,.09,1.23,1.23,0,0,0,.6,0c.41-.12.87-.41,1.22,0s.62.68,1,.1c0,0,.16-.1.22.14s.18.34.27.25c.51-.53,1.06.13,1.53-.29s1.19.17,1.79,0a2,2,0,0,1,1.24-.1,2.4,2.4,0,0,0,1.91-.2c.5-.25,1,0,1.56,0a.37.37,0,0,1,.38.29v0a.33.33,0,0,0,0,.06c.11-.1.22-.31.33-.28.92.3,1.85-.54,2.78,0,.24.15.43-.28.68-.29a6.12,6.12,0,0,0,3-.41c.26-.14.56-.08.81.33,0,.07.07.22.12.09.31-.92.73-.46,1.09-.51a19.93,19.93,0,0,0,4.13-.7,17.34,17.34,0,0,1,2.25-.6.83.83,0,0,1,.64.23c.39.28.39.25.22,1.26,0,0,0,0,0,0h0c.66-.27,1.31-.18,1.91.75a1.05,1.05,0,0,1,.15.6.94.94,0,0,1,.1.28c.23,1,.2,1.17-.2,1.46-.07.06-.21,0-.19.25s.14,0,.21,0,.31.29.46.44.61.19.9.52a.85.85,0,0,1,.28.78c0,.56-.1,1.07-.36,1.11s-.45.33-.67-.13c0,0-.09,0-.14.07v0c-.22.35-.5,0-.74.48a1.09,1.09,0,0,0-.2.68c0,.85-.18,1.21-.52,1.23-1,.08-2,.14-2.95.17a2.07,2.07,0,0,1-1.14-.3c-.22-.12-.46.24-.69.28a31,31,0,0,1-3.73-.07c-1.13.06-2.27.08-3.41.09-.66,0-1.33.27-2,.23a23.6,23.6,0,0,1-3.76,0c-.36-.07-.74.23-1.1.16a4.32,4.32,0,0,0-1.75-.13,7.79,7.79,0,0,1-2.36.12c-.72-.07-1.43.1-2.15,0a4.88,4.88,0,0,0-1.56.23,1.21,1.21,0,0,1-1-.25c-.25-.17-.54.11-.81.16s-.67.72-1-.27c-.18.34-.41.1-.59.27-.32.32-.62-.14-.93.05s-.14-.43-.22-.6-.16-.7-.27.1-.42.7-.65.05c-.1-.27-.17-.29-.24,0-.13.46-.26.55-.42.15-.06-.12-.14-.22-.18-.07-.27,1-.65.11-.95.38-.08.06-.14-.09-.14-.29,0-.55-.12-.52-.22-.22-.21.58-.48.49-.72.4-.76-.31-1.53-.05-2.3-.31a30,30,0,0,0-3.1-.43,4.85,4.85,0,0,0-1.78.14,1.3,1.3,0,0,1-1.27-.5c-.46-.54-1-.35-1.45-.39-.17,0-.33,0-.46-.37a2.61,2.61,0,0,1-.16-1.23c.05-.48.18-.95.39-.94.37,0,.7-.3,1.05-.66s.72-.05,1.09,0,.63.1.94.14c0,0,.1,0,.15,0a.63.63,0,0,0,.16-.47c0-.25-.11-.17-.17-.17a5.87,5.87,0,0,1-2.35-.66c-.45-.16-.9-.37-1.34-.57a.7.7,0,0,1-.25-.17,1.83,1.83,0,0,1-.34-1.45m47.44,5s0,0,.07,0,0-.14-.05-.15-.05.07,0,.13m-.3-4.62a.11.11,0,0,0,0,0V131s0,0,0,0m-2.09-1.54h0" fill="#2b2e34"/>
    </g>
    <g id="Group_804" data-name="Group 804">
      <path id="Path_976" data-name="Path 976" d="M397.8,103.48c0-.48.33-.93.56-.78s.63.14.93.48c.07.08.21.24.15-.14-.14-.86.21-.77.28-1.2.13-.74.29-.16.45-.06s.29.28.44,0,.22-.16.29,0c.34.75.61,0,.88-.34s.35-.29.57-.18a7.9,7.9,0,0,0,2.5.56c.58.12,1.17,0,1.75.18.22.06.35.5.55.47l.17,0c.32-.34.63-.83,1,0,.33-.48.66.61,1,0,.05-.08.13-.12.19-.09a2.62,2.62,0,0,0,1.81.11c.11,0,.23,0,.31.33.52.06,1-.53,1.57,0,.34.32.7.2,1,.14a2.54,2.54,0,0,1,.95.09,1.22,1.22,0,0,0,.6,0c.41-.12.88-.41,1.23,0s.62.68,1,.1c0,0,.16-.1.22.14s.18.34.27.25c.51-.53,1.06.12,1.53-.29.62-.54,1.19.17,1.79,0a2,2,0,0,1,1.24-.1,2.4,2.4,0,0,0,1.91-.2c.5-.25,1,0,1.56,0a.39.39,0,0,1,.38.3h0l0,.06c.11-.1.22-.31.33-.28.92.3,1.85-.54,2.77,0,.25.15.44-.28.69-.29a6.12,6.12,0,0,0,3-.41c.26-.14.56-.08.81.33,0,.07.07.22.12.09.31-.92.72-.46,1.09-.51a19.93,19.93,0,0,0,4.13-.7,16.92,16.92,0,0,1,2.25-.6.83.83,0,0,1,.64.23c.39.28.39.25.21,1.26v0h0c.66-.27,1.31-.18,1.91.75a1.05,1.05,0,0,1,.15.6,1.33,1.33,0,0,1,.1.28c.22,1,.2,1.16-.2,1.46-.07.06-.21,0-.19.25s.14,0,.21,0,.31.29.46.44.61.19.9.52a.85.85,0,0,1,.28.78c0,.56-.1,1.07-.36,1.11s-.45.32-.67-.13c0,0-.09,0-.14.07v0c-.23.35-.5,0-.74.47a1.07,1.07,0,0,0-.2.69c0,.85-.18,1.21-.52,1.23-1,.08-2,.14-2.95.17a2.13,2.13,0,0,1-1.15-.3c-.22-.13-.45.24-.68.28a30.92,30.92,0,0,1-3.73-.07c-1.13.06-2.27.07-3.41.09-.66,0-1.34.26-2,.23a23.6,23.6,0,0,1-3.76,0c-.36-.07-.74.23-1.1.16a4.54,4.54,0,0,0-1.76-.14,7.41,7.41,0,0,1-2.35.13c-.72-.07-1.44.1-2.15,0a4.84,4.84,0,0,0-1.56.23,1.21,1.21,0,0,1-1-.25c-.25-.17-.54.11-.81.16s-.67.72-1-.27c-.18.34-.41.1-.59.27s-.62-.14-.93.05-.14-.43-.22-.6-.16-.7-.27.1-.42.7-.65,0c-.1-.27-.17-.29-.24,0-.13.47-.26.56-.42.16-.06-.12-.14-.22-.18-.07-.28,1-.65.11-1,.37-.07.07-.13-.09-.14-.28,0-.55-.11-.52-.22-.22-.2.57-.47.49-.71.4-.76-.31-1.53,0-2.3-.31-1-.36-2.07-.18-3.1-.44a5.08,5.08,0,0,0-1.78.14,1.3,1.3,0,0,1-1.28-.5c-.45-.53-.95-.34-1.44-.38-.17,0-.33,0-.46-.37a2.63,2.63,0,0,1-.16-1.24c0-.48.18-.94.39-.93.37,0,.7-.3,1.05-.66s.72,0,1.09,0,.63.1.94.14c.05,0,.1,0,.15,0a.63.63,0,0,0,.16-.47c0-.25-.11-.17-.17-.17a5.87,5.87,0,0,1-2.35-.66c-.45-.16-.9-.37-1.34-.57a.74.74,0,0,1-.25-.17,1.79,1.79,0,0,1-.34-1.45m47.44,5s0,0,.07,0,0-.13-.05-.14-.05.07,0,.13m-.3-4.62v0m-2.09-1.54h0" fill="#2b2e34"/>
    </g>
    <g id="Group_805" data-name="Group 805">
      <path id="Path_978" data-name="Path 978" d="M340.72,103.48c0-.48.33-.93.56-.78s.63.14.93.48c.07.08.21.24.15-.14-.14-.86.21-.77.28-1.2.13-.74.29-.16.45-.06s.3.28.44,0,.22-.16.29,0c.34.75.61,0,.88-.34s.35-.29.57-.18a8,8,0,0,0,2.5.56c.58.12,1.17,0,1.75.18.22.06.35.5.55.47l.17,0c.32-.34.63-.83,1,0,.33-.48.66.61,1,0,.05-.08.13-.12.19-.09a2.62,2.62,0,0,0,1.81.11c.11,0,.24,0,.31.33.52.06,1-.53,1.57,0,.34.32.7.2,1,.14a2.52,2.52,0,0,1,.95.09,1.22,1.22,0,0,0,.6,0c.41-.12.88-.41,1.23,0s.62.68,1,.1c0,0,.16-.1.22.14s.18.34.27.25c.51-.53,1.06.12,1.53-.29.62-.54,1.19.17,1.79,0a2,2,0,0,1,1.24-.1,2.4,2.4,0,0,0,1.91-.2c.5-.25,1,0,1.56,0a.39.39,0,0,1,.38.3h0l0,.06c.11-.1.22-.31.33-.28.92.3,1.85-.54,2.77,0,.25.15.44-.28.69-.29a6.12,6.12,0,0,0,3-.41c.26-.14.56-.08.81.33,0,.07.07.22.12.09.31-.92.72-.46,1.09-.51a19.93,19.93,0,0,0,4.13-.7,17.34,17.34,0,0,1,2.25-.6.83.83,0,0,1,.64.23c.39.28.39.25.21,1.26v0h0c.66-.27,1.31-.18,1.91.75a1.05,1.05,0,0,1,.15.6,1.33,1.33,0,0,1,.1.28c.22,1,.2,1.16-.2,1.46-.07.06-.21,0-.19.25s.14,0,.21,0,.31.29.46.44.61.19.9.52a.85.85,0,0,1,.28.78c0,.56-.1,1.07-.36,1.11s-.45.32-.67-.13c0,0-.09,0-.14.07v0c-.23.35-.5,0-.74.47a1.14,1.14,0,0,0-.2.69c0,.85-.18,1.21-.52,1.23-1,.08-2,.14-2.95.17a2.07,2.07,0,0,1-1.14-.3c-.22-.13-.46.24-.69.28a31,31,0,0,1-3.73-.07c-1.13.06-2.27.07-3.41.09-.66,0-1.33.26-2,.23a23.6,23.6,0,0,1-3.76,0c-.36-.07-.74.23-1.1.16a4.51,4.51,0,0,0-1.75-.14,7.49,7.49,0,0,1-2.36.13c-.72-.07-1.43.1-2.15,0a4.88,4.88,0,0,0-1.56.23,1.21,1.21,0,0,1-1-.25c-.25-.17-.54.11-.81.16s-.67.72-1-.27c-.18.34-.41.1-.59.27s-.62-.14-.93.05-.14-.43-.22-.6-.16-.7-.27.1-.42.7-.65,0c-.1-.27-.17-.29-.24,0-.13.47-.26.56-.42.16-.06-.12-.14-.22-.18-.07-.27,1-.65.11-.95.37-.08.07-.14-.09-.14-.28,0-.55-.12-.52-.22-.22-.21.57-.48.49-.72.4-.76-.31-1.53,0-2.3-.31-1-.36-2.07-.18-3.1-.44a5.08,5.08,0,0,0-1.78.14,1.3,1.3,0,0,1-1.28-.5c-.45-.53-.95-.34-1.44-.38-.17,0-.33,0-.46-.37a2.63,2.63,0,0,1-.16-1.24c.05-.48.18-.94.39-.93.37,0,.7-.3,1.05-.66s.72,0,1.09,0,.63.1.94.14c.05,0,.1,0,.15,0a.63.63,0,0,0,.16-.47c0-.25-.11-.17-.17-.17a5.87,5.87,0,0,1-2.35-.66c-.45-.16-.9-.37-1.34-.57a.85.85,0,0,1-.25-.17,1.83,1.83,0,0,1-.34-1.45m47.44,5s0,0,.07,0,0-.13-.05-.14-.05.07,0,.13m-.3-4.62v0m-2.09-1.54h0" fill="#2b2e34"/>
    </g>
    <g id="Group_806" data-name="Group 806">
      <path id="Path_980" data-name="Path 980" d="M456.77,103.48c0-.48.33-.93.57-.78s.63.14.93.48c.06.08.21.24.15-.14-.14-.86.21-.77.28-1.2.13-.74.28-.16.45-.06s.29.28.43,0,.22-.16.29,0c.34.75.61,0,.88-.34s.36-.29.57-.18a8,8,0,0,0,2.5.56c.59.12,1.17,0,1.76.18.21.06.34.5.54.47l.18,0c.31-.34.63-.83.95,0,.34-.48.66.61,1,0,.05-.08.13-.12.19-.09a2.63,2.63,0,0,0,1.81.11c.12,0,.24,0,.32.33.52.06,1-.53,1.56,0,.35.32.7.2,1.05.14a2.54,2.54,0,0,1,.95.09,1.22,1.22,0,0,0,.6,0c.41-.12.88-.41,1.22,0s.63.68,1,.1c0,0,.16-.1.22.14s.18.34.27.25c.5-.53,1.06.12,1.53-.29.62-.54,1.19.17,1.78,0a2,2,0,0,1,1.25-.1,2.39,2.39,0,0,0,1.9-.2c.5-.25,1,0,1.56,0a.41.41,0,0,1,.39.3h0a.14.14,0,0,1,0,.06c.11-.1.23-.31.33-.28.93.3,1.86-.54,2.78,0,.25.15.44-.28.68-.29a6.11,6.11,0,0,0,3-.41c.26-.14.56-.08.82.33,0,.07.07.22.11.09.32-.92.73-.46,1.1-.51a20,20,0,0,0,4.12-.7,17.78,17.78,0,0,1,2.25-.6.87.87,0,0,1,.65.23c.38.28.39.25.21,1.26,0,0,0,0,0,0h0c.67-.27,1.31-.18,1.91.75a1.06,1.06,0,0,1,.16.6,2.31,2.31,0,0,1,.1.28c.22,1,.2,1.16-.2,1.46-.08.06-.22,0-.2.25s.14,0,.21,0,.31.29.46.44c.3.28.62.19.9.52a.86.86,0,0,1,.29.78c0,.56-.1,1.07-.36,1.11s-.46.32-.67-.13c0,0-.1,0-.15.07v0c-.22.35-.5,0-.73.47a1,1,0,0,0-.2.69c0,.85-.18,1.21-.52,1.23-1,.08-2,.14-2.95.17a2.11,2.11,0,0,1-1.15-.3c-.22-.13-.45.24-.69.28a30.8,30.8,0,0,1-3.72-.07c-1.14.06-2.27.07-3.41.09-.67,0-1.34.26-2,.23a23.72,23.72,0,0,1-3.77,0c-.35-.07-.73.23-1.1.16a4.49,4.49,0,0,0-1.75-.14,7.43,7.43,0,0,1-2.35.13c-.72-.07-1.44.1-2.16,0a4.78,4.78,0,0,0-1.55.23,1.24,1.24,0,0,1-1-.25c-.24-.17-.53.11-.8.16s-.68.72-1-.27c-.19.34-.42.1-.59.27-.32.31-.63-.14-.93.05s-.15-.43-.23-.6-.16-.7-.26.1-.42.7-.65,0c-.1-.27-.18-.29-.25,0-.13.47-.25.56-.42.16-.05-.12-.14-.22-.18-.07-.27,1-.64.11-.95.37-.07.07-.14-.09-.14-.28,0-.55-.11-.52-.22-.22-.21.57-.48.49-.71.4-.77-.31-1.54,0-2.3-.31-1-.36-2.07-.18-3.11-.44a5,5,0,0,0-1.77.14,1.29,1.29,0,0,1-1.28-.5c-.46-.53-1-.34-1.44-.38-.18,0-.34,0-.47-.37a2.76,2.76,0,0,1-.16-1.24c.06-.48.18-.94.39-.93.38,0,.7-.3,1.05-.66s.73,0,1.09,0,.63.1.95.14c.05,0,.1,0,.15,0a.62.62,0,0,0,.15-.47c0-.25-.11-.17-.17-.17a5.78,5.78,0,0,1-2.34-.66c-.45-.16-.9-.37-1.35-.57a.81.81,0,0,1-.24-.17,1.8,1.8,0,0,1-.35-1.45m47.45,5s0,0,.06,0,0-.13,0-.14-.05.07,0,.13m-.31-4.62v0m-2.09-1.54s0,0,0,0" fill="#2b2e34"/>
    </g>
    <g id="Group_808" data-name="Group 808">
      <path id="Path_984" data-name="Path 984" d="M472.76,86.92c0,.49-.33.94-.57.79s-.63-.14-.93-.49c-.06-.07-.21-.24-.15.14.14.86-.21.77-.28,1.2-.13.75-.29.17-.45.06s-.29-.28-.44,0-.21.16-.28,0c-.34-.75-.61,0-.88.33s-.36.3-.57.18a8.63,8.63,0,0,0-2.5-.56c-.58-.11-1.17,0-1.75-.17-.22-.05-.35-.5-.55-.47l-.17,0c-.32.33-.63.82-1,0-.33.47-.66-.62-1,0,0,.09-.13.12-.19.09a2.69,2.69,0,0,0-1.81-.11c-.11,0-.24,0-.31-.33-.53,0-1.05.53-1.57,0-.34-.32-.7-.2-1-.15a2.76,2.76,0,0,1-1-.08,1.11,1.11,0,0,0-.6,0c-.41.13-.87.42-1.22,0s-.63-.68-1-.1c0,0-.17.11-.22-.14s-.19-.34-.27-.24c-.51.53-1.07-.13-1.53.28-.62.55-1.19-.17-1.78,0a1.92,1.92,0,0,1-1.25.09,2.4,2.4,0,0,0-1.91.2c-.5.24-1,0-1.56,0a.39.39,0,0,1-.38-.29v0h0a.33.33,0,0,1,0-.06c-.11.1-.23.31-.33.28-.93-.3-1.85.55-2.78,0-.25-.15-.44.28-.68.29a6.11,6.11,0,0,0-3,.41c-.26.14-.56.08-.81-.33-.05-.07-.08-.22-.12-.09-.32.92-.73.46-1.09.51a19.93,19.93,0,0,0-4.13.7,17.78,17.78,0,0,1-2.25.6.87.87,0,0,1-.65-.23c-.38-.28-.39-.25-.21-1.26,0,0,0,0,0,0h0c-.67.27-1.31.18-1.91-.75a1.06,1.06,0,0,1-.16-.6c0-.09-.07-.18-.1-.27-.22-1-.2-1.17.2-1.47.08,0,.22,0,.19-.25s-.13,0-.2,0-.31-.3-.47-.44-.61-.19-.9-.53a.85.85,0,0,1-.28-.78c0-.56.1-1.07.36-1.11s.46-.32.67.13c0,.06.1,0,.14-.06h0c.23-.34.5,0,.74-.47a1,1,0,0,0,.2-.69c0-.84.18-1.21.52-1.23,1-.07,2-.14,2.95-.17a2.22,2.22,0,0,1,1.15.3c.22.13.45-.23.69-.27a33,33,0,0,1,3.72.06c1.14,0,2.27-.07,3.41-.09.66,0,1.34-.26,2-.23a23.6,23.6,0,0,1,3.76,0c.35.08.73-.23,1.1-.16a4.31,4.31,0,0,0,1.75.14,7.73,7.73,0,0,1,2.35-.12c.72.07,1.44-.11,2.16,0a4.83,4.83,0,0,0,1.55-.24,1.21,1.21,0,0,1,1,.26c.25.16.54-.11.81-.16s.67-.72,1,.26c.18-.33.41-.1.59-.27s.62.15.93,0,.14.43.23.6.15.71.26-.1.42-.7.65,0c.1.27.18.28.25,0,.12-.46.25-.55.42-.16,0,.13.14.22.18.07.27-1,.64-.1,1-.37.07-.06.13.09.14.29,0,.54.11.52.22.22.21-.58.47-.5.71-.4.76.3,1.54,0,2.3.31,1,.35,2.07.17,3.11.43a5,5,0,0,0,1.77-.14A1.3,1.3,0,0,1,470,80c.45.54,1,.35,1.44.38.18,0,.34,0,.47.38a2.71,2.71,0,0,1,.17,1.23c-.06.48-.18.94-.4.94s-.7.3-1.05.66-.72,0-1.08,0-.63-.1-.95-.14c-.05,0-.1,0-.15,0a.62.62,0,0,0-.15.47c0,.24.1.17.16.16a5.79,5.79,0,0,1,2.35.67c.45.16.9.37,1.35.56a.81.81,0,0,1,.24.17,1.84,1.84,0,0,1,.35,1.45m-47.45-5s0,0-.07,0,0,.13.05.14,0-.06,0-.12m.31,4.61v0s0,0,0,0m2.09,1.54s0,0,0,0" fill="#ad7a4c"/>
    </g>
  </g>
  <g id="Group_816" data-name="Group 816">
    <g id="Group_801" data-name="Group 801">
      <path id="Path_971" data-name="Path 971" d="M158.75,51.82h0s0,0,0,0" fill="#2b2e34"/>
    </g>
    <g id="Group_802" data-name="Group 802">
      <path id="Path_972" data-name="Path 972" d="M129.71,52.08c0-.49.33-.94.56-.79s.64.14.93.49c.07.07.22.24.15-.14-.13-.87.21-.77.29-1.2.12-.75.28-.17.44-.06s.3.28.44,0,.22-.16.29,0c.34.75.61,0,.88-.34s.35-.29.57-.18a8.26,8.26,0,0,0,2.5.57c.58.12,1.17,0,1.75.18.22,0,.35.49.55.46l.17,0c.32-.33.63-.83,1,0,.33-.48.66.62,1,0,.05-.09.13-.13.19-.09a2.74,2.74,0,0,0,1.81.11c.11,0,.24,0,.31.33.53.05,1.05-.53,1.57,0,.34.32.7.2,1,.14a2.6,2.6,0,0,1,1,.09,1.36,1.36,0,0,0,.6,0c.4-.13.87-.42,1.22,0s.62.68,1,.1c0,0,.16-.11.22.13s.18.35.27.25c.51-.53,1.06.13,1.53-.28.62-.55,1.19.17,1.79,0a1.89,1.89,0,0,1,1.24-.09,2.41,2.41,0,0,0,1.91-.21c.5-.25,1,0,1.56,0a.39.39,0,0,1,.38.29v0h0a.33.33,0,0,1,0,.06c.11-.1.22-.32.33-.28.92.3,1.85-.55,2.77,0,.25.14.44-.28.69-.29a6.37,6.37,0,0,0,3-.41c.26-.14.56-.09.81.33,0,.06.07.22.12.08.32-.92.73-.46,1.09-.51a19.29,19.29,0,0,0,4.13-.7,17.34,17.34,0,0,1,2.25-.6.84.84,0,0,1,.64.24c.39.28.39.24.22,1.26,0,0,0,0,0,0h0c.66-.27,1.31-.17,1.91.76a1.05,1.05,0,0,1,.15.6.88.88,0,0,1,.1.27c.23,1,.2,1.17-.2,1.47-.07.05-.21,0-.19.25s.14,0,.21,0,.31.29.46.44.61.19.9.52a.87.87,0,0,1,.28.79c0,.55-.1,1.07-.35,1.11s-.46.32-.68-.13c0-.06-.09,0-.14.06h0c-.22.34-.5,0-.74.47a1.11,1.11,0,0,0-.2.68c0,.85-.18,1.21-.52,1.24-1,.07-2,.14-3,.16a2.07,2.07,0,0,1-1.14-.3c-.22-.12-.45.24-.69.28a33,33,0,0,1-3.72-.06c-1.14,0-2.28.07-3.42.09-.66,0-1.33.26-2,.23a26.22,26.22,0,0,1-3.76,0c-.36-.08-.74.23-1.1.16a4.33,4.33,0,0,0-1.75-.14,7.79,7.79,0,0,1-2.36.12c-.72-.07-1.43.11-2.15,0a4.88,4.88,0,0,0-1.56.23,1.21,1.21,0,0,1-1-.25c-.25-.17-.54.11-.81.16s-.67.72-1-.26c-.18.33-.41.1-.59.27s-.62-.15-.93,0-.14-.43-.22-.6-.16-.71-.27.1-.42.7-.65,0c-.1-.27-.17-.28-.24,0-.13.46-.26.55-.42.16-.06-.13-.14-.22-.18-.07-.27,1-.65.1-1,.37-.08.06-.14-.09-.14-.29,0-.54-.12-.52-.22-.22-.21.58-.48.49-.72.4-.76-.3-1.53,0-2.3-.31-1-.35-2.07-.18-3.1-.43a5.08,5.08,0,0,0-1.78.14,1.3,1.3,0,0,1-1.28-.5c-.45-.54-.95-.35-1.44-.38-.17,0-.33,0-.46-.38a2.57,2.57,0,0,1-.16-1.23c.05-.48.18-.94.39-.94.38,0,.7-.3,1-.66s.72-.05,1.09,0,.63.1.94.14c.05,0,.1.05.15,0a.59.59,0,0,0,.16-.47c0-.24-.11-.17-.17-.17a5.87,5.87,0,0,1-2.35-.66c-.45-.16-.9-.37-1.34-.56a.61.61,0,0,1-.24-.18,1.78,1.78,0,0,1-.35-1.44m47.44,5s0,0,.07,0a.49.49,0,0,0,0-.14s-.06.06,0,.12m-.3-4.61v0m-2.09-1.55s0,0,0,0" fill="#2b2e34"/>
    </g>
    <g id="Group_807" data-name="Group 807">
      <path id="Path_982" data-name="Path 982" d="M268,14.39c0,.49-.33.94-.56.79s-.64-.14-.93-.49c-.07-.07-.22-.24-.16.14.14.87-.2.77-.28,1.2-.12.75-.28.17-.45.07s-.29-.29-.43,0-.22.16-.29,0c-.34-.75-.61.05-.88.34s-.35.29-.57.18A8.26,8.26,0,0,0,261,16c-.58-.11-1.16,0-1.75-.17-.21-.05-.35-.49-.55-.46l-.17,0c-.32.33-.63.83-.95.05-.34.48-.66-.62-1,0-.06.09-.14.13-.2.09a2.74,2.74,0,0,0-1.81-.11c-.11,0-.23,0-.31-.32-.52-.06-1,.52-1.57,0-.34-.32-.7-.2-1-.14a2.54,2.54,0,0,1-.95-.09,1.35,1.35,0,0,0-.6,0c-.41.13-.88.42-1.23,0s-.62-.68-1-.1c0,.05-.16.11-.22-.13s-.18-.34-.27-.25c-.51.53-1.06-.13-1.53.28s-1.18-.17-1.78,0a2,2,0,0,1-1.24.1,2.39,2.39,0,0,0-1.92.19c-.5.25-1,0-1.56,0a.4.4,0,0,1-.38-.29v0h0l0-.05c-.11.1-.22.31-.33.27-.92-.3-1.85.55-2.77,0-.25-.14-.44.28-.68.29a6.15,6.15,0,0,0-3,.41c-.26.14-.56.08-.81-.33,0-.06-.07-.22-.12-.08-.32.92-.73.46-1.09.51a19.29,19.29,0,0,0-4.13.7,17.78,17.78,0,0,1-2.25.6.88.88,0,0,1-.65-.24c-.38-.28-.38-.24-.21-1.25,0,0,0,0,0,0h0c-.66.27-1.31.17-1.91-.76a1,1,0,0,1-.15-.6.88.88,0,0,1-.1-.27c-.23-1-.2-1.17.2-1.47.07,0,.21,0,.19-.24s-.14,0-.21,0-.31-.29-.46-.44c-.3-.29-.61-.19-.9-.52a.84.84,0,0,1-.28-.79c0-.55.1-1.06.35-1.11s.46-.32.68.13c0,.06.09,0,.14-.06h0c.22-.34.5,0,.74-.47a1.11,1.11,0,0,0,.2-.68c0-.85.18-1.21.51-1.24,1-.07,2-.14,3-.16a2.07,2.07,0,0,1,1.14.3c.22.12.45-.24.69-.28a33,33,0,0,1,3.72.06c1.14,0,2.28-.07,3.41-.08.67,0,1.34-.27,2-.23a23.59,23.59,0,0,1,3.76,0c.36.07.74-.24,1.1-.17a4.14,4.14,0,0,0,1.75.14,7.79,7.79,0,0,1,2.36-.12c.72.07,1.43-.11,2.15,0a4.78,4.78,0,0,0,1.55-.23,1.24,1.24,0,0,1,1,.25c.25.17.53-.11.81-.16s.67-.72.95.26c.19-.33.42-.1.6-.26.31-.32.62.14.93,0,.16-.11.14.42.22.6s.16.7.26-.1.43-.7.66-.05c.1.27.17.29.24,0,.13-.46.26-.55.42-.16,0,.13.14.23.18.07.27-1,.64-.1.95-.37.07-.06.14.09.14.29,0,.54.11.52.22.22.21-.58.48-.49.71-.4.77.3,1.54,0,2.3.31,1,.35,2.08.18,3.11.43A5.08,5.08,0,0,0,264,7a1.28,1.28,0,0,1,1.27.5c.46.54,1,.35,1.45.38.17,0,.33,0,.46.38a2.71,2.71,0,0,1,.17,1.23c-.06.48-.18.94-.39.94-.38,0-.7.3-1.05.66s-.72,0-1.09,0-.63-.1-.95-.14c0,0-.1-.05-.14,0a.59.59,0,0,0-.16.47c0,.24.11.17.17.17a5.87,5.87,0,0,1,2.35.66c.45.16.9.37,1.34.56a.61.61,0,0,1,.24.18,1.78,1.78,0,0,1,.35,1.44m-47.44-5s-.05,0-.07,0a.39.39,0,0,0,0,.14s.06-.06,0-.12m.3,4.61v0s0,0,0,0M223,15.54h0" fill="#ad7a4c"/>
    </g>
    <g id="Group_809" data-name="Group 809">
      <path id="Path_985" data-name="Path 985" d="M151.28,8.64h0s0,0,0,0" fill="#6c6455"/>
    </g>
    <g id="Group_810" data-name="Group 810">
      <path id="Path_986" data-name="Path 986" d="M180.32,8.38c0,.49-.33.94-.57.79s-.63-.14-.93-.49c-.06-.07-.21-.24-.15.14.14.87-.21.77-.28,1.21-.13.75-.29.16-.45.06s-.29-.28-.44,0-.21.16-.28,0c-.34-.74-.61.06-.88.34s-.36.29-.57.18a8,8,0,0,0-2.5-.56c-.59-.12-1.17,0-1.76-.18-.21-.06-.34-.5-.54-.47l-.17,0c-.32.33-.63.83-1,.05-.33.48-.66-.62-1,0-.05.09-.13.13-.19.09a2.74,2.74,0,0,0-1.81-.11c-.11,0-.24,0-.31-.32-.53-.06-1.05.52-1.57,0-.34-.32-.7-.2-1.05-.14a2.56,2.56,0,0,1-.95-.09,1.36,1.36,0,0,0-.6,0c-.41.13-.87.42-1.22,0s-.63-.68-1-.1c0,.05-.17.11-.23-.13s-.18-.34-.26-.25c-.51.53-1.07-.13-1.53.28-.62.55-1.19-.17-1.78,0a2,2,0,0,1-1.25.1,2.36,2.36,0,0,0-1.91.19c-.5.25-1,0-1.56,0a.39.39,0,0,1-.38-.29v0h0l0-.05c-.11.1-.23.31-.33.27-.93-.3-1.85.55-2.78,0-.25-.14-.44.28-.68.29a6.12,6.12,0,0,0-3,.41c-.26.14-.56.08-.81-.33-.05-.06-.07-.22-.12-.08-.32.92-.73.46-1.1.51a19.2,19.2,0,0,0-4.12.7,17.78,17.78,0,0,1-2.25.6.88.88,0,0,1-.65-.24c-.38-.28-.39-.24-.21-1.25,0,0,0,0,0,0h0c-.67.27-1.31.17-1.91-.76a1,1,0,0,1-.16-.6,2.15,2.15,0,0,1-.1-.27c-.22-1-.2-1.17.2-1.47.08,0,.22,0,.19-.24s-.13,0-.2,0-.31-.29-.46-.44c-.3-.29-.62-.19-.91-.52a.87.87,0,0,1-.28-.79c0-.55.1-1.07.36-1.11s.46-.32.67.13c0,.06.1,0,.15-.06h0c.22-.34.5,0,.73-.47a1,1,0,0,0,.2-.68c0-.85.18-1.21.52-1.24,1-.07,2-.14,2.95-.16a2.11,2.11,0,0,1,1.15.3c.22.12.45-.24.69-.28a33,33,0,0,1,3.72.06C143.9.82,145,.8,146.17.79c.67,0,1.34-.27,2-.24a24.84,24.84,0,0,1,3.76,0c.35.07.73-.24,1.1-.17a4.14,4.14,0,0,0,1.75.14,7.73,7.73,0,0,1,2.35-.12c.72.07,1.44-.11,2.16,0a4.82,4.82,0,0,0,1.55-.23,1.2,1.2,0,0,1,1,.25c.25.17.54-.11.81-.16s.68-.72,1,.26c.19-.33.41-.1.59-.26.32-.32.62.14.93-.05s.14.42.23.6.16.7.26-.1.42-.7.65,0c.1.27.18.29.25,0,.13-.46.25-.55.42-.16.05.13.14.23.18.07.27-1,.64-.1.95-.37.07-.06.13.09.14.29,0,.54.11.52.22.22.21-.58.47-.49.71-.4.77.3,1.54.05,2.3.31,1,.35,2.07.18,3.11.43A5,5,0,0,0,176.29,1a1.32,1.32,0,0,1,1.28.5c.45.54,1,.35,1.44.38.18,0,.34,0,.47.38a2.71,2.71,0,0,1,.17,1.23c-.06.48-.18.94-.4.94-.37,0-.7.3-1.05.66s-.72,0-1.08,0-.63-.1-1-.14c0,0-.1,0-.15,0a.62.62,0,0,0-.15.47c0,.24.1.17.16.17a5.78,5.78,0,0,1,2.35.66c.45.16.9.37,1.35.56a.69.69,0,0,1,.24.18,1.78,1.78,0,0,1,.35,1.44m-47.45-5s0,0-.07,0,0,.14,0,.15.05-.07,0-.13M133.18,8V8s0,0,0,0m2.09,1.55s0,0,0,0" fill="#6c6455"/>
    </g>
    <g id="Group_811" data-name="Group 811">
      <path id="Path_987" data-name="Path 987" d="M175.63,35.77h0s0,0,0,0" fill="#555042"/>
    </g>
    <g id="Group_812" data-name="Group 812">
      <path id="Path_988" data-name="Path 988" d="M204.67,35.52c0,.48-.33.93-.57.78s-.63-.14-.93-.48c-.06-.08-.21-.25-.15.13.14.87-.21.77-.28,1.21-.12.75-.28.17-.45.06s-.29-.28-.43,0-.22.16-.29,0c-.34-.75-.61.05-.88.33s-.36.29-.57.18a8,8,0,0,0-2.5-.56c-.58-.11-1.17,0-1.75-.18-.22-.05-.35-.49-.55-.46l-.17,0c-.32.33-.63.83-1,0-.33.48-.66-.61-1,0-.05.09-.13.13-.19.09a2.74,2.74,0,0,0-1.81-.11c-.11,0-.23,0-.31-.32-.52-.06-1,.52-1.57,0-.34-.32-.7-.2-1-.14a2.54,2.54,0,0,1-1-.09,1.22,1.22,0,0,0-.6,0c-.41.12-.88.41-1.23,0s-.62-.68-1-.1c0,0-.16.1-.22-.14s-.18-.34-.27-.25c-.51.53-1.06-.13-1.53.29-.62.54-1.19-.17-1.78,0a2.05,2.05,0,0,1-1.25.09,2.37,2.37,0,0,0-1.91.19c-.5.25-1,0-1.56,0a.4.4,0,0,1-.38-.29v0h0l0,0c-.11.1-.22.31-.33.27-.92-.3-1.85.55-2.77,0-.25-.14-.44.29-.69.29a6.12,6.12,0,0,0-3,.41c-.26.14-.56.08-.81-.33,0-.06-.07-.21-.12-.08-.32.92-.73.46-1.09.51a19.93,19.93,0,0,0-4.13.7,17.78,17.78,0,0,1-2.25.6.88.88,0,0,1-.65-.24c-.38-.27-.38-.24-.21-1.25,0,0,0,0,0,0h0c-.67.27-1.31.17-1.91-.76a1,1,0,0,1-.16-.59,2.31,2.31,0,0,1-.1-.28c-.22-1-.2-1.17.2-1.46.08-.06.22,0,.2-.25s-.14,0-.21,0-.31-.29-.46-.44-.62-.19-.9-.52a.84.84,0,0,1-.28-.79c0-.55.1-1.06.35-1.11s.46-.32.67.13c0,.06.1,0,.15-.06h0c.22-.34.5,0,.73-.47a1,1,0,0,0,.2-.68c0-.85.19-1.21.52-1.24,1-.07,2-.14,3-.16a2.11,2.11,0,0,1,1.15.3c.22.12.45-.24.69-.28a30.8,30.8,0,0,1,3.72.07c1.14-.06,2.28-.08,3.41-.09.67,0,1.34-.27,2-.23a23.6,23.6,0,0,1,3.76,0c.35.07.73-.23,1.1-.16a4.31,4.31,0,0,0,1.75.13,7.73,7.73,0,0,1,2.35-.12c.72.07,1.44-.1,2.16,0a4.78,4.78,0,0,0,1.55-.23,1.24,1.24,0,0,1,1,.25c.24.17.53-.11.8-.16s.68-.72,1,.27c.19-.34.42-.1.59-.27s.63.14.93,0,.15.43.23.6.16.7.26-.1.42-.7.65-.05c.1.27.18.29.25,0,.13-.46.25-.55.42-.16.05.13.14.23.18.08.27-1,.64-.11.95-.38.07-.06.14.09.14.29,0,.55.11.52.22.22.21-.58.48-.49.71-.4.77.31,1.54.05,2.3.31a29.8,29.8,0,0,0,3.11.43,4.82,4.82,0,0,0,1.77-.14,1.31,1.31,0,0,1,1.28.5c.46.54,1,.35,1.44.39.18,0,.34,0,.47.37a2.73,2.73,0,0,1,.17,1.23c-.06.48-.18.95-.39.94-.38,0-.7.3-1.05.66s-.72,0-1.09,0-.63-.1-.95-.14c-.05,0-.1-.05-.14,0a.59.59,0,0,0-.16.47c0,.24.11.17.17.17a5.87,5.87,0,0,1,2.35.66c.45.16.9.37,1.34.57a.51.51,0,0,1,.24.17,1.8,1.8,0,0,1,.35,1.45m-47.44-5s0,0-.07,0,0,.14,0,.15.05-.07,0-.13m.3,4.62v0m2.09,1.54h0" fill="#555042"/>
    </g>
    <g id="Group_813" data-name="Group 813">
      <path id="Path_990" data-name="Path 990" d="M261.75,35.52c0,.48-.33.93-.57.78s-.63-.14-.93-.48c-.06-.08-.21-.25-.15.13.14.87-.21.77-.28,1.21-.13.75-.29.17-.45.06s-.29-.28-.43,0-.22.16-.29,0c-.34-.75-.61.05-.88.33s-.36.29-.57.18a8,8,0,0,0-2.5-.56c-.59-.12-1.17,0-1.76-.18-.21-.06-.34-.5-.54-.47l-.17,0c-.32.33-.63.83-1,0-.33.48-.66-.61-1,0-.05.09-.13.13-.19.09a2.74,2.74,0,0,0-1.81-.11c-.11,0-.24,0-.31-.32-.53-.06-1.05.52-1.57,0-.34-.32-.7-.2-1-.14a2.6,2.6,0,0,1-1-.09,1.23,1.23,0,0,0-.6,0c-.4.12-.87.41-1.22,0s-.62-.68-1-.1c0,0-.16.1-.22-.14s-.18-.34-.27-.25c-.51.53-1.06-.13-1.53.29-.62.54-1.19-.17-1.78,0a2.06,2.06,0,0,1-1.25.09,2.36,2.36,0,0,0-1.91.19c-.5.25-1,0-1.56,0a.39.39,0,0,1-.38-.29v0h0l0,0c-.11.1-.23.31-.33.27-.93-.3-1.85.55-2.78,0-.24-.14-.44.29-.68.29a6.12,6.12,0,0,0-3,.41c-.26.14-.56.08-.81-.33-.05-.06-.07-.21-.12-.08-.32.92-.73.46-1.1.51a20,20,0,0,0-4.12.7,17.78,17.78,0,0,1-2.25.6.86.86,0,0,1-.65-.24c-.38-.27-.39-.24-.21-1.25,0,0,0,0,0,0h0c-.67.27-1.31.17-1.91-.76a1,1,0,0,1-.16-.59,2.31,2.31,0,0,1-.1-.28c-.22-1-.2-1.17.2-1.46.08-.06.22,0,.19-.25s-.13,0-.2,0-.31-.29-.46-.44c-.3-.29-.62-.19-.9-.52a.85.85,0,0,1-.29-.79c0-.55.1-1.06.36-1.11s.46-.32.67.13c0,.06.1,0,.15-.06h0c.22-.34.5,0,.73-.47a1,1,0,0,0,.2-.68c0-.85.18-1.21.52-1.24,1-.07,2-.14,2.95-.16a2.11,2.11,0,0,1,1.15.3c.22.12.45-.24.69-.28a30.8,30.8,0,0,1,3.72.07c1.14-.06,2.27-.08,3.41-.09.67,0,1.34-.27,2-.23a23.6,23.6,0,0,1,3.76,0c.35.07.73-.23,1.1-.16a4.31,4.31,0,0,0,1.75.13,7.73,7.73,0,0,1,2.35-.12c.72.07,1.44-.1,2.16,0a4.82,4.82,0,0,0,1.55-.23,1.2,1.2,0,0,1,1,.25c.25.17.54-.11.81-.16s.68-.72,1,.27c.19-.34.41-.1.59-.27s.62.14.93,0,.14.43.23.6.16.7.26-.1.42-.7.65-.05c.1.27.18.29.25,0,.13-.46.25-.55.42-.16,0,.13.14.23.18.08.27-1,.64-.11.95-.38.07-.06.13.09.14.29,0,.55.11.52.22.22.21-.58.47-.49.71-.4.76.31,1.54.05,2.3.31a29.8,29.8,0,0,0,3.11.43,4.82,4.82,0,0,0,1.77-.14,1.32,1.32,0,0,1,1.28.5c.45.54,1,.35,1.44.39.18,0,.34,0,.47.37a2.73,2.73,0,0,1,.17,1.23c-.06.48-.18.95-.39.94-.38,0-.7.3-1.05.66s-.73,0-1.09,0-.63-.1-.95-.14c-.05,0-.1-.05-.15,0a.62.62,0,0,0-.15.47c0,.24.11.17.17.17a5.78,5.78,0,0,1,2.34.66c.45.16.9.37,1.35.57a.56.56,0,0,1,.24.17,1.8,1.8,0,0,1,.35,1.45m-47.45-5s0,0-.06,0,0,.14,0,.15.05-.07,0-.13m.31,4.62v0a0,0,0,0,0,0,0m2.09,1.54h0" fill="#ad7a4c"/>
    </g>
    <g id="Group_814" data-name="Group 814">
      <path id="Path_992" data-name="Path 992" d="M145.69,35.52c0,.48-.32.93-.56.78s-.64-.14-.93-.48c-.07-.08-.21-.25-.15.13.14.87-.21.77-.28,1.21-.13.75-.29.17-.45.06s-.29-.28-.44,0-.21.16-.29,0c-.34-.75-.6.05-.88.33s-.35.29-.57.18a8,8,0,0,0-2.5-.56c-.58-.11-1.16,0-1.75-.18-.21-.05-.35-.49-.55-.46l-.17,0c-.31.33-.63.83-.95,0-.34.48-.66-.61-1,0-.05.09-.13.13-.2.09a2.74,2.74,0,0,0-1.81-.11c-.11,0-.23,0-.31-.32-.52-.06-1,.52-1.56,0-.35-.32-.7-.2-1.05-.14a2.54,2.54,0,0,1-.95-.09,1.22,1.22,0,0,0-.6,0c-.41.12-.88.41-1.23,0s-.62-.68-1-.1c0,0-.16.1-.22-.14s-.18-.34-.27-.25c-.5.53-1.06-.13-1.53.29s-1.18-.17-1.78,0a2,2,0,0,1-1.24.09,2.39,2.39,0,0,0-1.92.19c-.5.25-1,0-1.56,0a.41.41,0,0,1-.38-.29v0h0l0,0c-.1.1-.22.31-.32.27-.93-.3-1.86.55-2.78,0-.25-.14-.44.29-.68.29a6.15,6.15,0,0,0-3,.41c-.26.14-.56.08-.81-.33,0-.06-.07-.21-.12-.08-.31.92-.72.46-1.09.51a19.73,19.73,0,0,0-4.12.7,17.49,17.49,0,0,1-2.26.6.84.84,0,0,1-.64-.24c-.39-.27-.39-.24-.21-1.25v0h0c-.66.27-1.3.17-1.9-.76a.94.94,0,0,1-.16-.59,1.33,1.33,0,0,1-.1-.28c-.22-1-.2-1.17.2-1.46.07-.06.21,0,.19-.25s-.14,0-.21,0-.31-.29-.46-.44-.61-.19-.9-.52A.87.87,0,0,1,97,31.5c0-.55.1-1.06.36-1.11s.45-.32.67.13c0,.06.09,0,.14-.06h0c.23-.34.5,0,.74-.47a1.09,1.09,0,0,0,.2-.68c0-.85.18-1.21.52-1.24,1-.07,2-.14,3-.16a2.07,2.07,0,0,1,1.14.3c.22.12.46-.24.69-.28a31,31,0,0,1,3.73.07c1.13-.06,2.27-.08,3.41-.09.66,0,1.33-.27,2-.23a23.48,23.48,0,0,1,3.75,0c.36.07.74-.23,1.1-.16a4.32,4.32,0,0,0,1.75.13,7.79,7.79,0,0,1,2.36-.12c.72.07,1.43-.1,2.15,0a4.88,4.88,0,0,0,1.56-.23,1.21,1.21,0,0,1,1,.25c.25.17.54-.11.81-.16s.67-.72,1,.27c.18-.34.41-.1.59-.27s.62.14.93,0,.14.43.22.6.16.7.27-.1.42-.7.65-.05c.1.27.17.29.24,0,.13-.46.26-.55.42-.16.06.13.14.23.18.08.27-1,.65-.11.95-.38.08-.06.14.09.14.29,0,.55.12.52.22.22.21-.58.48-.49.72-.4.76.31,1.53.05,2.3.31a30,30,0,0,0,3.1.43,4.85,4.85,0,0,0,1.78-.14,1.32,1.32,0,0,1,1.28.5c.45.54,1,.35,1.44.39.17,0,.33,0,.46.37a2.6,2.6,0,0,1,.17,1.23c-.05.48-.18.95-.39.94-.37,0-.7.3-1,.66s-.72,0-1.08,0-.64-.1-.95-.14c-.05,0-.1-.05-.15,0a.58.58,0,0,0-.15.47c0,.24.1.17.16.17a5.87,5.87,0,0,1,2.35.66c.45.16.9.37,1.34.57a.53.53,0,0,1,.25.17,1.79,1.79,0,0,1,.34,1.45m-47.44-5s0,0-.07,0,0,.14,0,.15,0-.07,0-.13m.31,4.62v0a0,0,0,0,0,0,0m2.08,1.54s0,0,0,0" fill="#ad7a4c"/>
    </g>
  </g>
</svg>
