<svg id="Layer_1" data-name="Layer 1" xmlns="http://www.w3.org/2000/svg" viewBox="0 0 280.68 92.9">
  <g id="Group_158" data-name="Group 158">
    <g id="Group_92-2" data-name="Group 92-2">
      <g id="Group_76-2" data-name="Group 76-2">
        <g id="Group_74-2" data-name="Group 74-2">
          <path id="Path_122-2" data-name="Path 122-2" d="M88.67,9.14Z" fill="#1a1818"/>
        </g>
        <g id="Group_75-2" data-name="Group 75-2">
          <path id="Path_123-2" data-name="Path 123-2" d="M106.8,9c0,.3-.2.59-.35.49s-.39-.09-.58-.3c0-.05-.13-.15-.09.09.08.54-.13.48-.18.75-.08.47-.18.1-.28,0s-.18-.18-.27,0-.14.1-.18,0c-.21-.47-.38,0-.55.21s-.22.18-.36.11A4.91,4.91,0,0,0,102.4,10c-.36-.08-.73,0-1.1-.12-.13,0-.21-.3-.34-.29l-.11,0c-.2.21-.39.52-.6,0-.21.3-.41-.38-.62,0,0,.05-.08.08-.12.06a1.63,1.63,0,0,0-1.13-.07c-.07,0-.15,0-.2-.2-.32,0-.65.33-1,0s-.43-.12-.65-.08A1.67,1.67,0,0,1,96,9.25a.77.77,0,0,0-.37,0c-.26.08-.55.26-.77,0s-.39-.42-.6-.06c0,0-.1.07-.14-.09S94,8.92,93.91,9c-.31.33-.66-.08-1,.18s-.74-.11-1.11,0a1.23,1.23,0,0,1-.78.05,1.53,1.53,0,0,0-1.2.12c-.31.16-.64,0-1,0a.26.26,0,0,1-.24-.19h0l0,0c-.06.07-.14.2-.2.18-.57-.19-1.15.34-1.73,0-.16-.09-.28.17-.43.18a3.9,3.9,0,0,0-1.85.25c-.16.09-.35.06-.5-.2,0,0-.05-.14-.08,0-.2.57-.45.29-.68.32a12,12,0,0,0-2.58.44,11.55,11.55,0,0,1-1.4.37.5.5,0,0,1-.4-.15c-.24-.17-.24-.15-.13-.78h0c-.41.17-.81.11-1.19-.47a.64.64,0,0,1-.1-.38.49.49,0,0,1-.06-.17c-.14-.63-.13-.73.13-.92,0,0,.13,0,.12-.15s-.09,0-.13,0-.2-.18-.29-.27-.38-.12-.56-.33a.53.53,0,0,1-.18-.49c0-.34.06-.66.22-.69s.29-.2.42.08c0,0,.06,0,.09,0h0c.14-.21.31,0,.46-.3a.65.65,0,0,0,.13-.43c0-.52.11-.75.32-.77.62,0,1.23-.08,1.85-.1a1.38,1.38,0,0,1,.71.19c.14.08.28-.14.43-.17a20.13,20.13,0,0,1,2.33,0c.71,0,1.41,0,2.12,0,.42,0,.84-.17,1.26-.15a15.23,15.23,0,0,1,2.34,0c.22,0,.46-.14.69-.1a2.85,2.85,0,0,0,1.09.09A4.54,4.54,0,0,1,92.33,4c.45,0,.9-.07,1.35,0a3.21,3.21,0,0,0,1-.14.73.73,0,0,1,.6.15c.16.11.34-.06.5-.1s.42-.45.6.17c.12-.21.26-.06.37-.17s.39.09.58,0,.09.26.14.37.1.44.17-.06.26-.44.4,0c.07.17.12.18.16,0s.16-.35.26-.1c0,.08.09.14.11,0,.17-.65.4-.07.6-.24,0,0,.08.06.08.18,0,.34.07.33.14.14.13-.36.3-.31.45-.25.47.19,1,0,1.43.2.64.22,1.29.11,1.94.27a3.46,3.46,0,0,0,1.11-.09.83.83,0,0,1,.8.31c.28.34.6.22.9.24.11,0,.21,0,.29.24a1.63,1.63,0,0,1,.1.76c0,.3-.11.59-.25.59s-.43.18-.65.41-.45,0-.68,0-.4-.06-.59-.09c0,0-.06,0-.09,0a.37.37,0,0,0-.1.3c0,.15.06.1.1.1a3.55,3.55,0,0,1,1.46.41c.29.1.56.23.84.35a.42.42,0,0,1,.15.11A1.08,1.08,0,0,1,106.8,9ZM77.18,5.85s0,0,0,0,0,.08,0,.09,0,0,0-.08Zm.19,2.88v0Zm1.3,1S78.67,9.7,78.67,9.69Z" fill="#1a1818"/>
        </g>
      </g>
      <g id="Group_79-2" data-name="Group 79-2">
        <g id="Group_77-2" data-name="Group 77-2">
          <path id="Path_124-2" data-name="Path 124-2" d="M109.11,57.55Z" fill="#1a1818"/>
        </g>
        <g id="Group_78-2" data-name="Group 78-2">
          <path id="Path_125-2" data-name="Path 125-2" d="M127.24,57.39c0,.3-.2.58-.36.49s-.4-.09-.58-.3c0,0-.13-.15-.09.09.09.53-.13.48-.18.75-.08.47-.18.1-.28,0s-.18-.18-.27,0-.13.11-.18,0c-.21-.46-.38,0-.55.21s-.22.19-.35.12a5.28,5.28,0,0,0-1.56-.36c-.37-.07-.73,0-1.1-.11-.14,0-.22-.31-.34-.29l-.11,0c-.2.21-.39.52-.6,0-.21.3-.41-.38-.62,0,0,0-.09.07-.13,0a1.75,1.75,0,0,0-1.13-.07c-.07,0-.14,0-.2-.2-.32,0-.65.33-1,0s-.44-.13-.66-.09a1.67,1.67,0,0,1-.59-.05.77.77,0,0,0-.37,0c-.26.08-.55.26-.77,0s-.39-.43-.6-.07c0,0-.1.07-.14-.08s-.11-.22-.17-.16c-.31.34-.66-.07-1,.18s-.74-.1-1.11,0a1.17,1.17,0,0,1-.78.06,1.53,1.53,0,0,0-1.2.12c-.31.16-.64,0-1,0a.24.24,0,0,1-.24-.18h0s0,0,0,0-.14.2-.21.18c-.58-.19-1.16.34-1.73,0-.16-.1-.28.17-.43.18a3.9,3.9,0,0,0-1.85.25c-.16.09-.35.05-.51-.21,0,0,0-.13-.07,0-.2.57-.45.29-.68.32a11.8,11.8,0,0,0-2.58.44,13.3,13.3,0,0,1-1.41.38.6.6,0,0,1-.4-.15c-.24-.18-.24-.16-.13-.79h0c-.42.17-.82.11-1.19-.47a.58.58,0,0,1-.1-.38,1.22,1.22,0,0,1-.07-.17c-.13-.63-.12-.73.13-.92,0,0,.14,0,.12-.15s-.09,0-.13,0-.19-.18-.29-.27-.38-.12-.56-.33a.54.54,0,0,1-.18-.49c0-.34.06-.66.23-.69s.28-.2.42.08c0,0,0,0,.09,0h0c.14-.21.31,0,.46-.29a.67.67,0,0,0,.12-.43c0-.53.12-.76.33-.77.61,0,1.23-.09,1.84-.1a1.32,1.32,0,0,1,.72.19c.13.08.28-.15.43-.17a20,20,0,0,1,2.32,0c.71,0,1.42,0,2.13-.05.41,0,.84-.16,1.25-.15a16.76,16.76,0,0,1,2.35,0c.22,0,.45-.14.68-.1a2.56,2.56,0,0,0,1.1.09,4.52,4.52,0,0,1,1.47-.07c.45,0,.9-.07,1.34,0a3.17,3.17,0,0,0,1-.15.74.74,0,0,1,.61.16c.15.1.33-.07.5-.1s.42-.45.6.16c.12-.21.26-.06.37-.17s.39.09.58,0,.09.27.14.37.1.44.17-.06.26-.43.41,0q.08.26.15,0c.08-.29.16-.35.26-.1,0,.07.09.14.11,0,.17-.65.4-.07.6-.23,0,0,.08.06.08.18,0,.34.07.32.14.14.13-.36.3-.31.45-.25.47.19,1,0,1.43.19.64.22,1.29.11,1.94.27a3,3,0,0,0,1.11-.09.83.83,0,0,1,.8.32c.28.34.6.22.9.24.11,0,.21,0,.29.23a1.69,1.69,0,0,1,.1.77c0,.3-.11.59-.25.58s-.43.19-.65.42-.45,0-.68,0-.39-.06-.59-.09c0,0-.07,0-.09,0a.37.37,0,0,0-.1.3c0,.15.06.1.1.1A3.55,3.55,0,0,1,126,56c.28.1.56.23.84.35a.42.42,0,0,1,.15.11A1.12,1.12,0,0,1,127.24,57.39ZM97.61,54.26s0,0,0,0a.16.16,0,0,0,0,.09S97.63,54.29,97.61,54.26Zm.19,2.88v0Zm1.3,1Z" fill="#1a1818"/>
        </g>
      </g>
      <g id="Group_82-2" data-name="Group 82-2">
        <g id="Group_80-2" data-name="Group 80-2">
          <path id="Path_126-2" data-name="Path 126-2" d="M33.9,5.38Z" fill="#1a1818"/>
        </g>
        <g id="Group_81-2" data-name="Group 81-2">
          <path id="Path_127-2" data-name="Path 127-2" d="M52,5.23c0,.3-.2.58-.36.49s-.39-.09-.58-.3c0,0-.13-.15-.09.09.09.53-.13.48-.18.75-.08.46-.18.1-.28,0s-.18-.18-.27,0-.13.1-.18,0c-.21-.46-.38,0-.55.21s-.22.19-.35.12a5.28,5.28,0,0,0-1.56-.36c-.37-.07-.73,0-1.1-.11-.14,0-.22-.31-.35-.29l-.1,0c-.2.21-.4.52-.6,0-.21.3-.42-.38-.63,0a.09.09,0,0,1-.12,0,1.69,1.69,0,0,0-1.13-.06c-.07,0-.15,0-.19-.21-.33,0-.66.33-1,0s-.44-.13-.66-.09a1.67,1.67,0,0,1-.59,0,.67.67,0,0,0-.37,0c-.26.08-.55.26-.77,0s-.39-.42-.6-.06c0,0-.1.07-.14-.08s-.11-.22-.16-.16c-.32.33-.67-.08-1,.18s-.74-.11-1.11,0a1.3,1.3,0,0,1-.78.06,1.46,1.46,0,0,0-1.19.12c-.32.15-.65,0-1,0a.25.25,0,0,1-.24-.18h0s0,0,0,0-.14.2-.2.18c-.58-.19-1.16.34-1.74,0-.15-.09-.27.17-.43.18A3.91,3.91,0,0,0,29.66,6c-.16.09-.34,0-.5-.2,0,0-.05-.14-.08-.06-.2.58-.45.29-.68.32a12.45,12.45,0,0,0-2.57.44,11.27,11.27,0,0,1-1.41.38.59.59,0,0,1-.4-.15c-.24-.18-.24-.15-.13-.79h0c-.42.17-.82.11-1.19-.47A.62.62,0,0,1,22.6,5a.87.87,0,0,1-.07-.17c-.13-.63-.12-.73.13-.91.05,0,.14,0,.12-.16s-.08,0-.13,0-.19-.19-.29-.28-.38-.12-.56-.32a.54.54,0,0,1-.17-.49c0-.35.06-.67.22-.7s.28-.2.42.09c0,0,.06,0,.09,0h0c.14-.21.31,0,.46-.29A.66.66,0,0,0,23,1.36c0-.53.11-.75.32-.77.61,0,1.23-.09,1.84-.1a1.41,1.41,0,0,1,.72.19c.14.08.28-.15.43-.17a20,20,0,0,1,2.32,0C29.29.51,30,.5,30.71.49c.42,0,.84-.16,1.25-.14a14.19,14.19,0,0,1,2.35,0c.22,0,.46-.15.69-.1a2.85,2.85,0,0,0,1.09.09A4.54,4.54,0,0,1,37.56.28c.45,0,.9-.07,1.34,0a3.17,3.17,0,0,0,1-.15.78.78,0,0,1,.61.16c.16.1.34-.06.5-.1s.42-.45.6.16c.12-.21.26-.06.37-.16s.39.09.58,0,.09.26.14.37.1.44.17-.06.26-.44.4,0c.06.17.11.18.16,0s.15-.35.26-.1c0,.08.09.14.11,0,.17-.64.4-.06.59-.23s.09.06.09.18c0,.34.07.33.14.14.13-.36.3-.31.44-.25.48.19,1,0,1.44.19a15.88,15.88,0,0,0,1.94.27A3.21,3.21,0,0,0,49.52.6a.81.81,0,0,1,.8.31c.28.34.6.22.9.24.1,0,.2,0,.29.24a1.77,1.77,0,0,1,.1.76c0,.3-.12.59-.25.58s-.43.19-.65.42-.45,0-.68,0a5.58,5.58,0,0,1-.59-.09s-.07,0-.1,0a.4.4,0,0,0-.1.29c0,.16.07.11.1.1a3.72,3.72,0,0,1,1.47.42c.28.1.56.23.84.35a.33.33,0,0,1,.15.11A1.12,1.12,0,0,1,52,5.23ZM22.41,2.1s0,0,0,0a.46.46,0,0,0,0,.09s0,0,0-.08ZM22.6,5V5Zm1.3,1Z" fill="#1a1818"/>
        </g>
      </g>
      <g id="Group_85-2" data-name="Group 85-2">
        <g id="Group_83-2" data-name="Group 83-2">
          <path id="Path_128-2" data-name="Path 128-2" d="M49.11,22.33Z" fill="#1a1818"/>
        </g>
        <g id="Group_84-2" data-name="Group 84-2">
          <path id="Path_129-2" data-name="Path 129-2" d="M67.24,22.17c0,.3-.2.58-.36.49s-.39-.09-.58-.3c0-.05-.13-.15-.09.08.09.54-.13.48-.18.76-.07.46-.17.1-.28,0s-.18-.18-.27,0-.13.1-.18,0c-.21-.46-.38,0-.55.21s-.22.19-.35.12a5.28,5.28,0,0,0-1.56-.36c-.37-.07-.73,0-1.1-.11-.13,0-.21-.31-.34-.29l-.11,0c-.2.21-.39.52-.6,0-.21.3-.41-.39-.62,0,0,.05-.09.07-.12.05a1.69,1.69,0,0,0-1.13-.07c-.07,0-.15,0-.2-.2-.33,0-.65.33-1,0s-.43-.13-.65-.09a1.67,1.67,0,0,1-.59,0,.81.81,0,0,0-.38,0c-.25.08-.54.26-.76,0s-.39-.43-.6-.07c0,0-.1.07-.14-.08s-.11-.21-.17-.16c-.31.34-.66-.08-1,.18s-.74-.1-1.12,0a1.13,1.13,0,0,1-.77.06,1.48,1.48,0,0,0-1.2.12c-.31.15-.64,0-1,0a.24.24,0,0,1-.24-.18h0s0,0,0,0-.14.2-.2.17c-.58-.18-1.15.35-1.73,0-.16-.09-.28.18-.43.19a3.9,3.9,0,0,0-1.85.25c-.16.09-.35.05-.5-.2,0,0,0-.14-.08-.06-.2.58-.45.29-.68.32A13.39,13.39,0,0,0,41,23.4a11.6,11.6,0,0,1-1.4.38.54.54,0,0,1-.4-.15c-.24-.17-.24-.15-.13-.78h0c-.41.17-.81.11-1.19-.47a.66.66,0,0,1-.1-.38.7.7,0,0,1-.06-.17c-.14-.63-.13-.73.13-.92,0,0,.13,0,.12-.15s-.09,0-.13,0-.2-.18-.29-.27-.38-.12-.56-.33a.54.54,0,0,1-.18-.49c0-.35.06-.67.22-.69s.29-.2.42.08c0,0,.06,0,.09,0h0c.14-.22.31,0,.46-.3a.68.68,0,0,0,.13-.43c0-.53.11-.75.32-.77.62,0,1.23-.09,1.85-.1a1.29,1.29,0,0,1,.71.19c.14.08.28-.15.43-.17a17.94,17.94,0,0,1,2.32,0c.71,0,1.42,0,2.13-.06.42,0,.84-.16,1.25-.14a14.18,14.18,0,0,1,2.35,0c.22,0,.46-.15.69-.1a2.66,2.66,0,0,0,1.09.08,4.83,4.83,0,0,1,1.47-.08c.45.05.9-.06,1.35,0a3.27,3.27,0,0,0,1-.15.73.73,0,0,1,.6.16c.16.1.34-.07.5-.1s.42-.45.6.16c.12-.21.26-.06.37-.17s.39.09.58,0,.09.27.14.37.1.45.17-.06.26-.43.4,0c.06.17.11.18.16,0s.16-.35.26-.1c0,.07.09.14.11,0,.17-.64.4-.06.6-.23,0,0,.08.06.08.18,0,.34.07.32.14.14.13-.36.3-.31.44-.25.48.19,1,0,1.44.19.64.22,1.29.11,1.94.27a3,3,0,0,0,1.11-.09.83.83,0,0,1,.8.32c.28.34.6.22.9.24.11,0,.21,0,.29.23a1.84,1.84,0,0,1,.1.77c0,.3-.11.59-.25.58s-.43.19-.65.41-.45,0-.68,0-.4-.06-.59-.09c0,0-.07,0-.09,0a.35.35,0,0,0-.1.29c0,.15.06.11.1.1a3.56,3.56,0,0,1,1.46.42c.28.1.56.23.84.35a.33.33,0,0,1,.15.11A1.12,1.12,0,0,1,67.24,22.17ZM37.61,19s0,0,0,0,0,.08,0,.08,0,0,0-.07Zm.19,2.88v0Zm1.3,1Z" fill="#1a1818"/>
        </g>
      </g>
      <g id="Group_88-2" data-name="Group 88-2">
        <g id="Group_86-2" data-name="Group 86-2">
          <path id="Path_130-2" data-name="Path 130-2" d="M84.75,22.33Z" fill="#1a1818"/>
        </g>
        <g id="Group_87-2" data-name="Group 87-2">
          <path id="Path_131-2" data-name="Path 131-2" d="M102.88,22.17c0,.3-.2.58-.35.49s-.4-.09-.58-.3c0-.05-.14-.15-.1.08.09.54-.13.48-.17.76-.08.46-.18.1-.28,0s-.19-.18-.28,0-.13.1-.18,0c-.21-.46-.38,0-.54.21s-.23.19-.36.12a5.28,5.28,0,0,0-1.56-.36c-.36-.07-.73,0-1.09-.11-.14,0-.22-.31-.35-.29l-.11,0c-.2.21-.39.52-.6,0-.2.3-.41-.39-.62,0a.09.09,0,0,1-.12.05,1.69,1.69,0,0,0-1.13-.07c-.07,0-.15,0-.2-.2-.33,0-.65.33-1,0s-.43-.13-.65-.09a1.67,1.67,0,0,1-.59,0,.81.81,0,0,0-.38,0c-.25.08-.54.26-.76,0s-.39-.43-.6-.07c0,0-.1.07-.14-.08s-.11-.21-.17-.16c-.31.34-.66-.08-.95.18s-.74-.1-1.12,0a1.13,1.13,0,0,1-.77.06,1.48,1.48,0,0,0-1.2.12c-.31.15-.64,0-1,0a.24.24,0,0,1-.24-.18h0s0,0,0,0-.14.2-.2.17c-.58-.18-1.15.35-1.73,0-.16-.09-.28.18-.43.19a3.9,3.9,0,0,0-1.85.25c-.16.09-.35.05-.5-.2,0,0-.05-.14-.08-.06-.2.58-.45.29-.68.32a13.39,13.39,0,0,0-2.58.44,11.6,11.6,0,0,1-1.4.38.54.54,0,0,1-.4-.15c-.24-.17-.24-.15-.13-.78h0c-.42.17-.82.11-1.19-.47a.59.59,0,0,1-.1-.38c0-.06,0-.12-.07-.17-.13-.63-.12-.73.13-.92,0,0,.14,0,.12-.15s-.09,0-.13,0-.19-.18-.29-.27-.38-.12-.56-.33a.54.54,0,0,1-.18-.49c0-.35.06-.67.23-.69s.28-.2.42.08c0,0,.06,0,.09,0h0c.14-.22.31,0,.46-.3a.67.67,0,0,0,.12-.43c0-.53.12-.75.33-.77.61,0,1.23-.09,1.84-.1a1.32,1.32,0,0,1,.72.19c.13.08.28-.15.43-.17a18,18,0,0,1,2.32,0c.71,0,1.42,0,2.13-.06.41,0,.84-.16,1.25-.14a14.19,14.19,0,0,1,2.35,0c.22,0,.46-.15.68-.1a2.73,2.73,0,0,0,1.1.08,4.77,4.77,0,0,1,1.46-.08c.46.05.9-.06,1.35,0a3.17,3.17,0,0,0,1-.15.74.74,0,0,1,.61.16c.15.1.33-.07.5-.1s.42-.45.6.16c.12-.21.26-.06.37-.17s.39.09.58,0,.09.27.14.37.1.45.17-.06.26-.43.41,0c.05.17.11.18.15,0s.16-.35.26-.1c0,.07.09.14.11,0,.17-.64.4-.06.6-.23,0,0,.09.06.09.18,0,.34.07.32.14.14.13-.36.3-.31.44-.25.48.19,1,0,1.44.19.64.22,1.29.11,1.94.27a2.92,2.92,0,0,0,1.1-.09.82.82,0,0,1,.8.32c.29.34.6.22.9.24.11,0,.21,0,.29.23a1.57,1.57,0,0,1,.1.77c0,.3-.11.59-.24.58s-.44.19-.66.41-.45,0-.67,0-.4-.06-.6-.09c0,0-.06,0-.09,0a.38.38,0,0,0-.1.29c0,.15.07.11.1.1a3.65,3.65,0,0,1,1.47.42c.28.1.56.23.84.35a.39.39,0,0,1,.15.11A1.11,1.11,0,0,1,102.88,22.17ZM73.26,19s0,0-.05,0,0,.08,0,.08,0,0,0-.07Zm.19,2.88v0Zm1.3,1S74.75,22.89,74.75,22.88Z" fill="#1a1818"/>
        </g>
      </g>
      <g id="Group_91-2" data-name="Group 91-2">
        <g id="Group_89-2" data-name="Group 89-2">
          <path id="Path_132-2" data-name="Path 132-2" d="M12.29,22.33h0S12.28,22.33,12.29,22.33Z" fill="#1a1818"/>
        </g>
        <g id="Group_90-2" data-name="Group 90-2">
          <path id="Path_133-2" data-name="Path 133-2" d="M30.42,22.17c0,.3-.2.58-.35.49s-.4-.09-.58-.3c0-.05-.14-.15-.1.08.09.54-.13.48-.18.76-.07.46-.17.1-.28,0s-.18-.18-.27,0-.13.1-.18,0c-.21-.46-.38,0-.55.21s-.22.19-.35.12A5.28,5.28,0,0,0,26,23.18c-.37-.07-.73,0-1.1-.11-.13,0-.22-.31-.34-.29l-.11,0c-.2.21-.4.52-.6,0-.21.3-.41-.39-.63,0a.09.09,0,0,1-.12.05A1.75,1.75,0,0,0,22,22.75c-.07,0-.14,0-.19-.2-.33,0-.65.33-1,0a.65.65,0,0,0-.65-.09,1.75,1.75,0,0,1-.6,0,.77.77,0,0,0-.37,0c-.25.08-.55.26-.76,0s-.39-.43-.6-.07c0,0-.1.07-.14-.08s-.11-.21-.17-.16c-.31.34-.66-.08-1,.18s-.75-.1-1.12,0a1.16,1.16,0,0,1-.78.06,1.46,1.46,0,0,0-1.19.12c-.31.15-.65,0-1,0a.24.24,0,0,1-.24-.18h0s0,0,0,0-.14.2-.2.17c-.58-.18-1.16.35-1.74,0-.15-.09-.27.18-.42.19a3.88,3.88,0,0,0-1.85.25c-.17.09-.36.05-.51-.2,0,0,0-.14-.08-.06-.2.58-.45.29-.68.32a13.16,13.16,0,0,0-2.57.44,11.27,11.27,0,0,1-1.41.38.54.54,0,0,1-.4-.15c-.24-.17-.24-.15-.13-.78h0c-.41.17-.82.11-1.19-.47A.66.66,0,0,1,1,22a.7.7,0,0,1-.06-.17c-.14-.63-.13-.73.12-.92.05,0,.14,0,.12-.15s-.08,0-.13,0-.19-.18-.28-.27-.39-.12-.57-.33A.53.53,0,0,1,0,19.67c0-.35.06-.67.22-.69s.29-.2.42.08c0,0,.06,0,.09,0h0c.14-.22.31,0,.46-.3a.67.67,0,0,0,.12-.43c0-.53.12-.75.33-.77.61,0,1.23-.09,1.84-.1a1.32,1.32,0,0,1,.72.19c.13.08.28-.15.43-.17a18,18,0,0,1,2.32,0c.71,0,1.42,0,2.13-.06.41,0,.83-.16,1.25-.14a14.19,14.19,0,0,1,2.35,0c.22,0,.45-.15.68-.1a2.73,2.73,0,0,0,1.1.08,4.77,4.77,0,0,1,1.46-.08c.45.05.9-.06,1.35,0a3.17,3.17,0,0,0,1-.15.75.75,0,0,1,.61.16c.15.1.33-.07.5-.1s.42-.45.6.16c.11-.21.25-.06.37-.17s.39.09.58,0,.09.27.14.37.1.45.16-.06.27-.43.41,0q.09.25.15,0c.08-.29.16-.35.26-.1,0,.07.09.14.12,0,.17-.64.4-.06.59-.23s.08.06.09.18c0,.34.07.32.14.14.12-.36.3-.31.44-.25.48.19,1,0,1.43.19.65.22,1.3.11,1.94.27a3,3,0,0,0,1.11-.09.82.82,0,0,1,.8.32c.28.34.6.22.9.24.11,0,.21,0,.29.23a1.57,1.57,0,0,1,.1.77c0,.3-.11.59-.24.58s-.44.19-.66.41-.45,0-.68,0S28,20,27.81,20c0,0-.06,0-.09,0a.38.38,0,0,0-.1.29c0,.15.07.11.1.1a3.65,3.65,0,0,1,1.47.42c.28.1.56.23.84.35a.39.39,0,0,1,.15.11A1.16,1.16,0,0,1,30.42,22.17ZM.79,19s0,0,0,0,0,.08,0,.08,0,0,0-.07ZM1,21.92v0Zm1.3,1Z" fill="#1a1818"/>
        </g>
      </g>
    </g>
    <g id="Group_111-2" data-name="Group 111-2">
      <g id="Group_95-2" data-name="Group 95-2">
        <g id="Group_93-2" data-name="Group 93-2">
          <path id="Path_134-2" data-name="Path 134-2" d="M192,83.76Z" fill="#9a673d"/>
        </g>
        <g id="Group_94-2" data-name="Group 94-2">
          <path id="Path_135-2" data-name="Path 135-2" d="M173.87,83.92c0-.3.2-.59.35-.49s.4.08.58.3c0,0,.14.15.1-.09-.09-.54.13-.48.18-.75.07-.47.17-.1.28,0s.18.18.27,0,.13-.1.18,0c.21.47.38,0,.55-.21s.22-.18.35-.11a5,5,0,0,0,1.56.35c.37.07.73,0,1.1.11.13,0,.22.31.34.29l.11,0c.2-.21.39-.52.6,0,.21-.3.41.38.62,0,0-.06.09-.08.13-.06a1.63,1.63,0,0,0,1.13.07c.07,0,.14,0,.2.21.32,0,.65-.33,1,0s.44.13.66.09a1.67,1.67,0,0,1,.59.05.77.77,0,0,0,.37,0c.26-.08.55-.26.77,0s.39.43.6.06c0,0,.1-.06.14.09s.11.21.16.16c.32-.34.67.07,1-.18s.74.1,1.11,0a1.17,1.17,0,0,1,.78-.06,1.5,1.5,0,0,0,1.19-.12c.32-.16.65,0,1,0a.26.26,0,0,1,.24.19h0s0,0,0,0,.14-.2.21-.18c.58.19,1.16-.34,1.73,0,.16.1.28-.17.43-.18a3.78,3.78,0,0,0,1.85-.25c.16-.09.35,0,.51.21,0,0,0,.13.07,0,.2-.58.45-.29.68-.32a11.91,11.91,0,0,0,2.58-.44,13.8,13.8,0,0,1,1.4-.38.57.57,0,0,1,.4.15c.25.18.25.16.14.79h0c.42-.17.82-.11,1.19.47a.64.64,0,0,1,.1.38.87.87,0,0,1,.07.17c.13.63.12.73-.13.92-.05,0-.14,0-.12.15s.08,0,.13,0,.19.18.29.27.38.12.56.33a.52.52,0,0,1,.17.49c0,.34-.06.66-.22.69s-.28.2-.42-.08c0,0-.06,0-.09,0h0c-.14.21-.31,0-.46.29a.67.67,0,0,0-.12.43c0,.53-.12.76-.33.77-.61,0-1.23.09-1.84.1a1.32,1.32,0,0,1-.72-.19c-.13-.07-.28.15-.43.18a20,20,0,0,1-2.32,0c-.71,0-1.42,0-2.13,0-.41,0-.84.17-1.25.15a16.62,16.62,0,0,1-2.34,0c-.23-.05-.46.14-.69.1a2.56,2.56,0,0,0-1.1-.09,4.77,4.77,0,0,1-1.46.08c-.45,0-.9.06-1.35,0a2.89,2.89,0,0,0-1,.14.74.74,0,0,1-.61-.16c-.15-.1-.33.07-.5.1s-.42.45-.6-.16c-.12.21-.26.06-.37.17s-.39-.09-.58,0-.09-.27-.14-.37-.1-.44-.17.06-.26.43-.41,0c0-.17-.1-.18-.15,0s-.16.34-.26.1c0-.08-.09-.14-.11,0-.17.65-.4.07-.6.23,0,0-.08,0-.08-.18,0-.34-.07-.32-.14-.13-.13.36-.3.3-.45.25-.47-.2-1,0-1.43-.2-.64-.22-1.29-.11-1.94-.27a3,3,0,0,0-1.11.09.83.83,0,0,1-.8-.32c-.28-.33-.6-.21-.9-.23-.11,0-.21,0-.29-.24a1.65,1.65,0,0,1-.1-.76c0-.3.11-.59.25-.59s.43-.19.65-.41.45,0,.68,0,.39.06.59.09c0,0,.07,0,.09,0a.37.37,0,0,0,.1-.3c0-.15-.06-.11-.1-.1a3.55,3.55,0,0,1-1.46-.41c-.28-.1-.56-.23-.84-.36a.4.4,0,0,1-.15-.1A1.12,1.12,0,0,1,173.87,83.92Zm29.63,3.13s0,0,0,0l0-.09s0,0,0,.08Zm-.2-2.88v0Zm-1.3-1S202,83.19,202,83.2Z" fill="#9a673d"/>
        </g>
      </g>
      <g id="Group_98-2" data-name="Group 98-2">
        <g id="Group_96-2" data-name="Group 96-2">
          <path id="Path_136-2" data-name="Path 136-2" d="M171.57,35.35h0S171.57,35.34,171.57,35.35Z" fill="#9a673d"/>
        </g>
        <g id="Group_97-2" data-name="Group 97-2">
          <path id="Path_137-2" data-name="Path 137-2" d="M153.44,35.51c0-.3.2-.58.35-.49s.39.09.58.3c0,0,.13.15.1-.09-.09-.53.13-.48.17-.75.08-.46.18-.1.28,0s.18.18.27,0,.14-.1.18,0c.22.46.38,0,.55-.21s.22-.19.36-.12a5.21,5.21,0,0,0,1.56.36c.36.07.73,0,1.1.11.13,0,.21.31.34.29l.11,0c.2-.21.39-.51.6,0,.21-.3.41.38.62,0,0,0,.09-.07.12,0a1.69,1.69,0,0,0,1.13.07c.07,0,.15,0,.2.2.33,0,.65-.33,1,0s.43.13.65.09a1.67,1.67,0,0,1,.59.05.81.81,0,0,0,.38,0c.25-.08.54-.26.76,0s.39.43.6.07c0,0,.1-.07.14.08s.11.21.17.16c.31-.34.66.07.95-.18s.75.1,1.12,0a1.13,1.13,0,0,1,.77-.06,1.53,1.53,0,0,0,1.2-.12c.31-.16.65,0,1,0a.24.24,0,0,1,.24.18h0l0,0c.07-.07.14-.2.2-.18.58.19,1.16-.34,1.73,0,.16.1.28-.17.43-.18a3.9,3.9,0,0,0,1.85-.25c.16-.09.35-.05.51.21,0,0,0,.13.07,0,.2-.57.45-.29.68-.32a11.91,11.91,0,0,0,2.58-.44,13.8,13.8,0,0,1,1.4-.38.59.59,0,0,1,.4.15c.24.18.24.16.13.79h0c.42-.17.82-.11,1.2.47a.72.72,0,0,1,.1.38l.06.17c.14.63.12.73-.13.92-.05,0-.13,0-.12.15s.09,0,.13,0,.19.18.29.27.38.12.56.33a.54.54,0,0,1,.18.49c0,.34-.06.66-.23.69s-.28.2-.42-.08c0,0-.06,0-.09,0h0c-.14.21-.31,0-.46.29a.67.67,0,0,0-.12.43c0,.53-.12.76-.33.77-.61.05-1.23.09-1.84.1a1.32,1.32,0,0,1-.72-.19c-.13-.08-.28.15-.43.18a20,20,0,0,1-2.32,0c-.71,0-1.42,0-2.13,0-.41,0-.84.17-1.25.15a16.76,16.76,0,0,1-2.35,0c-.22-.05-.45.14-.68.1a2.88,2.88,0,0,0-1.09-.09,4.85,4.85,0,0,1-1.47.08c-.45,0-.9.06-1.35,0a2.89,2.89,0,0,0-1,.14.74.74,0,0,1-.61-.16c-.15-.1-.33.07-.5.1s-.42.45-.6-.16c-.11.21-.26.06-.37.17s-.39-.09-.58,0-.09-.27-.14-.37-.1-.44-.16.06-.27.44-.41,0c-.06-.17-.11-.18-.15,0s-.16.34-.26.1c0-.08-.09-.14-.12,0-.17.65-.4.07-.59.23s-.08-.05-.09-.18c0-.34-.07-.32-.13-.13-.13.36-.3.3-.45.24-.48-.19-1,0-1.43-.19-.65-.22-1.3-.11-1.94-.27a3,3,0,0,0-1.11.09.8.8,0,0,1-.8-.32c-.28-.33-.6-.21-.9-.23-.11,0-.21,0-.29-.24a1.55,1.55,0,0,1-.1-.77c0-.3.11-.58.24-.58s.44-.19.66-.41.45,0,.67,0l.6.09s.06,0,.09,0a.38.38,0,0,0,.1-.29c0-.15-.07-.11-.1-.1a3.82,3.82,0,0,1-1.47-.42c-.28-.1-.56-.23-.84-.35a.39.39,0,0,1-.15-.11A1.12,1.12,0,0,1,153.44,35.51Zm29.62,3.13s0,0,0,0,0-.08,0-.09S183,38.6,183.06,38.64Zm-.19-2.88v0Zm-1.3-1S181.57,34.79,181.57,34.8Z" fill="#9a673d"/>
        </g>
      </g>
      <g id="Group_101-2" data-name="Group 101-2">
        <g id="Group_99-2" data-name="Group 99-2">
          <path id="Path_138-2" data-name="Path 138-2" d="M246.77,87.51Z" fill="#5f5346"/>
        </g>
        <g id="Group_100-2" data-name="Group 100-2">
          <path id="Path_139-2" data-name="Path 139-2" d="M228.64,87.67c0-.3.2-.58.35-.49s.4.09.58.3c0,0,.13.15.1-.09-.09-.54.13-.48.17-.75.08-.47.18-.1.28,0s.18.18.27,0,.14-.1.18,0c.22.47.38,0,.55-.21s.23-.18.36-.11a4.91,4.91,0,0,0,1.56.35c.36.08.73,0,1.1.12.13,0,.21.3.34.29l.11,0c.2-.21.39-.52.6,0,.21-.3.41.38.62,0,0,0,.08-.08.12-.06a1.63,1.63,0,0,0,1.13.07c.07,0,.15,0,.2.2.32,0,.65-.33,1,0s.43.12.65.08a1.67,1.67,0,0,1,.59.06.67.67,0,0,0,.37,0c.26-.07.55-.26.77,0s.39.43.6.06c0,0,.1-.06.14.09s.11.21.16.15c.32-.33.67.08,1-.18s.74.11,1.11,0a1.23,1.23,0,0,1,.78,0,1.57,1.57,0,0,0,1.2-.12c.31-.16.64,0,1,0a.26.26,0,0,1,.24.19h0s0,0,0,0,.15-.2.21-.18c.58.19,1.16-.34,1.73,0,.16.09.28-.17.43-.18a3.9,3.9,0,0,0,1.85-.25c.16-.09.35,0,.51.2,0,0,0,.14.07.06.2-.58.46-.29.68-.32a12.43,12.43,0,0,0,2.58-.44,11.27,11.27,0,0,1,1.41-.38.6.6,0,0,1,.4.15c.24.17.24.15.13.79h0c.42-.17.82-.11,1.2.47a.7.7,0,0,1,.1.38l.06.17c.14.62.12.73-.13.91,0,0-.13,0-.12.16s.09,0,.13,0,.2.18.29.27.38.12.56.33a.52.52,0,0,1,.18.48c0,.35-.06.67-.23.7s-.28.2-.42-.08c0,0,0,0-.08,0h0c-.14.21-.31,0-.46.29a.66.66,0,0,0-.13.43c0,.53-.11.75-.32.77-.62,0-1.23.09-1.85.1a1.26,1.26,0,0,1-.71-.19c-.14-.08-.29.15-.43.17a20.13,20.13,0,0,1-2.33,0c-.71,0-1.42.05-2.13.06-.41,0-.83.16-1.25.14a14.07,14.07,0,0,1-2.34,0c-.22,0-.46.15-.69.1a2.68,2.68,0,0,0-1.09-.08,4.85,4.85,0,0,1-1.47.07c-.45,0-.9.07-1.35,0a3.22,3.22,0,0,0-1,.15.77.77,0,0,1-.6-.16c-.16-.1-.34.06-.5.1s-.42.45-.6-.17c-.12.21-.26.07-.37.17s-.39-.09-.58,0-.09-.27-.14-.38-.1-.44-.17.06-.26.44-.41,0c-.06-.17-.11-.18-.15,0s-.16.35-.26.1c0-.08-.09-.14-.11,0-.17.64-.4.06-.6.23,0,0-.08-.06-.08-.18,0-.34-.07-.32-.14-.14-.13.36-.3.31-.45.25-.47-.19-1,0-1.43-.19-.64-.22-1.29-.11-1.94-.27a3,3,0,0,0-1.11.09.83.83,0,0,1-.8-.32c-.28-.34-.6-.22-.9-.24-.11,0-.21,0-.29-.23a1.69,1.69,0,0,1-.1-.77c0-.3.11-.59.25-.58s.43-.19.65-.41.45,0,.68,0,.4.06.59.09c0,0,.07,0,.09,0a.37.37,0,0,0,.1-.3c0-.15-.06-.1-.1-.1a3.55,3.55,0,0,1-1.46-.41c-.28-.1-.56-.23-.84-.35a.42.42,0,0,1-.15-.11A1.09,1.09,0,0,1,228.64,87.67Zm29.62,3.13s0,0,.05,0a.46.46,0,0,0,0-.09s0,0,0,.08Zm-.19-2.88v0Zm-1.3-1S256.77,87,256.77,87Z" fill="#5f5346"/>
        </g>
      </g>
      <g id="Group_104-2" data-name="Group 104-2">
        <g id="Group_102-2" data-name="Group 102-2">
          <path id="Path_140-2" data-name="Path 140-2" d="M231.57,70.58Z" fill="#b8a588"/>
        </g>
        <g id="Group_103-2" data-name="Group 103-2">
          <path id="Path_141-2" data-name="Path 141-2" d="M213.43,70.73c0-.3.2-.59.36-.49s.4.08.58.3c0,0,.13.15.09-.09-.09-.54.13-.48.18-.75.08-.47.18-.1.28,0s.18.17.27,0,.13-.1.18,0c.21.47.38,0,.55-.21s.22-.18.36-.11a5.14,5.14,0,0,0,1.55.35c.37.07.74,0,1.1.11.14,0,.22.31.35.29l.1,0c.2-.21.4-.52.6,0,.21-.3.42.39.63,0,0-.06.08-.08.12-.06a1.63,1.63,0,0,0,1.13.07c.07,0,.15,0,.2.21.33,0,.65-.33,1,0s.43.13.65.09a1.67,1.67,0,0,1,.59,0,.81.81,0,0,0,.38,0c.25-.08.54-.26.76,0s.39.43.6.06c0,0,.1-.06.14.09s.11.21.17.15c.31-.33.66.08.95-.17s.75.1,1.12,0a1.14,1.14,0,0,1,.77-.06,1.53,1.53,0,0,0,1.2-.12c.31-.16.65,0,1,0a.26.26,0,0,1,.24.19h0s0,0,0,0,.14-.2.2-.18c.58.19,1.16-.34,1.74,0,.15.09.27-.17.42-.18a3.88,3.88,0,0,0,1.85-.25c.17-.09.35,0,.51.2,0,0,.05.14.07.06.2-.58.46-.29.69-.32a11.82,11.82,0,0,0,2.57-.44,11.09,11.09,0,0,1,1.4-.37.55.55,0,0,1,.4.14c.24.18.24.16.13.79h0c.42-.17.82-.11,1.2.47a.72.72,0,0,1,.1.38l.06.17c.14.63.12.73-.13.92,0,0-.13,0-.12.15s.09,0,.13,0,.19.18.29.27.38.12.56.33a.53.53,0,0,1,.18.49c0,.34-.06.66-.23.69s-.28.2-.42-.08c0,0-.05,0-.08,0h0c-.14.21-.32,0-.46.29a.63.63,0,0,0-.13.43c0,.53-.12.76-.32.77-.62,0-1.23.09-1.85.1a1.26,1.26,0,0,1-.71-.19c-.14-.08-.29.15-.43.17a18.09,18.09,0,0,1-2.33,0c-.71,0-1.42,0-2.13.06-.41,0-.83.16-1.25.14a14.07,14.07,0,0,1-2.34,0c-.22,0-.46.15-.69.1a2.69,2.69,0,0,0-1.09-.08,4.85,4.85,0,0,1-1.47.08c-.45,0-.9.06-1.35,0a3.17,3.17,0,0,0-1,.15.75.75,0,0,1-.61-.16c-.15-.1-.33.07-.5.1s-.42.45-.6-.16c-.12.21-.26.06-.37.17s-.39-.09-.58,0-.09-.27-.14-.37-.1-.45-.17.06-.26.43-.4,0c-.06-.17-.11-.18-.16,0s-.16.35-.26.1c0-.07-.09-.14-.11,0-.17.65-.4.07-.6.23,0,0-.08,0-.08-.18,0-.34-.07-.32-.14-.13-.13.36-.3.3-.44.24-.48-.19-1,0-1.44-.19-.64-.22-1.29-.11-1.94-.27a3,3,0,0,0-1.11.09.83.83,0,0,1-.8-.32c-.28-.33-.6-.22-.9-.24-.11,0-.21,0-.29-.23a1.84,1.84,0,0,1-.1-.77c0-.3.11-.59.25-.58s.43-.19.65-.41.45,0,.68,0,.4.06.59.09c0,0,.07,0,.1,0a.38.38,0,0,0,.1-.29c0-.15-.07-.11-.1-.1a3.56,3.56,0,0,1-1.47-.42c-.28-.1-.56-.23-.84-.35a.4.4,0,0,1-.15-.1A1.11,1.11,0,0,1,213.43,70.73Zm29.63,3.12s0,0,0,0a.16.16,0,0,0,0-.09s0,0,0,.08ZM242.87,71v0Zm-1.3-1Z" fill="#b8a588"/>
        </g>
      </g>
      <g id="Group_107-2" data-name="Group 107-2">
        <g id="Group_106-2" data-name="Group 106-2">
          <path id="Path_143-2" data-name="Path 143-2" d="M177.79,70.73c0-.3.2-.59.36-.49s.39.08.58.3c0,0,.13.15.09-.09-.08-.54.13-.48.18-.75.08-.47.18-.1.28,0s.18.17.27,0,.14-.1.18,0c.21.47.38,0,.55-.21s.22-.18.36-.11a5.14,5.14,0,0,0,1.55.35c.37.07.73,0,1.1.11.14,0,.22.31.35.29l.1,0c.2-.21.4-.52.6,0,.21-.3.41.39.63,0,0-.06.08-.08.12-.06a1.63,1.63,0,0,0,1.13.07c.07,0,.15,0,.19.21.33,0,.65-.33,1,0a.65.65,0,0,0,.65.09,1.72,1.72,0,0,1,.6,0,.77.77,0,0,0,.37,0c.26-.08.55-.26.76,0s.39.43.6.06c0,0,.1-.06.14.09s.11.21.17.15c.32-.33.66.08,1-.17s.74.1,1.11,0a1.17,1.17,0,0,1,.78-.06,1.5,1.5,0,0,0,1.19-.12c.32-.16.65,0,1,0a.24.24,0,0,1,.24.19h0a.05.05,0,0,1,0,0c.07-.07.14-.2.2-.18.58.19,1.16-.34,1.74,0,.15.09.27-.17.42-.18a3.88,3.88,0,0,0,1.85-.25c.16-.09.35,0,.51.2,0,0,0,.14.07.06.2-.58.46-.29.69-.32A11.82,11.82,0,0,0,204,69.5a13.3,13.3,0,0,1,1.41-.38.59.59,0,0,1,.4.15c.24.18.24.16.13.79h0c.42-.17.82-.11,1.2.47a.7.7,0,0,1,.1.38l.06.17c.14.63.12.73-.13.91,0,0-.13,0-.12.16s.09,0,.13,0,.19.18.29.27.38.12.56.32a.55.55,0,0,1,.18.49c0,.35-.07.67-.23.7s-.28.2-.42-.08c0,0-.06,0-.09,0h0c-.14.21-.31,0-.46.29a.66.66,0,0,0-.12.43c0,.53-.12.75-.33.77-.61,0-1.23.09-1.84.1a1.32,1.32,0,0,1-.72-.19c-.13-.08-.28.15-.43.17a18,18,0,0,1-2.32,0c-.71,0-1.42,0-2.13.06-.42,0-.84.16-1.25.14a14.19,14.19,0,0,1-2.35,0c-.22,0-.46.15-.68.1a2.73,2.73,0,0,0-1.1-.08,4.52,4.52,0,0,1-1.47.07c-.45,0-.9.07-1.34,0a3.17,3.17,0,0,0-1,.15.74.74,0,0,1-.61-.16c-.15-.1-.33.07-.5.1s-.42.45-.6-.16c-.11.21-.26.06-.37.17s-.39-.1-.58,0-.09-.27-.14-.38-.1-.44-.16.06-.27.44-.41,0c-.06-.17-.11-.18-.15,0s-.16.35-.27.1c0-.08-.08-.14-.11,0-.17.64-.4.06-.59.23s-.09-.06-.09-.18c0-.34-.07-.32-.14-.14-.13.36-.3.31-.44.25-.48-.19-1,0-1.43-.19a18.83,18.83,0,0,0-1.94-.27,3.17,3.17,0,0,0-1.11.08.79.79,0,0,1-.8-.31c-.29-.34-.6-.22-.9-.24-.11,0-.21,0-.29-.23a1.57,1.57,0,0,1-.1-.77c0-.3.11-.59.24-.58s.44-.19.66-.41.45,0,.67,0,.4.06.6.09c0,0,.06,0,.09,0a.38.38,0,0,0,.1-.29c0-.15-.07-.11-.1-.1a3.82,3.82,0,0,1-1.47-.42c-.28-.1-.56-.23-.84-.35a.33.33,0,0,1-.15-.11A1.12,1.12,0,0,1,177.79,70.73Zm29.63,3.12s0,0,0,0,0-.09,0-.09,0,0,0,.08ZM207.23,71v0Zm-1.3-1Z" fill="#9a673d"/>
        </g>
      </g>
      <g id="Group_110-2" data-name="Group 110-2">
        <g id="Group_108-2" data-name="Group 108-2">
          <path id="Path_144-2" data-name="Path 144-2" d="M268.39,70.58h0S268.39,70.57,268.39,70.58Z" fill="#9a673d"/>
        </g>
        <g id="Group_109-2" data-name="Group 109-2">
          <path id="Path_145-2" data-name="Path 145-2" d="M250.26,70.73c0-.3.2-.59.35-.49s.4.08.58.3c0,0,.13.15.1-.09-.09-.54.13-.48.17-.75.08-.47.18-.1.28,0s.18.17.27,0,.14-.1.18,0c.22.47.38,0,.55-.21s.23-.18.36-.11a5.2,5.2,0,0,0,1.56.35c.36.07.73,0,1.1.11.13,0,.21.31.34.29l.11,0c.2-.21.39-.52.6,0,.2-.3.41.39.62,0,0-.06.08-.08.12-.06a1.63,1.63,0,0,0,1.13.07c.07,0,.15,0,.2.21.33,0,.65-.33,1,0a.65.65,0,0,0,.65.09,1.75,1.75,0,0,1,.6,0,.77.77,0,0,0,.37,0c.25-.08.55-.26.76,0s.39.43.6.06c0,0,.1-.06.14.09s.11.21.17.15c.32-.33.66.08,1-.17s.75.1,1.12,0a1.16,1.16,0,0,1,.78-.06,1.53,1.53,0,0,0,1.2-.12c.31-.16.64,0,1,0a.26.26,0,0,1,.24.19h0s0,0,0,0,.14-.2.2-.18c.58.19,1.16-.34,1.74,0,.15.09.27-.17.43-.18a3.91,3.91,0,0,0,1.85-.25c.16-.09.34,0,.5.2,0,0,.05.14.08.06.2-.58.45-.29.68-.32a11.82,11.82,0,0,0,2.57-.44,13.3,13.3,0,0,1,1.41-.38.59.59,0,0,1,.4.15c.24.18.24.16.13.79h0c.42-.17.82-.11,1.19.47a.62.62,0,0,1,.1.38.87.87,0,0,1,.07.17c.13.63.12.73-.13.91-.05,0-.14,0-.12.16s.08,0,.13,0,.19.18.29.27.38.12.56.32a.55.55,0,0,1,.18.49c0,.35-.07.67-.23.7s-.28.2-.42-.08c0,0-.06,0-.09,0h0c-.14.21-.31,0-.46.29a.66.66,0,0,0-.12.43c0,.53-.12.75-.33.77-.61,0-1.23.09-1.84.1a1.32,1.32,0,0,1-.72-.19c-.13-.08-.28.15-.43.17a20,20,0,0,1-2.32,0c-.71,0-1.42,0-2.13.06-.41,0-.84.16-1.25.14a14.07,14.07,0,0,1-2.34,0c-.23,0-.46.15-.69.1a2.73,2.73,0,0,0-1.1-.08,4.47,4.47,0,0,1-1.46.07c-.46,0-.9.07-1.35,0a3.17,3.17,0,0,0-1,.15.74.74,0,0,1-.61-.16c-.15-.1-.33.07-.5.1s-.42.45-.6-.16c-.12.21-.26.06-.37.17s-.39-.1-.58,0-.09-.27-.14-.38-.1-.44-.17.06-.26.44-.4,0c-.06-.17-.12-.18-.16,0s-.16.35-.26.1c0-.08-.09-.14-.11,0-.17.64-.4.06-.6.23,0,0-.08-.06-.08-.18,0-.34-.07-.32-.14-.14-.13.36-.3.31-.44.25-.48-.19-1,0-1.44-.19a18.1,18.1,0,0,0-1.94-.27,3.19,3.19,0,0,0-1.11.08.81.81,0,0,1-.8-.31c-.28-.34-.6-.22-.9-.24-.11,0-.21,0-.29-.23a1.69,1.69,0,0,1-.1-.77c0-.3.11-.59.25-.58s.43-.19.65-.41.45,0,.68,0,.39.06.59.09c0,0,.07,0,.09,0a.35.35,0,0,0,.1-.29c0-.15-.06-.11-.1-.1a3.72,3.72,0,0,1-1.46-.42c-.28-.1-.56-.23-.84-.35a.33.33,0,0,1-.15-.11A1.09,1.09,0,0,1,250.26,70.73Zm29.62,3.12s0,0,0,0a.29.29,0,0,0,0-.09s0,0,0,.08ZM279.69,71v0Zm-1.3-1S278.39,70,278.39,70Z" fill="#9a673d"/>
        </g>
      </g>
    </g>
  </g>
</svg>
