<svg id="Layer_1" data-name="Layer 1" xmlns="http://www.w3.org/2000/svg" viewBox="0 0 1440 490">
  <path d="M860.36,250.05h0s0,0,0,0" fill="#c2b59b"/>
  <path d="M847.87,216h0s0,0,0,0" fill="#c2b59b"/>
  <path d="M526.86,162.44c0,.05,0,0,0,0m-6.85,2.7.07.06a.76.76,0,0,1-.08-.11s0,0,0,0m-5.68-4.92c-.08,0-.13.07-.19.13.09,0,.21.1.26.07s.06-.19-.07-.2M638,62.26a1.63,1.63,0,0,1-.57,2.19c-1,.43-1.73,1.21-2.83,1.45-.25,0-.8.17-.24.5,1.27.74.3,1.39.59,2.08.48,1.18-.54.83-1.06,1.06s-1,.29-1.12.91a.69.69,0,0,1-.71.64c-1.65-.16-1.47,1.39-1.84,2.34A2.42,2.42,0,0,1,629,74.89c-2.52,1.28-4.57,3.17-6.82,4.79-1.59,1.14-2.95,2.53-4.57,3.63-.6.41-1.4.17-1.87.64l-.46.33c-.43,1.1-.69,2.39-2.33,2.15-.32,1.32-2.3.71-2.53,2.15a.78.78,0,0,1-.39.54A17.8,17.8,0,0,0,605.37,93a1,1,0,0,1-1.13.29c-1.36,1.08-2,2.93-3.86,3.49a6.55,6.55,0,0,0-2.75,2.12,18,18,0,0,1-2.47,2,8,8,0,0,0-1.46,1.33c-.88,1.06-1.74,2.43-3,2.71s-2.28.55-2.5,2a.54.54,0,0,1-.7.31.67.67,0,0,0-.94.29c-.69,1.76-2.78,2.18-3.51,3.71-1,2-3.14,2.4-4.43,3.93a12.92,12.92,0,0,1-3,2.84,15.76,15.76,0,0,0-4.56,4.43c-1,1.4-2.57,2.29-3.91,3.38a1.6,1.6,0,0,1-1.28.49s0,0,0,0v0h-.13c-.16.36-.22.87-.52,1.05-2.62,1.68-4,4.73-6.92,6.1-.77.37-.79,1.3-1.39,1.85-2.42,2.21-5.07,4.19-7,7a3,3,0,0,1-2.37,1.38c-.18,0-.42-.11-.39.15.19,1.81-1.32,2.16-2.18,3a131.22,131.22,0,0,0-9.54,9.9c-1.59,1.95-3.26,3.83-5,5.67a5,5,0,0,1-1.86,1.12c-1.26.51-1.23.56-1.87-1.06,0,0,0,0,0,0h0a7.5,7.5,0,0,1-5.56,3.27,1.15,1.15,0,0,1-1-.39,2.48,2.48,0,0,1-.54-.12c-1.63-.73-1.74-1-1.06-2.22.13-.23.57-.45.22-.73s-.34.31-.5.49c-.41.45-1.08.32-1.62.48-1,.29-1.73,1.11-2.8,1.34-.52.11-1.05.34-1.54-.34s-.9-1.5-.29-2.12.79-1.39,1.81-1.32c.13,0,.2-.25.29-.39h0c.2-.91,1.23-1.12,1.34-2.19,0-.5.22-.71-.23-1.28-.85-1.06-.83-1.86,0-2.63,2.38-2.24,4.76-4.48,7.19-6.68a13.38,13.38,0,0,1,3.17-2.14c.69-.33.88-1.27,1.43-1.84,2.88-3,6.32-5.3,9.35-8.09,2.78-2.56,5.59-5.07,8.41-7.59,1.65-1.47,3.06-3.25,4.75-4.67,3.18-2.67,6-5.76,9.4-8.2,1-.69,1.58-1.89,2.57-2.6a30.19,30.19,0,0,0,4.51-3.68,51.28,51.28,0,0,1,5.74-5.3c1.87-1.5,3.47-3.28,5.34-4.77A32.37,32.37,0,0,0,580.68,95a7.69,7.69,0,0,1,2.7-1.83c.8-.34,1.22-1.3,1.85-2s.91-2.35,2.67-1.78c.1-.81.93-1,1.18-1.63.47-1.08,1.71-1.19,2.27-2.1.31-.5.81.21,1.2.24s1.15.5.55-.7.31-1.78,1.57-1.49c.53.13.75,0,.66-.49-.18-.85,0-1.24.87-1.12.27,0,.59,0,.53-.31-.43-1.85,1.49-1.53,2-2.53.12-.24.43-.19.66,0,.61.62.83.38.78-.22a2.06,2.06,0,0,1,1.35-2c2.23-1.31,3.88-3.31,6.06-4.66,3-1.84,5.36-4.33,8.21-6.29A34,34,0,0,0,620,62.06a7.18,7.18,0,0,1,3.73-2.19c1.71-.35,2.76-1.68,4-2.7a1.78,1.78,0,0,1,1.57-.57A2.38,2.38,0,0,1,631,57.73c.37.71.55,1.54,0,2a7.54,7.54,0,0,0-1.92,3.1c-.44,1.09-1.74,1.64-2.69,2.4s-1.68,1.27-2.52,1.91c-.13.09-.3.17-.37.31a.8.8,0,0,0,.11.91c.28.28.45,0,.59-.17,1.9-1.84,4.33-3,6.57-4.34,1.29-.79,2.63-1.52,3.95-2.26a3.07,3.07,0,0,1,.79-.33,2,2,0,0,1,2.41,1" fill="#c2b59b"/>
  <path d="M521.4,66.18s0,0,0,0m-2.64-6.34,0,.07.1-.08h0M523.48,54c0-.07-.06-.12-.12-.17s-.09.21-.07.26.19,0,.19-.09m94.9,110.49a1.51,1.51,0,0,1-2.11-.37c-.42-.9-1.18-1.56-1.41-2.59-.05-.23-.17-.75-.48-.19-.71,1.28-1.34.4-2,.73-1.14.56-.8-.45-1-.92s-.29-1-.88-1a.59.59,0,0,1-.62-.63c.15-1.59-1.35-1.29-2.26-1.57a2.07,2.07,0,0,1-1.42-1.06c-1.24-2.3-3.07-4.12-4.64-6.15-1.11-1.42-2.45-2.61-3.52-4.08-.39-.53-.16-1.32-.62-1.73l-.32-.42c-1.06-.32-2.3-.47-2.09-2-1.26-.21-.68-2.15-2.07-2.25a.68.68,0,0,1-.52-.33,15.29,15.29,0,0,0-3.72-4.13.88.88,0,0,1-.28-1.05c-1-1.22-2.83-1.72-3.37-3.42a5.78,5.78,0,0,0-2.06-2.47,14.77,14.77,0,0,1-1.92-2.19,6.31,6.31,0,0,0-1.29-1.29c-1-.77-2.35-1.48-2.62-2.69s-.54-2.14-1.94-2.24a.46.46,0,0,1-.3-.64c.17-.44,0-.78-.29-.87-1.69-.53-2.1-2.49-3.58-3.06-1.94-.76-2.33-2.82-3.8-3.93a11,11,0,0,1-2.76-2.65,13.16,13.16,0,0,0-4.28-4c-1.36-.83-2.22-2.27-3.28-3.47a1.4,1.4,0,0,1-.47-1.18s0,0,0,0,0,0,0,0a.57.57,0,0,1,0-.13c-.35-.13-.84-.15-1-.41-1.63-2.38-4.58-3.49-5.9-6.14-.36-.71-1.27-.66-1.79-1.18-2.14-2.15-4.06-4.52-6.77-6.1a2.64,2.64,0,0,1-1.34-2.16c0-.17.11-.41-.15-.36-1.74.33-2.08-1.09-2.91-1.85A113.64,113.64,0,0,0,527,73.92c-1.89-1.36-3.7-2.81-5.48-4.3a4.39,4.39,0,0,1-1.1-1.69c-.49-1.17-.53-1.14,1-1.88h0A6.48,6.48,0,0,1,518.28,61a1.17,1.17,0,0,1,.37-1,2.38,2.38,0,0,1,.11-.53c.7-1.61.94-1.75,2.14-1.19.22.1.43.51.7.15s-.3-.3-.47-.44c-.43-.35-.32-1-.47-1.51-.29-1-1.08-1.56-1.3-2.57-.11-.49-.33-1,.31-1.5s1.45-1,2.06-.45,1.34.65,1.27,1.63c0,.12.24.16.38.24v0c.87.11,1.08,1.08,2.11,1.1.49,0,.69.15,1.23-.32,1-.9,1.8-1,2.54-.24,2.17,2.1,4.34,4.2,6.46,6.35a11.23,11.23,0,0,1,2.08,2.86c.32.63,1.23.74,1.79,1.22,2.87,2.52,5.12,5.63,7.83,8.3,2.47,2.45,4.91,5,7.34,7.44,1.42,1.46,3.15,2.67,4.52,4.17,2.59,2.84,5.58,5.28,7.94,8.34.67.86,1.83,1.36,2.52,2.25a25.36,25.36,0,0,0,3.56,4,43.89,43.89,0,0,1,5.14,5.06c1.45,1.67,3.17,3.06,4.61,4.73a27.69,27.69,0,0,0,3.57,3.17,6.38,6.38,0,0,1,1.77,2.44c.34.74,1.27,1.07,1.9,1.61s2.27.68,1.73,2.41c.79,0,1,.81,1.57,1,1,.35,1.16,1.53,2,2,.48.25-.2.79-.22,1.16s-.49,1.14.67.48,1.71.14,1.44,1.38c-.12.52,0,.72.48.59.81-.24,1.19-.06,1.08.74,0,.26,0,.56.3.48,1.78-.55,1.48,1.31,2.45,1.69.23.09.18.4,0,.63-.6.64-.37.83.21.73a1.81,1.81,0,0,1,2,1.13c1.26,2,3.21,3.45,4.52,5.43,1.77,2.68,4.18,4.78,6.09,7.35a28,28,0,0,0,3.93,3.76,6.25,6.25,0,0,1,2.12,3.4c.34,1.6,1.63,2.5,2.62,3.61a1.55,1.55,0,0,1,.55,1.45,2.5,2.5,0,0,1-1.08,1.73c-.68.41-1.48.66-1.92.18a6.62,6.62,0,0,0-3-1.58c-1-.34-1.59-1.54-2.32-2.39s-1.23-1.5-1.85-2.25c-.1-.12-.17-.28-.3-.34a.81.81,0,0,0-.88.18c-.27.29,0,.43.16.56,1.78,1.66,2.87,3.91,4.21,5.94.77,1.16,1.48,2.39,2.2,3.59a3.17,3.17,0,0,1,.32.73,2.09,2.09,0,0,1-1,2.39" fill="#c2b59b"/>
  <path d="M1082.81,490h-11.26c-.25-1.07-.53-2.13-.81-3.19a232.21,232.21,0,0,0-53.34-97,258.93,258.93,0,0,0-19.32-19.19,119.84,119.84,0,0,0-21.47-15.21c-19.06-9.95-39-17.46-59.35-20.06-21.57-2.72-43.06-1.07-64.48,1.74a144.19,144.19,0,0,0-21.91,4.58,156.5,156.5,0,0,0-21.32,8.2,173.64,173.64,0,0,0-20.46,11.35,194.48,194.48,0,0,0-19.25,14.45c-17.68,15-32.11,35.18-45.09,56.3a177.49,177.49,0,0,0-19.63,48.22l-1.64,6.49-.7,3.33H689.49q.78-3.67,1.67-7.29a240.31,240.31,0,0,1,17-47.07l-.1,0a74.81,74.81,0,0,0,7.47-14.26c2.28-4.92,4.39-10.09,7.5-14.28A245.28,245.28,0,0,1,739,387.32c5.63-6.12,11.23-12.19,17-18a146.63,146.63,0,0,1,19.88-17.18c3.54-2.38,7-4.91,10.68-6.95L792,342l5.55-2.83c14.83-7.46,30.31-12.19,45.81-15.61,35.34-7.6,71.45-7.63,107.41,1.36,10.39,2.63,20.26,7.95,29.47,14.57s17.94,14.19,26.74,21.44a220.74,220.74,0,0,1,34,35.68,272,272,0,0,1,27.39,44.71c5.68,11.51,9.41,24.41,12.22,37.44Q1081.82,484.37,1082.81,490Z" fill="#76863e"/>
  <path d="M1184,490h-10.69a296.93,296.93,0,0,0-6-30.68c-.93-3.66-2-7.25-3-10.88l-1.52-5.42-1.76-5.31c-1.19-3.53-2.27-7.11-3.54-10.58l-3.92-10.36a343.57,343.57,0,0,0-18.42-39.39l-2.55-4.72-2.72-4.57c-1.83-3-3.56-6.14-5.46-9.1-3.85-5.85-7.59-11.81-11.73-17.34-4-5.74-8.3-11-12.51-16.43-2.14-2.67-4.41-5.16-6.61-7.76l-3.31-3.87c-1.12-1.27-2.3-2.45-3.44-3.69A354.24,354.24,0,0,0,1057,280.82a211.47,211.47,0,0,0-32.82-23.31,308.07,308.07,0,0,0-44.44-20.26,233.63,233.63,0,0,0-46.15-11.8c-33-4.79-66.1-3.12-98.94,2.08a237.66,237.66,0,0,0-33.5,7.74,252.85,252.85,0,0,0-32.56,13c-10.72,5-21,11.19-31.25,17.67-10,6.91-20,14-29.37,22.37-26.9,23.22-49.51,53.59-68.82,86.55A291.72,291.72,0,0,0,609.48,449L607,458.9,604.85,469l-1.08,5-.86,5.11-1.77,10.2-.09.66H588c1.65-11.75,3.84-23.37,6.56-34.76a359,359,0,0,1,24.95-70.42l-.12.06a197.5,197.5,0,0,0,11-21.43c3.59-7.18,7-14.67,11.52-21a360.39,360.39,0,0,1,23.38-30.14c8.31-9.31,16.65-18.49,25.35-27.1a243.94,243.94,0,0,1,29.83-25.71c5.29-3.61,10.47-7.46,15.94-10.6l8.11-4.88,8.29-4.4C775,228,798.13,220.29,821.46,214.89l5-1.18,5-.94,10-1.89,10.06-1.39,5-.7,5.05-.46,10.09-.92,10.1-.45,5.06-.23,5.06,0H902c27,.94,54.07,4.68,80.71,12.66,15.4,4.54,30.21,12.16,44.17,21.66s27.28,20.31,40.46,31.27a328.34,328.34,0,0,1,50.8,53.8,385.44,385.44,0,0,1,40.26,67.41c8.19,17.34,13.93,36.4,18.29,55.77C1179.71,462.73,1182,476.31,1184,490Z" fill="#76863e"/>
  <path d="M1252,490h-10.77a386.33,386.33,0,0,0-8.71-49.24c-1.13-4.52-2.45-9-3.66-13.44l-1.85-6.7-2.14-6.57c-1.45-4.36-2.76-8.78-4.31-13.08l-4.79-12.81c-6.73-16.84-14-33.35-22.57-48.74-1-1.95-2.06-3.92-3.13-5.84l-3.34-5.66c-2.25-3.74-4.38-7.59-6.72-11.25-4.74-7.24-9.34-14.62-14.44-21.45-4.87-7.11-10.22-13.63-15.42-20.32-2.64-3.3-5.45-6.39-8.15-9.6l-4.09-4.77c-1.38-1.57-2.83-3-4.24-4.56l-8.86-9.49-9.13-9.06c-3-3.11-6.17-5.9-9.31-8.76s-6.22-5.86-9.51-8.45l-9.75-8c-3.26-2.67-6.69-5-10-7.43-6.66-5-13.74-9.09-20.71-13.37a371.86,371.86,0,0,0-54.74-25.31,291.09,291.09,0,0,0-56.93-14.84c-40.68-6.19-81.66-4.5-122.19,2.31-7,.92-13.85,2.65-20.76,4.17-3.47.69-6.88,1.76-10.3,2.73l-10.27,3c-13.55,4.64-27.07,9.68-40.16,16.26-13.21,6.18-25.94,13.91-38.53,21.94l-9.25,6.49-4.63,3.24c-1.52,1.13-3,2.33-4.52,3.49l-9,7c-3,2.41-5.85,5-8.79,7.48-33.12,28.74-61.25,66-84.83,107a369.62,369.62,0,0,0-36.51,91.55l-3.11,12.27-2.61,12.46-1.32,6.22-1,6.3-2.15,12.6q-.84,6.12-1.63,12.26H520.11a461.65,461.65,0,0,1,9.29-53.31,440.06,440.06,0,0,1,30.3-86.18l-.13.08c4.85-8.52,9.29-17.21,13.43-26.25,4.47-8.72,8.71-17.77,14.23-25.58,8.8-13.22,18.57-25.28,28.4-37.11,10.12-11.46,20.32-22.75,31-33.24,11.47-11.8,23.88-22,36.53-31.47,6.48-4.43,12.81-9.18,19.49-13.07l9.92-6,10.13-5.45c27-14.43,55.37-24.12,84-30.86l6.11-1.47c2-.44,4.09-.78,6.14-1.18l12.28-2.34,12.35-1.71,6.17-.86,6.19-.55,12.38-1.12,18.6-.78,6.21.06,12.42.07c33.09,1.34,66.28,6.29,98.77,16.53,18.79,5.84,36.94,15,54.1,26.44s33.58,24.44,49.71,37.91a402,402,0,0,1,62.13,66,464.26,464.26,0,0,1,49,82.75c9.88,21.26,17,44.48,22.38,68.12C1246.09,449.33,1249.35,469.57,1252,490Z" fill="#76863e"/>
  <path d="M978.22,490h-13a18.48,18.48,0,0,0-1.73-2.35,35.56,35.56,0,0,1-4.17-5.41l-2.68-5.3c-.11-.22-.23-.44-.35-.66a.05.05,0,0,0,0,0c-.83-1.5-1.81-2.85-2.72-4.28a36.87,36.87,0,0,0-3.41-4.65c-1.27-1.37-2.59-2.69-3.95-3.9-1.45-1.39-3-2.56-4.55-3.81s-3-2.6-4.52-3.88-3.12-2.38-4.67-3.63l-2.32-1.89-2.43-1.66-4.87-3.4c-1.67-1-3.38-1.92-5.09-2.89a58,58,0,0,0-10.62-4.66,54,54,0,0,0-25.46-1.87c-4.25.46-8.39,2-12.45,3.41a46.79,46.79,0,0,0-5.92,2.88,37.11,37.11,0,0,0-5.68,3.45,24.73,24.73,0,0,1-5,2.8l-1.51.64c-.73.35-1.48.67-2.23,1-1.5.6-3,1.12-4.6,1.61-4.53,1.84-9.33,3.58-13.19,7.29a89.81,89.81,0,0,0-7.87,8,45,45,0,0,0-3.59,4.45c-1.14,1.54-2.33,3-3.42,4.63l-3,5-1.48,2.53c-.11.21-.21.42-.31.63a.05.05,0,0,0,0,0c-.32.67-.62,1.37-.93,2.05L808.7,490H794.63c.3-.77.58-1.55.86-2.34l1.4-3.73c.52-1.2,1.11-2.35,1.67-3.53,1.14-2.33,2.25-4.71,3.48-7l4-6.48c.43-.73.89-1.43,1.36-2.1,1-1.37,2-2.65,3-4a70.7,70.7,0,0,1,4.7-5.67c1.75-1.8,3.56-3.5,5.38-5.17s3.84-2.93,5.75-4.41l2.87-2.17c1-.74,2-1.3,3-2a69.58,69.58,0,0,0,5.76-4.31c9.71-7.34,20.62-11.64,31.68-14.81,11.66-3.34,24.11-5,35.92-.79a56.22,56.22,0,0,1,6,2.25l5.91,2.34,5.76,2.86c.88.42,1.75.84,2.62,1.28A29.22,29.22,0,0,1,928.8,432l1.16.7.08,0,4.32,2.59c1.87,1.06,3.59,2.54,5.38,3.79a62.33,62.33,0,0,1,5.25,4l5,4.51a147.35,147.35,0,0,1,13.41,14.19,63.74,63.74,0,0,1,5.86,8.29c.8,1.35,1.69,2.62,2.4,4.08.07.13.14.27.2.41.75,1.61,1.47,3.23,2.16,4.88C975.58,483,976.85,486.52,978.22,490Z" fill="#76863e"/>
  <path d="M981,490H965.54c-.26-.41-.52-.82-.77-1.23-1.17-1.86-2.27-3.79-3.46-5.62l-3.81-5.24a19.45,19.45,0,0,0-1.19-1.63.05.05,0,0,0,0,0c-.9-1.15-1.86-2.21-2.79-3.31-1.4-1.57-2.63-3.37-4.15-4.79s-3-3.16-4.46-4.84-3.1-3-4.65-4.59l-2.39-2.23a25.67,25.67,0,0,0-2.56-1.9,48.92,48.92,0,0,0-5.34-3.23c-9.41-4.13-19-7.47-28.75-8.2-10.37-.75-20.46.78-30.69,1.35a28.2,28.2,0,0,0-5.27.53l-5.28.89-5.16,1.62c-.74.23-1.49.46-2.22.72a21.3,21.3,0,0,0-2.89,1.21l-.85.4-4.17,1.95a53,53,0,0,0-4.85,2.85,51.81,51.81,0,0,0-4.77,3.1l-4.59,3.52a73.19,73.19,0,0,0-11.59,12.43c-1.88,2.17-3.42,4.7-5.13,7-.76,1.11-1.63,2.11-2.37,3.25a.05.05,0,0,0,0,0,2.4,2.4,0,0,0-.18.26q-1.18,1.86-2.48,3.66a22.16,22.16,0,0,0-1.42,2H793c.68-1.53,1.41-3,2.16-4.51l-.09,0a19.17,19.17,0,0,0,4-7.21c1-2.72,1.75-5.71,3.53-7.7l4.22-5c.2-.24.41-.47.61-.7,1.25-1.36,2.6-2.56,3.84-3.9,1.51-1.48,2.85-3.17,4.38-4.57s3-2.95,4.37-4.55a35.19,35.19,0,0,1,4.89-4.74c1.72-1.43,3.43-2.88,5.22-4.14s3.69-2.25,5.55-3.31l2.79-1.56,2.9-1.22,5.79-2.34c2-.63,3.94-1.12,5.9-1.69,3.87-1.3,7.87-1.78,11.77-2.68a180.53,180.53,0,0,1,26.9-2.94c4.55-.39,9.08-.07,13.71-.06,2.32,0,4.6.4,7,.52a60.06,60.06,0,0,1,7,.75,26.83,26.83,0,0,1,6.32,1.88q.79.34,1.56.75c.9.53,1.79,1.1,2.66,1.69l.08,0c1.51,1,3,2.11,4.44,3.22,4.54,3.95,8.81,8.11,13.27,11.87,3.26,2.34,6.14,5.43,9.16,8.28a56.56,56.56,0,0,1,4.29,4.68c1.38,1.63,2.82,3.19,4.18,4.87l3.9,5.29,2,2.64c.14.21.28.43.41.65.47.73.92,1.47,1.39,2.19l3.65,5.7c1.2,1.93,2.22,4,3.37,6C980.41,488.8,980.72,489.4,981,490Z" fill="#76863e"/>
  <path d="M1207.32,225.57c0,.05,0,0,0,0m-7,2.5.07.05-.08-.1a.07.07,0,0,0,0,0m-5.8-4.55c-.08,0-.14.06-.2.11.1,0,.22.1.27.07s.06-.18-.07-.18m126.32-90.6a1.42,1.42,0,0,1-.58,2,15.26,15.26,0,0,1-2.89,1.34c-.25.05-.81.16-.24.46,1.3.69.31,1.29.6,1.92.49,1.1-.55.77-1.08,1s-1.05.28-1.15.85a.66.66,0,0,1-.72.59c-1.69-.15-1.5,1.29-1.88,2.16a2.37,2.37,0,0,1-1.26,1.36c-2.57,1.17-4.67,2.92-7,4.42-1.62,1.06-3,2.34-4.67,3.36-.6.38-1.42.15-1.9.59l-.48.31c-.44,1-.7,2.2-2.37,2-.34,1.21-2.36.65-2.59,2a.72.72,0,0,1-.4.5,18,18,0,0,0-4.73,3.55,1.05,1.05,0,0,1-1.15.26c-1.39,1-2.08,2.71-3.94,3.23a6.8,6.8,0,0,0-2.82,2,18.21,18.21,0,0,1-2.52,1.83,8.41,8.41,0,0,0-1.49,1.23c-.9,1-1.78,2.25-3.1,2.51s-2.33.5-2.55,1.84a.57.57,0,0,1-.72.3.7.7,0,0,0-1,.27c-.72,1.62-2.84,2-3.59,3.42-1,1.86-3.22,2.22-4.53,3.64a12.57,12.57,0,0,1-3.07,2.62,15.43,15.43,0,0,0-4.66,4.1c-1,1.29-2.63,2.12-4,3.13a1.73,1.73,0,0,1-1.3.45v0H1247c-.17.34-.24.8-.54,1-2.68,1.54-4.13,4.37-7.07,5.63-.79.34-.81,1.21-1.42,1.71-2.48,2.05-5.18,3.88-7.11,6.47a3.13,3.13,0,0,1-2.42,1.28c-.18,0-.43-.11-.4.14.2,1.67-1.35,2-2.23,2.78a129.86,129.86,0,0,0-9.74,9.16c-1.62,1.81-3.33,3.54-5.08,5.24a5.14,5.14,0,0,1-1.9,1c-1.29.48-1.26.52-1.91-1,0,0,0,0,0,0a7.87,7.87,0,0,1-5.69,3,1.25,1.25,0,0,1-1.06-.37,2.65,2.65,0,0,1-.55-.1c-1.66-.68-1.78-.91-1.08-2.06.13-.21.58-.41.22-.67s-.34.29-.51.45c-.41.41-1.11.3-1.65.44-1.06.28-1.77,1-2.86,1.24-.53.11-1.07.32-1.57-.31s-.92-1.39-.3-2,.81-1.28,1.85-1.21c.13,0,.2-.24.3-.36h0c.2-.84,1.25-1,1.36-2,.06-.46.23-.66-.23-1.18-.87-1-.85-1.72,0-2.43,2.43-2.08,4.86-4.15,7.34-6.18a13.77,13.77,0,0,1,3.25-2c.69-.3.89-1.18,1.45-1.71,2.94-2.75,6.46-4.89,9.55-7.47,2.84-2.37,5.72-4.7,8.6-7,1.68-1.36,3.12-3,4.85-4.32,3.25-2.47,6.13-5.33,9.6-7.59,1-.63,1.62-1.74,2.63-2.41a29.44,29.44,0,0,0,4.61-3.39,51,51,0,0,1,5.86-4.91c1.91-1.38,3.54-3,5.46-4.41a31.42,31.42,0,0,0,3.7-3.41,7.85,7.85,0,0,1,2.75-1.69c.82-.31,1.26-1.21,1.89-1.81s.93-2.17,2.73-1.65c.11-.75,1-.95,1.21-1.5.48-1,1.75-1.1,2.32-1.95.31-.46.83.2,1.22.22s1.17.47.57-.64.31-1.64,1.6-1.38c.55.11.77,0,.67-.46-.18-.78,0-1.14.89-1,.27,0,.6,0,.54-.28-.43-1.71,1.52-1.43,2-2.35.12-.22.44-.17.67,0,.63.58.85.36.8-.2-.1-1.07.67-1.52,1.38-1.89,2.28-1.21,4-3.07,6.19-4.31,3-1.7,5.47-4,8.39-5.82a33.61,33.61,0,0,0,4.36-3.75,7.54,7.54,0,0,1,3.81-2c1.74-.32,2.82-1.55,4.09-2.5a1.93,1.93,0,0,1,1.6-.52,2.41,2.41,0,0,1,1.74,1.05c.39.65.57,1.42,0,1.84a6.92,6.92,0,0,0-2,2.87c-.45,1-1.78,1.52-2.75,2.22s-1.72,1.17-2.57,1.76a1.17,1.17,0,0,0-.39.29.68.68,0,0,0,.12.84c.28.26.46,0,.6-.15,1.94-1.71,4.43-2.74,6.71-4,1.32-.73,2.69-1.4,4-2.09a3.14,3.14,0,0,1,.81-.3,2.16,2.16,0,0,1,2.45.92" fill="#c2b59b"/>
  <path d="M1203.5,144.35h0m-2.69-5.87,0,.07.1-.08h0m4.83-5.39c0-.07-.07-.11-.13-.16s-.1.19-.07.24.19,0,.2-.08m96.95,102.18a1.63,1.63,0,0,1-2.15-.34c-.44-.84-1.21-1.44-1.44-2.4,0-.22-.18-.69-.5-.17-.72,1.18-1.36.37-2,.67-1.16.52-.82-.41-1-.85s-.29-.89-.9-.93c-.42,0-.66-.28-.63-.58.15-1.48-1.38-1.2-2.31-1.46a2.14,2.14,0,0,1-1.45-1c-1.27-2.14-3.14-3.81-4.75-5.69-1.12-1.32-2.5-2.42-3.59-3.78-.4-.49-.17-1.22-.63-1.6l-.33-.39c-1.08-.3-2.35-.43-2.13-1.9-1.29-.19-.7-2-2.12-2.08a.67.67,0,0,1-.53-.3,15,15,0,0,0-3.8-3.82.77.77,0,0,1-.29-1c-1.07-1.13-2.89-1.59-3.45-3.16a5.37,5.37,0,0,0-2.1-2.28,15.63,15.63,0,0,1-2-2,6.52,6.52,0,0,0-1.31-1.2c-1-.71-2.4-1.36-2.69-2.48s-.54-2-2-2.07a.44.44,0,0,1-.32-.59c.18-.41,0-.73-.28-.81-1.73-.49-2.15-2.3-3.66-2.83-2-.71-2.38-2.61-3.89-3.63a10.87,10.87,0,0,1-2.81-2.46,13.35,13.35,0,0,0-4.38-3.71c-1.39-.76-2.27-2.1-3.35-3.21a1.25,1.25,0,0,1-.49-1.09h0s0-.07,0-.11c-.36-.12-.86-.14-1-.39-1.66-2.2-4.67-3.22-6-5.67-.36-.66-1.29-.61-1.82-1.1-2.19-2-4.15-4.17-6.91-5.63a2.39,2.39,0,0,1-1.37-2c0-.16.1-.38-.16-.34-1.78.31-2.12-1-3-1.7a112.18,112.18,0,0,0-9.79-7.71c-1.93-1.26-3.79-2.6-5.6-4a4,4,0,0,1-1.12-1.56c-.5-1.08-.55-1.05,1-1.74h0a6,6,0,0,1-3.24-4.68,1,1,0,0,1,.38-.95,2.16,2.16,0,0,1,.11-.49c.72-1.49,1-1.61,2.19-1.1.23.1.44.47.71.14s-.3-.28-.48-.41c-.44-.32-.32-.93-.47-1.39-.3-.9-1.11-1.45-1.34-2.38-.11-.46-.34-.9.33-1.39s1.48-.91,2.09-.42,1.37.6,1.3,1.51c0,.11.25.15.39.23v0c.9.1,1.11,1,2.16,1,.5,0,.7.14,1.26-.3,1-.83,1.83-.88,2.59-.21,2.22,1.93,4.44,3.87,6.6,5.86a10.7,10.7,0,0,1,2.13,2.65c.32.58,1.26.68,1.82,1.13,2.94,2.33,5.24,5.2,8,7.67,2.53,2.27,5,4.58,7.5,6.89,1.46,1.34,3.22,2.46,4.62,3.85,2.65,2.62,5.7,4.88,8.12,7.71.68.8,1.86,1.27,2.57,2.08a24.15,24.15,0,0,0,3.63,3.73,42.13,42.13,0,0,1,5.26,4.68c1.48,1.54,3.24,2.83,4.71,4.38a27.06,27.06,0,0,0,3.65,2.93,5.9,5.9,0,0,1,1.8,2.25c.35.68,1.3,1,2,1.49s2.31.63,1.76,2.23c.8,0,1,.75,1.61.93,1.06.33,1.18,1.42,2.08,1.85.49.24-.21.74-.23,1.08s-.5,1.05.69.44,1.75.13,1.47,1.28c-.12.48,0,.66.49.54.83-.22,1.21,0,1.1.69,0,.24,0,.52.31.44,1.82-.51,1.51,1.21,2.5,1.56.23.09.19.37,0,.59-.61.59-.37.76.22.67a1.89,1.89,0,0,1,2,1c1.29,1.88,3.28,3.19,4.61,5,1.82,2.48,4.28,4.42,6.22,6.81a29.56,29.56,0,0,0,4,3.48,5.67,5.67,0,0,1,2.17,3.14c.35,1.48,1.67,2.31,2.68,3.33a1.4,1.4,0,0,1,.56,1.35,2.28,2.28,0,0,1-1.11,1.6c-.69.38-1.51.6-2,.16a6.93,6.93,0,0,0-3.06-1.46c-1.08-.31-1.63-1.43-2.38-2.21s-1.25-1.39-1.88-2.08c-.1-.11-.17-.26-.31-.31a.86.86,0,0,0-.9.17c-.27.26,0,.39.17.51,1.82,1.54,2.93,3.61,4.3,5.49.79,1.08,1.51,2.21,2.25,3.33a2.59,2.59,0,0,1,.32.67,1.84,1.84,0,0,1-1,2.21" fill="#c2b59b"/>
  <path d="M282.17,400h0s0,0,0,0" fill="#231f20"/>
  <path d="M301.85,398.87s0,0,0,0m2.56,1.9v0m.37,5.66s.06,0,.09,0,0-.17-.06-.18-.06.08,0,.15m-58.29-6.16c0-.59.4-1.15.69-1s.78.17,1.14.59c.08.1.26.3.19-.17-.17-1.06.25-.94.35-1.48.15-.92.35-.2.55-.07s.36.34.53,0,.27-.2.36,0c.42.93.74-.06,1.08-.41s.43-.36.7-.22a9.88,9.88,0,0,0,3.07.69c.71.15,1.43,0,2.15.22.26.07.43.61.67.58l.22,0c.38-.41.77-1,1.17-.06.41-.58.81.76,1.23.05.06-.11.16-.15.23-.12a3.24,3.24,0,0,0,2.23.14c.14,0,.29,0,.38.4.64.07,1.28-.64,1.93,0,.42.39.86.25,1.28.17a3.31,3.31,0,0,1,1.17.11,1.39,1.39,0,0,0,.73,0c.5-.15,1.08-.51,1.51,0s.76.83,1.18.12c0-.06.2-.14.27.16s.22.42.33.31c.62-.65,1.31.15,1.88-.35.76-.67,1.46.21,2.19,0a2.37,2.37,0,0,1,1.53-.11,3,3,0,0,0,2.35-.24c.62-.31,1.28,0,1.92,0a.48.48,0,0,1,.47.36v0h0a.43.43,0,0,1,0,.07c.13-.13.27-.38.4-.34,1.14.36,2.28-.67,3.41,0,.31.18.54-.34.84-.35,1.22,0,2.44.15,3.64-.5.32-.18.69-.11,1,.4.05.08.09.27.15.11.38-1.13.89-.57,1.34-.63a24.23,24.23,0,0,0,5.07-.86,21.7,21.7,0,0,1,2.76-.74,1.08,1.08,0,0,1,.8.29c.47.34.47.3.26,1.54,0,0,0,0,0,0,.82-.33,1.6-.21,2.34.93a1.29,1.29,0,0,1,.2.75,2.53,2.53,0,0,1,.12.33c.27,1.24.24,1.44-.25,1.81-.09.06-.27,0-.24.3s.17,0,.26,0,.38.36.56.54c.37.35.76.24,1.11.64a1.08,1.08,0,0,1,.35,1c0,.68-.12,1.31-.44,1.36s-.56.39-.83-.16c0-.07-.11,0-.17.08v0c-.27.42-.61,0-.9.58a1.24,1.24,0,0,0-.25.84c0,1-.23,1.49-.64,1.52-1.21.09-2.42.17-3.63.2a2.54,2.54,0,0,1-1.4-.37c-.27-.15-.56.29-.85.34-1.53.25-3.05-.15-4.58-.08s-2.79.09-4.19.11c-.81,0-1.64.33-2.46.29-1.53-.08-3.07.27-4.61,0-.44-.09-.9.28-1.35.2a5.25,5.25,0,0,0-2.15-.17,9.78,9.78,0,0,1-2.9.15c-.88-.09-1.76.13-2.64,0a6.28,6.28,0,0,0-1.91.29,1.52,1.52,0,0,1-1.2-.31c-.3-.21-.66.13-1,.19s-.83.89-1.18-.32c-.23.41-.51.12-.73.33-.39.38-.76-.18-1.14.06-.21.13-.17-.52-.28-.73s-.19-.87-.32.12-.52.86-.8.06c-.12-.34-.22-.36-.3-.05-.16.57-.31.69-.52.2-.06-.15-.17-.27-.22-.09-.33,1.27-.79.13-1.17.46-.09.08-.16-.11-.17-.35,0-.67-.14-.64-.27-.27-.26.71-.59.6-.88.48-.93-.37-1.88-.05-2.82-.38-1.27-.43-2.54-.21-3.81-.53a6.52,6.52,0,0,0-2.19.17,1.59,1.59,0,0,1-1.57-.62c-.56-.66-1.17-.42-1.77-.47-.21,0-.41,0-.57-.46a3.24,3.24,0,0,1-.2-1.5c.07-.59.22-1.16.48-1.15.46,0,.86-.37,1.29-.81s.89-.06,1.34,0,.77.12,1.16.18c.06,0,.13.05.18,0A.72.72,0,0,0,252,404c0-.3-.13-.21-.2-.21a7.07,7.07,0,0,1-2.89-.81c-.55-.2-1.1-.46-1.65-.7a.79.79,0,0,1-.3-.21,2.23,2.23,0,0,1-.42-1.78" fill="#231f20"/>
  <path d="M242,304.7h0s0,0,0,0" fill="#231f20"/>
  <path d="M261.63,303.61s0,0,0,0m2.57,1.89v-.06a.28.28,0,0,1,0,.09l0,0m.37,5.67s.05,0,.09,0,0-.16-.06-.17-.06.08,0,.15M206.27,305c0-.59.41-1.15.7-1s.78.17,1.14.59c.08.09.26.3.18-.17-.16-1.06.26-.94.35-1.48.16-.92.35-.2.55-.08s.36.35.54,0,.26-.2.35,0c.42.92.75-.06,1.08-.41s.44-.36.7-.22a10.63,10.63,0,0,0,3.07.69c.72.14,1.44,0,2.16.22.26.07.42.61.67.57l.21.05c.39-.41.78-1,1.17-.06.42-.59.82.75,1.23,0,.07-.11.17-.15.24-.11a3.36,3.36,0,0,0,2.23.14c.13,0,.28,0,.38.4.64.07,1.28-.65,1.92-.05.42.39.86.25,1.29.17a3.11,3.11,0,0,1,1.17.11,1.65,1.65,0,0,0,.73,0c.5-.16,1.08-.51,1.5,0s.77.84,1.19.12c0-.05.2-.13.27.17s.22.42.33.31c.62-.66,1.3.15,1.88-.36.76-.66,1.46.21,2.19,0a2.43,2.43,0,0,1,1.53-.11,2.92,2.92,0,0,0,2.35-.24c.62-.3,1.28,0,1.92,0,.16,0,.33,0,.47.36v0l0,.08c.14-.13.28-.39.41-.35,1.14.37,2.28-.67,3.41,0,.31.18.54-.35.84-.36,1.21,0,2.43.16,3.64-.5.32-.17.69-.1,1,.41.05.08.09.27.14.11.39-1.14.9-.57,1.34-.63a24.67,24.67,0,0,0,5.07-.86,21.9,21.9,0,0,1,2.77-.75,1.08,1.08,0,0,1,.79.29c.48.35.48.31.26,1.55v0c.82-.34,1.61-.21,2.35.93a1.22,1.22,0,0,1,.19.74,2.68,2.68,0,0,1,.13.34c.27,1.24.24,1.44-.25,1.8-.1.07-.27,0-.24.31s.17,0,.25,0c.23-.05.39.36.57.54.36.35.75.23,1.11.64a1,1,0,0,1,.34,1c0,.69-.11,1.32-.43,1.37s-.57.39-.83-.16c0-.07-.12,0-.18.08v0c-.28.42-.61,0-.91.58a1.29,1.29,0,0,0-.24.84c0,1-.23,1.49-.64,1.52-1.21.09-2.42.17-3.63.2a2.66,2.66,0,0,1-1.41-.37c-.27-.16-.55.29-.85.34-1.52.25-3-.15-4.57-.08s-2.79.09-4.19.11c-.82,0-1.64.32-2.46.28-1.54-.07-3.08.28-4.61,0-.44-.09-.91.29-1.36.2a5.4,5.4,0,0,0-2.15-.17,9.09,9.09,0,0,1-2.89.15c-.89-.08-1.76.13-2.65,0a5.8,5.8,0,0,0-1.91.29,1.5,1.5,0,0,1-1.19-.31c-.31-.21-.66.13-1,.19s-.82.88-1.17-.32c-.23.41-.51.12-.73.33-.39.38-.77-.18-1.14.06-.21.13-.18-.53-.28-.73s-.19-.87-.32.12-.52.86-.8.05c-.12-.33-.22-.35-.31,0-.15.57-.31.68-.51.2-.06-.16-.17-.28-.22-.09-.34,1.27-.79.13-1.17.46-.09.07-.17-.11-.17-.36,0-.67-.14-.64-.27-.27-.26.71-.59.61-.88.49-.94-.37-1.89-.06-2.82-.38-1.27-.43-2.55-.22-3.82-.53a6,6,0,0,0-2.18.17,1.58,1.58,0,0,1-1.57-.62c-.56-.66-1.18-.43-1.77-.47-.22,0-.41,0-.57-.46a3.18,3.18,0,0,1-.2-1.51c.07-.59.22-1.15.48-1.15.46,0,.86-.37,1.29-.81s.88-.06,1.33,0,.78.11,1.17.17c.06,0,.13.06.18,0a.74.74,0,0,0,.19-.58c0-.3-.13-.21-.2-.2a7.09,7.09,0,0,1-2.89-.82c-.55-.19-1.1-.45-1.65-.69a.82.82,0,0,1-.3-.21,2.23,2.23,0,0,1-.43-1.78" fill="#231f20"/>
  <path d="M390,407.35h0" fill="#231f20"/>
  <path d="M409.63,406.26s0,0,0,0m2.56,1.89v0s0,0,0,0m.37,5.67s.06,0,.09,0,0-.16-.06-.17-.06.08,0,.15m-58.29-6.16c0-.6.4-1.15.69-1s.78.17,1.14.59c.08.09.26.3.19-.17-.17-1.06.25-.94.35-1.48.15-.92.34-.21.55-.08s.35.35.53.05.27-.2.36,0c.42.92.74-.06,1.08-.41s.43-.36.7-.22a10.49,10.49,0,0,0,3.06.69c.72.14,1.44,0,2.16.22.26.07.43.61.67.57l.22.05c.38-.41.77-1,1.17-.06.41-.59.81.75,1.23,0,.06-.11.16-.15.23-.11a3.36,3.36,0,0,0,2.23.14c.14,0,.29,0,.38.4.64.07,1.28-.65,1.93-.05.42.39.86.25,1.28.17a3.09,3.09,0,0,1,1.17.11,1.64,1.64,0,0,0,.73,0c.5-.16,1.08-.51,1.51,0s.76.84,1.18.12c0-.05.2-.13.27.17s.22.42.33.31c.62-.66,1.31.15,1.88-.36.76-.66,1.46.21,2.19,0a2.44,2.44,0,0,1,1.53-.11,3,3,0,0,0,2.35-.23c.62-.31,1.28,0,1.92,0a.48.48,0,0,1,.47.36v0s0,0,0,.08c.13-.13.27-.39.4-.35,1.14.37,2.28-.67,3.41,0,.31.18.54-.35.84-.36a7.54,7.54,0,0,0,3.64-.5c.32-.17.69-.1,1,.41.05.08.09.27.15.1.38-1.13.89-.56,1.34-.62a24.25,24.25,0,0,0,5.07-.87,23.5,23.5,0,0,1,2.76-.74,1.12,1.12,0,0,1,.8.29c.47.35.47.31.26,1.55v0c.82-.34,1.6-.22,2.34.93a1.28,1.28,0,0,1,.2.74,2.69,2.69,0,0,1,.12.34c.27,1.23.24,1.44-.25,1.8-.09.07-.27,0-.24.31s.17,0,.26,0,.38.36.56.54c.37.35.76.23,1.11.64a1.07,1.07,0,0,1,.35,1c0,.69-.12,1.32-.44,1.37s-.56.39-.83-.16c0-.07-.11,0-.17.07h0c-.27.42-.61,0-.9.58a1.22,1.22,0,0,0-.25.84c0,1-.23,1.49-.64,1.52-1.21.09-2.42.17-3.63.2a2.61,2.61,0,0,1-1.4-.37c-.27-.16-.56.29-.85.34-1.53.25-3.05-.15-4.58-.08s-2.79.09-4.19.11c-.81,0-1.64.32-2.46.28-1.54-.07-3.07.28-4.61,0-.44-.09-.9.29-1.35.2a5.47,5.47,0,0,0-2.16-.17,9.37,9.37,0,0,1-2.89.15c-.88-.08-1.76.13-2.64,0a5.72,5.72,0,0,0-1.91.29,1.52,1.52,0,0,1-1.2-.31c-.3-.21-.66.13-1,.19s-.83.88-1.18-.32c-.23.41-.51.11-.73.33-.39.38-.76-.18-1.14.06-.21.13-.17-.53-.28-.73s-.19-.87-.32.11-.52.86-.8.06c-.12-.33-.22-.35-.3,0-.16.57-.31.68-.52.2-.06-.16-.17-.28-.22-.09-.33,1.27-.79.13-1.17.46-.09.07-.16-.11-.17-.36,0-.67-.14-.64-.27-.27-.26.71-.59.61-.88.49-.93-.37-1.88-.06-2.82-.38-1.27-.44-2.54-.22-3.81-.53a6,6,0,0,0-2.19.17,1.61,1.61,0,0,1-1.57-.62c-.56-.66-1.17-.43-1.77-.47-.21,0-.41,0-.57-.46a3.31,3.31,0,0,1-.2-1.51c.07-.59.22-1.16.48-1.15.46,0,.86-.37,1.29-.81s.89-.06,1.34,0,.77.12,1.16.18c.06,0,.13.06.18,0a.75.75,0,0,0,.19-.58c0-.3-.13-.21-.2-.2a7.09,7.09,0,0,1-2.89-.82c-.55-.19-1.1-.45-1.65-.69a.91.91,0,0,1-.3-.21,2.23,2.23,0,0,1-.42-1.78" fill="#231f20"/>
  <path d="M360,374h0s0,0,0,0" fill="#231f20"/>
  <path d="M379.7,372.92s0,0,0,0m2.57,1.89v0s0,0,0,0m.37,5.67s.05,0,.09,0,0-.16-.06-.17-.06.08,0,.15m-58.29-6.16c0-.59.4-1.15.69-1s.78.17,1.14.59c.08.1.26.3.18-.17-.16-1.06.26-.94.35-1.48.16-.92.35-.2.55-.07s.36.34.54,0,.26-.2.35,0c.42.92.75-.06,1.09-.41s.43-.36.69-.22a10,10,0,0,0,3.07.69c.72.15,1.44,0,2.16.22.26.07.42.61.67.58l.21,0c.39-.41.78-1,1.17-.06.42-.59.82.75,1.23,0,.07-.1.17-.15.24-.11a3.3,3.3,0,0,0,2.23.14c.14,0,.28,0,.38.4.64.07,1.28-.65,1.92-.05.43.39.86.25,1.29.17a3.11,3.11,0,0,1,1.17.11,1.51,1.51,0,0,0,.73,0c.5-.16,1.08-.51,1.5,0s.77.84,1.19.12c0-.05.2-.13.27.17s.22.42.33.31c.62-.66,1.3.15,1.88-.35.76-.67,1.46.2,2.19,0a2.43,2.43,0,0,1,1.53-.11,3,3,0,0,0,2.35-.23c.62-.31,1.28,0,1.92,0,.16,0,.33,0,.47.36v0l0,.08c.14-.13.28-.38.41-.34,1.14.36,2.28-.68,3.41,0,.31.18.54-.35.84-.36,1.21,0,2.43.16,3.64-.5.32-.17.69-.1,1,.41.05.08.09.27.14.11.39-1.13.9-.57,1.34-.63a24.67,24.67,0,0,0,5.07-.86,21.9,21.9,0,0,1,2.77-.75,1.1,1.1,0,0,1,.79.3c.48.34.48.3.26,1.54v0c.82-.33,1.61-.21,2.35.93a1.22,1.22,0,0,1,.19.74,1.71,1.71,0,0,1,.13.34c.27,1.24.24,1.44-.25,1.8-.1.07-.27,0-.24.31s.17,0,.26,0,.38.36.56.54c.36.35.75.23,1.11.64a1,1,0,0,1,.34,1c0,.69-.11,1.32-.43,1.37s-.57.39-.83-.16c0-.07-.12.05-.18.08v0c-.28.42-.61,0-.9.58a1.22,1.22,0,0,0-.25.84c0,1-.23,1.49-.64,1.52-1.21.09-2.42.17-3.63.2a2.57,2.57,0,0,1-1.41-.37c-.27-.15-.55.29-.84.34-1.53.25-3.05-.15-4.58-.08s-2.79.09-4.19.11c-.82,0-1.64.32-2.46.28-1.54-.07-3.07.28-4.62,0-.43-.09-.9.28-1.35.19a5.59,5.59,0,0,0-2.15-.17,9.09,9.09,0,0,1-2.89.15c-.88-.08-1.76.14-2.65,0a5.8,5.8,0,0,0-1.91.29,1.51,1.51,0,0,1-1.19-.31c-.31-.21-.66.13-1,.19s-.82.89-1.17-.32c-.23.41-.51.12-.73.33-.39.38-.77-.18-1.14.06-.21.13-.18-.53-.28-.73s-.19-.87-.32.12-.52.86-.8.05c-.12-.33-.22-.35-.3,0-.16.57-.32.68-.52.2-.06-.16-.17-.28-.22-.09-.34,1.27-.79.13-1.17.46-.09.08-.17-.11-.17-.36,0-.66-.14-.64-.27-.27-.26.71-.59.61-.88.49-.94-.37-1.89-.06-2.82-.38-1.27-.43-2.55-.22-3.82-.53a6,6,0,0,0-2.18.17,1.59,1.59,0,0,1-1.57-.62c-.56-.66-1.18-.43-1.77-.47-.22,0-.41,0-.57-.46a3.16,3.16,0,0,1-.2-1.51c.07-.58.22-1.15.48-1.15.46,0,.86-.37,1.29-.81s.88-.06,1.33,0,.78.11,1.17.17c.06,0,.13.06.18,0a.72.72,0,0,0,.19-.57c0-.3-.13-.22-.2-.21a7.09,7.09,0,0,1-2.89-.82c-.55-.19-1.1-.45-1.65-.69a.72.72,0,0,1-.3-.21,2.2,2.2,0,0,1-.42-1.78" fill="#231f20"/>
  <path d="M289.89,374h0s0,0,0,0" fill="#231f20"/>
  <path d="M309.57,372.92s0,0,0,0m2.56,1.89v0s0,0,0,0m.37,5.67s.06,0,.09,0,0-.16-.06-.17-.06.08,0,.15m-58.29-6.16c0-.59.4-1.15.69-1s.78.17,1.14.59c.08.1.27.3.19-.17-.17-1.06.26-.94.35-1.48.15-.92.35-.2.55-.07s.35.34.53,0,.27-.2.36,0c.42.92.74-.06,1.08-.41s.43-.36.7-.22a9.88,9.88,0,0,0,3.07.69c.71.15,1.43,0,2.15.22.26.07.43.61.67.58l.22,0c.38-.41.77-1,1.17-.06.41-.59.81.75,1.23,0,.06-.1.16-.15.24-.11a3.27,3.27,0,0,0,2.22.14c.14,0,.29,0,.38.4.64.07,1.28-.65,1.93-.05.42.39.86.25,1.28.17a3.09,3.09,0,0,1,1.17.11,1.51,1.51,0,0,0,.73,0c.5-.16,1.08-.51,1.51,0s.76.84,1.18.12c0-.05.2-.13.27.17s.22.42.33.31c.62-.66,1.31.15,1.88-.35.76-.67,1.46.2,2.19,0a2.44,2.44,0,0,1,1.53-.11,3,3,0,0,0,2.35-.23c.62-.31,1.28,0,1.92,0a.48.48,0,0,1,.47.36v0s0,.05,0,.08c.13-.13.27-.38.4-.34,1.14.36,2.28-.68,3.41,0,.31.18.54-.35.84-.36,1.22,0,2.44.16,3.64-.5.32-.17.69-.1,1,.41,0,.08.09.27.15.11.38-1.13.89-.57,1.34-.63a24.9,24.9,0,0,0,5.07-.86,21.76,21.76,0,0,1,2.76-.75,1.13,1.13,0,0,1,.8.3c.47.34.47.3.26,1.54v0c.82-.33,1.61-.21,2.34.93a1.28,1.28,0,0,1,.2.74,2.69,2.69,0,0,1,.12.34c.27,1.24.24,1.44-.25,1.8-.09.07-.27,0-.24.31s.17,0,.26,0,.38.36.57.54c.36.35.75.23,1.1.64a1,1,0,0,1,.35,1c0,.69-.12,1.32-.44,1.37s-.56.39-.83-.16c0-.07-.11.05-.17.08s0,0,0,0c-.27.42-.61,0-.9.58a1.22,1.22,0,0,0-.25.84c0,1-.23,1.49-.64,1.52-1.21.09-2.42.17-3.63.2a2.52,2.52,0,0,1-1.4-.37c-.27-.15-.56.29-.85.34-1.53.25-3.05-.15-4.57-.08s-2.8.09-4.2.11c-.81,0-1.64.32-2.46.28-1.53-.07-3.07.28-4.61,0-.44-.09-.9.28-1.35.19a5.62,5.62,0,0,0-2.15-.17,9.1,9.1,0,0,1-2.89.15c-.89-.08-1.77.14-2.65,0a5.72,5.72,0,0,0-1.91.29,1.52,1.52,0,0,1-1.2-.31c-.3-.21-.66.13-1,.19s-.83.89-1.18-.32c-.23.41-.51.12-.73.33-.39.38-.76-.18-1.14.06-.21.13-.17-.53-.27-.73s-.2-.87-.33.12-.52.86-.8.05c-.12-.33-.22-.35-.3,0-.16.57-.31.68-.52.2-.06-.16-.17-.28-.22-.09-.33,1.27-.79.13-1.17.46-.09.08-.16-.11-.17-.36,0-.66-.14-.64-.27-.27-.25.71-.58.61-.87.49-.94-.37-1.89-.06-2.83-.38-1.27-.43-2.54-.22-3.81-.53a6.06,6.06,0,0,0-2.19.17,1.6,1.6,0,0,1-1.57-.62c-.55-.66-1.17-.43-1.77-.47-.21,0-.41,0-.57-.46a3.29,3.29,0,0,1-.2-1.51c.07-.58.22-1.15.48-1.15.46,0,.86-.37,1.29-.81s.89-.06,1.34,0,.77.11,1.16.17c.06,0,.13.06.18,0a.72.72,0,0,0,.19-.57c0-.3-.13-.22-.2-.21a7.09,7.09,0,0,1-2.89-.82c-.55-.19-1.1-.45-1.65-.69a.79.79,0,0,1-.3-.21,2.23,2.23,0,0,1-.42-1.78" fill="#231f20"/>
  <path d="M432.5,374h0s0,0,0,0" fill="#231f20"/>
  <path d="M452.17,372.92h0m2.56,1.89v-.06a.34.34,0,0,1,0,.1.08.08,0,0,0,0,0m.38,5.67s.05,0,.08,0,0-.16-.05-.17-.07.08,0,.15m-58.3-6.16c.05-.59.4-1.15.7-1s.77.17,1.14.59c.08.1.26.3.18-.17-.17-1.06.26-.94.35-1.48.15-.92.35-.2.55-.07s.36.34.54,0,.26-.2.35,0c.42.92.75-.06,1.08-.41s.44-.36.7-.22a9.88,9.88,0,0,0,3.07.69c.72.15,1.44,0,2.16.22.26.07.42.61.67.58l.21,0c.39-.41.77-1,1.17-.06.41-.59.81.75,1.23,0,.06-.1.16-.15.24-.11a3.28,3.28,0,0,0,2.22.14c.14,0,.29,0,.39.4.64.07,1.28-.65,1.92-.05.42.39.86.25,1.29.17a3,3,0,0,1,1.16.11,1.55,1.55,0,0,0,.74,0c.5-.16,1.07-.51,1.5,0s.77.84,1.18.12c0-.05.2-.13.27.17s.23.42.34.31c.62-.66,1.3.15,1.88-.35.76-.67,1.46.2,2.19,0a2.43,2.43,0,0,1,1.53-.11,3,3,0,0,0,2.35-.23c.62-.31,1.27,0,1.91,0a.49.49,0,0,1,.48.36s0,0,0,0v0l0,.08c.14-.13.28-.38.41-.34,1.13.36,2.27-.68,3.41,0,.3.18.54-.35.84-.36,1.21,0,2.43.16,3.64-.5.32-.17.69-.1,1,.41.06.08.09.27.15.11.39-1.13.89-.57,1.34-.63a24.78,24.78,0,0,0,5.07-.86,21.45,21.45,0,0,1,2.77-.75,1.1,1.1,0,0,1,.79.3c.48.34.48.3.26,1.54v0c.82-.33,1.61-.21,2.35.93a1.29,1.29,0,0,1,.19.74,2.69,2.69,0,0,1,.12.34c.28,1.24.25,1.44-.25,1.8-.09.07-.26,0-.23.31s.16,0,.25,0,.38.36.57.54c.36.35.75.23,1.11.64a1,1,0,0,1,.34,1c0,.69-.12,1.32-.44,1.37s-.56.39-.82-.16c0-.07-.12.05-.18.08v0c-.28.42-.62,0-.91.58a1.28,1.28,0,0,0-.25.84c0,1-.22,1.49-.63,1.52-1.21.09-2.42.17-3.63.2a2.57,2.57,0,0,1-1.41-.37c-.27-.15-.55.29-.85.34-1.52.25-3-.15-4.57-.08s-2.79.09-4.19.11c-.82,0-1.65.32-2.46.28-1.54-.07-3.08.28-4.62,0-.43-.09-.9.28-1.35.19a5.61,5.61,0,0,0-2.15-.17,9.09,9.09,0,0,1-2.89.15c-.89-.08-1.77.14-2.65,0a5.8,5.8,0,0,0-1.91.29,1.5,1.5,0,0,1-1.19-.31c-.31-.21-.66.13-1,.19s-.82.89-1.18-.32c-.22.41-.5.12-.72.33-.4.38-.77-.18-1.15.06-.2.13-.17-.53-.27-.73s-.19-.87-.32.12-.52.86-.81.05c-.11-.33-.21-.35-.3,0-.15.57-.31.68-.51.2-.07-.16-.17-.28-.22-.09-.34,1.27-.79.13-1.17.46-.09.08-.17-.11-.18-.36,0-.66-.13-.64-.27-.27-.25.71-.58.61-.87.49-.94-.37-1.89-.06-2.82-.38-1.27-.43-2.55-.22-3.82-.53a6,6,0,0,0-2.18.17,1.58,1.58,0,0,1-1.57-.62c-.56-.66-1.18-.43-1.77-.47-.22,0-.41,0-.58-.46a3.29,3.29,0,0,1-.19-1.51c.06-.58.22-1.15.48-1.15.46,0,.86-.37,1.29-.81s.88-.06,1.33,0,.78.11,1.17.17c.06,0,.12.06.18,0a.76.76,0,0,0,.19-.57c0-.3-.13-.22-.21-.21a7.09,7.09,0,0,1-2.88-.82c-.56-.19-1.1-.45-1.65-.69a.66.66,0,0,1-.3-.21,2.19,2.19,0,0,1-.43-1.78" fill="#231f20"/>
  <path d="M340.55,259h0" fill="#a97c50"/>
  <path d="M320.88,260.11h0m-2.56-1.89v.06a.38.38,0,0,1,0-.1.08.08,0,0,0,0,0m-.38-5.67s-.05,0-.08,0,0,.17.05.18.07-.08,0-.15m58.3,6.16c-.05.59-.4,1.15-.69,1s-.78-.17-1.15-.59c-.08-.1-.26-.3-.18.17.17,1.06-.26.94-.35,1.48-.15.92-.35.2-.55.07s-.36-.34-.54,0-.26.2-.35,0c-.42-.92-.75.06-1.08.41s-.44.36-.7.22a9.88,9.88,0,0,0-3.07-.69c-.72-.15-1.43,0-2.15-.22-.27-.07-.43-.61-.68-.58l-.21,0c-.39.41-.77,1-1.17.06-.41.59-.81-.75-1.23,0-.06.1-.16.15-.24.11a3.28,3.28,0,0,0-2.22-.14c-.14,0-.29,0-.39-.4-.64-.07-1.28.65-1.92.05-.42-.39-.86-.25-1.29-.17a3,3,0,0,1-1.16-.11,1.51,1.51,0,0,0-.73,0c-.51.16-1.08.51-1.51,0s-.77-.84-1.18-.12c0,.05-.2.13-.27-.17s-.23-.42-.34-.31c-.62.66-1.3-.15-1.87.35-.77.67-1.47-.21-2.2,0a2.43,2.43,0,0,1-1.53.11,3,3,0,0,0-2.35.23c-.61.31-1.27,0-1.91,0a.47.47,0,0,1-.47-.36v0l0-.08c-.14.13-.28.38-.4.34-1.14-.36-2.28.68-3.42,0-.3-.18-.54.35-.83.36-1.22,0-2.44-.16-3.65.5-.32.17-.68.1-1-.41-.06-.08-.09-.27-.15-.11-.39,1.13-.89.57-1.34.63a24.14,24.14,0,0,0-5.07.87,23.14,23.14,0,0,1-2.77.74,1.1,1.1,0,0,1-.79-.3c-.47-.34-.48-.3-.26-1.54v0c-.82.33-1.61.21-2.35-.93a1.29,1.29,0,0,1-.19-.74,2.69,2.69,0,0,1-.12-.34c-.27-1.24-.25-1.44.25-1.8.09-.07.26,0,.24-.31s-.17,0-.26,0-.38-.36-.57-.54c-.36-.35-.75-.23-1.1-.64a1,1,0,0,1-.35-1c0-.69.12-1.32.44-1.37s.56-.39.82.16c0,.07.12,0,.18-.08v0c.28-.42.62,0,.91-.58a1.28,1.28,0,0,0,.25-.84c0-1,.22-1.49.64-1.52,1.2-.09,2.41-.17,3.62-.2a2.57,2.57,0,0,1,1.41.37c.27.16.56-.29.85-.34,1.52-.25,3.05.15,4.57.08s2.8-.09,4.19-.11c.82,0,1.65-.32,2.46-.28,1.54.07,3.08-.28,4.62,0,.43.09.9-.28,1.35-.19a5.62,5.62,0,0,0,2.15.17,9.1,9.1,0,0,1,2.89-.15c.89.08,1.77-.14,2.65,0a5.76,5.76,0,0,0,1.91-.29,1.53,1.53,0,0,1,1.2.31c.3.21.66-.13,1-.19s.83-.89,1.18.32c.22-.41.5-.12.72-.33.4-.38.77.18,1.15-.06.2-.13.17.53.27.73s.2.87.33-.12.51-.86.8-.05c.11.33.21.35.3,0,.16-.57.31-.68.51-.2.07.16.18.28.23.09.33-1.27.78-.13,1.16-.46.09-.08.17.11.18.36,0,.66.13.64.27.27.25-.71.58-.61.87-.49.94.37,1.89.06,2.82.38,1.27.43,2.55.22,3.82.53a6,6,0,0,0,2.18-.17,1.58,1.58,0,0,1,1.57.62c.56.66,1.18.43,1.77.47.22,0,.42,0,.58.46a3.16,3.16,0,0,1,.19,1.51c-.06.58-.21,1.15-.48,1.15-.46,0-.86.37-1.29.81s-.88.06-1.33,0-.78-.11-1.17-.17c-.05,0-.12-.06-.18,0a.76.76,0,0,0-.19.57c0,.3.13.22.21.21a7.14,7.14,0,0,1,2.89.82c.55.19,1.1.45,1.64.69a.66.66,0,0,1,.3.21,2.19,2.19,0,0,1,.43,1.78" fill="#a97c50"/>
  <path d="M380.77,354.28h0" fill="#a97c50"/>
  <path d="M361.09,355.38s0,0,0,0m-2.56-1.9v0m-.37-5.67s-.06,0-.09,0,0,.16.06.17.06-.08,0-.15M416.45,354c0,.6-.4,1.15-.69,1s-.78-.18-1.14-.6c-.08-.09-.26-.3-.19.17.17,1.06-.26.95-.35,1.48-.15.92-.34.21-.55.08s-.36-.35-.53,0-.27.19-.36,0c-.42-.92-.74.06-1.08.41s-.43.36-.7.23a10.19,10.19,0,0,0-3.07-.7c-.71-.14-1.43,0-2.15-.22-.26-.07-.43-.6-.67-.57l-.21-.05c-.39.41-.78,1-1.18.06-.41.59-.81-.75-1.23,0-.06.11-.16.15-.23.11a3.3,3.3,0,0,0-2.23-.13c-.14,0-.29-.05-.38-.41-.64-.06-1.28.65-1.93,0-.42-.39-.86-.25-1.28-.17a3.3,3.3,0,0,1-1.17-.1,1.5,1.5,0,0,0-.73,0c-.5.16-1.08.52-1.51,0s-.76-.84-1.18-.12c0,.05-.2.13-.27-.17s-.22-.42-.33-.3c-.62.65-1.31-.16-1.88.35-.76.67-1.46-.21-2.19,0a2.38,2.38,0,0,1-1.53.11,2.91,2.91,0,0,0-2.35.24c-.62.3-1.28,0-1.92,0a.49.49,0,0,1-.47-.37v0s0,0,0-.07c-.13.12-.27.38-.4.34-1.14-.36-2.28.67-3.41,0-.31-.18-.54.35-.84.36a7.54,7.54,0,0,0-3.64.5c-.32.17-.69.1-1-.41-.05-.08-.09-.27-.15-.1-.38,1.13-.89.57-1.34.62a24.92,24.92,0,0,0-5.07.87,21.7,21.7,0,0,1-2.76.74,1.08,1.08,0,0,1-.8-.29c-.47-.35-.47-.3-.26-1.55v0c-.82.34-1.6.22-2.34-.93a1.26,1.26,0,0,1-.2-.74,2.69,2.69,0,0,1-.12-.34c-.27-1.23-.24-1.43.25-1.8.09-.07.27,0,.24-.3s-.17,0-.26,0-.38-.36-.56-.54c-.37-.35-.76-.23-1.11-.64a1,1,0,0,1-.35-1c0-.68.12-1.32.44-1.37s.56-.39.83.16c0,.07.11,0,.17-.07h0c.27-.42.61,0,.9-.58a1.22,1.22,0,0,0,.25-.84c0-1,.23-1.48.64-1.52,1.21-.08,2.42-.17,3.63-.2a2.63,2.63,0,0,1,1.4.37c.27.16.56-.29.85-.33,1.53-.26,3.05.15,4.57.07s2.8-.09,4.2-.11c.81,0,1.64-.32,2.46-.28,1.53.08,3.07-.28,4.61,0,.44.09.9-.29,1.35-.2a5.29,5.29,0,0,0,2.16.17,9.33,9.33,0,0,1,2.88-.15c.89.09,1.77-.13,2.65,0a6,6,0,0,0,1.91-.28,1.45,1.45,0,0,1,1.2.31c.3.2.66-.14,1-.2s.83-.88,1.18.32c.23-.41.51-.11.73-.33.39-.38.76.18,1.14-.06.21-.13.17.53.28.74s.19.86.32-.12.52-.86.8-.06c.12.33.22.35.3,0,.16-.57.31-.68.52-.19.06.15.17.27.22.08.33-1.27.79-.13,1.17-.45.09-.08.16.11.17.35,0,.67.14.64.27.27.26-.71.59-.61.88-.49.93.38,1.88.06,2.82.38,1.27.44,2.54.22,3.81.53a6.06,6.06,0,0,0,2.19-.17,1.61,1.61,0,0,1,1.57.62c.55.66,1.17.43,1.77.47.21,0,.41,0,.57.46a3.31,3.31,0,0,1,.2,1.51c-.07.59-.22,1.16-.48,1.15-.46,0-.86.37-1.29.81s-.89.06-1.34,0-.77-.12-1.16-.18c-.06,0-.13-.06-.18,0a.75.75,0,0,0-.19.58c0,.3.13.21.2.2a7.25,7.25,0,0,1,2.89.82c.55.19,1.1.45,1.65.69a1.1,1.1,0,0,1,.3.21,2.23,2.23,0,0,1,.42,1.78" fill="#a97c50"/>
  <path d="M232.78,251.63h0s0,0,0,0" fill="#726658"/>
  <path d="M213.1,252.73h0m-2.56-1.9v.06a.28.28,0,0,1,0-.09,0,0,0,0,0,0,0m-.38-5.67s0,0-.08,0,0,.16,0,.17.07-.08,0-.15m58.3,6.16c0,.6-.4,1.15-.69,1s-.78-.18-1.15-.6c-.08-.09-.26-.3-.18.17.17,1.06-.26.95-.35,1.48-.15.92-.35.21-.55.08s-.36-.35-.54,0-.26.19-.35,0c-.42-.92-.75.06-1.08.42s-.44.35-.7.22a10.19,10.19,0,0,0-3.07-.7c-.72-.14-1.43,0-2.15-.22-.27-.06-.43-.6-.68-.57l-.21-.05c-.39.41-.77,1-1.17.07-.41.58-.81-.76-1.23-.05-.06.11-.16.15-.24.11a3.27,3.27,0,0,0-2.22-.13c-.14,0-.29,0-.39-.41-.64-.06-1.28.65-1.92.06-.42-.39-.86-.25-1.28-.18a3.3,3.3,0,0,1-1.17-.1,1.39,1.39,0,0,0-.73,0c-.51.15-1.08.51-1.51,0s-.77-.84-1.18-.12c0,.05-.2.13-.27-.17s-.23-.42-.34-.3c-.62.65-1.3-.16-1.87.35-.77.67-1.47-.21-2.2,0a2.37,2.37,0,0,1-1.53.11,3,3,0,0,0-2.35.24c-.61.3-1.27,0-1.91,0a.48.48,0,0,1-.47-.36v0l0-.07c-.14.12-.28.38-.4.34-1.14-.36-2.28.67-3.42,0-.3-.18-.54.35-.83.36-1.22.05-2.44-.15-3.65.5-.32.17-.68.1-1-.4-.06-.09-.09-.28-.15-.11-.39,1.13-.89.57-1.34.62a24.81,24.81,0,0,0-5.07.87,21.4,21.4,0,0,1-2.77.74,1,1,0,0,1-.79-.29c-.47-.34-.48-.3-.26-1.55v0c-.82.34-1.61.22-2.35-.93a1.27,1.27,0,0,1-.19-.74,2.69,2.69,0,0,1-.12-.34c-.27-1.23-.25-1.43.25-1.8.09-.07.26,0,.23-.3s-.16,0-.25,0-.38-.36-.57-.54c-.36-.35-.75-.23-1.1-.64a1,1,0,0,1-.35-1c0-.68.12-1.31.44-1.36s.56-.4.82.16c0,.06.12-.05.18-.08h0c.28-.42.62,0,.91-.57a1.33,1.33,0,0,0,.25-.85c0-1,.22-1.48.64-1.51,1.21-.09,2.41-.18,3.62-.21a2.76,2.76,0,0,1,1.41.37c.27.16.56-.29.85-.33,1.52-.26,3.05.15,4.57.07s2.8-.09,4.19-.11c.82,0,1.65-.32,2.46-.28,1.54.08,3.08-.28,4.62,0,.43.09.9-.29,1.35-.2a5.25,5.25,0,0,0,2.15.17,9.41,9.41,0,0,1,2.89-.15c.89.09,1.77-.13,2.65,0a6.06,6.06,0,0,0,1.91-.28,1.49,1.49,0,0,1,1.2.31c.3.2.66-.13,1-.2s.83-.88,1.18.33c.22-.42.5-.12.72-.34.4-.38.77.18,1.15-.06.2-.13.17.53.27.74s.2.86.33-.12.51-.86.8-.06c.11.33.21.35.3,0,.15-.57.31-.68.51-.19.07.15.18.27.23.08.33-1.27.78-.13,1.16-.45.09-.08.17.11.18.35,0,.67.13.64.27.27.25-.71.58-.61.87-.49.94.38,1.89.06,2.82.38,1.27.44,2.55.22,3.82.53a6,6,0,0,0,2.18-.17,1.6,1.6,0,0,1,1.57.62c.56.66,1.18.43,1.77.47.22,0,.42,0,.58.46a3.31,3.31,0,0,1,.19,1.51c-.06.59-.21,1.16-.48,1.15-.46,0-.86.37-1.29.81s-.88.06-1.33,0-.78-.12-1.17-.18c-.05,0-.12-.06-.18,0a.79.79,0,0,0-.19.58c0,.3.13.21.21.2a7.25,7.25,0,0,1,2.89.82c.55.19,1.1.45,1.64.69a.86.86,0,0,1,.3.21,2.19,2.19,0,0,1,.43,1.78" fill="#726658"/>
  <path d="M262.7,285h0s0,0,0,0" fill="#c2b59b"/>
  <path d="M243,286.06s0,0,0,0m-2.56-1.89v0m-.37-5.67s-.06,0-.09,0,0,.16.06.17.06-.08,0-.15m58.29,6.16c0,.6-.4,1.15-.69,1s-.78-.17-1.14-.59c-.08-.09-.27-.3-.19.17.17,1.06-.26.95-.35,1.48-.15.92-.35.21-.55.08s-.36-.35-.53,0-.27.19-.36,0c-.42-.92-.74.06-1.08.41s-.43.36-.7.22a10.48,10.48,0,0,0-3.07-.69c-.71-.14-1.43,0-2.15-.22-.26-.07-.43-.61-.67-.57l-.22-.05c-.38.41-.77,1-1.17.06-.41.59-.81-.75-1.23,0-.06.11-.16.15-.24.11a3.33,3.33,0,0,0-2.22-.14c-.14,0-.29,0-.38-.4-.64-.07-1.28.65-1.93,0-.42-.39-.86-.25-1.28-.17a3.09,3.09,0,0,1-1.17-.11,1.64,1.64,0,0,0-.73,0c-.5.16-1.08.51-1.51,0s-.76-.84-1.18-.12c0,.05-.2.13-.27-.17s-.22-.42-.33-.3c-.62.65-1.31-.16-1.88.35-.76.66-1.46-.21-2.19,0a2.38,2.38,0,0,1-1.53.11,2.91,2.91,0,0,0-2.35.24c-.62.3-1.28,0-1.92,0a.48.48,0,0,1-.47-.36v0s0,0,0-.08c-.13.13-.27.39-.4.35-1.14-.37-2.28.67-3.41,0-.31-.18-.54.35-.84.36a7.53,7.53,0,0,0-3.64.5c-.32.17-.69.1-1-.41-.05-.08-.09-.27-.15-.1-.38,1.13-.89.56-1.34.62a24.92,24.92,0,0,0-5.07.87,23.5,23.5,0,0,1-2.76.74,1.12,1.12,0,0,1-.8-.29c-.47-.35-.47-.31-.26-1.55,0,0,0,0,0,0-.82.34-1.61.22-2.34-.93a1.28,1.28,0,0,1-.2-.74,2.69,2.69,0,0,1-.12-.34c-.27-1.23-.25-1.44.25-1.8.09-.07.27,0,.24-.31s-.17,0-.26,0-.38-.36-.57-.54c-.36-.35-.75-.23-1.1-.64a1,1,0,0,1-.35-1c0-.69.12-1.31.44-1.37s.56-.39.83.16c0,.07.11,0,.17-.07h0c.27-.42.61,0,.9-.58a1.22,1.22,0,0,0,.25-.84c0-1,.23-1.49.64-1.52,1.21-.08,2.42-.17,3.63-.2a2.63,2.63,0,0,1,1.4.37c.27.16.56-.29.85-.34,1.53-.25,3.05.15,4.57.08s2.8-.09,4.2-.11c.81,0,1.64-.32,2.46-.28,1.53.07,3.07-.28,4.61,0,.44.09.9-.29,1.35-.2a5.43,5.43,0,0,0,2.15.17,9.41,9.41,0,0,1,2.89-.15c.89.08,1.77-.13,2.65,0a6,6,0,0,0,1.91-.28,1.48,1.48,0,0,1,1.2.3c.3.21.66-.13,1-.19s.83-.88,1.18.32c.23-.41.51-.11.73-.33.39-.38.76.18,1.14-.06.21-.13.17.53.27.73s.2.87.33-.11.52-.86.8-.06c.12.33.22.35.3,0,.16-.57.31-.68.52-.2.06.16.17.28.22.09.33-1.27.79-.13,1.17-.46.09-.07.16.12.17.36,0,.67.14.64.27.27.25-.71.58-.61.87-.49.94.37,1.89.06,2.83.38,1.27.44,2.54.22,3.81.53a6.06,6.06,0,0,0,2.19-.17,1.62,1.62,0,0,1,1.57.62c.55.66,1.17.43,1.77.47.21,0,.41,0,.57.46a3.31,3.31,0,0,1,.2,1.51c-.07.59-.22,1.16-.48,1.15-.46,0-.86.37-1.29.81s-.89.06-1.34,0-.77-.12-1.16-.18c-.06,0-.13-.06-.18,0a.75.75,0,0,0-.19.58c0,.3.13.21.2.2A7.09,7.09,0,0,1,296,282c.55.19,1.1.45,1.65.69a.91.91,0,0,1,.3.21,2.23,2.23,0,0,1,.42,1.78" fill="#c2b59b"/>
  <path d="M332.83,285h0s0,0,0,0" fill="#a97c50"/>
  <path d="M313.16,286.06h0m-2.56-1.89v.06a.28.28,0,0,1,0-.09,0,0,0,0,0,0,0m-.38-5.67s-.05,0-.08,0,0,.16.05.17.07-.08,0-.15m58.3,6.16c0,.6-.4,1.15-.7,1s-.77-.17-1.14-.59c-.08-.09-.26-.3-.18.17.17,1.06-.26.95-.35,1.48-.15.92-.35.21-.55.08s-.36-.35-.54,0-.26.19-.35,0c-.42-.92-.75.06-1.08.41s-.44.36-.7.22a10.48,10.48,0,0,0-3.07-.69c-.72-.14-1.44,0-2.16-.22-.26-.07-.42-.61-.67-.57l-.21-.05c-.39.41-.77,1-1.17.06-.41.59-.81-.75-1.23,0-.06.11-.16.15-.24.11a3.34,3.34,0,0,0-2.22-.14c-.14,0-.29,0-.39-.4-.64-.07-1.28.65-1.92,0-.42-.39-.86-.25-1.29-.17a3,3,0,0,1-1.16-.11,1.68,1.68,0,0,0-.74,0c-.5.16-1.07.51-1.5,0s-.77-.84-1.18-.12c0,.05-.2.13-.27-.17s-.23-.42-.34-.3c-.62.65-1.3-.16-1.88.35-.76.66-1.46-.21-2.19,0a2.37,2.37,0,0,1-1.53.11,2.92,2.92,0,0,0-2.35.24c-.61.3-1.27,0-1.91,0a.47.47,0,0,1-.47-.36v0a.69.69,0,0,1,0-.08c-.14.13-.28.39-.4.35-1.14-.37-2.28.67-3.42,0-.3-.18-.54.35-.84.36a7.56,7.56,0,0,0-3.64.5c-.32.17-.68.1-1-.41-.06-.08-.09-.27-.15-.1-.39,1.13-.89.56-1.34.62a24.81,24.81,0,0,0-5.07.87,23.14,23.14,0,0,1-2.77.74,1.08,1.08,0,0,1-.79-.29c-.47-.35-.48-.31-.26-1.55v0c-.82.34-1.61.22-2.35-.93a1.29,1.29,0,0,1-.19-.74,2.69,2.69,0,0,1-.12-.34c-.28-1.23-.25-1.44.25-1.8.09-.07.26,0,.23-.31s-.16,0-.25,0-.38-.36-.57-.54c-.36-.35-.75-.23-1.1-.64a1,1,0,0,1-.35-1c0-.69.12-1.31.44-1.37s.56-.39.82.16c0,.07.12,0,.18-.07h0c.28-.42.62,0,.91-.58a1.28,1.28,0,0,0,.25-.84c0-1,.22-1.49.63-1.52,1.21-.08,2.42-.17,3.63-.2a2.66,2.66,0,0,1,1.41.37c.27.16.55-.29.85-.34,1.52-.25,3.05.15,4.57.08s2.8-.09,4.19-.11c.82,0,1.65-.32,2.46-.28,1.54.07,3.08-.28,4.62,0,.43.09.9-.29,1.35-.2a5.42,5.42,0,0,0,2.15.17,9.39,9.39,0,0,1,2.89-.15c.89.08,1.77-.13,2.65,0a6.06,6.06,0,0,0,1.91-.28,1.45,1.45,0,0,1,1.19.3c.31.21.67-.13,1-.19s.82-.88,1.18.32c.22-.41.5-.11.72-.33.4-.38.77.18,1.15-.06.2-.13.17.53.27.73s.2.87.33-.11.51-.86.8-.06c.11.33.21.35.3,0,.15-.57.31-.68.51-.2.07.16.17.28.22.09.34-1.27.79-.13,1.17-.46.09-.07.17.12.18.36,0,.67.13.64.27.27.25-.71.58-.61.87-.49.94.37,1.89.06,2.82.38,1.27.44,2.55.22,3.82.53a6,6,0,0,0,2.18-.17,1.6,1.6,0,0,1,1.57.62c.56.66,1.18.43,1.77.47.22,0,.41,0,.58.46a3.18,3.18,0,0,1,.19,1.51c-.06.59-.21,1.16-.48,1.15-.46,0-.86.37-1.29.81s-.88.06-1.33,0-.78-.12-1.17-.18c-.06,0-.12-.06-.18,0a.79.79,0,0,0-.19.58c0,.3.13.21.21.2a7.09,7.09,0,0,1,2.88.82c.56.19,1.1.45,1.65.69a.75.75,0,0,1,.3.21,2.19,2.19,0,0,1,.43,1.78" fill="#a97c50"/>
  <path d="M190.23,285h0s0,0,0,0" fill="#a97c50"/>
  <path d="M170.56,286.06s0,0,0,0M168,284.17v0m-.37-5.67s-.06,0-.09,0,0,.16.06.17.06-.08,0-.15m58.29,6.16c0,.6-.4,1.15-.69,1s-.78-.17-1.14-.59c-.08-.09-.26-.3-.19.17.17,1.06-.25.95-.34,1.48-.16.92-.35.21-.55.08s-.36-.35-.54,0-.27.19-.35,0c-.42-.92-.75.06-1.09.41s-.43.36-.7.22a10.49,10.49,0,0,0-3.06-.69c-.72-.14-1.44,0-2.16-.22-.26-.07-.43-.61-.67-.57l-.21-.05c-.39.41-.78,1-1.18.06-.41.59-.81-.75-1.22,0-.07.11-.17.15-.24.11a3.36,3.36,0,0,0-2.23-.14c-.13,0-.29,0-.38-.4-.64-.07-1.28.65-1.93,0-.42-.39-.85-.25-1.28-.17a3.11,3.11,0,0,1-1.17-.11,1.64,1.64,0,0,0-.73,0c-.5.16-1.08.51-1.51,0s-.76-.84-1.18-.12c0,.05-.2.13-.27-.17s-.22-.42-.33-.3c-.62.65-1.3-.16-1.88.35-.76.66-1.46-.21-2.19,0a2.37,2.37,0,0,1-1.53.11,2.91,2.91,0,0,0-2.35.24c-.62.3-1.28,0-1.92,0a.48.48,0,0,1-.47-.36v0s0,0,0-.08c-.13.13-.27.39-.4.35-1.14-.37-2.28.67-3.41,0-.31-.18-.54.35-.84.36a7.56,7.56,0,0,0-3.64.5c-.32.17-.69.1-1-.41-.05-.08-.09-.27-.14-.1-.39,1.13-.9.56-1.35.62a24.71,24.71,0,0,0-5.06.87,23.66,23.66,0,0,1-2.77.74,1.08,1.08,0,0,1-.79-.29c-.48-.35-.48-.31-.27-1.55,0,0,0,0,0,0-.81.34-1.6.22-2.34-.93a1.22,1.22,0,0,1-.19-.74,1.71,1.71,0,0,1-.13-.34c-.27-1.23-.24-1.44.25-1.8.09-.07.27,0,.24-.31s-.17,0-.26,0-.38-.36-.56-.54c-.37-.35-.76-.23-1.11-.64a1,1,0,0,1-.34-1c0-.69.11-1.31.43-1.37s.56-.39.83.16c0,.07.11,0,.18-.07h0c.27-.42.61,0,.9-.58a1.22,1.22,0,0,0,.25-.84c0-1,.23-1.49.64-1.52,1.21-.08,2.42-.17,3.63-.2a2.61,2.61,0,0,1,1.4.37c.28.16.56-.29.85-.34,1.53-.25,3.05.15,4.58.08s2.79-.09,4.19-.11c.81,0,1.64-.32,2.46-.28,1.54.07,3.07-.28,4.61,0,.44.09.91-.29,1.35-.2a5.47,5.47,0,0,0,2.16.17,9.37,9.37,0,0,1,2.89-.15c.88.08,1.76-.13,2.65,0a6,6,0,0,0,1.9-.28,1.48,1.48,0,0,1,1.2.3c.31.21.66-.13,1-.19s.82-.88,1.17.32c.23-.41.51-.11.73-.33.39-.38.76.18,1.14-.06.21-.13.17.53.28.73s.19.87.32-.11.52-.86.8-.06c.12.33.22.35.3,0,.16-.57.32-.68.52-.2.06.16.17.28.22.09.33-1.27.79-.13,1.17-.46.09-.07.16.12.17.36,0,.67.14.64.27.27.26-.71.59-.61.88-.49.94.37,1.89.06,2.82.38,1.27.44,2.55.22,3.82.53a6,6,0,0,0,2.18-.17,1.61,1.61,0,0,1,1.57.62c.56.66,1.17.43,1.77.47.21,0,.41,0,.57.46a3.18,3.18,0,0,1,.2,1.51c-.07.59-.22,1.16-.48,1.15-.46,0-.86.37-1.29.81s-.89.06-1.33,0-.78-.12-1.17-.18c-.06,0-.13-.06-.18,0a.75.75,0,0,0-.19.58c0,.3.13.21.2.2a7.09,7.09,0,0,1,2.89.82c.55.19,1.1.45,1.65.69a.91.91,0,0,1,.3.21,2.23,2.23,0,0,1,.42,1.78" fill="#a97c50"/>
</svg>
