<svg id="Layer_1" data-name="Layer 1" xmlns="http://www.w3.org/2000/svg" viewBox="0 0 1440 490">
  <path d="M1324.94,410.75l-.79,56.64a21.91,21.91,0,0,0,.35,2.89l0-.08c-.08,6.6-.19,13.2-.25,19.8h-13c0-11.86.19-23.72.18-35.58,0-22.75.49-45.49.46-68.18,0-21.33-.88-42.64-.74-64,.11-18.39,1.29-36.78,1.72-55.19.11-4.34.34-8.95-1.33-13l0,.07c2-5-1.73-10.85,1.23-15.7.06-1.34.26-2.7.26-4,0-.35,0-.7,0-1-.74-7.56.85-9.56,5.86-7,1.11.56,2.55-.09,3.31,1.75l-.08.14.07-.06c3.4,5.13,1.76,11.45,1.83,17.19.33,28.13.32,56.28.34,84.44,0,17.27-.3,34.57.14,51.83.11,4.71.72,9.44.29,14.22v0C1324.77,400.8,1325,405.78,1324.94,410.75Z" fill="#cd704b"/>
  <path d="M1353.37,453.49c-1.11,12.16-1.57,24.34-1.92,36.51h-11.18c.62-10.76,1.78-21.5,2.22-32.26A306.39,306.39,0,0,0,1338.9,398c-1.79-11.49,1.92-23,1.65-34.52-.38-16.09-.51-32.19-2.12-48.26-1.14-11.41,1.56-22.78-.06-34.17a9.63,9.63,0,0,0-1.48-4.3c-1.64-2.44,1.92-3.69,5.82-4.18,4.24-.54,5.35,1.12,5.41,2.8.24,7,.13,14,.67,21,1.41,18.24,2.3,36.47,2.36,54.72,0,9.51-1.2,19-.44,28.54,1,12,1.1,23.94,1.87,35.91C1353.4,428.19,1354.53,440.81,1353.37,453.49Z" fill="#cd704b"/>
  <path d="M1381.15,475.84c-.58,4.71-1,9.43-1.34,14.16h-10.49c.36-3.61.69-7.22.91-10.83a215,215,0,0,0-2.88-50.4c-1.7-9.68,2.06-19.33,1.85-29-.33-13.56-.42-27.13-2-40.67-1.12-9.61,1.57-19.2,0-28.79a7.34,7.34,0,0,0-1.48-3.63c-1.63-2,1.92-3.11,5.83-3.52,4.23-.45,5.35.94,5.41,2.36.23,5.9.12,11.81.65,17.7,1.41,15.38,2.28,30.77,2.28,46.17,0,8-1.28,16-.55,24.08.9,10.12.94,20.25,1.57,30.39C1381.53,454.56,1382.44,465.24,1381.15,475.84Z" fill="#cd704b"/>
  <path d="M1303.15,409.2c-1.79,22.76-2.21,45.58-2.85,68.39-.12,4.13-.14,8.27-.13,12.41h-10.82c0-2.12,0-4.24,0-6.35-.78-23.07,2-46,2.93-69a526.55,526.55,0,0,0-2.89-78.56c-1.68-15.12,2.13-30.2,1.94-45.34-.27-21.15-.32-42.31-1.89-63.43-1.1-15,1.6-29.93,0-44.9a15.57,15.57,0,0,0-1.47-5.66c-1.64-3.2,1.92-4.84,5.83-5.49,4.23-.71,5.34,1.47,5.4,3.68.24,9.2.12,18.41.65,27.61,1.39,24,2.23,48,2.19,72,0,12.51-1.33,25-.65,37.54.87,15.75.87,31.51,1.5,47.27C1303.49,375.94,1304.45,392.56,1303.15,409.2Z" fill="#cd704b"/>
  <path d="M1215.6,398.66c-1.8,26.47-2.24,53-2.92,79.52-.1,3.94-.13,7.88-.14,11.82h-10.8c0-1.59,0-3.19-.06-4.77-.74-26.81,2.07-53.49,3-80.23a708.73,708.73,0,0,0-2.86-91.3c-1.66-17.58,2.16-35.12,2-52.72-.25-24.58-.28-49.18-1.83-73.72-1.09-17.43,1.62-34.8,0-52.19a20.62,20.62,0,0,0-1.47-6.57c-1.64-3.73,1.92-5.64,5.82-6.39,4.24-.82,5.35,1.71,5.41,4.28.23,10.7.11,21.4.64,32.09,1.37,27.87,2.2,55.75,2.12,83.64,0,14.55-1.37,29.06-.69,43.62.85,18.31.84,36.62,1.47,54.92C1215.94,360,1216.91,379.31,1215.6,398.66Z" fill="#cd704b"/>
  <path d="M1173.66,382.57c-1.8,27.36-2.25,54.78-2.93,82.19-.2,8.41-.14,16.83-.11,25.24h-11.18c.29-6,.44-12,.28-17.95-.73-27.71,2.08-55.29,3-82.92a758.72,758.72,0,0,0-2.85-94.36c-1.66-18.17,2.17-36.31,2-54.49-.24-25.41-.26-50.83-1.8-76.2-1.1-18,1.63-36,0-53.94a21.93,21.93,0,0,0-1.47-6.79c-1.64-3.85,1.92-5.82,5.83-6.6,4.23-.85,5.34,1.76,5.4,4.42.23,11.06.11,22.12.64,33.17,1.36,28.8,2.19,57.62,2.1,86.45,0,15-1.37,30-.69,45.08.84,18.91.83,37.84,1.45,56.76C1174,342.62,1175,362.56,1173.66,382.57Z" fill="#cd704b"/>
  <path d="M1138,397.13c-1.58,24.26-1.84,48.57-2.37,72.87-.14,6.66-.07,13.33,0,20h-11c.18-4.49.25-9,.09-13.45-.88-24.53,1.75-49,2.46-73.48a595.87,595.87,0,0,0-3.6-83.57c-1.79-16.09,1.92-32.2,1.65-48.31-.38-22.52-.51-45.05-2.11-67.53-1.14-16,1.55-31.88-.07-47.81a17.44,17.44,0,0,0-1.48-6c-1.63-3.41,1.92-5.15,5.83-5.85,4.23-.75,5.35,1.57,5.41,3.92.24,9.8.12,19.6.66,29.38,1.42,25.51,2.31,51,2.37,76.56,0,13.31-1.21,26.61-.44,39.93,1,16.75,1.1,33.51,1.87,50.26C1138.05,361.72,1139.18,379.38,1138,397.13Z" fill="#cd704b"/>
  <path d="M1051.58,399.24c-1.79,24-2.21,48-2.87,72.07-.17,6.23-.14,12.46-.11,18.69h-11c.18-4.1.24-8.2.11-12.3-.77-24.31,2-48.5,3-72.74a582.81,582.81,0,0,0-2.88-82.77c-1.67-15.93,2.15-31.83,2-47.78-.26-22.28-.31-44.58-1.87-66.83-1.1-15.8,1.61-31.54,0-47.31a16.89,16.89,0,0,0-1.47-6c-1.64-3.37,1.92-5.1,5.83-5.79,4.23-.74,5.35,1.55,5.4,3.88.24,9.7.12,19.4.65,29.09,1.39,25.27,2.22,50.54,2.16,75.83,0,13.19-1.33,26.34-.65,39.55.86,16.59.86,33.2,1.48,49.79C1051.93,364.2,1052.89,381.7,1051.58,399.24Z" fill="#cd704b"/>
  <path d="M1007.31,388.35c-1.88,25.33-2.37,50.71-3.08,76.08-.24,8.52-.15,17.05-.14,25.57H992.78c.38-6.29.61-12.57.43-18.85-.71-25.67,2.16-51.21,3.16-76.8a649.56,649.56,0,0,0-2.62-87.4c-1.62-16.83,2.24-33.6,2.1-50.44-.22-23.52-.22-47.07-1.76-70.56-1.08-16.68,1.64-33.29,0-49.94a19.13,19.13,0,0,0-1.47-6.3c-1.64-3.56,1.92-5.38,5.83-6.11,4.23-.78,5.34,1.64,5.4,4.1.23,10.24.11,20.49.64,30.72,1.36,26.68,2.17,53.37,2.05,80.07-.05,13.93-1.4,27.82-.75,41.76.81,17.53.76,35.06,1.34,52.59C1007.76,351.36,1008.67,369.84,1007.31,388.35Z" fill="#cd704b"/>
  <path d="M969.37,422.38v0l.06-.07Z" fill="#cd704b"/>
  <path d="M969.62,377.34c-.55-10.15-.49-20.37-.42-30.49.12-16.4-.22-32.79,0-49.19.12-8.9-.25-17.83.12-26.69.44-10.61-.34-21.18.15-31.77.33-7.37-.2-14.75-.27-22.13-.12-11.35.18-22.7-.44-34-.2-3.57-1-7.32-.19-10.82a37.28,37.28,0,0,0,.54-10.64,69.45,69.45,0,0,1,.72-13.27,77.58,77.58,0,0,0,.48-15.24c-.13-2.45-.87-3.35-2-3.91-2.31-1.17-4.59,1.62-5,6.13a15.71,15.71,0,0,1-.71,4.72c-.71-1.36-.56-3.13-.8-4.71-.37-2.46-1-5-2.65-5.26-1.52-.25-2.78,1.19-3.78,3.17a9.57,9.57,0,0,0-.54,4.35,18,18,0,0,1-1,7.08,11.7,11.7,0,0,0-.39,5c.26,5.85.3,11.69.14,17.56-.37,12.91.79,25.77.46,38.71-.2,7.53.4,15.18.28,22.64-.13,8.16.14,16.23.27,24.34.06,3.77-.25,7.62.69,11.23-1.79,7.22-.14,14.73-.71,22.17-.76,10.12.91,20.35.05,30.84-.59,7.24.13,15-.1,22.52-.4,13.74.48,27.44.07,41.24-.38,12.62-.21,25.29-.72,38-.52,13.17-.7,26.38-1.15,39.57q-.55,15.8-.88,31.61h16.5c.32-5.12,2-10.29-.18-15.38a7.75,7.75,0,0,1,.27-2.72,22,22,0,0,0,.56-5h0a5.11,5.11,0,0,0,.39-3,99.59,99.59,0,0,1-.29-16.39c.07-1.78.62-3.42.2-5.37-.73-3.39-1.57-6.74-.06-10.47.55-1.37,0-3.68-.75-5.26,0-1.5-.07-3.05.81-4-.17-2.54,1-5.07,0-7.61-.24-.22-.62-.34-.46-1,0-.2.36-.22.55-.32.76-6.54-.61-13,.15-19.78A102,102,0,0,0,969.62,377.34ZM969,466.86l-.69-.35C968.72,465.69,968.8,466.41,969,466.86Z" fill="#cd704b"/>
  <path d="M1104.55,294.26c-.13,16.8-1.35,33.61-.83,50.37a297.28,297.28,0,0,1-.56,29.88c-.71,10.27-.81,20.56-1.24,30.83-.26,6.41-.63,12.89.2,19.32,0,5.58-.16,11.18,0,16.76.47,16.2-.15,32.39-.46,48.58h-14.47c0-18.49-1.22-37-.49-55.47.49-12.71,1.07-25.4,1-38.12,0-9.1-.39-18.21-.34-27.3.09-14.13-.07-28.26-.23-42.39-.14-13,0-25.94.82-38.93.77-12.73,1.32-25.6-.41-38.36-.21-1.55.85-3.13-.22-4.59v0l-.45-1.06,0,0c.81-5.11-.29-10.19-.3-15.3,0-10.6-1.06-21.13.29-31.82a74.63,74.63,0,0,0,.26-16.41c-.45-4.49.93-9.92-.32-14.33-1.54-5.42,1.61-5.19,4.32-6.18a3.63,3.63,0,0,1,2.9.35c2.47,1.15,4.36,3.52,7.68,3,1.88-.32,1.62,2.52,1.73,4,1.92,25.14,1.15,50.32.9,75.5C1104.16,259.84,1104.68,277.05,1104.55,294.26Z" fill="#cd704b"/>
  <path d="M871,399.9c-1.89,23.9-2.38,47.86-3.09,71.81-.18,6.09-.17,12.19-.14,18.29h-11c.16-4,.22-8,.11-12-.72-24.24,2.16-48.35,3.16-72.5A577.83,577.83,0,0,0,857.46,323c-1.61-15.89,2.24-31.71,2.1-47.61-.22-22.21-.23-44.44-1.77-66.62-1.08-15.74,1.63-31.43,0-47.15a17.17,17.17,0,0,0-1.47-5.94c-1.64-3.37,1.92-5.09,5.82-5.77,4.24-.74,5.35,1.54,5.41,3.87.23,9.66.11,19.34.64,29,1.37,25.19,2.18,50.39,2.08,75.61-.06,13.15-1.4,26.26-.75,39.43.81,16.55.75,33.11,1.32,49.66C871.46,365,872.35,382.43,871,399.9Z" fill="#cd704b"/>
  <path d="M819.3,436.67c-1.77,17.73-2.34,35.52-2.94,53.33H805.09c.27-16.33,2.38-32.61,3.25-48.91a376.69,376.69,0,0,0-2.36-67c-1.6-12.89,2.25-25.69,2.08-38.6-.23-18-.28-36.06-1.84-54.07-1.09-12.78,1.59-25.52,0-38.28a11.89,11.89,0,0,0-1.47-4.82c-1.64-2.73,1.92-4.13,5.83-4.68,4.23-.6,5.34,1.25,5.4,3.14.24,7.84.11,15.7.65,23.54,1.38,20.45,2.22,40.92,2.15,61.4,0,10.68-1.37,21.32-.71,32,.81,13.45.76,26.92,1.28,40.38C819.89,408.35,820.71,422.53,819.3,436.67Z" fill="#cd704b"/>
  <path d="M781.73,435.88c1.29,3.65,1.82,7.14-.47,10.47a1.58,1.58,0,0,0-.27,1.09c2.35,7.5-2,15.15-.26,22,1.93,7.54.35,13.76-1,20.53H764.47a32.45,32.45,0,0,1,.75-4c.83-3.28,1.18-7.44-.66-10.92,1.66-4.76-1-9.32-.39-14.13,1-8.1.2-16.48,2.62-24.34a6,6,0,0,0-.21-3.63c-1.28-2.93-.83-5.65.12-8.43a15.87,15.87,0,0,0,.41-10.08c-.81-2.6-1.56-5.16.21-7.67a2.5,2.5,0,0,0,.41-1.61c-3.08-4.48-.25-9.81-1.37-14.55l-.05.05c2.27-10.15-1.1-20.86,2.25-31.18a16.71,16.71,0,0,0-1.71-12.82c-1.19-1.88,1.34-10.68,3.73-12.46s3.72.82,5.16,2.64c5.88,4.8,9.72,10.68,8.5,20.61-.68,5.49,1.7,11.06.69,16.89-.73,4.25-.48,8.78-2.06,12.84-.14.35-.48.84-.4,1,2.28,5,.74,10.46,1,15.7a39.85,39.85,0,0,1,.36,5.83,17.82,17.82,0,0,0,1.06,8.1c1.29,3.73,1.43,7.85-2.36,10.68C781.27,429.55,780.8,433.27,781.73,435.88Z" fill="#cd704b"/>
  <path d="M927.85,257c-.17,18.88-1.46,37.77-1,56.61.29,11.27.07,22.44-.64,33.58-.74,11.54-.87,23.11-1.33,34.65-.29,7.21-.67,14.49.13,21.72v-.06c0,6.3-.19,12.6,0,18.89.43,18.6-.29,37.17-.62,55.75-.07,3.94-.11,7.88-.14,11.82H909.79c.06-3.77.11-7.54.13-11.31,0-21.35-1.15-42.69-.35-64,.54-14.28,1.16-28.55,1.14-42.85,0-10.22-.35-20.45-.26-30.67.13-15.89,0-31.77-.11-47.65-.1-14.58.1-29.16.94-43.77.82-14.3,1.37-28.77-.31-43.11-.21-1.74.85-3.51-.22-5.16v0l-.44-1.18,0,.06c.81-5.75-.28-11.46-.28-17.2,0-11.91-1-23.75.34-35.76a93.38,93.38,0,0,0,.27-18.44c-.44-5.05.94-11.15-.31-16.1-1.54-6.1,1.61-5.84,4.32-7a3.25,3.25,0,0,1,2.9.4c2.47,1.29,4.36,4,7.67,3.32,1.89-.36,1.63,2.83,1.74,4.5,1.91,28.26,1.12,56.57.81,84.87C927.56,218.36,928,237.71,927.85,257Z" fill="#cd704b"/>
  <path d="M1262.46,334q.6,15.64-.29,31.13c-.61,10.71-.62,21.43-1,32.15-.21,6.69-.52,13.44.35,20.13v-.05c0,5.85-.07,11.69.13,17.53.59,17.25,0,34.48-.2,51.72,0,1.14,0,2.27,0,3.41h-14.42c0-.94,0-1.87,0-2.8-.09-19.78-1.44-39.53-.84-59.3.41-13.24.88-26.48.7-39.73-.12-9.47-.56-18.95-.58-28.43,0-14.73-.34-29.45-.6-44.18-.24-13.52-.17-27.05.56-40.61.71-13.28,1.18-26.71-.58-40-.22-1.61.84-3.26-.24-4.79v.06l-.45-1.1,0,.06c.79-5.34-.33-10.63-.35-16-.05-11.05-1.1-22,.23-33.18a81.8,81.8,0,0,0,.25-17.11c-.45-4.69.93-10.34-.33-14.94-1.54-5.65,1.61-5.41,4.32-6.44a3.48,3.48,0,0,1,2.9.37c2.47,1.19,4.36,3.66,7.67,3.07,1.89-.33,1.63,2.63,1.74,4.17,1.93,26.18,1.19,52.4,1,78.62-.12,17.91.49,35.83.46,53.74C1262.9,299,1261.8,316.53,1262.46,334Z" fill="#cd704b"/>
  <path d="M685.08,421.26l-.79,56.64a21.91,21.91,0,0,0,.35,2.89l0-.08-.12,9.29H671.43c.06-8.35.13-16.71.12-25.07,0-22.74.48-45.48.46-68.18,0-21.33-.88-42.64-.75-64,.12-18.39,1.29-36.78,1.72-55.19.11-4.34.35-9-1.32-13.05l-.06.07c2-5-1.72-10.85,1.23-15.7.07-1.34.27-2.71.27-4,0-.35,0-.7-.05-1-.74-7.57.85-9.56,5.86-7,1.1.55,2.55-.09,3.3,1.74l-.08.14.08-.06c3.39,5.13,1.76,11.45,1.83,17.19.33,28.13.31,56.28.34,84.44,0,17.27-.31,34.57.13,51.83.12,4.69.72,9.41.3,14.16C684.91,411.26,685.15,416.26,685.08,421.26Z" fill="#cd704b"/>
  <path d="M713.5,464c-.79,8.66-1.25,17.32-1.58,26H701.14c.57-7.25,1.2-14.5,1.49-21.75a305.47,305.47,0,0,0-3.6-59.72c-1.79-11.5,1.92-23,1.65-34.53-.38-16.09-.51-32.19-2.11-48.26-1.14-11.41,1.55-22.78-.07-34.16a9.71,9.71,0,0,0-1.48-4.31c-1.63-2.44,1.92-3.69,5.83-4.18,4.23-.54,5.35,1.12,5.41,2.8.24,7,.12,14,.66,21,1.42,18.23,2.31,36.46,2.37,54.71,0,9.51-1.21,19-.44,28.54,1,12,1.1,23.94,1.87,35.91C713.53,438.7,714.66,451.32,713.5,464Z" fill="#cd704b"/>
  <path d="M741.28,486.35c-.15,1.22-.29,2.43-.42,3.65H730.35c0-.11,0-.21,0-.32a214.33,214.33,0,0,0-2.89-50.39c-1.7-9.69,2.07-19.34,1.85-29-.32-13.56-.42-27.13-2-40.67-1.12-9.61,1.57-19.19-.05-28.79a7.32,7.32,0,0,0-1.47-3.63c-1.64-2.05,1.92-3.1,5.83-3.52,4.23-.45,5.34.94,5.4,2.36.24,5.9.12,11.81.66,17.71,1.4,15.37,2.27,30.76,2.28,46.16,0,8-1.28,16-.56,24.08.9,10.12.94,20.25,1.57,30.39C741.66,465.07,742.58,475.75,741.28,486.35Z" fill="#cd704b"/>
  <path d="M663.28,419.71c-1.79,22.76-2.21,45.58-2.85,68.39,0,.63,0,1.27,0,1.9H649.33c-.35-21.67,2.17-43.26,3-64.88a523.89,523.89,0,0,0-2.89-78.56c-1.67-15.12,2.14-30.2,1.95-45.34-.27-21.15-.33-42.31-1.9-63.43-1.1-15,1.6-29.93,0-44.9a15.77,15.77,0,0,0-1.47-5.66c-1.64-3.2,1.91-4.84,5.82-5.49,4.24-.7,5.35,1.47,5.41,3.68.23,9.2.11,18.41.65,27.61,1.39,24,2.22,48,2.18,72,0,12.52-1.32,25-.64,37.54.87,15.75.87,31.51,1.5,47.27C663.62,386.46,664.59,403.07,663.28,419.71Z" fill="#cd704b"/>
  <path d="M575.55,389.58c-1.8,26.47-2.24,53-2.92,79.52-.17,7-.15,13.93-.12,20.9h-11c.18-4.62.25-9.24.12-13.85-.74-26.81,2.07-53.5,3-80.23a710.49,710.49,0,0,0-2.87-91.3c-1.66-17.58,2.17-35.13,2-52.72-.25-24.58-.28-49.18-1.83-73.72-1.09-17.43,1.63-34.8,0-52.19a20.74,20.74,0,0,0-1.47-6.58c-1.64-3.72,1.92-5.63,5.83-6.38,4.23-.82,5.34,1.71,5.4,4.28.24,10.7.11,21.4.65,32.09,1.36,27.87,2.19,55.75,2.11,83.64,0,14.55-1.37,29.06-.68,43.62.84,18.3.84,36.62,1.46,54.92C575.89,350.92,576.86,370.23,575.55,389.58Z" fill="#cd704b"/>
  <path d="M541,394.1c-1.8,27.36-2.25,54.78-2.93,82.19-.11,4.57-.14,9.14-.14,13.71H527.12c0-2.14,0-4.28,0-6.42-.74-27.71,2.07-55.29,3-82.92a758.72,758.72,0,0,0-2.85-94.36c-1.66-18.17,2.17-36.31,2-54.49-.24-25.41-.26-50.83-1.8-76.2-1.1-18,1.63-36,0-53.94a21.93,21.93,0,0,0-1.47-6.79c-1.64-3.85,1.92-5.82,5.83-6.6,4.23-.85,5.34,1.76,5.4,4.42.24,11.06.11,22.12.65,33.17,1.35,28.8,2.18,57.62,2.09,86.45,0,15-1.37,30-.69,45.08.84,18.91.83,37.84,1.45,56.76C541.35,354.15,542.31,374.1,541,394.1Z" fill="#cd704b"/>
  <path d="M498.16,407.64c-1.59,24.27-1.84,48.58-2.37,72.87-.07,3.16-.09,6.33-.08,9.49H484.89c0-1,0-2-.07-2.94-.88-24.53,1.75-49,2.46-73.48A597.38,597.38,0,0,0,483.69,330c-1.79-16.08,1.92-32.2,1.65-48.31-.38-22.52-.51-45-2.12-67.53-1.14-16,1.56-31.88-.06-47.81a17.33,17.33,0,0,0-1.48-6c-1.64-3.42,1.92-5.16,5.83-5.85,4.23-.75,5.34,1.56,5.4,3.91.24,9.8.13,19.6.67,29.38,1.41,25.52,2.3,51,2.37,76.56,0,13.32-1.21,26.61-.44,39.94,1,16.74,1.09,33.5,1.86,50.25C498.19,372.23,499.32,389.89,498.16,407.64Z" fill="#cd704b"/>
  <path d="M411.72,409.75c-1.8,24-2.22,48-2.87,72.07-.08,2.73-.12,5.45-.13,8.18H397.89c0-.59,0-1.19,0-1.79-.77-24.31,2-48.5,2.95-72.74a582.87,582.87,0,0,0-2.88-82.77c-1.67-15.93,2.14-31.83,2-47.78-.27-22.28-.31-44.58-1.87-66.83-1.1-15.8,1.6-31.54,0-47.3a17.33,17.33,0,0,0-1.47-6c-1.64-3.37,1.92-5.1,5.82-5.79,4.24-.74,5.35,1.55,5.41,3.89.24,9.69.11,19.4.65,29.08,1.38,25.27,2.21,50.54,2.16,75.83,0,13.19-1.34,26.34-.66,39.55.86,16.59.86,33.2,1.49,49.8C412.06,374.71,413,392.21,411.72,409.75Z" fill="#cd704b"/>
  <path d="M367.44,398.87c-1.87,25.32-2.36,50.7-3.08,76.07-.14,5-.17,10-.16,15.06H353.37c.05-2.78.06-5.56,0-8.34-.71-25.67,2.16-51.21,3.15-76.8a649.55,649.55,0,0,0-2.61-87.4c-1.63-16.83,2.23-33.6,2.09-50.44-.21-23.52-.21-47.06-1.75-70.56-1.08-16.68,1.64-33.29,0-49.94a18.54,18.54,0,0,0-1.47-6.29c-1.63-3.57,1.92-5.39,5.83-6.12,4.24-.78,5.35,1.64,5.4,4.1.24,10.24.11,20.49.65,30.72,1.36,26.68,2.16,53.37,2,80.08,0,13.92-1.4,27.81-.75,41.76.81,17.52.76,35.05,1.33,52.58C367.9,361.87,368.81,380.35,367.44,398.87Z" fill="#cd704b"/>
  <path d="M324.22,420.46v0l0-.06Z" fill="#cd704b"/>
  <path d="M324.46,375.42c-.55-10.14-.48-20.36-.42-30.48.12-16.4-.21-32.8,0-49.2.12-8.9-.25-17.83.12-26.69.44-10.61-.34-21.18.15-31.77.34-7.37-.2-14.75-.27-22.12-.11-11.35.19-22.71-.44-34.06-.2-3.56-1-7.32-.19-10.81a37.35,37.35,0,0,0,.54-10.65,68.64,68.64,0,0,1,.73-13.27,78.35,78.35,0,0,0,.47-15.24c-.13-2.44-.87-3.34-2-3.91-2.31-1.17-4.59,1.62-5,6.14a15.69,15.69,0,0,1-.71,4.71c-.71-1.36-.56-3.12-.79-4.71-.37-2.46-1-5-2.66-5.25-1.52-.26-2.78,1.19-3.78,3.17a9.66,9.66,0,0,0-.54,4.34,17.94,17.94,0,0,1-.95,7.08c-.63,1.49-.46,3.33-.39,5,.26,5.86.3,11.7.14,17.56-.37,12.92.79,25.77.46,38.71-.2,7.53.4,15.18.28,22.64-.13,8.17.14,16.24.27,24.35.06,3.76-.25,7.62.7,11.23-1.8,7.21-.15,14.72-.71,22.17-.77,10.11.9,20.34,0,30.83-.58,7.24.13,15-.1,22.52-.39,13.74.48,27.44.07,41.25-.38,12.61-.21,25.28-.72,38-.52,13.16-.7,26.37-1.15,39.56-.39,11.17-.68,22.35-.93,33.53H323a5.5,5.5,0,0,0,.2-1.08c.15-5.4,2.19-10.84-.14-16.22a7.23,7.23,0,0,1,.27-2.71,22.12,22.12,0,0,0,.55-5h0a5.06,5.06,0,0,0,.39-3,100.69,100.69,0,0,1-.29-16.39c.07-1.78.62-3.41.2-5.36-.73-3.4-1.57-6.75-.06-10.48.55-1.36,0-3.68-.75-5.26,0-1.5-.07-3.06.82-4-.18-2.53,1-5.07,0-7.61-.24-.22-.61-.34-.46-1,0-.2.36-.22.56-.33.75-6.53-.62-13,.14-19.77A102.14,102.14,0,0,0,324.46,375.42Zm-.67,89.52-.68-.35C323.56,463.78,323.65,464.48,323.79,464.94Z" fill="#cd704b"/>
  <path d="M464.69,304.77c-.14,16.8-1.36,33.61-.84,50.37A297.23,297.23,0,0,1,463.3,385c-.71,10.27-.82,20.56-1.24,30.83-.27,6.42-.64,12.89.19,19.32v-.05c0,5.6-.16,11.21,0,16.81.37,12.7.06,25.38-.24,38.07H447.2c-.3-15-1-30-.37-44.95.5-12.71,1.08-25.41,1-38.13,0-9.1-.4-18.2-.34-27.3.09-14.13-.08-28.26-.24-42.39-.13-13,0-25.94.83-38.93.77-12.73,1.31-25.6-.41-38.36-.21-1.55.85-3.13-.23-4.59v.05l-.45-1.05c.78-5.1-.31-10.16-.32-15.26,0-10.6-1.06-21.13.29-31.82a74,74,0,0,0,.26-16.41c-.44-4.49.94-9.92-.31-14.33-1.54-5.42,1.61-5.19,4.32-6.18a3.63,3.63,0,0,1,2.9.35c2.47,1.16,4.36,3.52,7.67,3,1.89-.32,1.62,2.52,1.74,4,1.92,25.14,1.14,50.32.9,75.5C464.29,270.35,464.82,287.57,464.69,304.77Z" fill="#cd704b"/>
  <path d="M231.12,410.42c-1.89,23.89-2.38,47.86-3.09,71.81-.08,2.59-.12,5.18-.14,7.77H217.05l0-1.45c-.72-24.24,2.15-48.35,3.15-72.5a577.82,577.82,0,0,0-2.57-82.53c-1.62-15.89,2.24-31.71,2.1-47.61-.22-22.21-.23-44.44-1.77-66.62-1.09-15.74,1.62-31.43,0-47.15a16.73,16.73,0,0,0-1.47-5.94c-1.64-3.36,1.92-5.09,5.83-5.77,4.23-.74,5.35,1.54,5.4,3.87.24,9.67.11,19.34.65,29,1.37,25.19,2.17,50.39,2.07,75.61,0,13.15-1.39,26.26-.75,39.43.82,16.55.76,33.11,1.32,49.66C231.59,375.49,232.49,392.94,231.12,410.42Z" fill="#cd704b"/>
  <path d="M179.44,447.18c-1.42,14.24-2.07,28.52-2.58,42.82H165.63c.72-12.81,2.17-25.6,2.85-38.4a377.55,377.55,0,0,0-2.36-67c-1.61-12.9,2.24-25.7,2.07-38.61-.23-18-.28-36.06-1.84-54.07-1.08-12.78,1.6-25.52,0-38.27a11.75,11.75,0,0,0-1.48-4.83c-1.63-2.73,1.92-4.13,5.83-4.68,4.24-.6,5.35,1.25,5.4,3.14.24,7.85.12,15.7.65,23.54,1.39,20.45,2.22,40.92,2.15,61.4,0,10.68-1.37,21.32-.71,32,.82,13.45.77,26.92,1.28,40.38C180,418.86,180.84,433,179.44,447.18Z" fill="#cd704b"/>
  <path d="M141.86,446.39c1.29,3.65,1.82,7.14-.47,10.48a1.68,1.68,0,0,0-.27,1.08c2.36,7.5-2,15.15-.26,22a29.57,29.57,0,0,1,.78,10H126a11.52,11.52,0,0,0-1.27-4.35c1.67-4.77-1-9.33-.39-14.15,1-8.1.21-16.48,2.63-24.34a6,6,0,0,0-.21-3.63c-1.28-2.93-.83-5.65.12-8.43a15.84,15.84,0,0,0,.4-10.07c-.81-2.61-1.55-5.17.21-7.68.28-.4.57-1.39.41-1.61-3.08-4.48-.24-9.81-1.37-14.55l0,.05c2.27-10.15-1.1-20.85,2.25-31.18A16.75,16.75,0,0,0,127,357.24c-1.19-1.88,1.33-10.68,3.73-12.46s3.72.83,5.16,2.65h0c5.87,4.79,9.7,10.67,8.48,20.59-.68,5.49,1.71,11.06.7,16.89-.74,4.25-.49,8.78-2.06,12.84-.14.35-.48.84-.4,1,2.28,5,.74,10.46,1,15.7a38.56,38.56,0,0,1,.36,5.84,17.8,17.8,0,0,0,1.07,8.09c1.28,3.73,1.43,7.85-2.36,10.69C141.4,440.06,140.94,443.78,141.86,446.39Z" fill="#cd704b"/>
  <path d="M278.54,280.17c-.17,18.88-1.46,37.77-1,56.61.29,11.27.07,22.44-.64,33.57-.74,11.55-.88,23.11-1.33,34.66-.29,7.19-.67,14.45.13,21.66,0,6.3-.18,12.6,0,18.89.34,14.83-.05,29.63-.38,44.44H260.52c-.24-17.41-.91-34.81-.26-52.2.54-14.28,1.16-28.55,1.14-42.85,0-10.22-.35-20.46-.26-30.68.13-15.89,0-31.76-.11-47.64-.1-14.58.1-29.17.93-43.77.83-14.3,1.38-28.77-.3-43.12-.21-1.74.85-3.51-.22-5.16v.06l-.44-1.18,0,0c.81-5.74-.28-11.45-.28-17.19,0-11.91-1-23.75.34-35.77a93.27,93.27,0,0,0,.27-18.43c-.44-5.06.94-11.15-.31-16.1-1.54-6.1,1.61-5.84,4.32-7a3.28,3.28,0,0,1,2.9.39c2.47,1.3,4.36,4,7.67,3.32,1.89-.36,1.63,2.84,1.74,4.51,1.91,28.26,1.12,56.56.81,84.87C278.24,241.49,278.73,260.83,278.54,280.17Z" fill="#cd704b"/>
  <path d="M622.6,344.49q.58,15.64-.29,31.13c-.62,10.71-.63,21.44-1,32.15-.22,6.69-.53,13.44.35,20.14,0,5.82-.07,11.66.13,17.47.52,14.88.16,29.74-.09,44.62H607.1c-.31-17.2-1.27-34.39-.74-51.59.4-13.24.87-26.48.7-39.72-.12-9.48-.56-19-.59-28.44,0-14.73-.33-29.45-.59-44.18-.25-13.52-.18-27.05.55-40.61.72-13.28,1.18-26.71-.58-40-.21-1.61.84-3.26-.23-4.78v0l-.45-1.09,0,.05c.79-5.34-.33-10.63-.35-16,0-11-1.1-22,.23-33.18a80.46,80.46,0,0,0,.25-17.11c-.45-4.68.93-10.34-.32-14.94-1.54-5.65,1.61-5.41,4.31-6.44a3.48,3.48,0,0,1,2.9.37c2.48,1.2,4.37,3.66,7.68,3.07,1.89-.33,1.62,2.63,1.74,4.17,1.93,26.18,1.18,52.41,1,78.63-.11,17.9.49,35.82.46,53.73C623,309.52,621.93,327,622.6,344.49Z" fill="#cd704b"/>
  <path d="M728.74,302.66h0m-4.08,1.46,0,0,0,0v0m-3.38-2.65s-.08,0-.12.07a.41.41,0,0,0,.16,0c.07,0,0-.11,0-.11M795,248.62a.84.84,0,0,1-.34,1.19,9.54,9.54,0,0,1-1.68.78c-.15,0-.48.09-.14.27.75.4.18.75.34,1.12.29.64-.31.45-.62.57s-.61.16-.67.49a.4.4,0,0,1-.43.35c-1-.09-.87.75-1.09,1.26a1.35,1.35,0,0,1-.73.79,32.61,32.61,0,0,0-4.07,2.58c-.94.62-1.76,1.37-2.72,2-.36.22-.83.09-1.11.34l-.28.18c-.26.6-.41,1.29-1.39,1.16-.19.71-1.37.38-1.51,1.16a.42.42,0,0,1-.23.29,10.51,10.51,0,0,0-2.76,2.07.62.62,0,0,1-.67.16c-.81.58-1.21,1.57-2.3,1.88a4,4,0,0,0-1.64,1.14,10.43,10.43,0,0,1-1.47,1.07,4.63,4.63,0,0,0-.87.72c-.53.57-1,1.31-1.81,1.46s-1.36.29-1.49,1.08a.33.33,0,0,1-.42.17.41.41,0,0,0-.55.15c-.42.95-1.66,1.18-2.1,2-.57,1.09-1.87,1.3-2.64,2.12a7.18,7.18,0,0,1-1.79,1.53,9,9,0,0,0-2.72,2.39,11.15,11.15,0,0,1-2.33,1.83,1,1,0,0,1-.76.26h-.08c-.1.19-.14.46-.31.57-1.57.9-2.41,2.55-4.13,3.28-.46.2-.47.71-.83,1a23.2,23.2,0,0,0-4.14,3.77,1.85,1.85,0,0,1-1.42.75c-.1,0-.25-.06-.23.08.12,1-.79,1.16-1.3,1.63a71.71,71.71,0,0,0-5.68,5.34c-1,1.05-2,2.06-3,3.05a3.14,3.14,0,0,1-1.11.61c-.75.28-.74.3-1.12-.57v0a4.56,4.56,0,0,1-3.31,1.76.7.7,0,0,1-.62-.21,1.65,1.65,0,0,1-.32-.06c-1-.39-1-.53-.64-1.2.08-.12.34-.24.13-.39s-.2.17-.29.26-.65.18-1,.26c-.62.16-1,.6-1.67.72-.31.06-.62.19-.91-.18s-.54-.81-.18-1.14.48-.75,1.08-.71c.08,0,.12-.14.18-.21h0c.12-.49.73-.6.79-1.18,0-.27.14-.38-.13-.69-.51-.57-.5-1,0-1.42,1.41-1.21,2.83-2.42,4.28-3.6a8.19,8.19,0,0,1,1.89-1.16c.41-.17.52-.68.85-1,1.72-1.61,3.77-2.86,5.57-4.36s3.34-2.74,5-4.1c1-.79,1.82-1.75,2.82-2.52,1.9-1.44,3.58-3.1,5.61-4.42.57-.37.94-1,1.53-1.41a16.51,16.51,0,0,0,2.69-2,29.44,29.44,0,0,1,3.42-2.86c1.11-.81,2.06-1.77,3.18-2.57a17.69,17.69,0,0,0,2.16-2,4.57,4.57,0,0,1,1.6-1c.48-.19.74-.71,1.11-1.06s.54-1.27,1.59-1c.06-.43.55-.55.71-.87.27-.58,1-.64,1.35-1.14.18-.26.48.12.71.13s.68.27.33-.38.18-.95.94-.8c.31.07.44,0,.39-.26-.11-.46,0-.67.52-.61.15,0,.35,0,.31-.16-.25-1,.89-.83,1.18-1.37.07-.13.26-.1.39,0,.37.34.49.21.46-.12,0-.62.4-.88.81-1.1,1.33-.7,2.31-1.78,3.61-2.51,1.76-1,3.19-2.34,4.89-3.39a19.65,19.65,0,0,0,2.55-2.19,4.36,4.36,0,0,1,2.22-1.19,5.79,5.79,0,0,0,2.39-1.45,1.1,1.1,0,0,1,.93-.31,1.44,1.44,0,0,1,1,.61c.22.38.33.83,0,1.08a3.9,3.9,0,0,0-1.14,1.67c-.27.59-1,.89-1.61,1.3s-1,.68-1.5,1c-.07.06-.18.1-.22.17a.39.39,0,0,0,.07.49c.16.15.27,0,.35-.09a22.48,22.48,0,0,1,3.91-2.34c.77-.43,1.57-.82,2.36-1.22a1.75,1.75,0,0,1,.47-.17,1.26,1.26,0,0,1,1.43.53" fill="#3b3734"/>
  <path d="M726.52,255.29h0M725,251.87l0,0,.06,0h0m2.82-3.15s0-.06-.08-.09-.06.11,0,.14.11,0,.12-.05m56.55,59.6a1,1,0,0,1-1.26-.2c-.25-.48-.7-.84-.84-1.4,0-.12-.1-.4-.29-.09-.42.68-.8.21-1.19.39-.68.3-.48-.24-.61-.5s-.17-.52-.53-.54-.38-.16-.37-.34c.09-.86-.8-.7-1.34-.85a1.25,1.25,0,0,1-.85-.57,25,25,0,0,0-2.77-3.32c-.65-.77-1.46-1.41-2.09-2.2-.24-.29-.1-.71-.37-.93l-.19-.23c-.64-.17-1.37-.25-1.25-1.11-.75-.11-.4-1.16-1.23-1.21a.41.41,0,0,1-.31-.18,8.71,8.71,0,0,0-2.22-2.23.44.44,0,0,1-.16-.56c-.63-.66-1.69-.93-2-1.85a3.19,3.19,0,0,0-1.22-1.33,7.92,7.92,0,0,1-1.14-1.18,4,4,0,0,0-.77-.7c-.61-.41-1.4-.8-1.57-1.45s-.32-1.15-1.15-1.2a.25.25,0,0,1-.18-.35c.1-.24,0-.42-.17-.47-1-.29-1.26-1.34-2.14-1.65-1.16-.41-1.38-1.52-2.26-2.12a6.26,6.26,0,0,1-1.64-1.43,7.75,7.75,0,0,0-2.56-2.17,8.86,8.86,0,0,1-2-1.87.72.72,0,0,1-.28-.64h0v-.07c-.21-.07-.5-.08-.61-.22-1-1.29-2.72-1.88-3.51-3.31-.22-.39-.75-.36-1.07-.64a19.9,19.9,0,0,0-4-3.29,1.39,1.39,0,0,1-.8-1.16c0-.1.06-.22-.09-.2-1,.18-1.24-.59-1.73-1a66.08,66.08,0,0,0-5.71-4.5c-1.13-.73-2.21-1.52-3.27-2.32a2.23,2.23,0,0,1-.65-.91c-.3-.63-.32-.61.6-1h0a3.48,3.48,0,0,1-1.89-2.73.58.58,0,0,1,.23-.55.94.94,0,0,1,.06-.28c.42-.88.56-1,1.28-.65.13.06.25.28.41.08s-.18-.16-.28-.23c-.26-.19-.19-.55-.28-.82-.17-.52-.64-.84-.77-1.39-.07-.26-.2-.52.18-.8s.87-.53,1.23-.25.8.35.76.88c0,.07.14.09.22.13v0c.52.06.64.58,1.26.59.29,0,.41.08.73-.17.61-.49,1.07-.51,1.51-.13,1.3,1.13,2.59,2.26,3.85,3.42a6.22,6.22,0,0,1,1.24,1.55c.19.34.74.4,1.06.66,1.72,1.35,3.06,3,4.67,4.47s2.93,2.67,4.38,4c.85.78,1.87,1.43,2.69,2.25,1.54,1.53,3.33,2.84,4.73,4.49.4.47,1.09.74,1.51,1.22a14,14,0,0,0,2.12,2.17,25,25,0,0,1,3.06,2.73c.86.9,1.89,1.65,2.75,2.55a16.24,16.24,0,0,0,2.12,1.72,3.38,3.38,0,0,1,1.06,1.31c.2.4.75.57,1.13.87s1.35.37,1,1.3c.47,0,.59.43.94.54.62.19.69.83,1.21,1.08.29.14-.12.43-.13.63s-.29.61.4.25,1,.08.86.75c-.07.28,0,.39.28.32.49-.13.71,0,.65.4,0,.14,0,.3.18.26,1.06-.3.88.7,1.46.91.13.05.11.21,0,.34-.35.35-.22.45.13.39a1.11,1.11,0,0,1,1.18.61c.75,1.1,1.91,1.86,2.69,2.93,1.06,1.44,2.5,2.58,3.63,4a17.14,17.14,0,0,0,2.34,2,3.37,3.37,0,0,1,1.27,1.83c.2.86,1,1.35,1.56,1.94a.83.83,0,0,1,.33.79,1.35,1.35,0,0,1-.65.93c-.4.22-.88.35-1.14.1a4.16,4.16,0,0,0-1.79-.86c-.63-.18-1-.83-1.38-1.28s-.74-.81-1.1-1.22c-.06-.06-.1-.15-.19-.18a.49.49,0,0,0-.52.1c-.16.15,0,.23.1.3a17.19,17.19,0,0,1,2.51,3.2c.46.63.88,1.29,1.31,1.94a1.34,1.34,0,0,1,.19.4,1.07,1.07,0,0,1-.57,1.28" fill="#3b3734"/>
  <path d="M1338.22,181.42s0,0,0,0m-3.83,2,0,0,0,0s0,0,0,0m-3.72-2.16c-.05,0-.08,0-.11.08s.13,0,.16,0,0-.11,0-.1m65.61-62.58a.82.82,0,0,1-.17,1.21,8.5,8.5,0,0,1-1.56,1c-.14,0-.46.16-.1.29.8.29.28.72.5,1.06.37.59-.26.49-.55.65s-.58.25-.59.59a.39.39,0,0,1-.37.39c-1,.06-.76.87-.91,1.41a1.36,1.36,0,0,1-.62.88,30.64,30.64,0,0,0-3.66,3.13c-.85.74-1.56,1.59-2.43,2.32-.32.26-.81.2-1,.49l-.25.22c-.17.62-.23,1.33-1.21,1.34-.1.73-1.31.57-1.34,1.36a.39.39,0,0,1-.18.31,10.51,10.51,0,0,0-2.45,2.44.62.62,0,0,1-.64.24c-.72.69-1,1.74-2,2.19a3.94,3.94,0,0,0-1.47,1.36,9.7,9.7,0,0,1-1.3,1.26,5,5,0,0,0-.76.83c-.45.64-.85,1.45-1.59,1.7s-1.3.48-1.33,1.28a.32.32,0,0,1-.38.22c-.28-.06-.49.06-.53.24-.28,1-1.48,1.39-1.8,2.26-.42,1.16-1.67,1.55-2.32,2.47a7.25,7.25,0,0,1-1.56,1.77,9.1,9.1,0,0,0-2.36,2.74,11.48,11.48,0,0,1-2,2.14,1,1,0,0,1-.72.36h-.08c-.07.21-.07.48-.23.6-1.43,1.12-2,2.87-3.63,3.84-.43.26-.37.76-.68,1.1a23,23,0,0,0-3.58,4.31,1.81,1.81,0,0,1-1.3.93c-.1,0-.25,0-.22.12.25,1-.61,1.26-1.06,1.79a72.94,72.94,0,0,0-4.88,6.08c-.79,1.17-1.64,2.32-2.51,3.44a3,3,0,0,1-1,.76c-.71.37-.69.39-1.19-.42v0h0a4.53,4.53,0,0,1-3,2.21.72.72,0,0,1-.64-.12,1.22,1.22,0,0,1-.33,0c-1-.25-1.1-.38-.79-1.1.06-.13.3-.28.07-.4s-.17.19-.25.3c-.21.27-.62.26-.92.39-.59.24-.94.74-1.55.95-.3.1-.6.27-.94,0s-.64-.73-.33-1.12.37-.8,1-.85c.08,0,.1-.15.14-.23h0c0-.5.64-.7.62-1.28,0-.27.08-.4-.23-.66-.58-.5-.63-.93-.21-1.41,1.24-1.39,2.47-2.79,3.74-4.16a8.46,8.46,0,0,1,1.71-1.41c.38-.23.43-.75.71-1.1,1.47-1.83,3.33-3.35,4.91-5.1,1.44-1.59,2.92-3.17,4.39-4.75.86-.92,1.56-2,2.45-2.89,1.68-1.69,3.11-3.57,4.93-5.15.52-.45.8-1.15,1.32-1.61a16.55,16.55,0,0,0,2.39-2.34,30.19,30.19,0,0,1,3-3.31c1-1,1.8-2,2.79-3a17.62,17.62,0,0,0,1.87-2.27,4.51,4.51,0,0,1,1.45-1.2c.45-.25.63-.8.94-1.2s.36-1.33,1.44-1.17c0-.44.48-.63.58-1,.2-.61.92-.78,1.19-1.31.14-.29.49.05.72,0s.71.17.27-.42,0-1,.82-.92c.32,0,.44-.09.35-.33-.17-.43-.07-.66.43-.66.16,0,.34-.07.28-.21-.39-.95.77-.95,1-1.52,0-.13.24-.14.39,0,.41.28.52.13.45-.18-.15-.61.26-.93.64-1.21,1.22-.88,2-2.09,3.23-3,1.6-1.22,2.83-2.75,4.37-4a19.81,19.81,0,0,0,2.22-2.52,4.36,4.36,0,0,1,2-1.48,5.88,5.88,0,0,0,2.16-1.78,1.14,1.14,0,0,1,.88-.43,1.4,1.4,0,0,1,1.09.47c.28.34.45.77.17,1.06a4,4,0,0,0-.9,1.81c-.18.62-.91,1-1.41,1.51s-.89.82-1.34,1.23c-.07.06-.17.11-.2.19a.39.39,0,0,0,.14.48c.18.13.26,0,.33-.14a22,22,0,0,1,3.55-2.86c.7-.53,1.44-1,2.16-1.54a2.34,2.34,0,0,1,.44-.24,1.28,1.28,0,0,1,1.5.34" fill="#c2b59b"/>
  <path d="M1331.87,130.32s0,0,0,0m-1.57-3.42,0,0,.06,0h0m2.82-3.14s0-.07-.08-.1-.06.12,0,.14.11,0,.12,0m56.55,59.6a1,1,0,0,1-1.26-.2c-.25-.49-.7-.84-.84-1.4,0-.13-.1-.4-.29-.1-.42.69-.8.22-1.19.39-.68.3-.48-.24-.61-.5s-.17-.51-.53-.54-.38-.16-.37-.34c.09-.86-.8-.69-1.34-.84a1.28,1.28,0,0,1-.85-.57,24.38,24.38,0,0,0-2.77-3.32c-.65-.77-1.46-1.42-2.09-2.2-.24-.29-.1-.72-.37-.94l-.19-.23c-.64-.17-1.37-.25-1.25-1.1-.75-.11-.4-1.16-1.23-1.22a.4.4,0,0,1-.31-.17,8.56,8.56,0,0,0-2.22-2.23.45.45,0,0,1-.16-.57c-.63-.65-1.69-.92-2-1.84a3.13,3.13,0,0,0-1.22-1.33,8,8,0,0,1-1.14-1.19,3.92,3.92,0,0,0-.77-.69c-.61-.42-1.4-.8-1.57-1.45s-.32-1.16-1.15-1.21a.25.25,0,0,1-.18-.35.32.32,0,0,0-.17-.47c-1-.28-1.26-1.34-2.14-1.65-1.16-.41-1.38-1.52-2.26-2.12a6.08,6.08,0,0,1-1.64-1.43,7.85,7.85,0,0,0-2.56-2.16,9.35,9.35,0,0,1-2-1.87.72.72,0,0,1-.28-.64h0v-.06c-.21-.07-.5-.08-.61-.23-1-1.28-2.72-1.88-3.51-3.31-.22-.38-.75-.35-1.07-.63a19.9,19.9,0,0,0-4-3.29,1.43,1.43,0,0,1-.8-1.17c0-.09.06-.22-.09-.19-1,.18-1.24-.59-1.73-1a68,68,0,0,0-5.71-4.49c-1.13-.74-2.21-1.52-3.27-2.32a2.34,2.34,0,0,1-.65-.92c-.3-.63-.32-.61.6-1h0a3.5,3.5,0,0,1-1.89-2.73.6.6,0,0,1,.23-.55.94.94,0,0,1,.06-.29c.42-.87.56-.94,1.28-.64.13,0,.25.27.41.08s-.18-.16-.28-.24c-.26-.19-.19-.54-.28-.81-.17-.53-.64-.85-.77-1.39-.07-.26-.2-.52.18-.81s.87-.53,1.23-.24.8.35.76.88c0,.06.14.09.22.13h0c.52.06.64.58,1.26.6.29,0,.41.08.73-.18.61-.48,1.07-.51,1.51-.12,1.3,1.13,2.59,2.26,3.85,3.42a6.22,6.22,0,0,1,1.24,1.55c.19.33.74.39,1.06.65,1.72,1.36,3.06,3,4.67,4.48s2.93,2.67,4.38,4c.85.79,1.87,1.44,2.69,2.25,1.54,1.53,3.33,2.85,4.73,4.5.4.47,1.09.74,1.51,1.21a13.65,13.65,0,0,0,2.12,2.18,25,25,0,0,1,3.06,2.73c.86.9,1.89,1.65,2.75,2.55a15.39,15.39,0,0,0,2.12,1.71,3.46,3.46,0,0,1,1.06,1.31c.2.4.75.58,1.13.87s1.35.37,1,1.3c.47,0,.59.44.94.55.62.19.69.83,1.21,1.08.29.13-.12.42-.13.62s-.29.62.4.26,1,.08.86.75c-.07.28,0,.38.28.31.49-.13.71,0,.65.41,0,.13,0,.3.18.25,1.06-.3.88.71,1.46.91.13.05.11.22,0,.35-.35.34-.22.44.13.39a1.11,1.11,0,0,1,1.18.61c.75,1.09,1.91,1.86,2.69,2.92,1.06,1.45,2.5,2.58,3.63,4a15.87,15.87,0,0,0,2.34,2,3.37,3.37,0,0,1,1.27,1.83c.2.87,1,1.35,1.56,2a.82.82,0,0,1,.33.78,1.39,1.39,0,0,1-.65.94c-.4.22-.88.35-1.14.09a4.14,4.14,0,0,0-1.79-.85c-.63-.18-1-.83-1.38-1.29s-.74-.81-1.1-1.21c-.06-.07-.1-.15-.19-.18a.51.51,0,0,0-.52.09c-.16.16,0,.23.1.3a16.93,16.93,0,0,1,2.51,3.21c.46.63.88,1.29,1.31,1.94a1.41,1.41,0,0,1,.19.39,1.09,1.09,0,0,1-.57,1.29" fill="#c2b59b"/>
  <path d="M837.53,247h0m-4.08,1.46,0,0,0-.06s0,0,0,0m-3.39-2.65s-.07,0-.11.06.12.06.16,0,0-.1-.05-.1M903.75,193a.84.84,0,0,1-.34,1.19,9.31,9.31,0,0,1-1.69.78c-.14,0-.47.09-.14.27.76.4.18.75.35,1.12.29.64-.32.44-.63.57s-.61.16-.66.49a.4.4,0,0,1-.43.35c-1-.09-.87.75-1.1,1.26a1.35,1.35,0,0,1-.73.79,32.49,32.49,0,0,0-4.06,2.58c-1,.62-1.76,1.37-2.73,2-.35.22-.83.09-1.11.34l-.28.18c-.25.59-.41,1.29-1.38,1.16-.2.71-1.37.38-1.51,1.16a.42.42,0,0,1-.23.29,10.35,10.35,0,0,0-2.76,2.07.6.6,0,0,1-.67.15c-.81.59-1.22,1.58-2.3,1.89a3.89,3.89,0,0,0-1.65,1.14,10.94,10.94,0,0,1-1.46,1.07,4.33,4.33,0,0,0-.87.72c-.53.57-1,1.31-1.81,1.46s-1.36.29-1.49,1.08a.34.34,0,0,1-.42.17.43.43,0,0,0-.56.15c-.41,1-1.65,1.18-2.09,2-.57,1.09-1.87,1.3-2.64,2.12a7.18,7.18,0,0,1-1.79,1.53,8.92,8.92,0,0,0-2.72,2.39,11.15,11.15,0,0,1-2.33,1.83,1,1,0,0,1-.76.26,0,0,0,0,0,0,0h-.08c-.09.2-.13.47-.31.57-1.56.91-2.4,2.56-4.12,3.29-.46.2-.48.71-.83,1a23.2,23.2,0,0,0-4.14,3.77,1.87,1.87,0,0,1-1.42.75c-.11,0-.25-.06-.23.08.11,1-.79,1.16-1.3,1.62a73.72,73.72,0,0,0-5.68,5.34c-.95,1.06-1.95,2.07-3,3.06a3,3,0,0,1-1.11.61c-.75.28-.73.3-1.11-.57v0a4.56,4.56,0,0,1-3.32,1.76.69.69,0,0,1-.61-.21,1.91,1.91,0,0,1-.33-.06c-1-.39-1-.53-.63-1.2.08-.12.34-.24.13-.39s-.2.17-.29.26c-.25.24-.65.18-1,.26-.62.16-1,.6-1.67.72-.31.06-.62.19-.91-.18s-.54-.81-.18-1.15.47-.74,1.08-.7c.07,0,.12-.14.17-.21h0c.11-.49.72-.6.79-1.18,0-.27.13-.38-.13-.69-.51-.57-.5-1,0-1.42,1.42-1.21,2.84-2.42,4.28-3.6a8.47,8.47,0,0,1,1.9-1.16c.41-.17.52-.69.85-1,1.72-1.61,3.76-2.86,5.57-4.36s3.33-2.74,5-4.1c1-.79,1.82-1.75,2.83-2.52,1.9-1.44,3.58-3.1,5.6-4.42.58-.37,1-1,1.54-1.41a17,17,0,0,0,2.69-2,29.17,29.17,0,0,1,3.41-2.86c1.12-.81,2.07-1.77,3.19-2.57a18.46,18.46,0,0,0,2.16-2,4.65,4.65,0,0,1,1.6-1c.48-.18.73-.7,1.11-1s.54-1.27,1.59-1c.06-.43.55-.55.7-.87.28-.58,1-.64,1.36-1.14.18-.26.48.12.71.13s.68.27.33-.38.18-.95.93-.8q.48.1.39-.27c-.1-.45,0-.66.52-.6.16,0,.35,0,.32-.16-.26-1,.89-.83,1.17-1.37.07-.13.26-.1.4,0,.36.34.49.21.46-.12-.06-.62.4-.88.81-1.1,1.33-.7,2.31-1.79,3.61-2.51,1.76-1,3.19-2.34,4.89-3.39a20.34,20.34,0,0,0,2.55-2.19,4.32,4.32,0,0,1,2.22-1.19,5.76,5.76,0,0,0,2.38-1.45,1.13,1.13,0,0,1,.94-.31,1.4,1.4,0,0,1,1,.61c.23.38.34.83,0,1.08a3.9,3.9,0,0,0-1.14,1.67c-.27.59-1,.89-1.61,1.3s-1,.68-1.5,1c-.08.06-.18.1-.22.17a.4.4,0,0,0,.06.49c.17.15.27,0,.36-.09a22.48,22.48,0,0,1,3.91-2.34c.77-.43,1.57-.82,2.35-1.22a2,2,0,0,1,.48-.17,1.26,1.26,0,0,1,1.43.53" fill="#cd704b"/>
  <path d="M835.31,199.67h0m-1.57-3.42,0,0,.06,0h0m2.81-3.15s0-.06-.07-.09-.06.11,0,.14.11,0,.11-.05m56.55,59.6a.94.94,0,0,1-1.25-.2c-.26-.48-.71-.84-.84-1.4,0-.12-.1-.4-.29-.09-.42.68-.8.21-1.19.39-.68.3-.48-.24-.61-.5s-.18-.52-.53-.54-.39-.16-.37-.34c.09-.86-.8-.7-1.35-.85a1.25,1.25,0,0,1-.84-.57,25,25,0,0,0-2.77-3.32c-.66-.77-1.46-1.41-2.1-2.2-.23-.29-.09-.71-.36-.93l-.2-.23c-.63-.18-1.37-.25-1.24-1.11-.75-.11-.41-1.16-1.24-1.21a.45.45,0,0,1-.31-.18,8.67,8.67,0,0,0-2.21-2.23.45.45,0,0,1-.17-.56c-.62-.66-1.68-.93-2-1.85a3.19,3.19,0,0,0-1.22-1.33,8.53,8.53,0,0,1-1.15-1.18,4,4,0,0,0-.77-.7c-.6-.41-1.4-.8-1.56-1.45s-.32-1.15-1.15-1.2a.26.26,0,0,1-.19-.35c.11-.24,0-.42-.16-.47-1-.29-1.26-1.34-2.14-1.65-1.16-.41-1.39-1.53-2.27-2.12A6.43,6.43,0,0,1,861,222.9a7.72,7.72,0,0,0-2.55-2.17,8.65,8.65,0,0,1-1.95-1.87.73.73,0,0,1-.29-.64h0s0,0,0-.07c-.21-.07-.5-.08-.61-.22-1-1.29-2.72-1.88-3.52-3.31-.21-.39-.75-.36-1.06-.64a20.18,20.18,0,0,0-4-3.29,1.39,1.39,0,0,1-.8-1.16c0-.1.06-.22-.09-.2-1,.18-1.24-.59-1.74-1a64.43,64.43,0,0,0-5.7-4.5c-1.13-.73-2.21-1.52-3.27-2.32a2.3,2.3,0,0,1-.65-.91c-.3-.63-.32-.62.6-1h0a3.48,3.48,0,0,1-1.89-2.73.59.59,0,0,1,.22-.55,1,1,0,0,1,.07-.28c.41-.88.56-.95,1.27-.65.14.06.26.28.42.08s-.18-.16-.28-.23c-.26-.19-.19-.55-.28-.82-.17-.52-.64-.84-.78-1.39-.06-.26-.2-.52.19-.8s.87-.53,1.22-.25.8.35.76.88c0,.07.15.09.23.13v0c.52.06.65.58,1.26.59.29,0,.41.08.73-.17.62-.49,1.07-.51,1.52-.13,1.29,1.13,2.58,2.26,3.85,3.42a6.22,6.22,0,0,1,1.24,1.55c.19.34.73.4,1.06.66,1.72,1.35,3.06,3,4.67,4.47s2.92,2.67,4.37,4c.85.78,1.88,1.43,2.7,2.24,1.54,1.54,3.32,2.85,4.73,4.5.4.47,1.09.74,1.5,1.22a14.49,14.49,0,0,0,2.12,2.17,25.9,25.9,0,0,1,3.07,2.73c.86.9,1.89,1.65,2.74,2.55a17,17,0,0,0,2.13,1.72,3.38,3.38,0,0,1,1.06,1.31c.2.4.75.57,1.13.87s1.35.37,1,1.3c.47,0,.59.43.94.54.62.19.68.83,1.21,1.08.28.14-.12.43-.13.63s-.29.61.4.25,1,.08.85.75c-.06.28,0,.39.29.32.49-.13.71,0,.64.4,0,.14,0,.3.18.26,1.06-.3.89.7,1.46.91.14.05.11.21,0,.34-.36.34-.22.45.13.39a1.09,1.09,0,0,1,1.17.61c.76,1.1,1.92,1.86,2.7,2.93,1.06,1.44,2.49,2.58,3.63,4a17.14,17.14,0,0,0,2.34,2,3.37,3.37,0,0,1,1.27,1.83c.2.86,1,1.35,1.56,1.94a.81.81,0,0,1,.32.79,1.31,1.31,0,0,1-.64.93c-.4.22-.88.35-1.15.1a4.06,4.06,0,0,0-1.78-.86c-.63-.18-1-.83-1.39-1.28s-.73-.81-1.1-1.22c0-.06-.1-.15-.18-.18a.49.49,0,0,0-.52.1c-.16.15,0,.23.1.3a16.87,16.87,0,0,1,2.51,3.2c.45.63.87,1.29,1.3,1.94a1.41,1.41,0,0,1,.19.39,1.07,1.07,0,0,1-.57,1.29" fill="#cd704b"/>
  <path d="M134.72,216.27h0m-3.84,2,0,0,0-.05s0,0,0,0m-3.72-2.16s-.08,0-.11.08a.27.27,0,0,0,.17,0c.06,0,0-.11-.06-.1m65.61-62.58a.82.82,0,0,1-.17,1.21,8.18,8.18,0,0,1-1.56,1c-.14.05-.46.16-.1.29.8.29.28.72.5,1.06.37.59-.25.49-.54.66s-.59.24-.6.58a.38.38,0,0,1-.37.39c-1,.06-.76.87-.91,1.41a1.34,1.34,0,0,1-.61.88,31.55,31.55,0,0,0-3.67,3.13c-.85.74-1.55,1.59-2.43,2.32-.32.26-.81.2-1.05.49l-.25.22c-.17.62-.23,1.33-1.21,1.34-.09.73-1.31.57-1.33,1.36a.43.43,0,0,1-.19.31,10.51,10.51,0,0,0-2.45,2.44.62.62,0,0,1-.64.24c-.72.69-1,1.74-2,2.19a3.91,3.91,0,0,0-1.46,1.36,10.42,10.42,0,0,1-1.31,1.26,5,5,0,0,0-.76.83c-.44.64-.85,1.45-1.59,1.7s-1.3.48-1.32,1.28a.33.33,0,0,1-.39.22.41.41,0,0,0-.53.24c-.28,1-1.48,1.39-1.8,2.26-.41,1.16-1.67,1.55-2.32,2.47a7.25,7.25,0,0,1-1.56,1.77,9.1,9.1,0,0,0-2.36,2.74,10.88,10.88,0,0,1-2.05,2.14,1,1,0,0,1-.72.36h-.08c-.07.21-.07.48-.23.61-1.42,1.11-2,2.86-3.63,3.83-.43.26-.37.76-.68,1.1a23.37,23.37,0,0,0-3.58,4.31,1.84,1.84,0,0,1-1.3.94c-.1,0-.25,0-.21.11.25.95-.62,1.26-1.07,1.79a74.61,74.61,0,0,0-4.88,6.08c-.79,1.17-1.64,2.32-2.51,3.44a3,3,0,0,1-1,.76c-.71.37-.69.39-1.18-.42h0a4.55,4.55,0,0,1-3,2.2.72.72,0,0,1-.64-.12,1.22,1.22,0,0,1-.33,0c-1-.25-1.1-.38-.79-1.1.06-.13.3-.28.08-.4s-.18.19-.26.3c-.21.27-.62.26-.92.39-.59.24-.94.74-1.55.95-.3.1-.59.27-.93,0s-.65-.73-.34-1.12.37-.8,1-.85c.08,0,.1-.15.15-.23h0c0-.5.64-.7.62-1.28,0-.27.08-.4-.23-.66-.58-.5-.63-.93-.21-1.4,1.24-1.4,2.47-2.8,3.74-4.17a8.26,8.26,0,0,1,1.72-1.41c.37-.23.42-.75.7-1.1,1.47-1.83,3.33-3.35,4.91-5.1,1.45-1.59,2.92-3.17,4.39-4.75.86-.92,1.56-2,2.45-2.89,1.68-1.69,3.11-3.57,4.94-5.15.51-.45.79-1.15,1.32-1.61a16.47,16.47,0,0,0,2.38-2.34,31.24,31.24,0,0,1,3-3.31c1-.95,1.8-2,2.8-3a19.28,19.28,0,0,0,1.86-2.28,4.51,4.51,0,0,1,1.45-1.2c.45-.25.63-.8.95-1.2s.36-1.33,1.44-1.17c0-.44.47-.63.58-1,.19-.61.91-.78,1.18-1.31.14-.29.49.05.72,0s.71.17.27-.42.05-1,.82-.92c.32,0,.44-.09.35-.32-.17-.44-.07-.67.43-.67.16,0,.34-.07.29-.21-.39-.95.76-.95,1-1.52,0-.13.24-.14.39,0,.41.28.52.14.45-.18-.15-.61.27-.93.64-1.21,1.22-.88,2-2.09,3.23-3,1.6-1.22,2.83-2.75,4.37-4a19.06,19.06,0,0,0,2.22-2.52,4.36,4.36,0,0,1,2-1.48,5.88,5.88,0,0,0,2.16-1.78,1.14,1.14,0,0,1,.88-.43,1.42,1.42,0,0,1,1.1.47c.27.34.44.77.16,1.06a4,4,0,0,0-.9,1.81c-.18.62-.91,1-1.41,1.51s-.89.82-1.34,1.23c-.07.06-.17.11-.2.2a.38.38,0,0,0,.14.47c.18.13.26,0,.33-.14a22,22,0,0,1,3.55-2.86c.7-.53,1.44-1,2.16-1.54a2.14,2.14,0,0,1,.45-.24,1.26,1.26,0,0,1,1.49.34" fill="#c2b59b"/>
  <path d="M128.36,165.17s0,0,0,0m-1.57-3.42,0,0,.06,0h0m2.82-3.14s0-.07-.08-.1-.05.12,0,.14.11,0,.12,0m56.55,59.6a1,1,0,0,1-1.26-.2c-.25-.49-.7-.84-.84-1.4,0-.13-.1-.4-.29-.1-.42.69-.79.22-1.19.39-.68.3-.48-.24-.61-.5s-.17-.51-.53-.54-.38-.16-.36-.34c.08-.86-.81-.69-1.35-.84a1.31,1.31,0,0,1-.85-.57,25.06,25.06,0,0,0-2.76-3.32c-.66-.77-1.46-1.41-2.1-2.2-.23-.29-.1-.72-.37-.94l-.19-.23c-.63-.17-1.37-.25-1.24-1.1-.76-.11-.41-1.16-1.24-1.22a.4.4,0,0,1-.31-.17,8.56,8.56,0,0,0-2.22-2.23.45.45,0,0,1-.16-.57c-.63-.65-1.69-.92-2-1.84a3.13,3.13,0,0,0-1.22-1.33,8,8,0,0,1-1.14-1.19,3.92,3.92,0,0,0-.77-.69c-.61-.42-1.4-.8-1.57-1.45s-.31-1.16-1.15-1.21a.24.24,0,0,1-.18-.34c.1-.24,0-.43-.17-.48-1-.28-1.25-1.34-2.13-1.65-1.16-.41-1.39-1.52-2.27-2.11a6.45,6.45,0,0,1-1.64-1.43,7.75,7.75,0,0,0-2.56-2.17,9.34,9.34,0,0,1-1.95-1.87.75.75,0,0,1-.28-.64h0v-.06c-.21-.07-.5-.08-.6-.23-1-1.28-2.73-1.88-3.52-3.31-.21-.38-.75-.35-1.07-.63a19.9,19.9,0,0,0-4-3.29,1.43,1.43,0,0,1-.8-1.17c0-.09.06-.22-.09-.19-1,.18-1.24-.59-1.73-1a68,68,0,0,0-5.71-4.49c-1.13-.74-2.21-1.52-3.27-2.32a2.34,2.34,0,0,1-.65-.92c-.29-.62-.32-.61.61-1h0a3.51,3.51,0,0,1-1.9-2.73.62.62,0,0,1,.23-.55,1.36,1.36,0,0,1,.06-.29c.42-.87.56-.94,1.28-.64.13.06.25.27.41.08s-.17-.16-.28-.24-.19-.54-.28-.81c-.17-.52-.64-.85-.77-1.39-.07-.26-.2-.52.19-.81s.86-.53,1.22-.24.8.35.76.88c0,.06.14.09.22.13h0c.52.06.64.58,1.26.6.29,0,.41.08.73-.18.61-.48,1.07-.51,1.51-.12,1.3,1.13,2.59,2.26,3.85,3.42a6,6,0,0,1,1.24,1.55c.19.33.74.39,1.07.65,1.71,1.36,3.05,3,4.66,4.48s2.93,2.67,4.38,4c.85.79,1.88,1.44,2.69,2.25,1.55,1.53,3.33,2.85,4.74,4.5.39.47,1.09.74,1.5,1.21a13.65,13.65,0,0,0,2.12,2.18,25,25,0,0,1,3.06,2.73c.86.9,1.89,1.65,2.75,2.55a14.91,14.91,0,0,0,2.13,1.71,3.53,3.53,0,0,1,1.05,1.31c.2.4.76.58,1.13.87s1.36.37,1,1.3c.46,0,.58.44.93.55.62.19.69.83,1.21,1.08.29.13-.12.42-.13.62s-.29.62.4.26,1,.08.86.75c-.07.28,0,.38.29.31.48-.13.7,0,.64.41,0,.13,0,.3.18.25,1.06-.3.88.71,1.46.91.13.05.11.22,0,.35-.36.34-.22.44.12.39a1.09,1.09,0,0,1,1.18.61c.75,1.09,1.91,1.86,2.69,2.92,1.06,1.45,2.5,2.58,3.63,4a15.87,15.87,0,0,0,2.34,2,3.32,3.32,0,0,1,1.27,1.83c.2.87,1,1.35,1.56,2a.82.82,0,0,1,.33.78,1.36,1.36,0,0,1-.65.94c-.4.22-.88.35-1.14.09a4.14,4.14,0,0,0-1.79-.85c-.63-.18-.94-.83-1.38-1.29s-.74-.81-1.1-1.21c-.06-.07-.1-.15-.18-.18a.52.52,0,0,0-.53.09c-.16.16,0,.23.1.3a16.93,16.93,0,0,1,2.51,3.21c.46.63.88,1.29,1.31,1.94a1.41,1.41,0,0,1,.19.39,1.09,1.09,0,0,1-.57,1.29" fill="#c2b59b"/>
</svg>
