<svg id="Layer_1" data-name="Layer 1" xmlns="http://www.w3.org/2000/svg" viewBox="0 0 421.07 90.99">
  <path d="M107.53,81.94c0-.3-.21-.59-.36-.49s-.4.09-.58.3c0,0-.13.15-.1-.09.09-.54-.13-.48-.18-.75-.08-.47-.18-.1-.28,0s-.18.17-.27,0-.14-.1-.18,0c-.22.47-.39,0-.56-.21s-.22-.19-.36-.12a5.28,5.28,0,0,1-1.57.36c-.36.07-.73,0-1.1.11-.13,0-.21.31-.34.29l-.11,0c-.2-.21-.4-.52-.6,0-.21-.3-.41.38-.63,0,0-.06-.08-.08-.12-.06a1.66,1.66,0,0,1-1.14.07c-.07,0-.15,0-.2.21-.33,0-.65-.33-1,0s-.44.13-.66.09a1.75,1.75,0,0,0-.6,0,.77.77,0,0,1-.37,0c-.26-.08-.56-.26-.77,0s-.4.42-.6.06c0,0-.1-.07-.14.08s-.12.22-.17.16c-.32-.33-.67.08-1-.18s-.75.11-1.13,0a1.16,1.16,0,0,0-.78-.06,1.48,1.48,0,0,1-1.2-.12c-.31-.16-.65,0-1,0a.25.25,0,0,0-.24.18h0s0,0,0,0-.14-.2-.2-.17c-.59.18-1.17-.35-1.75,0-.16.09-.28-.18-.43-.19A3.81,3.81,0,0,1,85,81.21c-.17-.09-.35-.06-.51.2,0,0,0,.14-.08.06-.2-.58-.45-.29-.68-.32a12.74,12.74,0,0,1-2.6-.44,9.78,9.78,0,0,0-1.41-.38.53.53,0,0,0-.41.15c-.24.17-.24.15-.13.79h0c-.42-.17-.82-.11-1.2.47a.76.76,0,0,0-.1.39l-.06.17c-.14.63-.12.73.13.92.05,0,.14,0,.12.15s-.09,0-.13,0-.2.18-.29.27-.39.12-.57.33a.54.54,0,0,0-.17.5c0,.35.06.67.23.7s.28.2.42-.09c0,0,.06,0,.09,0h0c.14.21.31,0,.46.3a.65.65,0,0,1,.13.43c0,.53.11.76.32.77.62,0,1.24.09,1.86.1a1.32,1.32,0,0,0,.72-.19c.14-.08.28.15.43.17a18.28,18.28,0,0,0,2.34,0c.72,0,1.43,0,2.15.06.41,0,.84.17,1.25.15a17,17,0,0,0,2.37,0c.22,0,.46.14.69.1a2.55,2.55,0,0,1,1.1-.09,4.88,4.88,0,0,0,1.48.08c.45,0,.9.06,1.35,0a3,3,0,0,1,1,.14.75.75,0,0,0,.61-.16c.16-.1.34.07.51.1s.42.46.6-.16c.11.21.26.06.37.17s.39-.09.58,0,.09-.27.14-.37.1-.45.17.06.27.44.41,0c.06-.18.11-.18.15,0,.08.3.17.35.27.1,0-.07.09-.14.11,0,.17.65.4.07.6.23,0,0,.09,0,.09-.18,0-.34.07-.32.14-.13.13.36.3.3.45.24.48-.19,1,0,1.44-.2.65-.22,1.3-.11,1.95-.27a3,3,0,0,1,1.12.09.83.83,0,0,0,.8-.32c.28-.33.6-.22.9-.24.11,0,.21,0,.3-.23a1.84,1.84,0,0,0,.1-.77c0-.3-.12-.6-.25-.59s-.44-.19-.66-.42-.45,0-.68,0-.4.06-.6.09c0,0-.07,0-.1,0a.41.41,0,0,1-.1-.3c0-.15.07-.11.1-.1a3.65,3.65,0,0,0,1.48-.42c.29-.1.57-.23.85-.35a.53.53,0,0,0,.15-.11,1.14,1.14,0,0,0,.24-.91" fill="#2b2e34"/>
  <path d="M128.1,33.2c0-.3-.2-.59-.35-.49s-.4.09-.59.3c0,.05-.13.15-.1-.09.09-.54-.13-.48-.17-.75-.08-.47-.18-.1-.28,0s-.19.17-.28,0-.13-.1-.18,0c-.21.47-.38,0-.55-.21s-.23-.19-.36-.12a5.28,5.28,0,0,1-1.57.36c-.37.07-.74,0-1.1.11-.14,0-.22.31-.35.3l-.1,0c-.2-.21-.4-.52-.6,0-.21-.3-.42.38-.63,0,0-.06-.09-.08-.13-.06a1.63,1.63,0,0,1-1.13.07c-.07,0-.15,0-.2.21-.33,0-.66-.33-1,0s-.44.13-.66.09a1.75,1.75,0,0,0-.6,0,.67.67,0,0,1-.37,0c-.26-.08-.55-.26-.77,0s-.39.43-.6.06c0,0-.1-.07-.14.08s-.11.22-.17.16c-.32-.33-.66.08-1-.18s-.75.11-1.12,0a1.3,1.3,0,0,0-.78-.06,1.48,1.48,0,0,1-1.2-.12c-.32-.16-.66,0-1,0a.25.25,0,0,0-.25.18h0s0,0,0,0-.14-.2-.21-.17c-.58.18-1.16-.35-1.75,0-.15.09-.27-.18-.42-.19a4,4,0,0,1-1.87-.25c-.16-.09-.35-.06-.51.2,0,0,0,.14-.07.06-.2-.58-.46-.29-.69-.32a13.23,13.23,0,0,1-2.59-.44,10.27,10.27,0,0,0-1.42-.38.54.54,0,0,0-.4.15c-.24.17-.24.15-.13.79h0c-.42-.17-.82-.11-1.2.47a.76.76,0,0,0-.1.39.85.85,0,0,0-.06.17c-.14.63-.13.73.12.92,0,0,.14,0,.12.15s-.08,0-.13,0-.19.18-.29.27-.38.12-.56.33a.53.53,0,0,0-.17.5c0,.35.06.67.22.7s.29.2.42-.09c0,0,.06,0,.09,0h0c.14.21.32,0,.46.3a.6.6,0,0,1,.13.43c0,.53.12.76.33.77.62,0,1.24.09,1.85.1a1.28,1.28,0,0,0,.72-.19c.14-.08.29.15.44.17a18.28,18.28,0,0,0,2.34,0c.71,0,1.43,0,2.14.06.42,0,.84.17,1.26.15a16.91,16.91,0,0,0,2.36,0c.22,0,.46.14.69.1a2.56,2.56,0,0,1,1.1-.09,4.92,4.92,0,0,0,1.48.08c.45-.05.9.06,1.36,0a2.89,2.89,0,0,1,1,.14.78.78,0,0,0,.62-.16c.15-.1.33.07.5.1s.43.46.6-.16c.12.21.26.06.38.17s.39-.09.58,0,.09-.27.14-.37.1-.45.17.06.26.44.41,0c.06-.18.11-.18.15,0s.16.35.27.1c0-.07.09-.14.11,0,.17.65.4.07.6.23,0,0,.09,0,.09-.18,0-.34.07-.32.14-.13.13.36.3.3.44.24.48-.19,1,0,1.45-.2.65-.22,1.3-.11,1.95-.27a3,3,0,0,1,1.12.09.83.83,0,0,0,.8-.32c.28-.33.6-.22.9-.24.11,0,.21,0,.3-.23a1.84,1.84,0,0,0,.1-.77c0-.3-.12-.6-.25-.59s-.44-.19-.66-.42-.45,0-.68,0l-.6.09s-.07,0-.1,0a.41.41,0,0,1-.1-.3c0-.15.07-.11.1-.1a3.65,3.65,0,0,0,1.48-.42c.28-.1.56-.23.85-.35a.53.53,0,0,0,.15-.11,1.15,1.15,0,0,0,.23-.91" fill="#2b2e34"/>
  <path d="M52.38,85.72c0-.3-.2-.59-.35-.49s-.4.09-.58.3c-.05,0-.14.15-.1-.09.08-.54-.14-.48-.18-.76-.08-.47-.18-.1-.28,0s-.19.17-.28,0-.13-.1-.18,0c-.21.47-.38,0-.55-.21s-.23-.19-.36-.12A5.28,5.28,0,0,1,48,84.7c-.37.07-.74,0-1.1.11-.13,0-.22.31-.34.29l-.11,0c-.2-.21-.4-.52-.6,0-.21-.3-.42.38-.63,0,0-.06-.09-.08-.12-.06a1.66,1.66,0,0,1-1.14.07c-.07,0-.15,0-.2.21-.33,0-.66-.33-1,0a.65.65,0,0,1-.65.09,1.7,1.7,0,0,0-.6,0,.81.81,0,0,1-.38,0c-.26-.08-.55-.26-.77,0s-.39.42-.6.06c0,0-.1-.07-.14.08s-.11.22-.17.16c-.31-.33-.66.08-1-.18s-.75.11-1.12,0a1.17,1.17,0,0,0-.78-.06,1.48,1.48,0,0,1-1.2-.12c-.32-.16-.65,0-1,0a.25.25,0,0,0-.25.18h0s0,0,0,0-.14-.2-.21-.17c-.58.18-1.16-.35-1.74,0-.16.09-.28-.18-.43-.19A4,4,0,0,1,29.86,85c-.16-.09-.35-.06-.51.2,0,0,0,.14-.07.06-.2-.58-.46-.29-.69-.32A13.36,13.36,0,0,1,26,84.49a10.27,10.27,0,0,0-1.42-.38.5.5,0,0,0-.4.15c-.24.17-.24.15-.13.79h0c-.41-.17-.82-.11-1.2.47a.75.75,0,0,0-.1.38,1.27,1.27,0,0,0-.06.18c-.14.63-.13.73.12.92.05,0,.14,0,.13.15s-.09,0-.13,0-.2.18-.29.27-.39.12-.57.33a.52.52,0,0,0-.17.5c0,.35.06.67.22.7s.29.2.42-.09c0,0,.06,0,.09,0h0c.14.21.32,0,.47.3a.64.64,0,0,1,.12.43c0,.53.12.76.33.77.62,0,1.24.09,1.85.1a1.28,1.28,0,0,0,.72-.19c.14-.08.29.15.44.17a18.28,18.28,0,0,0,2.34,0c.71,0,1.43,0,2.14.06.42,0,.84.17,1.26.15a16.89,16.89,0,0,0,2.36,0c.22,0,.46.14.69.1a2.56,2.56,0,0,1,1.1-.09,4.92,4.92,0,0,0,1.48.08c.45,0,.9.06,1.36,0a3.17,3.17,0,0,1,1,.15.78.78,0,0,0,.62-.16c.15-.1.33.07.51.1s.42.46.6-.16c.11.21.26.06.37.17s.39-.09.58,0,.09-.27.14-.38.1-.44.17.07.27.43.41,0c.06-.17.11-.18.15,0s.17.35.27.1c0-.08.09-.14.11,0,.17.65.4.06.6.23,0,0,.09-.06.09-.18,0-.34.07-.33.14-.14.13.36.3.31.45.25.48-.19,1,0,1.44-.2.65-.22,1.3-.11,2-.27a3,3,0,0,1,1.12.09.83.83,0,0,0,.8-.32c.28-.34.6-.22.9-.24.11,0,.21,0,.3-.24a1.82,1.82,0,0,0,.1-.77c0-.3-.12-.59-.25-.58s-.44-.2-.66-.42-.45,0-.68,0-.4.06-.6.09c0,0-.07,0-.1,0a.41.41,0,0,1-.1-.3c0-.16.07-.11.1-.1a3.82,3.82,0,0,0,1.48-.42c.28-.1.57-.23.85-.36a.49.49,0,0,0,.15-.1,1.15,1.15,0,0,0,.23-.91" fill="#2b2e34"/>
  <path d="M67.69,68.67c0-.31-.2-.59-.35-.5s-.4.09-.58.3c-.05,0-.14.15-.1-.08.08-.55-.14-.49-.18-.76-.08-.47-.18-.1-.28,0s-.19.18-.28,0-.13-.1-.18,0c-.21.47-.38,0-.55-.21s-.23-.18-.36-.11a5.59,5.59,0,0,1-1.57.35c-.37.07-.74,0-1.1.11-.13,0-.22.31-.34.3l-.11,0c-.2-.21-.4-.52-.6,0-.21-.3-.42.38-.63,0,0,0-.09-.08-.12-.06a1.66,1.66,0,0,1-1.14.07c-.07,0-.15,0-.2.21-.33,0-.66-.33-1,0a.65.65,0,0,1-.65.09,1.5,1.5,0,0,0-.6.06.81.81,0,0,1-.38,0c-.25-.08-.55-.26-.77,0s-.39.43-.6.06c0,0-.1-.07-.14.08s-.11.22-.17.16c-.31-.33-.66.08-1-.18s-.75.11-1.12,0a1.3,1.3,0,0,0-.78-.06,1.48,1.48,0,0,1-1.2-.12c-.32-.15-.65,0-1,0a.23.23,0,0,0-.24.18h0s0,0,0,0-.14-.2-.21-.17c-.58.18-1.16-.35-1.74,0-.16.09-.28-.18-.43-.18a4,4,0,0,1-1.87-.26c-.16-.09-.35-.05-.51.21,0,0,0,.13-.07,0-.2-.58-.46-.29-.69-.32a12,12,0,0,1-2.59-.44,11.42,11.42,0,0,0-1.42-.38.54.54,0,0,0-.4.15c-.25.17-.25.15-.14.79,0,0,0,0,0,0h0c-.42-.17-.82-.11-1.2.48a.62.62,0,0,0-.1.38A.49.49,0,0,0,38,69c-.14.63-.13.73.12.92.05,0,.14,0,.13.16s-.09,0-.13,0-.2.19-.29.28-.39.11-.57.32a.53.53,0,0,0-.17.5c0,.35.06.67.22.7s.29.2.42-.08c0,0,.06,0,.09,0h0c.14.21.32,0,.47.3a.66.66,0,0,1,.12.43c0,.53.12.76.33.77.62,0,1.24.09,1.86.1a1.32,1.32,0,0,0,.72-.19c.13-.08.28.15.43.18a20.31,20.31,0,0,0,2.34,0c.71,0,1.43,0,2.14,0,.42,0,.84.17,1.26.15a15.48,15.48,0,0,0,2.36,0c.22,0,.46.14.69.1a2.92,2.92,0,0,1,1.1-.09,4.92,4.92,0,0,0,1.48.08c.45,0,.9.06,1.36,0a2.89,2.89,0,0,1,1,.14.77.77,0,0,0,.62-.15c.15-.1.33.06.51.1s.42.45.6-.17c.11.21.26.06.37.17s.39-.09.58,0,.09-.27.14-.37.1-.45.17.06.27.44.41,0c.06-.17.11-.18.15,0s.17.34.27.1c0-.08.09-.14.11,0,.17.65.4.07.6.24s.09-.06.09-.19c0-.34.07-.32.14-.13.13.36.3.31.45.25.48-.2,1,0,1.44-.2a18.68,18.68,0,0,1,1.95-.28,3.52,3.52,0,0,1,1.12.09A.81.81,0,0,0,66,73c.28-.33.6-.21.9-.23.11,0,.21,0,.3-.24a1.84,1.84,0,0,0,.1-.77c0-.3-.12-.59-.25-.59s-.44-.19-.66-.41-.45,0-.68,0-.4.06-.6.09c0,0-.07,0-.1,0a.41.41,0,0,1-.1-.3c0-.15.07-.11.1-.1A3.5,3.5,0,0,0,66.46,70c.29-.1.57-.23.85-.35a.53.53,0,0,0,.15-.11,1.12,1.12,0,0,0,.23-.9" fill="#2b2e34"/>
  <path d="M103.58,68.67c0-.31-.21-.59-.36-.5s-.4.09-.58.3c0,0-.13.15-.1-.08.09-.55-.13-.49-.18-.76-.08-.47-.18-.1-.28,0s-.18.18-.27,0-.14-.1-.18,0c-.22.47-.39,0-.56-.21s-.22-.18-.36-.11a5.59,5.59,0,0,1-1.57.35c-.36.07-.73,0-1.1.11-.13,0-.21.31-.34.3l-.11,0c-.2-.21-.4-.52-.6,0-.21-.3-.41.38-.63,0,0,0-.08-.08-.12-.06a1.66,1.66,0,0,1-1.14.07c-.07,0-.15,0-.2.21-.33,0-.65-.33-1,0s-.44.13-.66.09a1.54,1.54,0,0,0-.6.06.78.78,0,0,1-.37,0c-.26-.08-.56-.26-.77,0s-.4.43-.6.06c0,0-.1-.07-.14.08s-.12.22-.17.16c-.32-.33-.67.08-1-.18s-.75.11-1.13,0a1.3,1.3,0,0,0-.78-.06,1.48,1.48,0,0,1-1.2-.12c-.31-.15-.65,0-1,0a.25.25,0,0,0-.24.18h0l0,0c-.07-.06-.14-.2-.2-.17-.59.18-1.17-.35-1.75,0-.16.09-.28-.18-.43-.18a3.94,3.94,0,0,1-1.86-.26c-.17-.09-.35-.05-.51.21,0,0,0,.13-.08,0-.2-.58-.45-.29-.68-.32a12.09,12.09,0,0,1-2.6-.44,11.27,11.27,0,0,0-1.41-.38.56.56,0,0,0-.41.15c-.24.17-.24.15-.13.79h0c-.42-.17-.82-.11-1.2.48a.7.7,0,0,0-.1.38l-.06.17c-.14.63-.12.73.13.92,0,0,.14,0,.12.16s-.09,0-.13,0-.2.19-.29.28-.39.11-.57.32a.55.55,0,0,0-.17.5c0,.35.06.67.22.7s.29.2.43-.08c0,0,.06,0,.09,0h0c.14.21.31,0,.46.3a.66.66,0,0,1,.13.43c0,.53.11.76.32.77.62,0,1.24.09,1.86.1a1.32,1.32,0,0,0,.72-.19c.14-.08.28.15.43.18a20.31,20.31,0,0,0,2.34,0c.72,0,1.43,0,2.14,0,.42,0,.85.17,1.26.15a15.63,15.63,0,0,0,2.37,0c.22,0,.46.14.69.1a2.9,2.9,0,0,1,1.1-.09,4.88,4.88,0,0,0,1.48.08c.45,0,.9.06,1.35,0a3,3,0,0,1,1,.14.75.75,0,0,0,.61-.15c.16-.1.34.06.51.1s.42.45.6-.17c.12.21.26.06.37.17s.39-.09.59,0,.09-.27.14-.37.1-.45.16.06.27.44.41,0c.06-.17.11-.18.16,0s.16.34.26.1c0-.08.09-.14.12,0,.17.65.4.07.6.24,0,0,.08-.06.08-.19,0-.34.07-.32.14-.13.13.36.3.31.45.25.48-.2,1,0,1.44-.2a18.49,18.49,0,0,1,2-.28,3.46,3.46,0,0,1,1.11.09.8.8,0,0,0,.8-.32c.29-.33.6-.21.91-.23.11,0,.21,0,.29-.24a1.69,1.69,0,0,0,.1-.77c0-.3-.11-.59-.25-.59s-.44-.19-.66-.41-.45,0-.68,0-.4.06-.6.09c0,0-.06,0-.09,0a.37.37,0,0,1-.1-.3c0-.15.06-.11.1-.1a3.54,3.54,0,0,0,1.48-.42c.28-.1.56-.23.84-.35a.42.42,0,0,0,.15-.11,1.12,1.12,0,0,0,.24-.9" fill="#2b2e34"/>
  <path d="M30.62,68.67c0-.31-.21-.59-.36-.5s-.4.09-.58.3c0,0-.14.15-.1-.08.08-.55-.13-.49-.18-.76-.08-.47-.18-.1-.28,0s-.18.18-.28,0-.13-.1-.18,0c-.21.47-.38,0-.55-.21s-.22-.18-.36-.11a5.59,5.59,0,0,1-1.57.35c-.37.07-.73,0-1.1.11-.13,0-.22.31-.34.3l-.11,0c-.2-.21-.4-.52-.6,0-.21-.3-.42.38-.63,0,0,0-.08-.08-.12-.06a1.66,1.66,0,0,1-1.14.07c-.07,0-.15,0-.2.21-.33,0-.65-.33-1,0s-.44.13-.66.09a1.52,1.52,0,0,0-.6.06.82.82,0,0,1-.38,0c-.25-.08-.55-.26-.77,0s-.39.43-.6.06c0,0-.1-.07-.14.08s-.11.22-.16.16c-.32-.33-.67.08-1-.18s-.74.11-1.12,0a1.3,1.3,0,0,0-.78-.06,1.48,1.48,0,0,1-1.2-.12c-.32-.15-.65,0-1,0a.25.25,0,0,0-.24.18h0l0,0c-.07-.06-.14-.2-.21-.17-.58.18-1.16-.35-1.74,0-.16.09-.28-.18-.43-.18a3.94,3.94,0,0,1-1.86-.26c-.17-.09-.36-.05-.51.21,0,0,0,.13-.08,0-.2-.58-.45-.29-.69-.32a12.1,12.1,0,0,1-2.59-.44,11.75,11.75,0,0,0-1.41-.38.55.55,0,0,0-.41.15c-.24.17-.25.15-.13.79h0c-.42-.17-.82-.11-1.2.48a.62.62,0,0,0-.1.38A.85.85,0,0,0,.92,69c-.14.63-.13.73.13.92,0,0,.13,0,.12.16s-.09,0-.13,0-.2.19-.29.28-.39.11-.57.32a.55.55,0,0,0-.17.5c0,.35.06.67.22.7s.29.2.43-.08c0,0,0,0,.09,0h0c.14.21.31,0,.46.3a.66.66,0,0,1,.13.43c0,.53.11.76.32.77.62,0,1.24.09,1.86.1a1.32,1.32,0,0,0,.72-.19c.14-.08.28.15.43.18a20.31,20.31,0,0,0,2.34,0c.71,0,1.43,0,2.14,0,.42,0,.84.17,1.26.15a15.48,15.48,0,0,0,2.36,0c.23,0,.47.14.69.1a2.94,2.94,0,0,1,1.1-.09,4.92,4.92,0,0,0,1.48.08c.46,0,.9.06,1.36,0a2.89,2.89,0,0,1,1,.14.76.76,0,0,0,.62-.15c.16-.1.34.06.51.1s.42.45.6-.17c.11.21.26.06.37.17s.39-.09.59,0,.08-.27.14-.37.1-.45.16.06.27.44.41,0c.06-.17.11-.18.16,0s.16.34.26.1c0-.08.09-.14.11,0,.17.65.4.07.6.24s.09-.06.09-.19c0-.34.07-.32.14-.13.13.36.3.31.45.25.48-.2,1,0,1.44-.2a18.49,18.49,0,0,1,2-.28,3.46,3.46,0,0,1,1.11.09.81.81,0,0,0,.8-.32c.28-.33.6-.21.91-.23.11,0,.21,0,.29-.24a1.69,1.69,0,0,0,.1-.77c0-.3-.11-.59-.25-.59s-.44-.19-.66-.41-.45,0-.68,0-.4.06-.6.09c0,0-.07,0-.09,0a.34.34,0,0,1-.1-.3c0-.15.06-.11.1-.1A3.46,3.46,0,0,0,29.38,70c.29-.1.57-.23.85-.35a.42.42,0,0,0,.15-.11,1.12,1.12,0,0,0,.24-.9" fill="#2b2e34"/>
  <path d="M118.05,5.28c0,.3.21.59.36.49s.4-.09.58-.3c0,0,.14-.15.1.09-.08.54.13.48.18.76.08.47.18.1.28,0s.18-.17.28,0,.13.1.18,0c.21-.47.38,0,.55.21s.22.19.36.12a5.28,5.28,0,0,1,1.57-.36c.37-.07.73,0,1.1-.11.13,0,.22-.31.34-.29l.11,0c.2.21.4.52.6,0,.21.3.42-.39.63,0,0,.06.08.08.12.06a1.66,1.66,0,0,1,1.14-.07c.07,0,.15,0,.2-.21.33,0,.65.33,1,0s.43-.13.65-.09a1.72,1.72,0,0,0,.6,0,.81.81,0,0,1,.38,0c.25.08.55.26.77,0s.39-.43.6-.07c0,0,.1.07.14-.08s.11-.22.16-.16c.32.34.67-.08,1,.18s.74-.11,1.12,0a1.17,1.17,0,0,0,.78.06,1.48,1.48,0,0,1,1.2.12c.32.16.65,0,1,0a.24.24,0,0,0,.24-.18h0l0,0c.07.06.14.2.21.17.58-.18,1.16.35,1.74,0,.16-.09.28.18.43.19a3.94,3.94,0,0,1,1.86.25c.17.09.36,0,.52-.2,0,0,0-.14.07-.06.2.58.46.29.69.32a13.49,13.49,0,0,1,2.59.44,9.91,9.91,0,0,0,1.42.38.52.52,0,0,0,.4-.15c.24-.17.24-.15.13-.79h0a.9.9,0,0,0,1.2-.47.59.59,0,0,0,.1-.38,1.34,1.34,0,0,0,.07-.18c.14-.63.13-.73-.13-.92-.05,0-.14,0-.12-.15s.08,0,.13,0,.2-.18.29-.28.39-.11.57-.32a.55.55,0,0,0,.17-.5c0-.35-.06-.67-.22-.7s-.29-.2-.42.08c0,0-.06,0-.09,0h0c-.14-.21-.32,0-.47-.3a.63.63,0,0,1-.12-.42c0-.53-.12-.76-.33-.78-.62,0-1.24-.09-1.86-.1a1.41,1.41,0,0,0-.72.19c-.13.08-.28-.14-.43-.17a20.31,20.31,0,0,0-2.34,0c-.71,0-1.43,0-2.14-.05-.42,0-.84-.17-1.26-.15a15.48,15.48,0,0,0-2.36,0c-.23,0-.47-.15-.69-.1a2.94,2.94,0,0,1-1.1.09,4.66,4.66,0,0,0-1.49-.09c-.45,0-.9-.07-1.35,0a2.91,2.91,0,0,1-1-.15.78.78,0,0,0-.61.16c-.16.1-.34-.06-.51-.1s-.42-.45-.6.17c-.12-.21-.26-.06-.37-.17s-.4.09-.59,0-.09.26-.14.37-.1.44-.17-.06-.26-.44-.41,0c-.06.17-.11.18-.15,0s-.16-.35-.26-.1c0,.08-.09.14-.12,0-.17-.65-.4-.07-.6-.24,0,0-.08.06-.09.18,0,.34-.07.33-.13.14-.13-.36-.3-.31-.45-.25-.48.19-1,0-1.45.2-.65.22-1.3.11-2,.27A3,3,0,0,1,120.58.6a.82.82,0,0,0-.8.32c-.29.34-.6.22-.91.24-.11,0-.21,0-.29.24a1.55,1.55,0,0,0-.1.77c0,.3.11.59.24.59s.44.19.66.41.46,0,.69,0,.4-.06.6-.09c0,0,.06,0,.09,0a.41.41,0,0,1,.1.3c0,.15-.07.1-.1.1a3.64,3.64,0,0,0-1.48.41c-.28.1-.56.24-.84.36a.42.42,0,0,0-.16.11,1.09,1.09,0,0,0-.21.91" fill="#555042"/>
  <path d="M421,64.76c0-.64-.44-1.24-.75-1s-.84.19-1.23.64c-.09.1-.29.32-.2-.18.18-1.15-.28-1-.38-1.6-.16-1-.38-.22-.6-.08s-.38.37-.58,0-.28-.21-.38,0c-.45,1-.8-.06-1.17-.44s-.47-.39-.75-.24a11.13,11.13,0,0,1-3.31.75c-.78.15-1.56,0-2.33.24-.29.07-.46.65-.73.61l-.23,0c-.41-.44-.83-1.1-1.26-.06-.45-.64-.88.81-1.33.05-.07-.12-.17-.17-.25-.13a3.54,3.54,0,0,1-2.4.15c-.15,0-.31.05-.42.44-.69.07-1.38-.7-2.08-.06-.45.42-.92.27-1.38.19a3.56,3.56,0,0,0-1.26.11,1.51,1.51,0,0,1-.79,0c-.55-.16-1.17-.54-1.63,0s-.83.9-1.28.13c0-.06-.21-.15-.29.18s-.24.45-.36.33c-.67-.7-1.41.17-2-.38-.82-.72-1.58.22-2.36,0a2.63,2.63,0,0,0-1.66-.13,3.11,3.11,0,0,1-2.53-.25c-.67-.33-1.38,0-2.07,0a.53.53,0,0,0-.51.39v0h0a.59.59,0,0,1,0,.08c-.14-.14-.3-.42-.43-.37-1.23.39-2.46-.73-3.68,0-.33.2-.59-.37-.9-.38-1.32,0-2.63.16-3.94-.54-.34-.19-.74-.11-1.07.43-.06.09-.1.3-.16.12-.42-1.22-1-.61-1.45-.67a26,26,0,0,1-5.47-.94,25.84,25.84,0,0,0-3-.8,1.18,1.18,0,0,0-.86.32c-.51.37-.51.33-.28,1.67v0h0c-.88-.36-1.73-.23-2.53,1a1.43,1.43,0,0,0-.21.81,2.2,2.2,0,0,0-.13.36c-.3,1.33-.27,1.55.27,2,.1.07.28,0,.25.33s-.18,0-.27,0c-.24,0-.41.39-.62.59-.39.38-.81.25-1.19.69a1.11,1.11,0,0,0-.37,1c0,.74.13,1.42.47,1.47s.61.43.89-.17c0-.07.13,0,.19.08h0c.3.45.67,0,1,.62a1.36,1.36,0,0,1,.27.91c0,1.12.24,1.6.69,1.64,1.3.1,2.61.18,3.92.22a2.85,2.85,0,0,0,1.51-.4c.3-.17.6.31.92.36,1.65.28,3.29-.16,4.94-.08s3,.1,4.52.12c.88,0,1.78.35,2.66.3,1.66-.08,3.32.3,5,0,.47-.1,1,.31,1.46.22a5.92,5.92,0,0,1,2.33-.19,9.89,9.89,0,0,0,3.12.17c1-.1,1.9.14,2.86,0a6.28,6.28,0,0,1,2.06.31,1.62,1.62,0,0,0,1.29-.34c.33-.22.71.14,1.07.21s.9,1,1.27-.35c.25.44.55.13.79.36.42.41.82-.19,1.23.06.23.15.19-.56.3-.79s.21-.93.35.13.56.93.87.06c.12-.36.23-.38.32,0,.17.61.34.73.56.21.07-.17.19-.3.24-.1.36,1.38.85.15,1.26.5.1.08.18-.12.19-.38,0-.73.15-.69.29-.29.28.76.63.65.95.52,1-.4,2-.06,3-.41,1.37-.47,2.75-.23,4.12-.57a6.7,6.7,0,0,1,2.36.18,1.72,1.72,0,0,0,1.7-.67c.6-.71,1.27-.46,1.91-.5.23,0,.45,0,.62-.5a3.49,3.49,0,0,0,.21-1.63c-.08-.64-.24-1.25-.52-1.24-.5,0-.93-.4-1.4-.88s-1-.06-1.44,0-.84.13-1.25.19c-.07,0-.14.06-.2,0a.79.79,0,0,1-.21-.62c0-.32.14-.23.22-.22,1.05.11,2.08-.52,3.12-.88.6-.21,1.19-.49,1.78-.75a.9.9,0,0,0,.32-.23,2.36,2.36,0,0,0,.47-1.92" fill="#2b2e34"/>
  <path d="M304.65,72.74c0-.65-.43-1.25-.74-1s-.84.19-1.24.64c-.08.1-.28.33-.2-.18.19-1.14-.27-1-.37-1.6-.17-1-.38-.22-.6-.08s-.39.37-.58,0-.29-.22-.38,0c-.45,1-.81-.07-1.17-.45s-.47-.39-.75-.24a10.82,10.82,0,0,1-3.32.75c-.77.16-1.55,0-2.32.24-.29.07-.46.66-.73.62l-.23,0c-.42-.45-.84-1.1-1.26-.07-.45-.63-.88.82-1.33,0-.07-.12-.18-.17-.26-.12a3.6,3.6,0,0,1-2.4.15c-.15,0-.31,0-.41.43-.69.07-1.38-.7-2.08-.06-.45.42-.93.27-1.39.19a3.58,3.58,0,0,0-1.26.11,1.63,1.63,0,0,1-.79,0c-.54-.17-1.16-.55-1.62,0s-.83.9-1.28.13c0-.06-.21-.14-.29.18s-.24.46-.36.33c-.67-.7-1.41.17-2-.38-.82-.72-1.58.22-2.37,0a2.59,2.59,0,0,0-1.65-.12A3.18,3.18,0,0,1,268.7,72c-.66-.33-1.37,0-2.06,0a.53.53,0,0,0-.52.39s0,0,0,0v0s0,0,0,.08c-.14-.14-.3-.41-.43-.37-1.23.39-2.46-.72-3.69,0-.33.19-.58-.38-.9-.39-1.31,0-2.63.17-3.93-.54-.35-.19-.74-.11-1.08.44-.05.09-.1.29-.15.11-.42-1.22-1-.61-1.45-.67a26.73,26.73,0,0,1-5.48-.93,23.83,23.83,0,0,0-3-.8,1.17,1.17,0,0,0-.86.31c-.51.37-.52.33-.28,1.67,0,0,0,0,0,0h0c-.88-.37-1.74-.24-2.53,1a1.34,1.34,0,0,0-.21.8,1.74,1.74,0,0,0-.13.36c-.3,1.34-.27,1.55.26,2,.1.07.29,0,.26.33s-.18,0-.28,0-.41.39-.61.58c-.39.38-.81.25-1.19.69a1.14,1.14,0,0,0-.38,1c0,.74.13,1.42.48,1.48s.6.42.89-.18c0-.07.12,0,.19.09v0c.3.45.66,0,1,.63a1.4,1.4,0,0,1,.27.91c0,1.12.24,1.6.68,1.63,1.31.1,2.62.19,3.92.22a2.73,2.73,0,0,0,1.52-.4c.29-.16.6.32.92.37,1.64.27,3.29-.16,4.93-.09s3,.1,4.53.12c.88,0,1.77.35,2.66.31,1.66-.08,3.32.3,5,0,.47-.1,1,.3,1.46.21a5.68,5.68,0,0,1,2.32-.18,10.22,10.22,0,0,0,3.12.16c1-.09,1.91.14,2.86,0a6.51,6.51,0,0,1,2.06.31,1.61,1.61,0,0,0,1.29-.33c.33-.23.72.14,1.08.2s.89,1,1.27-.34c.24.44.55.12.78.35.43.42.83-.19,1.24.07.22.14.19-.57.3-.79s.21-.94.35.13.56.92.86.06c.13-.36.24-.38.33,0,.17.62.34.74.56.21.07-.16.18-.3.23-.09.37,1.37.86.14,1.27.49.1.09.18-.12.18-.38,0-.72.15-.69.3-.29.27.77.63.65.94.53,1-.41,2-.06,3.05-.41,1.37-.47,2.75-.24,4.12-.58a6.63,6.63,0,0,1,2.35.19,1.72,1.72,0,0,0,1.7-.67c.6-.71,1.27-.46,1.92-.51.23,0,.44,0,.61-.5a3.47,3.47,0,0,0,.21-1.63c-.07-.63-.23-1.25-.52-1.24-.5,0-.93-.4-1.39-.87s-1-.07-1.44,0-.84.12-1.26.19c-.06,0-.14.06-.2,0a.85.85,0,0,1-.21-.63c0-.32.15-.23.23-.22,1,.11,2.08-.52,3.11-.88.6-.21,1.19-.49,1.79-.75a.9.9,0,0,0,.32-.23,2.38,2.38,0,0,0,.46-1.91" fill="#2b2e34"/>
  <path d="M337,36.74c0-.64-.43-1.24-.75-1s-.83.18-1.23.64c-.08.1-.28.32-.2-.19.19-1.14-.27-1-.37-1.6-.17-1-.38-.22-.6-.08s-.39.38-.58.05-.28-.21-.38,0c-.45,1-.81-.07-1.17-.44s-.47-.39-.75-.24a11.13,11.13,0,0,1-3.31.75c-.78.15-1.56,0-2.33.23-.29.08-.46.66-.73.62l-.23,0c-.42-.44-.83-1.1-1.26-.06-.45-.64-.88.81-1.33,0-.07-.11-.18-.16-.26-.12a3.54,3.54,0,0,1-2.4.15c-.15,0-.31,0-.41.43-.69.08-1.38-.7-2.08-.05a1.39,1.39,0,0,1-1.39.18,3.58,3.58,0,0,0-1.26.12,1.63,1.63,0,0,1-.79,0c-.54-.16-1.16-.54-1.62,0s-.83.9-1.28.12c0-.05-.22-.14-.29.19s-.24.45-.36.33c-.67-.7-1.41.16-2-.38-.82-.72-1.58.22-2.37,0a2.59,2.59,0,0,0-1.65-.12A3.18,3.18,0,0,1,301,36c-.66-.33-1.37,0-2.06,0a.55.55,0,0,0-.52.39s0,0,0,0h0s0,0,0,.07c-.14-.13-.3-.41-.43-.36-1.23.39-2.46-.73-3.69,0-.33.19-.58-.37-.9-.38-1.31,0-2.63.16-3.93-.54-.34-.19-.74-.11-1.08.43-.05.09-.1.3-.15.12-.42-1.22-1-.62-1.45-.68a26.18,26.18,0,0,1-5.48-.93,23.37,23.37,0,0,0-3-.8,1.14,1.14,0,0,0-.86.32c-.51.37-.52.32-.28,1.66,0,0,0,0,0,0h0c-.88-.36-1.74-.23-2.53,1a1.34,1.34,0,0,0-.21.8,1.63,1.63,0,0,0-.13.37c-.3,1.33-.27,1.55.27,1.94.1.08.28,0,.25.33s-.18,0-.28,0-.41.39-.61.58c-.39.38-.81.25-1.19.7a1.13,1.13,0,0,0-.38,1c0,.73.13,1.41.48,1.47s.6.43.89-.17c0-.08.12.05.19.08v0c.3.46.67,0,1,.63a1.4,1.4,0,0,1,.27.91c0,1.12.24,1.6.69,1.64,1.3.1,2.61.18,3.91.22a2.88,2.88,0,0,0,1.52-.4c.3-.17.6.31.92.36,1.65.27,3.29-.16,4.94-.08s3,.1,4.52.12c.88,0,1.78.35,2.66.3,1.66-.08,3.32.3,5,0,.47-.1,1,.31,1.46.22a5.71,5.71,0,0,1,2.32-.19,10,10,0,0,0,3.13.16c.95-.09,1.9.15,2.86,0a6.86,6.86,0,0,1,2.06.31,1.62,1.62,0,0,0,1.29-.33c.33-.22.71.14,1.07.21s.89,1,1.27-.35c.25.44.55.13.79.36.42.41.82-.19,1.23.06.22.14.19-.57.3-.79s.21-.94.35.13.56.93.87.06c.12-.36.23-.38.32,0,.17.61.34.73.56.21.07-.17.18-.3.24-.1.36,1.38.85.14,1.26.5.1.08.18-.12.19-.38,0-.73.14-.69.29-.29.27.76.63.65.94.52,1-.4,2-.06,3.05-.41,1.37-.47,2.75-.23,4.12-.57a6.7,6.7,0,0,1,2.36.18,1.74,1.74,0,0,0,1.7-.67c.6-.71,1.27-.46,1.91-.5.23,0,.44,0,.62-.5a3.62,3.62,0,0,0,.2-1.63c-.07-.64-.23-1.25-.52-1.24-.5,0-.93-.4-1.39-.88s-1-.07-1.44,0-.84.13-1.26.19c-.06,0-.14.06-.2,0a.79.79,0,0,1-.2-.62c0-.33.14-.23.22-.22,1.05.11,2.08-.53,3.11-.89.6-.2,1.19-.48,1.78-.74a.86.86,0,0,0,.33-.23,2.4,2.4,0,0,0,.46-1.92" fill="#2b2e34"/>
  <path d="M412.69,36.74c-.05-.64-.43-1.24-.75-1s-.84.18-1.23.64c-.09.1-.28.32-.2-.19.18-1.14-.28-1-.37-1.6-.17-1-.38-.22-.6-.08s-.39.38-.58.05-.29-.21-.38,0c-.46,1-.81-.07-1.17-.44s-.47-.39-.76-.24a11.06,11.06,0,0,1-3.31.75c-.77.15-1.55,0-2.33.23-.28.08-.46.66-.72.62l-.23,0c-.42-.44-.84-1.1-1.27-.06-.44-.64-.87.81-1.32,0-.07-.11-.18-.16-.26-.12a3.54,3.54,0,0,1-2.4.15c-.15,0-.31,0-.41.43-.7.08-1.39-.7-2.08-.05a1.39,1.39,0,0,1-1.39.18,3.58,3.58,0,0,0-1.26.12,1.52,1.52,0,0,1-.79,0c-.54-.16-1.17-.54-1.63,0s-.82.9-1.27.12c0-.05-.22-.14-.3.19s-.24.45-.35.33c-.67-.7-1.41.16-2-.38-.82-.72-1.58.22-2.37,0a2.59,2.59,0,0,0-1.65-.12,3.17,3.17,0,0,1-2.54-.25c-.67-.33-1.38,0-2.07,0a.53.53,0,0,0-.51.39v0h0l0,.07c-.15-.13-.3-.41-.44-.36-1.23.39-2.46-.73-3.68,0-.33.19-.58-.37-.91-.38-1.31,0-2.62.16-3.93-.54-.34-.19-.74-.11-1.07.43-.06.09-.1.3-.16.12-.42-1.22-1-.62-1.45-.68a26,26,0,0,1-5.47-.93,24,24,0,0,0-3-.8,1.14,1.14,0,0,0-.86.32c-.51.37-.51.32-.28,1.66,0,0,0,0,0,0h0c-.88-.36-1.73-.23-2.53,1a1.41,1.41,0,0,0-.21.8,2.32,2.32,0,0,0-.13.37c-.3,1.33-.27,1.55.27,1.94.1.08.28,0,.25.33s-.18,0-.27,0-.41.39-.62.58c-.39.38-.81.25-1.19.7a1.1,1.1,0,0,0-.37,1c0,.73.13,1.41.47,1.47s.61.43.9-.17c0-.08.12.05.19.08v0c.3.46.66,0,1,.63a1.34,1.34,0,0,1,.27.91c0,1.12.24,1.6.69,1.64,1.3.1,2.61.18,3.92.22a2.91,2.91,0,0,0,1.52-.4c.29-.17.6.31.91.36,1.65.27,3.3-.16,4.94-.08s3,.1,4.53.12c.88,0,1.77.35,2.65.3,1.66-.08,3.32.3,5,0,.47-.1,1,.31,1.46.22a5.68,5.68,0,0,1,2.32-.19,9.9,9.9,0,0,0,3.12.16c1-.09,1.91.15,2.86,0a6.81,6.81,0,0,1,2.06.31,1.61,1.61,0,0,0,1.29-.33c.33-.22.72.14,1.07.21s.9,1,1.28-.35c.24.44.54.13.78.36.43.41.83-.19,1.24.06.22.14.18-.57.3-.79s.21-.94.35.13.56.93.86.06c.13-.36.23-.38.33,0,.17.61.33.73.55.21.07-.17.19-.3.24-.1.36,1.38.86.14,1.27.5.1.08.17-.12.18-.38,0-.73.15-.69.29-.29.28.76.63.65.95.52,1-.4,2-.06,3.05-.41,1.37-.47,2.74-.23,4.12-.57a6.65,6.65,0,0,1,2.35.18,1.72,1.72,0,0,0,1.7-.67c.6-.71,1.27-.46,1.91-.5.24,0,.45,0,.62-.5a3.49,3.49,0,0,0,.21-1.63c-.07-.64-.24-1.25-.52-1.24-.5,0-.93-.4-1.39-.88s-1-.07-1.44,0-.84.13-1.26.19c-.07,0-.14.06-.2,0a.8.8,0,0,1-.21-.62c0-.33.14-.23.22-.22,1.06.11,2.08-.53,3.12-.89.6-.2,1.19-.48,1.78-.74a.9.9,0,0,0,.32-.23,2.36,2.36,0,0,0,.47-1.92" fill="#2b2e34"/>
  <path d="M258.72,36.74c-.05-.64-.44-1.24-.75-1s-.84.18-1.23.64c-.09.1-.29.32-.2-.19.18-1.14-.28-1-.38-1.6-.16-1-.38-.22-.6-.08s-.38.38-.58.05-.28-.21-.38,0c-.45,1-.8-.07-1.17-.44s-.47-.39-.75-.24a11.13,11.13,0,0,1-3.31.75c-.78.15-1.55,0-2.33.23-.29.08-.46.66-.73.62l-.23,0c-.41-.44-.83-1.1-1.26-.06-.45-.64-.88.81-1.33,0-.07-.11-.17-.16-.26-.12a3.53,3.53,0,0,1-2.4.15c-.15,0-.31,0-.41.43-.69.08-1.38-.7-2.08-.05a1.37,1.37,0,0,1-1.38.18,3.62,3.62,0,0,0-1.27.12,1.63,1.63,0,0,1-.79,0c-.54-.16-1.16-.54-1.62,0s-.83.9-1.28.12c0-.05-.21-.14-.29.19s-.24.45-.36.33c-.67-.7-1.4.16-2-.38-.82-.72-1.57.22-2.36,0a2.63,2.63,0,0,0-1.66-.12,3.15,3.15,0,0,1-2.53-.25c-.67-.33-1.38,0-2.07,0a.53.53,0,0,0-.51.39v0h0l0,.07c-.15-.13-.3-.41-.44-.36-1.23.39-2.46-.73-3.68,0-.33.19-.59-.37-.9-.38-1.31,0-2.63.16-3.94-.54-.34-.19-.74-.11-1.07.43-.06.09-.1.3-.16.12-.42-1.22-1-.62-1.45-.68a26,26,0,0,1-5.47-.93,24,24,0,0,0-3-.8,1.14,1.14,0,0,0-.86.32c-.51.37-.51.32-.28,1.66,0,0,0,0,0,0h0c-.88-.36-1.73-.23-2.53,1a1.41,1.41,0,0,0-.21.8,2.32,2.32,0,0,0-.13.37c-.29,1.33-.26,1.55.27,1.94.1.08.29,0,.26.33s-.19,0-.28,0c-.24,0-.41.39-.61.58-.39.38-.82.25-1.2.7a1.1,1.1,0,0,0-.37,1c0,.73.13,1.41.47,1.47s.6.43.89-.17c0-.08.13.05.19.08v0c.3.46.67,0,1,.63a1.34,1.34,0,0,1,.27.91c0,1.12.24,1.6.69,1.64,1.3.1,2.61.18,3.92.22a2.85,2.85,0,0,0,1.51-.4c.3-.17.6.31.92.36,1.65.27,3.29-.16,4.94-.08s3,.1,4.52.12c.88,0,1.78.35,2.66.3,1.66-.08,3.32.3,5,0,.47-.1,1,.31,1.46.22a5.74,5.74,0,0,1,2.33-.19,9.89,9.89,0,0,0,3.12.16c.95-.09,1.9.15,2.86,0a6.86,6.86,0,0,1,2.06.31,1.61,1.61,0,0,0,1.29-.33c.33-.22.71.14,1.07.21s.89,1,1.27-.35c.25.44.55.13.79.36.42.41.82-.19,1.23.06.23.14.19-.57.3-.79s.21-.94.35.13.56.93.87.06c.12-.36.23-.38.32,0,.17.61.34.73.56.21.07-.17.18-.3.24-.1.36,1.38.85.14,1.26.5.1.08.18-.12.19-.38,0-.73.14-.69.29-.29.27.76.63.65.94.52,1-.4,2-.06,3-.41,1.37-.47,2.75-.23,4.12-.57a6.7,6.7,0,0,1,2.36.18,1.73,1.73,0,0,0,1.7-.67c.6-.71,1.27-.46,1.91-.5.23,0,.44,0,.62-.5a3.49,3.49,0,0,0,.21-1.63c-.08-.64-.24-1.25-.52-1.24-.5,0-.93-.4-1.4-.88s-.95-.07-1.44,0-.84.13-1.25.19c-.07,0-.14.06-.2,0a.8.8,0,0,1-.21-.62c0-.33.14-.23.22-.22,1.05.11,2.08-.53,3.12-.89.6-.2,1.19-.48,1.78-.74a.9.9,0,0,0,.32-.23,2.36,2.36,0,0,0,.47-1.92" fill="#2b2e34"/>
  <path d="M237.51,14.77c.05.64.44,1.24.75,1s.84-.19,1.23-.64c.09-.1.29-.33.2.18-.18,1.14.28,1,.38,1.6.16,1,.37.22.6.08s.38-.37.57,0,.29.21.38,0c.46-1,.81.07,1.17.45s.48.39.76.24a10.76,10.76,0,0,1,3.31-.75c.77-.16,1.55,0,2.33-.24.28-.07.46-.66.72-.62l.23-.05c.42.44.84,1.1,1.27.07.44.63.87-.82,1.32-.05.07.12.18.16.26.12a3.54,3.54,0,0,1,2.4-.15c.15,0,.31,0,.41-.43.7-.07,1.39.7,2.08.06.46-.42.93-.27,1.39-.19a3.58,3.58,0,0,0,1.26-.11,1.52,1.52,0,0,1,.79,0c.54.16,1.16.55,1.63,0s.82-.9,1.27-.13c0,.06.22.15.29-.18s.24-.45.36-.33c.67.7,1.41-.16,2,.38.82.72,1.58-.22,2.37,0a2.6,2.6,0,0,0,1.65.13,3.18,3.18,0,0,1,2.54.25c.66.33,1.37,0,2.06,0a.55.55,0,0,0,.52-.39v0h0a.2.2,0,0,0,0-.08c.14.14.3.42.43.37,1.23-.39,2.46.73,3.69,0,.33-.2.58.37.9.38,1.31.05,2.63-.16,3.93.54.35.19.74.11,1.08-.43.05-.09.1-.3.15-.12.42,1.22,1,.61,1.45.68a25.44,25.44,0,0,1,5.48.93,25.32,25.32,0,0,0,3,.8,1.18,1.18,0,0,0,.85-.32c.51-.37.52-.33.28-1.67,0,0,0,0,0,0h0c.89.36,1.74.23,2.54-1a1.34,1.34,0,0,0,.2-.81,2.24,2.24,0,0,0,.14-.36c.29-1.33.26-1.55-.27-1.95-.1-.07-.29,0-.26-.33s.18,0,.28,0,.41-.38.61-.58c.39-.38.81-.25,1.2-.69a1.16,1.16,0,0,0,.37-1c0-.74-.13-1.41-.47-1.47s-.61-.43-.89.17c0,.07-.13-.05-.19-.08h0c-.3-.45-.67,0-1-.62a1.36,1.36,0,0,1-.27-.91c0-1.12-.24-1.6-.69-1.64-1.3-.1-2.61-.18-3.92-.22a2.91,2.91,0,0,0-1.52.4c-.29.17-.6-.31-.91-.36-1.65-.28-3.29.16-4.94.08s-3-.1-4.53-.12c-.88,0-1.77-.35-2.65-.3-1.66.08-3.32-.3-5,0-.47.1-1-.31-1.45-.22a5.92,5.92,0,0,1-2.33.19,9.9,9.9,0,0,0-3.12-.16c-1,.09-1.91-.14-2.86,0a6.51,6.51,0,0,1-2.06-.31,1.61,1.61,0,0,0-1.29.33c-.33.23-.72-.14-1.07-.2s-.9-1-1.28.34c-.24-.44-.54-.13-.78-.36-.43-.41-.83.2-1.24-.06-.22-.14-.18.57-.3.79s-.21.94-.35-.13-.56-.93-.86-.06c-.13.36-.23.38-.33,0-.17-.62-.33-.74-.55-.22-.07.17-.19.3-.24.1-.36-1.37-.86-.14-1.27-.5-.1-.08-.17.12-.18.39,0,.72-.15.69-.29.29-.28-.77-.63-.66-.95-.53-1,.4-2,.06-3.05.41-1.36.47-2.74.24-4.12.58a6.65,6.65,0,0,1-2.35-.19,1.72,1.72,0,0,0-1.7.67c-.6.71-1.27.46-1.91.51-.23,0-.45,0-.62.5a3.43,3.43,0,0,0-.21,1.62c.07.64.23,1.25.51,1.24.5,0,.93.4,1.4.88s.95.06,1.44,0,.84-.13,1.26-.19c.06,0,.13-.06.2,0a.82.82,0,0,1,.2.62c0,.32-.14.23-.22.22-1.06-.11-2.08.52-3.12.88-.6.21-1.19.49-1.78.75a.75.75,0,0,0-.32.23,2.32,2.32,0,0,0-.46,1.92" fill="#ad7a4c"/>
</svg>
