<svg id="Layer_1" data-name="Layer 1" xmlns="http://www.w3.org/2000/svg" viewBox="0 0 421.07 90.99">
  <path d="M201,64.65h0s0,0,0,0" fill="#231f20"/>
  <path d="M180.86,63.57s0,0,0,0m-2.62,1.88v-.07a.31.31,0,0,0,0,.1s0,0,0,0m-.39,5.63s0,0-.08,0,0-.16,0-.17.07.08,0,.15M237.61,65c-.05-.59-.41-1.14-.71-1s-.8.17-1.17.59c-.08.09-.27.3-.19-.17.17-1.05-.27-.94-.36-1.47-.16-.91-.36-.2-.56-.07s-.37.34-.55,0-.27-.2-.36,0c-.43.92-.77-.06-1.11-.41s-.45-.35-.72-.22a10.37,10.37,0,0,1-3.14.69c-.74.14-1.48,0-2.22.22-.26.07-.43.61-.68.57l-.22.05c-.4-.41-.79-1-1.2-.07-.42-.58-.84.76-1.26,0-.07-.11-.17-.15-.25-.11a3.44,3.44,0,0,1-2.28.13c-.14,0-.29,0-.39.41-.66.06-1.31-.65-2-.06-.43.39-.88.25-1.32.17a3.5,3.5,0,0,0-1.2.11,1.47,1.47,0,0,1-.75,0c-.51-.15-1.1-.51-1.54,0s-.79.83-1.21.11c0,0-.21-.13-.28.17s-.23.42-.34.31c-.64-.65-1.34.15-1.93-.35-.77-.67-1.49.2-2.24,0a2.64,2.64,0,0,0-1.57-.11,3.1,3.1,0,0,1-2.41-.23c-.63-.31-1.31,0-2,0a.5.5,0,0,0-.49.36v0h0a.43.43,0,0,0,0,.07c-.13-.13-.28-.38-.41-.34-1.17.36-2.34-.67-3.5,0-.31.18-.55-.34-.86-.35-1.24-.05-2.49.15-3.73-.5-.33-.17-.71-.1-1,.4-.05.09-.09.27-.15.11-.4-1.12-.92-.56-1.38-.62a25.92,25.92,0,0,1-5.19-.86,22.84,22.84,0,0,0-2.84-.74,1.13,1.13,0,0,0-.81.29c-.49.34-.49.3-.27,1.54,0,0,0,0,0,0a1.8,1.8,0,0,0-2.4.92,1.21,1.21,0,0,0-.2.74,2.2,2.2,0,0,0-.13.34c-.28,1.22-.25,1.42.26,1.79.09.06.27,0,.24.3s-.17,0-.26,0-.39.36-.58.54c-.37.35-.77.23-1.14.63a1,1,0,0,0-.35,1c0,.68.12,1.31.45,1.36s.57.39.85-.16c0-.07.12,0,.18.08v0c.28.42.63,0,.93.58a1.21,1.21,0,0,1,.25.83c0,1,.23,1.48.66,1.51,1.24.09,2.48.17,3.72.2a2.76,2.76,0,0,0,1.44-.37c.27-.15.57.29.87.34,1.56.25,3.12-.15,4.69-.08s2.86.09,4.29.11c.84,0,1.69.32,2.52.28,1.58-.08,3.16.28,4.74,0,.44-.09.92.29,1.38.2a5.5,5.5,0,0,1,2.2-.17,9.91,9.91,0,0,0,3,.15c.91-.08,1.81.13,2.71,0a6.28,6.28,0,0,1,2,.28,1.6,1.6,0,0,0,1.23-.31c.31-.2.67.13,1,.19s.84.89,1.2-.31c.23.4.52.11.75.32.4.38.78-.17,1.17.06.21.14.18-.52.28-.72s.2-.87.33.12.54.85.82,0c.13-.33.23-.35.31,0,.16.57.33.68.53.19.07-.15.18-.27.23-.08.34,1.26.81.13,1.2.45.09.08.17-.11.17-.35,0-.66.14-.63.28-.27.26.71.6.6.9.49,1-.37,1.93-.06,2.89-.38,1.3-.43,2.61-.22,3.91-.53a6.57,6.57,0,0,1,2.24.17,1.65,1.65,0,0,0,1.61-.62c.57-.65,1.2-.42,1.82-.46.22,0,.42,0,.58-.46a3.11,3.11,0,0,0,.21-1.5c-.07-.58-.23-1.15-.5-1.14-.47,0-.88-.37-1.32-.8s-.91-.06-1.37,0-.79.11-1.19.17c-.06,0-.13.06-.19,0a.71.71,0,0,1-.19-.57c0-.3.13-.21.21-.2a7.44,7.44,0,0,0,3-.82c.56-.19,1.13-.44,1.69-.68a1,1,0,0,0,.3-.21,2.14,2.14,0,0,0,.44-1.77" fill="#231f20"/>
  <path d="M266,63.57s0,0,0,0m-2.62,1.88v-.07s0,.07,0,.1,0,0,0,0M263,71.08s0,0-.08,0,0-.16.05-.17.07.08,0,.15M322.78,65c0-.59-.41-1.14-.71-1s-.8.17-1.17.59c-.08.09-.27.3-.19-.17.17-1.05-.26-.94-.36-1.47-.15-.91-.36-.2-.56-.07s-.37.34-.55,0-.27-.2-.36,0c-.43.92-.77-.06-1.11-.41s-.45-.35-.72-.22a10.37,10.37,0,0,1-3.14.69c-.74.14-1.48,0-2.22.22-.26.07-.43.61-.68.57l-.22.05c-.4-.41-.79-1-1.2-.07-.42-.58-.84.76-1.26,0-.07-.11-.17-.15-.25-.11a3.44,3.44,0,0,1-2.28.13c-.14,0-.29,0-.39.41-.66.06-1.31-.65-2-.06-.43.39-.88.25-1.32.17a3.5,3.5,0,0,0-1.2.11,1.47,1.47,0,0,1-.75,0c-.51-.15-1.1-.51-1.54,0s-.78.83-1.21.11c0,0-.21-.13-.28.17s-.23.42-.34.31c-.64-.65-1.34.15-1.93-.35-.77-.67-1.49.2-2.24,0a2.64,2.64,0,0,0-1.57-.11,3.1,3.1,0,0,1-2.41-.23c-.63-.31-1.31,0-2,0a.5.5,0,0,0-.49.36v0h0a.43.43,0,0,0,0,.07c-.13-.13-.28-.38-.41-.34-1.16.36-2.33-.67-3.5,0-.31.18-.55-.34-.85-.35-1.25-.05-2.5.15-3.74-.5-.33-.17-.7-.1-1,.4-.05.09-.09.27-.15.11-.4-1.12-.92-.56-1.38-.62a26,26,0,0,1-5.19-.86,22.4,22.4,0,0,0-2.84-.74,1.13,1.13,0,0,0-.81.29c-.49.34-.49.3-.27,1.54,0,0,0,0,0,0a1.8,1.8,0,0,0-2.4.92,1.21,1.21,0,0,0-.2.74,2.2,2.2,0,0,0-.13.34c-.27,1.22-.25,1.42.26,1.79.09.06.27,0,.24.3s-.17,0-.26,0-.39.36-.58.54c-.37.35-.77.23-1.14.63a1,1,0,0,0-.35,1c0,.68.12,1.31.45,1.36s.57.39.85-.16c0-.07.12,0,.18.08v0c.28.42.63,0,.93.58a1.21,1.21,0,0,1,.25.83c0,1,.24,1.48.66,1.51,1.24.09,2.48.17,3.72.2a2.76,2.76,0,0,0,1.44-.37c.27-.15.57.29.87.34,1.56.25,3.12-.15,4.69-.08s2.86.09,4.29.11c.84,0,1.69.32,2.52.28,1.58-.08,3.16.28,4.74,0,.44-.09.92.29,1.38.2a5.53,5.53,0,0,1,2.21-.17,9.83,9.83,0,0,0,3,.15c.91-.08,1.81.13,2.71,0a6.28,6.28,0,0,1,2,.28,1.6,1.6,0,0,0,1.23-.31c.31-.2.67.13,1,.19s.84.89,1.2-.31c.23.4.52.11.75.32.4.38.78-.17,1.17.06.21.14.18-.52.28-.72s.2-.87.33.12.54.85.82,0c.13-.33.23-.35.31,0,.16.57.33.68.53.19.07-.15.18-.27.23-.08.34,1.26.81.13,1.2.45.09.08.17-.11.18-.35,0-.66.13-.63.27-.27.26.71.6.6.9.49,1-.37,1.94-.06,2.89-.38,1.3-.43,2.61-.22,3.92-.53a6.53,6.53,0,0,1,2.23.17,1.65,1.65,0,0,0,1.61-.62c.57-.65,1.21-.42,1.82-.46.22,0,.42,0,.58-.46a3.11,3.11,0,0,0,.21-1.5c-.07-.58-.23-1.15-.5-1.14-.47,0-.88-.37-1.32-.8s-.91-.06-1.37,0-.79.11-1.19.17c-.06,0-.13.06-.19,0a.71.71,0,0,1-.19-.57c0-.3.13-.21.21-.2a7.44,7.44,0,0,0,3-.82c.56-.19,1.13-.44,1.69-.68a1,1,0,0,0,.3-.21,2.14,2.14,0,0,0,.44-1.77" fill="#c2b59b"/>
  <path d="M351.2,63.57s0,0,0,0m-2.62,1.88v-.07s0,.07,0,.1a0,0,0,0,1,0,0m-.39,5.63s-.05,0-.08,0,0-.16.05-.17.07.08,0,.15M408,65c-.05-.59-.41-1.14-.71-1s-.8.17-1.17.59c-.08.09-.27.3-.19-.17.17-1.05-.26-.94-.36-1.47-.15-.91-.36-.2-.56-.07s-.37.34-.55,0-.27-.2-.36,0c-.43.92-.77-.06-1.11-.41s-.45-.35-.72-.22a10.37,10.37,0,0,1-3.14.69c-.74.14-1.48,0-2.21.22-.27.07-.44.61-.69.57l-.22.05c-.4-.41-.79-1-1.2-.07-.42-.58-.83.76-1.26,0-.07-.11-.17-.15-.24-.11a3.45,3.45,0,0,1-2.28.13c-.15,0-.3,0-.4.41-.66.06-1.31-.65-2-.06-.43.39-.88.25-1.32.17a3.5,3.5,0,0,0-1.2.11,1.47,1.47,0,0,1-.75,0c-.51-.15-1.1-.51-1.54,0s-.78.83-1.21.11c0,0-.21-.13-.28.17s-.23.42-.34.31c-.64-.65-1.34.15-1.93-.35-.77-.67-1.49.2-2.24,0a2.64,2.64,0,0,0-1.57-.11,3.1,3.1,0,0,1-2.41-.23c-.63-.31-1.31,0-2,0a.5.5,0,0,0-.49.36v0h0l0,.07c-.14-.13-.29-.38-.42-.34-1.16.36-2.33-.67-3.5,0-.31.18-.55-.34-.85-.35-1.25-.05-2.5.15-3.74-.5-.33-.17-.7-.1-1,.4-.05.09-.09.27-.15.11-.4-1.12-.91-.56-1.38-.62a26,26,0,0,1-5.19-.86,22.4,22.4,0,0,0-2.84-.74,1.13,1.13,0,0,0-.81.29c-.49.34-.49.3-.27,1.54,0,0,0,0,0,0a1.81,1.81,0,0,0-2.4.92,1.21,1.21,0,0,0-.2.74c0,.11-.09.2-.13.34-.27,1.22-.25,1.42.26,1.79.09.06.27,0,.24.3s-.17,0-.26,0-.39.36-.58.54c-.37.35-.77.23-1.13.63a1,1,0,0,0-.36,1c0,.68.12,1.31.45,1.36s.58.39.85-.16c0-.07.12,0,.18.08v0c.28.42.63,0,.93.58a1.21,1.21,0,0,1,.25.83c0,1,.24,1.48.66,1.51,1.24.09,2.48.17,3.72.2a2.76,2.76,0,0,0,1.44-.37c.28-.15.57.29.87.34,1.56.25,3.12-.15,4.69-.08s2.86.09,4.29.11c.84,0,1.69.32,2.53.28,1.57-.08,3.15.28,4.73,0,.44-.09.92.29,1.38.2a5.53,5.53,0,0,1,2.21-.17,9.84,9.84,0,0,0,3,.15c.91-.08,1.81.13,2.71,0a6.28,6.28,0,0,1,2,.28,1.6,1.6,0,0,0,1.23-.31c.31-.2.67.13,1,.19s.84.89,1.2-.31c.23.4.52.11.75.32.4.38.78-.17,1.17.06.21.14.18-.52.28-.72s.2-.87.33.12.54.85.83,0c.12-.33.22-.35.3,0,.16.57.33.68.53.19.07-.15.18-.27.23-.08.34,1.26.81.13,1.2.45.09.08.17-.11.18-.35,0-.66.13-.63.27-.27.26.71.6.6.9.49,1-.37,1.94-.06,2.89-.38,1.3-.43,2.61-.22,3.92-.53a6.53,6.53,0,0,1,2.23.17,1.65,1.65,0,0,0,1.61-.62c.57-.65,1.21-.42,1.82-.46.22,0,.42,0,.58-.46a3.11,3.11,0,0,0,.21-1.5c-.07-.58-.23-1.15-.5-1.14-.47,0-.88-.37-1.32-.8s-.91-.06-1.37,0-.79.11-1.19.17c-.06,0-.13.06-.19,0a.71.71,0,0,1-.19-.57c0-.3.13-.21.21-.2a7.44,7.44,0,0,0,3-.82c.56-.19,1.13-.44,1.69-.68a1,1,0,0,0,.3-.21A2.14,2.14,0,0,0,408,65" fill="#231f20"/>
  <path d="M90.55,72h0" fill="#231f20"/>
  <path d="M70.38,70.9s0,0,0,0m-2.63,1.89s0-.05,0-.07a.34.34,0,0,0,0,.1l0,0m-.38,5.63s-.06,0-.09,0,0-.16.06-.17.06.08,0,.15m59.76-6.12c0-.59-.42-1.15-.71-1s-.8.17-1.17.59c-.09.09-.27.3-.19-.17.17-1.05-.27-.94-.36-1.47-.16-.91-.36-.2-.56-.07s-.37.34-.55,0-.28-.2-.36,0c-.44.92-.77-.06-1.11-.41s-.45-.36-.72-.22a10.74,10.74,0,0,1-3.15.69c-.73.14-1.47,0-2.21.22-.27.07-.43.6-.69.57l-.21.05c-.4-.41-.8-1-1.21-.07-.42-.58-.83.75-1.25,0-.07-.11-.17-.15-.25-.11a3.45,3.45,0,0,1-2.28.13c-.14,0-.29,0-.39.4-.66.07-1.31-.64-2,0-.43.39-.87.25-1.31.17a3.5,3.5,0,0,0-1.2.11,1.74,1.74,0,0,1-.75,0c-.51-.15-1.1-.51-1.54,0s-.79.84-1.22.12c0,0-.2-.13-.27.17s-.23.42-.34.3c-.64-.65-1.34.16-1.93-.34-.78-.67-1.5.2-2.25,0a2.46,2.46,0,0,0-1.56-.12A3.1,3.1,0,0,1,93,71.6c-.64-.31-1.31,0-2,0a.5.5,0,0,0-.49.36v0a.43.43,0,0,1,0,.07c-.13-.12-.28-.37-.41-.33-1.17.36-2.34-.67-3.5,0-.31.18-.55-.34-.86-.35-1.24-.05-2.49.15-3.73-.5-.33-.17-.71-.1-1,.4-.06.09-.09.27-.15.11-.4-1.12-.92-.57-1.38-.62a25.92,25.92,0,0,1-5.19-.86,22.84,22.84,0,0,0-2.84-.74,1.13,1.13,0,0,0-.81.29c-.49.34-.49.3-.27,1.54,0,0,0,0,0,0a1.8,1.8,0,0,0-2.4.92,1.21,1.21,0,0,0-.2.74,1.62,1.62,0,0,0-.13.33c-.28,1.23-.25,1.43.26,1.8.09.06.27,0,.24.3s-.17,0-.26,0-.39.36-.58.54c-.37.35-.77.23-1.14.63a1,1,0,0,0-.35,1c0,.68.12,1.31.45,1.35s.57.4.85-.15c0-.07.11,0,.18.07h0c.28.42.63,0,.93.57a1.24,1.24,0,0,1,.25.84c0,1,.23,1.48.66,1.51,1.23.08,2.47.17,3.71.2a2.78,2.78,0,0,0,1.45-.37c.27-.15.57.29.86.34,1.57.25,3.13-.15,4.69-.08s2.87.09,4.3.11c.84,0,1.68.32,2.52.28,1.58-.08,3.15.28,4.73,0,.45-.09.93.29,1.39.2a5.48,5.48,0,0,1,2.2-.17,9.91,9.91,0,0,0,3,.15c.91-.09,1.81.13,2.71,0a6.32,6.32,0,0,1,2,.28,1.57,1.57,0,0,0,1.22-.31c.32-.2.68.13,1,.19s.85.88,1.21-.32c.23.41.52.12.74.33.41.38.79-.17,1.18.06.21.13.17-.52.28-.72s.2-.87.33.11.53.86.82.06c.12-.33.22-.35.31,0,.16.57.32.68.53.19.07-.15.18-.27.23-.08.34,1.26.81.12,1.19.45.1.08.17-.11.18-.35,0-.67.14-.63.28-.27.26.71.6.6.89.49,1-.38,1.94-.06,2.9-.38,1.3-.44,2.61-.22,3.91-.53a6.57,6.57,0,0,1,2.24.17,1.65,1.65,0,0,0,1.61-.62c.57-.65,1.2-.42,1.81-.46.23,0,.43,0,.59-.46a3.12,3.12,0,0,0,.2-1.5c-.06-.58-.22-1.15-.49-1.14-.47,0-.88-.37-1.32-.8s-.91-.06-1.37,0-.8.11-1.19.17c-.07,0-.13.06-.19,0a.72.72,0,0,1-.19-.57c0-.3.13-.21.2-.2a7.36,7.36,0,0,0,3-.82c.57-.19,1.13-.45,1.7-.68a1.1,1.1,0,0,0,.3-.21,2.17,2.17,0,0,0,.44-1.77" fill="#231f20"/>
  <path d="M121.22,38.86h0s0,0,0,0" fill="#231f20"/>
  <path d="M249.89,37.78s0,0,0,0m-2.63,1.88V39.6a.28.28,0,0,0,0,.09s0,0,0,0m-.39,5.63s-.05,0-.08,0a.49.49,0,0,1,.05-.17s.07.08,0,.15m59.76-6.12c0-.59-.41-1.14-.71-1s-.8.18-1.17.59c-.08.1-.27.3-.19-.16.17-1.06-.27-.94-.36-1.48-.16-.91-.36-.2-.56-.07s-.37.34-.55,0-.27-.19-.36,0c-.43.91-.77-.07-1.11-.41s-.45-.36-.72-.23a10.7,10.7,0,0,1-3.14.7c-.74.14-1.48,0-2.22.21-.26.07-.43.61-.68.57l-.22.05c-.4-.41-.79-1-1.2-.06-.42-.58-.84.75-1.26,0-.07-.11-.17-.15-.25-.11a3.51,3.51,0,0,1-2.28.14c-.14,0-.29,0-.39.4-.66.06-1.31-.65-2-.06-.43.39-.88.25-1.32.18a3.49,3.49,0,0,0-1.2.1,1.47,1.47,0,0,1-.75,0c-.51-.15-1.1-.5-1.54,0s-.79.83-1.21.12c0-.06-.21-.13-.28.16s-.23.42-.34.31c-.64-.65-1.34.15-1.93-.35-.77-.67-1.49.21-2.24,0a2.49,2.49,0,0,0-1.57-.11,3.1,3.1,0,0,1-2.41-.24c-.63-.3-1.31,0-2,0a.51.51,0,0,0-.49.36v0a0,0,0,0,1,0,0,.43.43,0,0,0,0,.07c-.13-.13-.28-.38-.41-.34-1.17.36-2.34-.67-3.5,0-.31.18-.55-.34-.86-.35a7.92,7.92,0,0,1-3.73-.5c-.33-.17-.7-.1-1,.41-.05.08-.09.26-.15.1-.4-1.12-.92-.56-1.38-.62a25.92,25.92,0,0,1-5.19-.86,24.22,24.22,0,0,0-2.84-.74,1.13,1.13,0,0,0-.81.29c-.49.34-.49.31-.27,1.54,0,0,0,0,0,0a1.82,1.82,0,0,0-2.4.92,1.21,1.21,0,0,0-.2.74,2.68,2.68,0,0,0-.13.34c-.28,1.22-.25,1.42.26,1.79.09.07.27,0,.24.3s-.17,0-.26,0-.39.36-.58.54c-.37.35-.77.23-1.14.64a1,1,0,0,0-.35,1c0,.68.12,1.31.45,1.36s.57.39.85-.16c0-.07.12,0,.18.08v0c.28.42.63,0,.93.58a1.22,1.22,0,0,1,.25.84c0,1,.23,1.47.66,1.5,1.24.09,2.48.17,3.72.2a2.67,2.67,0,0,0,1.44-.37c.27-.15.57.29.87.34,1.56.25,3.12-.15,4.69-.08s2.86.09,4.29.11c.84,0,1.69.32,2.52.28,1.58-.07,3.16.28,4.74,0,.44-.09.92.28,1.38.19a5.68,5.68,0,0,1,2.2-.17,9.59,9.59,0,0,0,3,.15c.91-.08,1.81.13,2.71,0a6.28,6.28,0,0,1,2,.28,1.55,1.55,0,0,0,1.23-.3c.31-.21.67.13,1,.19s.84.88,1.2-.32c.23.41.52.12.75.33.4.38.78-.18,1.17.06.21.13.18-.53.28-.73s.2-.86.33.12.54.85.82.06c.13-.34.23-.36.31-.05.16.57.33.68.53.2.07-.15.18-.28.23-.09.34,1.26.81.13,1.2.46.09.07.17-.12.17-.36,0-.66.14-.63.28-.26.26.7.6.6.9.48,1-.37,1.93-.06,2.89-.38,1.3-.43,2.61-.22,3.91-.53a6.83,6.83,0,0,1,2.24.17,1.67,1.67,0,0,0,1.61-.61c.57-.66,1.2-.43,1.82-.47.22,0,.42,0,.58-.46a3.09,3.09,0,0,0,.21-1.49c-.07-.59-.23-1.16-.5-1.15-.47,0-.88-.37-1.32-.8s-.91-.06-1.37,0-.79.12-1.19.18c-.06,0-.13,0-.19,0a.75.75,0,0,1-.19-.58c0-.29.13-.21.21-.2a7.59,7.59,0,0,0,3-.81c.56-.19,1.13-.45,1.69-.69a.82.82,0,0,0,.3-.21,2.14,2.14,0,0,0,.44-1.77" fill="#a97c50"/>
  <path d="M193.12,38.86h0s0,0,0,0" fill="#231f20"/>
  <path d="M173,37.78h0m-2.63,1.88a.13.13,0,0,1,0-.06v.09s0,0,0,0m-.38,5.63s-.06,0-.09,0,0-.15.06-.17.06.08,0,.15m59.75-6.12c0-.59-.41-1.14-.71-1s-.79.18-1.17.59c-.08.1-.26.3-.19-.16.18-1.06-.26-.94-.35-1.48-.16-.91-.36-.2-.57-.07s-.36.34-.55,0-.27-.19-.36,0c-.43.91-.76-.07-1.11-.41s-.45-.36-.71-.23a10.76,10.76,0,0,1-3.15.7c-.73.14-1.47,0-2.21.21-.27.07-.44.61-.69.57l-.21.05c-.4-.41-.8-1-1.21-.06-.42-.58-.83.75-1.26,0-.06-.11-.16-.15-.24-.11a3.51,3.51,0,0,1-2.28.14c-.14,0-.3,0-.39.4-.66.06-1.32-.65-2-.06a1.36,1.36,0,0,1-1.31.18,3.47,3.47,0,0,0-1.2.1,1.47,1.47,0,0,1-.75,0c-.52-.15-1.11-.5-1.54,0s-.79.83-1.22.12c0-.06-.2-.13-.27.16s-.23.42-.34.31c-.64-.65-1.34.15-1.93-.35-.78-.67-1.5.21-2.25,0a2.49,2.49,0,0,0-1.57-.11,3.11,3.11,0,0,1-2.41-.24c-.63-.3-1.3,0-2,0a.49.49,0,0,0-.48.36v0h0l0,.07c-.14-.13-.28-.38-.41-.34-1.17.36-2.34-.67-3.5,0-.31.18-.56-.34-.86-.35a7.9,7.9,0,0,1-3.73-.5c-.33-.17-.71-.1-1,.41-.05.08-.09.26-.15.1-.39-1.12-.91-.56-1.37-.62a26,26,0,0,1-5.2-.86A24.59,24.59,0,0,0,174,36a1.15,1.15,0,0,0-.82.29c-.48.34-.48.31-.26,1.54v0a1.83,1.83,0,0,0-2.41.92,1.28,1.28,0,0,0-.2.74,2.69,2.69,0,0,0-.12.34c-.28,1.22-.25,1.42.26,1.79.09.07.27,0,.24.3s-.17,0-.26,0-.4.36-.58.54c-.38.35-.78.23-1.14.64a1,1,0,0,0-.35,1c0,.68.12,1.31.44,1.36s.58.39.85-.16c0-.07.12,0,.18.08v0c.28.42.62,0,.92.58a1.22,1.22,0,0,1,.26.84c0,1,.23,1.47.65,1.5,1.24.09,2.48.17,3.72.2a2.65,2.65,0,0,0,1.44-.37c.28-.15.57.29.87.34,1.57.25,3.13-.15,4.69-.08s2.86.09,4.3.11c.83,0,1.68.32,2.52.28,1.58-.07,3.15.28,4.73,0,.45-.09.93.28,1.39.19a5.67,5.67,0,0,1,2.2-.17,9.59,9.59,0,0,0,3,.15c.9-.08,1.8.13,2.71,0a6.32,6.32,0,0,1,2,.28,1.52,1.52,0,0,0,1.22-.3c.32-.21.68.13,1,.19s.85.88,1.21-.32c.23.41.52.12.74.33.4.38.79-.18,1.17.06.22.13.18-.53.29-.73s.2-.86.33.12.53.85.82.06c.12-.34.22-.36.31-.05.16.57.32.68.53.2.06-.15.18-.28.22-.09.35,1.26.81.13,1.2.46.09.07.17-.12.18-.36,0-.66.14-.63.28-.26.26.7.6.6.89.48,1-.37,1.94-.06,2.9-.38,1.3-.43,2.61-.22,3.91-.53a6.75,6.75,0,0,1,2.23.17,1.65,1.65,0,0,0,1.61-.61c.58-.66,1.21-.43,1.82-.47.22,0,.42,0,.59-.46a3.09,3.09,0,0,0,.2-1.49c-.07-.59-.22-1.16-.49-1.15-.47,0-.88-.37-1.32-.8s-.91-.06-1.37,0-.8.12-1.2.18c-.06,0-.12,0-.18,0a.79.79,0,0,1-.2-.58c0-.29.14-.21.21-.2a7.55,7.55,0,0,0,3-.81c.57-.19,1.13-.45,1.69-.69a.85.85,0,0,0,.31-.21,2.14,2.14,0,0,0,.43-1.77" fill="#231f20"/>
  <path d="M46.94,38.86h0s0,0,0,0" fill="#231f20"/>
  <path d="M26.77,37.78h0m-2.63,1.88s0,0,0-.06v.09s0,0,0,0m-.38,5.63s-.06,0-.09,0,0-.15.06-.17.06.08,0,.15m59.76-6.12c0-.59-.42-1.14-.72-1s-.79.18-1.17.59c-.08.1-.26.3-.19-.16.18-1.06-.26-.94-.35-1.48-.16-.91-.36-.2-.57-.07s-.36.34-.55,0-.27-.19-.36,0c-.43.91-.76-.07-1.11-.41s-.44-.36-.71-.23a10.76,10.76,0,0,1-3.15.7c-.73.14-1.47,0-2.21.21-.27.07-.44.61-.69.57l-.21.05c-.4-.41-.8-1-1.21-.06-.42-.58-.83.75-1.25,0-.07-.11-.17-.15-.25-.11a3.51,3.51,0,0,1-2.28.14c-.14,0-.3,0-.39.4-.66.06-1.32-.65-2-.06a1.36,1.36,0,0,1-1.31.18,3.47,3.47,0,0,0-1.2.1,1.47,1.47,0,0,1-.75,0c-.52-.15-1.11-.5-1.54,0s-.79.83-1.22.12c0-.06-.2-.13-.27.16s-.23.42-.34.31c-.64-.65-1.34.15-1.93-.35-.78-.67-1.5.21-2.25,0a2.49,2.49,0,0,0-1.57-.11,3.11,3.11,0,0,1-2.41-.24c-.63-.3-1.3,0-2,0a.5.5,0,0,0-.48.36v0h0l0,.07c-.14-.13-.28-.38-.41-.34-1.17.36-2.34-.67-3.5,0-.31.18-.56-.34-.86-.35a7.9,7.9,0,0,1-3.73-.5c-.33-.17-.71-.1-1,.41,0,.08-.09.26-.15.1-.39-1.12-.91-.56-1.37-.62a26,26,0,0,1-5.2-.86A24.06,24.06,0,0,0,27.82,36a1.12,1.12,0,0,0-.81.29c-.49.34-.49.31-.27,1.54,0,0,0,0,0,0a1.83,1.83,0,0,0-2.41.92,1.29,1.29,0,0,0-.19.74,1.71,1.71,0,0,0-.13.34c-.28,1.22-.25,1.42.25,1.79.1.07.28,0,.25.3s-.17,0-.26,0-.4.36-.58.54c-.37.35-.78.23-1.14.64a1,1,0,0,0-.35,1c0,.68.12,1.31.45,1.36s.57.39.84-.16c0-.07.12,0,.18.08v0c.28.42.62,0,.92.58a1.17,1.17,0,0,1,.26.84c0,1,.23,1.47.65,1.5,1.24.09,2.48.17,3.72.2a2.63,2.63,0,0,0,1.44-.37c.28-.15.57.29.87.34,1.57.25,3.13-.15,4.69-.08s2.87.09,4.3.11c.84,0,1.68.32,2.52.28,1.58-.07,3.15.28,4.73,0,.45-.09.93.28,1.39.19a5.67,5.67,0,0,1,2.2-.17,9.59,9.59,0,0,0,3,.15c.9-.08,1.81.13,2.71,0a6.32,6.32,0,0,1,2,.28,1.52,1.52,0,0,0,1.22-.3c.32-.21.68.13,1,.19s.85.88,1.21-.32c.23.41.52.12.74.33.4.38.79-.18,1.18.06.21.13.17-.53.28-.73s.2-.86.33.12.53.85.82.06c.12-.34.22-.36.31-.05.16.57.32.68.53.2.06-.15.18-.28.22-.09.35,1.26.81.13,1.2.46.1.07.17-.12.18-.36,0-.66.14-.63.28-.26.26.7.6.6.89.48,1-.37,1.94-.06,2.9-.38,1.3-.43,2.61-.22,3.91-.53a6.75,6.75,0,0,1,2.23.17,1.68,1.68,0,0,0,1.62-.61c.57-.66,1.2-.43,1.81-.47.22,0,.42,0,.59-.46a3.09,3.09,0,0,0,.2-1.49c-.07-.59-.22-1.16-.49-1.15-.47,0-.88-.37-1.32-.8s-.91-.06-1.37,0-.8.12-1.19.18c-.07,0-.14,0-.19,0a.79.79,0,0,1-.2-.58c0-.29.14-.21.21-.2a7.55,7.55,0,0,0,3-.81c.57-.19,1.13-.45,1.69-.69a.85.85,0,0,0,.31-.21,2.17,2.17,0,0,0,.44-1.77" fill="#231f20"/>
  <path d="M326.7,76.55h0" fill="#a97c50"/>
  <path d="M120.13,20.35h0m2.63-1.89s0,.05,0,.07v-.1s0,0,0,0m.38-5.63s.06,0,.09,0,0,.16-.06.17-.06-.08,0-.15M63.38,19c0,.59.42,1.15.72,1s.79-.17,1.17-.59c.08-.09.26-.3.19.17-.18,1.05.26.94.35,1.47.16.91.36.2.57.07s.36-.34.54,0,.28.2.37,0c.43-.92.76.06,1.11.41s.44.36.71.22a10.74,10.74,0,0,1,3.15-.69c.74-.14,1.47,0,2.21-.22.27-.07.43-.6.69-.57l.22,0c.39.41.79,1,1.2.07.42.58.83-.75,1.25-.05.07.11.17.15.25.11a3.45,3.45,0,0,1,2.28-.13c.14,0,.3-.05.39-.4.66-.07,1.32.64,2,.05A1.33,1.33,0,0,1,84,19.58a3.48,3.48,0,0,0,1.2-.11,1.59,1.59,0,0,1,.75,0c.51.15,1.1.51,1.54,0s.79-.84,1.22-.12c0,.05.2.13.27-.17s.23-.42.34-.3c.64.65,1.34-.16,1.93.34.78.67,1.5-.2,2.25,0a2.49,2.49,0,0,0,1.57.12,3.1,3.1,0,0,1,2.41.23c.63.31,1.3,0,2,0a.49.49,0,0,0,.48-.36v0l0-.07c.14.12.28.37.41.33,1.17-.36,2.34.67,3.5,0,.31-.18.55.34.86.35,1.24.05,2.5-.15,3.73.5.33.17.71.1,1-.4,0-.09.09-.27.14-.11.4,1.12.92.57,1.38.62a26.14,26.14,0,0,1,5.2.86,22.25,22.25,0,0,0,2.83.74,1.15,1.15,0,0,0,.82-.29c.48-.34.48-.3.26-1.54,0,0,0,0,0,0h0a1.82,1.82,0,0,0,2.41-.92,1.29,1.29,0,0,0,.19-.74,1.62,1.62,0,0,0,.13-.33c.28-1.23.25-1.43-.25-1.8-.1-.06-.28,0-.25-.3s.17,0,.26,0,.39-.36.59-.54c.37-.35.77-.23,1.13-.63a1,1,0,0,0,.35-1c0-.68-.12-1.31-.45-1.36s-.57-.39-.84.16c0,.07-.12,0-.18-.07h0c-.28-.42-.63,0-.92-.57a1.19,1.19,0,0,1-.26-.84c0-1-.23-1.48-.65-1.51-1.24-.08-2.48-.17-3.72-.2a2.78,2.78,0,0,0-1.45.37c-.27.15-.56-.29-.86-.34-1.57-.25-3.13.15-4.69.08s-2.87-.09-4.3-.11c-.84,0-1.68-.32-2.52-.28-1.58.08-3.15-.28-4.73,0-.45.09-.93-.29-1.39-.2a5.48,5.48,0,0,1-2.2.17,9.86,9.86,0,0,0-3-.15c-.91.09-1.82-.13-2.72,0a6.32,6.32,0,0,1-2-.28,1.57,1.57,0,0,0-1.22.31c-.32.2-.68-.13-1-.19s-.85-.88-1.21.32c-.23-.41-.52-.12-.74-.33-.41-.38-.79.17-1.18-.06-.21-.13-.17.52-.28.72s-.2.87-.33-.11-.53-.86-.82-.06c-.12.33-.22.35-.31,0-.16-.57-.32-.68-.53-.19-.07.15-.17.27-.23.08-.34-1.26-.8-.12-1.19-.45-.1-.08-.17.11-.18.35,0,.67-.14.63-.28.27-.26-.71-.6-.6-.89-.49-1,.38-1.94.06-2.9.38-1.3.44-2.61.22-3.91.53a6.57,6.57,0,0,1-2.24-.17,1.65,1.65,0,0,0-1.61.62c-.57.65-1.2.42-1.81.46-.22,0-.42,0-.59.46a3.12,3.12,0,0,0-.2,1.5c.07.58.22,1.15.49,1.14.47,0,.88.37,1.32.8s.91.06,1.37,0,.8-.11,1.19-.17c.07,0,.14-.06.19,0a.72.72,0,0,1,.2.57c0,.3-.14.21-.21.2a7.36,7.36,0,0,0-3,.82c-.57.19-1.13.45-1.69.68a1,1,0,0,0-.31.21A2.17,2.17,0,0,0,63.38,19" fill="#a97c50"/>
</svg>
