<svg id="Layer_1" data-name="Layer 1" xmlns="http://www.w3.org/2000/svg" viewBox="0 0 421.07 90.99">
  <path d="M334.42,17.32h0" fill="#231f20"/>
  <path d="M323,17.93s0,0,0,0m-1.49-1.07v0m-.22-3.2s0,0-.05,0a.41.41,0,0,0,0,.1s0-.05,0-.09m33.93,3.48c0,.34-.23.65-.4.54s-.45-.09-.66-.33c-.05-.05-.16-.17-.11.09.1.6-.15.54-.2.84-.09.52-.21.12-.32,0s-.21-.19-.32,0-.15.11-.2,0c-.25-.52-.44,0-.63.24s-.26.2-.41.12a6.33,6.33,0,0,0-1.78-.39c-.42-.08-.84,0-1.26-.13-.15,0-.25-.34-.39-.32l-.12,0c-.23.24-.45.58-.69,0-.24.33-.47-.43-.71,0,0,.07-.1.09-.14.07a1.92,1.92,0,0,0-1.29-.08c-.09,0-.17,0-.23-.23-.37,0-.74.37-1.12,0s-.5-.14-.75-.09a2,2,0,0,1-.68-.06.85.85,0,0,0-.42,0c-.29.09-.63.29-.88,0s-.44-.48-.69-.07c0,0-.11.07-.16-.1s-.12-.23-.19-.17c-.36.37-.76-.09-1.09.2s-.85-.12-1.28,0a1.36,1.36,0,0,1-.89.06,1.79,1.79,0,0,0-1.37.14c-.36.17-.74,0-1.11,0a.28.28,0,0,1-.28-.2h0l0,0c-.08.07-.16.22-.23.19-.66-.2-1.33.39-2,0-.18-.1-.31.19-.49.2a4.47,4.47,0,0,0-2.12.28c-.18.1-.4.06-.58-.23,0,0-.05-.15-.08-.06-.23.64-.52.32-.78.36a14.29,14.29,0,0,0-2.95.48,14.16,14.16,0,0,1-1.61.42.64.64,0,0,1-.47-.16c-.27-.2-.27-.17-.15-.87,0,0,0,0,0,0a1,1,0,0,1-1.37-.52.73.73,0,0,1-.11-.42c0-.06-.05-.12-.07-.19-.16-.7-.14-.81.14-1,.06,0,.16,0,.14-.17s-.1,0-.15,0-.22-.21-.33-.31-.43-.13-.64-.36a.57.57,0,0,1-.2-.54c0-.39.07-.74.25-.77s.33-.23.48.09c0,0,.07,0,.11,0h0c.16-.24.36,0,.52-.32a.68.68,0,0,0,.15-.48c0-.59.13-.84.37-.85.71-.05,1.41-.1,2.11-.12a1.55,1.55,0,0,1,.82.21c.16.09.33-.16.5-.19a23.65,23.65,0,0,1,2.66,0c.81,0,1.62,0,2.44-.06.47,0,1-.18,1.43-.16a17.26,17.26,0,0,1,2.69,0c.25,0,.52-.16.78-.11a3.17,3.17,0,0,0,1.26.1,5.59,5.59,0,0,1,1.68-.09c.51,0,1-.07,1.54,0a3.55,3.55,0,0,0,1.11-.16.92.92,0,0,1,.7.17c.18.12.38-.07.58-.1s.48-.51.68.18c.13-.24.3-.07.42-.19s.45.1.67,0,.1.29.16.41.11.49.19-.07.3-.48.47,0c.06.19.12.2.17,0s.18-.38.3-.11c0,.09.1.16.13.05.19-.71.46-.07.68-.26.05,0,.1.07.1.2,0,.38.08.36.16.15.15-.39.34-.33.51-.27.54.21,1.1,0,1.64.21.74.25,1.48.13,2.22.31a3.9,3.9,0,0,0,1.27-.1.93.93,0,0,1,.92.35c.32.37.68.24,1,.26.12,0,.24,0,.33.26a1.93,1.93,0,0,1,.12.85c0,.34-.13.66-.28.65s-.5.21-.76.46-.51,0-.77,0-.45-.07-.68-.1a.14.14,0,0,0-.11,0,.44.44,0,0,0-.11.33c0,.17.08.12.12.11a4.38,4.38,0,0,1,1.68.47c.32.11.64.25,1,.39a.47.47,0,0,1,.18.12,1.19,1.19,0,0,1,.24,1" fill="#231f20"/>
  <path d="M357.83,71.07h0" fill="#231f20"/>
  <path d="M346.38,71.69s0,0,0,0m-1.49-1.07v0m-.22-3.2s0,0-.05,0,0,.09,0,.09,0,0,0-.08m33.93,3.47c0,.34-.23.65-.4.55s-.45-.1-.66-.34c-.05,0-.16-.16-.11.1.1.6-.15.53-.2.83-.09.52-.21.12-.33,0s-.2-.2-.31,0-.15.11-.2,0c-.25-.52-.44,0-.63.23s-.26.2-.41.12a6.32,6.32,0,0,0-1.79-.39c-.41-.08-.83,0-1.25-.12-.15,0-.25-.34-.39-.33l-.13,0c-.22.23-.45.57-.68,0-.24.32-.47-.43-.71,0,0,.06-.1.09-.14.06a1.94,1.94,0,0,0-1.3-.07c-.08,0-.16,0-.22-.23-.37,0-.75.36-1.12,0s-.5-.14-.75-.1a2,2,0,0,1-.68-.06.75.75,0,0,0-.42,0c-.3.08-.63.28-.88,0s-.45-.47-.69-.07c0,0-.11.08-.16-.09s-.13-.24-.19-.17c-.36.36-.76-.09-1.09.19s-.85-.11-1.28,0a1.51,1.51,0,0,1-.89.06,1.78,1.78,0,0,0-1.37.13c-.36.18-.74,0-1.11,0a.27.27,0,0,1-.28-.2h0l0,0c-.08.07-.16.21-.23.19-.67-.21-1.33.38-2,0-.18-.1-.31.2-.49.2a4.59,4.59,0,0,0-2.12.29c-.18.09-.4.05-.58-.23,0,0,0-.16-.08-.06-.23.63-.52.32-.78.35a14.31,14.31,0,0,0-3,.49,13.79,13.79,0,0,1-1.62.42.65.65,0,0,1-.46-.17c-.27-.19-.27-.17-.15-.87,0,0,0,0,0,0a1,1,0,0,1-1.37-.52.71.71,0,0,1-.11-.43.54.54,0,0,1-.07-.19c-.16-.69-.14-.81.14-1,.06,0,.16,0,.14-.17s-.1,0-.15,0-.22-.2-.33-.3-.44-.14-.64-.37a.56.56,0,0,1-.2-.54c0-.38.07-.74.25-.77s.33-.22.48.09c0,0,.07,0,.1,0h0c.16-.24.35,0,.52-.33a.73.73,0,0,0,.15-.48c0-.58.13-.83.37-.85.7,0,1.41-.1,2.11-.12a1.64,1.64,0,0,1,.82.21c.16.09.32-.16.49-.19a23.79,23.79,0,0,1,2.67,0c.81,0,1.62,0,2.44-.06.47,0,.95-.19,1.43-.17a18.6,18.6,0,0,1,2.69,0c.25.05.52-.16.78-.11a3.32,3.32,0,0,0,1.25.09,5.35,5.35,0,0,1,1.69-.08c.51,0,1-.08,1.54,0a3.55,3.55,0,0,0,1.11-.16.89.89,0,0,1,.7.18c.17.11.38-.08.58-.11s.48-.5.68.18c.13-.23.3-.07.42-.19s.45.1.67,0,.1.3.16.41.11.49.19-.06.3-.49.46,0q.1.28.18,0c.09-.33.18-.39.3-.11,0,.08.1.15.13.05.19-.72.46-.08.68-.26.05,0,.1.06.1.2,0,.38.08.36.16.15.15-.4.34-.34.51-.28.54.22,1.1,0,1.64.22.74.25,1.48.12,2.22.3a3.66,3.66,0,0,0,1.27-.1,1,1,0,0,1,.91.35c.33.38.69.24,1,.27.12,0,.24,0,.33.26a1.89,1.89,0,0,1,.12.85c0,.33-.13.65-.28.65s-.51.21-.76.45-.51,0-.77,0-.46-.06-.68-.1c0,0-.08,0-.11,0a.42.42,0,0,0-.11.32c0,.17.08.12.12.12a4.19,4.19,0,0,1,1.68.46c.32.11.64.26,1,.39a.63.63,0,0,1,.18.12,1.22,1.22,0,0,1,.24,1" fill="#231f20"/>
  <path d="M271.68,13.15h0" fill="#231f20"/>
  <path d="M260.23,13.76s0,0,0,0m-1.49-1.07v0a.07.07,0,0,1,0-.05h0m-.22-3.19s0,0,0,0a.41.41,0,0,0,0,.1s0,0,0-.08M292.46,13c0,.34-.24.65-.41.55s-.45-.1-.66-.34c-.05,0-.16-.17-.11.1.1.6-.15.53-.2.83-.09.52-.21.12-.32,0s-.21-.19-.32,0-.15.11-.2,0c-.25-.52-.44,0-.63.24s-.26.2-.41.12a6.33,6.33,0,0,0-1.78-.39c-.42-.08-.84,0-1.26-.12-.15,0-.25-.35-.39-.33l-.12,0c-.23.23-.45.57-.69,0-.24.33-.47-.42-.71,0a.12.12,0,0,1-.14.06,2,2,0,0,0-1.29-.08c-.09,0-.17,0-.23-.22-.37,0-.74.36-1.12,0a.76.76,0,0,0-.75-.1,2,2,0,0,1-.68-.06.85.85,0,0,0-.42,0c-.29.09-.63.29-.88,0s-.44-.47-.69-.07c0,0-.11.07-.15-.09s-.13-.24-.2-.18c-.36.37-.76-.08-1.09.2s-.85-.12-1.28,0a1.43,1.43,0,0,1-.89.07,1.74,1.74,0,0,0-1.37.13c-.36.17-.74,0-1.11,0a.28.28,0,0,1-.28-.2h0a.05.05,0,0,0,0,0c-.08.07-.16.21-.23.19-.66-.21-1.33.38-2,0-.18-.1-.31.19-.49.2a4.74,4.74,0,0,0-2.12.28c-.18.1-.4.06-.58-.23,0,0-.05-.15-.08-.06-.23.64-.52.33-.78.36a14.31,14.31,0,0,0-2.95.49,14.09,14.09,0,0,1-1.61.41.6.6,0,0,1-.47-.16c-.27-.19-.27-.17-.15-.87h0a1,1,0,0,1-1.37-.53.73.73,0,0,1-.11-.42,2,2,0,0,1-.07-.19c-.16-.69-.14-.81.14-1,.06,0,.16,0,.14-.17s-.1,0-.15,0-.22-.2-.33-.31-.43-.13-.64-.36a.56.56,0,0,1-.2-.54c0-.39.07-.74.25-.77s.33-.22.48.09c0,0,.07,0,.11,0h0c.16-.23.36,0,.53-.32a.74.74,0,0,0,.14-.48c0-.58.13-.84.37-.85.71-.05,1.41-.1,2.11-.12a1.55,1.55,0,0,1,.82.21c.16.09.33-.16.5-.19a26.28,26.28,0,0,1,2.66,0c.81,0,1.62,0,2.44-.06.47,0,1-.18,1.43-.16a20.12,20.12,0,0,1,2.69,0c.25.05.52-.16.78-.11a3.17,3.17,0,0,0,1.26.1,5.59,5.59,0,0,1,1.68-.09c.51,0,1-.07,1.54,0a3.55,3.55,0,0,0,1.11-.16.89.89,0,0,1,.7.18c.18.11.38-.08.58-.11s.48-.5.68.18c.13-.23.3-.07.42-.19s.45.1.67,0,.1.3.16.41.11.49.19-.07.3-.48.47,0c.06.19.12.2.17,0s.18-.38.3-.1c0,.08.1.15.13,0,.19-.71.46-.07.68-.25.05,0,.1.06.1.2,0,.37.08.36.16.15.15-.4.34-.34.51-.28.54.21,1.1,0,1.64.22.74.24,1.48.12,2.22.3a3.65,3.65,0,0,0,1.27-.1,1,1,0,0,1,.92.35c.32.37.68.24,1,.27.12,0,.24,0,.33.26a1.89,1.89,0,0,1,.12.85c0,.33-.13.65-.28.64a1.19,1.19,0,0,0-.75.46c-.23.23-.52,0-.78,0s-.45-.06-.68-.1c0,0-.07,0-.1,0a.42.42,0,0,0-.12.32c0,.17.08.12.12.12a4.19,4.19,0,0,1,1.68.46c.32.11.64.25,1,.39a.47.47,0,0,1,.18.12,1.22,1.22,0,0,1,.25,1" fill="#231f20"/>
  <path d="M289.1,32h0" fill="#231f20"/>
  <path d="M277.65,32.58s0,0,0,0m-1.49-1.07v0m-.22-3.2s0,0-.05,0,0,.09,0,.09,0,0,0-.08m33.93,3.47c0,.34-.23.65-.4.55s-.45-.1-.66-.34c-.05,0-.16-.16-.11.1.1.6-.15.53-.2.83-.09.52-.21.12-.33,0s-.2-.2-.31,0-.15.11-.2,0c-.25-.52-.44,0-.63.23s-.26.2-.41.12a6.32,6.32,0,0,0-1.79-.39c-.41-.08-.83,0-1.25-.12-.15,0-.25-.34-.39-.33l-.13,0c-.22.23-.45.57-.68,0-.24.33-.47-.42-.71,0a.12.12,0,0,1-.14.06,1.94,1.94,0,0,0-1.3-.07c-.08,0-.16,0-.22-.23-.37,0-.74.36-1.12,0s-.5-.14-.75-.1a2,2,0,0,1-.68-.06.75.75,0,0,0-.42,0c-.3.08-.63.28-.88,0s-.45-.47-.69-.07c0,0-.11.08-.16-.09s-.12-.24-.19-.17c-.36.36-.76-.09-1.09.19s-.85-.11-1.28,0a1.51,1.51,0,0,1-.89.06,1.78,1.78,0,0,0-1.37.13c-.36.17-.74,0-1.11,0a.27.27,0,0,1-.28-.2h0l0,0c-.08.07-.16.21-.23.19-.67-.21-1.33.38-2,0-.18-.1-.31.2-.49.2a4.72,4.72,0,0,0-2.12.28c-.18.1-.4.06-.58-.22,0,0-.05-.16-.08-.06-.23.63-.52.32-.78.35a14.31,14.31,0,0,0-2.95.49,13.79,13.79,0,0,1-1.62.42.65.65,0,0,1-.46-.17c-.27-.19-.27-.17-.15-.87h0a1,1,0,0,1-1.37-.53.66.66,0,0,1-.11-.42.54.54,0,0,1-.07-.19c-.16-.69-.14-.81.14-1,.06,0,.16,0,.14-.17s-.1,0-.15,0-.22-.2-.33-.3-.44-.14-.64-.37a.56.56,0,0,1-.2-.54c0-.39.07-.74.25-.77s.33-.22.48.09c0,0,.07,0,.11,0h0c.16-.24.35,0,.52-.33a.73.73,0,0,0,.15-.48c0-.58.13-.83.37-.85.7-.05,1.41-.1,2.11-.12a1.64,1.64,0,0,1,.82.21c.16.09.32-.16.49-.19a23.79,23.79,0,0,1,2.67,0c.81,0,1.62,0,2.44-.06.47,0,1-.19,1.43-.17a18.6,18.6,0,0,1,2.69,0c.25.05.52-.16.78-.12a3.14,3.14,0,0,0,1.25.1,5.35,5.35,0,0,1,1.69-.08c.51,0,1-.08,1.54,0a3.28,3.28,0,0,0,1.11-.16.89.89,0,0,1,.7.18c.17.11.38-.08.58-.11s.48-.5.68.18c.13-.23.3-.07.42-.19s.45.1.67,0,.1.3.16.41.11.49.19-.06.3-.49.46,0q.1.29.18,0c.09-.33.18-.39.3-.11,0,.08.1.15.13,0,.19-.72.46-.08.68-.26,0,0,.1.06.1.2,0,.38.08.36.16.15.15-.4.34-.34.51-.28.54.22,1.1,0,1.64.22.74.25,1.48.12,2.22.3a3.66,3.66,0,0,0,1.27-.1,1,1,0,0,1,.91.35c.33.37.69.24,1,.27.12,0,.24,0,.33.26a1.89,1.89,0,0,1,.12.85c0,.33-.13.65-.28.65s-.51.21-.76.45-.51,0-.77,0-.46-.06-.68-.1c0,0-.08,0-.11,0a.42.42,0,0,0-.11.32c0,.17.08.12.12.12a4.19,4.19,0,0,1,1.68.46c.32.11.64.26,1,.39a.63.63,0,0,1,.18.12,1.22,1.22,0,0,1,.24,1" fill="#231f20"/>
  <path d="M329.93,32h0s0,0,0,0" fill="#231f20"/>
  <path d="M318.48,32.58h0M317,31.51v0a0,0,0,0,0,0,0m-.22-3.2a0,0,0,0,0,0,0s0,.09,0,.09,0,0,0-.08m33.94,3.47c0,.34-.23.65-.4.55s-.46-.1-.67-.34c0,0-.15-.16-.11.1.1.6-.15.53-.2.83-.09.52-.2.12-.32,0s-.21-.2-.31,0-.16.11-.2,0c-.25-.52-.44,0-.64.23s-.25.2-.4.12a6.32,6.32,0,0,0-1.79-.39c-.42-.08-.84,0-1.25-.12-.16,0-.25-.34-.4-.33l-.12,0c-.22.23-.45.57-.68,0-.24.33-.47-.42-.72,0a.1.1,0,0,1-.13.06,1.94,1.94,0,0,0-1.3-.07c-.08,0-.17,0-.22-.23-.38,0-.75.36-1.12,0s-.5-.14-.75-.1a1.94,1.94,0,0,1-.68-.06.79.79,0,0,0-.43,0c-.29.08-.62.28-.87,0s-.45-.47-.69-.07c0,0-.12.08-.16-.09s-.13-.24-.19-.17c-.36.36-.76-.09-1.1.19s-.85-.11-1.27,0a1.51,1.51,0,0,1-.89.06,1.78,1.78,0,0,0-1.37.13c-.36.17-.74,0-1.12,0-.09,0-.19,0-.27-.2h0l0,0c-.08.07-.16.21-.24.19-.66-.21-1.32.38-2,0-.18-.1-.32.2-.49.2a4.7,4.7,0,0,0-2.12.28c-.19.1-.4.06-.58-.22,0,0-.05-.16-.09-.06-.22.63-.52.32-.78.35a14.43,14.43,0,0,0-2.95.49,13.15,13.15,0,0,1-1.61.42.63.63,0,0,1-.46-.17c-.28-.19-.28-.17-.15-.87h0c-.47.19-.93.12-1.36-.53a.66.66,0,0,1-.11-.42.84.84,0,0,1-.08-.19c-.15-.69-.14-.81.15-1,.05,0,.15,0,.14-.17s-.1,0-.15,0-.22-.2-.33-.3-.44-.14-.65-.37a.58.58,0,0,1-.2-.54c0-.39.07-.74.26-.77s.32-.22.48.09c0,0,.07,0,.1,0h0c.16-.24.36,0,.53-.33a.73.73,0,0,0,.15-.48c0-.58.13-.83.37-.85.7-.05,1.4-.1,2.11-.12a1.67,1.67,0,0,1,.82.21c.16.09.32-.16.49-.19a23.57,23.57,0,0,1,2.66,0c.82,0,1.63,0,2.44-.06.48,0,1-.19,1.44-.17a18.44,18.44,0,0,1,2.68,0c.26.05.53-.16.79-.12a3.14,3.14,0,0,0,1.25.1,5.29,5.29,0,0,1,1.68-.08c.52,0,1-.08,1.55,0a3.28,3.28,0,0,0,1.11-.16.86.86,0,0,1,.69.18c.18.11.39-.08.58-.11s.48-.5.69.18c.13-.23.29-.07.42-.19s.44.1.67,0,.1.3.16.41.11.49.18-.06.31-.49.47,0q.11.29.18,0c.09-.33.18-.39.3-.11,0,.08.1.15.12,0,.2-.72.46-.08.69-.26.05,0,.09.06.1.2,0,.38.08.36.15.15.15-.4.34-.34.51-.28.55.22,1.1,0,1.65.22.73.25,1.48.12,2.22.3a3.68,3.68,0,0,0,1.27-.1,1,1,0,0,1,.91.35c.33.37.69.24,1,.27.13,0,.24,0,.34.26a1.76,1.76,0,0,1,.11.85c0,.33-.13.65-.28.65s-.5.21-.75.45-.51,0-.78,0-.45-.06-.67-.1c0,0-.08,0-.11,0a.42.42,0,0,0-.11.32c0,.17.08.12.12.12a4.19,4.19,0,0,1,1.68.46c.32.11.64.26,1,.39a.48.48,0,0,1,.17.12,1.22,1.22,0,0,1,.25,1" fill="#231f20"/>
  <path d="M246.92,32h0" fill="#231f20"/>
  <path d="M235.47,32.58h0M234,31.51a0,0,0,0,0,0,0v-.05a0,0,0,0,0,0,0m-.22-3.2a0,0,0,0,0,0,0s0,.09,0,.09,0,0,0-.08m33.94,3.47c0,.34-.23.65-.4.55s-.46-.1-.67-.34c-.05,0-.15-.16-.11.1.1.6-.15.53-.2.83-.09.52-.2.12-.32,0s-.21-.2-.31,0-.16.11-.21,0c-.24-.52-.43,0-.63.23s-.25.2-.4.12a6.32,6.32,0,0,0-1.79-.39c-.42-.08-.84,0-1.25-.12-.16,0-.25-.34-.4-.33l-.12,0c-.23.23-.45.57-.68,0-.24.33-.48-.42-.72,0a.11.11,0,0,1-.14.06,1.91,1.91,0,0,0-1.29-.07c-.08,0-.17,0-.22-.23-.38,0-.75.36-1.13,0s-.49-.14-.74-.1a1.94,1.94,0,0,1-.68-.06.79.79,0,0,0-.43,0c-.29.08-.63.28-.87,0s-.45-.47-.69-.07c0,0-.12.08-.16-.09s-.13-.24-.19-.17c-.37.36-.76-.09-1.1.19s-.85-.11-1.27,0a1.51,1.51,0,0,1-.89.06,1.78,1.78,0,0,0-1.37.13c-.36.17-.74,0-1.12,0-.09,0-.19,0-.27-.2h0l0,0c-.08.07-.16.21-.24.19-.66-.21-1.32.38-2,0-.18-.1-.32.2-.49.2a4.7,4.7,0,0,0-2.12.28c-.19.1-.4.06-.58-.22,0,0-.05-.16-.09-.06-.22.63-.52.32-.78.35a14.43,14.43,0,0,0-3,.49,13.15,13.15,0,0,1-1.61.42.63.63,0,0,1-.46-.17c-.28-.19-.28-.17-.15-.87h0c-.47.19-.93.12-1.36-.53a.72.72,0,0,1-.12-.42,2,2,0,0,1-.07-.19c-.16-.69-.14-.81.15-1,0,0,.15,0,.14-.17s-.1,0-.15,0-.22-.2-.33-.3-.44-.14-.65-.37a.58.58,0,0,1-.2-.54c0-.39.07-.74.26-.77s.32-.22.48.09c0,0,.07,0,.1,0h0c.16-.24.36,0,.53-.33a.68.68,0,0,0,.14-.48c0-.58.14-.83.38-.85.7-.05,1.4-.1,2.11-.12a1.7,1.7,0,0,1,.82.21c.15.09.32-.16.49-.19a23.62,23.62,0,0,1,2.66,0c.82,0,1.63,0,2.44-.06.48,0,1-.19,1.43-.17a18.58,18.58,0,0,1,2.69,0c.25.05.53-.16.79-.12a3.12,3.12,0,0,0,1.25.1,5.29,5.29,0,0,1,1.68-.08c.52,0,1-.08,1.54,0a3.34,3.34,0,0,0,1.12-.16.87.87,0,0,1,.69.18c.18.11.39-.08.58-.11s.48-.5.69.18c.13-.23.29-.07.42-.19s.44.1.66,0,.11.3.16.41.12.49.19-.06.31-.49.47,0q.11.29.18,0c.09-.33.18-.39.29-.11,0,.08.11.15.13,0,.2-.72.46-.08.68-.26.06,0,.1.06.11.2,0,.38.07.36.15.15.15-.4.34-.34.51-.28.55.22,1.1,0,1.64.22.74.25,1.49.12,2.23.3a3.68,3.68,0,0,0,1.27-.1,1,1,0,0,1,.91.35c.32.37.68.24,1,.27.13,0,.24,0,.34.26a1.76,1.76,0,0,1,.11.85c0,.33-.13.65-.28.65s-.5.21-.75.45-.52,0-.78,0-.45-.06-.68-.1c0,0-.07,0-.1,0a.38.38,0,0,0-.11.32c0,.17.07.12.12.12a4.19,4.19,0,0,1,1.68.46c.32.11.64.26,1,.39a.48.48,0,0,1,.17.12,1.22,1.22,0,0,1,.25,1" fill="#231f20"/>
  <path d="M277,43.09h0" fill="#a97c50"/>
  <path d="M288.48,42.48h0M290,43.54v0m.22,3.2s0,0,.05,0,0-.1,0-.1,0,0,0,.08m-33.93-3.47c0-.34.23-.65.4-.55s.45.1.67.34c0,0,.15.17.1-.1-.1-.6.15-.53.21-.83.08-.52.2-.12.32-.05s.21.2.31,0,.15-.11.2,0c.25.51.44,0,.63-.24s.26-.2.41-.12a6.32,6.32,0,0,0,1.79.39c.42.08.83,0,1.25.12.15,0,.25.35.39.33l.13,0c.22-.23.45-.57.68,0,.24-.33.47.42.71,0a.12.12,0,0,1,.14-.06,2,2,0,0,0,1.3.08c.08,0,.17,0,.22.22.37,0,.75-.36,1.12,0a.76.76,0,0,0,.75.1,2,2,0,0,1,.68.06.85.85,0,0,0,.42,0c.3-.09.63-.29.88,0s.45.47.69.07c0,0,.12-.08.16.09s.13.24.19.18c.36-.37.76.08,1.09-.2s.85.12,1.28,0a1.43,1.43,0,0,1,.89-.07,1.74,1.74,0,0,0,1.37-.13c.36-.17.74,0,1.11,0a.28.28,0,0,1,.28.2h0l0,0c.08-.07.16-.21.23-.19.67.21,1.33-.38,2,0,.18.1.32-.2.49-.2a4.58,4.58,0,0,0,2.12-.28c.19-.1.4-.06.58.22,0,0,.05.16.08.06.23-.63.52-.32.79-.35a14.43,14.43,0,0,0,2.95-.49,13.15,13.15,0,0,1,1.61-.42.63.63,0,0,1,.46.17c.27.19.28.17.15.87h0c.47-.19.93-.12,1.36.53a.66.66,0,0,1,.11.42.54.54,0,0,1,.07.19c.16.69.15.81-.14,1-.06,0-.16,0-.14.18s.1,0,.15,0,.22.2.33.31.44.13.64.36a.56.56,0,0,1,.2.54c0,.39-.06.74-.25.77s-.33.22-.48-.09c0,0-.07,0-.1,0h0c-.16.23-.35,0-.52.32a.73.73,0,0,0-.15.48c0,.58-.13.84-.37.85-.7,0-1.41.1-2.11.12a1.64,1.64,0,0,1-.82-.21c-.16-.09-.32.16-.49.19a23.79,23.79,0,0,1-2.67-.05c-.81,0-1.62.05-2.44.07-.47,0-.95.18-1.43.16a20,20,0,0,1-2.68,0c-.26,0-.53.16-.79.11a3.14,3.14,0,0,0-1.25-.1,5.66,5.66,0,0,1-1.69.09c-.51-.05-1,.07-1.54,0a3.55,3.55,0,0,0-1.11.16.89.89,0,0,1-.7-.18c-.17-.11-.38.08-.57.11s-.48.5-.69-.18c-.13.23-.29.07-.42.19s-.45-.1-.67,0-.1-.3-.16-.41-.11-.49-.19.07-.3.48-.46,0q-.1-.28-.18,0c-.09.33-.18.39-.3.11,0-.08-.1-.15-.13,0-.19.71-.46.07-.68.25,0,.05-.09-.06-.1-.2,0-.37-.08-.36-.16-.15-.14.4-.34.34-.5.28-.55-.21-1.1,0-1.65-.22-.74-.24-1.48-.12-2.22-.3a3.66,3.66,0,0,0-1.27.1.94.94,0,0,1-.91-.35c-.33-.37-.69-.24-1-.27-.12,0-.24,0-.33-.26a1.76,1.76,0,0,1-.11-.85c0-.33.12-.65.28-.64a1.26,1.26,0,0,0,.75-.46c.22-.23.51,0,.77,0s.46.06.68.1c0,0,.08,0,.11,0a.42.42,0,0,0,.11-.32c0-.17-.08-.12-.12-.12a4.19,4.19,0,0,1-1.68-.46c-.32-.11-.64-.25-1-.39a.47.47,0,0,1-.18-.12,1.22,1.22,0,0,1-.24-1" fill="#a97c50"/>
  <path d="M345.76,82.2h0" fill="#c2b59b"/>
  <path d="M357.21,81.59h0m1.49,1.07v0h0m.22,3.19s0,0,.05,0,0-.1,0-.1,0,0,0,.08M325,82.38c0-.34.23-.65.4-.55s.45.1.67.34c0,0,.15.17.1-.1-.1-.6.15-.53.21-.83.08-.52.2-.12.32,0s.21.2.31,0,.15-.11.2,0c.25.51.44,0,.63-.24s.26-.2.41-.12a6.32,6.32,0,0,0,1.79.39c.42.08.83,0,1.25.12.15,0,.25.35.39.33l.13,0c.22-.23.45-.57.68,0,.24-.33.47.42.71,0a.12.12,0,0,1,.14-.06,2,2,0,0,0,1.3.08c.08,0,.17,0,.22.22.37,0,.75-.36,1.12,0s.5.14.75.1a2,2,0,0,1,.68.06.85.85,0,0,0,.42,0c.3-.09.63-.29.88,0s.45.47.69.07c0,0,.12-.08.16.09s.13.24.19.18c.36-.37.76.08,1.09-.2s.85.12,1.28,0a1.43,1.43,0,0,1,.89-.07,1.74,1.74,0,0,0,1.37-.13c.36-.17.74,0,1.11,0a.27.27,0,0,1,.28.2h0s0,0,0,0,.16-.21.23-.19c.67.21,1.33-.38,2,0,.18.1.32-.2.49-.2a4.72,4.72,0,0,0,2.12-.28c.18-.1.4-.06.58.22,0,0,.05.16.08.06.23-.63.52-.32.79-.35A14.43,14.43,0,0,0,355,81a11.52,11.52,0,0,1,1.61-.41.58.58,0,0,1,.46.16c.27.19.28.17.15.87,0,0,0,0,0,0h0c.47-.19.93-.12,1.36.53a.66.66,0,0,1,.11.42.54.54,0,0,1,.07.19c.16.69.15.81-.14,1-.06,0-.16,0-.14.17s.1,0,.15,0,.22.2.33.31.44.13.64.36a.56.56,0,0,1,.2.54c0,.39-.07.74-.25.77s-.33.22-.48-.09c0,0-.07,0-.1,0h0c-.16.23-.35,0-.52.32a.73.73,0,0,0-.15.48c0,.58-.13.84-.37.85-.7,0-1.41.1-2.11.12a1.55,1.55,0,0,1-.82-.21c-.16-.09-.32.16-.49.19a23.79,23.79,0,0,1-2.67,0c-.81,0-1.62,0-2.44.07-.47,0-.95.18-1.43.16a20,20,0,0,1-2.68,0c-.26-.06-.53.16-.79.11a3.14,3.14,0,0,0-1.25-.1,5.66,5.66,0,0,1-1.69.09c-.51,0-1,.07-1.54,0a3.55,3.55,0,0,0-1.11.16.89.89,0,0,1-.7-.18c-.17-.11-.38.08-.57.11s-.48.5-.69-.18c-.13.23-.29.07-.42.19s-.45-.1-.67,0-.1-.3-.16-.41-.11-.49-.19.07-.3.48-.46,0q-.1-.28-.18,0c-.09.33-.18.39-.3.11,0-.08-.1-.15-.13,0-.19.72-.46.08-.68.26-.05,0-.09-.06-.1-.2,0-.37-.08-.36-.16-.15-.14.4-.34.34-.5.28-.55-.21-1.1,0-1.65-.22-.74-.24-1.48-.12-2.22-.3a3.66,3.66,0,0,0-1.27.1.94.94,0,0,1-.91-.35c-.33-.37-.69-.24-1-.27-.12,0-.24,0-.33-.26a1.76,1.76,0,0,1-.11-.85c0-.33.12-.65.28-.64a1.21,1.21,0,0,0,.75-.46c.22-.23.51,0,.77,0s.46.06.68.1c0,0,.08,0,.11,0a.42.42,0,0,0,.11-.32c0-.17-.08-.12-.12-.12a4.19,4.19,0,0,1-1.68-.46c-.32-.11-.64-.25-1-.39a.47.47,0,0,1-.18-.12,1.22,1.22,0,0,1-.24-1" fill="#c2b59b"/>
  <path d="M304.93,82.2h0s0,0,0,0" fill="#a97c50"/>
  <path d="M316.38,81.59h0m1.5,1.07s0,0,0,0v0h0m.22,3.19s0,0,0,0,0-.1,0-.1,0,0,0,.08m-33.94-3.47c0-.34.23-.65.4-.55s.46.1.67.34c0,0,.15.17.11-.1-.1-.6.15-.53.2-.83.09-.52.2-.12.32,0s.21.2.31,0,.16-.11.21,0c.24.51.43,0,.63-.24s.25-.2.4-.12a6.32,6.32,0,0,0,1.79.39c.42.08.84,0,1.25.12.16,0,.25.35.4.33l.12,0c.23-.23.45-.57.68,0,.24-.33.47.42.72,0a.1.1,0,0,1,.13-.06,2,2,0,0,0,1.3.08c.08,0,.17,0,.22.22.38,0,.75-.36,1.12,0s.5.14.75.1a1.94,1.94,0,0,1,.68.06.89.89,0,0,0,.43,0c.29-.09.62-.29.87,0s.45.47.69.07c0,0,.12-.08.16.09s.13.24.19.18c.37-.37.76.08,1.1-.2s.85.12,1.27,0a1.43,1.43,0,0,1,.89-.07,1.74,1.74,0,0,0,1.37-.13c.36-.17.74,0,1.12,0,.09,0,.19,0,.27.2h0l0,0c.08-.07.16-.21.24-.19.66.21,1.32-.38,2,0,.18.1.32-.2.49-.2a4.7,4.7,0,0,0,2.12-.28c.19-.1.4-.06.58.22,0,0,.05.16.09.06.22-.63.52-.32.78-.35a14.43,14.43,0,0,0,2.95-.49,11.52,11.52,0,0,1,1.61-.41.58.58,0,0,1,.46.16c.28.19.28.17.15.87h0c.47-.19.93-.12,1.36.53a.66.66,0,0,1,.11.42.84.84,0,0,1,.08.19c.15.69.14.81-.15,1-.05,0-.15,0-.14.17s.1,0,.15,0,.22.2.33.31.44.13.65.36a.58.58,0,0,1,.2.54c0,.39-.07.74-.26.77s-.32.22-.48-.09c0,0-.07,0-.1,0h0c-.16.23-.36,0-.53.32a.68.68,0,0,0-.14.48c0,.58-.14.84-.38.85-.7,0-1.4.1-2.11.12a1.57,1.57,0,0,1-.82-.21c-.15-.09-.32.16-.49.19a23.57,23.57,0,0,1-2.66,0c-.82,0-1.63,0-2.44.07-.48,0-1,.18-1.44.16a20,20,0,0,1-2.68,0c-.25-.06-.53.16-.79.11a3.12,3.12,0,0,0-1.25-.1,5.61,5.61,0,0,1-1.68.09c-.52,0-1,.07-1.55,0a3.55,3.55,0,0,0-1.11.16.86.86,0,0,1-.69-.18c-.18-.11-.39.08-.58.11s-.48.5-.69-.18c-.13.23-.29.07-.42.19s-.44-.1-.67,0-.1-.3-.15-.41-.12-.49-.19.07-.31.48-.47,0q-.11-.28-.18,0c-.09.33-.18.39-.3.11,0-.08-.1-.15-.12,0-.2.72-.46.08-.68.26-.06,0-.1-.06-.11-.2,0-.37-.07-.36-.15-.15-.15.4-.34.34-.51.28-.55-.21-1.1,0-1.64-.22-.74-.24-1.49-.12-2.23-.3a3.68,3.68,0,0,0-1.27.1.94.94,0,0,1-.91-.35c-.33-.37-.69-.24-1-.27-.13,0-.24,0-.34-.26a1.76,1.76,0,0,1-.11-.85c0-.33.13-.65.28-.64a1.19,1.19,0,0,0,.75-.46c.23-.23.52,0,.78,0s.45.06.67.1c0,0,.08,0,.11,0a.38.38,0,0,0,.11-.32c0-.17-.07-.12-.12-.12a4.19,4.19,0,0,1-1.68-.46c-.32-.11-.64-.25-1-.39a.38.38,0,0,1-.17-.12,1.22,1.22,0,0,1-.25-1" fill="#a97c50"/>
  <path d="M387.94,82.2h0" fill="#a97c50"/>
  <path d="M399.4,81.59h0m1.49,1.07s0,0,0,0v0h0m.22,3.19s0,0,.05,0,0-.1,0-.1,0,0,0,.08m-33.94-3.47c0-.34.24-.65.41-.55s.45.1.66.34c.05,0,.15.17.11-.1-.1-.6.15-.53.2-.83.09-.52.2-.12.32,0s.21.2.31,0,.16-.11.21,0c.24.51.43,0,.63-.24s.25-.2.4-.12a6.39,6.39,0,0,0,1.79.39c.42.08.84,0,1.26.12.15,0,.24.35.39.33l.12,0c.23-.23.45-.57.68,0,.24-.33.48.42.72,0a.11.11,0,0,1,.14-.06,2,2,0,0,0,1.29.08c.08,0,.17,0,.22.22.38,0,.75-.36,1.13,0a.77.77,0,0,0,.74.1,1.94,1.94,0,0,1,.68.06.89.89,0,0,0,.43,0c.29-.09.63-.29.87,0s.45.47.69.07c0,0,.12-.08.16.09s.13.24.19.18c.37-.37.76.08,1.1-.2s.85.12,1.27,0a1.46,1.46,0,0,1,.9-.07,1.72,1.72,0,0,0,1.36-.13c.36-.17.75,0,1.12,0,.09,0,.19,0,.27.2h0s0,0,0,0,.16-.21.24-.19c.66.21,1.33-.38,2,0,.17.1.31-.2.48-.2a4.7,4.7,0,0,0,2.12-.28c.19-.1.4-.06.58.22,0,0,.05.16.09.06.22-.63.52-.32.78-.35a14.43,14.43,0,0,0,2.95-.49,11.88,11.88,0,0,1,1.61-.41.58.58,0,0,1,.46.16c.28.19.28.17.15.87h0c.47-.19.93-.12,1.36.53a.72.72,0,0,1,.12.42,2,2,0,0,1,.07.19c.16.69.14.81-.15,1-.05,0-.15,0-.14.17s.1,0,.15,0,.23.2.33.31.44.13.65.36a.56.56,0,0,1,.2.54c0,.39-.07.74-.26.77s-.32.22-.48-.09c0,0-.07,0-.1,0h0c-.16.23-.36,0-.53.32a.68.68,0,0,0-.14.48c0,.58-.13.84-.38.85-.7,0-1.4.1-2.11.12a1.59,1.59,0,0,1-.82-.21c-.15-.09-.32.16-.49.19a23.62,23.62,0,0,1-2.66,0c-.81,0-1.63,0-2.44.07-.48,0-1,.18-1.43.16a20.12,20.12,0,0,1-2.69,0c-.25-.06-.53.16-.79.11a3.11,3.11,0,0,0-1.25-.1,5.61,5.61,0,0,1-1.68.09c-.52,0-1,.07-1.54,0a3.61,3.61,0,0,0-1.12.16.87.87,0,0,1-.69-.18c-.18-.11-.39.08-.58.11s-.48.5-.69-.18c-.13.23-.29.07-.42.19s-.44-.1-.66,0-.1-.3-.16-.41-.12-.49-.19.07-.3.48-.47,0c-.07-.19-.12-.2-.17,0-.09.33-.19.39-.3.11,0-.08-.11-.15-.13,0-.2.72-.46.08-.68.26-.06,0-.1-.06-.1-.2,0-.37-.08-.36-.16-.15-.15.4-.34.34-.51.28-.55-.21-1.1,0-1.64-.22-.74-.24-1.49-.12-2.23-.3a3.61,3.61,0,0,0-1.26.1,1,1,0,0,1-.92-.35c-.32-.37-.68-.24-1-.27-.13,0-.24,0-.33-.26a1.65,1.65,0,0,1-.12-.85c0-.33.13-.65.28-.64a1.19,1.19,0,0,0,.75-.46c.23-.23.52,0,.78,0s.45.06.68.1c0,0,.07,0,.1,0a.38.38,0,0,0,.11-.32c0-.17-.07-.12-.12-.12a4.19,4.19,0,0,1-1.68-.46c-.32-.11-.64-.25-1-.39a.38.38,0,0,1-.17-.12,1.22,1.22,0,0,1-.25-1" fill="#a97c50"/>
  <path d="M98.08,80.69h0s0,0,0,0" fill="#a97c50"/>
  <path d="M73.91,82s0,0,0,0m-3.15-2.26a.22.22,0,0,1,0,.08s0-.08,0-.12,0,0,0,0M70.3,73s-.06,0-.1,0,0,.2.07.21.08-.09,0-.18m71.62,7.34c-.06.71-.5,1.37-.85,1.15s-1-.21-1.41-.71c-.09-.11-.32-.36-.23.2.22,1.26-.31,1.13-.42,1.76-.19,1.1-.43.25-.68.09s-.44-.41-.66,0-.32.24-.43,0c-.51-1.1-.92.07-1.33.49s-.54.43-.86.26a13,13,0,0,0-3.77-.82c-.88-.17-1.76,0-2.65-.26-.32-.08-.52-.73-.82-.69l-.26,0c-.48.49-1,1.21-1.44.07-.51.7-1-.9-1.51,0-.08.13-.2.18-.29.13a4.17,4.17,0,0,0-2.74-.16c-.17,0-.35,0-.47-.48-.79-.08-1.57.77-2.36.06a1.65,1.65,0,0,0-1.58-.2,4.07,4.07,0,0,1-1.43-.13,1.83,1.83,0,0,0-.9,0c-.62.18-1.33.6-1.85,0s-.94-1-1.45-.14c0,.07-.25.16-.34-.2s-.27-.5-.41-.36c-.76.78-1.6-.19-2.3.42-.94.79-1.8-.25-2.7,0a3,3,0,0,1-1.88.14,3.66,3.66,0,0,0-2.88.28c-.76.36-1.57,0-2.36,0a.61.61,0,0,1-.58-.43,0,0,0,0,0,0,0h0s0-.05,0-.08c-.17.15-.34.45-.5.4-1.4-.43-2.8.8-4.19,0-.37-.21-.66.41-1,.42-1.49.06-3-.18-4.47.6-.4.21-.85.12-1.23-.48-.06-.1-.11-.32-.18-.13-.47,1.35-1.09.68-1.65.74a31.31,31.31,0,0,0-6.22,1,28.4,28.4,0,0,1-3.4.89,1.38,1.38,0,0,1-1-.35c-.58-.41-.58-.36-.31-1.84,0,0,0,0,0,0-1,.39-2,.25-2.88-1.11a1.39,1.39,0,0,1-.24-.89,2.08,2.08,0,0,1-.15-.4c-.34-1.47-.3-1.71.3-2.14.12-.09.33,0,.3-.37s-.21,0-.32,0c-.27.06-.47-.43-.7-.65-.44-.42-.92-.27-1.35-.76a1.22,1.22,0,0,1-.43-1.15c0-.81.15-1.56.54-1.62s.69-.47,1,.19c0,.08.15-.06.22-.09v0c.34-.51.76,0,1.12-.69a1.49,1.49,0,0,0,.3-1c0-1.24.28-1.77.79-1.8,1.48-.11,3-.21,4.45-.25a3.37,3.37,0,0,1,1.73.45c.33.18.68-.35,1-.41,1.88-.3,3.75.18,5.62.1s3.43-.11,5.15-.13c1,0,2-.39,3-.34,1.89.09,3.78-.33,5.67,0,.54.1,1.11-.34,1.66-.24a6.81,6.81,0,0,0,2.65.2,11.78,11.78,0,0,1,3.55-.18c1.09.1,2.16-.15,3.25,0a7.68,7.68,0,0,0,2.35-.34,1.84,1.84,0,0,1,1.46.37c.38.24.81-.16,1.22-.23s1-1.06,1.45.38c.28-.49.62-.14.89-.39.49-.46.94.21,1.41-.08.25-.15.21.63.34.87s.24,1,.39-.14.64-1,1-.06c.14.39.26.42.37,0,.19-.68.38-.82.63-.24.08.19.21.33.27.11.42-1.52,1-.16,1.44-.55.11-.09.2.13.21.42,0,.8.17.76.33.32.32-.84.72-.72,1.08-.58,1.15.45,2.32.07,3.47.46,1.55.52,3.12.26,4.69.63a7.82,7.82,0,0,0,2.67-.2,2,2,0,0,1,1.93.73c.69.79,1.45.51,2.18.56.27,0,.51.05.7.55a3.71,3.71,0,0,1,.25,1.8c-.09.7-.27,1.38-.59,1.37-.57,0-1.06.44-1.59,1s-1.09.07-1.64,0-1-.14-1.43-.21c-.07,0-.15-.06-.22,0a.89.89,0,0,0-.24.69c0,.35.17.25.26.24,1.2-.12,2.36.57,3.54,1,.68.23,1.35.54,2,.83a1,1,0,0,1,.37.25,2.61,2.61,0,0,1,.52,2.12" fill="#a97c50"/>
  <path d="M40.18,40.33h0" fill="#231f20"/>
  <path d="M24.08,57h0m-2.94,1.36,0,0,0,0v0m-2.67-1.94s0,0-.08.06.1,0,.12,0,0-.09,0-.09M70.08,10.76a.69.69,0,0,1-.18,1,6.58,6.58,0,0,1-1.21.7c-.11,0-.34.1-.09.23.58.27.18.58.33.87.25.49-.22.37-.44.48s-.44.16-.47.43a.28.28,0,0,1-.29.29c-.74,0-.6.64-.74,1.06a1,1,0,0,1-.5.66,25.25,25.25,0,0,0-2.87,2.26c-.66.54-1.22,1.17-1.9,1.69-.25.19-.61.11-.81.33l-.19.16c-.16.48-.23,1-1,1-.11.57-1,.37-1.06,1a.29.29,0,0,1-.15.24,8,8,0,0,0-1.93,1.79.44.44,0,0,1-.49.15c-.56.51-.81,1.32-1.6,1.61a3,3,0,0,0-1.15,1,8.15,8.15,0,0,1-1,.93,3.2,3.2,0,0,0-.61.61c-.36.48-.7,1.09-1.26,1.25s-1,.3-1,.93a.23.23,0,0,1-.3.16.29.29,0,0,0-.4.15c-.26.77-1.16,1-1.44,1.69-.36.89-1.31,1.12-1.83,1.82a5.7,5.7,0,0,1-1.25,1.3,6.93,6.93,0,0,0-1.88,2,8,8,0,0,1-1.62,1.56.7.7,0,0,1-.55.25h-.06c-.06.16-.07.38-.2.47-1.11.79-1.64,2.14-2.87,2.82-.33.18-.31.58-.55.83a17.38,17.38,0,0,0-2.86,3.2,1.34,1.34,0,0,1-1,.66c-.08,0-.19,0-.17.08.14.77-.51,1-.87,1.36a55.92,55.92,0,0,0-3.9,4.52c-.65.89-1.33,1.74-2,2.58a2.22,2.22,0,0,1-.79.54c-.54.25-.53.27-.86-.4v0a3.31,3.31,0,0,1-2.36,1.57.5.5,0,0,1-.47-.13,1,1,0,0,1-.24,0c-.74-.26-.8-.36-.54-.92.05-.1.24-.2.07-.31s-.13.14-.2.22-.47.17-.7.25c-.45.16-.73.53-1.2.66-.22.06-.45.18-.69-.1s-.44-.61-.19-.9.31-.62.76-.62c0,0,.08-.11.11-.17h0c.06-.39.51-.52.53-1,0-.22.07-.31-.14-.54-.41-.43-.43-.77-.09-1.12,1-1,2-2.07,3-3.08a6.12,6.12,0,0,1,1.34-1c.29-.16.35-.57.58-.84,1.18-1.35,2.62-2.45,3.88-3.74s2.31-2.34,3.48-3.5c.68-.68,1.25-1.48,1.95-2.14,1.33-1.24,2.47-2.65,3.9-3.8.4-.32.64-.85,1.06-1.19a13.31,13.31,0,0,0,1.88-1.71,21.87,21.87,0,0,1,2.37-2.44c.78-.7,1.43-1.51,2.21-2.2a15,15,0,0,0,1.49-1.69,3.26,3.26,0,0,1,1.13-.87c.34-.17.5-.59.76-.89s.33-1,1.12-.85c0-.35.38-.46.48-.73.17-.47.71-.56.93-1,.12-.22.37.07.54.07s.52.18.22-.31.08-.77.65-.69c.24,0,.33,0,.27-.23-.1-.36,0-.53.36-.5.11,0,.25,0,.22-.15-.25-.78.61-.71.79-1.15,0-.1.19-.09.3,0,.29.25.37.14.33-.12-.08-.49.24-.72.54-.91C55.36,17.57,56,16.66,57,16c1.25-.87,2.23-2,3.43-2.94a14.88,14.88,0,0,0,1.77-1.86,3.08,3.08,0,0,1,1.58-1.05,4.34,4.34,0,0,0,1.68-1.28.78.78,0,0,1,.67-.29,1,1,0,0,1,.79.43c.19.29.3.65.08.86a3.1,3.1,0,0,0-.75,1.38c-.17.48-.73.76-1.12,1.11s-.7.59-1,.89a.58.58,0,0,0-.16.15.31.31,0,0,0,.08.38c.13.12.2,0,.26-.08A15.62,15.62,0,0,1,67,11.66c.55-.38,1.12-.73,1.68-1.09a1,1,0,0,1,.34-.16.91.91,0,0,1,1.09.35" fill="#231f20"/>
  <path d="M35.23,29.62h0" fill="#231f20"/>
  <path d="M18.69,15.93h0M17.33,13.3l0,0,0,0s0,0,0,0m1.91-2.64s0-.05-.06-.07,0,.09,0,.11.08,0,.08,0M64.58,55.14a.67.67,0,0,1-.94-.1c-.22-.37-.57-.63-.7-1.07,0-.09-.1-.31-.22-.06-.28.57-.58.21-.87.37-.48.28-.36-.16-.48-.36s-.16-.4-.42-.41-.29-.1-.29-.25c0-.68-.64-.51-1-.6a1,1,0,0,1-.66-.41,19.7,19.7,0,0,0-2.24-2.5c-.53-.57-1.16-1-1.68-1.64-.19-.22-.11-.56-.33-.72l-.15-.17c-.48-.11-1-.14-1-.82-.56,0-.37-.9-1-.9a.29.29,0,0,1-.23-.13,7,7,0,0,0-1.77-1.65.39.39,0,0,1-.16-.45c-.5-.49-1.3-.65-1.6-1.36a2.46,2.46,0,0,0-1-1,7,7,0,0,1-.92-.89,3.06,3.06,0,0,0-.61-.51c-.47-.3-1.08-.56-1.24-1.07s-.3-.9-.92-.9a.2.2,0,0,1-.16-.27.27.27,0,0,0-.15-.37c-.77-.17-1-1-1.68-1.2-.88-.27-1.11-1.14-1.8-1.57a4.84,4.84,0,0,1-1.3-1,5.68,5.68,0,0,0-2-1.59,7,7,0,0,1-1.55-1.39.61.61,0,0,1-.25-.49h0v-.06c-.16,0-.37,0-.46-.14-.79-1-2.13-1.36-2.8-2.46-.18-.29-.57-.24-.82-.45A16,16,0,0,0,28,24.1a1.14,1.14,0,0,1-.66-.88c0-.08,0-.18-.08-.15-.76.19-.95-.41-1.34-.71a50.63,50.63,0,0,0-4.49-3.28c-.88-.53-1.72-1.09-2.56-1.68a1.85,1.85,0,0,1-.53-.69c-.26-.48-.28-.47.39-.83,0,0,0,0,0,0a2.78,2.78,0,0,1-1.55-2.08.48.48,0,0,1,.13-.45,1,1,0,0,1,0-.23c.26-.71.36-.77.91-.57.1,0,.2.2.31,0s-.14-.12-.22-.17-.17-.43-.25-.63c-.16-.41-.53-.64-.66-1.07-.06-.2-.18-.41.1-.65s.61-.46.89-.25.61.23.61.66c0,0,.11.06.17.09h0c.39,0,.51.43,1,.41.22,0,.31,0,.53-.18.43-.41.77-.46,1.12-.17,1,.83,2.05,1.66,3.05,2.52a5,5,0,0,1,1,1.17c.16.26.56.27.82.47,1.35,1,2.44,2.25,3.72,3.32s2.32,2,3.47,3c.68.58,1.48,1.05,2.13,1.65,1.23,1.14,2.63,2.1,3.77,3.33.32.36.85.53,1.18.89a10.42,10.42,0,0,0,1.7,1.62,18.91,18.91,0,0,1,2.42,2c.69.67,1.5,1.21,2.19,1.88a11.6,11.6,0,0,0,1.67,1.26,2.67,2.67,0,0,1,.86,1c.17.3.59.42.89.63s1,.22.84,1c.34,0,.46.32.72.38.47.13.56.63,1,.8.22.1-.06.35-.06.5s-.18.51.31.19.76,0,.68.55c0,.22,0,.3.23.23.35-.12.53-.06.5.29,0,.11,0,.24.15.2.77-.29.7.51,1.13.65.11,0,.1.16,0,.27-.25.29-.14.36.11.31a.8.8,0,0,1,.91.42c.62.83,1.53,1.38,2.16,2.19.87,1.09,2,1.92,2.92,3a13.55,13.55,0,0,0,1.85,1.49,2.64,2.64,0,0,1,1.05,1.39c.2.68.8,1,1.27,1.47a.67.67,0,0,1,.29.6,1.11,1.11,0,0,1-.43.78c-.29.19-.63.32-.84.13a3,3,0,0,0-1.38-.59c-.47-.11-.75-.61-1.1-.95s-.59-.61-.88-.91c0,0-.08-.11-.15-.13a.36.36,0,0,0-.38.1c-.11.13,0,.18.09.23a13.15,13.15,0,0,1,2,2.42c.38.48.73,1,1.09,1.47a1.82,1.82,0,0,1,.16.31.88.88,0,0,1-.35,1" fill="#231f20"/>
</svg>
