<svg id="Layer_1" data-name="Layer 1" xmlns="http://www.w3.org/2000/svg" viewBox="0 0 105.36 99.1">
  <path d="M11.18,32.36c.07,0,0,.27,0,.38a43.82,43.82,0,0,0-2.46,6.09c-.41,1.21-.63,2.08-.8,1.7l0-.12,0,.08a8.1,8.1,0,0,0-.31,1.65c.1-.41.25-1.07.26-.73a4,4,0,0,1-.07.91,6.28,6.28,0,0,1-.32,1.28v0H7.39v0a.91.91,0,0,0-.17.64c0,.11.11-.09.16-.15v0c.14-.11.08.3,0,.78C7.14,46,7.13,45,7,45c0,.66-.35,1.65-.19,2.19l0,.19.07-.11v0l.12.34,0,.25c0,2.8-.16,5,0,7.36a2.7,2.7,0,0,0,.25,1.17A14.92,14.92,0,0,1,8,58.18a14.48,14.48,0,0,1,.54,2.38,5.48,5.48,0,0,0,.64,1.73l0,0c.21.75.38,1.53.65,2.26l0,0,.07.33.14.11a10.59,10.59,0,0,0,.54,1.19c-.29,0-.09.49.24,1.06s.86,1.28,1.07,1.57c.83,1.13.79,1.28.88,1.66,1,1.25,0-.41-.08-.76a68.11,68.11,0,0,0,6.81,8.86c1.26,1.31,2.33,2.58,3.32,3.68h0l0,0h0a3.16,3.16,0,0,0,.76.8,7,7,0,0,1,.9.8l.41.35c.45.23.6-.2,1.56,1A4.51,4.51,0,0,0,28,86.26c.72.36,1.41.66,2,1l1.76,1c.57.32,1.09.67,1.65,1l.82.47.41.24.07.06,0,0h0a.08.08,0,0,1,0-.07s0,0,.14,0a2.29,2.29,0,0,1,.63.11,25.69,25.69,0,0,0,5.27,1h0l.51.15,1,.16h0c.49.07,1,.14,1.47.19.25,0-.12-.13-.5-.21a4.46,4.46,0,0,1,2,.28h.81a58,58,0,0,0,7,.82h-.05l.57,0h0c.45,0,1.07.33,1.37,0s1.75-.29,3.33-.23h0c1.51,0,3.72-.53,4.22-.08L64,91.87l1.51-.29h0q.69,0,1.38-.12c.5-.25,1-.47,1.48-.76h0c2.25-.61,3.95-1,5.68-1.62h0c.47-.17.95-.31,1.41-.51h0l.45-.24h0c1.12-.76,2.64-1.31,3.61-2.28h0c0-.11.11-.24-.42.14a9.87,9.87,0,0,1,3.32-2.49h0c.14-.16.35-.45.37-.47a13.08,13.08,0,0,0,2.89-2.94l1.09-1.54a20.09,20.09,0,0,1,1.21-1.63c.45-.59.87-1.32,1.1-1.31l0,.07,0,0c1.34-2.15,2.65-4.33,3.92-6.56l.92-1.67c.33-.56.61-1.11.87-1.66l.82-1.65.74-1.7c.41-.92.29-.19.52-.54a1.63,1.63,0,0,0,.09-.19,1.89,1.89,0,0,1,.1-.35v0l.13-.41.16-.5,0,.06c.43-1.23.13-.66,0-.52A56.05,56.05,0,0,0,98.8,50.09h0a4.56,4.56,0,0,0,0-.64,6.3,6.3,0,0,1,0-2.25l.15-.26c0,.23,0,.45,0,.68v0l0-.63c-.12-1.41-.14-.53-.2-.26a28.77,28.77,0,0,0-.93-5.85c-.11-.46-.21-1.06-.36-1.08-.16-.56-.37-1.09-.52-1.61l-.44-1.51c-.22-.46-.4-.94-.63-1.39l-.7-1.36c-.5-.89-1-1.74-1.6-2.72-1.16-1.9-2.29-3.78-3.48-5.6l0,0A44.13,44.13,0,0,0,73.79,10.84c-.56-.29-1.1-.6-1.69-.85l-1.49-.66L69,9c-.67-.13-1.34-.25-2-.35-2.67-.47-5.37-.82-8-1.14-6.24-.74-12.69-1-18.41,0A34.09,34.09,0,0,0,25.33,14,49,49,0,0,0,13.46,27.91c-.69,1.18-.74.94-.93,1-1.64.75-2.44,0-3.59-.07-.34,0-.64,0-1.66,1.41,1.06-2.16,2.05-4.09.54-2.33-.3.35-.42.4-.15-.26l0,0c.75-1.14.87-1.65.47-1.14-.9,1.16-.36-.08-.5-.19C7,25.88,8.5,22.83,11.38,19a49.49,49.49,0,0,1,14-13.15A42.22,42.22,0,0,1,43.9.2,72.83,72.83,0,0,1,55.63.28c3.86.3,7.65.82,11.4,1.46.94.17,1.88.32,2.81.5l1.4.27.77.15.67.13.59.26c1,.45,1.85.8,2.76,1.26s1.79.88,2.65,1.41a47.28,47.28,0,0,1,9.67,7.21A66.61,66.61,0,0,1,98.87,26.72l1.07,1.79,1.1,2c.34.68.65,1.37,1,2.05s.57,1.4.85,2.1a38.81,38.81,0,0,1,2.13,8.7,44.72,44.72,0,0,1-1.19,17.22,49.07,49.07,0,0,1-2.91,8.06,69.24,69.24,0,0,1-4,7.37A60.26,60.26,0,0,1,90,85.3a42.29,42.29,0,0,1-9.14,7.62,39.83,39.83,0,0,1-11,4.61,54.33,54.33,0,0,1-11.6,1.54A99.38,99.38,0,0,1,39.5,97.49l-3.62-.64-1.8-.35-1.21-.24a6.82,6.82,0,0,1-.75-.31l-.45-.2A49.24,49.24,0,0,1,13.19,81.88a68.77,68.77,0,0,1-5.3-7.32C7.08,73.3,6.31,72,5.56,70.78l-1.16-2c-.36-.7-.69-1.41-1-2.12A39.14,39.14,0,0,1,.27,55,51.89,51.89,0,0,1,.44,43a15.33,15.33,0,0,1,.49-2.39A7.89,7.89,0,0,1,1.61,39a6.32,6.32,0,0,1,1.62-1.83c.48-.32.85-.32,1.08.09.4.73,1.31-.44,1.81-.18s1.45-2.79,2.12-3.46C9.69,32.11,10.18,32.82,11.18,32.36Zm85.48,4.73-.15-.31,0,0Zm-14,46.56h0l0-.06ZM67.05,91.42c.58-.11,1.16-.24,1.72-.4a.28.28,0,0,0,.11-.08l-.9.26Zm-10.1,1c.49,0,1,0,1.46,0h0c.25-.1.38-.18-.12-.23S57,92.24,57,92.37Zm-13.08-.8.48.23.36,0ZM21.93,81.72l.13.17.29.17ZM12.71,70.4h0l.21.33ZM7.42,57l-.07-.41,0,.26A.48.48,0,0,0,7.42,57Z" fill="#fff"/>
</svg>
