<svg id="Layer_1" data-name="Layer 1" xmlns="http://www.w3.org/2000/svg" viewBox="0 0 500 133.49">
  <g id="Group_161" data-name="Group 161">
    <g id="Group_159" data-name="Group 159">
      <path id="Path_171" data-name="Path 171" d="M188.09,119a73.75,73.75,0,0,1-.44-9.28,18.35,18.35,0,0,1-16,9.72,12,12,0,0,1-12-7.55c-.9-2.44-1.26-6.13-1.26-14V83.09c0-4.67-.36-6.57-1.35-7.39-.54-.54-1.35-.71-3.06-.81h-1.63v-2l14-.9c-.44,8.38-.55,10.54-.55,16.77v7.82c0,9.09.19,11.52,1.26,14.67a7,7,0,0,0,7.3,5.06c5,0,9.37-3.26,11.71-8.75,1.34-3.06,1.62-5,1.62-10.62V83.08c0-4.77-.27-6.48-1.35-7.29a4.55,4.55,0,0,0-3.06-.9h-1.63v-2l14-.9c-.28,6.76-.46,12.7-.46,16.76v17c0,9,.81,10.64,5.49,10.64h.64v2Z" fill="#fff"/>
      <path id="Path_172" data-name="Path 172" d="M223.94,62.1a28.06,28.06,0,0,1,23-10.26q14.73,0,23,10.26a37,37,0,0,1,7.47,23.61,36.27,36.27,0,0,1-7.47,23.5,27.7,27.7,0,0,1-23,10.35,28,28,0,0,1-23-10.35,36.85,36.85,0,0,1-7.48-23.5,36.66,36.66,0,0,1,7.48-23.61m6.48,45.22a18.75,18.75,0,0,0,33,0,43.73,43.73,0,0,0,4.86-21.61,43.77,43.77,0,0,0-4.86-21.62,18.75,18.75,0,0,0-33,0,44.23,44.23,0,0,0-4.86,21.62,44.53,44.53,0,0,0,4.86,21.61" fill="#fff"/>
      <path id="Path_173" data-name="Path 173" d="M297.77,105.61c0,5.31.27,7.66,1.17,8.91a5,5,0,0,0,4.42,1.89,10.55,10.55,0,0,0,5.67-1.62l.81,2.34a19.18,19.18,0,0,1-9.09,2.25c-4.42,0-7.75-1.52-9.28-4.4-1-1.81-1.26-3.79-1.26-10.46V75.34h-5.67V73.27c5.31-.45,8-4,9.36-12.43L298,59.67c-.18,3.87-.27,7.29-.27,13.23h10.8v2.44h-10.8Z" fill="#fff"/>
      <path id="Path_174" data-name="Path 174" d="M327.47,105.61c0,5.31.27,7.66,1.16,8.91a5,5,0,0,0,4.42,1.89,10.55,10.55,0,0,0,5.67-1.62l.81,2.34a19.21,19.21,0,0,1-9.09,2.25c-4.42,0-7.75-1.52-9.28-4.4-1-1.81-1.26-3.79-1.26-10.46V75.34h-5.68V73.27c5.32-.45,8-4,9.37-12.43l4.15-1.17c-.18,3.87-.27,7.29-.27,13.23h10.8v2.44h-10.8Z" fill="#fff"/>
      <path id="Path_175" data-name="Path 175" d="M387.62,118.21a74,74,0,0,1-9.28.91c-2.69,0-3.42-1.44-3.77-7.48a23.06,23.06,0,0,1-4.42,3.89,17.89,17.89,0,0,1-11.7,3.85,13.63,13.63,0,0,1-9.19-2.79,12.94,12.94,0,0,1-4-9.54c0-7.11,4.51-11.71,13.25-13.7a98.24,98.24,0,0,1,16-2.16V85.53a18.13,18.13,0,0,0-1.26-8.21c-1.16-2.33-3.7-3.51-7.39-3.51-5.94,0-9,2.7-9.36,8.29-.09,1.88-.27,2.52-1,3.06a5.9,5.9,0,0,1-3.16.71c-3.06,0-4.41-.8-4.41-2.69a10.68,10.68,0,0,1,6.13-8.64,27.07,27.07,0,0,1,13.14-2.88c5.77,0,9.91,1.35,12.06,4,1.81,2.26,2.61,5.22,2.61,10.18,0,.28,0,.28-.18,9.1l-.08,8.55-.1,4.14a20.42,20.42,0,0,0,1,7.76c.54.71,1.62,1,5,1ZM374.57,93.27c-8,.71-11.54,1.44-15.13,3.26a10.6,10.6,0,0,0-6,10.26c0,5.67,3.07,9.55,7.57,9.55a13.84,13.84,0,0,0,11.53-6.58c1.44-2.52,2.07-6.31,2.07-12.26Z" fill="#fff"/>
      <path id="Path_176" data-name="Path 176" d="M410.13,118.76h-4.67L394.29,81.39c-1.54-5.14-2.61-6.22-7-6.49v-2h20v2c-4.33.17-6,1.09-6,3.34a17.21,17.21,0,0,0,.8,4l8.11,28.28L422,74.09h3.7l11.44,36.38L445,84a18.67,18.67,0,0,0,1.08-5.22,3.35,3.35,0,0,0-2.52-3.26,14.32,14.32,0,0,0-4.06-.62v-2h17.66v2c-5,.27-6.67,2-8.83,8.91l-10.9,34.94h-4.6L421.59,84.16Z" fill="#fff"/>
      <path id="Path_177" data-name="Path 177" d="M500,118.21a73.84,73.84,0,0,1-9.27.91c-2.71,0-3.43-1.44-3.79-7.48a23.34,23.34,0,0,1-4.41,3.89,17.94,17.94,0,0,1-11.71,3.85,13.55,13.55,0,0,1-9.18-2.79,12.94,12.94,0,0,1-4-9.54c0-7.11,4.51-11.71,13.24-13.7a98.51,98.51,0,0,1,16-2.16V85.53a18.4,18.4,0,0,0-1.26-8.21c-1.17-2.33-3.7-3.51-7.39-3.51-6,0-9,2.7-9.35,8.29-.09,1.88-.28,2.52-1,3.06a5.74,5.74,0,0,1-3.14.71c-3.07,0-4.42-.8-4.42-2.69a10.68,10.68,0,0,1,6.12-8.64,27.11,27.11,0,0,1,13.15-2.88c5.76,0,9.91,1.35,12.07,4,1.79,2.26,2.6,5.22,2.6,10.18,0,.28,0,.28-.18,9.1l-.09,8.55-.09,4.14a20.42,20.42,0,0,0,1,7.76c.55.71,1.63,1,5,1ZM487,93.27c-8,.72-11.53,1.45-15.13,3.26a10.6,10.6,0,0,0-6,10.27c0,5.67,3.07,9.55,7.56,9.55a13.84,13.84,0,0,0,11.53-6.59c1.43-2.51,2.07-6.3,2.07-12.25Z" fill="#fff"/>
    </g>
    <g id="Group_160" data-name="Group 160">
      <path id="Path_178" data-name="Path 178" d="M28.4,15.37H14.08v7.56H0V133.49H116.27V22.93H102.19V15.37H87.86C81.75,5.45,71.27,0,58.13,0S34.52,5.43,28.4,15.37m1.77,6.18H32l.88-1.61C39.06,8.57,50,6.18,58.13,6.18s19.08,2.4,25.25,13.76l.87,1.61H96v7.56h14.08V127.3H6.17V29.11H20.25V21.56Z" fill="#fff"/>
      <rect id="Rectangle_6" data-name="Rectangle 6" x="12.62" y="110.73" width="91" height="3.4" fill="#fff"/>
      <rect id="Rectangle_7" data-name="Rectangle 7" x="9.96" y="116.69" width="96.34" height="3.4" fill="#fff"/>
      <path id="Path_179" data-name="Path 179" d="M57.07,36.06,11.58,52.41l2.09,5.83,44.45-16,44.46,16,2.09-5.83L58.12,35.68Z" fill="#fff"/>
      <path id="Path_180" data-name="Path 180" d="M97.32,101.16l-.85-34.67a1.92,1.92,0,0,0,2.83-1.68h0a2,2,0,0,0-.55-1.35h1.56v-3.4H15.94v3.4h1.55a2,2,0,0,0-.55,1.35,1.92,1.92,0,0,0,1.92,1.92h0a1.89,1.89,0,0,0,.87-.21l-.85,34.65H15.7v5.67h84.84v-5.67Zm-60.79,0H26.79l-.85-34.65a1.89,1.89,0,0,0,.87.21,1.92,1.92,0,0,0,1.92-1.92h0a2,2,0,0,0-.55-1.35H35.1a2,2,0,0,0-.54,1.35,1.92,1.92,0,0,0,1.92,1.92h0a1.83,1.83,0,0,0,.87-.21Zm17.65,0H44.42l-.84-34.64a2,2,0,0,0,.87.21,1.92,1.92,0,0,0,1.93-1.91h0a2,2,0,0,0-.55-1.35h7a2,2,0,0,0-.55,1.35,1.92,1.92,0,0,0,1.92,1.92h0a2,2,0,0,0,.87-.21Zm17.61,0H62.06l-.84-34.62a2,2,0,0,0,.82.18A1.92,1.92,0,0,0,64,64.8h0a2,2,0,0,0-.55-1.35h7a2,2,0,0,0-.55,1.35,1.92,1.92,0,0,0,1.92,1.92h0a1.8,1.8,0,0,0,.88-.22Zm17.63,0H79.69l-.84-34.64a2,2,0,0,0,.85.2,1.92,1.92,0,0,0,1.94-1.91h0a2,2,0,0,0-.55-1.35h7a2,2,0,0,0-.55,1.35,1.92,1.92,0,0,0,2.77,1.72Z" fill="#fff"/>
    </g>
  </g>
</svg>
