<svg id="Layer_1" data-name="Layer 1" xmlns="http://www.w3.org/2000/svg" viewBox="0 0 300 99.1">
  <g>
    <g>
      <path d="M127.46,4.26v24.9h-4.54V4.26Z" fill="#3b3734"/>
      <path d="M132.71,16.53c0-2.07,0-3.81-.15-5.36h4l.22,2.7h.11a6.48,6.48,0,0,1,5.73-3.11c3.14,0,6.39,2,6.39,7.72V29.16h-4.55V19c0-2.58-1-4.54-3.43-4.54a3.81,3.81,0,0,0-3.55,2.66,4.55,4.55,0,0,0-.18,1.48V29.16h-4.58Z" fill="#3b3734"/>
      <path d="M170.42,2.93V24.1c0,1.85.08,3.84.15,5.06h-4.06l-.19-2.84h-.07a6.48,6.48,0,0,1-5.88,3.25c-4.28,0-7.68-3.66-7.68-9.2,0-6,3.73-9.61,8.05-9.61a5.72,5.72,0,0,1,5.06,2.37h.08V2.93Zm-4.54,15.74a6.73,6.73,0,0,0-.11-1.18,4,4,0,0,0-3.92-3.22c-2.92,0-4.54,2.59-4.54,5.95s1.62,5.69,4.5,5.69a4,4,0,0,0,3.92-3.21,5.11,5.11,0,0,0,.15-1.33Z" fill="#3b3734"/>
      <path d="M180.14,6.15a2.55,2.55,0,0,1-5.1,0,2.55,2.55,0,0,1,5.1,0Zm-4.84,23v-18h4.58v18Z" fill="#3b3734"/>
      <path d="M201,26.54c0,3.77-.77,6.46-2.66,8.16a10.35,10.35,0,0,1-6.94,2.18,12.73,12.73,0,0,1-6.28-1.44l1-3.44a10.76,10.76,0,0,0,5.24,1.37c3,0,5.17-1.55,5.17-5.43V26.39h-.07a6.08,6.08,0,0,1-5.25,2.66c-4.47,0-7.64-3.69-7.64-8.79,0-5.91,3.84-9.5,8.16-9.5A5.67,5.67,0,0,1,197,13.57h.07l.19-2.4h3.95c-.07,1.22-.15,2.7-.15,5.17Zm-4.54-8.17a4.48,4.48,0,0,0-.15-1.22,3.76,3.76,0,0,0-3.69-2.91c-2.55,0-4.44,2.21-4.44,5.87,0,3.07,1.56,5.54,4.4,5.54a3.87,3.87,0,0,0,3.69-2.73,7.27,7.27,0,0,0,.19-1.63Z" fill="#3b3734"/>
      <path d="M209.13,21.44c.11,3.25,2.66,4.65,5.54,4.65a13.48,13.48,0,0,0,5-.81l.66,3.14A16.8,16.8,0,0,1,214,29.57c-5.83,0-9.27-3.62-9.27-9.13,0-5,3-9.68,8.8-9.68s7.75,4.81,7.75,8.76a10.56,10.56,0,0,1-.15,1.92ZM217,18.26c0-1.66-.7-4.39-3.73-4.39-2.81,0-4,2.55-4.18,4.39Z" fill="#3b3734"/>
      <path d="M225,16.53c0-2.07,0-3.81-.15-5.36h4l.22,2.7h.11a6.49,6.49,0,0,1,5.73-3.11c3.14,0,6.39,2,6.39,7.72V29.16h-4.55V19c0-2.58-1-4.54-3.43-4.54a3.81,3.81,0,0,0-3.55,2.66,4.84,4.84,0,0,0-.18,1.48V29.16H225Z" fill="#3b3734"/>
      <path d="M263.21,20c0,6.61-4.65,9.57-9.24,9.57-5.09,0-9-3.51-9-9.28s3.88-9.53,9.31-9.53S263.21,14.53,263.21,20Zm-13.56.18c0,3.48,1.7,6.1,4.47,6.1,2.59,0,4.4-2.55,4.4-6.17,0-2.81-1.26-6-4.36-6S249.65,17.19,249.65,20.18Z" fill="#3b3734"/>
      <path d="M283.05,23.77c0,2.14.07,3.91.14,5.39h-4L279,26.43h-.07a6.52,6.52,0,0,1-5.76,3.14c-3.29,0-6.28-2-6.28-7.83V11.17h4.54V21c0,3,1,4.91,3.36,4.91a3.82,3.82,0,0,0,3.47-2.44,4,4,0,0,0,.26-1.4V11.17h4.55Z" fill="#3b3734"/>
      <path d="M287.73,25a10.29,10.29,0,0,0,4.62,1.29c2,0,2.88-.81,2.88-2s-.74-1.84-3-2.62c-3.51-1.22-5-3.14-4.95-5.24,0-3.18,2.62-5.66,6.8-5.66a10.45,10.45,0,0,1,4.76,1.08L298,15.05a8.06,8.06,0,0,0-3.8-1c-1.63,0-2.51.78-2.51,1.89s.85,1.7,3.14,2.51c3.25,1.18,4.76,2.84,4.8,5.5,0,3.26-2.55,5.66-7.31,5.66a11.58,11.58,0,0,1-5.47-1.3Z" fill="#3b3734"/>
      <path d="M127.91,55.46l-2.15,7h-4.69l8-24.9h5.8l8.09,24.9h-4.88l-2.25-7ZM135,52l-2-6.13c-.48-1.52-.89-3.22-1.26-4.66h-.07c-.37,1.44-.74,3.18-1.18,4.66L128.64,52Z" fill="#3b3734"/>
      <path d="M159,62a13.08,13.08,0,0,1-5.1,1c-5.61,0-9.27-3.62-9.27-9.2,0-5.39,3.7-9.61,10-9.61A11.39,11.39,0,0,1,159,45l-.81,3.4a8.06,8.06,0,0,0-3.44-.7c-3.47,0-5.54,2.55-5.5,5.84,0,3.69,2.4,5.8,5.5,5.8a9,9,0,0,0,3.58-.7Z" fill="#3b3734"/>
      <path d="M168.09,39.9v4.62h4.33v3.4h-4.33v7.94c0,2.18.6,3.33,2.33,3.33a5.45,5.45,0,0,0,1.77-.23l.08,3.48a9.81,9.81,0,0,1-3.29.48,5.25,5.25,0,0,1-3.91-1.52c-1-1-1.41-2.66-1.41-5V47.92h-2.58v-3.4h2.58V41.2Z" fill="#3b3734"/>
      <path d="M180.69,39.5A2.55,2.55,0,1,1,178.14,37,2.42,2.42,0,0,1,180.69,39.5Zm-4.84,23v-18h4.58v18Z" fill="#3b3734"/>
      <path d="M202.41,53.35c0,6.61-4.65,9.57-9.23,9.57-5.1,0-9-3.51-9-9.27,0-5.92,3.88-9.54,9.31-9.54S202.41,47.88,202.41,53.35Zm-13.56.18c0,3.48,1.7,6.1,4.47,6.1,2.59,0,4.4-2.55,4.4-6.17,0-2.81-1.26-6-4.36-6S188.85,50.54,188.85,53.53Z" fill="#3b3734"/>
      <path d="M206.14,49.88c0-2.07,0-3.81-.15-5.36h4l.22,2.7h.11A6.49,6.49,0,0,1,216,44.11c3.14,0,6.39,2,6.39,7.73V62.51h-4.54V52.35c0-2.58-1-4.54-3.44-4.54a3.8,3.8,0,0,0-3.54,2.66,4.54,4.54,0,0,0-.19,1.48V62.51h-4.58Z" fill="#3b3734"/>
      <path d="M235.1,38a38.85,38.85,0,0,1,6.94-.52c3.33,0,5.77.7,7.35,2a7,7,0,0,1,2.44,5.5,7.57,7.57,0,0,1-2.14,5.66c-1.81,1.81-4.65,2.66-7.87,2.66a12.77,12.77,0,0,1-2.21-.15v9.38H235.1Zm4.51,11.59a9,9,0,0,0,2.21.19c3.4,0,5.47-1.66,5.47-4.58,0-2.77-1.92-4.25-5.06-4.25a12.58,12.58,0,0,0-2.62.22Z" fill="#3b3734"/>
      <path d="M255.45,36.28H260V62.51h-4.58Z" fill="#3b3734"/>
      <path d="M278.91,58.19a28.17,28.17,0,0,0,.26,4.32h-4.1l-.3-2h-.11a6.69,6.69,0,0,1-5.32,2.4,5.34,5.34,0,0,1-5.65-5.36c0-4.54,4-6.83,10.67-6.8v-.29c0-1.18-.48-3.14-3.65-3.14a9.5,9.5,0,0,0-4.84,1.33l-.89-3a13,13,0,0,1,6.5-1.59c5.77,0,7.43,3.66,7.43,7.58Zm-4.43-4.47c-3.22-.07-6.28.63-6.28,3.36a2.39,2.39,0,0,0,2.58,2.59,3.7,3.7,0,0,0,3.55-2.48,3.28,3.28,0,0,0,.15-1Z" fill="#3b3734"/>
      <path d="M283.71,49.88c0-2.07,0-3.81-.15-5.36h4l.22,2.7h.11a6.49,6.49,0,0,1,5.73-3.11c3.14,0,6.39,2,6.39,7.73V62.51h-4.54V52.35c0-2.58-1-4.54-3.44-4.54a3.82,3.82,0,0,0-3.55,2.66,4.84,4.84,0,0,0-.18,1.48V62.51h-4.58Z" fill="#3b3734"/>
      <path d="M121.52,95.86V94.39l1.9-1.84c4.55-4.34,6.63-6.66,6.64-9.35a3.17,3.17,0,0,0-3.52-3.5,6.17,6.17,0,0,0-3.79,1.51L122,79.52a7.86,7.86,0,0,1,5-1.81c3.84,0,5.46,2.64,5.46,5.18,0,3.31-2.39,6-6.15,9.58l-1.41,1.34v0h8v2Z" fill="#9c1b30"/>
      <path d="M147.5,86.75c0,6.06-2.27,9.41-6.21,9.41-3.49,0-5.86-3.26-5.92-9.16s2.59-9.29,6.22-9.29S147.5,81.07,147.5,86.75Zm-9.7.26c0,4.65,1.43,7.28,3.62,7.28,2.47,0,3.64-2.88,3.64-7.43s-1.11-7.27-3.62-7.27C139.34,79.59,137.8,82.17,137.8,87Z" fill="#9c1b30"/>
      <path d="M155,80.25h0l-3.1,1.67-.46-1.83,3.9-2.08h2V95.86H155Z" fill="#9c1b30"/>
      <path d="M165.21,94.16a10,10,0,0,0,1.94-.1,6.62,6.62,0,0,0,3.75-1.71,8,8,0,0,0,2.34-4.76h-.07A5.23,5.23,0,0,1,169,89.51,5.17,5.17,0,0,1,163.68,84a6.13,6.13,0,0,1,6.11-6.33c3.64,0,5.9,3,5.9,7.54,0,3.91-1.32,6.65-3.08,8.37a9.07,9.07,0,0,1-5.2,2.38,11.38,11.38,0,0,1-2.2.14Zm.87-10.26c0,2.22,1.34,3.79,3.44,3.79A4,4,0,0,0,173,85.81a1.73,1.73,0,0,0,.21-.88c0-3.06-1.13-5.37-3.66-5.37C167.53,79.56,166.08,81.37,166.08,83.9Z" fill="#9c1b30"/>
      <path d="M184.26,87.55v1.77h-6.78V87.55Z" fill="#9c1b30"/>
      <path d="M186.31,95.86V94.39l1.89-1.84c4.56-4.34,6.64-6.66,6.65-9.35a3.17,3.17,0,0,0-3.52-3.5,6.2,6.2,0,0,0-3.8,1.51l-.77-1.69a7.91,7.91,0,0,1,5.05-1.81c3.84,0,5.46,2.64,5.46,5.18,0,3.31-2.39,6-6.15,9.58l-1.41,1.34v0h8v2Z" fill="#9c1b30"/>
      <path d="M212.28,86.75c0,6.06-2.26,9.41-6.21,9.41-3.48,0-5.85-3.26-5.91-9.16s2.59-9.29,6.21-9.29S212.28,81.07,212.28,86.75Zm-9.69.26c0,4.65,1.43,7.28,3.62,7.28,2.47,0,3.64-2.88,3.64-7.43s-1.11-7.27-3.62-7.27C204.13,79.59,202.59,82.17,202.59,87Z" fill="#9c1b30"/>
      <path d="M214.49,95.86V94.39l1.89-1.84c4.56-4.34,6.64-6.66,6.65-9.35a3.17,3.17,0,0,0-3.52-3.5,6.2,6.2,0,0,0-3.8,1.51l-.77-1.69A7.86,7.86,0,0,1,220,77.71c3.84,0,5.46,2.64,5.46,5.18,0,3.31-2.39,6-6.15,9.58l-1.41,1.34v0h8v2Z" fill="#9c1b30"/>
      <path d="M236.05,95.86V91h-8.28V89.41L235.72,78h2.62V89.12h2.5V91h-2.5v4.87Zm0-6.74v-6c0-.93,0-1.86.1-2.79l-.1,0c-.55,1.07-1,1.83-1.48,2.66l-4.35,6.07v.06Z" fill="#9c1b30"/>
    </g>
    <g>
      <polygon points="81.88 28.61 81.88 28.61 81.9 28.64 81.88 28.61" fill="#9c1b30"/>
      <polygon points="86.87 56.33 86.88 56.28 86.87 56.3 86.87 56.33" fill="#9c1b30"/>
      <polygon points="85.1 60.13 85.11 60.1 85.11 60.09 85.1 60.13" fill="#9c1b30"/>
      <polygon points="85.63 59.18 85.63 59.18 85.65 59.15 85.63 59.18" fill="#9c1b30"/>
      <path d="M57.44,17.28h0Z" fill="#9c1b30"/>
      <polygon points="80.55 27.13 80.54 27.11 80.53 27.1 80.55 27.13" fill="#9c1b30"/>
      <polygon points="69.05 82.9 68.99 82.92 69.01 82.92 69.05 82.9" fill="#9c1b30"/>
      <polygon points="23.04 34.94 23.02 34.96 23.03 34.97 23.04 34.94" fill="#9c1b30"/>
      <path d="M68.08,78.6s.1-.18.18-.2a11.55,11.55,0,0,0,3.89-1.71c.73-.52,1.28-.87,1.25-.53l-.07,0,0,0c.28-.27.84-.62.89-.86-.23.2-.6.54-.48.3A3.28,3.28,0,0,1,75,74.47l0,0,.07.06h0c.1,0,.21,0,.4-.3,0-.07-.12,0-.19,0l0,0c-.15,0,.07-.22.35-.48.62-.56.21.07.3.11.26-.43,1-.82,1.11-1.29l.07-.13-.11,0,0,0,.06-.28.1-.18c1.3-1.78,2.55-3.12,3.73-4.61a2.3,2.3,0,0,0,.48-.86,7.87,7.87,0,0,1,1.68-3.13A4.74,4.74,0,0,0,83.78,62v0L85,60.42l0,0,.2-.21V60.1l.52-.92c.17.21.42-.15.64-.63a14.2,14.2,0,0,0,.47-1.36c.3-1,.41-1,.63-1.27.26-1.18-.3.17-.49.37a30.51,30.51,0,0,0,1.74-8.07c0-.66.1-1.29.12-1.87s.09-1.15.14-1.69h0v0h0c.18-.34-.14-1.22-.08-1.65a2.32,2.32,0,0,0-.06-.38c-.18-.33-.56-.14-.4-1.29A2.66,2.66,0,0,0,88,40a13.2,13.2,0,0,1-.8-1.43,12.25,12.25,0,0,1-.63-1.33c-.22-.43-.4-.85-.59-1.29l-.21-.41a3.62,3.62,0,0,1-.13-.35,1.66,1.66,0,0,1-.11-.3l0-.17-.2-.7v0h0c-.1,0-.38-.37-.43-.62A6.75,6.75,0,0,0,84,31.61L83,30v0l-.14-.35-.43-.62,0,0c-.2-.29-.42-.57-.64-.84-.18-.09,0,.14.11.38-.34-.36-.81-.64-.88-1.14l0,0,0,0c-.15-.13-.32-.25-.48-.37A17.69,17.69,0,0,0,77,23.47l0,0-.32-.25,0,0c-.26-.2-.46-.72-.84-.55s-1.22-.46-2.18-1.11l0,0A16.35,16.35,0,0,0,72,20.84c-.55-.25-1-.48-1.06-.79-.72-.3-1.48-.53-2.22-.77l0,0-1-.47c-.43,0-.88,0-1.32,0h0c-1.77-.43-3.1-.87-4.52-1.25h0l-1.16-.29h0l-.4,0h0c-1.09.08-2.34-.36-3.42-.14h0c-.08.06-.19.13.33.12a8.31,8.31,0,0,1-1.84.21,3.15,3.15,0,0,1-1.5-.27h0l-.47.12c-2.58-.24-4.07.65-6.32.94-.57.07-1.2.3-1.34.12h0c-1.93.51-3.84,1-5.75,1.57-.47.12-1,.29-1.45.43l-.88.24-.77.18a8,8,0,0,0-1.14.31,10.92,10.92,0,0,0-1.15.45c-.63.26-.26-.09-.54,0l-.15.06a.55.55,0,0,1-.21.14l0,0-.27.16-.31.19,0,0c-.78.51-.35.35-.21.33a42.7,42.7,0,0,0-5.49,5.45h0l-.32.41a4.11,4.11,0,0,1-1.08,1.44l-.26.06.34-.43,0,0-.05.06-.31.4c-.65.93-.17.41,0,.28a41,41,0,0,0-2.61,4.08c-.21.34-.51.73-.42.85a18.17,18.17,0,0,1-1.4,2.33c-.76,1.53-1.46,3-2.1,4.55s-1.24,3.06-1.75,4.6v0a22.48,22.48,0,0,0-1,8A19.35,19.35,0,0,0,19,62.08l.71,1.21.18.32a2.11,2.11,0,0,1,.18.33l.23.54.3.67a13.28,13.28,0,0,0,.63,1.32c.23.43.44.88.7,1.3a27.92,27.92,0,0,0,3.41,4.7,25.9,25.9,0,0,0,11.2,7.42,40.75,40.75,0,0,0,13,2A59.32,59.32,0,0,0,64,80c1-.27.93-.09,1.1,0,1.38.68,1.5,1.76,2.15,2.66.2.27.38.49,1.77.27-1.78.67-3.41,1.21-1.55,1.16.36,0,.46,0,0,.27h0c-1.06.21-1.4.47-.89.42,1.16-.12.18.31.21.49.12.8-2.44,1.68-6.16,2.3a69,69,0,0,1-14.87,1A39.66,39.66,0,0,1,30.83,85a34.14,34.14,0,0,1-8.16-5.43,32.74,32.74,0,0,1-6.2-7.6l-.62-1.06-.56-1.08-.54-1.08-.49-1.11L14,67.07c-.12-.28,0-.11-.06-.15l-.51-.86c-.44-.69-.79-1.47-1.17-2.21A25.14,25.14,0,0,1,9.89,54a34.6,34.6,0,0,1,3-14,61.23,61.23,0,0,1,3-6.13q1.62-2.92,3.51-5.72a44.86,44.86,0,0,1,9-10.22A20.16,20.16,0,0,1,35,14.34l1-.25.12,0,.06,0h-.08s-.05,0,0,0l.38-.12,1.53-.5c1.06-.31,2.11-.61,3.17-.89A59.61,59.61,0,0,1,59.27,10.7a41.57,41.57,0,0,1,18,5,32.12,32.12,0,0,1,6.38,4.76,33.57,33.57,0,0,1,5,6.16,37.18,37.18,0,0,1,2.85,5.54l.15.35c0-.08,0,0,0,0s0,0,0,0l0-.05,0,0,.1.17.2.35c.27.46.56.9.79,1.39l.72,1.45L94,37.34a25.71,25.71,0,0,1,1.52,6.38,27.64,27.64,0,0,1-.16,6.5,34.45,34.45,0,0,1-1.84,7.22,59,59,0,0,1-2.92,6.61A75.19,75.19,0,0,1,86,71.81a70.7,70.7,0,0,1-5.74,7.36,8.31,8.31,0,0,1-2.77,2.06,5.35,5.35,0,0,1-2.11.23c-.51-.1-.78-.35-.74-.78.06-.74-1.17-.59-1.39-1.11-.18-.37-2.27.82-3,.66A1.87,1.87,0,0,1,69.3,80a1.76,1.76,0,0,1-.49-.43A5.33,5.33,0,0,0,68.08,78.6ZM21.78,36.93l-.12.26v0ZM53.77,17h0Zm13.89,1.73c-.43-.14-.88-.25-1.32-.38,0,0-.08,0-.11,0C66.7,18.54,67.19,18.64,67.66,18.77Zm7,3.18-.88-.61,0,0,0,0c-.2,0-.33,0,0,.25S74.49,22,74.61,22Zm7.13,6.2-.1-.39-.18-.19Zm7.4,17.15,0-.15-.09-.23ZM87.38,55.92h0l.1-.27ZM81.62,66.09l-.19.29.14-.18A.28.28,0,0,0,81.62,66.09Z" fill="#9c1b30"/>
      <polygon points="33.18 22.39 33.16 22.41 33.17 22.41 33.18 22.39" fill="#9c1b30"/>
      <polygon points="26.28 29.7 26.28 29.7 26.28 29.7 26.28 29.7" fill="#9c1b30"/>
      <polygon points="26.05 30.02 26.05 30.03 26.05 30.03 26.05 30.02" fill="#9c1b30"/>
    </g>
    <g>
      <polygon points="43.26 91.32 43.27 91.32 43.22 91.31 43.26 91.32" fill="#3b3734"/>
      <polygon points="12.59 69.58 12.63 69.63 12.62 69.61 12.59 69.58" fill="#3b3734"/>
      <polygon points="9.96 64.88 9.98 64.91 9.99 64.92 9.96 64.88" fill="#3b3734"/>
      <polygon points="10.52 66.1 10.52 66.1 10.54 66.14 10.52 66.1" fill="#3b3734"/>
      <path d="M78.92,86.26l0,0-.07,0Z" fill="#3b3734"/>
      <polygon points="46.04 91.59 46.06 91.59 46.08 91.59 46.04 91.59" fill="#3b3734"/>
      <polygon points="7.24 30.36 7.28 30.29 7.26 30.31 7.24 30.36" fill="#3b3734"/>
      <polygon points="97.43 39.81 97.42 39.78 97.41 39.77 97.43 39.81" fill="#3b3734"/>
      <path d="M11.18,32.36c.07,0,0,.27,0,.38a43.82,43.82,0,0,0-2.46,6.09c-.41,1.21-.63,2.08-.8,1.7l0-.12,0,.08a8.1,8.1,0,0,0-.31,1.65c.1-.41.25-1.07.26-.73a4,4,0,0,1-.07.91,6.28,6.28,0,0,1-.32,1.28v0H7.39v0a.91.91,0,0,0-.17.64c0,.11.11-.09.16-.15v0c.14-.11.08.3,0,.78C7.14,46,7.13,45,7,45c0,.66-.35,1.65-.19,2.19l0,.19.07-.11v0l.12.34,0,.25c0,2.8-.16,5,0,7.36a2.7,2.7,0,0,0,.25,1.17A14.92,14.92,0,0,1,8,58.18a14.48,14.48,0,0,1,.54,2.38,5.48,5.48,0,0,0,.64,1.73l0,0c.21.75.38,1.53.65,2.26l0,0,.07.33.14.11a10.59,10.59,0,0,0,.54,1.19c-.29,0-.09.49.24,1.06s.86,1.28,1.07,1.57c.83,1.13.79,1.28.88,1.66,1,1.25,0-.41-.08-.76a68.11,68.11,0,0,0,6.81,8.86c1.26,1.31,2.33,2.58,3.32,3.68h0l0,0h0a3.16,3.16,0,0,0,.76.8,7,7,0,0,1,.9.8l.41.35c.45.23.6-.2,1.56,1A4.51,4.51,0,0,0,28,86.26c.72.36,1.41.66,2,1l1.76,1c.57.32,1.09.67,1.65,1l.82.47.41.24.07.06,0,0h0a.08.08,0,0,1,0-.07s0,0,.14,0a2.29,2.29,0,0,1,.63.11,25.69,25.69,0,0,0,5.27,1h0l.51.15,1,.16h0c.49.07,1,.14,1.47.19.25,0-.12-.13-.5-.21a4.46,4.46,0,0,1,2,.28h.81a58,58,0,0,0,7,.82h-.05l.57,0h0c.45,0,1.07.33,1.37,0s1.75-.29,3.33-.23h0c1.51,0,3.72-.53,4.22-.08L64,91.87l1.51-.29h0q.69,0,1.38-.12c.5-.25,1-.47,1.48-.76h0c2.25-.61,3.95-1,5.68-1.62h0c.47-.17.95-.31,1.41-.51h0l.45-.24h0c1.12-.76,2.64-1.31,3.61-2.28h0c0-.11.11-.24-.42.14a9.87,9.87,0,0,1,3.32-2.49h0c.14-.16.35-.45.37-.47a13.08,13.08,0,0,0,2.89-2.94l1.09-1.54a20.09,20.09,0,0,1,1.21-1.63c.45-.59.87-1.32,1.1-1.31l0,.07,0,0c1.34-2.15,2.65-4.33,3.92-6.56l.92-1.67c.33-.56.61-1.11.87-1.66l.82-1.65.74-1.7c.41-.92.29-.19.52-.54a1.63,1.63,0,0,0,.09-.19,1.89,1.89,0,0,1,.1-.35v0l.13-.41.16-.5,0,.06c.43-1.23.13-.66,0-.52A56.05,56.05,0,0,0,98.8,50.09h0a4.56,4.56,0,0,0,0-.64,6.3,6.3,0,0,1,0-2.25l.15-.26c0,.23,0,.45,0,.68v0l0-.63c-.12-1.41-.14-.53-.2-.26a28.77,28.77,0,0,0-.93-5.85c-.11-.46-.21-1.06-.36-1.08-.16-.56-.37-1.09-.52-1.61l-.44-1.51c-.22-.46-.4-.94-.63-1.39l-.7-1.36c-.5-.89-1-1.74-1.6-2.72-1.16-1.9-2.29-3.78-3.48-5.6l0,0A44.13,44.13,0,0,0,73.79,10.84c-.56-.29-1.1-.6-1.69-.85l-1.49-.66L69,9c-.67-.13-1.34-.25-2-.35-2.67-.47-5.37-.82-8-1.14-6.24-.74-12.69-1-18.41,0A34.09,34.09,0,0,0,25.33,14,49,49,0,0,0,13.46,27.91c-.69,1.18-.74.94-.93,1-1.64.75-2.44,0-3.59-.07-.34,0-.64,0-1.66,1.41,1.06-2.16,2.05-4.09.54-2.33-.3.35-.42.4-.15-.26l0,0c.75-1.14.87-1.65.47-1.14-.9,1.16-.36-.08-.5-.19C7,25.88,8.5,22.83,11.38,19a49.49,49.49,0,0,1,14-13.15A42.22,42.22,0,0,1,43.9.2,72.83,72.83,0,0,1,55.63.28c3.86.3,7.65.82,11.4,1.46.94.17,1.88.32,2.81.5l1.4.27.77.15.67.13.59.26c1,.45,1.85.8,2.76,1.26s1.79.88,2.65,1.41a47.28,47.28,0,0,1,9.67,7.21A66.61,66.61,0,0,1,98.87,26.72l1.07,1.79,1.1,2c.34.68.65,1.37,1,2.05s.57,1.4.85,2.1a38.81,38.81,0,0,1,2.13,8.7,44.72,44.72,0,0,1-1.19,17.22,49.07,49.07,0,0,1-2.91,8.06,69.24,69.24,0,0,1-4,7.37A60.26,60.26,0,0,1,90,85.3a42.29,42.29,0,0,1-9.14,7.62,39.83,39.83,0,0,1-11,4.61,54.33,54.33,0,0,1-11.6,1.54A99.38,99.38,0,0,1,39.5,97.49l-3.62-.64-1.8-.35-1.21-.24a6.82,6.82,0,0,1-.75-.31l-.45-.2A49.24,49.24,0,0,1,13.19,81.88a68.77,68.77,0,0,1-5.3-7.32C7.08,73.3,6.31,72,5.56,70.78l-1.16-2c-.36-.7-.69-1.41-1-2.12A39.14,39.14,0,0,1,.27,55,51.89,51.89,0,0,1,.44,43a15.33,15.33,0,0,1,.49-2.39A7.89,7.89,0,0,1,1.61,39a6.32,6.32,0,0,1,1.62-1.83c.48-.32.85-.32,1.08.09.4.73,1.31-.44,1.81-.18s1.45-2.79,2.12-3.46C9.69,32.11,10.18,32.82,11.18,32.36Zm85.48,4.73-.15-.31,0,0Zm-14,46.56h0l0-.06ZM67.05,91.42c.58-.11,1.16-.24,1.72-.4a.28.28,0,0,0,.11-.08l-.9.26Zm-10.1,1c.49,0,1,0,1.46,0h0c.25-.1.38-.18-.12-.23S57,92.24,57,92.37Zm-13.08-.8.48.23.36,0ZM21.93,81.72l.13.17.29.17ZM12.71,70.4h0l.21.33ZM7.42,57l-.07-.41,0,.26A.48.48,0,0,0,7.42,57Z" fill="#3b3734"/>
      <polygon points="97.18 60.2 97.19 60.16 97.18 60.17 97.18 60.2" fill="#3b3734"/>
      <polygon points="98.75 47.22 98.76 47.21 98.76 47.21 98.75 47.22" fill="#3b3734"/>
      <polygon points="98.71 46.72 98.71 46.71 98.71 46.72 98.71 46.72" fill="#3b3734"/>
    </g>
    <g>
      <polygon points="28.16 47.47 28.16 47.47 28.17 47.45 28.16 47.47" fill="#9d937f"/>
      <polygon points="39.39 31.2 39.37 31.21 39.38 31.21 39.39 31.2" fill="#9d937f"/>
      <polygon points="42.26 30.52 42.23 30.52 42.23 30.53 42.26 30.52" fill="#9d937f"/>
      <polygon points="41.39 30.66 41.39 30.66 41.37 30.66 41.39 30.66" fill="#9d937f"/>
      <path d="M33.53,64.26h0l0,0Z" fill="#9d937f"/>
      <polygon points="27.97 48.86 27.97 48.87 27.97 48.88 27.97 48.86" fill="#9d937f"/>
      <polygon points="62.31 23.77 62.35 23.79 62.34 23.78 62.31 23.77" fill="#9d937f"/>
      <polygon points="60.07 69.65 60.1 69.65 60.1 69.64 60.07 69.65" fill="#9d937f"/>
      <path d="M61.31,28c0,.05-.13.13-.19.12a21.08,21.08,0,0,0-3.41-.23c-.69,0-1.19,0-1-.27h0c-.29.06-.78,0-.92.15.24,0,.61-.06.43,0A1.66,1.66,0,0,1,55,28h0V28h0c-.07,0-.13-.12-.37,0-.06,0,.07.08.11.13h0c.09.11-.14.14-.42.15-.62,0-.1-.19-.13-.29-.35.15-1,0-1.23.22l-.1.05.07.06h0l-.17.17-.14.06a27.86,27.86,0,0,1-4.29.57,1.23,1.23,0,0,0-.67.22,3.94,3.94,0,0,1-2.5.79,2.79,2.79,0,0,0-1.1.33h0l-1.51.08h0l-.22,0-.08.1-.85.14c.07-.53-1.43,0-1.58.19-.55.29-.65.22-.85.16-.62.44.22.14.41.2a10.29,10.29,0,0,0-4,3A16.84,16.84,0,0,1,33.64,36h0c-.3.07-.54.75-.81,1l-.17.24c-.06.29.34.44-.46.94a1.47,1.47,0,0,0-.53.92,13,13,0,0,1-2.22,4h0c.1.05.05.4-.07.54a3.11,3.11,0,0,0-.62,1.23c-.13.45-.23.91-.34,1.35h0l-.15.23-.14.52v0c-.07.24-.11.49-.16.73s.13,0,.2-.22c0,.35.07.74-.23,1v0l0,.43a11,11,0,0,0-.51,3.45v.23c0,.22-.29.55.07.66s.38.81.43,1.56v0a9.25,9.25,0,0,0,.34,1.15c.13.36.19.68,0,.88.2.46.4.93.65,1.38v0l.16.69.75.52v0c.64,1,1,1.84,1.51,2.71v0c.13.24.28.46.42.7h0l.19.21h0c.64.41,1,1.29,1.73,1.61h0c.09,0,.18,0-.09-.25.87.4,1.52.85,1.72,1.56h0l.32.12c1.2,1.39,2.53,1.43,3.88,2.34.34.24.8.39.76.6l0,0v0c1.3.6,2.59,1.25,3.87,1.92l.87.46a.18.18,0,0,0,.08.06c.6.13,1.26.2,1.9.29s.15.21.36.3l.11,0a.44.44,0,0,1,.2,0h.51c.7,0,.36-.08.26-.15,1.82-.34,3.77-.31,5.71-.67h0l.37-.06a2,2,0,0,1,1.29-.25l.18.14-.4.06h0l.37,0c.8-.19.28-.18.12-.21,1.17-.13,2.25-.6,3.42-.84.29-.06.65-.09.66-.24a8.55,8.55,0,0,1,2-.43c.61-.19,1.22-.38,1.87-.56.32-.09.65-.18,1-.25a7.3,7.3,0,0,0,.83-.22,14.07,14.07,0,0,0,1.38-.47,9.81,9.81,0,0,0,1.32-.59h0c2.85-1.68,5-5.26,7-9,.31-.63.66-1.29.92-1.93s.52-1.28.72-1.95a25,25,0,0,0,1-4,14.6,14.6,0,0,0-.93-8.85,20.94,20.94,0,0,0-5.52-6.79A51.72,51.72,0,0,0,63,28.87c-.68-.37-.51-.46-.54-.62-.26-1.3.35-2.19.59-3.24.07-.32.12-.6-.67-1.22,1.25.53,2.38,1,1.45,0-.19-.19-.19-.29.2-.18l0,0c.64.44,1,.43.68.18-.63-.55.11-.34.21-.49.43-.67,2.18.08,4.47,1.52a53.78,53.78,0,0,1,8.76,6.56,22.43,22.43,0,0,1,6.28,9.93,22.45,22.45,0,0,1,.77,7.48,28.55,28.55,0,0,1-1.42,7l-.58,1.65-.67,1.63q-.7,1.56-1.47,3A40.36,40.36,0,0,1,77.35,68a20.64,20.64,0,0,1-3.95,4,17.46,17.46,0,0,1-5.2,2.63l-.72.21c-.24.06-.51.14-.67.17-.37.07-.75.15-1.1.24l-2.18.53c-1.49.37-3,.75-4.59,1.07a62,62,0,0,1-9.53,1.36c-.81.07-1.66,0-2.5.05s-1.7-.06-2.56-.18L43.43,78a4.51,4.51,0,0,1-.53-.08l-.49-.24L41.12,77,39,76a46.43,46.43,0,0,1-10.87-7.6,26.51,26.51,0,0,1-4.4-5.55,21.34,21.34,0,0,1-2.58-6.88,24.36,24.36,0,0,1,.95-11.72c.2-.73.49-1.41.73-2.12s.57-1.4.86-2.08c.63-1.32,1.26-2.6,2-3.87a31.4,31.4,0,0,1,5.4-7.45,17.46,17.46,0,0,1,2.33-1.89,16.76,16.76,0,0,1,2.71-1.44c.47-.21.94-.36,1.41-.53s1.05-.31,1.46-.41c.8-.18,1.5-.36,2.26-.57,3.94-1.09,8.25-1.92,12.63-2.77a4.81,4.81,0,0,1,2.41.11c1.17.6,1.83,1.39,1.45,2.06s.48,1.12.42,1.67,1.72.46,2.18.83C61.33,26.57,61,27.28,61.31,28Zm.47,41.29.2-.08h0ZM35.32,66.1h0l0,0Zm-6.17-7.18.42.8s.06,0,.08,0C29.47,59.48,29.32,59.2,29.15,58.92ZM27.7,54.18l0,.7v0c.1.1.19.15.22-.1S27.84,54.2,27.7,54.18Zm.22-6.44-.21.22,0,.18Zm5.83-12.23-.1.06,0,.18ZM39,31h0l-.16.07Zm8.31-1.68.25,0h-.16Z" fill="#9d937f"/>
      <polygon points="48.35 71.78 48.37 71.78 48.37 71.77 48.35 71.78" fill="#9d937f"/>
      <polygon points="55.72 70.79 55.73 70.79 55.73 70.79 55.72 70.79" fill="#9d937f"/>
      <polygon points="56.01 70.73 56.02 70.73 56.01 70.72 56.01 70.73" fill="#9d937f"/>
    </g>
    <g>
      <polygon points="65.73 44.35 65.73 44.34 65.73 44.36 65.73 44.35" fill="#716558"/>
      <polygon points="64.84 55.09 64.85 55.08 64.85 55.08 64.84 55.09" fill="#716558"/>
      <polygon points="63.88 56.47 63.89 56.46 63.88 56.45 63.88 56.47" fill="#716558"/>
      <polygon points="64.18 56.15 64.18 56.15 64.19 56.14 64.18 56.15" fill="#716558"/>
      <polygon points="57.99 37.47 57.97 37.48 58 37.48 57.99 37.47" fill="#716558"/>
      <polygon points="65.29 43.67 65.28 43.67 65.28 43.66 65.29 43.67" fill="#716558"/>
      <polygon points="56.27 65.83 56.24 65.84 56.25 65.84 56.27 65.83" fill="#716558"/>
      <polygon points="43.1 41.4 43.1 41.41 43.1 41.41 43.1 41.4" fill="#716558"/>
      <path d="M55.51,61.48s.05-.16.08-.17a14.46,14.46,0,0,0,1.94-.42c.35-.11.62-.15.61.12h0c.12-.1.4-.09.42-.26-.11.05-.29.13-.24,0a.51.51,0,0,1,.56-.3h0l0,.07h0c.06,0,.11.09.2,0s-.07-.07-.1-.1h0c-.08-.09,0-.15.15-.18.31-.07.12.16.18.25.11-.17.5-.07.52-.34l0-.05-.06,0h0l0-.16,0-.07a8.5,8.5,0,0,1,1.86-1c.23-.12.17-.2.22-.29a1.18,1.18,0,0,1,.81-1.07.66.66,0,0,0,.34-.47h0c.24-.12.46-.25.69-.39h0l.13,0,0-.08.29-.31c.37.37.61-.44.67-.66.11-.42.23-.39.39-.43.08-.51-.25,0-.39,0a16.86,16.86,0,0,0,1.07-3.19,3.55,3.55,0,0,1,.59-1.32h0c.2-.09.12-.48.25-.62l0-.15c-.09-.16-.48-.17,0-.53a.41.41,0,0,0,0-.51,1.81,1.81,0,0,1-.2-1.11,4,4,0,0,0,.15-1v0h0c-.1,0-.24-.13-.21-.23a1.1,1.1,0,0,0-.08-.76c-.12-.24-.28-.46-.38-.7h0V44.8L66,44.52h0c-.06-.13-.14-.25-.2-.38s-.09.08-.07.19c-.13-.15-.39-.25-.25-.52l0,0h0l-.2-.16c-.13-.33-.26-.62-.37-.94a1.91,1.91,0,0,0-.53-.89h0l-.1-.12h0c-.08-.11,0-.44-.27-.29s-.55-.18-.79-.57h0c-.26-.35-1-.5-.73-1a5.33,5.33,0,0,0-.74-.5h0l-.23-.35-.6.06h0A6.44,6.44,0,0,1,59.6,38h0l-.35-.31h0l-.14-.06h0c-.43,0-.79-.44-1.24-.34h0c0,.05-.1.1.09.15-.54.13-1,.15-1.2-.36h0l-.19.06c-.92-.5-1.57.13-2.42.09-.22,0-.47.08-.52-.12h0v0a9.64,9.64,0,0,1-1.54.33,12,12,0,0,1-1.57.27l-.24,0-1.46.14c-.3,0-.13-.17-.27-.22h-.07a.12.12,0,0,1-.1,0h0l-.13,0-.15,0h0c-.38.08-.17.13-.09.19-.86.57-1.84.73-2.66,1.28h0l-.16.09c-.12.22-.24.4-.53.38l-.16-.09.17-.1h0l-.16.09c-.32.27-.06.19.05.2-.55.26-.84.82-1.3,1.23-.11.09-.29.19-.19.31a2.7,2.7,0,0,1-.74.73c-.69,1.08-1.39,2.24-2.07,3.36h0a12.43,12.43,0,0,0-1.36,6.13,7.25,7.25,0,0,0,.53,2l.46,1.09c.19.35.37.69.54,1a11.1,11.1,0,0,0,3.37,4,12.69,12.69,0,0,0,4.47,1.95,15.93,15.93,0,0,0,5.49.23c.42-.08.39.09.46.21a11.83,11.83,0,0,1,1.12,3c.11.29.21.55.87.64-.82.24-1.57.48-.68.77.18.06.23.14,0,.26h0c-.5,0-.66.2-.41.24.56.1.1.34.12.52,0,.39-.24.7-.77.89a8.21,8.21,0,0,1-2.25.3,24.66,24.66,0,0,1-7.34-1,16.69,16.69,0,0,1-6.63-3.73,20.25,20.25,0,0,1-5.1-7.78,21.54,21.54,0,0,1-.72-2.23,8.15,8.15,0,0,1-.26-1.29,12.57,12.57,0,0,1-.12-1.3,16,16,0,0,1,.53-4.88,22.43,22.43,0,0,1,2.68-6.18,24.68,24.68,0,0,1,2-2.68,20.4,20.4,0,0,1,2.37-2.37,18.7,18.7,0,0,1,4.62-2.89,22.21,22.21,0,0,1,5-1.48L49,31.1c.85-.16,1.68-.38,2.55-.5a19.84,19.84,0,0,1,8.95.69,18.92,18.92,0,0,1,4.21,2,19.23,19.23,0,0,1,3.57,3,19.58,19.58,0,0,1,3.94,6.38,21.92,21.92,0,0,1,.9,2.84,11.19,11.19,0,0,1,.27,1.67,14.51,14.51,0,0,1,0,1.61,19.33,19.33,0,0,1-1.15,6A23.5,23.5,0,0,1,69,60.81a23.59,23.59,0,0,1-7,6,2.36,2.36,0,0,1-1.64.35c-1-.39-1.55-1-1.52-1.72s-.6-1-.71-1.54-1.12-.13-1.47-.39C55.88,62.89,55.89,62.14,55.51,61.48ZM42.43,42l0,.1h0Zm14.26-5.09h0ZM61.51,39a3.25,3.25,0,0,0-.42-.31s0,0-.06,0A2.87,2.87,0,0,1,61.51,39Zm2.11,2-.22-.36v0c-.11,0-.2,0-.15.19S63.51,41.11,63.62,41.05Zm2.18,3.06.08-.2-.06-.09Zm.87,6.76.06,0,0-.11C66.68,50.77,66.67,50.82,66.67,50.87Zm-1.43,4.19h0l0-.1Zm-3.13,3.32-.1.08.07,0Z" fill="#716558"/>
      <polygon points="48.05 38 48.04 38.01 48.04 38.01 48.05 38" fill="#716558"/>
      <polygon points="44.7 39.77 44.7 39.77 44.7 39.77 44.7 39.77" fill="#716558"/>
      <polygon points="44.59 39.86 44.59 39.87 44.59 39.87 44.59 39.86" fill="#716558"/>
    </g>
    <g>
      <polygon points="47.28 48.6 47.28 48.61 47.28 48.6 47.28 48.6" fill="#cd704b"/>
      <polygon points="50.16 45.18 50.16 45.18 50.16 45.19 50.16 45.18" fill="#cd704b"/>
      <polygon points="50.99 45.05 50.98 45.05 50.98 45.05 50.99 45.05" fill="#cd704b"/>
      <polygon points="50.73 45.05 50.73 45.05 50.73 45.05 50.73 45.05" fill="#cd704b"/>
      <polygon points="47.8 52.38 47.81 52.38 47.8 52.37 47.8 52.38" fill="#cd704b"/>
      <polygon points="47.23 48.94 47.23 48.94 47.23 48.95 47.23 48.94" fill="#cd704b"/>
      <polygon points="56.75 42.25 56.77 42.26 56.76 42.25 56.75 42.25" fill="#cd704b"/>
      <polygon points="53.85 54.42 53.86 54.42 53.86 54.42 53.85 54.42" fill="#cd704b"/>
      <path d="M55.45,44.89a.13.13,0,0,1-.06.08,2.09,2.09,0,0,0-.51-.15c-.13,0-.23-.06-.18-.22h0c-.06,0-.17-.06-.21,0s.14,0,.09.05-.15.16-.26,0h0v-.06h0s0-.09-.08,0,0,.06,0,.09h0c0,.07,0,.09-.1.06s0-.13,0-.2-.22-.11-.29,0l0,0v0h0l0,.09,0,0a2.28,2.28,0,0,1-1.1-.07c-.14,0-.13,0-.18.07-.16.19-.31.37-.67.23a.35.35,0,0,0-.31.08h0L51.06,45h0L51,45l0,0h-.25c0-.34-.43-.09-.47,0s-.17.05-.24,0c-.16.18.08.14.14.19a1.93,1.93,0,0,0-.86.63.6.6,0,0,1-.4.17h0c-.11-.06-.12.12-.23.13l0,0c0,.08.25.24-.09.22-.15,0-.15.13-.15.2,0,.51-.42.69-.72.94h0c.06,0,.07.15,0,.17-.29.11-.29.41-.35.62h0l-.07,0-.05.12h0l-.06.17s.08,0,.12,0,.07.21-.1.22h0l0,.11c-.1.26-.37.45-.32.74h0v.06h0c0,.05-.23.1,0,.15s.22.18.14.33h0c0,.16.24.31-.11.42a2.36,2.36,0,0,0,.12.28h0l-.07.17.31.06h0a1.71,1.71,0,0,1,.07.69h0a1.48,1.48,0,0,0,0,.21h0l0,0h0c.19.06.11.38.36.41h0s.09,0,0-.09c.29,0,.43.15.34.46h.1a.54.54,0,0,0,.43.41,1.27,1.27,0,0,1,.54.25c.08.07.21.1.15.22h0a4.93,4.93,0,0,1,1,.59l.12.08s0,0,0,0v0s.07.07.18.14,0,.14,0,.2l0,0h.14c.14,0,.08,0,.07-.1.38-.14.82,0,1.31,0h.09c.11-.08.21-.14.33,0l.06.11h0c.22,0,.07-.08,0-.12.31,0,.59-.15.91-.17.08,0,.19,0,.18-.08a1,1,0,0,1,.55-.05,9.34,9.34,0,0,1,1.05-.3c.23-.06.54-.13.73-.16h0a2,2,0,0,0,.78-.54,8.86,8.86,0,0,0,.86-1.13,7,7,0,0,0,.86-1.93,3,3,0,0,0,.12-1.9,4.67,4.67,0,0,0-1-1.6,14.27,14.27,0,0,0-2-1.77c-.17-.12-.08-.2-.06-.28a9.87,9.87,0,0,1,1-1.88.55.55,0,0,0,0-.62c.35.17.68.32.54-.14,0-.09,0-.15.12-.12h0c.15.18.28.14.22,0s.12-.2.19-.3c.33-.43.84-.17,1.46.38a21,21,0,0,1,2.5,2.43,7.11,7.11,0,0,1,1.65,3.71A8.9,8.9,0,0,1,62.58,53a18.28,18.28,0,0,1-1,1.86,9.78,9.78,0,0,1-1.48,1.86,6.93,6.93,0,0,1-1.71,1.18,8,8,0,0,1-1.76.58c-.58.13-.88.17-1.36.26s-.92.15-1.4.2a16.05,16.05,0,0,1-3.14.09,7.51,7.51,0,0,1-.9-.13,5.27,5.27,0,0,1-1-.29,2.06,2.06,0,0,1-.57-.25l-.42-.28-.58-.38a13.14,13.14,0,0,1-3.08-2.81,7.92,7.92,0,0,1-1.69-4.61,8.63,8.63,0,0,1,.86-3.79c.19-.45.43-.82.64-1.23s.44-.75.71-1.14a8.39,8.39,0,0,1,2.26-2.34A6.53,6.53,0,0,1,48.78,41c.26-.08.6-.16.84-.21l.66-.15c1.17-.27,2.51-.34,4-.57a.91.91,0,0,1,.81.24,1.45,1.45,0,0,1,.29,1.44c-.15.38,0,.77-.06,1.13s.39.36.44.6A3.43,3.43,0,0,1,55.45,44.89ZM54.34,54.4l0,0h0ZM48.09,53ZM47,51.09l.06.18h0Zm-.06-1-.06.15h0c.06,0,.11,0,.16,0S47,50.09,46.94,50.08Zm.2-1.44-.13,0v.05Zm1.72-2.83h0v.06ZM50,45h0L50,45Zm2.37-.15h0A0,0,0,0,0,52.39,44.84Z" fill="#cd704b"/>
      <polygon points="50.95 54.75 50.95 54.74 50.95 54.74 50.95 54.75" fill="#cd704b"/>
      <polygon points="52.69 54.68 52.69 54.68 52.7 54.68 52.69 54.68" fill="#cd704b"/>
      <polygon points="52.77 54.67 52.77 54.67 52.77 54.67 52.77 54.67" fill="#cd704b"/>
    </g>
  </g>
</svg>
